<?xml version="1.0" encoding="utf-8" standalone="no"?>
<!DOCTYPE svg PUBLIC "-//W3C//DTD SVG 1.1//EN"
  "http://www.w3.org/Graphics/SVG/1.1/DTD/svg11.dtd">
<svg xmlns:xlink="http://www.w3.org/1999/xlink" width="2133.397371pt" height="626.079992pt" viewBox="0 0 2133.397371 626.079992" xmlns="http://www.w3.org/2000/svg" version="1.1">
 <metadata>
  <rdf:RDF xmlns:dc="http://purl.org/dc/elements/1.1/" xmlns:cc="http://creativecommons.org/ns#" xmlns:rdf="http://www.w3.org/1999/02/22-rdf-syntax-ns#">
   <cc:Work>
    <dc:type rdf:resource="http://purl.org/dc/dcmitype/StillImage"/>
    <dc:date>2022-05-22T14:41:24.309374</dc:date>
    <dc:format>image/svg+xml</dc:format>
    <dc:creator>
     <cc:Agent>
      <dc:title>Matplotlib v3.5.1, https://matplotlib.org/</dc:title>
     </cc:Agent>
    </dc:creator>
   </cc:Work>
  </rdf:RDF>
 </metadata>
 <defs>
  <style type="text/css">*{stroke-linejoin: round; stroke-linecap: butt}</style>
 </defs>
 <g id="figure_1">
  <g id="patch_1">
   <path d="M 0 626.079992 
L 2133.397371 626.079992 
L 2133.397371 0 
L 0 0 
z
" style="fill: #ffffff"/>
  </g>
  <g id="axes_1">
   <g id="line2d_1">
    <path d="M 329.417361 112.212799 
L 1910.08874 112.212799 
" clip-path="url(#p7bd18a7f21)" style="fill: none; stroke: #000000; stroke-width: 2; stroke-linecap: square"/>
   </g>
   <g id="line2d_2">
    <path d="M 329.417361 158.566798 
L 1910.08874 158.566798 
" clip-path="url(#p7bd18a7f21)" style="fill: none; stroke: #000000; stroke-width: 2; stroke-linecap: square"/>
   </g>
   <g id="line2d_3">
    <path d="M 329.417361 204.920797 
L 1910.08874 204.920797 
" clip-path="url(#p7bd18a7f21)" style="fill: none; stroke: #000000; stroke-width: 2; stroke-linecap: square"/>
   </g>
   <g id="line2d_4">
    <path d="M 329.417361 251.274797 
L 1910.08874 251.274797 
" clip-path="url(#p7bd18a7f21)" style="fill: none; stroke: #000000; stroke-width: 2; stroke-linecap: square"/>
   </g>
   <g id="line2d_5">
    <path d="M 329.417361 297.628796 
L 1910.08874 297.628796 
" clip-path="url(#p7bd18a7f21)" style="fill: none; stroke: #000000; stroke-width: 2; stroke-linecap: square"/>
   </g>
   <g id="line2d_6">
    <path d="M 329.417361 343.982795 
L 1910.08874 343.982795 
" clip-path="url(#p7bd18a7f21)" style="fill: none; stroke: #000000; stroke-width: 2; stroke-linecap: square"/>
   </g>
   <g id="line2d_7">
    <path d="M 329.417361 390.336795 
L 1910.08874 390.336795 
" clip-path="url(#p7bd18a7f21)" style="fill: none; stroke: #000000; stroke-width: 2; stroke-linecap: square"/>
   </g>
   <g id="line2d_8">
    <path d="M 329.417361 436.690794 
L 1910.08874 436.690794 
" clip-path="url(#p7bd18a7f21)" style="fill: none; stroke: #000000; stroke-width: 2; stroke-linecap: square"/>
   </g>
   <g id="line2d_9">
    <path d="M 329.417361 483.044794 
L 1910.08874 483.044794 
" clip-path="url(#p7bd18a7f21)" style="fill: none; stroke: #000000; stroke-width: 2; stroke-linecap: square"/>
   </g>
   <g id="line2d_10">
    <path d="M 329.417361 529.398793 
L 1910.08874 529.398793 
" clip-path="url(#p7bd18a7f21)" style="fill: none; stroke: #000000; stroke-width: 2; stroke-linecap: square"/>
   </g>
   <g id="line2d_11">
    <path d="M 354.448521 158.566798 
L 354.448521 112.212799 
" clip-path="url(#p7bd18a7f21)" style="fill: none; stroke: #000000; stroke-width: 2; stroke-linecap: square"/>
   </g>
   <g id="line2d_12">
    <path d="M 400.80252 529.398793 
L 400.80252 343.982795 
" clip-path="url(#p7bd18a7f21)" style="fill: none; stroke: #000000; stroke-width: 2; stroke-linecap: square"/>
   </g>
   <g id="line2d_13">
    <path d="M 400.80252 204.920797 
L 400.80252 112.212799 
" clip-path="url(#p7bd18a7f21)" style="fill: none; stroke: #000000; stroke-width: 2; stroke-linecap: square"/>
   </g>
   <g id="line2d_14">
    <path d="M 447.15652 529.398793 
L 447.15652 436.690794 
" clip-path="url(#p7bd18a7f21)" style="fill: none; stroke: #000000; stroke-width: 2; stroke-linecap: square"/>
   </g>
   <g id="line2d_15">
    <path d="M 447.15652 297.628796 
L 447.15652 251.274797 
" clip-path="url(#p7bd18a7f21)" style="fill: none; stroke: #000000; stroke-width: 2; stroke-linecap: square"/>
   </g>
   <g id="line2d_16">
    <path d="M 516.687519 529.398793 
L 516.687519 483.044794 
" clip-path="url(#p7bd18a7f21)" style="fill: none; stroke: #000000; stroke-width: 2; stroke-linecap: square"/>
   </g>
   <g id="line2d_17">
    <path d="M 586.218518 297.628796 
L 586.218518 251.274797 
" clip-path="url(#p7bd18a7f21)" style="fill: none; stroke: #000000; stroke-width: 2; stroke-linecap: square"/>
   </g>
   <g id="line2d_18">
    <path d="M 725.280516 251.274797 
L 725.280516 112.212799 
" clip-path="url(#p7bd18a7f21)" style="fill: none; stroke: #000000; stroke-width: 2; stroke-linecap: square"/>
   </g>
   <g id="line2d_19">
    <path d="M 771.634515 343.982795 
L 771.634515 112.212799 
" clip-path="url(#p7bd18a7f21)" style="fill: none; stroke: #000000; stroke-width: 2; stroke-linecap: square"/>
   </g>
   <g id="line2d_20">
    <path d="M 817.988515 390.336795 
L 817.988515 112.212799 
" clip-path="url(#p7bd18a7f21)" style="fill: none; stroke: #000000; stroke-width: 2; stroke-linecap: square"/>
   </g>
   <g id="line2d_21">
    <path d="M 864.342514 436.690794 
L 864.342514 112.212799 
" clip-path="url(#p7bd18a7f21)" style="fill: none; stroke: #000000; stroke-width: 2; stroke-linecap: square"/>
   </g>
   <g id="line2d_22">
    <path d="M 910.696514 483.044794 
L 910.696514 112.212799 
" clip-path="url(#p7bd18a7f21)" style="fill: none; stroke: #000000; stroke-width: 2; stroke-linecap: square"/>
   </g>
   <g id="line2d_23">
    <path d="M 957.050513 529.398793 
L 957.050513 112.212799 
" clip-path="url(#p7bd18a7f21)" style="fill: none; stroke: #000000; stroke-width: 2; stroke-linecap: square"/>
   </g>
   <g id="line2d_24">
    <path d="M 1049.758512 529.398793 
L 1049.758512 112.212799 
" clip-path="url(#p7bd18a7f21)" style="fill: none; stroke: #000000; stroke-width: 2; stroke-linecap: square"/>
   </g>
   <g id="line2d_25">
    <path d="M 1096.112511 483.044794 
L 1096.112511 112.212799 
" clip-path="url(#p7bd18a7f21)" style="fill: none; stroke: #000000; stroke-width: 2; stroke-linecap: square"/>
   </g>
   <g id="line2d_26">
    <path d="M 1142.46651 436.690794 
L 1142.46651 112.212799 
" clip-path="url(#p7bd18a7f21)" style="fill: none; stroke: #000000; stroke-width: 2; stroke-linecap: square"/>
   </g>
   <g id="line2d_27">
    <path d="M 1188.82051 390.336795 
L 1188.82051 112.212799 
" clip-path="url(#p7bd18a7f21)" style="fill: none; stroke: #000000; stroke-width: 2; stroke-linecap: square"/>
   </g>
   <g id="line2d_28">
    <path d="M 1235.174509 343.982795 
L 1235.174509 112.212799 
" clip-path="url(#p7bd18a7f21)" style="fill: none; stroke: #000000; stroke-width: 2; stroke-linecap: square"/>
   </g>
   <g id="line2d_29">
    <path d="M 1281.528509 251.274797 
L 1281.528509 112.212799 
" clip-path="url(#p7bd18a7f21)" style="fill: none; stroke: #000000; stroke-width: 2; stroke-linecap: square"/>
   </g>
   <g id="line2d_30">
    <path d="M 1327.882508 204.920797 
L 1327.882508 112.212799 
" clip-path="url(#p7bd18a7f21)" style="fill: none; stroke: #000000; stroke-width: 2; stroke-linecap: square"/>
   </g>
   <g id="line2d_31">
    <path d="M 1374.236507 158.566798 
L 1374.236507 112.212799 
" clip-path="url(#p7bd18a7f21)" style="fill: none; stroke: #000000; stroke-width: 2; stroke-linecap: square"/>
   </g>
   <g id="line2d_32">
    <path d="M 1374.236507 483.044794 
L 1374.236507 204.920797 
" clip-path="url(#p7bd18a7f21)" style="fill: none; stroke: #000000; stroke-width: 2; stroke-linecap: square"/>
   </g>
   <g id="line2d_33">
    <path d="M 1466.944506 436.690794 
L 1466.944506 204.920797 
" clip-path="url(#p7bd18a7f21)" style="fill: none; stroke: #000000; stroke-width: 2; stroke-linecap: square"/>
   </g>
   <g id="line2d_34">
    <path d="M 1513.298505 251.274797 
L 1513.298505 204.920797 
" clip-path="url(#p7bd18a7f21)" style="fill: none; stroke: #000000; stroke-width: 2; stroke-linecap: square"/>
   </g>
   <g id="line2d_35">
    <path d="M 1606.006504 251.274797 
L 1606.006504 204.920797 
" clip-path="url(#p7bd18a7f21)" style="fill: none; stroke: #000000; stroke-width: 2; stroke-linecap: square"/>
   </g>
   <g id="line2d_36">
    <path d="M 1698.714503 436.690794 
L 1698.714503 204.920797 
" clip-path="url(#p7bd18a7f21)" style="fill: none; stroke: #000000; stroke-width: 2; stroke-linecap: square"/>
   </g>
   <g id="line2d_37">
    <path d="M 1791.422502 483.044794 
L 1791.422502 204.920797 
" clip-path="url(#p7bd18a7f21)" style="fill: none; stroke: #000000; stroke-width: 2; stroke-linecap: square"/>
   </g>
   <g id="text_1">
    <!-- TERMS: 4, DEPTH:30 -->
    <g transform="translate(1031.333652 69.129599)scale(0.12 -0.12)">
     <defs>
      <path id="DejaVuSans-54" d="M -19 4666 
L 3928 4666 
L 3928 4134 
L 2272 4134 
L 2272 0 
L 1638 0 
L 1638 4134 
L -19 4134 
L -19 4666 
z
" transform="scale(0.015625)"/>
      <path id="DejaVuSans-45" d="M 628 4666 
L 3578 4666 
L 3578 4134 
L 1259 4134 
L 1259 2753 
L 3481 2753 
L 3481 2222 
L 1259 2222 
L 1259 531 
L 3634 531 
L 3634 0 
L 628 0 
L 628 4666 
z
" transform="scale(0.015625)"/>
      <path id="DejaVuSans-52" d="M 2841 2188 
Q 3044 2119 3236 1894 
Q 3428 1669 3622 1275 
L 4263 0 
L 3584 0 
L 2988 1197 
Q 2756 1666 2539 1819 
Q 2322 1972 1947 1972 
L 1259 1972 
L 1259 0 
L 628 0 
L 628 4666 
L 2053 4666 
Q 2853 4666 3247 4331 
Q 3641 3997 3641 3322 
Q 3641 2881 3436 2590 
Q 3231 2300 2841 2188 
z
M 1259 4147 
L 1259 2491 
L 2053 2491 
Q 2509 2491 2742 2702 
Q 2975 2913 2975 3322 
Q 2975 3731 2742 3939 
Q 2509 4147 2053 4147 
L 1259 4147 
z
" transform="scale(0.015625)"/>
      <path id="DejaVuSans-4d" d="M 628 4666 
L 1569 4666 
L 2759 1491 
L 3956 4666 
L 4897 4666 
L 4897 0 
L 4281 0 
L 4281 4097 
L 3078 897 
L 2444 897 
L 1241 4097 
L 1241 0 
L 628 0 
L 628 4666 
z
" transform="scale(0.015625)"/>
      <path id="DejaVuSans-53" d="M 3425 4513 
L 3425 3897 
Q 3066 4069 2747 4153 
Q 2428 4238 2131 4238 
Q 1616 4238 1336 4038 
Q 1056 3838 1056 3469 
Q 1056 3159 1242 3001 
Q 1428 2844 1947 2747 
L 2328 2669 
Q 3034 2534 3370 2195 
Q 3706 1856 3706 1288 
Q 3706 609 3251 259 
Q 2797 -91 1919 -91 
Q 1588 -91 1214 -16 
Q 841 59 441 206 
L 441 856 
Q 825 641 1194 531 
Q 1563 422 1919 422 
Q 2459 422 2753 634 
Q 3047 847 3047 1241 
Q 3047 1584 2836 1778 
Q 2625 1972 2144 2069 
L 1759 2144 
Q 1053 2284 737 2584 
Q 422 2884 422 3419 
Q 422 4038 858 4394 
Q 1294 4750 2059 4750 
Q 2388 4750 2728 4690 
Q 3069 4631 3425 4513 
z
" transform="scale(0.015625)"/>
      <path id="DejaVuSans-3a" d="M 750 794 
L 1409 794 
L 1409 0 
L 750 0 
L 750 794 
z
M 750 3309 
L 1409 3309 
L 1409 2516 
L 750 2516 
L 750 3309 
z
" transform="scale(0.015625)"/>
      <path id="DejaVuSans-20" transform="scale(0.015625)"/>
      <path id="DejaVuSans-34" d="M 2419 4116 
L 825 1625 
L 2419 1625 
L 2419 4116 
z
M 2253 4666 
L 3047 4666 
L 3047 1625 
L 3713 1625 
L 3713 1100 
L 3047 1100 
L 3047 0 
L 2419 0 
L 2419 1100 
L 313 1100 
L 313 1709 
L 2253 4666 
z
" transform="scale(0.015625)"/>
      <path id="DejaVuSans-2c" d="M 750 794 
L 1409 794 
L 1409 256 
L 897 -744 
L 494 -744 
L 750 256 
L 750 794 
z
" transform="scale(0.015625)"/>
      <path id="DejaVuSans-44" d="M 1259 4147 
L 1259 519 
L 2022 519 
Q 2988 519 3436 956 
Q 3884 1394 3884 2338 
Q 3884 3275 3436 3711 
Q 2988 4147 2022 4147 
L 1259 4147 
z
M 628 4666 
L 1925 4666 
Q 3281 4666 3915 4102 
Q 4550 3538 4550 2338 
Q 4550 1131 3912 565 
Q 3275 0 1925 0 
L 628 0 
L 628 4666 
z
" transform="scale(0.015625)"/>
      <path id="DejaVuSans-50" d="M 1259 4147 
L 1259 2394 
L 2053 2394 
Q 2494 2394 2734 2622 
Q 2975 2850 2975 3272 
Q 2975 3691 2734 3919 
Q 2494 4147 2053 4147 
L 1259 4147 
z
M 628 4666 
L 2053 4666 
Q 2838 4666 3239 4311 
Q 3641 3956 3641 3272 
Q 3641 2581 3239 2228 
Q 2838 1875 2053 1875 
L 1259 1875 
L 1259 0 
L 628 0 
L 628 4666 
z
" transform="scale(0.015625)"/>
      <path id="DejaVuSans-48" d="M 628 4666 
L 1259 4666 
L 1259 2753 
L 3553 2753 
L 3553 4666 
L 4184 4666 
L 4184 0 
L 3553 0 
L 3553 2222 
L 1259 2222 
L 1259 0 
L 628 0 
L 628 4666 
z
" transform="scale(0.015625)"/>
      <path id="DejaVuSans-33" d="M 2597 2516 
Q 3050 2419 3304 2112 
Q 3559 1806 3559 1356 
Q 3559 666 3084 287 
Q 2609 -91 1734 -91 
Q 1441 -91 1130 -33 
Q 819 25 488 141 
L 488 750 
Q 750 597 1062 519 
Q 1375 441 1716 441 
Q 2309 441 2620 675 
Q 2931 909 2931 1356 
Q 2931 1769 2642 2001 
Q 2353 2234 1838 2234 
L 1294 2234 
L 1294 2753 
L 1863 2753 
Q 2328 2753 2575 2939 
Q 2822 3125 2822 3475 
Q 2822 3834 2567 4026 
Q 2313 4219 1838 4219 
Q 1578 4219 1281 4162 
Q 984 4106 628 3988 
L 628 4550 
Q 988 4650 1302 4700 
Q 1616 4750 1894 4750 
Q 2613 4750 3031 4423 
Q 3450 4097 3450 3541 
Q 3450 3153 3228 2886 
Q 3006 2619 2597 2516 
z
" transform="scale(0.015625)"/>
      <path id="DejaVuSans-30" d="M 2034 4250 
Q 1547 4250 1301 3770 
Q 1056 3291 1056 2328 
Q 1056 1369 1301 889 
Q 1547 409 2034 409 
Q 2525 409 2770 889 
Q 3016 1369 3016 2328 
Q 3016 3291 2770 3770 
Q 2525 4250 2034 4250 
z
M 2034 4750 
Q 2819 4750 3233 4129 
Q 3647 3509 3647 2328 
Q 3647 1150 3233 529 
Q 2819 -91 2034 -91 
Q 1250 -91 836 529 
Q 422 1150 422 2328 
Q 422 3509 836 4129 
Q 1250 4750 2034 4750 
z
" transform="scale(0.015625)"/>
     </defs>
     <use xlink:href="#DejaVuSans-54"/>
     <use xlink:href="#DejaVuSans-45" x="61.083984"/>
     <use xlink:href="#DejaVuSans-52" x="124.267578"/>
     <use xlink:href="#DejaVuSans-4d" x="193.75"/>
     <use xlink:href="#DejaVuSans-53" x="280.029297"/>
     <use xlink:href="#DejaVuSans-3a" x="343.505859"/>
     <use xlink:href="#DejaVuSans-20" x="377.197266"/>
     <use xlink:href="#DejaVuSans-34" x="408.984375"/>
     <use xlink:href="#DejaVuSans-2c" x="472.607422"/>
     <use xlink:href="#DejaVuSans-20" x="504.394531"/>
     <use xlink:href="#DejaVuSans-44" x="536.181641"/>
     <use xlink:href="#DejaVuSans-45" x="613.183594"/>
     <use xlink:href="#DejaVuSans-50" x="676.367188"/>
     <use xlink:href="#DejaVuSans-54" x="736.669922"/>
     <use xlink:href="#DejaVuSans-48" x="797.753906"/>
     <use xlink:href="#DejaVuSans-3a" x="872.949219"/>
     <use xlink:href="#DejaVuSans-33" x="906.640625"/>
     <use xlink:href="#DejaVuSans-30" x="970.263672"/>
    </g>
   </g>
   <g id="patch_2">
    <path d="M 339.383471 359.047845 
L 369.513571 359.047845 
L 369.513571 328.917746 
L 339.383471 328.917746 
z
" clip-path="url(#p7bd18a7f21)" style="fill: #ffffff; stroke: #000000; stroke-width: 1.5; stroke-linejoin: miter"/>
   </g>
   <g id="patch_3">
    <path d="M 339.383471 266.339846 
L 369.513571 266.339846 
L 369.513571 236.209747 
L 339.383471 236.209747 
z
" clip-path="url(#p7bd18a7f21)" style="fill: #ffffff; stroke: #000000; stroke-width: 1.5; stroke-linejoin: miter"/>
   </g>
   <g id="patch_4">
    <path d="M 354.448521 163.086313 
C 355.64711 163.086313 356.79677 162.610108 357.644301 161.762578 
C 358.491831 160.915047 358.968036 159.765387 358.968036 158.566798 
C 358.968036 157.368209 358.491831 156.218549 357.644301 155.371018 
C 356.79677 154.523488 355.64711 154.047283 354.448521 154.047283 
C 353.249932 154.047283 352.100272 154.523488 351.252741 155.371018 
C 350.405211 156.218549 349.929006 157.368209 349.929006 158.566798 
C 349.929006 159.765387 350.405211 160.915047 351.252741 161.762578 
C 352.100272 162.610108 353.249932 163.086313 354.448521 163.086313 
z
" clip-path="url(#p7bd18a7f21)" style="stroke: #000000; stroke-width: 1.5; stroke-linejoin: miter"/>
   </g>
   <g id="patch_5">
    <path d="M 354.448521 122.758333 
C 357.245229 122.758333 359.927769 121.647189 361.90534 119.669618 
C 363.882912 117.692046 364.994056 115.009507 364.994056 112.212799 
C 364.994056 109.41609 363.882912 106.733551 361.90534 104.755979 
C 359.927769 102.778408 357.245229 101.667264 354.448521 101.667264 
C 351.651812 101.667264 348.969273 102.778408 346.991702 104.755979 
C 345.01413 106.733551 343.902986 109.41609 343.902986 112.212799 
C 343.902986 115.009507 345.01413 117.692046 346.991702 119.669618 
C 348.969273 121.647189 351.651812 122.758333 354.448521 122.758333 
z
" clip-path="url(#p7bd18a7f21)" style="stroke: #000000; stroke-width: 2; stroke-linejoin: miter"/>
   </g>
   <g id="patch_6">
    <path d="M 400.80252 348.50231 
C 402.00111 348.50231 403.150769 348.026106 403.9983 347.178575 
C 404.845831 346.331044 405.322035 345.181385 405.322035 343.982795 
C 405.322035 342.784206 404.845831 341.634546 403.9983 340.787016 
C 403.150769 339.939485 402.00111 339.46328 400.80252 339.46328 
C 399.603931 339.46328 398.454271 339.939485 397.606741 340.787016 
C 396.75921 341.634546 396.283005 342.784206 396.283005 343.982795 
C 396.283005 345.181385 396.75921 346.331044 397.606741 347.178575 
C 398.454271 348.026106 399.603931 348.50231 400.80252 348.50231 
z
" clip-path="url(#p7bd18a7f21)" style="stroke: #000000; stroke-width: 1.5; stroke-linejoin: miter"/>
   </g>
   <g id="patch_7">
    <path d="M 400.80252 539.944328 
C 403.599229 539.944328 406.281768 538.833184 408.259339 536.855612 
C 410.236911 534.878041 411.348055 532.195502 411.348055 529.398793 
C 411.348055 526.602084 410.236911 523.919545 408.259339 521.941974 
C 406.281768 519.964402 403.599229 518.853258 400.80252 518.853258 
C 398.005812 518.853258 395.323273 519.964402 393.345701 521.941974 
C 391.368129 523.919545 390.256985 526.602084 390.256985 529.398793 
C 390.256985 532.195502 391.368129 534.878041 393.345701 536.855612 
C 395.323273 538.833184 398.005812 539.944328 400.80252 539.944328 
z
" clip-path="url(#p7bd18a7f21)" style="stroke: #000000; stroke-width: 2; stroke-linejoin: miter"/>
   </g>
   <g id="patch_8">
    <path d="M 385.73747 266.339846 
L 415.86757 266.339846 
L 415.86757 236.209747 
L 385.73747 236.209747 
z
" clip-path="url(#p7bd18a7f21)" style="fill: #ffffff; stroke: #000000; stroke-width: 1.5; stroke-linejoin: miter"/>
   </g>
   <g id="patch_9">
    <path d="M 400.80252 209.440312 
C 402.00111 209.440312 403.150769 208.964108 403.9983 208.116577 
C 404.845831 207.269046 405.322035 206.119387 405.322035 204.920797 
C 405.322035 203.722208 404.845831 202.572548 403.9983 201.725018 
C 403.150769 200.877487 402.00111 200.401282 400.80252 200.401282 
C 399.603931 200.401282 398.454271 200.877487 397.606741 201.725018 
C 396.75921 202.572548 396.283005 203.722208 396.283005 204.920797 
C 396.283005 206.119387 396.75921 207.269046 397.606741 208.116577 
C 398.454271 208.964108 399.603931 209.440312 400.80252 209.440312 
z
" clip-path="url(#p7bd18a7f21)" style="stroke: #000000; stroke-width: 1.5; stroke-linejoin: miter"/>
   </g>
   <g id="patch_10">
    <path d="M 400.80252 122.758333 
C 403.599229 122.758333 406.281768 121.647189 408.259339 119.669618 
C 410.236911 117.692046 411.348055 115.009507 411.348055 112.212799 
C 411.348055 109.41609 410.236911 106.733551 408.259339 104.755979 
C 406.281768 102.778408 403.599229 101.667264 400.80252 101.667264 
C 398.005812 101.667264 395.323273 102.778408 393.345701 104.755979 
C 391.368129 106.733551 390.256985 109.41609 390.256985 112.212799 
C 390.256985 115.009507 391.368129 117.692046 393.345701 119.669618 
C 395.323273 121.647189 398.005812 122.758333 400.80252 122.758333 
z
" clip-path="url(#p7bd18a7f21)" style="stroke: #000000; stroke-width: 2; stroke-linejoin: miter"/>
   </g>
   <g id="patch_11">
    <path d="M 447.15652 441.210309 
C 448.355109 441.210309 449.504769 440.734105 450.352299 439.886574 
C 451.19983 439.039043 451.676035 437.889384 451.676035 436.690794 
C 451.676035 435.492205 451.19983 434.342545 450.352299 433.495015 
C 449.504769 432.647484 448.355109 432.171279 447.15652 432.171279 
C 445.95793 432.171279 444.808271 432.647484 443.96074 433.495015 
C 443.113209 434.342545 442.637005 435.492205 442.637005 436.690794 
C 442.637005 437.889384 443.113209 439.039043 443.96074 439.886574 
C 444.808271 440.734105 445.95793 441.210309 447.15652 441.210309 
z
" clip-path="url(#p7bd18a7f21)" style="stroke: #000000; stroke-width: 1.5; stroke-linejoin: miter"/>
   </g>
   <g id="patch_12">
    <path d="M 447.15652 539.944328 
C 449.953228 539.944328 452.635767 538.833184 454.613339 536.855612 
C 456.59091 534.878041 457.702055 532.195502 457.702055 529.398793 
C 457.702055 526.602084 456.59091 523.919545 454.613339 521.941974 
C 452.635767 519.964402 449.953228 518.853258 447.15652 518.853258 
C 444.359811 518.853258 441.677272 519.964402 439.6997 521.941974 
C 437.722129 523.919545 436.610985 526.602084 436.610985 529.398793 
C 436.610985 532.195502 437.722129 534.878041 439.6997 536.855612 
C 441.677272 538.833184 444.359811 539.944328 447.15652 539.944328 
z
" clip-path="url(#p7bd18a7f21)" style="stroke: #000000; stroke-width: 2; stroke-linejoin: miter"/>
   </g>
   <g id="patch_13">
    <path d="M 447.15652 255.794312 
C 448.355109 255.794312 449.504769 255.318107 450.352299 254.470576 
C 451.19983 253.623046 451.676035 252.473386 451.676035 251.274797 
C 451.676035 250.076207 451.19983 248.926548 450.352299 248.079017 
C 449.504769 247.231486 448.355109 246.755282 447.15652 246.755282 
C 445.95793 246.755282 444.808271 247.231486 443.96074 248.079017 
C 443.113209 248.926548 442.637005 250.076207 442.637005 251.274797 
C 442.637005 252.473386 443.113209 253.623046 443.96074 254.470576 
C 444.808271 255.318107 445.95793 255.794312 447.15652 255.794312 
z
" clip-path="url(#p7bd18a7f21)" style="stroke: #000000; stroke-width: 1.5; stroke-linejoin: miter"/>
   </g>
   <g id="patch_14">
    <path d="M 447.15652 308.174331 
C 449.953228 308.174331 452.635767 307.063187 454.613339 305.085615 
C 456.59091 303.108044 457.702055 300.425505 457.702055 297.628796 
C 457.702055 294.832088 456.59091 292.149548 454.613339 290.171977 
C 452.635767 288.194405 449.953228 287.083261 447.15652 287.083261 
C 444.359811 287.083261 441.677272 288.194405 439.6997 290.171977 
C 437.722129 292.149548 436.610985 294.832088 436.610985 297.628796 
C 436.610985 300.425505 437.722129 303.108044 439.6997 305.085615 
C 441.677272 307.063187 444.359811 308.174331 447.15652 308.174331 
z
" clip-path="url(#p7bd18a7f21)" style="stroke: #000000; stroke-width: 2; stroke-linejoin: miter"/>
   </g>
   <g id="patch_15">
    <path d="M 432.09147 359.047845 
L 462.221569 359.047845 
L 462.221569 328.917746 
L 432.09147 328.917746 
z
" clip-path="url(#p7bd18a7f21)" style="fill: #ffffff; stroke: #000000; stroke-width: 1.5; stroke-linejoin: miter"/>
   </g>
   <g id="patch_16">
    <path d="M 516.687519 487.564309 
C 517.886108 487.564309 519.035768 487.088104 519.883298 486.240573 
C 520.730829 485.393043 521.207034 484.243383 521.207034 483.044794 
C 521.207034 481.846204 520.730829 480.696545 519.883298 479.849014 
C 519.035768 479.001483 517.886108 478.525279 516.687519 478.525279 
C 515.488929 478.525279 514.33927 479.001483 513.491739 479.849014 
C 512.644208 480.696545 512.168004 481.846204 512.168004 483.044794 
C 512.168004 484.243383 512.644208 485.393043 513.491739 486.240573 
C 514.33927 487.088104 515.488929 487.564309 516.687519 487.564309 
z
" clip-path="url(#p7bd18a7f21)" style="stroke: #000000; stroke-width: 1.5; stroke-linejoin: miter"/>
   </g>
   <g id="patch_17">
    <path d="M 516.687519 539.944328 
C 519.484227 539.944328 522.166766 538.833184 524.144338 536.855612 
C 526.12191 534.878041 527.233054 532.195502 527.233054 529.398793 
C 527.233054 526.602084 526.12191 523.919545 524.144338 521.941974 
C 522.166766 519.964402 519.484227 518.853258 516.687519 518.853258 
C 513.89081 518.853258 511.208271 519.964402 509.2307 521.941974 
C 507.253128 523.919545 506.141984 526.602084 506.141984 529.398793 
C 506.141984 532.195502 507.253128 534.878041 509.2307 536.855612 
C 511.208271 538.833184 513.89081 539.944328 516.687519 539.944328 
z
" clip-path="url(#p7bd18a7f21)" style="stroke: #000000; stroke-width: 2; stroke-linejoin: miter"/>
   </g>
   <g id="patch_18">
    <path d="M 495.29283 312.693846 
L 538.082207 312.693846 
L 538.082207 282.563746 
L 495.29283 282.563746 
z
" clip-path="url(#p7bd18a7f21)" style="fill: #ffffff; stroke: #000000; stroke-width: 1.5; stroke-linejoin: miter"/>
   </g>
   <g id="patch_19">
    <path d="M 567.625929 544.463843 
L 604.811107 544.463843 
L 604.811107 514.333743 
L 567.625929 514.333743 
z
" clip-path="url(#p7bd18a7f21)" style="fill: #ffffff; stroke: #000000; stroke-width: 1.5; stroke-linejoin: miter"/>
   </g>
   <g id="patch_20">
    <path d="M 586.218518 255.794312 
C 587.417107 255.794312 588.566767 255.318107 589.414297 254.470576 
C 590.261828 253.623046 590.738033 252.473386 590.738033 251.274797 
C 590.738033 250.076207 590.261828 248.926548 589.414297 248.079017 
C 588.566767 247.231486 587.417107 246.755282 586.218518 246.755282 
C 585.019928 246.755282 583.870269 247.231486 583.022738 248.079017 
C 582.175207 248.926548 581.699003 250.076207 581.699003 251.274797 
C 581.699003 252.473386 582.175207 253.623046 583.022738 254.470576 
C 583.870269 255.318107 585.019928 255.794312 586.218518 255.794312 
z
" clip-path="url(#p7bd18a7f21)" style="stroke: #000000; stroke-width: 1.5; stroke-linejoin: miter"/>
   </g>
   <g id="patch_21">
    <path d="M 586.218518 308.174331 
C 589.015226 308.174331 591.697765 307.063187 593.675337 305.085615 
C 595.652909 303.108044 596.764053 300.425505 596.764053 297.628796 
C 596.764053 294.832088 595.652909 292.149548 593.675337 290.171977 
C 591.697765 288.194405 589.015226 287.083261 586.218518 287.083261 
C 583.421809 287.083261 580.73927 288.194405 578.761699 290.171977 
C 576.784127 292.149548 575.672983 294.832088 575.672983 297.628796 
C 575.672983 300.425505 576.784127 303.108044 578.761699 305.085615 
C 580.73927 307.063187 583.421809 308.174331 586.218518 308.174331 
z
" clip-path="url(#p7bd18a7f21)" style="stroke: #000000; stroke-width: 2; stroke-linejoin: miter"/>
   </g>
   <g id="patch_22">
    <path d="M 617.507467 266.339846 
L 647.637567 266.339846 
L 647.637567 236.209747 
L 617.507467 236.209747 
z
" clip-path="url(#p7bd18a7f21)" style="fill: #ffffff; stroke: #000000; stroke-width: 1.5; stroke-linejoin: miter"/>
   </g>
   <g id="patch_23">
    <path d="M 617.507467 544.463843 
L 647.637567 544.463843 
L 647.637567 514.333743 
L 617.507467 514.333743 
z
" clip-path="url(#p7bd18a7f21)" style="fill: #ffffff; stroke: #000000; stroke-width: 1.5; stroke-linejoin: miter"/>
   </g>
   <g id="patch_24">
    <path d="M 663.861467 266.339846 
L 693.991566 266.339846 
L 693.991566 236.209747 
L 663.861467 236.209747 
z
" clip-path="url(#p7bd18a7f21)" style="fill: #ffffff; stroke: #000000; stroke-width: 1.5; stroke-linejoin: miter"/>
   </g>
   <g id="patch_25">
    <path d="M 725.280516 255.794312 
C 726.479105 255.794312 727.628765 255.318107 728.476296 254.470576 
C 729.323826 253.623046 729.800031 252.473386 729.800031 251.274797 
C 729.800031 250.076207 729.323826 248.926548 728.476296 248.079017 
C 727.628765 247.231486 726.479105 246.755282 725.280516 246.755282 
C 724.081927 246.755282 722.932267 247.231486 722.084736 248.079017 
C 721.237206 248.926548 720.761001 250.076207 720.761001 251.274797 
C 720.761001 252.473386 721.237206 253.623046 722.084736 254.470576 
C 722.932267 255.318107 724.081927 255.794312 725.280516 255.794312 
z
" clip-path="url(#p7bd18a7f21)" style="stroke: #000000; stroke-width: 1.5; stroke-linejoin: miter"/>
   </g>
   <g id="patch_26">
    <path d="M 725.280516 122.758333 
C 728.077225 122.758333 730.759764 121.647189 732.737335 119.669618 
C 734.714907 117.692046 735.826051 115.009507 735.826051 112.212799 
C 735.826051 109.41609 734.714907 106.733551 732.737335 104.755979 
C 730.759764 102.778408 728.077225 101.667264 725.280516 101.667264 
C 722.483807 101.667264 719.801268 102.778408 717.823697 104.755979 
C 715.846125 106.733551 714.734981 109.41609 714.734981 112.212799 
C 714.734981 115.009507 715.846125 117.692046 717.823697 119.669618 
C 719.801268 121.647189 722.483807 122.758333 725.280516 122.758333 
z
" clip-path="url(#p7bd18a7f21)" style="stroke: #000000; stroke-width: 2; stroke-linejoin: miter"/>
   </g>
   <g id="patch_27">
    <path d="M 771.634515 348.50231 
C 772.833105 348.50231 773.982764 348.026106 774.830295 347.178575 
C 775.677826 346.331044 776.15403 345.181385 776.15403 343.982795 
C 776.15403 342.784206 775.677826 341.634546 774.830295 340.787016 
C 773.982764 339.939485 772.833105 339.46328 771.634515 339.46328 
C 770.435926 339.46328 769.286266 339.939485 768.438736 340.787016 
C 767.591205 341.634546 767.115 342.784206 767.115 343.982795 
C 767.115 345.181385 767.591205 346.331044 768.438736 347.178575 
C 769.286266 348.026106 770.435926 348.50231 771.634515 348.50231 
z
" clip-path="url(#p7bd18a7f21)" style="stroke: #000000; stroke-width: 1.5; stroke-linejoin: miter"/>
   </g>
   <g id="patch_28">
    <path d="M 771.634515 122.758333 
C 774.431224 122.758333 777.113763 121.647189 779.091335 119.669618 
C 781.068906 117.692046 782.18005 115.009507 782.18005 112.212799 
C 782.18005 109.41609 781.068906 106.733551 779.091335 104.755979 
C 777.113763 102.778408 774.431224 101.667264 771.634515 101.667264 
C 768.837807 101.667264 766.155268 102.778408 764.177696 104.755979 
C 762.200125 106.733551 761.08898 109.41609 761.08898 112.212799 
C 761.08898 115.009507 762.200125 117.692046 764.177696 119.669618 
C 766.155268 121.647189 768.837807 122.758333 771.634515 122.758333 
z
" clip-path="url(#p7bd18a7f21)" style="stroke: #000000; stroke-width: 2; stroke-linejoin: miter"/>
   </g>
   <g id="patch_29">
    <path d="M 817.988515 394.85631 
C 819.187104 394.85631 820.336764 394.380105 821.184294 393.532574 
C 822.031825 392.685044 822.50803 391.535384 822.50803 390.336795 
C 822.50803 389.138205 822.031825 387.988546 821.184294 387.141015 
C 820.336764 386.293484 819.187104 385.81728 817.988515 385.81728 
C 816.789925 385.81728 815.640266 386.293484 814.792735 387.141015 
C 813.945204 387.988546 813.469 389.138205 813.469 390.336795 
C 813.469 391.535384 813.945204 392.685044 814.792735 393.532574 
C 815.640266 394.380105 816.789925 394.85631 817.988515 394.85631 
z
" clip-path="url(#p7bd18a7f21)" style="stroke: #000000; stroke-width: 1.5; stroke-linejoin: miter"/>
   </g>
   <g id="patch_30">
    <path d="M 817.988515 122.758333 
C 820.785223 122.758333 823.467762 121.647189 825.445334 119.669618 
C 827.422906 117.692046 828.53405 115.009507 828.53405 112.212799 
C 828.53405 109.41609 827.422906 106.733551 825.445334 104.755979 
C 823.467762 102.778408 820.785223 101.667264 817.988515 101.667264 
C 815.191806 101.667264 812.509267 102.778408 810.531696 104.755979 
C 808.554124 106.733551 807.44298 109.41609 807.44298 112.212799 
C 807.44298 115.009507 808.554124 117.692046 810.531696 119.669618 
C 812.509267 121.647189 815.191806 122.758333 817.988515 122.758333 
z
" clip-path="url(#p7bd18a7f21)" style="stroke: #000000; stroke-width: 2; stroke-linejoin: miter"/>
   </g>
   <g id="patch_31">
    <path d="M 864.342514 441.210309 
C 865.541103 441.210309 866.690763 440.734105 867.538294 439.886574 
C 868.385824 439.039043 868.862029 437.889384 868.862029 436.690794 
C 868.862029 435.492205 868.385824 434.342545 867.538294 433.495015 
C 866.690763 432.647484 865.541103 432.171279 864.342514 432.171279 
C 863.143925 432.171279 861.994265 432.647484 861.146734 433.495015 
C 860.299204 434.342545 859.822999 435.492205 859.822999 436.690794 
C 859.822999 437.889384 860.299204 439.039043 861.146734 439.886574 
C 861.994265 440.734105 863.143925 441.210309 864.342514 441.210309 
z
" clip-path="url(#p7bd18a7f21)" style="stroke: #000000; stroke-width: 1.5; stroke-linejoin: miter"/>
   </g>
   <g id="patch_32">
    <path d="M 864.342514 122.758333 
C 867.139223 122.758333 869.821762 121.647189 871.799333 119.669618 
C 873.776905 117.692046 874.888049 115.009507 874.888049 112.212799 
C 874.888049 109.41609 873.776905 106.733551 871.799333 104.755979 
C 869.821762 102.778408 867.139223 101.667264 864.342514 101.667264 
C 861.545806 101.667264 858.863266 102.778408 856.885695 104.755979 
C 854.908123 106.733551 853.796979 109.41609 853.796979 112.212799 
C 853.796979 115.009507 854.908123 117.692046 856.885695 119.669618 
C 858.863266 121.647189 861.545806 122.758333 864.342514 122.758333 
z
" clip-path="url(#p7bd18a7f21)" style="stroke: #000000; stroke-width: 2; stroke-linejoin: miter"/>
   </g>
   <g id="patch_33">
    <path d="M 910.696514 487.564309 
C 911.895103 487.564309 913.044762 487.088104 913.892293 486.240573 
C 914.739824 485.393043 915.216028 484.243383 915.216028 483.044794 
C 915.216028 481.846204 914.739824 480.696545 913.892293 479.849014 
C 913.044762 479.001483 911.895103 478.525279 910.696514 478.525279 
C 909.497924 478.525279 908.348265 479.001483 907.500734 479.849014 
C 906.653203 480.696545 906.176999 481.846204 906.176999 483.044794 
C 906.176999 484.243383 906.653203 485.393043 907.500734 486.240573 
C 908.348265 487.088104 909.497924 487.564309 910.696514 487.564309 
z
" clip-path="url(#p7bd18a7f21)" style="stroke: #000000; stroke-width: 1.5; stroke-linejoin: miter"/>
   </g>
   <g id="patch_34">
    <path d="M 910.696514 122.758333 
C 913.493222 122.758333 916.175761 121.647189 918.153333 119.669618 
C 920.130904 117.692046 921.242048 115.009507 921.242048 112.212799 
C 921.242048 109.41609 920.130904 106.733551 918.153333 104.755979 
C 916.175761 102.778408 913.493222 101.667264 910.696514 101.667264 
C 907.899805 101.667264 905.217266 102.778408 903.239694 104.755979 
C 901.262123 106.733551 900.150979 109.41609 900.150979 112.212799 
C 900.150979 115.009507 901.262123 117.692046 903.239694 119.669618 
C 905.217266 121.647189 907.899805 122.758333 910.696514 122.758333 
z
" clip-path="url(#p7bd18a7f21)" style="stroke: #000000; stroke-width: 2; stroke-linejoin: miter"/>
   </g>
   <g id="patch_35">
    <path d="M 957.050513 533.918308 
C 958.249102 533.918308 959.398762 533.442103 960.246293 532.594573 
C 961.093823 531.747042 961.570028 530.597382 961.570028 529.398793 
C 961.570028 528.200204 961.093823 527.050544 960.246293 526.203013 
C 959.398762 525.355483 958.249102 524.879278 957.050513 524.879278 
C 955.851924 524.879278 954.702264 525.355483 953.854733 526.203013 
C 953.007203 527.050544 952.530998 528.200204 952.530998 529.398793 
C 952.530998 530.597382 953.007203 531.747042 953.854733 532.594573 
C 954.702264 533.442103 955.851924 533.918308 957.050513 533.918308 
z
" clip-path="url(#p7bd18a7f21)" style="stroke: #000000; stroke-width: 1.5; stroke-linejoin: miter"/>
   </g>
   <g id="patch_36">
    <path d="M 957.050513 122.758333 
C 959.847221 122.758333 962.529761 121.647189 964.507332 119.669618 
C 966.484904 117.692046 967.596048 115.009507 967.596048 112.212799 
C 967.596048 109.41609 966.484904 106.733551 964.507332 104.755979 
C 962.529761 102.778408 959.847221 101.667264 957.050513 101.667264 
C 954.253804 101.667264 951.571265 102.778408 949.593694 104.755979 
C 947.616122 106.733551 946.504978 109.41609 946.504978 112.212799 
C 946.504978 115.009507 947.616122 117.692046 949.593694 119.669618 
C 951.571265 121.647189 954.253804 122.758333 957.050513 122.758333 
z
" clip-path="url(#p7bd18a7f21)" style="stroke: #000000; stroke-width: 2; stroke-linejoin: miter"/>
   </g>
   <g id="patch_37">
    <path d="M 984.860595 127.277848 
L 1021.94843 127.277848 
L 1021.94843 97.147749 
L 984.860595 97.147749 
z
" clip-path="url(#p7bd18a7f21)" style="fill: #ffffff; stroke: #000000; stroke-width: 1.5; stroke-linejoin: miter"/>
   </g>
   <g id="patch_38">
    <path d="M 1049.758512 533.918308 
C 1050.957101 533.918308 1052.106761 533.442103 1052.954291 532.594573 
C 1053.801822 531.747042 1054.278027 530.597382 1054.278027 529.398793 
C 1054.278027 528.200204 1053.801822 527.050544 1052.954291 526.203013 
C 1052.106761 525.355483 1050.957101 524.879278 1049.758512 524.879278 
C 1048.559922 524.879278 1047.410263 525.355483 1046.562732 526.203013 
C 1045.715201 527.050544 1045.238997 528.200204 1045.238997 529.398793 
C 1045.238997 530.597382 1045.715201 531.747042 1046.562732 532.594573 
C 1047.410263 533.442103 1048.559922 533.918308 1049.758512 533.918308 
z
" clip-path="url(#p7bd18a7f21)" style="stroke: #000000; stroke-width: 1.5; stroke-linejoin: miter"/>
   </g>
   <g id="patch_39">
    <path d="M 1049.758512 122.758333 
C 1052.55522 122.758333 1055.237759 121.647189 1057.215331 119.669618 
C 1059.192902 117.692046 1060.304047 115.009507 1060.304047 112.212799 
C 1060.304047 109.41609 1059.192902 106.733551 1057.215331 104.755979 
C 1055.237759 102.778408 1052.55522 101.667264 1049.758512 101.667264 
C 1046.961803 101.667264 1044.279264 102.778408 1042.301692 104.755979 
C 1040.324121 106.733551 1039.212977 109.41609 1039.212977 112.212799 
C 1039.212977 115.009507 1040.324121 117.692046 1042.301692 119.669618 
C 1044.279264 121.647189 1046.961803 122.758333 1049.758512 122.758333 
z
" clip-path="url(#p7bd18a7f21)" style="stroke: #000000; stroke-width: 2; stroke-linejoin: miter"/>
   </g>
   <g id="patch_40">
    <path d="M 1081.047461 544.463843 
L 1111.177561 544.463843 
L 1111.177561 514.333743 
L 1081.047461 514.333743 
z
" clip-path="url(#p7bd18a7f21)" style="fill: #ffffff; stroke: #000000; stroke-width: 1.5; stroke-linejoin: miter"/>
   </g>
   <g id="patch_41">
    <path d="M 1096.112511 487.564309 
C 1097.3111 487.564309 1098.46076 487.088104 1099.308291 486.240573 
C 1100.155821 485.393043 1100.632026 484.243383 1100.632026 483.044794 
C 1100.632026 481.846204 1100.155821 480.696545 1099.308291 479.849014 
C 1098.46076 479.001483 1097.3111 478.525279 1096.112511 478.525279 
C 1094.913922 478.525279 1093.764262 479.001483 1092.916731 479.849014 
C 1092.069201 480.696545 1091.592996 481.846204 1091.592996 483.044794 
C 1091.592996 484.243383 1092.069201 485.393043 1092.916731 486.240573 
C 1093.764262 487.088104 1094.913922 487.564309 1096.112511 487.564309 
z
" clip-path="url(#p7bd18a7f21)" style="stroke: #000000; stroke-width: 1.5; stroke-linejoin: miter"/>
   </g>
   <g id="patch_42">
    <path d="M 1096.112511 122.758333 
C 1098.90922 122.758333 1101.591759 121.647189 1103.56933 119.669618 
C 1105.546902 117.692046 1106.658046 115.009507 1106.658046 112.212799 
C 1106.658046 109.41609 1105.546902 106.733551 1103.56933 104.755979 
C 1101.591759 102.778408 1098.90922 101.667264 1096.112511 101.667264 
C 1093.315803 101.667264 1090.633263 102.778408 1088.655692 104.755979 
C 1086.67812 106.733551 1085.566976 109.41609 1085.566976 112.212799 
C 1085.566976 115.009507 1086.67812 117.692046 1088.655692 119.669618 
C 1090.633263 121.647189 1093.315803 122.758333 1096.112511 122.758333 
z
" clip-path="url(#p7bd18a7f21)" style="stroke: #000000; stroke-width: 2; stroke-linejoin: miter"/>
   </g>
   <g id="patch_43">
    <path d="M 1142.46651 441.210309 
C 1143.6651 441.210309 1144.814759 440.734105 1145.66229 439.886574 
C 1146.509821 439.039043 1146.986025 437.889384 1146.986025 436.690794 
C 1146.986025 435.492205 1146.509821 434.342545 1145.66229 433.495015 
C 1144.814759 432.647484 1143.6651 432.171279 1142.46651 432.171279 
C 1141.267921 432.171279 1140.118261 432.647484 1139.270731 433.495015 
C 1138.4232 434.342545 1137.946995 435.492205 1137.946995 436.690794 
C 1137.946995 437.889384 1138.4232 439.039043 1139.270731 439.886574 
C 1140.118261 440.734105 1141.267921 441.210309 1142.46651 441.210309 
z
" clip-path="url(#p7bd18a7f21)" style="stroke: #000000; stroke-width: 1.5; stroke-linejoin: miter"/>
   </g>
   <g id="patch_44">
    <path d="M 1142.46651 122.758333 
C 1145.263219 122.758333 1147.945758 121.647189 1149.92333 119.669618 
C 1151.900901 117.692046 1153.012045 115.009507 1153.012045 112.212799 
C 1153.012045 109.41609 1151.900901 106.733551 1149.92333 104.755979 
C 1147.945758 102.778408 1145.263219 101.667264 1142.46651 101.667264 
C 1139.669802 101.667264 1136.987263 102.778408 1135.009691 104.755979 
C 1133.03212 106.733551 1131.920976 109.41609 1131.920976 112.212799 
C 1131.920976 115.009507 1133.03212 117.692046 1135.009691 119.669618 
C 1136.987263 121.647189 1139.669802 122.758333 1142.46651 122.758333 
z
" clip-path="url(#p7bd18a7f21)" style="stroke: #000000; stroke-width: 2; stroke-linejoin: miter"/>
   </g>
   <g id="patch_45">
    <path d="M 1127.401461 498.109843 
L 1157.53156 498.109843 
L 1157.53156 467.979744 
L 1127.401461 467.979744 
z
" clip-path="url(#p7bd18a7f21)" style="fill: #ffffff; stroke: #000000; stroke-width: 1.5; stroke-linejoin: miter"/>
   </g>
   <g id="patch_46">
    <path d="M 1188.82051 394.85631 
C 1190.019099 394.85631 1191.168759 394.380105 1192.016289 393.532574 
C 1192.86382 392.685044 1193.340025 391.535384 1193.340025 390.336795 
C 1193.340025 389.138205 1192.86382 387.988546 1192.016289 387.141015 
C 1191.168759 386.293484 1190.019099 385.81728 1188.82051 385.81728 
C 1187.62192 385.81728 1186.472261 386.293484 1185.62473 387.141015 
C 1184.777199 387.988546 1184.300995 389.138205 1184.300995 390.336795 
C 1184.300995 391.535384 1184.777199 392.685044 1185.62473 393.532574 
C 1186.472261 394.380105 1187.62192 394.85631 1188.82051 394.85631 
z
" clip-path="url(#p7bd18a7f21)" style="stroke: #000000; stroke-width: 1.5; stroke-linejoin: miter"/>
   </g>
   <g id="patch_47">
    <path d="M 1188.82051 122.758333 
C 1191.617218 122.758333 1194.299757 121.647189 1196.277329 119.669618 
C 1198.254901 117.692046 1199.366045 115.009507 1199.366045 112.212799 
C 1199.366045 109.41609 1198.254901 106.733551 1196.277329 104.755979 
C 1194.299757 102.778408 1191.617218 101.667264 1188.82051 101.667264 
C 1186.023801 101.667264 1183.341262 102.778408 1181.363691 104.755979 
C 1179.386119 106.733551 1178.274975 109.41609 1178.274975 112.212799 
C 1178.274975 115.009507 1179.386119 117.692046 1181.363691 119.669618 
C 1183.341262 121.647189 1186.023801 122.758333 1188.82051 122.758333 
z
" clip-path="url(#p7bd18a7f21)" style="stroke: #000000; stroke-width: 2; stroke-linejoin: miter"/>
   </g>
   <g id="patch_48">
    <path d="M 1173.75546 498.109843 
L 1203.88556 498.109843 
L 1203.88556 467.979744 
L 1173.75546 467.979744 
z
" clip-path="url(#p7bd18a7f21)" style="fill: #ffffff; stroke: #000000; stroke-width: 1.5; stroke-linejoin: miter"/>
   </g>
   <g id="patch_49">
    <path d="M 1173.75546 451.755844 
L 1203.88556 451.755844 
L 1203.88556 421.625744 
L 1173.75546 421.625744 
z
" clip-path="url(#p7bd18a7f21)" style="fill: #ffffff; stroke: #000000; stroke-width: 1.5; stroke-linejoin: miter"/>
   </g>
   <g id="patch_50">
    <path d="M 1235.174509 348.50231 
C 1236.373099 348.50231 1237.522758 348.026106 1238.370289 347.178575 
C 1239.21782 346.331044 1239.694024 345.181385 1239.694024 343.982795 
C 1239.694024 342.784206 1239.21782 341.634546 1238.370289 340.787016 
C 1237.522758 339.939485 1236.373099 339.46328 1235.174509 339.46328 
C 1233.97592 339.46328 1232.82626 339.939485 1231.97873 340.787016 
C 1231.131199 341.634546 1230.654994 342.784206 1230.654994 343.982795 
C 1230.654994 345.181385 1231.131199 346.331044 1231.97873 347.178575 
C 1232.82626 348.026106 1233.97592 348.50231 1235.174509 348.50231 
z
" clip-path="url(#p7bd18a7f21)" style="stroke: #000000; stroke-width: 1.5; stroke-linejoin: miter"/>
   </g>
   <g id="patch_51">
    <path d="M 1235.174509 122.758333 
C 1237.971218 122.758333 1240.653757 121.647189 1242.631328 119.669618 
C 1244.6089 117.692046 1245.720044 115.009507 1245.720044 112.212799 
C 1245.720044 109.41609 1244.6089 106.733551 1242.631328 104.755979 
C 1240.653757 102.778408 1237.971218 101.667264 1235.174509 101.667264 
C 1232.377801 101.667264 1229.695262 102.778408 1227.71769 104.755979 
C 1225.740118 106.733551 1224.628974 109.41609 1224.628974 112.212799 
C 1224.628974 115.009507 1225.740118 117.692046 1227.71769 119.669618 
C 1229.695262 121.647189 1232.377801 122.758333 1235.174509 122.758333 
z
" clip-path="url(#p7bd18a7f21)" style="stroke: #000000; stroke-width: 2; stroke-linejoin: miter"/>
   </g>
   <g id="patch_52">
    <path d="M 1220.109459 451.755844 
L 1250.239559 451.755844 
L 1250.239559 421.625744 
L 1220.109459 421.625744 
z
" clip-path="url(#p7bd18a7f21)" style="fill: #ffffff; stroke: #000000; stroke-width: 1.5; stroke-linejoin: miter"/>
   </g>
   <g id="patch_53">
    <path d="M 1266.463459 359.047845 
L 1296.593558 359.047845 
L 1296.593558 328.917746 
L 1266.463459 328.917746 
z
" clip-path="url(#p7bd18a7f21)" style="fill: #ffffff; stroke: #000000; stroke-width: 1.5; stroke-linejoin: miter"/>
   </g>
   <g id="patch_54">
    <path d="M 1281.528509 255.794312 
C 1282.727098 255.794312 1283.876758 255.318107 1284.724288 254.470576 
C 1285.571819 253.623046 1286.048024 252.473386 1286.048024 251.274797 
C 1286.048024 250.076207 1285.571819 248.926548 1284.724288 248.079017 
C 1283.876758 247.231486 1282.727098 246.755282 1281.528509 246.755282 
C 1280.329919 246.755282 1279.18026 247.231486 1278.332729 248.079017 
C 1277.485198 248.926548 1277.008994 250.076207 1277.008994 251.274797 
C 1277.008994 252.473386 1277.485198 253.623046 1278.332729 254.470576 
C 1279.18026 255.318107 1280.329919 255.794312 1281.528509 255.794312 
z
" clip-path="url(#p7bd18a7f21)" style="stroke: #000000; stroke-width: 1.5; stroke-linejoin: miter"/>
   </g>
   <g id="patch_55">
    <path d="M 1281.528509 122.758333 
C 1284.325217 122.758333 1287.007756 121.647189 1288.985328 119.669618 
C 1290.962899 117.692046 1292.074043 115.009507 1292.074043 112.212799 
C 1292.074043 109.41609 1290.962899 106.733551 1288.985328 104.755979 
C 1287.007756 102.778408 1284.325217 101.667264 1281.528509 101.667264 
C 1278.7318 101.667264 1276.049261 102.778408 1274.071689 104.755979 
C 1272.094118 106.733551 1270.982974 109.41609 1270.982974 112.212799 
C 1270.982974 115.009507 1272.094118 117.692046 1274.071689 119.669618 
C 1276.049261 121.647189 1278.7318 122.758333 1281.528509 122.758333 
z
" clip-path="url(#p7bd18a7f21)" style="stroke: #000000; stroke-width: 2; stroke-linejoin: miter"/>
   </g>
   <g id="patch_56">
    <path d="M 1327.882508 209.440312 
C 1329.081097 209.440312 1330.230757 208.964108 1331.078288 208.116577 
C 1331.925818 207.269046 1332.402023 206.119387 1332.402023 204.920797 
C 1332.402023 203.722208 1331.925818 202.572548 1331.078288 201.725018 
C 1330.230757 200.877487 1329.081097 200.401282 1327.882508 200.401282 
C 1326.683919 200.401282 1325.534259 200.877487 1324.686728 201.725018 
C 1323.839198 202.572548 1323.362993 203.722208 1323.362993 204.920797 
C 1323.362993 206.119387 1323.839198 207.269046 1324.686728 208.116577 
C 1325.534259 208.964108 1326.683919 209.440312 1327.882508 209.440312 
z
" clip-path="url(#p7bd18a7f21)" style="stroke: #000000; stroke-width: 1.5; stroke-linejoin: miter"/>
   </g>
   <g id="patch_57">
    <path d="M 1327.882508 122.758333 
C 1330.679216 122.758333 1333.361756 121.647189 1335.339327 119.669618 
C 1337.316899 117.692046 1338.428043 115.009507 1338.428043 112.212799 
C 1338.428043 109.41609 1337.316899 106.733551 1335.339327 104.755979 
C 1333.361756 102.778408 1330.679216 101.667264 1327.882508 101.667264 
C 1325.085799 101.667264 1322.40326 102.778408 1320.425689 104.755979 
C 1318.448117 106.733551 1317.336973 109.41609 1317.336973 112.212799 
C 1317.336973 115.009507 1318.448117 117.692046 1320.425689 119.669618 
C 1322.40326 121.647189 1325.085799 122.758333 1327.882508 122.758333 
z
" clip-path="url(#p7bd18a7f21)" style="stroke: #000000; stroke-width: 2; stroke-linejoin: miter"/>
   </g>
   <g id="patch_58">
    <path d="M 1312.817458 266.339846 
L 1342.947558 266.339846 
L 1342.947558 236.209747 
L 1312.817458 236.209747 
z
" clip-path="url(#p7bd18a7f21)" style="fill: #ffffff; stroke: #000000; stroke-width: 1.5; stroke-linejoin: miter"/>
   </g>
   <g id="patch_59">
    <path d="M 1374.236507 163.086313 
C 1375.435097 163.086313 1376.584756 162.610108 1377.432287 161.762578 
C 1378.279818 160.915047 1378.756022 159.765387 1378.756022 158.566798 
C 1378.756022 157.368209 1378.279818 156.218549 1377.432287 155.371018 
C 1376.584756 154.523488 1375.435097 154.047283 1374.236507 154.047283 
C 1373.037918 154.047283 1371.888258 154.523488 1371.040728 155.371018 
C 1370.193197 156.218549 1369.716992 157.368209 1369.716992 158.566798 
C 1369.716992 159.765387 1370.193197 160.915047 1371.040728 161.762578 
C 1371.888258 162.610108 1373.037918 163.086313 1374.236507 163.086313 
z
" clip-path="url(#p7bd18a7f21)" style="stroke: #000000; stroke-width: 1.5; stroke-linejoin: miter"/>
   </g>
   <g id="patch_60">
    <path d="M 1374.236507 122.758333 
C 1377.033216 122.758333 1379.715755 121.647189 1381.693327 119.669618 
C 1383.670898 117.692046 1384.782042 115.009507 1384.782042 112.212799 
C 1384.782042 109.41609 1383.670898 106.733551 1381.693327 104.755979 
C 1379.715755 102.778408 1377.033216 101.667264 1374.236507 101.667264 
C 1371.439799 101.667264 1368.75726 102.778408 1366.779688 104.755979 
C 1364.802117 106.733551 1363.690972 109.41609 1363.690972 112.212799 
C 1363.690972 115.009507 1364.802117 117.692046 1366.779688 119.669618 
C 1368.75726 121.647189 1371.439799 122.758333 1374.236507 122.758333 
z
" clip-path="url(#p7bd18a7f21)" style="stroke: #000000; stroke-width: 2; stroke-linejoin: miter"/>
   </g>
   <g id="patch_61">
    <path d="M 1374.236507 487.564309 
C 1375.435097 487.564309 1376.584756 487.088104 1377.432287 486.240573 
C 1378.279818 485.393043 1378.756022 484.243383 1378.756022 483.044794 
C 1378.756022 481.846204 1378.279818 480.696545 1377.432287 479.849014 
C 1376.584756 479.001483 1375.435097 478.525279 1374.236507 478.525279 
C 1373.037918 478.525279 1371.888258 479.001483 1371.040728 479.849014 
C 1370.193197 480.696545 1369.716992 481.846204 1369.716992 483.044794 
C 1369.716992 484.243383 1370.193197 485.393043 1371.040728 486.240573 
C 1371.888258 487.088104 1373.037918 487.564309 1374.236507 487.564309 
z
" clip-path="url(#p7bd18a7f21)" style="stroke: #000000; stroke-width: 1.5; stroke-linejoin: miter"/>
   </g>
   <g id="patch_62">
    <path d="M 1374.236507 215.466332 
C 1377.033216 215.466332 1379.715755 214.355188 1381.693327 212.377616 
C 1383.670898 210.400045 1384.782042 207.717506 1384.782042 204.920797 
C 1384.782042 202.124089 1383.670898 199.44155 1381.693327 197.463978 
C 1379.715755 195.486406 1377.033216 194.375262 1374.236507 194.375262 
C 1371.439799 194.375262 1368.75726 195.486406 1366.779688 197.463978 
C 1364.802117 199.44155 1363.690972 202.124089 1363.690972 204.920797 
C 1363.690972 207.717506 1364.802117 210.400045 1366.779688 212.377616 
C 1368.75726 214.355188 1371.439799 215.466332 1374.236507 215.466332 
z
" clip-path="url(#p7bd18a7f21)" style="stroke: #000000; stroke-width: 2; stroke-linejoin: miter"/>
   </g>
   <g id="patch_63">
    <path d="M 1405.525457 266.339846 
L 1435.655557 266.339846 
L 1435.655557 236.209747 
L 1405.525457 236.209747 
z
" clip-path="url(#p7bd18a7f21)" style="fill: #ffffff; stroke: #000000; stroke-width: 1.5; stroke-linejoin: miter"/>
   </g>
   <g id="patch_64">
    <path d="M 1466.944506 441.210309 
C 1468.143095 441.210309 1469.292755 440.734105 1470.140286 439.886574 
C 1470.987816 439.039043 1471.464021 437.889384 1471.464021 436.690794 
C 1471.464021 435.492205 1470.987816 434.342545 1470.140286 433.495015 
C 1469.292755 432.647484 1468.143095 432.171279 1466.944506 432.171279 
C 1465.745917 432.171279 1464.596257 432.647484 1463.748726 433.495015 
C 1462.901196 434.342545 1462.424991 435.492205 1462.424991 436.690794 
C 1462.424991 437.889384 1462.901196 439.039043 1463.748726 439.886574 
C 1464.596257 440.734105 1465.745917 441.210309 1466.944506 441.210309 
z
" clip-path="url(#p7bd18a7f21)" style="stroke: #000000; stroke-width: 1.5; stroke-linejoin: miter"/>
   </g>
   <g id="patch_65">
    <path d="M 1466.944506 215.466332 
C 1469.741215 215.466332 1472.423754 214.355188 1474.401325 212.377616 
C 1476.378897 210.400045 1477.490041 207.717506 1477.490041 204.920797 
C 1477.490041 202.124089 1476.378897 199.44155 1474.401325 197.463978 
C 1472.423754 195.486406 1469.741215 194.375262 1466.944506 194.375262 
C 1464.147798 194.375262 1461.465258 195.486406 1459.487687 197.463978 
C 1457.510115 199.44155 1456.398971 202.124089 1456.398971 204.920797 
C 1456.398971 207.717506 1457.510115 210.400045 1459.487687 212.377616 
C 1461.465258 214.355188 1464.147798 215.466332 1466.944506 215.466332 
z
" clip-path="url(#p7bd18a7f21)" style="stroke: #000000; stroke-width: 2; stroke-linejoin: miter"/>
   </g>
   <g id="patch_66">
    <path d="M 1513.298505 255.794312 
C 1514.497095 255.794312 1515.646754 255.318107 1516.494285 254.470576 
C 1517.341816 253.623046 1517.81802 252.473386 1517.81802 251.274797 
C 1517.81802 250.076207 1517.341816 248.926548 1516.494285 248.079017 
C 1515.646754 247.231486 1514.497095 246.755282 1513.298505 246.755282 
C 1512.099916 246.755282 1510.950257 247.231486 1510.102726 248.079017 
C 1509.255195 248.926548 1508.778991 250.076207 1508.778991 251.274797 
C 1508.778991 252.473386 1509.255195 253.623046 1510.102726 254.470576 
C 1510.950257 255.318107 1512.099916 255.794312 1513.298505 255.794312 
z
" clip-path="url(#p7bd18a7f21)" style="stroke: #000000; stroke-width: 1.5; stroke-linejoin: miter"/>
   </g>
   <g id="patch_67">
    <path d="M 1513.298505 215.466332 
C 1516.095214 215.466332 1518.777753 214.355188 1520.755325 212.377616 
C 1522.732896 210.400045 1523.84404 207.717506 1523.84404 204.920797 
C 1523.84404 202.124089 1522.732896 199.44155 1520.755325 197.463978 
C 1518.777753 195.486406 1516.095214 194.375262 1513.298505 194.375262 
C 1510.501797 194.375262 1507.819258 195.486406 1505.841686 197.463978 
C 1503.864115 199.44155 1502.752971 202.124089 1502.752971 204.920797 
C 1502.752971 207.717506 1503.864115 210.400045 1505.841686 212.377616 
C 1507.819258 214.355188 1510.501797 215.466332 1513.298505 215.466332 
z
" clip-path="url(#p7bd18a7f21)" style="stroke: #000000; stroke-width: 2; stroke-linejoin: miter"/>
   </g>
   <g id="patch_68">
    <path d="M 1544.587455 219.985847 
L 1574.717555 219.985847 
L 1574.717555 189.855747 
L 1544.587455 189.855747 
z
" clip-path="url(#p7bd18a7f21)" style="fill: #ffffff; stroke: #000000; stroke-width: 1.5; stroke-linejoin: miter"/>
   </g>
   <g id="patch_69">
    <path d="M 1606.006504 255.794312 
C 1607.205094 255.794312 1608.354753 255.318107 1609.202284 254.470576 
C 1610.049815 253.623046 1610.526019 252.473386 1610.526019 251.274797 
C 1610.526019 250.076207 1610.049815 248.926548 1609.202284 248.079017 
C 1608.354753 247.231486 1607.205094 246.755282 1606.006504 246.755282 
C 1604.807915 246.755282 1603.658255 247.231486 1602.810725 248.079017 
C 1601.963194 248.926548 1601.486989 250.076207 1601.486989 251.274797 
C 1601.486989 252.473386 1601.963194 253.623046 1602.810725 254.470576 
C 1603.658255 255.318107 1604.807915 255.794312 1606.006504 255.794312 
z
" clip-path="url(#p7bd18a7f21)" style="stroke: #000000; stroke-width: 1.5; stroke-linejoin: miter"/>
   </g>
   <g id="patch_70">
    <path d="M 1606.006504 215.466332 
C 1608.803213 215.466332 1611.485752 214.355188 1613.463323 212.377616 
C 1615.440895 210.400045 1616.552039 207.717506 1616.552039 204.920797 
C 1616.552039 202.124089 1615.440895 199.44155 1613.463323 197.463978 
C 1611.485752 195.486406 1608.803213 194.375262 1606.006504 194.375262 
C 1603.209796 194.375262 1600.527257 195.486406 1598.549685 197.463978 
C 1596.572113 199.44155 1595.460969 202.124089 1595.460969 204.920797 
C 1595.460969 207.717506 1596.572113 210.400045 1598.549685 212.377616 
C 1600.527257 214.355188 1603.209796 215.466332 1606.006504 215.466332 
z
" clip-path="url(#p7bd18a7f21)" style="stroke: #000000; stroke-width: 2; stroke-linejoin: miter"/>
   </g>
   <g id="patch_71">
    <path d="M 1637.295454 266.339846 
L 1667.425553 266.339846 
L 1667.425553 236.209747 
L 1637.295454 236.209747 
z
" clip-path="url(#p7bd18a7f21)" style="fill: #ffffff; stroke: #000000; stroke-width: 1.5; stroke-linejoin: miter"/>
   </g>
   <g id="patch_72">
    <path d="M 1698.714503 441.210309 
C 1699.913092 441.210309 1701.062752 440.734105 1701.910283 439.886574 
C 1702.757813 439.039043 1703.234018 437.889384 1703.234018 436.690794 
C 1703.234018 435.492205 1702.757813 434.342545 1701.910283 433.495015 
C 1701.062752 432.647484 1699.913092 432.171279 1698.714503 432.171279 
C 1697.515914 432.171279 1696.366254 432.647484 1695.518723 433.495015 
C 1694.671193 434.342545 1694.194988 435.492205 1694.194988 436.690794 
C 1694.194988 437.889384 1694.671193 439.039043 1695.518723 439.886574 
C 1696.366254 440.734105 1697.515914 441.210309 1698.714503 441.210309 
z
" clip-path="url(#p7bd18a7f21)" style="stroke: #000000; stroke-width: 1.5; stroke-linejoin: miter"/>
   </g>
   <g id="patch_73">
    <path d="M 1698.714503 215.466332 
C 1701.511212 215.466332 1704.193751 214.355188 1706.171322 212.377616 
C 1708.148894 210.400045 1709.260038 207.717506 1709.260038 204.920797 
C 1709.260038 202.124089 1708.148894 199.44155 1706.171322 197.463978 
C 1704.193751 195.486406 1701.511212 194.375262 1698.714503 194.375262 
C 1695.917794 194.375262 1693.235255 195.486406 1691.257684 197.463978 
C 1689.280112 199.44155 1688.168968 202.124089 1688.168968 204.920797 
C 1688.168968 207.717506 1689.280112 210.400045 1691.257684 212.377616 
C 1693.235255 214.355188 1695.917794 215.466332 1698.714503 215.466332 
z
" clip-path="url(#p7bd18a7f21)" style="stroke: #000000; stroke-width: 2; stroke-linejoin: miter"/>
   </g>
   <g id="patch_74">
    <path d="M 1730.003453 266.339846 
L 1760.133552 266.339846 
L 1760.133552 236.209747 
L 1730.003453 236.209747 
z
" clip-path="url(#p7bd18a7f21)" style="fill: #ffffff; stroke: #000000; stroke-width: 1.5; stroke-linejoin: miter"/>
   </g>
   <g id="patch_75">
    <path d="M 1730.003453 451.755844 
L 1760.133552 451.755844 
L 1760.133552 421.625744 
L 1730.003453 421.625744 
z
" clip-path="url(#p7bd18a7f21)" style="fill: #ffffff; stroke: #000000; stroke-width: 1.5; stroke-linejoin: miter"/>
   </g>
   <g id="patch_76">
    <path d="M 1791.422502 487.564309 
C 1792.621091 487.564309 1793.770751 487.088104 1794.618281 486.240573 
C 1795.465812 485.393043 1795.942017 484.243383 1795.942017 483.044794 
C 1795.942017 481.846204 1795.465812 480.696545 1794.618281 479.849014 
C 1793.770751 479.001483 1792.621091 478.525279 1791.422502 478.525279 
C 1790.223912 478.525279 1789.074253 479.001483 1788.226722 479.849014 
C 1787.379191 480.696545 1786.902987 481.846204 1786.902987 483.044794 
C 1786.902987 484.243383 1787.379191 485.393043 1788.226722 486.240573 
C 1789.074253 487.088104 1790.223912 487.564309 1791.422502 487.564309 
z
" clip-path="url(#p7bd18a7f21)" style="stroke: #000000; stroke-width: 1.5; stroke-linejoin: miter"/>
   </g>
   <g id="patch_77">
    <path d="M 1791.422502 215.466332 
C 1794.21921 215.466332 1796.901749 214.355188 1798.879321 212.377616 
C 1800.856893 210.400045 1801.968037 207.717506 1801.968037 204.920797 
C 1801.968037 202.124089 1800.856893 199.44155 1798.879321 197.463978 
C 1796.901749 195.486406 1794.21921 194.375262 1791.422502 194.375262 
C 1788.625793 194.375262 1785.943254 195.486406 1783.965683 197.463978 
C 1781.988111 199.44155 1780.876967 202.124089 1780.876967 204.920797 
C 1780.876967 207.717506 1781.988111 210.400045 1783.965683 212.377616 
C 1785.943254 214.355188 1788.625793 215.466332 1791.422502 215.466332 
z
" clip-path="url(#p7bd18a7f21)" style="stroke: #000000; stroke-width: 2; stroke-linejoin: miter"/>
   </g>
   <g id="patch_78">
    <path d="M 1822.711451 451.755844 
L 1852.841551 451.755844 
L 1852.841551 421.625744 
L 1822.711451 421.625744 
z
" clip-path="url(#p7bd18a7f21)" style="fill: #ffffff; stroke: #000000; stroke-width: 1.5; stroke-linejoin: miter"/>
   </g>
   <g id="patch_79">
    <path d="M 1822.711451 498.109843 
L 1852.841551 498.109843 
L 1852.841551 467.979744 
L 1822.711451 467.979744 
z
" clip-path="url(#p7bd18a7f21)" style="fill: #ffffff; stroke: #000000; stroke-width: 1.5; stroke-linejoin: miter"/>
   </g>
   <g id="patch_80">
    <path d="M 1869.065451 498.109843 
L 1899.19555 498.109843 
L 1899.19555 467.979744 
L 1869.065451 467.979744 
z
" clip-path="url(#p7bd18a7f21)" style="fill: #ffffff; stroke: #000000; stroke-width: 1.5; stroke-linejoin: miter"/>
   </g>
   <g id="text_2">
    <g clip-path="url(#p7bd18a7f21)">
     <!-- ${q}_{0}$ -->
     <g transform="translate(302.109061 116.663775)scale(0.1625 -0.1625)">
      <defs>
       <path id="DejaVuSans-Oblique-71" d="M 2669 525 
Q 2438 222 2123 65 
Q 1809 -91 1428 -91 
Q 897 -91 595 267 
Q 294 625 294 1253 
Q 294 1759 480 2231 
Q 666 2703 1013 3078 
Q 1238 3322 1530 3453 
Q 1822 3584 2144 3584 
Q 2531 3584 2781 3431 
Q 3031 3278 3144 2969 
L 3244 3494 
L 3822 3494 
L 2888 -1319 
L 2309 -1319 
L 2669 525 
z
M 891 1338 
Q 891 875 1084 633 
Q 1278 391 1644 391 
Q 2188 391 2572 911 
Q 2956 1431 2956 2175 
Q 2956 2625 2757 2864 
Q 2559 3103 2188 3103 
Q 1916 3103 1684 2976 
Q 1453 2850 1281 2606 
Q 1100 2350 995 2006 
Q 891 1663 891 1338 
z
" transform="scale(0.015625)"/>
      </defs>
      <use xlink:href="#DejaVuSans-Oblique-71"/>
      <use xlink:href="#DejaVuSans-30" transform="translate(63.476562 -16.40625)scale(0.7)"/>
     </g>
    </g>
   </g>
   <g id="text_3">
    <g clip-path="url(#p7bd18a7f21)">
     <!-- ${q}_{1}$ -->
     <g transform="translate(302.109061 163.017774)scale(0.1625 -0.1625)">
      <defs>
       <path id="DejaVuSans-31" d="M 794 531 
L 1825 531 
L 1825 4091 
L 703 3866 
L 703 4441 
L 1819 4666 
L 2450 4666 
L 2450 531 
L 3481 531 
L 3481 0 
L 794 0 
L 794 531 
z
" transform="scale(0.015625)"/>
      </defs>
      <use xlink:href="#DejaVuSans-Oblique-71"/>
      <use xlink:href="#DejaVuSans-31" transform="translate(63.476562 -16.40625)scale(0.7)"/>
     </g>
    </g>
   </g>
   <g id="text_4">
    <g clip-path="url(#p7bd18a7f21)">
     <!-- ${q}_{2}$ -->
     <g transform="translate(302.109061 209.371774)scale(0.1625 -0.1625)">
      <defs>
       <path id="DejaVuSans-32" d="M 1228 531 
L 3431 531 
L 3431 0 
L 469 0 
L 469 531 
Q 828 903 1448 1529 
Q 2069 2156 2228 2338 
Q 2531 2678 2651 2914 
Q 2772 3150 2772 3378 
Q 2772 3750 2511 3984 
Q 2250 4219 1831 4219 
Q 1534 4219 1204 4116 
Q 875 4013 500 3803 
L 500 4441 
Q 881 4594 1212 4672 
Q 1544 4750 1819 4750 
Q 2544 4750 2975 4387 
Q 3406 4025 3406 3419 
Q 3406 3131 3298 2873 
Q 3191 2616 2906 2266 
Q 2828 2175 2409 1742 
Q 1991 1309 1228 531 
z
" transform="scale(0.015625)"/>
      </defs>
      <use xlink:href="#DejaVuSans-Oblique-71"/>
      <use xlink:href="#DejaVuSans-32" transform="translate(63.476562 -16.40625)scale(0.7)"/>
     </g>
    </g>
   </g>
   <g id="text_5">
    <g clip-path="url(#p7bd18a7f21)">
     <!-- ${q}_{3}$ -->
     <g transform="translate(302.109061 255.725773)scale(0.1625 -0.1625)">
      <use xlink:href="#DejaVuSans-Oblique-71"/>
      <use xlink:href="#DejaVuSans-33" transform="translate(63.476562 -16.40625)scale(0.7)"/>
     </g>
    </g>
   </g>
   <g id="text_6">
    <g clip-path="url(#p7bd18a7f21)">
     <!-- ${q}_{4}$ -->
     <g transform="translate(302.109061 302.079773)scale(0.1625 -0.1625)">
      <use xlink:href="#DejaVuSans-Oblique-71"/>
      <use xlink:href="#DejaVuSans-34" transform="translate(63.476562 -16.40625)scale(0.7)"/>
     </g>
    </g>
   </g>
   <g id="text_7">
    <g clip-path="url(#p7bd18a7f21)">
     <!-- ${q}_{5}$ -->
     <g transform="translate(302.109061 348.433772)scale(0.1625 -0.1625)">
      <defs>
       <path id="DejaVuSans-35" d="M 691 4666 
L 3169 4666 
L 3169 4134 
L 1269 4134 
L 1269 2991 
Q 1406 3038 1543 3061 
Q 1681 3084 1819 3084 
Q 2600 3084 3056 2656 
Q 3513 2228 3513 1497 
Q 3513 744 3044 326 
Q 2575 -91 1722 -91 
Q 1428 -91 1123 -41 
Q 819 9 494 109 
L 494 744 
Q 775 591 1075 516 
Q 1375 441 1709 441 
Q 2250 441 2565 725 
Q 2881 1009 2881 1497 
Q 2881 1984 2565 2268 
Q 2250 2553 1709 2553 
Q 1456 2553 1204 2497 
Q 953 2441 691 2322 
L 691 4666 
z
" transform="scale(0.015625)"/>
      </defs>
      <use xlink:href="#DejaVuSans-Oblique-71"/>
      <use xlink:href="#DejaVuSans-35" transform="translate(63.476562 -16.40625)scale(0.7)"/>
     </g>
    </g>
   </g>
   <g id="text_8">
    <g clip-path="url(#p7bd18a7f21)">
     <!-- ${q}_{6}$ -->
     <g transform="translate(302.109061 394.787771)scale(0.1625 -0.1625)">
      <defs>
       <path id="DejaVuSans-36" d="M 2113 2584 
Q 1688 2584 1439 2293 
Q 1191 2003 1191 1497 
Q 1191 994 1439 701 
Q 1688 409 2113 409 
Q 2538 409 2786 701 
Q 3034 994 3034 1497 
Q 3034 2003 2786 2293 
Q 2538 2584 2113 2584 
z
M 3366 4563 
L 3366 3988 
Q 3128 4100 2886 4159 
Q 2644 4219 2406 4219 
Q 1781 4219 1451 3797 
Q 1122 3375 1075 2522 
Q 1259 2794 1537 2939 
Q 1816 3084 2150 3084 
Q 2853 3084 3261 2657 
Q 3669 2231 3669 1497 
Q 3669 778 3244 343 
Q 2819 -91 2113 -91 
Q 1303 -91 875 529 
Q 447 1150 447 2328 
Q 447 3434 972 4092 
Q 1497 4750 2381 4750 
Q 2619 4750 2861 4703 
Q 3103 4656 3366 4563 
z
" transform="scale(0.015625)"/>
      </defs>
      <use xlink:href="#DejaVuSans-Oblique-71"/>
      <use xlink:href="#DejaVuSans-36" transform="translate(63.476562 -16.40625)scale(0.7)"/>
     </g>
    </g>
   </g>
   <g id="text_9">
    <g clip-path="url(#p7bd18a7f21)">
     <!-- ${q}_{7}$ -->
     <g transform="translate(302.109061 441.141771)scale(0.1625 -0.1625)">
      <defs>
       <path id="DejaVuSans-37" d="M 525 4666 
L 3525 4666 
L 3525 4397 
L 1831 0 
L 1172 0 
L 2766 4134 
L 525 4134 
L 525 4666 
z
" transform="scale(0.015625)"/>
      </defs>
      <use xlink:href="#DejaVuSans-Oblique-71"/>
      <use xlink:href="#DejaVuSans-37" transform="translate(63.476562 -16.40625)scale(0.7)"/>
     </g>
    </g>
   </g>
   <g id="text_10">
    <g clip-path="url(#p7bd18a7f21)">
     <!-- ${q}_{8}$ -->
     <g transform="translate(302.109061 487.49577)scale(0.1625 -0.1625)">
      <defs>
       <path id="DejaVuSans-38" d="M 2034 2216 
Q 1584 2216 1326 1975 
Q 1069 1734 1069 1313 
Q 1069 891 1326 650 
Q 1584 409 2034 409 
Q 2484 409 2743 651 
Q 3003 894 3003 1313 
Q 3003 1734 2745 1975 
Q 2488 2216 2034 2216 
z
M 1403 2484 
Q 997 2584 770 2862 
Q 544 3141 544 3541 
Q 544 4100 942 4425 
Q 1341 4750 2034 4750 
Q 2731 4750 3128 4425 
Q 3525 4100 3525 3541 
Q 3525 3141 3298 2862 
Q 3072 2584 2669 2484 
Q 3125 2378 3379 2068 
Q 3634 1759 3634 1313 
Q 3634 634 3220 271 
Q 2806 -91 2034 -91 
Q 1263 -91 848 271 
Q 434 634 434 1313 
Q 434 1759 690 2068 
Q 947 2378 1403 2484 
z
M 1172 3481 
Q 1172 3119 1398 2916 
Q 1625 2713 2034 2713 
Q 2441 2713 2670 2916 
Q 2900 3119 2900 3481 
Q 2900 3844 2670 4047 
Q 2441 4250 2034 4250 
Q 1625 4250 1398 4047 
Q 1172 3844 1172 3481 
z
" transform="scale(0.015625)"/>
      </defs>
      <use xlink:href="#DejaVuSans-Oblique-71"/>
      <use xlink:href="#DejaVuSans-38" transform="translate(63.476562 -16.40625)scale(0.7)"/>
     </g>
    </g>
   </g>
   <g id="text_11">
    <g clip-path="url(#p7bd18a7f21)">
     <!-- ${q}_{9}$ -->
     <g transform="translate(302.109061 533.84977)scale(0.1625 -0.1625)">
      <defs>
       <path id="DejaVuSans-39" d="M 703 97 
L 703 672 
Q 941 559 1184 500 
Q 1428 441 1663 441 
Q 2288 441 2617 861 
Q 2947 1281 2994 2138 
Q 2813 1869 2534 1725 
Q 2256 1581 1919 1581 
Q 1219 1581 811 2004 
Q 403 2428 403 3163 
Q 403 3881 828 4315 
Q 1253 4750 1959 4750 
Q 2769 4750 3195 4129 
Q 3622 3509 3622 2328 
Q 3622 1225 3098 567 
Q 2575 -91 1691 -91 
Q 1453 -91 1209 -44 
Q 966 3 703 97 
z
M 1959 2075 
Q 2384 2075 2632 2365 
Q 2881 2656 2881 3163 
Q 2881 3666 2632 3958 
Q 2384 4250 1959 4250 
Q 1534 4250 1286 3958 
Q 1038 3666 1038 3163 
Q 1038 2656 1286 2365 
Q 1534 2075 1959 2075 
z
" transform="scale(0.015625)"/>
      </defs>
      <use xlink:href="#DejaVuSans-Oblique-71"/>
      <use xlink:href="#DejaVuSans-39" transform="translate(63.476562 -16.40625)scale(0.7)"/>
     </g>
    </g>
   </g>
   <g id="text_12">
    <g clip-path="url(#p7bd18a7f21)">
     <!-- H -->
     <g transform="translate(349.560318 347.569983)scale(0.13 -0.13)">
      <use xlink:href="#DejaVuSans-48"/>
     </g>
    </g>
   </g>
   <g id="text_13">
    <g clip-path="url(#p7bd18a7f21)">
     <!-- S -->
     <g transform="translate(350.322037 254.861984)scale(0.13 -0.13)">
      <use xlink:href="#DejaVuSans-53"/>
     </g>
    </g>
   </g>
   <g id="line2d_38">
    <path d="M 354.448521 118.238818 
L 354.448521 106.186779 
" clip-path="url(#p7bd18a7f21)" style="fill: none; stroke: #ffffff; stroke-width: 2; stroke-linecap: square"/>
   </g>
   <g id="line2d_39">
    <path d="M 348.422501 112.212799 
L 360.474541 112.212799 
" clip-path="url(#p7bd18a7f21)" style="fill: none; stroke: #ffffff; stroke-width: 2; stroke-linecap: square"/>
   </g>
   <g id="line2d_40">
    <path d="M 400.80252 535.424813 
L 400.80252 523.372773 
" clip-path="url(#p7bd18a7f21)" style="fill: none; stroke: #ffffff; stroke-width: 2; stroke-linecap: square"/>
   </g>
   <g id="line2d_41">
    <path d="M 394.7765 529.398793 
L 406.82854 529.398793 
" clip-path="url(#p7bd18a7f21)" style="fill: none; stroke: #ffffff; stroke-width: 2; stroke-linecap: square"/>
   </g>
   <g id="text_14">
    <g clip-path="url(#p7bd18a7f21)">
     <!-- H -->
     <g transform="translate(395.914317 254.861984)scale(0.13 -0.13)">
      <use xlink:href="#DejaVuSans-48"/>
     </g>
    </g>
   </g>
   <g id="line2d_42">
    <path d="M 400.80252 118.238818 
L 400.80252 106.186779 
" clip-path="url(#p7bd18a7f21)" style="fill: none; stroke: #ffffff; stroke-width: 2; stroke-linecap: square"/>
   </g>
   <g id="line2d_43">
    <path d="M 394.7765 112.212799 
L 406.82854 112.212799 
" clip-path="url(#p7bd18a7f21)" style="fill: none; stroke: #ffffff; stroke-width: 2; stroke-linecap: square"/>
   </g>
   <g id="line2d_44">
    <path d="M 447.15652 535.424813 
L 447.15652 523.372773 
" clip-path="url(#p7bd18a7f21)" style="fill: none; stroke: #ffffff; stroke-width: 2; stroke-linecap: square"/>
   </g>
   <g id="line2d_45">
    <path d="M 441.1305 529.398793 
L 453.18254 529.398793 
" clip-path="url(#p7bd18a7f21)" style="fill: none; stroke: #ffffff; stroke-width: 2; stroke-linecap: square"/>
   </g>
   <g id="line2d_46">
    <path d="M 447.15652 303.654816 
L 447.15652 291.602776 
" clip-path="url(#p7bd18a7f21)" style="fill: none; stroke: #ffffff; stroke-width: 2; stroke-linecap: square"/>
   </g>
   <g id="line2d_47">
    <path d="M 441.1305 297.628796 
L 453.18254 297.628796 
" clip-path="url(#p7bd18a7f21)" style="fill: none; stroke: #ffffff; stroke-width: 2; stroke-linecap: square"/>
   </g>
   <g id="text_15">
    <g clip-path="url(#p7bd18a7f21)">
     <!-- H -->
     <g transform="translate(442.268317 347.569983)scale(0.13 -0.13)">
      <use xlink:href="#DejaVuSans-48"/>
     </g>
    </g>
   </g>
   <g id="line2d_48">
    <path d="M 516.687519 535.424813 
L 516.687519 523.372773 
" clip-path="url(#p7bd18a7f21)" style="fill: none; stroke: #ffffff; stroke-width: 2; stroke-linecap: square"/>
   </g>
   <g id="line2d_49">
    <path d="M 510.661499 529.398793 
L 522.713539 529.398793 
" clip-path="url(#p7bd18a7f21)" style="fill: none; stroke: #ffffff; stroke-width: 2; stroke-linecap: square"/>
   </g>
   <g id="text_16">
    <g clip-path="url(#p7bd18a7f21)">
     <!-- $-$0.00984 -->
     <g transform="translate(496.767519 308.875326)scale(0.08 -0.08)">
      <defs>
       <path id="DejaVuSans-2212" d="M 678 2272 
L 4684 2272 
L 4684 1741 
L 678 1741 
L 678 2272 
z
" transform="scale(0.015625)"/>
       <path id="DejaVuSans-2e" d="M 684 794 
L 1344 794 
L 1344 0 
L 684 0 
L 684 794 
z
" transform="scale(0.015625)"/>
      </defs>
      <use xlink:href="#DejaVuSans-2212" transform="translate(0 0.78125)"/>
      <use xlink:href="#DejaVuSans-30" transform="translate(83.789062 0.78125)"/>
      <use xlink:href="#DejaVuSans-2e" transform="translate(147.412109 0.78125)"/>
      <use xlink:href="#DejaVuSans-30" transform="translate(179.199219 0.78125)"/>
      <use xlink:href="#DejaVuSans-30" transform="translate(242.822266 0.78125)"/>
      <use xlink:href="#DejaVuSans-39" transform="translate(306.445312 0.78125)"/>
      <use xlink:href="#DejaVuSans-38" transform="translate(370.068359 0.78125)"/>
      <use xlink:href="#DejaVuSans-34" transform="translate(433.691406 0.78125)"/>
     </g>
    </g>
   </g>
   <g id="text_17">
    <g clip-path="url(#p7bd18a7f21)">
     <!-- $\mathrm{R_Z}$ -->
     <g transform="translate(508.757519 296.696469)scale(0.13 -0.13)">
      <defs>
       <path id="DejaVuSans-5a" d="M 359 4666 
L 4025 4666 
L 4025 4184 
L 1075 531 
L 4097 531 
L 4097 0 
L 288 0 
L 288 481 
L 3238 4134 
L 359 4134 
L 359 4666 
z
" transform="scale(0.015625)"/>
      </defs>
      <use xlink:href="#DejaVuSans-52" transform="translate(0 0.09375)"/>
      <use xlink:href="#DejaVuSans-5a" transform="translate(70.439453 -16.3125)scale(0.7)"/>
     </g>
    </g>
   </g>
   <g id="text_18">
    <g clip-path="url(#p7bd18a7f21)">
     <!-- $-$0.0043 -->
     <g transform="translate(568.858518 540.645323)scale(0.08 -0.08)">
      <use xlink:href="#DejaVuSans-2212" transform="translate(0 0.78125)"/>
      <use xlink:href="#DejaVuSans-30" transform="translate(83.789062 0.78125)"/>
      <use xlink:href="#DejaVuSans-2e" transform="translate(147.412109 0.78125)"/>
      <use xlink:href="#DejaVuSans-30" transform="translate(179.199219 0.78125)"/>
      <use xlink:href="#DejaVuSans-30" transform="translate(242.822266 0.78125)"/>
      <use xlink:href="#DejaVuSans-34" transform="translate(306.445312 0.78125)"/>
      <use xlink:href="#DejaVuSans-33" transform="translate(370.068359 0.78125)"/>
     </g>
    </g>
   </g>
   <g id="text_19">
    <g clip-path="url(#p7bd18a7f21)">
     <!-- $\mathrm{R_Z}$ -->
     <g transform="translate(578.288518 528.466466)scale(0.13 -0.13)">
      <use xlink:href="#DejaVuSans-52" transform="translate(0 0.09375)"/>
      <use xlink:href="#DejaVuSans-5a" transform="translate(70.439453 -16.3125)scale(0.7)"/>
     </g>
    </g>
   </g>
   <g id="line2d_50">
    <path d="M 586.218518 303.654816 
L 586.218518 291.602776 
" clip-path="url(#p7bd18a7f21)" style="fill: none; stroke: #ffffff; stroke-width: 2; stroke-linecap: square"/>
   </g>
   <g id="line2d_51">
    <path d="M 580.192498 297.628796 
L 592.244538 297.628796 
" clip-path="url(#p7bd18a7f21)" style="fill: none; stroke: #ffffff; stroke-width: 2; stroke-linecap: square"/>
   </g>
   <g id="text_20">
    <g clip-path="url(#p7bd18a7f21)">
     <!-- S -->
     <g transform="translate(628.446033 254.861984)scale(0.13 -0.13)">
      <use xlink:href="#DejaVuSans-53"/>
     </g>
    </g>
   </g>
   <g id="text_21">
    <g clip-path="url(#p7bd18a7f21)">
     <!-- H -->
     <g transform="translate(627.684314 532.98598)scale(0.13 -0.13)">
      <use xlink:href="#DejaVuSans-48"/>
     </g>
    </g>
   </g>
   <g id="text_22">
    <g clip-path="url(#p7bd18a7f21)">
     <!-- H -->
     <g transform="translate(674.038313 254.861984)scale(0.13 -0.13)">
      <use xlink:href="#DejaVuSans-48"/>
     </g>
    </g>
   </g>
   <g id="line2d_52">
    <path d="M 725.280516 118.238818 
L 725.280516 106.186779 
" clip-path="url(#p7bd18a7f21)" style="fill: none; stroke: #ffffff; stroke-width: 2; stroke-linecap: square"/>
   </g>
   <g id="line2d_53">
    <path d="M 719.254496 112.212799 
L 731.306536 112.212799 
" clip-path="url(#p7bd18a7f21)" style="fill: none; stroke: #ffffff; stroke-width: 2; stroke-linecap: square"/>
   </g>
   <g id="line2d_54">
    <path d="M 771.634515 118.238818 
L 771.634515 106.186779 
" clip-path="url(#p7bd18a7f21)" style="fill: none; stroke: #ffffff; stroke-width: 2; stroke-linecap: square"/>
   </g>
   <g id="line2d_55">
    <path d="M 765.608495 112.212799 
L 777.660535 112.212799 
" clip-path="url(#p7bd18a7f21)" style="fill: none; stroke: #ffffff; stroke-width: 2; stroke-linecap: square"/>
   </g>
   <g id="line2d_56">
    <path d="M 817.988515 118.238818 
L 817.988515 106.186779 
" clip-path="url(#p7bd18a7f21)" style="fill: none; stroke: #ffffff; stroke-width: 2; stroke-linecap: square"/>
   </g>
   <g id="line2d_57">
    <path d="M 811.962495 112.212799 
L 824.014535 112.212799 
" clip-path="url(#p7bd18a7f21)" style="fill: none; stroke: #ffffff; stroke-width: 2; stroke-linecap: square"/>
   </g>
   <g id="line2d_58">
    <path d="M 864.342514 118.238818 
L 864.342514 106.186779 
" clip-path="url(#p7bd18a7f21)" style="fill: none; stroke: #ffffff; stroke-width: 2; stroke-linecap: square"/>
   </g>
   <g id="line2d_59">
    <path d="M 858.316494 112.212799 
L 870.368534 112.212799 
" clip-path="url(#p7bd18a7f21)" style="fill: none; stroke: #ffffff; stroke-width: 2; stroke-linecap: square"/>
   </g>
   <g id="line2d_60">
    <path d="M 910.696514 118.238818 
L 910.696514 106.186779 
" clip-path="url(#p7bd18a7f21)" style="fill: none; stroke: #ffffff; stroke-width: 2; stroke-linecap: square"/>
   </g>
   <g id="line2d_61">
    <path d="M 904.670494 112.212799 
L 916.722533 112.212799 
" clip-path="url(#p7bd18a7f21)" style="fill: none; stroke: #ffffff; stroke-width: 2; stroke-linecap: square"/>
   </g>
   <g id="line2d_62">
    <path d="M 957.050513 118.238818 
L 957.050513 106.186779 
" clip-path="url(#p7bd18a7f21)" style="fill: none; stroke: #ffffff; stroke-width: 2; stroke-linecap: square"/>
   </g>
   <g id="line2d_63">
    <path d="M 951.024493 112.212799 
L 963.076533 112.212799 
" clip-path="url(#p7bd18a7f21)" style="fill: none; stroke: #ffffff; stroke-width: 2; stroke-linecap: square"/>
   </g>
   <g id="text_23">
    <g clip-path="url(#p7bd18a7f21)">
     <!-- $-$0.0155 -->
     <g transform="translate(986.044512 123.459328)scale(0.08 -0.08)">
      <use xlink:href="#DejaVuSans-2212" transform="translate(0 0.78125)"/>
      <use xlink:href="#DejaVuSans-30" transform="translate(83.789062 0.78125)"/>
      <use xlink:href="#DejaVuSans-2e" transform="translate(147.412109 0.78125)"/>
      <use xlink:href="#DejaVuSans-30" transform="translate(179.199219 0.78125)"/>
      <use xlink:href="#DejaVuSans-31" transform="translate(242.822266 0.78125)"/>
      <use xlink:href="#DejaVuSans-35" transform="translate(306.445312 0.78125)"/>
      <use xlink:href="#DejaVuSans-35" transform="translate(370.068359 0.78125)"/>
     </g>
    </g>
   </g>
   <g id="text_24">
    <g clip-path="url(#p7bd18a7f21)">
     <!-- $\mathrm{R_Z}$ -->
     <g transform="translate(995.474512 111.280471)scale(0.13 -0.13)">
      <use xlink:href="#DejaVuSans-52" transform="translate(0 0.09375)"/>
      <use xlink:href="#DejaVuSans-5a" transform="translate(70.439453 -16.3125)scale(0.7)"/>
     </g>
    </g>
   </g>
   <g id="line2d_64">
    <path d="M 1049.758512 118.238818 
L 1049.758512 106.186779 
" clip-path="url(#p7bd18a7f21)" style="fill: none; stroke: #ffffff; stroke-width: 2; stroke-linecap: square"/>
   </g>
   <g id="line2d_65">
    <path d="M 1043.732492 112.212799 
L 1055.784532 112.212799 
" clip-path="url(#p7bd18a7f21)" style="fill: none; stroke: #ffffff; stroke-width: 2; stroke-linecap: square"/>
   </g>
   <g id="text_25">
    <g clip-path="url(#p7bd18a7f21)">
     <!-- H -->
     <g transform="translate(1091.224308 532.98598)scale(0.13 -0.13)">
      <use xlink:href="#DejaVuSans-48"/>
     </g>
    </g>
   </g>
   <g id="line2d_66">
    <path d="M 1096.112511 118.238818 
L 1096.112511 106.186779 
" clip-path="url(#p7bd18a7f21)" style="fill: none; stroke: #ffffff; stroke-width: 2; stroke-linecap: square"/>
   </g>
   <g id="line2d_67">
    <path d="M 1090.086491 112.212799 
L 1102.138531 112.212799 
" clip-path="url(#p7bd18a7f21)" style="fill: none; stroke: #ffffff; stroke-width: 2; stroke-linecap: square"/>
   </g>
   <g id="line2d_68">
    <path d="M 1142.46651 118.238818 
L 1142.46651 106.186779 
" clip-path="url(#p7bd18a7f21)" style="fill: none; stroke: #ffffff; stroke-width: 2; stroke-linecap: square"/>
   </g>
   <g id="line2d_69">
    <path d="M 1136.440491 112.212799 
L 1148.49253 112.212799 
" clip-path="url(#p7bd18a7f21)" style="fill: none; stroke: #ffffff; stroke-width: 2; stroke-linecap: square"/>
   </g>
   <g id="text_26">
    <g clip-path="url(#p7bd18a7f21)">
     <!-- S -->
     <g transform="translate(1138.340026 486.631981)scale(0.13 -0.13)">
      <use xlink:href="#DejaVuSans-53"/>
     </g>
    </g>
   </g>
   <g id="line2d_70">
    <path d="M 1188.82051 118.238818 
L 1188.82051 106.186779 
" clip-path="url(#p7bd18a7f21)" style="fill: none; stroke: #ffffff; stroke-width: 2; stroke-linecap: square"/>
   </g>
   <g id="line2d_71">
    <path d="M 1182.79449 112.212799 
L 1194.84653 112.212799 
" clip-path="url(#p7bd18a7f21)" style="fill: none; stroke: #ffffff; stroke-width: 2; stroke-linecap: square"/>
   </g>
   <g id="text_27">
    <g clip-path="url(#p7bd18a7f21)">
     <!-- H -->
     <g transform="translate(1183.932307 486.631981)scale(0.13 -0.13)">
      <use xlink:href="#DejaVuSans-48"/>
     </g>
    </g>
   </g>
   <g id="text_28">
    <g clip-path="url(#p7bd18a7f21)">
     <!-- S -->
     <g transform="translate(1184.694025 440.277982)scale(0.13 -0.13)">
      <use xlink:href="#DejaVuSans-53"/>
     </g>
    </g>
   </g>
   <g id="line2d_72">
    <path d="M 1235.174509 118.238818 
L 1235.174509 106.186779 
" clip-path="url(#p7bd18a7f21)" style="fill: none; stroke: #ffffff; stroke-width: 2; stroke-linecap: square"/>
   </g>
   <g id="line2d_73">
    <path d="M 1229.148489 112.212799 
L 1241.200529 112.212799 
" clip-path="url(#p7bd18a7f21)" style="fill: none; stroke: #ffffff; stroke-width: 2; stroke-linecap: square"/>
   </g>
   <g id="text_29">
    <g clip-path="url(#p7bd18a7f21)">
     <!-- H -->
     <g transform="translate(1230.286306 440.277982)scale(0.13 -0.13)">
      <use xlink:href="#DejaVuSans-48"/>
     </g>
    </g>
   </g>
   <g id="text_30">
    <g clip-path="url(#p7bd18a7f21)">
     <!-- H -->
     <g transform="translate(1276.640305 347.569983)scale(0.13 -0.13)">
      <use xlink:href="#DejaVuSans-48"/>
     </g>
    </g>
   </g>
   <g id="line2d_74">
    <path d="M 1281.528509 118.238818 
L 1281.528509 106.186779 
" clip-path="url(#p7bd18a7f21)" style="fill: none; stroke: #ffffff; stroke-width: 2; stroke-linecap: square"/>
   </g>
   <g id="line2d_75">
    <path d="M 1275.502489 112.212799 
L 1287.554528 112.212799 
" clip-path="url(#p7bd18a7f21)" style="fill: none; stroke: #ffffff; stroke-width: 2; stroke-linecap: square"/>
   </g>
   <g id="line2d_76">
    <path d="M 1327.882508 118.238818 
L 1327.882508 106.186779 
" clip-path="url(#p7bd18a7f21)" style="fill: none; stroke: #ffffff; stroke-width: 2; stroke-linecap: square"/>
   </g>
   <g id="line2d_77">
    <path d="M 1321.856488 112.212799 
L 1333.908528 112.212799 
" clip-path="url(#p7bd18a7f21)" style="fill: none; stroke: #ffffff; stroke-width: 2; stroke-linecap: square"/>
   </g>
   <g id="text_31">
    <g clip-path="url(#p7bd18a7f21)">
     <!-- S -->
     <g transform="translate(1323.756024 254.861984)scale(0.13 -0.13)">
      <use xlink:href="#DejaVuSans-53"/>
     </g>
    </g>
   </g>
   <g id="line2d_78">
    <path d="M 1374.236507 118.238818 
L 1374.236507 106.186779 
" clip-path="url(#p7bd18a7f21)" style="fill: none; stroke: #ffffff; stroke-width: 2; stroke-linecap: square"/>
   </g>
   <g id="line2d_79">
    <path d="M 1368.210487 112.212799 
L 1380.262527 112.212799 
" clip-path="url(#p7bd18a7f21)" style="fill: none; stroke: #ffffff; stroke-width: 2; stroke-linecap: square"/>
   </g>
   <g id="line2d_80">
    <path d="M 1374.236507 210.946817 
L 1374.236507 198.894777 
" clip-path="url(#p7bd18a7f21)" style="fill: none; stroke: #ffffff; stroke-width: 2; stroke-linecap: square"/>
   </g>
   <g id="line2d_81">
    <path d="M 1368.210487 204.920797 
L 1380.262527 204.920797 
" clip-path="url(#p7bd18a7f21)" style="fill: none; stroke: #ffffff; stroke-width: 2; stroke-linecap: square"/>
   </g>
   <g id="text_32">
    <g clip-path="url(#p7bd18a7f21)">
     <!-- H -->
     <g transform="translate(1415.702304 254.861984)scale(0.13 -0.13)">
      <use xlink:href="#DejaVuSans-48"/>
     </g>
    </g>
   </g>
   <g id="line2d_82">
    <path d="M 1466.944506 210.946817 
L 1466.944506 198.894777 
" clip-path="url(#p7bd18a7f21)" style="fill: none; stroke: #ffffff; stroke-width: 2; stroke-linecap: square"/>
   </g>
   <g id="line2d_83">
    <path d="M 1460.918486 204.920797 
L 1472.970526 204.920797 
" clip-path="url(#p7bd18a7f21)" style="fill: none; stroke: #ffffff; stroke-width: 2; stroke-linecap: square"/>
   </g>
   <g id="line2d_84">
    <path d="M 1513.298505 210.946817 
L 1513.298505 198.894777 
" clip-path="url(#p7bd18a7f21)" style="fill: none; stroke: #ffffff; stroke-width: 2; stroke-linecap: square"/>
   </g>
   <g id="line2d_85">
    <path d="M 1507.272486 204.920797 
L 1519.324525 204.920797 
" clip-path="url(#p7bd18a7f21)" style="fill: none; stroke: #ffffff; stroke-width: 2; stroke-linecap: square"/>
   </g>
   <g id="text_33">
    <g clip-path="url(#p7bd18a7f21)">
     <!-- 0.0207 -->
     <g transform="translate(1545.656255 216.167327)scale(0.08 -0.08)">
      <use xlink:href="#DejaVuSans-30"/>
      <use xlink:href="#DejaVuSans-2e" x="63.623047"/>
      <use xlink:href="#DejaVuSans-30" x="95.410156"/>
      <use xlink:href="#DejaVuSans-32" x="159.033203"/>
      <use xlink:href="#DejaVuSans-30" x="222.65625"/>
      <use xlink:href="#DejaVuSans-37" x="286.279297"/>
     </g>
    </g>
   </g>
   <g id="text_34">
    <g clip-path="url(#p7bd18a7f21)">
     <!-- $\mathrm{R_Z}$ -->
     <g transform="translate(1551.722505 203.98847)scale(0.13 -0.13)">
      <use xlink:href="#DejaVuSans-52" transform="translate(0 0.09375)"/>
      <use xlink:href="#DejaVuSans-5a" transform="translate(70.439453 -16.3125)scale(0.7)"/>
     </g>
    </g>
   </g>
   <g id="line2d_86">
    <path d="M 1606.006504 210.946817 
L 1606.006504 198.894777 
" clip-path="url(#p7bd18a7f21)" style="fill: none; stroke: #ffffff; stroke-width: 2; stroke-linecap: square"/>
   </g>
   <g id="line2d_87">
    <path d="M 1599.980484 204.920797 
L 1612.032524 204.920797 
" clip-path="url(#p7bd18a7f21)" style="fill: none; stroke: #ffffff; stroke-width: 2; stroke-linecap: square"/>
   </g>
   <g id="text_35">
    <g clip-path="url(#p7bd18a7f21)">
     <!-- H -->
     <g transform="translate(1647.472301 254.861984)scale(0.13 -0.13)">
      <use xlink:href="#DejaVuSans-48"/>
     </g>
    </g>
   </g>
   <g id="line2d_88">
    <path d="M 1698.714503 210.946817 
L 1698.714503 198.894777 
" clip-path="url(#p7bd18a7f21)" style="fill: none; stroke: #ffffff; stroke-width: 2; stroke-linecap: square"/>
   </g>
   <g id="line2d_89">
    <path d="M 1692.688483 204.920797 
L 1704.740523 204.920797 
" clip-path="url(#p7bd18a7f21)" style="fill: none; stroke: #ffffff; stroke-width: 2; stroke-linecap: square"/>
   </g>
   <g id="text_36">
    <g clip-path="url(#p7bd18a7f21)">
     <!-- $\mathrm{S^\dagger}$ -->
     <g transform="translate(1736.618502 254.861984)scale(0.13 -0.13)">
      <defs>
       <path id="DejaVuSans-2020" d="M 1325 4666 
L 1875 4666 
L 1875 3353 
L 3022 3353 
L 3022 2875 
L 1875 2875 
L 1875 -616 
L 1325 -616 
L 1325 2875 
L 178 2875 
L 178 3353 
L 1325 3353 
L 1325 4666 
z
" transform="scale(0.015625)"/>
      </defs>
      <use xlink:href="#DejaVuSans-53" transform="translate(0 0.684375)"/>
      <use xlink:href="#DejaVuSans-2020" transform="translate(78.071289 38.965625)scale(0.7)"/>
     </g>
    </g>
   </g>
   <g id="text_37">
    <g clip-path="url(#p7bd18a7f21)">
     <!-- H -->
     <g transform="translate(1740.180299 440.277982)scale(0.13 -0.13)">
      <use xlink:href="#DejaVuSans-48"/>
     </g>
    </g>
   </g>
   <g id="line2d_90">
    <path d="M 1791.422502 210.946817 
L 1791.422502 198.894777 
" clip-path="url(#p7bd18a7f21)" style="fill: none; stroke: #ffffff; stroke-width: 2; stroke-linecap: square"/>
   </g>
   <g id="line2d_91">
    <path d="M 1785.396482 204.920797 
L 1797.448522 204.920797 
" clip-path="url(#p7bd18a7f21)" style="fill: none; stroke: #ffffff; stroke-width: 2; stroke-linecap: square"/>
   </g>
   <g id="text_38">
    <g clip-path="url(#p7bd18a7f21)">
     <!-- $\mathrm{S^\dagger}$ -->
     <g transform="translate(1829.326501 440.277982)scale(0.13 -0.13)">
      <use xlink:href="#DejaVuSans-53" transform="translate(0 0.684375)"/>
      <use xlink:href="#DejaVuSans-2020" transform="translate(78.071289 38.965625)scale(0.7)"/>
     </g>
    </g>
   </g>
   <g id="text_39">
    <g clip-path="url(#p7bd18a7f21)">
     <!-- H -->
     <g transform="translate(1832.888298 486.631981)scale(0.13 -0.13)">
      <use xlink:href="#DejaVuSans-48"/>
     </g>
    </g>
   </g>
   <g id="text_40">
    <g clip-path="url(#p7bd18a7f21)">
     <!-- $\mathrm{S^\dagger}$ -->
     <g transform="translate(1875.680501 486.631981)scale(0.13 -0.13)">
      <use xlink:href="#DejaVuSans-53" transform="translate(0 0.684375)"/>
      <use xlink:href="#DejaVuSans-2020" transform="translate(78.071289 38.965625)scale(0.7)"/>
     </g>
    </g>
   </g>
  </g>
 </g>
 <defs>
  <clipPath id="p7bd18a7f21">
   <rect x="272.008165" y="75.129599" width="1642.715975" height="482.081594"/>
  </clipPath>
 </defs>
</svg>
