<?xml version="1.0" encoding="utf-8" standalone="no"?>
<!DOCTYPE svg PUBLIC "-//W3C//DTD SVG 1.1//EN"
  "http://www.w3.org/Graphics/SVG/1.1/DTD/svg11.dtd">
<svg xmlns:xlink="http://www.w3.org/1999/xlink" width="2374.197367pt" height="626.079992pt" viewBox="0 0 2374.197367 626.079992" xmlns="http://www.w3.org/2000/svg" version="1.1">
 <metadata>
  <rdf:RDF xmlns:dc="http://purl.org/dc/elements/1.1/" xmlns:cc="http://creativecommons.org/ns#" xmlns:rdf="http://www.w3.org/1999/02/22-rdf-syntax-ns#">
   <cc:Work>
    <dc:type rdf:resource="http://purl.org/dc/dcmitype/StillImage"/>
    <dc:date>2022-05-22T13:27:48.647115</dc:date>
    <dc:format>image/svg+xml</dc:format>
    <dc:creator>
     <cc:Agent>
      <dc:title>Matplotlib v3.5.1, https://matplotlib.org/</dc:title>
     </cc:Agent>
    </dc:creator>
   </cc:Work>
  </rdf:RDF>
 </metadata>
 <defs>
  <style type="text/css">*{stroke-linejoin: round; stroke-linecap: butt}</style>
 </defs>
 <g id="figure_1">
  <g id="patch_1">
   <path d="M 0 626.079992 
L 2374.197367 626.079992 
L 2374.197367 0 
L 0 0 
z
" style="fill: #ffffff"/>
  </g>
  <g id="axes_1">
   <g id="line2d_1">
    <path d="M 360.119361 112.212799 
L 2126.206737 112.212799 
" clip-path="url(#p90c2b4f80b)" style="fill: none; stroke: #000000; stroke-width: 2; stroke-linecap: square"/>
   </g>
   <g id="line2d_2">
    <path d="M 360.119361 158.566798 
L 2126.206737 158.566798 
" clip-path="url(#p90c2b4f80b)" style="fill: none; stroke: #000000; stroke-width: 2; stroke-linecap: square"/>
   </g>
   <g id="line2d_3">
    <path d="M 360.119361 204.920797 
L 2126.206737 204.920797 
" clip-path="url(#p90c2b4f80b)" style="fill: none; stroke: #000000; stroke-width: 2; stroke-linecap: square"/>
   </g>
   <g id="line2d_4">
    <path d="M 360.119361 251.274797 
L 2126.206737 251.274797 
" clip-path="url(#p90c2b4f80b)" style="fill: none; stroke: #000000; stroke-width: 2; stroke-linecap: square"/>
   </g>
   <g id="line2d_5">
    <path d="M 360.119361 297.628796 
L 2126.206737 297.628796 
" clip-path="url(#p90c2b4f80b)" style="fill: none; stroke: #000000; stroke-width: 2; stroke-linecap: square"/>
   </g>
   <g id="line2d_6">
    <path d="M 360.119361 343.982795 
L 2126.206737 343.982795 
" clip-path="url(#p90c2b4f80b)" style="fill: none; stroke: #000000; stroke-width: 2; stroke-linecap: square"/>
   </g>
   <g id="line2d_7">
    <path d="M 360.119361 390.336795 
L 2126.206737 390.336795 
" clip-path="url(#p90c2b4f80b)" style="fill: none; stroke: #000000; stroke-width: 2; stroke-linecap: square"/>
   </g>
   <g id="line2d_8">
    <path d="M 360.119361 436.690794 
L 2126.206737 436.690794 
" clip-path="url(#p90c2b4f80b)" style="fill: none; stroke: #000000; stroke-width: 2; stroke-linecap: square"/>
   </g>
   <g id="line2d_9">
    <path d="M 360.119361 483.044794 
L 2126.206737 483.044794 
" clip-path="url(#p90c2b4f80b)" style="fill: none; stroke: #000000; stroke-width: 2; stroke-linecap: square"/>
   </g>
   <g id="line2d_10">
    <path d="M 360.119361 529.398793 
L 2126.206737 529.398793 
" clip-path="url(#p90c2b4f80b)" style="fill: none; stroke: #000000; stroke-width: 2; stroke-linecap: square"/>
   </g>
   <g id="line2d_11">
    <path d="M 385.15052 297.628796 
L 385.15052 251.274797 
" clip-path="url(#p90c2b4f80b)" style="fill: none; stroke: #000000; stroke-width: 2; stroke-linecap: square"/>
   </g>
   <g id="line2d_12">
    <path d="M 431.50452 343.982795 
L 431.50452 158.566798 
" clip-path="url(#p90c2b4f80b)" style="fill: none; stroke: #000000; stroke-width: 2; stroke-linecap: square"/>
   </g>
   <g id="line2d_13">
    <path d="M 524.212519 297.628796 
L 524.212519 251.274797 
" clip-path="url(#p90c2b4f80b)" style="fill: none; stroke: #000000; stroke-width: 2; stroke-linecap: square"/>
   </g>
   <g id="line2d_14">
    <path d="M 570.566518 343.982795 
L 570.566518 158.566798 
" clip-path="url(#p90c2b4f80b)" style="fill: none; stroke: #000000; stroke-width: 2; stroke-linecap: square"/>
   </g>
   <g id="line2d_15">
    <path d="M 616.920517 158.566798 
L 616.920517 112.212799 
" clip-path="url(#p90c2b4f80b)" style="fill: none; stroke: #000000; stroke-width: 2; stroke-linecap: square"/>
   </g>
   <g id="line2d_16">
    <path d="M 663.274517 204.920797 
L 663.274517 112.212799 
" clip-path="url(#p90c2b4f80b)" style="fill: none; stroke: #000000; stroke-width: 2; stroke-linecap: square"/>
   </g>
   <g id="line2d_17">
    <path d="M 709.628516 436.690794 
L 709.628516 112.212799 
" clip-path="url(#p90c2b4f80b)" style="fill: none; stroke: #000000; stroke-width: 2; stroke-linecap: square"/>
   </g>
   <g id="line2d_18">
    <path d="M 755.982516 483.044794 
L 755.982516 112.212799 
" clip-path="url(#p90c2b4f80b)" style="fill: none; stroke: #000000; stroke-width: 2; stroke-linecap: square"/>
   </g>
   <g id="line2d_19">
    <path d="M 848.690514 204.920797 
L 848.690514 112.212799 
" clip-path="url(#p90c2b4f80b)" style="fill: none; stroke: #000000; stroke-width: 2; stroke-linecap: square"/>
   </g>
   <g id="line2d_20">
    <path d="M 941.398513 483.044794 
L 941.398513 112.212799 
" clip-path="url(#p90c2b4f80b)" style="fill: none; stroke: #000000; stroke-width: 2; stroke-linecap: square"/>
   </g>
   <g id="line2d_21">
    <path d="M 987.752512 436.690794 
L 987.752512 112.212799 
" clip-path="url(#p90c2b4f80b)" style="fill: none; stroke: #000000; stroke-width: 2; stroke-linecap: square"/>
   </g>
   <g id="line2d_22">
    <path d="M 1126.814511 204.920797 
L 1126.814511 112.212799 
" clip-path="url(#p90c2b4f80b)" style="fill: none; stroke: #000000; stroke-width: 2; stroke-linecap: square"/>
   </g>
   <g id="line2d_23">
    <path d="M 1173.16851 158.566798 
L 1173.16851 112.212799 
" clip-path="url(#p90c2b4f80b)" style="fill: none; stroke: #000000; stroke-width: 2; stroke-linecap: square"/>
   </g>
   <g id="line2d_24">
    <path d="M 1265.876509 158.566798 
L 1265.876509 112.212799 
" clip-path="url(#p90c2b4f80b)" style="fill: none; stroke: #000000; stroke-width: 2; stroke-linecap: square"/>
   </g>
   <g id="line2d_25">
    <path d="M 1312.230508 204.920797 
L 1312.230508 112.212799 
" clip-path="url(#p90c2b4f80b)" style="fill: none; stroke: #000000; stroke-width: 2; stroke-linecap: square"/>
   </g>
   <g id="line2d_26">
    <path d="M 1358.584508 297.628796 
L 1358.584508 158.566798 
" clip-path="url(#p90c2b4f80b)" style="fill: none; stroke: #000000; stroke-width: 2; stroke-linecap: square"/>
   </g>
   <g id="line2d_27">
    <path d="M 1451.292506 436.690794 
L 1451.292506 112.212799 
" clip-path="url(#p90c2b4f80b)" style="fill: none; stroke: #000000; stroke-width: 2; stroke-linecap: square"/>
   </g>
   <g id="line2d_28">
    <path d="M 1544.000505 483.044794 
L 1544.000505 112.212799 
" clip-path="url(#p90c2b4f80b)" style="fill: none; stroke: #000000; stroke-width: 2; stroke-linecap: square"/>
   </g>
   <g id="line2d_29">
    <path d="M 1590.354504 297.628796 
L 1590.354504 158.566798 
" clip-path="url(#p90c2b4f80b)" style="fill: none; stroke: #000000; stroke-width: 2; stroke-linecap: square"/>
   </g>
   <g id="line2d_30">
    <path d="M 1636.708504 390.336795 
L 1636.708504 204.920797 
" clip-path="url(#p90c2b4f80b)" style="fill: none; stroke: #000000; stroke-width: 2; stroke-linecap: square"/>
   </g>
   <g id="line2d_31">
    <path d="M 1636.708504 158.566798 
L 1636.708504 112.212799 
" clip-path="url(#p90c2b4f80b)" style="fill: none; stroke: #000000; stroke-width: 2; stroke-linecap: square"/>
   </g>
   <g id="line2d_32">
    <path d="M 1729.416503 390.336795 
L 1729.416503 204.920797 
" clip-path="url(#p90c2b4f80b)" style="fill: none; stroke: #000000; stroke-width: 2; stroke-linecap: square"/>
   </g>
   <g id="line2d_33">
    <path d="M 1775.770502 204.920797 
L 1775.770502 112.212799 
" clip-path="url(#p90c2b4f80b)" style="fill: none; stroke: #000000; stroke-width: 2; stroke-linecap: square"/>
   </g>
   <g id="line2d_34">
    <path d="M 1822.124501 251.274797 
L 1822.124501 112.212799 
" clip-path="url(#p90c2b4f80b)" style="fill: none; stroke: #000000; stroke-width: 2; stroke-linecap: square"/>
   </g>
   <g id="line2d_35">
    <path d="M 1868.478501 483.044794 
L 1868.478501 112.212799 
" clip-path="url(#p90c2b4f80b)" style="fill: none; stroke: #000000; stroke-width: 2; stroke-linecap: square"/>
   </g>
   <g id="line2d_36">
    <path d="M 1961.1865 483.044794 
L 1961.1865 112.212799 
" clip-path="url(#p90c2b4f80b)" style="fill: none; stroke: #000000; stroke-width: 2; stroke-linecap: square"/>
   </g>
   <g id="line2d_37">
    <path d="M 2007.540499 251.274797 
L 2007.540499 112.212799 
" clip-path="url(#p90c2b4f80b)" style="fill: none; stroke: #000000; stroke-width: 2; stroke-linecap: square"/>
   </g>
   <g id="line2d_38">
    <path d="M 2053.894498 204.920797 
L 2053.894498 112.212799 
" clip-path="url(#p90c2b4f80b)" style="fill: none; stroke: #000000; stroke-width: 2; stroke-linecap: square"/>
   </g>
   <g id="line2d_39">
    <path d="M 2100.248498 158.566798 
L 2100.248498 112.212799 
" clip-path="url(#p90c2b4f80b)" style="fill: none; stroke: #000000; stroke-width: 2; stroke-linecap: square"/>
   </g>
   <g id="text_1">
    <!-- TERMS: 8, DEPTH:30 -->
    <g transform="translate(1154.743651 69.129599)scale(0.12 -0.12)">
     <defs>
      <path id="DejaVuSans-54" d="M -19 4666 
L 3928 4666 
L 3928 4134 
L 2272 4134 
L 2272 0 
L 1638 0 
L 1638 4134 
L -19 4134 
L -19 4666 
z
" transform="scale(0.015625)"/>
      <path id="DejaVuSans-45" d="M 628 4666 
L 3578 4666 
L 3578 4134 
L 1259 4134 
L 1259 2753 
L 3481 2753 
L 3481 2222 
L 1259 2222 
L 1259 531 
L 3634 531 
L 3634 0 
L 628 0 
L 628 4666 
z
" transform="scale(0.015625)"/>
      <path id="DejaVuSans-52" d="M 2841 2188 
Q 3044 2119 3236 1894 
Q 3428 1669 3622 1275 
L 4263 0 
L 3584 0 
L 2988 1197 
Q 2756 1666 2539 1819 
Q 2322 1972 1947 1972 
L 1259 1972 
L 1259 0 
L 628 0 
L 628 4666 
L 2053 4666 
Q 2853 4666 3247 4331 
Q 3641 3997 3641 3322 
Q 3641 2881 3436 2590 
Q 3231 2300 2841 2188 
z
M 1259 4147 
L 1259 2491 
L 2053 2491 
Q 2509 2491 2742 2702 
Q 2975 2913 2975 3322 
Q 2975 3731 2742 3939 
Q 2509 4147 2053 4147 
L 1259 4147 
z
" transform="scale(0.015625)"/>
      <path id="DejaVuSans-4d" d="M 628 4666 
L 1569 4666 
L 2759 1491 
L 3956 4666 
L 4897 4666 
L 4897 0 
L 4281 0 
L 4281 4097 
L 3078 897 
L 2444 897 
L 1241 4097 
L 1241 0 
L 628 0 
L 628 4666 
z
" transform="scale(0.015625)"/>
      <path id="DejaVuSans-53" d="M 3425 4513 
L 3425 3897 
Q 3066 4069 2747 4153 
Q 2428 4238 2131 4238 
Q 1616 4238 1336 4038 
Q 1056 3838 1056 3469 
Q 1056 3159 1242 3001 
Q 1428 2844 1947 2747 
L 2328 2669 
Q 3034 2534 3370 2195 
Q 3706 1856 3706 1288 
Q 3706 609 3251 259 
Q 2797 -91 1919 -91 
Q 1588 -91 1214 -16 
Q 841 59 441 206 
L 441 856 
Q 825 641 1194 531 
Q 1563 422 1919 422 
Q 2459 422 2753 634 
Q 3047 847 3047 1241 
Q 3047 1584 2836 1778 
Q 2625 1972 2144 2069 
L 1759 2144 
Q 1053 2284 737 2584 
Q 422 2884 422 3419 
Q 422 4038 858 4394 
Q 1294 4750 2059 4750 
Q 2388 4750 2728 4690 
Q 3069 4631 3425 4513 
z
" transform="scale(0.015625)"/>
      <path id="DejaVuSans-3a" d="M 750 794 
L 1409 794 
L 1409 0 
L 750 0 
L 750 794 
z
M 750 3309 
L 1409 3309 
L 1409 2516 
L 750 2516 
L 750 3309 
z
" transform="scale(0.015625)"/>
      <path id="DejaVuSans-20" transform="scale(0.015625)"/>
      <path id="DejaVuSans-38" d="M 2034 2216 
Q 1584 2216 1326 1975 
Q 1069 1734 1069 1313 
Q 1069 891 1326 650 
Q 1584 409 2034 409 
Q 2484 409 2743 651 
Q 3003 894 3003 1313 
Q 3003 1734 2745 1975 
Q 2488 2216 2034 2216 
z
M 1403 2484 
Q 997 2584 770 2862 
Q 544 3141 544 3541 
Q 544 4100 942 4425 
Q 1341 4750 2034 4750 
Q 2731 4750 3128 4425 
Q 3525 4100 3525 3541 
Q 3525 3141 3298 2862 
Q 3072 2584 2669 2484 
Q 3125 2378 3379 2068 
Q 3634 1759 3634 1313 
Q 3634 634 3220 271 
Q 2806 -91 2034 -91 
Q 1263 -91 848 271 
Q 434 634 434 1313 
Q 434 1759 690 2068 
Q 947 2378 1403 2484 
z
M 1172 3481 
Q 1172 3119 1398 2916 
Q 1625 2713 2034 2713 
Q 2441 2713 2670 2916 
Q 2900 3119 2900 3481 
Q 2900 3844 2670 4047 
Q 2441 4250 2034 4250 
Q 1625 4250 1398 4047 
Q 1172 3844 1172 3481 
z
" transform="scale(0.015625)"/>
      <path id="DejaVuSans-2c" d="M 750 794 
L 1409 794 
L 1409 256 
L 897 -744 
L 494 -744 
L 750 256 
L 750 794 
z
" transform="scale(0.015625)"/>
      <path id="DejaVuSans-44" d="M 1259 4147 
L 1259 519 
L 2022 519 
Q 2988 519 3436 956 
Q 3884 1394 3884 2338 
Q 3884 3275 3436 3711 
Q 2988 4147 2022 4147 
L 1259 4147 
z
M 628 4666 
L 1925 4666 
Q 3281 4666 3915 4102 
Q 4550 3538 4550 2338 
Q 4550 1131 3912 565 
Q 3275 0 1925 0 
L 628 0 
L 628 4666 
z
" transform="scale(0.015625)"/>
      <path id="DejaVuSans-50" d="M 1259 4147 
L 1259 2394 
L 2053 2394 
Q 2494 2394 2734 2622 
Q 2975 2850 2975 3272 
Q 2975 3691 2734 3919 
Q 2494 4147 2053 4147 
L 1259 4147 
z
M 628 4666 
L 2053 4666 
Q 2838 4666 3239 4311 
Q 3641 3956 3641 3272 
Q 3641 2581 3239 2228 
Q 2838 1875 2053 1875 
L 1259 1875 
L 1259 0 
L 628 0 
L 628 4666 
z
" transform="scale(0.015625)"/>
      <path id="DejaVuSans-48" d="M 628 4666 
L 1259 4666 
L 1259 2753 
L 3553 2753 
L 3553 4666 
L 4184 4666 
L 4184 0 
L 3553 0 
L 3553 2222 
L 1259 2222 
L 1259 0 
L 628 0 
L 628 4666 
z
" transform="scale(0.015625)"/>
      <path id="DejaVuSans-33" d="M 2597 2516 
Q 3050 2419 3304 2112 
Q 3559 1806 3559 1356 
Q 3559 666 3084 287 
Q 2609 -91 1734 -91 
Q 1441 -91 1130 -33 
Q 819 25 488 141 
L 488 750 
Q 750 597 1062 519 
Q 1375 441 1716 441 
Q 2309 441 2620 675 
Q 2931 909 2931 1356 
Q 2931 1769 2642 2001 
Q 2353 2234 1838 2234 
L 1294 2234 
L 1294 2753 
L 1863 2753 
Q 2328 2753 2575 2939 
Q 2822 3125 2822 3475 
Q 2822 3834 2567 4026 
Q 2313 4219 1838 4219 
Q 1578 4219 1281 4162 
Q 984 4106 628 3988 
L 628 4550 
Q 988 4650 1302 4700 
Q 1616 4750 1894 4750 
Q 2613 4750 3031 4423 
Q 3450 4097 3450 3541 
Q 3450 3153 3228 2886 
Q 3006 2619 2597 2516 
z
" transform="scale(0.015625)"/>
      <path id="DejaVuSans-30" d="M 2034 4250 
Q 1547 4250 1301 3770 
Q 1056 3291 1056 2328 
Q 1056 1369 1301 889 
Q 1547 409 2034 409 
Q 2525 409 2770 889 
Q 3016 1369 3016 2328 
Q 3016 3291 2770 3770 
Q 2525 4250 2034 4250 
z
M 2034 4750 
Q 2819 4750 3233 4129 
Q 3647 3509 3647 2328 
Q 3647 1150 3233 529 
Q 2819 -91 2034 -91 
Q 1250 -91 836 529 
Q 422 1150 422 2328 
Q 422 3509 836 4129 
Q 1250 4750 2034 4750 
z
" transform="scale(0.015625)"/>
     </defs>
     <use xlink:href="#DejaVuSans-54"/>
     <use xlink:href="#DejaVuSans-45" x="61.083984"/>
     <use xlink:href="#DejaVuSans-52" x="124.267578"/>
     <use xlink:href="#DejaVuSans-4d" x="193.75"/>
     <use xlink:href="#DejaVuSans-53" x="280.029297"/>
     <use xlink:href="#DejaVuSans-3a" x="343.505859"/>
     <use xlink:href="#DejaVuSans-20" x="377.197266"/>
     <use xlink:href="#DejaVuSans-38" x="408.984375"/>
     <use xlink:href="#DejaVuSans-2c" x="472.607422"/>
     <use xlink:href="#DejaVuSans-20" x="504.394531"/>
     <use xlink:href="#DejaVuSans-44" x="536.181641"/>
     <use xlink:href="#DejaVuSans-45" x="613.183594"/>
     <use xlink:href="#DejaVuSans-50" x="676.367188"/>
     <use xlink:href="#DejaVuSans-54" x="736.669922"/>
     <use xlink:href="#DejaVuSans-48" x="797.753906"/>
     <use xlink:href="#DejaVuSans-3a" x="872.949219"/>
     <use xlink:href="#DejaVuSans-33" x="906.640625"/>
     <use xlink:href="#DejaVuSans-30" x="970.263672"/>
    </g>
   </g>
   <g id="patch_2">
    <path d="M 385.15052 255.794312 
C 386.34911 255.794312 387.498769 255.318107 388.3463 254.470576 
C 389.193831 253.623046 389.670035 252.473386 389.670035 251.274797 
C 389.670035 250.076207 389.193831 248.926548 388.3463 248.079017 
C 387.498769 247.231486 386.34911 246.755282 385.15052 246.755282 
C 383.951931 246.755282 382.802271 247.231486 381.954741 248.079017 
C 381.10721 248.926548 380.631006 250.076207 380.631006 251.274797 
C 380.631006 252.473386 381.10721 253.623046 381.954741 254.470576 
C 382.802271 255.318107 383.951931 255.794312 385.15052 255.794312 
z
" clip-path="url(#p90c2b4f80b)" style="stroke: #000000; stroke-width: 1.5; stroke-linejoin: miter"/>
   </g>
   <g id="patch_3">
    <path d="M 385.15052 308.174331 
C 387.947229 308.174331 390.629768 307.063187 392.60734 305.085615 
C 394.584911 303.108044 395.696055 300.425505 395.696055 297.628796 
C 395.696055 294.832088 394.584911 292.149548 392.60734 290.171977 
C 390.629768 288.194405 387.947229 287.083261 385.15052 287.083261 
C 382.353812 287.083261 379.671273 288.194405 377.693701 290.171977 
C 375.71613 292.149548 374.604986 294.832088 374.604986 297.628796 
C 374.604986 300.425505 375.71613 303.108044 377.693701 305.085615 
C 379.671273 307.063187 382.353812 308.174331 385.15052 308.174331 
z
" clip-path="url(#p90c2b4f80b)" style="stroke: #000000; stroke-width: 2; stroke-linejoin: miter"/>
   </g>
   <g id="patch_4">
    <path d="M 370.085471 219.985847 
L 400.21557 219.985847 
L 400.21557 189.855747 
L 370.085471 189.855747 
z
" clip-path="url(#p90c2b4f80b)" style="fill: #ffffff; stroke: #000000; stroke-width: 1.5; stroke-linejoin: miter"/>
   </g>
   <g id="patch_5">
    <path d="M 431.50452 163.086313 
C 432.703109 163.086313 433.852769 162.610108 434.7003 161.762578 
C 435.54783 160.915047 436.024035 159.765387 436.024035 158.566798 
C 436.024035 157.368209 435.54783 156.218549 434.7003 155.371018 
C 433.852769 154.523488 432.703109 154.047283 431.50452 154.047283 
C 430.30593 154.047283 429.156271 154.523488 428.30874 155.371018 
C 427.46121 156.218549 426.985005 157.368209 426.985005 158.566798 
C 426.985005 159.765387 427.46121 160.915047 428.30874 161.762578 
C 429.156271 162.610108 430.30593 163.086313 431.50452 163.086313 
z
" clip-path="url(#p90c2b4f80b)" style="stroke: #000000; stroke-width: 1.5; stroke-linejoin: miter"/>
   </g>
   <g id="patch_6">
    <path d="M 431.50452 354.52833 
C 434.301228 354.52833 436.983768 353.417186 438.961339 351.439615 
C 440.938911 349.462043 442.050055 346.779504 442.050055 343.982795 
C 442.050055 341.186087 440.938911 338.503548 438.961339 336.525976 
C 436.983768 334.548405 434.301228 333.437261 431.50452 333.437261 
C 428.707811 333.437261 426.025272 334.548405 424.047701 336.525976 
C 422.070129 338.503548 420.958985 341.186087 420.958985 343.982795 
C 420.958985 346.779504 422.070129 349.462043 424.047701 351.439615 
C 426.025272 353.417186 428.707811 354.52833 431.50452 354.52833 
z
" clip-path="url(#p90c2b4f80b)" style="stroke: #000000; stroke-width: 2; stroke-linejoin: miter"/>
   </g>
   <g id="patch_7">
    <path d="M 416.43947 451.755844 
L 446.56957 451.755844 
L 446.56957 421.625744 
L 416.43947 421.625744 
z
" clip-path="url(#p90c2b4f80b)" style="fill: #ffffff; stroke: #000000; stroke-width: 1.5; stroke-linejoin: miter"/>
   </g>
   <g id="patch_8">
    <path d="M 416.43947 498.109843 
L 446.56957 498.109843 
L 446.56957 467.979744 
L 416.43947 467.979744 
z
" clip-path="url(#p90c2b4f80b)" style="fill: #ffffff; stroke: #000000; stroke-width: 1.5; stroke-linejoin: miter"/>
   </g>
   <g id="patch_9">
    <path d="M 462.793469 312.693846 
L 492.923569 312.693846 
L 492.923569 282.563746 
L 462.793469 282.563746 
z
" clip-path="url(#p90c2b4f80b)" style="fill: #ffffff; stroke: #000000; stroke-width: 1.5; stroke-linejoin: miter"/>
   </g>
   <g id="patch_10">
    <path d="M 462.793469 359.047845 
L 492.923569 359.047845 
L 492.923569 328.917746 
L 462.793469 328.917746 
z
" clip-path="url(#p90c2b4f80b)" style="fill: #ffffff; stroke: #000000; stroke-width: 1.5; stroke-linejoin: miter"/>
   </g>
   <g id="patch_11">
    <path d="M 462.793469 451.755844 
L 492.923569 451.755844 
L 492.923569 421.625744 
L 462.793469 421.625744 
z
" clip-path="url(#p90c2b4f80b)" style="fill: #ffffff; stroke: #000000; stroke-width: 1.5; stroke-linejoin: miter"/>
   </g>
   <g id="patch_12">
    <path d="M 462.793469 498.109843 
L 492.923569 498.109843 
L 492.923569 467.979744 
L 462.793469 467.979744 
z
" clip-path="url(#p90c2b4f80b)" style="fill: #ffffff; stroke: #000000; stroke-width: 1.5; stroke-linejoin: miter"/>
   </g>
   <g id="patch_13">
    <path d="M 524.212519 255.794312 
C 525.411108 255.794312 526.560768 255.318107 527.408298 254.470576 
C 528.255829 253.623046 528.732034 252.473386 528.732034 251.274797 
C 528.732034 250.076207 528.255829 248.926548 527.408298 248.079017 
C 526.560768 247.231486 525.411108 246.755282 524.212519 246.755282 
C 523.013929 246.755282 521.86427 247.231486 521.016739 248.079017 
C 520.169208 248.926548 519.693004 250.076207 519.693004 251.274797 
C 519.693004 252.473386 520.169208 253.623046 521.016739 254.470576 
C 521.86427 255.318107 523.013929 255.794312 524.212519 255.794312 
z
" clip-path="url(#p90c2b4f80b)" style="stroke: #000000; stroke-width: 1.5; stroke-linejoin: miter"/>
   </g>
   <g id="patch_14">
    <path d="M 524.212519 308.174331 
C 527.009227 308.174331 529.691766 307.063187 531.669338 305.085615 
C 533.646909 303.108044 534.758053 300.425505 534.758053 297.628796 
C 534.758053 294.832088 533.646909 292.149548 531.669338 290.171977 
C 529.691766 288.194405 527.009227 287.083261 524.212519 287.083261 
C 521.41581 287.083261 518.733271 288.194405 516.755699 290.171977 
C 514.778128 292.149548 513.666984 294.832088 513.666984 297.628796 
C 513.666984 300.425505 514.778128 303.108044 516.755699 305.085615 
C 518.733271 307.063187 521.41581 308.174331 524.212519 308.174331 
z
" clip-path="url(#p90c2b4f80b)" style="stroke: #000000; stroke-width: 2; stroke-linejoin: miter"/>
   </g>
   <g id="patch_15">
    <path d="M 570.566518 163.086313 
C 571.765107 163.086313 572.914767 162.610108 573.762298 161.762578 
C 574.609828 160.915047 575.086033 159.765387 575.086033 158.566798 
C 575.086033 157.368209 574.609828 156.218549 573.762298 155.371018 
C 572.914767 154.523488 571.765107 154.047283 570.566518 154.047283 
C 569.367929 154.047283 568.218269 154.523488 567.370738 155.371018 
C 566.523208 156.218549 566.047003 157.368209 566.047003 158.566798 
C 566.047003 159.765387 566.523208 160.915047 567.370738 161.762578 
C 568.218269 162.610108 569.367929 163.086313 570.566518 163.086313 
z
" clip-path="url(#p90c2b4f80b)" style="stroke: #000000; stroke-width: 1.5; stroke-linejoin: miter"/>
   </g>
   <g id="patch_16">
    <path d="M 570.566518 354.52833 
C 573.363227 354.52833 576.045766 353.417186 578.023337 351.439615 
C 580.000909 349.462043 581.112053 346.779504 581.112053 343.982795 
C 581.112053 341.186087 580.000909 338.503548 578.023337 336.525976 
C 576.045766 334.548405 573.363227 333.437261 570.566518 333.437261 
C 567.769809 333.437261 565.08727 334.548405 563.109699 336.525976 
C 561.132127 338.503548 560.020983 341.186087 560.020983 343.982795 
C 560.020983 346.779504 561.132127 349.462043 563.109699 351.439615 
C 565.08727 353.417186 567.769809 354.52833 570.566518 354.52833 
z
" clip-path="url(#p90c2b4f80b)" style="stroke: #000000; stroke-width: 2; stroke-linejoin: miter"/>
   </g>
   <g id="patch_17">
    <path d="M 616.920517 163.086313 
C 618.119107 163.086313 619.268766 162.610108 620.116297 161.762578 
C 620.963828 160.915047 621.440032 159.765387 621.440032 158.566798 
C 621.440032 157.368209 620.963828 156.218549 620.116297 155.371018 
C 619.268766 154.523488 618.119107 154.047283 616.920517 154.047283 
C 615.721928 154.047283 614.572268 154.523488 613.724738 155.371018 
C 612.877207 156.218549 612.401002 157.368209 612.401002 158.566798 
C 612.401002 159.765387 612.877207 160.915047 613.724738 161.762578 
C 614.572268 162.610108 615.721928 163.086313 616.920517 163.086313 
z
" clip-path="url(#p90c2b4f80b)" style="stroke: #000000; stroke-width: 1.5; stroke-linejoin: miter"/>
   </g>
   <g id="patch_18">
    <path d="M 616.920517 122.758333 
C 619.717226 122.758333 622.399765 121.647189 624.377337 119.669618 
C 626.354908 117.692046 627.466052 115.009507 627.466052 112.212799 
C 627.466052 109.41609 626.354908 106.733551 624.377337 104.755979 
C 622.399765 102.778408 619.717226 101.667264 616.920517 101.667264 
C 614.123809 101.667264 611.44127 102.778408 609.463698 104.755979 
C 607.486127 106.733551 606.374983 109.41609 606.374983 112.212799 
C 606.374983 115.009507 607.486127 117.692046 609.463698 119.669618 
C 611.44127 121.647189 614.123809 122.758333 616.920517 122.758333 
z
" clip-path="url(#p90c2b4f80b)" style="stroke: #000000; stroke-width: 2; stroke-linejoin: miter"/>
   </g>
   <g id="patch_19">
    <path d="M 601.855468 266.339846 
L 631.985567 266.339846 
L 631.985567 236.209747 
L 601.855468 236.209747 
z
" clip-path="url(#p90c2b4f80b)" style="fill: #ffffff; stroke: #000000; stroke-width: 1.5; stroke-linejoin: miter"/>
   </g>
   <g id="patch_20">
    <path d="M 663.274517 209.440312 
C 664.473106 209.440312 665.622766 208.964108 666.470296 208.116577 
C 667.317827 207.269046 667.794032 206.119387 667.794032 204.920797 
C 667.794032 203.722208 667.317827 202.572548 666.470296 201.725018 
C 665.622766 200.877487 664.473106 200.401282 663.274517 200.401282 
C 662.075927 200.401282 660.926268 200.877487 660.078737 201.725018 
C 659.231206 202.572548 658.755002 203.722208 658.755002 204.920797 
C 658.755002 206.119387 659.231206 207.269046 660.078737 208.116577 
C 660.926268 208.964108 662.075927 209.440312 663.274517 209.440312 
z
" clip-path="url(#p90c2b4f80b)" style="stroke: #000000; stroke-width: 1.5; stroke-linejoin: miter"/>
   </g>
   <g id="patch_21">
    <path d="M 663.274517 122.758333 
C 666.071225 122.758333 668.753764 121.647189 670.731336 119.669618 
C 672.708908 117.692046 673.820052 115.009507 673.820052 112.212799 
C 673.820052 109.41609 672.708908 106.733551 670.731336 104.755979 
C 668.753764 102.778408 666.071225 101.667264 663.274517 101.667264 
C 660.477808 101.667264 657.795269 102.778408 655.817698 104.755979 
C 653.840126 106.733551 652.728982 109.41609 652.728982 112.212799 
C 652.728982 115.009507 653.840126 117.692046 655.817698 119.669618 
C 657.795269 121.647189 660.477808 122.758333 663.274517 122.758333 
z
" clip-path="url(#p90c2b4f80b)" style="stroke: #000000; stroke-width: 2; stroke-linejoin: miter"/>
   </g>
   <g id="patch_22">
    <path d="M 648.209467 266.339846 
L 678.339567 266.339846 
L 678.339567 236.209747 
L 648.209467 236.209747 
z
" clip-path="url(#p90c2b4f80b)" style="fill: #ffffff; stroke: #000000; stroke-width: 1.5; stroke-linejoin: miter"/>
   </g>
   <g id="patch_23">
    <path d="M 709.628516 441.210309 
C 710.827106 441.210309 711.976765 440.734105 712.824296 439.886574 
C 713.671827 439.039043 714.148031 437.889384 714.148031 436.690794 
C 714.148031 435.492205 713.671827 434.342545 712.824296 433.495015 
C 711.976765 432.647484 710.827106 432.171279 709.628516 432.171279 
C 708.429927 432.171279 707.280267 432.647484 706.432737 433.495015 
C 705.585206 434.342545 705.109001 435.492205 705.109001 436.690794 
C 705.109001 437.889384 705.585206 439.039043 706.432737 439.886574 
C 707.280267 440.734105 708.429927 441.210309 709.628516 441.210309 
z
" clip-path="url(#p90c2b4f80b)" style="stroke: #000000; stroke-width: 1.5; stroke-linejoin: miter"/>
   </g>
   <g id="patch_24">
    <path d="M 709.628516 122.758333 
C 712.425225 122.758333 715.107764 121.647189 717.085335 119.669618 
C 719.062907 117.692046 720.174051 115.009507 720.174051 112.212799 
C 720.174051 109.41609 719.062907 106.733551 717.085335 104.755979 
C 715.107764 102.778408 712.425225 101.667264 709.628516 101.667264 
C 706.831808 101.667264 704.149269 102.778408 702.171697 104.755979 
C 700.194125 106.733551 699.082981 109.41609 699.082981 112.212799 
C 699.082981 115.009507 700.194125 117.692046 702.171697 119.669618 
C 704.149269 121.647189 706.831808 122.758333 709.628516 122.758333 
z
" clip-path="url(#p90c2b4f80b)" style="stroke: #000000; stroke-width: 2; stroke-linejoin: miter"/>
   </g>
   <g id="patch_25">
    <path d="M 755.982516 487.564309 
C 757.181105 487.564309 758.330765 487.088104 759.178295 486.240573 
C 760.025826 485.393043 760.50203 484.243383 760.50203 483.044794 
C 760.50203 481.846204 760.025826 480.696545 759.178295 479.849014 
C 758.330765 479.001483 757.181105 478.525279 755.982516 478.525279 
C 754.783926 478.525279 753.634267 479.001483 752.786736 479.849014 
C 751.939205 480.696545 751.463001 481.846204 751.463001 483.044794 
C 751.463001 484.243383 751.939205 485.393043 752.786736 486.240573 
C 753.634267 487.088104 754.783926 487.564309 755.982516 487.564309 
z
" clip-path="url(#p90c2b4f80b)" style="stroke: #000000; stroke-width: 1.5; stroke-linejoin: miter"/>
   </g>
   <g id="patch_26">
    <path d="M 755.982516 122.758333 
C 758.779224 122.758333 761.461763 121.647189 763.439335 119.669618 
C 765.416906 117.692046 766.52805 115.009507 766.52805 112.212799 
C 766.52805 109.41609 765.416906 106.733551 763.439335 104.755979 
C 761.461763 102.778408 758.779224 101.667264 755.982516 101.667264 
C 753.185807 101.667264 750.503268 102.778408 748.525696 104.755979 
C 746.548125 106.733551 745.436981 109.41609 745.436981 112.212799 
C 745.436981 115.009507 746.548125 117.692046 748.525696 119.669618 
C 750.503268 121.647189 753.185807 122.758333 755.982516 122.758333 
z
" clip-path="url(#p90c2b4f80b)" style="stroke: #000000; stroke-width: 2; stroke-linejoin: miter"/>
   </g>
   <g id="patch_27">
    <path d="M 787.271465 451.755844 
L 817.401565 451.755844 
L 817.401565 421.625744 
L 787.271465 421.625744 
z
" clip-path="url(#p90c2b4f80b)" style="fill: #ffffff; stroke: #000000; stroke-width: 1.5; stroke-linejoin: miter"/>
   </g>
   <g id="patch_28">
    <path d="M 781.03917 127.277848 
L 823.63386 127.277848 
L 823.63386 97.147749 
L 781.03917 97.147749 
z
" clip-path="url(#p90c2b4f80b)" style="fill: #ffffff; stroke: #000000; stroke-width: 1.5; stroke-linejoin: miter"/>
   </g>
   <g id="patch_29">
    <path d="M 787.271465 498.109843 
L 817.401565 498.109843 
L 817.401565 467.979744 
L 787.271465 467.979744 
z
" clip-path="url(#p90c2b4f80b)" style="fill: #ffffff; stroke: #000000; stroke-width: 1.5; stroke-linejoin: miter"/>
   </g>
   <g id="patch_30">
    <path d="M 833.625465 451.755844 
L 863.755564 451.755844 
L 863.755564 421.625744 
L 833.625465 421.625744 
z
" clip-path="url(#p90c2b4f80b)" style="fill: #ffffff; stroke: #000000; stroke-width: 1.5; stroke-linejoin: miter"/>
   </g>
   <g id="patch_31">
    <path d="M 848.690514 209.440312 
C 849.889104 209.440312 851.038763 208.964108 851.886294 208.116577 
C 852.733825 207.269046 853.210029 206.119387 853.210029 204.920797 
C 853.210029 203.722208 852.733825 202.572548 851.886294 201.725018 
C 851.038763 200.877487 849.889104 200.401282 848.690514 200.401282 
C 847.491925 200.401282 846.342265 200.877487 845.494735 201.725018 
C 844.647204 202.572548 844.170999 203.722208 844.170999 204.920797 
C 844.170999 206.119387 844.647204 207.269046 845.494735 208.116577 
C 846.342265 208.964108 847.491925 209.440312 848.690514 209.440312 
z
" clip-path="url(#p90c2b4f80b)" style="stroke: #000000; stroke-width: 1.5; stroke-linejoin: miter"/>
   </g>
   <g id="patch_32">
    <path d="M 848.690514 122.758333 
C 851.487223 122.758333 854.169762 121.647189 856.147334 119.669618 
C 858.124905 117.692046 859.236049 115.009507 859.236049 112.212799 
C 859.236049 109.41609 858.124905 106.733551 856.147334 104.755979 
C 854.169762 102.778408 851.487223 101.667264 848.690514 101.667264 
C 845.893806 101.667264 843.211267 102.778408 841.233695 104.755979 
C 839.256124 106.733551 838.144979 109.41609 838.144979 112.212799 
C 838.144979 115.009507 839.256124 117.692046 841.233695 119.669618 
C 843.211267 121.647189 845.893806 122.758333 848.690514 122.758333 
z
" clip-path="url(#p90c2b4f80b)" style="stroke: #000000; stroke-width: 2; stroke-linejoin: miter"/>
   </g>
   <g id="patch_33">
    <path d="M 833.625465 498.109843 
L 863.755564 498.109843 
L 863.755564 467.979744 
L 833.625465 467.979744 
z
" clip-path="url(#p90c2b4f80b)" style="fill: #ffffff; stroke: #000000; stroke-width: 1.5; stroke-linejoin: miter"/>
   </g>
   <g id="patch_34">
    <path d="M 879.979464 219.985847 
L 910.109564 219.985847 
L 910.109564 189.855747 
L 879.979464 189.855747 
z
" clip-path="url(#p90c2b4f80b)" style="fill: #ffffff; stroke: #000000; stroke-width: 1.5; stroke-linejoin: miter"/>
   </g>
   <g id="patch_35">
    <path d="M 941.398513 487.564309 
C 942.597102 487.564309 943.746762 487.088104 944.594293 486.240573 
C 945.441823 485.393043 945.918028 484.243383 945.918028 483.044794 
C 945.918028 481.846204 945.441823 480.696545 944.594293 479.849014 
C 943.746762 479.001483 942.597102 478.525279 941.398513 478.525279 
C 940.199924 478.525279 939.050264 479.001483 938.202733 479.849014 
C 937.355203 480.696545 936.878998 481.846204 936.878998 483.044794 
C 936.878998 484.243383 937.355203 485.393043 938.202733 486.240573 
C 939.050264 487.088104 940.199924 487.564309 941.398513 487.564309 
z
" clip-path="url(#p90c2b4f80b)" style="stroke: #000000; stroke-width: 1.5; stroke-linejoin: miter"/>
   </g>
   <g id="patch_36">
    <path d="M 941.398513 122.758333 
C 944.195222 122.758333 946.877761 121.647189 948.855332 119.669618 
C 950.832904 117.692046 951.944048 115.009507 951.944048 112.212799 
C 951.944048 109.41609 950.832904 106.733551 948.855332 104.755979 
C 946.877761 102.778408 944.195222 101.667264 941.398513 101.667264 
C 938.601805 101.667264 935.919265 102.778408 933.941694 104.755979 
C 931.964122 106.733551 930.852978 109.41609 930.852978 112.212799 
C 930.852978 115.009507 931.964122 117.692046 933.941694 119.669618 
C 935.919265 121.647189 938.601805 122.758333 941.398513 122.758333 
z
" clip-path="url(#p90c2b4f80b)" style="stroke: #000000; stroke-width: 2; stroke-linejoin: miter"/>
   </g>
   <g id="patch_37">
    <path d="M 987.752512 441.210309 
C 988.951102 441.210309 990.100761 440.734105 990.948292 439.886574 
C 991.795823 439.039043 992.272027 437.889384 992.272027 436.690794 
C 992.272027 435.492205 991.795823 434.342545 990.948292 433.495015 
C 990.100761 432.647484 988.951102 432.171279 987.752512 432.171279 
C 986.553923 432.171279 985.404263 432.647484 984.556733 433.495015 
C 983.709202 434.342545 983.232998 435.492205 983.232998 436.690794 
C 983.232998 437.889384 983.709202 439.039043 984.556733 439.886574 
C 985.404263 440.734105 986.553923 441.210309 987.752512 441.210309 
z
" clip-path="url(#p90c2b4f80b)" style="stroke: #000000; stroke-width: 1.5; stroke-linejoin: miter"/>
   </g>
   <g id="patch_38">
    <path d="M 987.752512 122.758333 
C 990.549221 122.758333 993.23176 121.647189 995.209332 119.669618 
C 997.186903 117.692046 998.298047 115.009507 998.298047 112.212799 
C 998.298047 109.41609 997.186903 106.733551 995.209332 104.755979 
C 993.23176 102.778408 990.549221 101.667264 987.752512 101.667264 
C 984.955804 101.667264 982.273265 102.778408 980.295693 104.755979 
C 978.318122 106.733551 977.206978 109.41609 977.206978 112.212799 
C 977.206978 115.009507 978.318122 117.692046 980.295693 119.669618 
C 982.273265 121.647189 984.955804 122.758333 987.752512 122.758333 
z
" clip-path="url(#p90c2b4f80b)" style="stroke: #000000; stroke-width: 2; stroke-linejoin: miter"/>
   </g>
   <g id="patch_39">
    <path d="M 1019.041462 219.985847 
L 1049.171562 219.985847 
L 1049.171562 189.855747 
L 1019.041462 189.855747 
z
" clip-path="url(#p90c2b4f80b)" style="fill: #ffffff; stroke: #000000; stroke-width: 1.5; stroke-linejoin: miter"/>
   </g>
   <g id="patch_40">
    <path d="M 1065.395461 219.985847 
L 1095.525561 219.985847 
L 1095.525561 189.855747 
L 1065.395461 189.855747 
z
" clip-path="url(#p90c2b4f80b)" style="fill: #ffffff; stroke: #000000; stroke-width: 1.5; stroke-linejoin: miter"/>
   </g>
   <g id="patch_41">
    <path d="M 1126.814511 209.440312 
C 1128.0131 209.440312 1129.16276 208.964108 1130.01029 208.116577 
C 1130.857821 207.269046 1131.334026 206.119387 1131.334026 204.920797 
C 1131.334026 203.722208 1130.857821 202.572548 1130.01029 201.725018 
C 1129.16276 200.877487 1128.0131 200.401282 1126.814511 200.401282 
C 1125.615921 200.401282 1124.466262 200.877487 1123.618731 201.725018 
C 1122.7712 202.572548 1122.294996 203.722208 1122.294996 204.920797 
C 1122.294996 206.119387 1122.7712 207.269046 1123.618731 208.116577 
C 1124.466262 208.964108 1125.615921 209.440312 1126.814511 209.440312 
z
" clip-path="url(#p90c2b4f80b)" style="stroke: #000000; stroke-width: 1.5; stroke-linejoin: miter"/>
   </g>
   <g id="patch_42">
    <path d="M 1126.814511 122.758333 
C 1129.611219 122.758333 1132.293758 121.647189 1134.27133 119.669618 
C 1136.248901 117.692046 1137.360045 115.009507 1137.360045 112.212799 
C 1137.360045 109.41609 1136.248901 106.733551 1134.27133 104.755979 
C 1132.293758 102.778408 1129.611219 101.667264 1126.814511 101.667264 
C 1124.017802 101.667264 1121.335263 102.778408 1119.357691 104.755979 
C 1117.38012 106.733551 1116.268976 109.41609 1116.268976 112.212799 
C 1116.268976 115.009507 1117.38012 117.692046 1119.357691 119.669618 
C 1121.335263 121.647189 1124.017802 122.758333 1126.814511 122.758333 
z
" clip-path="url(#p90c2b4f80b)" style="stroke: #000000; stroke-width: 2; stroke-linejoin: miter"/>
   </g>
   <g id="patch_43">
    <path d="M 1173.16851 163.086313 
C 1174.367099 163.086313 1175.516759 162.610108 1176.36429 161.762578 
C 1177.21182 160.915047 1177.688025 159.765387 1177.688025 158.566798 
C 1177.688025 157.368209 1177.21182 156.218549 1176.36429 155.371018 
C 1175.516759 154.523488 1174.367099 154.047283 1173.16851 154.047283 
C 1171.969921 154.047283 1170.820261 154.523488 1169.97273 155.371018 
C 1169.1252 156.218549 1168.648995 157.368209 1168.648995 158.566798 
C 1168.648995 159.765387 1169.1252 160.915047 1169.97273 161.762578 
C 1170.820261 162.610108 1171.969921 163.086313 1173.16851 163.086313 
z
" clip-path="url(#p90c2b4f80b)" style="stroke: #000000; stroke-width: 1.5; stroke-linejoin: miter"/>
   </g>
   <g id="patch_44">
    <path d="M 1173.16851 122.758333 
C 1175.965219 122.758333 1178.647758 121.647189 1180.625329 119.669618 
C 1182.602901 117.692046 1183.714045 115.009507 1183.714045 112.212799 
C 1183.714045 109.41609 1182.602901 106.733551 1180.625329 104.755979 
C 1178.647758 102.778408 1175.965219 101.667264 1173.16851 101.667264 
C 1170.371801 101.667264 1167.689262 102.778408 1165.711691 104.755979 
C 1163.734119 106.733551 1162.622975 109.41609 1162.622975 112.212799 
C 1162.622975 115.009507 1163.734119 117.692046 1165.711691 119.669618 
C 1167.689262 121.647189 1170.371801 122.758333 1173.16851 122.758333 
z
" clip-path="url(#p90c2b4f80b)" style="stroke: #000000; stroke-width: 2; stroke-linejoin: miter"/>
   </g>
   <g id="patch_45">
    <path d="M 1198.225164 127.277848 
L 1240.819854 127.277848 
L 1240.819854 97.147749 
L 1198.225164 97.147749 
z
" clip-path="url(#p90c2b4f80b)" style="fill: #ffffff; stroke: #000000; stroke-width: 1.5; stroke-linejoin: miter"/>
   </g>
   <g id="patch_46">
    <path d="M 1265.876509 163.086313 
C 1267.075098 163.086313 1268.224758 162.610108 1269.072288 161.762578 
C 1269.919819 160.915047 1270.396024 159.765387 1270.396024 158.566798 
C 1270.396024 157.368209 1269.919819 156.218549 1269.072288 155.371018 
C 1268.224758 154.523488 1267.075098 154.047283 1265.876509 154.047283 
C 1264.677919 154.047283 1263.52826 154.523488 1262.680729 155.371018 
C 1261.833198 156.218549 1261.356994 157.368209 1261.356994 158.566798 
C 1261.356994 159.765387 1261.833198 160.915047 1262.680729 161.762578 
C 1263.52826 162.610108 1264.677919 163.086313 1265.876509 163.086313 
z
" clip-path="url(#p90c2b4f80b)" style="stroke: #000000; stroke-width: 1.5; stroke-linejoin: miter"/>
   </g>
   <g id="patch_47">
    <path d="M 1265.876509 122.758333 
C 1268.673217 122.758333 1271.355756 121.647189 1273.333328 119.669618 
C 1275.3109 117.692046 1276.422044 115.009507 1276.422044 112.212799 
C 1276.422044 109.41609 1275.3109 106.733551 1273.333328 104.755979 
C 1271.355756 102.778408 1268.673217 101.667264 1265.876509 101.667264 
C 1263.0798 101.667264 1260.397261 102.778408 1258.41969 104.755979 
C 1256.442118 106.733551 1255.330974 109.41609 1255.330974 112.212799 
C 1255.330974 115.009507 1256.442118 117.692046 1258.41969 119.669618 
C 1260.397261 121.647189 1263.0798 122.758333 1265.876509 122.758333 
z
" clip-path="url(#p90c2b4f80b)" style="stroke: #000000; stroke-width: 2; stroke-linejoin: miter"/>
   </g>
   <g id="patch_48">
    <path d="M 1312.230508 209.440312 
C 1313.429098 209.440312 1314.578757 208.964108 1315.426288 208.116577 
C 1316.273818 207.269046 1316.750023 206.119387 1316.750023 204.920797 
C 1316.750023 203.722208 1316.273818 202.572548 1315.426288 201.725018 
C 1314.578757 200.877487 1313.429098 200.401282 1312.230508 200.401282 
C 1311.031919 200.401282 1309.882259 200.877487 1309.034729 201.725018 
C 1308.187198 202.572548 1307.710993 203.722208 1307.710993 204.920797 
C 1307.710993 206.119387 1308.187198 207.269046 1309.034729 208.116577 
C 1309.882259 208.964108 1311.031919 209.440312 1312.230508 209.440312 
z
" clip-path="url(#p90c2b4f80b)" style="stroke: #000000; stroke-width: 1.5; stroke-linejoin: miter"/>
   </g>
   <g id="patch_49">
    <path d="M 1312.230508 122.758333 
C 1315.027217 122.758333 1317.709756 121.647189 1319.687327 119.669618 
C 1321.664899 117.692046 1322.776043 115.009507 1322.776043 112.212799 
C 1322.776043 109.41609 1321.664899 106.733551 1319.687327 104.755979 
C 1317.709756 102.778408 1315.027217 101.667264 1312.230508 101.667264 
C 1309.4338 101.667264 1306.751261 102.778408 1304.773689 104.755979 
C 1302.796117 106.733551 1301.684973 109.41609 1301.684973 112.212799 
C 1301.684973 115.009507 1302.796117 117.692046 1304.773689 119.669618 
C 1306.751261 121.647189 1309.4338 122.758333 1312.230508 122.758333 
z
" clip-path="url(#p90c2b4f80b)" style="stroke: #000000; stroke-width: 2; stroke-linejoin: miter"/>
   </g>
   <g id="patch_50">
    <path d="M 1358.584508 163.086313 
C 1359.783097 163.086313 1360.932757 162.610108 1361.780287 161.762578 
C 1362.627818 160.915047 1363.104022 159.765387 1363.104022 158.566798 
C 1363.104022 157.368209 1362.627818 156.218549 1361.780287 155.371018 
C 1360.932757 154.523488 1359.783097 154.047283 1358.584508 154.047283 
C 1357.385918 154.047283 1356.236259 154.523488 1355.388728 155.371018 
C 1354.541197 156.218549 1354.064993 157.368209 1354.064993 158.566798 
C 1354.064993 159.765387 1354.541197 160.915047 1355.388728 161.762578 
C 1356.236259 162.610108 1357.385918 163.086313 1358.584508 163.086313 
z
" clip-path="url(#p90c2b4f80b)" style="stroke: #000000; stroke-width: 1.5; stroke-linejoin: miter"/>
   </g>
   <g id="patch_51">
    <path d="M 1358.584508 308.174331 
C 1361.381216 308.174331 1364.063755 307.063187 1366.041327 305.085615 
C 1368.018898 303.108044 1369.130042 300.425505 1369.130042 297.628796 
C 1369.130042 294.832088 1368.018898 292.149548 1366.041327 290.171977 
C 1364.063755 288.194405 1361.381216 287.083261 1358.584508 287.083261 
C 1355.787799 287.083261 1353.10526 288.194405 1351.127688 290.171977 
C 1349.150117 292.149548 1348.038973 294.832088 1348.038973 297.628796 
C 1348.038973 300.425505 1349.150117 303.108044 1351.127688 305.085615 
C 1353.10526 307.063187 1355.787799 308.174331 1358.584508 308.174331 
z
" clip-path="url(#p90c2b4f80b)" style="stroke: #000000; stroke-width: 2; stroke-linejoin: miter"/>
   </g>
   <g id="patch_52">
    <path d="M 1389.873457 219.985847 
L 1420.003557 219.985847 
L 1420.003557 189.855747 
L 1389.873457 189.855747 
z
" clip-path="url(#p90c2b4f80b)" style="fill: #ffffff; stroke: #000000; stroke-width: 1.5; stroke-linejoin: miter"/>
   </g>
   <g id="patch_53">
    <path d="M 1389.873457 312.693846 
L 1420.003557 312.693846 
L 1420.003557 282.563746 
L 1389.873457 282.563746 
z
" clip-path="url(#p90c2b4f80b)" style="fill: #ffffff; stroke: #000000; stroke-width: 1.5; stroke-linejoin: miter"/>
   </g>
   <g id="patch_54">
    <path d="M 1451.292506 441.210309 
C 1452.491096 441.210309 1453.640755 440.734105 1454.488286 439.886574 
C 1455.335817 439.039043 1455.812021 437.889384 1455.812021 436.690794 
C 1455.812021 435.492205 1455.335817 434.342545 1454.488286 433.495015 
C 1453.640755 432.647484 1452.491096 432.171279 1451.292506 432.171279 
C 1450.093917 432.171279 1448.944257 432.647484 1448.096727 433.495015 
C 1447.249196 434.342545 1446.772991 435.492205 1446.772991 436.690794 
C 1446.772991 437.889384 1447.249196 439.039043 1448.096727 439.886574 
C 1448.944257 440.734105 1450.093917 441.210309 1451.292506 441.210309 
z
" clip-path="url(#p90c2b4f80b)" style="stroke: #000000; stroke-width: 1.5; stroke-linejoin: miter"/>
   </g>
   <g id="patch_55">
    <path d="M 1451.292506 122.758333 
C 1454.089215 122.758333 1456.771754 121.647189 1458.749326 119.669618 
C 1460.726897 117.692046 1461.838041 115.009507 1461.838041 112.212799 
C 1461.838041 109.41609 1460.726897 106.733551 1458.749326 104.755979 
C 1456.771754 102.778408 1454.089215 101.667264 1451.292506 101.667264 
C 1448.495798 101.667264 1445.813259 102.778408 1443.835687 104.755979 
C 1441.858116 106.733551 1440.746971 109.41609 1440.746971 112.212799 
C 1440.746971 115.009507 1441.858116 117.692046 1443.835687 119.669618 
C 1445.813259 121.647189 1448.495798 122.758333 1451.292506 122.758333 
z
" clip-path="url(#p90c2b4f80b)" style="stroke: #000000; stroke-width: 2; stroke-linejoin: miter"/>
   </g>
   <g id="patch_56">
    <path d="M 1482.581456 219.985847 
L 1512.711556 219.985847 
L 1512.711556 189.855747 
L 1482.581456 189.855747 
z
" clip-path="url(#p90c2b4f80b)" style="fill: #ffffff; stroke: #000000; stroke-width: 1.5; stroke-linejoin: miter"/>
   </g>
   <g id="patch_57">
    <path d="M 1482.581456 451.755844 
L 1512.711556 451.755844 
L 1512.711556 421.625744 
L 1482.581456 421.625744 
z
" clip-path="url(#p90c2b4f80b)" style="fill: #ffffff; stroke: #000000; stroke-width: 1.5; stroke-linejoin: miter"/>
   </g>
   <g id="patch_58">
    <path d="M 1544.000505 487.564309 
C 1545.199094 487.564309 1546.348754 487.088104 1547.196285 486.240573 
C 1548.043815 485.393043 1548.52002 484.243383 1548.52002 483.044794 
C 1548.52002 481.846204 1548.043815 480.696545 1547.196285 479.849014 
C 1546.348754 479.001483 1545.199094 478.525279 1544.000505 478.525279 
C 1542.801916 478.525279 1541.652256 479.001483 1540.804725 479.849014 
C 1539.957195 480.696545 1539.48099 481.846204 1539.48099 483.044794 
C 1539.48099 484.243383 1539.957195 485.393043 1540.804725 486.240573 
C 1541.652256 487.088104 1542.801916 487.564309 1544.000505 487.564309 
z
" clip-path="url(#p90c2b4f80b)" style="stroke: #000000; stroke-width: 1.5; stroke-linejoin: miter"/>
   </g>
   <g id="patch_59">
    <path d="M 1544.000505 122.758333 
C 1546.797214 122.758333 1549.479753 121.647189 1551.457324 119.669618 
C 1553.434896 117.692046 1554.54604 115.009507 1554.54604 112.212799 
C 1554.54604 109.41609 1553.434896 106.733551 1551.457324 104.755979 
C 1549.479753 102.778408 1546.797214 101.667264 1544.000505 101.667264 
C 1541.203797 101.667264 1538.521257 102.778408 1536.543686 104.755979 
C 1534.566114 106.733551 1533.45497 109.41609 1533.45497 112.212799 
C 1533.45497 115.009507 1534.566114 117.692046 1536.543686 119.669618 
C 1538.521257 121.647189 1541.203797 122.758333 1544.000505 122.758333 
z
" clip-path="url(#p90c2b4f80b)" style="stroke: #000000; stroke-width: 2; stroke-linejoin: miter"/>
   </g>
   <g id="patch_60">
    <path d="M 1590.354504 163.086313 
C 1591.553094 163.086313 1592.702753 162.610108 1593.550284 161.762578 
C 1594.397815 160.915047 1594.874019 159.765387 1594.874019 158.566798 
C 1594.874019 157.368209 1594.397815 156.218549 1593.550284 155.371018 
C 1592.702753 154.523488 1591.553094 154.047283 1590.354504 154.047283 
C 1589.155915 154.047283 1588.006255 154.523488 1587.158725 155.371018 
C 1586.311194 156.218549 1585.83499 157.368209 1585.83499 158.566798 
C 1585.83499 159.765387 1586.311194 160.915047 1587.158725 161.762578 
C 1588.006255 162.610108 1589.155915 163.086313 1590.354504 163.086313 
z
" clip-path="url(#p90c2b4f80b)" style="stroke: #000000; stroke-width: 1.5; stroke-linejoin: miter"/>
   </g>
   <g id="patch_61">
    <path d="M 1590.354504 308.174331 
C 1593.151213 308.174331 1595.833752 307.063187 1597.811324 305.085615 
C 1599.788895 303.108044 1600.900039 300.425505 1600.900039 297.628796 
C 1600.900039 294.832088 1599.788895 292.149548 1597.811324 290.171977 
C 1595.833752 288.194405 1593.151213 287.083261 1590.354504 287.083261 
C 1587.557796 287.083261 1584.875257 288.194405 1582.897685 290.171977 
C 1580.920114 292.149548 1579.80897 294.832088 1579.80897 297.628796 
C 1579.80897 300.425505 1580.920114 303.108044 1582.897685 305.085615 
C 1584.875257 307.063187 1587.557796 308.174331 1590.354504 308.174331 
z
" clip-path="url(#p90c2b4f80b)" style="stroke: #000000; stroke-width: 2; stroke-linejoin: miter"/>
   </g>
   <g id="patch_62">
    <path d="M 1575.289455 451.755844 
L 1605.419554 451.755844 
L 1605.419554 421.625744 
L 1575.289455 421.625744 
z
" clip-path="url(#p90c2b4f80b)" style="fill: #ffffff; stroke: #000000; stroke-width: 1.5; stroke-linejoin: miter"/>
   </g>
   <g id="patch_63">
    <path d="M 1575.289455 498.109843 
L 1605.419554 498.109843 
L 1605.419554 467.979744 
L 1575.289455 467.979744 
z
" clip-path="url(#p90c2b4f80b)" style="fill: #ffffff; stroke: #000000; stroke-width: 1.5; stroke-linejoin: miter"/>
   </g>
   <g id="patch_64">
    <path d="M 1636.708504 209.440312 
C 1637.907093 209.440312 1639.056753 208.964108 1639.904284 208.116577 
C 1640.751814 207.269046 1641.228019 206.119387 1641.228019 204.920797 
C 1641.228019 203.722208 1640.751814 202.572548 1639.904284 201.725018 
C 1639.056753 200.877487 1637.907093 200.401282 1636.708504 200.401282 
C 1635.509914 200.401282 1634.360255 200.877487 1633.512724 201.725018 
C 1632.665194 202.572548 1632.188989 203.722208 1632.188989 204.920797 
C 1632.188989 206.119387 1632.665194 207.269046 1633.512724 208.116577 
C 1634.360255 208.964108 1635.509914 209.440312 1636.708504 209.440312 
z
" clip-path="url(#p90c2b4f80b)" style="stroke: #000000; stroke-width: 1.5; stroke-linejoin: miter"/>
   </g>
   <g id="patch_65">
    <path d="M 1636.708504 400.88233 
C 1639.505212 400.88233 1642.187751 399.771186 1644.165323 397.793614 
C 1646.142895 395.816042 1647.254039 393.133503 1647.254039 390.336795 
C 1647.254039 387.540086 1646.142895 384.857547 1644.165323 382.879976 
C 1642.187751 380.902404 1639.505212 379.79126 1636.708504 379.79126 
C 1633.911795 379.79126 1631.229256 380.902404 1629.251685 382.879976 
C 1627.274113 384.857547 1626.162969 387.540086 1626.162969 390.336795 
C 1626.162969 393.133503 1627.274113 395.816042 1629.251685 397.793614 
C 1631.229256 399.771186 1633.911795 400.88233 1636.708504 400.88233 
z
" clip-path="url(#p90c2b4f80b)" style="stroke: #000000; stroke-width: 2; stroke-linejoin: miter"/>
   </g>
   <g id="patch_66">
    <path d="M 1636.708504 163.086313 
C 1637.907093 163.086313 1639.056753 162.610108 1639.904284 161.762578 
C 1640.751814 160.915047 1641.228019 159.765387 1641.228019 158.566798 
C 1641.228019 157.368209 1640.751814 156.218549 1639.904284 155.371018 
C 1639.056753 154.523488 1637.907093 154.047283 1636.708504 154.047283 
C 1635.509914 154.047283 1634.360255 154.523488 1633.512724 155.371018 
C 1632.665194 156.218549 1632.188989 157.368209 1632.188989 158.566798 
C 1632.188989 159.765387 1632.665194 160.915047 1633.512724 161.762578 
C 1634.360255 162.610108 1635.509914 163.086313 1636.708504 163.086313 
z
" clip-path="url(#p90c2b4f80b)" style="stroke: #000000; stroke-width: 1.5; stroke-linejoin: miter"/>
   </g>
   <g id="patch_67">
    <path d="M 1636.708504 122.758333 
C 1639.505212 122.758333 1642.187751 121.647189 1644.165323 119.669618 
C 1646.142895 117.692046 1647.254039 115.009507 1647.254039 112.212799 
C 1647.254039 109.41609 1646.142895 106.733551 1644.165323 104.755979 
C 1642.187751 102.778408 1639.505212 101.667264 1636.708504 101.667264 
C 1633.911795 101.667264 1631.229256 102.778408 1629.251685 104.755979 
C 1627.274113 106.733551 1626.162969 109.41609 1626.162969 112.212799 
C 1626.162969 115.009507 1627.274113 117.692046 1629.251685 119.669618 
C 1631.229256 121.647189 1633.911795 122.758333 1636.708504 122.758333 
z
" clip-path="url(#p90c2b4f80b)" style="stroke: #000000; stroke-width: 2; stroke-linejoin: miter"/>
   </g>
   <g id="patch_68">
    <path d="M 1621.643454 498.109843 
L 1651.773554 498.109843 
L 1651.773554 467.979744 
L 1621.643454 467.979744 
z
" clip-path="url(#p90c2b4f80b)" style="fill: #ffffff; stroke: #000000; stroke-width: 1.5; stroke-linejoin: miter"/>
   </g>
   <g id="patch_69">
    <path d="M 1667.997453 405.401845 
L 1698.127553 405.401845 
L 1698.127553 375.271745 
L 1667.997453 375.271745 
z
" clip-path="url(#p90c2b4f80b)" style="fill: #ffffff; stroke: #000000; stroke-width: 1.5; stroke-linejoin: miter"/>
   </g>
   <g id="patch_70">
    <path d="M 1729.416503 209.440312 
C 1730.615092 209.440312 1731.764752 208.964108 1732.612282 208.116577 
C 1733.459813 207.269046 1733.936018 206.119387 1733.936018 204.920797 
C 1733.936018 203.722208 1733.459813 202.572548 1732.612282 201.725018 
C 1731.764752 200.877487 1730.615092 200.401282 1729.416503 200.401282 
C 1728.217913 200.401282 1727.068254 200.877487 1726.220723 201.725018 
C 1725.373192 202.572548 1724.896988 203.722208 1724.896988 204.920797 
C 1724.896988 206.119387 1725.373192 207.269046 1726.220723 208.116577 
C 1727.068254 208.964108 1728.217913 209.440312 1729.416503 209.440312 
z
" clip-path="url(#p90c2b4f80b)" style="stroke: #000000; stroke-width: 1.5; stroke-linejoin: miter"/>
   </g>
   <g id="patch_71">
    <path d="M 1729.416503 400.88233 
C 1732.213211 400.88233 1734.89575 399.771186 1736.873322 397.793614 
C 1738.850893 395.816042 1739.962037 393.133503 1739.962037 390.336795 
C 1739.962037 387.540086 1738.850893 384.857547 1736.873322 382.879976 
C 1734.89575 380.902404 1732.213211 379.79126 1729.416503 379.79126 
C 1726.619794 379.79126 1723.937255 380.902404 1721.959683 382.879976 
C 1719.982112 384.857547 1718.870968 387.540086 1718.870968 390.336795 
C 1718.870968 393.133503 1719.982112 395.816042 1721.959683 397.793614 
C 1723.937255 399.771186 1726.619794 400.88233 1729.416503 400.88233 
z
" clip-path="url(#p90c2b4f80b)" style="stroke: #000000; stroke-width: 2; stroke-linejoin: miter"/>
   </g>
   <g id="patch_72">
    <path d="M 1775.770502 209.440312 
C 1776.969091 209.440312 1778.118751 208.964108 1778.966282 208.116577 
C 1779.813812 207.269046 1780.290017 206.119387 1780.290017 204.920797 
C 1780.290017 203.722208 1779.813812 202.572548 1778.966282 201.725018 
C 1778.118751 200.877487 1776.969091 200.401282 1775.770502 200.401282 
C 1774.571913 200.401282 1773.422253 200.877487 1772.574722 201.725018 
C 1771.727192 202.572548 1771.250987 203.722208 1771.250987 204.920797 
C 1771.250987 206.119387 1771.727192 207.269046 1772.574722 208.116577 
C 1773.422253 208.964108 1774.571913 209.440312 1775.770502 209.440312 
z
" clip-path="url(#p90c2b4f80b)" style="stroke: #000000; stroke-width: 1.5; stroke-linejoin: miter"/>
   </g>
   <g id="patch_73">
    <path d="M 1775.770502 122.758333 
C 1778.567211 122.758333 1781.24975 121.647189 1783.227321 119.669618 
C 1785.204893 117.692046 1786.316037 115.009507 1786.316037 112.212799 
C 1786.316037 109.41609 1785.204893 106.733551 1783.227321 104.755979 
C 1781.24975 102.778408 1778.567211 101.667264 1775.770502 101.667264 
C 1772.973793 101.667264 1770.291254 102.778408 1768.313683 104.755979 
C 1766.336111 106.733551 1765.224967 109.41609 1765.224967 112.212799 
C 1765.224967 115.009507 1766.336111 117.692046 1768.313683 119.669618 
C 1770.291254 121.647189 1772.973793 122.758333 1775.770502 122.758333 
z
" clip-path="url(#p90c2b4f80b)" style="stroke: #000000; stroke-width: 2; stroke-linejoin: miter"/>
   </g>
   <g id="patch_74">
    <path d="M 1822.124501 255.794312 
C 1823.323091 255.794312 1824.47275 255.318107 1825.320281 254.470576 
C 1826.167812 253.623046 1826.644016 252.473386 1826.644016 251.274797 
C 1826.644016 250.076207 1826.167812 248.926548 1825.320281 248.079017 
C 1824.47275 247.231486 1823.323091 246.755282 1822.124501 246.755282 
C 1820.925912 246.755282 1819.776252 247.231486 1818.928722 248.079017 
C 1818.081191 248.926548 1817.604986 250.076207 1817.604986 251.274797 
C 1817.604986 252.473386 1818.081191 253.623046 1818.928722 254.470576 
C 1819.776252 255.318107 1820.925912 255.794312 1822.124501 255.794312 
z
" clip-path="url(#p90c2b4f80b)" style="stroke: #000000; stroke-width: 1.5; stroke-linejoin: miter"/>
   </g>
   <g id="patch_75">
    <path d="M 1822.124501 122.758333 
C 1824.92121 122.758333 1827.603749 121.647189 1829.581321 119.669618 
C 1831.558892 117.692046 1832.670036 115.009507 1832.670036 112.212799 
C 1832.670036 109.41609 1831.558892 106.733551 1829.581321 104.755979 
C 1827.603749 102.778408 1824.92121 101.667264 1822.124501 101.667264 
C 1819.327793 101.667264 1816.645254 102.778408 1814.667682 104.755979 
C 1812.690111 106.733551 1811.578967 109.41609 1811.578967 112.212799 
C 1811.578967 115.009507 1812.690111 117.692046 1814.667682 119.669618 
C 1816.645254 121.647189 1819.327793 122.758333 1822.124501 122.758333 
z
" clip-path="url(#p90c2b4f80b)" style="stroke: #000000; stroke-width: 2; stroke-linejoin: miter"/>
   </g>
   <g id="patch_76">
    <path d="M 1868.478501 487.564309 
C 1869.67709 487.564309 1870.82675 487.088104 1871.67428 486.240573 
C 1872.521811 485.393043 1872.998016 484.243383 1872.998016 483.044794 
C 1872.998016 481.846204 1872.521811 480.696545 1871.67428 479.849014 
C 1870.82675 479.001483 1869.67709 478.525279 1868.478501 478.525279 
C 1867.279911 478.525279 1866.130252 479.001483 1865.282721 479.849014 
C 1864.43519 480.696545 1863.958986 481.846204 1863.958986 483.044794 
C 1863.958986 484.243383 1864.43519 485.393043 1865.282721 486.240573 
C 1866.130252 487.088104 1867.279911 487.564309 1868.478501 487.564309 
z
" clip-path="url(#p90c2b4f80b)" style="stroke: #000000; stroke-width: 1.5; stroke-linejoin: miter"/>
   </g>
   <g id="patch_77">
    <path d="M 1868.478501 122.758333 
C 1871.275209 122.758333 1873.957748 121.647189 1875.93532 119.669618 
C 1877.912892 117.692046 1879.024036 115.009507 1879.024036 112.212799 
C 1879.024036 109.41609 1877.912892 106.733551 1875.93532 104.755979 
C 1873.957748 102.778408 1871.275209 101.667264 1868.478501 101.667264 
C 1865.681792 101.667264 1862.999253 102.778408 1861.021682 104.755979 
C 1859.04411 106.733551 1857.932966 109.41609 1857.932966 112.212799 
C 1857.932966 115.009507 1859.04411 117.692046 1861.021682 119.669618 
C 1862.999253 121.647189 1865.681792 122.758333 1868.478501 122.758333 
z
" clip-path="url(#p90c2b4f80b)" style="stroke: #000000; stroke-width: 2; stroke-linejoin: miter"/>
   </g>
   <g id="patch_78">
    <path d="M 1898.944667 127.277848 
L 1930.720333 127.277848 
L 1930.720333 97.147749 
L 1898.944667 97.147749 
z
" clip-path="url(#p90c2b4f80b)" style="fill: #ffffff; stroke: #000000; stroke-width: 1.5; stroke-linejoin: miter"/>
   </g>
   <g id="patch_79">
    <path d="M 1961.1865 487.564309 
C 1962.385089 487.564309 1963.534749 487.088104 1964.382279 486.240573 
C 1965.22981 485.393043 1965.706014 484.243383 1965.706014 483.044794 
C 1965.706014 481.846204 1965.22981 480.696545 1964.382279 479.849014 
C 1963.534749 479.001483 1962.385089 478.525279 1961.1865 478.525279 
C 1959.98791 478.525279 1958.838251 479.001483 1957.99072 479.849014 
C 1957.143189 480.696545 1956.666985 481.846204 1956.666985 483.044794 
C 1956.666985 484.243383 1957.143189 485.393043 1957.99072 486.240573 
C 1958.838251 487.088104 1959.98791 487.564309 1961.1865 487.564309 
z
" clip-path="url(#p90c2b4f80b)" style="stroke: #000000; stroke-width: 1.5; stroke-linejoin: miter"/>
   </g>
   <g id="patch_80">
    <path d="M 1961.1865 122.758333 
C 1963.983208 122.758333 1966.665747 121.647189 1968.643319 119.669618 
C 1970.62089 117.692046 1971.732034 115.009507 1971.732034 112.212799 
C 1971.732034 109.41609 1970.62089 106.733551 1968.643319 104.755979 
C 1966.665747 102.778408 1963.983208 101.667264 1961.1865 101.667264 
C 1958.389791 101.667264 1955.707252 102.778408 1953.72968 104.755979 
C 1951.752109 106.733551 1950.640965 109.41609 1950.640965 112.212799 
C 1950.640965 115.009507 1951.752109 117.692046 1953.72968 119.669618 
C 1955.707252 121.647189 1958.389791 122.758333 1961.1865 122.758333 
z
" clip-path="url(#p90c2b4f80b)" style="stroke: #000000; stroke-width: 2; stroke-linejoin: miter"/>
   </g>
   <g id="patch_81">
    <path d="M 2007.540499 255.794312 
C 2008.739088 255.794312 2009.888748 255.318107 2010.736279 254.470576 
C 2011.583809 253.623046 2012.060014 252.473386 2012.060014 251.274797 
C 2012.060014 250.076207 2011.583809 248.926548 2010.736279 248.079017 
C 2009.888748 247.231486 2008.739088 246.755282 2007.540499 246.755282 
C 2006.34191 246.755282 2005.19225 247.231486 2004.344719 248.079017 
C 2003.497189 248.926548 2003.020984 250.076207 2003.020984 251.274797 
C 2003.020984 252.473386 2003.497189 253.623046 2004.344719 254.470576 
C 2005.19225 255.318107 2006.34191 255.794312 2007.540499 255.794312 
z
" clip-path="url(#p90c2b4f80b)" style="stroke: #000000; stroke-width: 1.5; stroke-linejoin: miter"/>
   </g>
   <g id="patch_82">
    <path d="M 2007.540499 122.758333 
C 2010.337207 122.758333 2013.019747 121.647189 2014.997318 119.669618 
C 2016.97489 117.692046 2018.086034 115.009507 2018.086034 112.212799 
C 2018.086034 109.41609 2016.97489 106.733551 2014.997318 104.755979 
C 2013.019747 102.778408 2010.337207 101.667264 2007.540499 101.667264 
C 2004.74379 101.667264 2002.061251 102.778408 2000.08368 104.755979 
C 1998.106108 106.733551 1996.994964 109.41609 1996.994964 112.212799 
C 1996.994964 115.009507 1998.106108 117.692046 2000.08368 119.669618 
C 2002.061251 121.647189 2004.74379 122.758333 2007.540499 122.758333 
z
" clip-path="url(#p90c2b4f80b)" style="stroke: #000000; stroke-width: 2; stroke-linejoin: miter"/>
   </g>
   <g id="patch_83">
    <path d="M 2038.829449 266.339846 
L 2068.959548 266.339846 
L 2068.959548 236.209747 
L 2038.829449 236.209747 
z
" clip-path="url(#p90c2b4f80b)" style="fill: #ffffff; stroke: #000000; stroke-width: 1.5; stroke-linejoin: miter"/>
   </g>
   <g id="patch_84">
    <path d="M 2053.894498 209.440312 
C 2055.093088 209.440312 2056.242747 208.964108 2057.090278 208.116577 
C 2057.937809 207.269046 2058.414013 206.119387 2058.414013 204.920797 
C 2058.414013 203.722208 2057.937809 202.572548 2057.090278 201.725018 
C 2056.242747 200.877487 2055.093088 200.401282 2053.894498 200.401282 
C 2052.695909 200.401282 2051.546249 200.877487 2050.698719 201.725018 
C 2049.851188 202.572548 2049.374983 203.722208 2049.374983 204.920797 
C 2049.374983 206.119387 2049.851188 207.269046 2050.698719 208.116577 
C 2051.546249 208.964108 2052.695909 209.440312 2053.894498 209.440312 
z
" clip-path="url(#p90c2b4f80b)" style="stroke: #000000; stroke-width: 1.5; stroke-linejoin: miter"/>
   </g>
   <g id="patch_85">
    <path d="M 2053.894498 122.758333 
C 2056.691207 122.758333 2059.373746 121.647189 2061.351318 119.669618 
C 2063.328889 117.692046 2064.440033 115.009507 2064.440033 112.212799 
C 2064.440033 109.41609 2063.328889 106.733551 2061.351318 104.755979 
C 2059.373746 102.778408 2056.691207 101.667264 2053.894498 101.667264 
C 2051.09779 101.667264 2048.415251 102.778408 2046.437679 104.755979 
C 2044.460108 106.733551 2043.348963 109.41609 2043.348963 112.212799 
C 2043.348963 115.009507 2044.460108 117.692046 2046.437679 119.669618 
C 2048.415251 121.647189 2051.09779 122.758333 2053.894498 122.758333 
z
" clip-path="url(#p90c2b4f80b)" style="stroke: #000000; stroke-width: 2; stroke-linejoin: miter"/>
   </g>
   <g id="patch_86">
    <path d="M 2085.183448 266.339846 
L 2115.313547 266.339846 
L 2115.313547 236.209747 
L 2085.183448 236.209747 
z
" clip-path="url(#p90c2b4f80b)" style="fill: #ffffff; stroke: #000000; stroke-width: 1.5; stroke-linejoin: miter"/>
   </g>
   <g id="patch_87">
    <path d="M 2100.248498 163.086313 
C 2101.447087 163.086313 2102.596747 162.610108 2103.444277 161.762578 
C 2104.291808 160.915047 2104.768013 159.765387 2104.768013 158.566798 
C 2104.768013 157.368209 2104.291808 156.218549 2103.444277 155.371018 
C 2102.596747 154.523488 2101.447087 154.047283 2100.248498 154.047283 
C 2099.049908 154.047283 2097.900249 154.523488 2097.052718 155.371018 
C 2096.205187 156.218549 2095.728983 157.368209 2095.728983 158.566798 
C 2095.728983 159.765387 2096.205187 160.915047 2097.052718 161.762578 
C 2097.900249 162.610108 2099.049908 163.086313 2100.248498 163.086313 
z
" clip-path="url(#p90c2b4f80b)" style="stroke: #000000; stroke-width: 1.5; stroke-linejoin: miter"/>
   </g>
   <g id="patch_88">
    <path d="M 2100.248498 122.758333 
C 2103.045206 122.758333 2105.727745 121.647189 2107.705317 119.669618 
C 2109.682888 117.692046 2110.794033 115.009507 2110.794033 112.212799 
C 2110.794033 109.41609 2109.682888 106.733551 2107.705317 104.755979 
C 2105.727745 102.778408 2103.045206 101.667264 2100.248498 101.667264 
C 2097.451789 101.667264 2094.76925 102.778408 2092.791678 104.755979 
C 2090.814107 106.733551 2089.702963 109.41609 2089.702963 112.212799 
C 2089.702963 115.009507 2090.814107 117.692046 2092.791678 119.669618 
C 2094.76925 121.647189 2097.451789 122.758333 2100.248498 122.758333 
z
" clip-path="url(#p90c2b4f80b)" style="stroke: #000000; stroke-width: 2; stroke-linejoin: miter"/>
   </g>
   <g id="text_2">
    <g clip-path="url(#p90c2b4f80b)">
     <!-- ${q}_{0}$ -->
     <g transform="translate(332.811061 116.663775)scale(0.1625 -0.1625)">
      <defs>
       <path id="DejaVuSans-Oblique-71" d="M 2669 525 
Q 2438 222 2123 65 
Q 1809 -91 1428 -91 
Q 897 -91 595 267 
Q 294 625 294 1253 
Q 294 1759 480 2231 
Q 666 2703 1013 3078 
Q 1238 3322 1530 3453 
Q 1822 3584 2144 3584 
Q 2531 3584 2781 3431 
Q 3031 3278 3144 2969 
L 3244 3494 
L 3822 3494 
L 2888 -1319 
L 2309 -1319 
L 2669 525 
z
M 891 1338 
Q 891 875 1084 633 
Q 1278 391 1644 391 
Q 2188 391 2572 911 
Q 2956 1431 2956 2175 
Q 2956 2625 2757 2864 
Q 2559 3103 2188 3103 
Q 1916 3103 1684 2976 
Q 1453 2850 1281 2606 
Q 1100 2350 995 2006 
Q 891 1663 891 1338 
z
" transform="scale(0.015625)"/>
      </defs>
      <use xlink:href="#DejaVuSans-Oblique-71"/>
      <use xlink:href="#DejaVuSans-30" transform="translate(63.476562 -16.40625)scale(0.7)"/>
     </g>
    </g>
   </g>
   <g id="text_3">
    <g clip-path="url(#p90c2b4f80b)">
     <!-- ${q}_{1}$ -->
     <g transform="translate(332.811061 163.017774)scale(0.1625 -0.1625)">
      <defs>
       <path id="DejaVuSans-31" d="M 794 531 
L 1825 531 
L 1825 4091 
L 703 3866 
L 703 4441 
L 1819 4666 
L 2450 4666 
L 2450 531 
L 3481 531 
L 3481 0 
L 794 0 
L 794 531 
z
" transform="scale(0.015625)"/>
      </defs>
      <use xlink:href="#DejaVuSans-Oblique-71"/>
      <use xlink:href="#DejaVuSans-31" transform="translate(63.476562 -16.40625)scale(0.7)"/>
     </g>
    </g>
   </g>
   <g id="text_4">
    <g clip-path="url(#p90c2b4f80b)">
     <!-- ${q}_{2}$ -->
     <g transform="translate(332.811061 209.371774)scale(0.1625 -0.1625)">
      <defs>
       <path id="DejaVuSans-32" d="M 1228 531 
L 3431 531 
L 3431 0 
L 469 0 
L 469 531 
Q 828 903 1448 1529 
Q 2069 2156 2228 2338 
Q 2531 2678 2651 2914 
Q 2772 3150 2772 3378 
Q 2772 3750 2511 3984 
Q 2250 4219 1831 4219 
Q 1534 4219 1204 4116 
Q 875 4013 500 3803 
L 500 4441 
Q 881 4594 1212 4672 
Q 1544 4750 1819 4750 
Q 2544 4750 2975 4387 
Q 3406 4025 3406 3419 
Q 3406 3131 3298 2873 
Q 3191 2616 2906 2266 
Q 2828 2175 2409 1742 
Q 1991 1309 1228 531 
z
" transform="scale(0.015625)"/>
      </defs>
      <use xlink:href="#DejaVuSans-Oblique-71"/>
      <use xlink:href="#DejaVuSans-32" transform="translate(63.476562 -16.40625)scale(0.7)"/>
     </g>
    </g>
   </g>
   <g id="text_5">
    <g clip-path="url(#p90c2b4f80b)">
     <!-- ${q}_{3}$ -->
     <g transform="translate(332.811061 255.725773)scale(0.1625 -0.1625)">
      <use xlink:href="#DejaVuSans-Oblique-71"/>
      <use xlink:href="#DejaVuSans-33" transform="translate(63.476562 -16.40625)scale(0.7)"/>
     </g>
    </g>
   </g>
   <g id="text_6">
    <g clip-path="url(#p90c2b4f80b)">
     <!-- ${q}_{4}$ -->
     <g transform="translate(332.811061 302.079773)scale(0.1625 -0.1625)">
      <defs>
       <path id="DejaVuSans-34" d="M 2419 4116 
L 825 1625 
L 2419 1625 
L 2419 4116 
z
M 2253 4666 
L 3047 4666 
L 3047 1625 
L 3713 1625 
L 3713 1100 
L 3047 1100 
L 3047 0 
L 2419 0 
L 2419 1100 
L 313 1100 
L 313 1709 
L 2253 4666 
z
" transform="scale(0.015625)"/>
      </defs>
      <use xlink:href="#DejaVuSans-Oblique-71"/>
      <use xlink:href="#DejaVuSans-34" transform="translate(63.476562 -16.40625)scale(0.7)"/>
     </g>
    </g>
   </g>
   <g id="text_7">
    <g clip-path="url(#p90c2b4f80b)">
     <!-- ${q}_{5}$ -->
     <g transform="translate(332.811061 348.433772)scale(0.1625 -0.1625)">
      <defs>
       <path id="DejaVuSans-35" d="M 691 4666 
L 3169 4666 
L 3169 4134 
L 1269 4134 
L 1269 2991 
Q 1406 3038 1543 3061 
Q 1681 3084 1819 3084 
Q 2600 3084 3056 2656 
Q 3513 2228 3513 1497 
Q 3513 744 3044 326 
Q 2575 -91 1722 -91 
Q 1428 -91 1123 -41 
Q 819 9 494 109 
L 494 744 
Q 775 591 1075 516 
Q 1375 441 1709 441 
Q 2250 441 2565 725 
Q 2881 1009 2881 1497 
Q 2881 1984 2565 2268 
Q 2250 2553 1709 2553 
Q 1456 2553 1204 2497 
Q 953 2441 691 2322 
L 691 4666 
z
" transform="scale(0.015625)"/>
      </defs>
      <use xlink:href="#DejaVuSans-Oblique-71"/>
      <use xlink:href="#DejaVuSans-35" transform="translate(63.476562 -16.40625)scale(0.7)"/>
     </g>
    </g>
   </g>
   <g id="text_8">
    <g clip-path="url(#p90c2b4f80b)">
     <!-- ${q}_{6}$ -->
     <g transform="translate(332.811061 394.787771)scale(0.1625 -0.1625)">
      <defs>
       <path id="DejaVuSans-36" d="M 2113 2584 
Q 1688 2584 1439 2293 
Q 1191 2003 1191 1497 
Q 1191 994 1439 701 
Q 1688 409 2113 409 
Q 2538 409 2786 701 
Q 3034 994 3034 1497 
Q 3034 2003 2786 2293 
Q 2538 2584 2113 2584 
z
M 3366 4563 
L 3366 3988 
Q 3128 4100 2886 4159 
Q 2644 4219 2406 4219 
Q 1781 4219 1451 3797 
Q 1122 3375 1075 2522 
Q 1259 2794 1537 2939 
Q 1816 3084 2150 3084 
Q 2853 3084 3261 2657 
Q 3669 2231 3669 1497 
Q 3669 778 3244 343 
Q 2819 -91 2113 -91 
Q 1303 -91 875 529 
Q 447 1150 447 2328 
Q 447 3434 972 4092 
Q 1497 4750 2381 4750 
Q 2619 4750 2861 4703 
Q 3103 4656 3366 4563 
z
" transform="scale(0.015625)"/>
      </defs>
      <use xlink:href="#DejaVuSans-Oblique-71"/>
      <use xlink:href="#DejaVuSans-36" transform="translate(63.476562 -16.40625)scale(0.7)"/>
     </g>
    </g>
   </g>
   <g id="text_9">
    <g clip-path="url(#p90c2b4f80b)">
     <!-- ${q}_{7}$ -->
     <g transform="translate(332.811061 441.141771)scale(0.1625 -0.1625)">
      <defs>
       <path id="DejaVuSans-37" d="M 525 4666 
L 3525 4666 
L 3525 4397 
L 1831 0 
L 1172 0 
L 2766 4134 
L 525 4134 
L 525 4666 
z
" transform="scale(0.015625)"/>
      </defs>
      <use xlink:href="#DejaVuSans-Oblique-71"/>
      <use xlink:href="#DejaVuSans-37" transform="translate(63.476562 -16.40625)scale(0.7)"/>
     </g>
    </g>
   </g>
   <g id="text_10">
    <g clip-path="url(#p90c2b4f80b)">
     <!-- ${q}_{8}$ -->
     <g transform="translate(332.811061 487.49577)scale(0.1625 -0.1625)">
      <use xlink:href="#DejaVuSans-Oblique-71"/>
      <use xlink:href="#DejaVuSans-38" transform="translate(63.476562 -16.40625)scale(0.7)"/>
     </g>
    </g>
   </g>
   <g id="text_11">
    <g clip-path="url(#p90c2b4f80b)">
     <!-- ${q}_{9}$ -->
     <g transform="translate(332.811061 533.84977)scale(0.1625 -0.1625)">
      <defs>
       <path id="DejaVuSans-39" d="M 703 97 
L 703 672 
Q 941 559 1184 500 
Q 1428 441 1663 441 
Q 2288 441 2617 861 
Q 2947 1281 2994 2138 
Q 2813 1869 2534 1725 
Q 2256 1581 1919 1581 
Q 1219 1581 811 2004 
Q 403 2428 403 3163 
Q 403 3881 828 4315 
Q 1253 4750 1959 4750 
Q 2769 4750 3195 4129 
Q 3622 3509 3622 2328 
Q 3622 1225 3098 567 
Q 2575 -91 1691 -91 
Q 1453 -91 1209 -44 
Q 966 3 703 97 
z
M 1959 2075 
Q 2384 2075 2632 2365 
Q 2881 2656 2881 3163 
Q 2881 3666 2632 3958 
Q 2384 4250 1959 4250 
Q 1534 4250 1286 3958 
Q 1038 3666 1038 3163 
Q 1038 2656 1286 2365 
Q 1534 2075 1959 2075 
z
" transform="scale(0.015625)"/>
      </defs>
      <use xlink:href="#DejaVuSans-Oblique-71"/>
      <use xlink:href="#DejaVuSans-39" transform="translate(63.476562 -16.40625)scale(0.7)"/>
     </g>
    </g>
   </g>
   <g id="line2d_40">
    <path d="M 385.15052 303.654816 
L 385.15052 291.602776 
" clip-path="url(#p90c2b4f80b)" style="fill: none; stroke: #ffffff; stroke-width: 2; stroke-linecap: square"/>
   </g>
   <g id="line2d_41">
    <path d="M 379.124501 297.628796 
L 391.17654 297.628796 
" clip-path="url(#p90c2b4f80b)" style="fill: none; stroke: #ffffff; stroke-width: 2; stroke-linecap: square"/>
   </g>
   <g id="text_12">
    <g clip-path="url(#p90c2b4f80b)">
     <!-- H -->
     <g transform="translate(380.262317 208.507985)scale(0.13 -0.13)">
      <use xlink:href="#DejaVuSans-48"/>
     </g>
    </g>
   </g>
   <g id="line2d_42">
    <path d="M 431.50452 350.008815 
L 431.50452 337.956776 
" clip-path="url(#p90c2b4f80b)" style="fill: none; stroke: #ffffff; stroke-width: 2; stroke-linecap: square"/>
   </g>
   <g id="line2d_43">
    <path d="M 425.4785 343.982795 
L 437.53054 343.982795 
" clip-path="url(#p90c2b4f80b)" style="fill: none; stroke: #ffffff; stroke-width: 2; stroke-linecap: square"/>
   </g>
   <g id="text_13">
    <g clip-path="url(#p90c2b4f80b)">
     <!-- S -->
     <g transform="translate(427.378035 440.277982)scale(0.13 -0.13)">
      <use xlink:href="#DejaVuSans-53"/>
     </g>
    </g>
   </g>
   <g id="text_14">
    <g clip-path="url(#p90c2b4f80b)">
     <!-- S -->
     <g transform="translate(427.378035 486.631981)scale(0.13 -0.13)">
      <use xlink:href="#DejaVuSans-53"/>
     </g>
    </g>
   </g>
   <g id="text_15">
    <g clip-path="url(#p90c2b4f80b)">
     <!-- 0.107 -->
     <g transform="translate(466.407269 308.875326)scale(0.08 -0.08)">
      <defs>
       <path id="DejaVuSans-2e" d="M 684 794 
L 1344 794 
L 1344 0 
L 684 0 
L 684 794 
z
" transform="scale(0.015625)"/>
      </defs>
      <use xlink:href="#DejaVuSans-30"/>
      <use xlink:href="#DejaVuSans-2e" x="63.623047"/>
      <use xlink:href="#DejaVuSans-31" x="95.410156"/>
      <use xlink:href="#DejaVuSans-30" x="159.033203"/>
      <use xlink:href="#DejaVuSans-37" x="222.65625"/>
     </g>
    </g>
   </g>
   <g id="text_16">
    <g clip-path="url(#p90c2b4f80b)">
     <!-- $\mathrm{R_Z}$ -->
     <g transform="translate(469.928519 296.696469)scale(0.13 -0.13)">
      <defs>
       <path id="DejaVuSans-5a" d="M 359 4666 
L 4025 4666 
L 4025 4184 
L 1075 531 
L 4097 531 
L 4097 0 
L 288 0 
L 288 481 
L 3238 4134 
L 359 4134 
L 359 4666 
z
" transform="scale(0.015625)"/>
      </defs>
      <use xlink:href="#DejaVuSans-52" transform="translate(0 0.09375)"/>
      <use xlink:href="#DejaVuSans-5a" transform="translate(70.439453 -16.3125)scale(0.7)"/>
     </g>
    </g>
   </g>
   <g id="text_17">
    <g clip-path="url(#p90c2b4f80b)">
     <!-- 0.135 -->
     <g transform="translate(466.407269 355.229325)scale(0.08 -0.08)">
      <use xlink:href="#DejaVuSans-30"/>
      <use xlink:href="#DejaVuSans-2e" x="63.623047"/>
      <use xlink:href="#DejaVuSans-31" x="95.410156"/>
      <use xlink:href="#DejaVuSans-33" x="159.033203"/>
      <use xlink:href="#DejaVuSans-35" x="222.65625"/>
     </g>
    </g>
   </g>
   <g id="text_18">
    <g clip-path="url(#p90c2b4f80b)">
     <!-- $\mathrm{R_Z}$ -->
     <g transform="translate(469.928519 343.050468)scale(0.13 -0.13)">
      <use xlink:href="#DejaVuSans-52" transform="translate(0 0.09375)"/>
      <use xlink:href="#DejaVuSans-5a" transform="translate(70.439453 -16.3125)scale(0.7)"/>
     </g>
    </g>
   </g>
   <g id="text_19">
    <g clip-path="url(#p90c2b4f80b)">
     <!-- H -->
     <g transform="translate(472.970316 440.277982)scale(0.13 -0.13)">
      <use xlink:href="#DejaVuSans-48"/>
     </g>
    </g>
   </g>
   <g id="text_20">
    <g clip-path="url(#p90c2b4f80b)">
     <!-- H -->
     <g transform="translate(472.970316 486.631981)scale(0.13 -0.13)">
      <use xlink:href="#DejaVuSans-48"/>
     </g>
    </g>
   </g>
   <g id="line2d_44">
    <path d="M 524.212519 303.654816 
L 524.212519 291.602776 
" clip-path="url(#p90c2b4f80b)" style="fill: none; stroke: #ffffff; stroke-width: 2; stroke-linecap: square"/>
   </g>
   <g id="line2d_45">
    <path d="M 518.186499 297.628796 
L 530.238539 297.628796 
" clip-path="url(#p90c2b4f80b)" style="fill: none; stroke: #ffffff; stroke-width: 2; stroke-linecap: square"/>
   </g>
   <g id="line2d_46">
    <path d="M 570.566518 350.008815 
L 570.566518 337.956776 
" clip-path="url(#p90c2b4f80b)" style="fill: none; stroke: #ffffff; stroke-width: 2; stroke-linecap: square"/>
   </g>
   <g id="line2d_47">
    <path d="M 564.540498 343.982795 
L 576.592538 343.982795 
" clip-path="url(#p90c2b4f80b)" style="fill: none; stroke: #ffffff; stroke-width: 2; stroke-linecap: square"/>
   </g>
   <g id="line2d_48">
    <path d="M 616.920517 118.238818 
L 616.920517 106.186779 
" clip-path="url(#p90c2b4f80b)" style="fill: none; stroke: #ffffff; stroke-width: 2; stroke-linecap: square"/>
   </g>
   <g id="line2d_49">
    <path d="M 610.894497 112.212799 
L 622.946537 112.212799 
" clip-path="url(#p90c2b4f80b)" style="fill: none; stroke: #ffffff; stroke-width: 2; stroke-linecap: square"/>
   </g>
   <g id="text_21">
    <g clip-path="url(#p90c2b4f80b)">
     <!-- S -->
     <g transform="translate(612.794033 254.861984)scale(0.13 -0.13)">
      <use xlink:href="#DejaVuSans-53"/>
     </g>
    </g>
   </g>
   <g id="line2d_50">
    <path d="M 663.274517 118.238818 
L 663.274517 106.186779 
" clip-path="url(#p90c2b4f80b)" style="fill: none; stroke: #ffffff; stroke-width: 2; stroke-linecap: square"/>
   </g>
   <g id="line2d_51">
    <path d="M 657.248497 112.212799 
L 669.300537 112.212799 
" clip-path="url(#p90c2b4f80b)" style="fill: none; stroke: #ffffff; stroke-width: 2; stroke-linecap: square"/>
   </g>
   <g id="text_22">
    <g clip-path="url(#p90c2b4f80b)">
     <!-- H -->
     <g transform="translate(658.386314 254.861984)scale(0.13 -0.13)">
      <use xlink:href="#DejaVuSans-48"/>
     </g>
    </g>
   </g>
   <g id="line2d_52">
    <path d="M 709.628516 118.238818 
L 709.628516 106.186779 
" clip-path="url(#p90c2b4f80b)" style="fill: none; stroke: #ffffff; stroke-width: 2; stroke-linecap: square"/>
   </g>
   <g id="line2d_53">
    <path d="M 703.602496 112.212799 
L 715.654536 112.212799 
" clip-path="url(#p90c2b4f80b)" style="fill: none; stroke: #ffffff; stroke-width: 2; stroke-linecap: square"/>
   </g>
   <g id="line2d_54">
    <path d="M 755.982516 118.238818 
L 755.982516 106.186779 
" clip-path="url(#p90c2b4f80b)" style="fill: none; stroke: #ffffff; stroke-width: 2; stroke-linecap: square"/>
   </g>
   <g id="line2d_55">
    <path d="M 749.956496 112.212799 
L 762.008535 112.212799 
" clip-path="url(#p90c2b4f80b)" style="fill: none; stroke: #ffffff; stroke-width: 2; stroke-linecap: square"/>
   </g>
   <g id="text_23">
    <g clip-path="url(#p90c2b4f80b)">
     <!-- S -->
     <g transform="translate(798.210031 440.277982)scale(0.13 -0.13)">
      <use xlink:href="#DejaVuSans-53"/>
     </g>
    </g>
   </g>
   <g id="text_24">
    <g clip-path="url(#p90c2b4f80b)">
     <!-- $-$0.00693 -->
     <g transform="translate(782.416515 123.459328)scale(0.08 -0.08)">
      <defs>
       <path id="DejaVuSans-2212" d="M 678 2272 
L 4684 2272 
L 4684 1741 
L 678 1741 
L 678 2272 
z
" transform="scale(0.015625)"/>
      </defs>
      <use xlink:href="#DejaVuSans-2212" transform="translate(0 0.78125)"/>
      <use xlink:href="#DejaVuSans-30" transform="translate(83.789062 0.78125)"/>
      <use xlink:href="#DejaVuSans-2e" transform="translate(147.412109 0.78125)"/>
      <use xlink:href="#DejaVuSans-30" transform="translate(179.199219 0.78125)"/>
      <use xlink:href="#DejaVuSans-30" transform="translate(242.822266 0.78125)"/>
      <use xlink:href="#DejaVuSans-36" transform="translate(306.445312 0.78125)"/>
      <use xlink:href="#DejaVuSans-39" transform="translate(370.068359 0.78125)"/>
      <use xlink:href="#DejaVuSans-33" transform="translate(433.691406 0.78125)"/>
     </g>
    </g>
   </g>
   <g id="text_25">
    <g clip-path="url(#p90c2b4f80b)">
     <!-- $\mathrm{R_Z}$ -->
     <g transform="translate(794.406515 111.280471)scale(0.13 -0.13)">
      <use xlink:href="#DejaVuSans-52" transform="translate(0 0.09375)"/>
      <use xlink:href="#DejaVuSans-5a" transform="translate(70.439453 -16.3125)scale(0.7)"/>
     </g>
    </g>
   </g>
   <g id="text_26">
    <g clip-path="url(#p90c2b4f80b)">
     <!-- S -->
     <g transform="translate(798.210031 486.631981)scale(0.13 -0.13)">
      <use xlink:href="#DejaVuSans-53"/>
     </g>
    </g>
   </g>
   <g id="text_27">
    <g clip-path="url(#p90c2b4f80b)">
     <!-- H -->
     <g transform="translate(843.802311 440.277982)scale(0.13 -0.13)">
      <use xlink:href="#DejaVuSans-48"/>
     </g>
    </g>
   </g>
   <g id="line2d_56">
    <path d="M 848.690514 118.238818 
L 848.690514 106.186779 
" clip-path="url(#p90c2b4f80b)" style="fill: none; stroke: #ffffff; stroke-width: 2; stroke-linecap: square"/>
   </g>
   <g id="line2d_57">
    <path d="M 842.664494 112.212799 
L 854.716534 112.212799 
" clip-path="url(#p90c2b4f80b)" style="fill: none; stroke: #ffffff; stroke-width: 2; stroke-linecap: square"/>
   </g>
   <g id="text_28">
    <g clip-path="url(#p90c2b4f80b)">
     <!-- H -->
     <g transform="translate(843.802311 486.631981)scale(0.13 -0.13)">
      <use xlink:href="#DejaVuSans-48"/>
     </g>
    </g>
   </g>
   <g id="text_29">
    <g clip-path="url(#p90c2b4f80b)">
     <!-- H -->
     <g transform="translate(890.156311 208.507985)scale(0.13 -0.13)">
      <use xlink:href="#DejaVuSans-48"/>
     </g>
    </g>
   </g>
   <g id="line2d_58">
    <path d="M 941.398513 118.238818 
L 941.398513 106.186779 
" clip-path="url(#p90c2b4f80b)" style="fill: none; stroke: #ffffff; stroke-width: 2; stroke-linecap: square"/>
   </g>
   <g id="line2d_59">
    <path d="M 935.372493 112.212799 
L 947.424533 112.212799 
" clip-path="url(#p90c2b4f80b)" style="fill: none; stroke: #ffffff; stroke-width: 2; stroke-linecap: square"/>
   </g>
   <g id="line2d_60">
    <path d="M 987.752512 118.238818 
L 987.752512 106.186779 
" clip-path="url(#p90c2b4f80b)" style="fill: none; stroke: #ffffff; stroke-width: 2; stroke-linecap: square"/>
   </g>
   <g id="line2d_61">
    <path d="M 981.726493 112.212799 
L 993.778532 112.212799 
" clip-path="url(#p90c2b4f80b)" style="fill: none; stroke: #ffffff; stroke-width: 2; stroke-linecap: square"/>
   </g>
   <g id="text_30">
    <g clip-path="url(#p90c2b4f80b)">
     <!-- S -->
     <g transform="translate(1029.980027 208.507985)scale(0.13 -0.13)">
      <use xlink:href="#DejaVuSans-53"/>
     </g>
    </g>
   </g>
   <g id="text_31">
    <g clip-path="url(#p90c2b4f80b)">
     <!-- H -->
     <g transform="translate(1075.572308 208.507985)scale(0.13 -0.13)">
      <use xlink:href="#DejaVuSans-48"/>
     </g>
    </g>
   </g>
   <g id="line2d_62">
    <path d="M 1126.814511 118.238818 
L 1126.814511 106.186779 
" clip-path="url(#p90c2b4f80b)" style="fill: none; stroke: #ffffff; stroke-width: 2; stroke-linecap: square"/>
   </g>
   <g id="line2d_63">
    <path d="M 1120.788491 112.212799 
L 1132.840531 112.212799 
" clip-path="url(#p90c2b4f80b)" style="fill: none; stroke: #ffffff; stroke-width: 2; stroke-linecap: square"/>
   </g>
   <g id="line2d_64">
    <path d="M 1173.16851 118.238818 
L 1173.16851 106.186779 
" clip-path="url(#p90c2b4f80b)" style="fill: none; stroke: #ffffff; stroke-width: 2; stroke-linecap: square"/>
   </g>
   <g id="line2d_65">
    <path d="M 1167.14249 112.212799 
L 1179.19453 112.212799 
" clip-path="url(#p90c2b4f80b)" style="fill: none; stroke: #ffffff; stroke-width: 2; stroke-linecap: square"/>
   </g>
   <g id="text_32">
    <g clip-path="url(#p90c2b4f80b)">
     <!-- $-$0.00693 -->
     <g transform="translate(1199.602509 123.459328)scale(0.08 -0.08)">
      <use xlink:href="#DejaVuSans-2212" transform="translate(0 0.78125)"/>
      <use xlink:href="#DejaVuSans-30" transform="translate(83.789062 0.78125)"/>
      <use xlink:href="#DejaVuSans-2e" transform="translate(147.412109 0.78125)"/>
      <use xlink:href="#DejaVuSans-30" transform="translate(179.199219 0.78125)"/>
      <use xlink:href="#DejaVuSans-30" transform="translate(242.822266 0.78125)"/>
      <use xlink:href="#DejaVuSans-36" transform="translate(306.445312 0.78125)"/>
      <use xlink:href="#DejaVuSans-39" transform="translate(370.068359 0.78125)"/>
      <use xlink:href="#DejaVuSans-33" transform="translate(433.691406 0.78125)"/>
     </g>
    </g>
   </g>
   <g id="text_33">
    <g clip-path="url(#p90c2b4f80b)">
     <!-- $\mathrm{R_Z}$ -->
     <g transform="translate(1211.592509 111.280471)scale(0.13 -0.13)">
      <use xlink:href="#DejaVuSans-52" transform="translate(0 0.09375)"/>
      <use xlink:href="#DejaVuSans-5a" transform="translate(70.439453 -16.3125)scale(0.7)"/>
     </g>
    </g>
   </g>
   <g id="line2d_66">
    <path d="M 1265.876509 118.238818 
L 1265.876509 106.186779 
" clip-path="url(#p90c2b4f80b)" style="fill: none; stroke: #ffffff; stroke-width: 2; stroke-linecap: square"/>
   </g>
   <g id="line2d_67">
    <path d="M 1259.850489 112.212799 
L 1271.902529 112.212799 
" clip-path="url(#p90c2b4f80b)" style="fill: none; stroke: #ffffff; stroke-width: 2; stroke-linecap: square"/>
   </g>
   <g id="line2d_68">
    <path d="M 1312.230508 118.238818 
L 1312.230508 106.186779 
" clip-path="url(#p90c2b4f80b)" style="fill: none; stroke: #ffffff; stroke-width: 2; stroke-linecap: square"/>
   </g>
   <g id="line2d_69">
    <path d="M 1306.204488 112.212799 
L 1318.256528 112.212799 
" clip-path="url(#p90c2b4f80b)" style="fill: none; stroke: #ffffff; stroke-width: 2; stroke-linecap: square"/>
   </g>
   <g id="line2d_70">
    <path d="M 1358.584508 303.654816 
L 1358.584508 291.602776 
" clip-path="url(#p90c2b4f80b)" style="fill: none; stroke: #ffffff; stroke-width: 2; stroke-linecap: square"/>
   </g>
   <g id="line2d_71">
    <path d="M 1352.558488 297.628796 
L 1364.610527 297.628796 
" clip-path="url(#p90c2b4f80b)" style="fill: none; stroke: #ffffff; stroke-width: 2; stroke-linecap: square"/>
   </g>
   <g id="text_34">
    <g clip-path="url(#p90c2b4f80b)">
     <!-- H -->
     <g transform="translate(1400.050304 208.507985)scale(0.13 -0.13)">
      <use xlink:href="#DejaVuSans-48"/>
     </g>
    </g>
   </g>
   <g id="text_35">
    <g clip-path="url(#p90c2b4f80b)">
     <!-- 0.126 -->
     <g transform="translate(1393.487257 308.875326)scale(0.08 -0.08)">
      <use xlink:href="#DejaVuSans-30"/>
      <use xlink:href="#DejaVuSans-2e" x="63.623047"/>
      <use xlink:href="#DejaVuSans-31" x="95.410156"/>
      <use xlink:href="#DejaVuSans-32" x="159.033203"/>
      <use xlink:href="#DejaVuSans-36" x="222.65625"/>
     </g>
    </g>
   </g>
   <g id="text_36">
    <g clip-path="url(#p90c2b4f80b)">
     <!-- $\mathrm{R_Z}$ -->
     <g transform="translate(1397.008507 296.696469)scale(0.13 -0.13)">
      <use xlink:href="#DejaVuSans-52" transform="translate(0 0.09375)"/>
      <use xlink:href="#DejaVuSans-5a" transform="translate(70.439453 -16.3125)scale(0.7)"/>
     </g>
    </g>
   </g>
   <g id="line2d_72">
    <path d="M 1451.292506 118.238818 
L 1451.292506 106.186779 
" clip-path="url(#p90c2b4f80b)" style="fill: none; stroke: #ffffff; stroke-width: 2; stroke-linecap: square"/>
   </g>
   <g id="line2d_73">
    <path d="M 1445.266486 112.212799 
L 1457.318526 112.212799 
" clip-path="url(#p90c2b4f80b)" style="fill: none; stroke: #ffffff; stroke-width: 2; stroke-linecap: square"/>
   </g>
   <g id="text_37">
    <g clip-path="url(#p90c2b4f80b)">
     <!-- $\mathrm{S^\dagger}$ -->
     <g transform="translate(1489.196506 208.507985)scale(0.13 -0.13)">
      <defs>
       <path id="DejaVuSans-2020" d="M 1325 4666 
L 1875 4666 
L 1875 3353 
L 3022 3353 
L 3022 2875 
L 1875 2875 
L 1875 -616 
L 1325 -616 
L 1325 2875 
L 178 2875 
L 178 3353 
L 1325 3353 
L 1325 4666 
z
" transform="scale(0.015625)"/>
      </defs>
      <use xlink:href="#DejaVuSans-53" transform="translate(0 0.684375)"/>
      <use xlink:href="#DejaVuSans-2020" transform="translate(78.071289 38.965625)scale(0.7)"/>
     </g>
    </g>
   </g>
   <g id="text_38">
    <g clip-path="url(#p90c2b4f80b)">
     <!-- H -->
     <g transform="translate(1492.758303 440.277982)scale(0.13 -0.13)">
      <use xlink:href="#DejaVuSans-48"/>
     </g>
    </g>
   </g>
   <g id="line2d_74">
    <path d="M 1544.000505 118.238818 
L 1544.000505 106.186779 
" clip-path="url(#p90c2b4f80b)" style="fill: none; stroke: #ffffff; stroke-width: 2; stroke-linecap: square"/>
   </g>
   <g id="line2d_75">
    <path d="M 1537.974485 112.212799 
L 1550.026525 112.212799 
" clip-path="url(#p90c2b4f80b)" style="fill: none; stroke: #ffffff; stroke-width: 2; stroke-linecap: square"/>
   </g>
   <g id="line2d_76">
    <path d="M 1590.354504 303.654816 
L 1590.354504 291.602776 
" clip-path="url(#p90c2b4f80b)" style="fill: none; stroke: #ffffff; stroke-width: 2; stroke-linecap: square"/>
   </g>
   <g id="line2d_77">
    <path d="M 1584.328485 297.628796 
L 1596.380524 297.628796 
" clip-path="url(#p90c2b4f80b)" style="fill: none; stroke: #ffffff; stroke-width: 2; stroke-linecap: square"/>
   </g>
   <g id="text_39">
    <g clip-path="url(#p90c2b4f80b)">
     <!-- $\mathrm{S^\dagger}$ -->
     <g transform="translate(1581.904504 440.277982)scale(0.13 -0.13)">
      <use xlink:href="#DejaVuSans-53" transform="translate(0 0.684375)"/>
      <use xlink:href="#DejaVuSans-2020" transform="translate(78.071289 38.965625)scale(0.7)"/>
     </g>
    </g>
   </g>
   <g id="text_40">
    <g clip-path="url(#p90c2b4f80b)">
     <!-- H -->
     <g transform="translate(1585.466301 486.631981)scale(0.13 -0.13)">
      <use xlink:href="#DejaVuSans-48"/>
     </g>
    </g>
   </g>
   <g id="line2d_78">
    <path d="M 1636.708504 396.362815 
L 1636.708504 384.310775 
" clip-path="url(#p90c2b4f80b)" style="fill: none; stroke: #ffffff; stroke-width: 2; stroke-linecap: square"/>
   </g>
   <g id="line2d_79">
    <path d="M 1630.682484 390.336795 
L 1642.734524 390.336795 
" clip-path="url(#p90c2b4f80b)" style="fill: none; stroke: #ffffff; stroke-width: 2; stroke-linecap: square"/>
   </g>
   <g id="line2d_80">
    <path d="M 1636.708504 118.238818 
L 1636.708504 106.186779 
" clip-path="url(#p90c2b4f80b)" style="fill: none; stroke: #ffffff; stroke-width: 2; stroke-linecap: square"/>
   </g>
   <g id="line2d_81">
    <path d="M 1630.682484 112.212799 
L 1642.734524 112.212799 
" clip-path="url(#p90c2b4f80b)" style="fill: none; stroke: #ffffff; stroke-width: 2; stroke-linecap: square"/>
   </g>
   <g id="text_41">
    <g clip-path="url(#p90c2b4f80b)">
     <!-- $\mathrm{S^\dagger}$ -->
     <g transform="translate(1628.258504 486.631981)scale(0.13 -0.13)">
      <use xlink:href="#DejaVuSans-53" transform="translate(0 0.684375)"/>
      <use xlink:href="#DejaVuSans-2020" transform="translate(78.071289 38.965625)scale(0.7)"/>
     </g>
    </g>
   </g>
   <g id="text_42">
    <g clip-path="url(#p90c2b4f80b)">
     <!-- 0.14 -->
     <g transform="translate(1674.156253 401.583325)scale(0.08 -0.08)">
      <use xlink:href="#DejaVuSans-30"/>
      <use xlink:href="#DejaVuSans-2e" x="63.623047"/>
      <use xlink:href="#DejaVuSans-31" x="95.410156"/>
      <use xlink:href="#DejaVuSans-34" x="159.033203"/>
     </g>
    </g>
   </g>
   <g id="text_43">
    <g clip-path="url(#p90c2b4f80b)">
     <!-- $\mathrm{R_Z}$ -->
     <g transform="translate(1675.132503 389.404467)scale(0.13 -0.13)">
      <use xlink:href="#DejaVuSans-52" transform="translate(0 0.09375)"/>
      <use xlink:href="#DejaVuSans-5a" transform="translate(70.439453 -16.3125)scale(0.7)"/>
     </g>
    </g>
   </g>
   <g id="line2d_82">
    <path d="M 1729.416503 396.362815 
L 1729.416503 384.310775 
" clip-path="url(#p90c2b4f80b)" style="fill: none; stroke: #ffffff; stroke-width: 2; stroke-linecap: square"/>
   </g>
   <g id="line2d_83">
    <path d="M 1723.390483 390.336795 
L 1735.442523 390.336795 
" clip-path="url(#p90c2b4f80b)" style="fill: none; stroke: #ffffff; stroke-width: 2; stroke-linecap: square"/>
   </g>
   <g id="line2d_84">
    <path d="M 1775.770502 118.238818 
L 1775.770502 106.186779 
" clip-path="url(#p90c2b4f80b)" style="fill: none; stroke: #ffffff; stroke-width: 2; stroke-linecap: square"/>
   </g>
   <g id="line2d_85">
    <path d="M 1769.744482 112.212799 
L 1781.796522 112.212799 
" clip-path="url(#p90c2b4f80b)" style="fill: none; stroke: #ffffff; stroke-width: 2; stroke-linecap: square"/>
   </g>
   <g id="line2d_86">
    <path d="M 1822.124501 118.238818 
L 1822.124501 106.186779 
" clip-path="url(#p90c2b4f80b)" style="fill: none; stroke: #ffffff; stroke-width: 2; stroke-linecap: square"/>
   </g>
   <g id="line2d_87">
    <path d="M 1816.098481 112.212799 
L 1828.150521 112.212799 
" clip-path="url(#p90c2b4f80b)" style="fill: none; stroke: #ffffff; stroke-width: 2; stroke-linecap: square"/>
   </g>
   <g id="line2d_88">
    <path d="M 1868.478501 118.238818 
L 1868.478501 106.186779 
" clip-path="url(#p90c2b4f80b)" style="fill: none; stroke: #ffffff; stroke-width: 2; stroke-linecap: square"/>
   </g>
   <g id="line2d_89">
    <path d="M 1862.452481 112.212799 
L 1874.504521 112.212799 
" clip-path="url(#p90c2b4f80b)" style="fill: none; stroke: #ffffff; stroke-width: 2; stroke-linecap: square"/>
   </g>
   <g id="text_44">
    <g clip-path="url(#p90c2b4f80b)">
     <!-- $-$0.018 -->
     <g transform="translate(1899.9925 123.459328)scale(0.08 -0.08)">
      <use xlink:href="#DejaVuSans-2212" transform="translate(0 0.78125)"/>
      <use xlink:href="#DejaVuSans-30" transform="translate(83.789062 0.78125)"/>
      <use xlink:href="#DejaVuSans-2e" transform="translate(147.412109 0.78125)"/>
      <use xlink:href="#DejaVuSans-30" transform="translate(179.199219 0.78125)"/>
      <use xlink:href="#DejaVuSans-31" transform="translate(242.822266 0.78125)"/>
      <use xlink:href="#DejaVuSans-38" transform="translate(306.445312 0.78125)"/>
     </g>
    </g>
   </g>
   <g id="text_45">
    <g clip-path="url(#p90c2b4f80b)">
     <!-- $\mathrm{R_Z}$ -->
     <g transform="translate(1906.9025 111.280471)scale(0.13 -0.13)">
      <use xlink:href="#DejaVuSans-52" transform="translate(0 0.09375)"/>
      <use xlink:href="#DejaVuSans-5a" transform="translate(70.439453 -16.3125)scale(0.7)"/>
     </g>
    </g>
   </g>
   <g id="line2d_90">
    <path d="M 1961.1865 118.238818 
L 1961.1865 106.186779 
" clip-path="url(#p90c2b4f80b)" style="fill: none; stroke: #ffffff; stroke-width: 2; stroke-linecap: square"/>
   </g>
   <g id="line2d_91">
    <path d="M 1955.16048 112.212799 
L 1967.212519 112.212799 
" clip-path="url(#p90c2b4f80b)" style="fill: none; stroke: #ffffff; stroke-width: 2; stroke-linecap: square"/>
   </g>
   <g id="line2d_92">
    <path d="M 2007.540499 118.238818 
L 2007.540499 106.186779 
" clip-path="url(#p90c2b4f80b)" style="fill: none; stroke: #ffffff; stroke-width: 2; stroke-linecap: square"/>
   </g>
   <g id="line2d_93">
    <path d="M 2001.514479 112.212799 
L 2013.566519 112.212799 
" clip-path="url(#p90c2b4f80b)" style="fill: none; stroke: #ffffff; stroke-width: 2; stroke-linecap: square"/>
   </g>
   <g id="text_46">
    <g clip-path="url(#p90c2b4f80b)">
     <!-- H -->
     <g transform="translate(2049.006295 254.861984)scale(0.13 -0.13)">
      <use xlink:href="#DejaVuSans-48"/>
     </g>
    </g>
   </g>
   <g id="line2d_94">
    <path d="M 2053.894498 118.238818 
L 2053.894498 106.186779 
" clip-path="url(#p90c2b4f80b)" style="fill: none; stroke: #ffffff; stroke-width: 2; stroke-linecap: square"/>
   </g>
   <g id="line2d_95">
    <path d="M 2047.868478 112.212799 
L 2059.920518 112.212799 
" clip-path="url(#p90c2b4f80b)" style="fill: none; stroke: #ffffff; stroke-width: 2; stroke-linecap: square"/>
   </g>
   <g id="text_47">
    <g clip-path="url(#p90c2b4f80b)">
     <!-- $\mathrm{S^\dagger}$ -->
     <g transform="translate(2091.798498 254.861984)scale(0.13 -0.13)">
      <use xlink:href="#DejaVuSans-53" transform="translate(0 0.684375)"/>
      <use xlink:href="#DejaVuSans-2020" transform="translate(78.071289 38.965625)scale(0.7)"/>
     </g>
    </g>
   </g>
   <g id="line2d_96">
    <path d="M 2100.248498 118.238818 
L 2100.248498 106.186779 
" clip-path="url(#p90c2b4f80b)" style="fill: none; stroke: #ffffff; stroke-width: 2; stroke-linecap: square"/>
   </g>
   <g id="line2d_97">
    <path d="M 2094.222478 112.212799 
L 2106.274518 112.212799 
" clip-path="url(#p90c2b4f80b)" style="fill: none; stroke: #ffffff; stroke-width: 2; stroke-linecap: square"/>
   </g>
  </g>
 </g>
 <defs>
  <clipPath id="p90c2b4f80b">
   <rect x="302.710164" y="75.129599" width="1828.131973" height="482.081594"/>
  </clipPath>
 </defs>
</svg>
