<?xml version="1.0" encoding="utf-8" standalone="no"?>
<!DOCTYPE svg PUBLIC "-//W3C//DTD SVG 1.1//EN"
  "http://www.w3.org/Graphics/SVG/1.1/DTD/svg11.dtd">
<svg xmlns:xlink="http://www.w3.org/1999/xlink" width="2494.597366pt" height="626.079992pt" viewBox="0 0 2494.597366 626.079992" xmlns="http://www.w3.org/2000/svg" version="1.1">
 <metadata>
  <rdf:RDF xmlns:dc="http://purl.org/dc/elements/1.1/" xmlns:cc="http://creativecommons.org/ns#" xmlns:rdf="http://www.w3.org/1999/02/22-rdf-syntax-ns#">
   <cc:Work>
    <dc:type rdf:resource="http://purl.org/dc/dcmitype/StillImage"/>
    <dc:date>2022-05-22T14:41:17.186199</dc:date>
    <dc:format>image/svg+xml</dc:format>
    <dc:creator>
     <cc:Agent>
      <dc:title>Matplotlib v3.5.1, https://matplotlib.org/</dc:title>
     </cc:Agent>
    </dc:creator>
   </cc:Work>
  </rdf:RDF>
 </metadata>
 <defs>
  <style type="text/css">*{stroke-linejoin: round; stroke-linecap: butt}</style>
 </defs>
 <g id="figure_1">
  <g id="patch_1">
   <path d="M 0 626.079992 
L 2494.597366 626.079992 
L 2494.597366 0 
L 0 0 
z
" style="fill: #ffffff"/>
  </g>
  <g id="axes_1">
   <g id="line2d_1">
    <path d="M 375.470361 112.212799 
L 2234.265736 112.212799 
" clip-path="url(#pbd33eeab94)" style="fill: none; stroke: #000000; stroke-width: 2; stroke-linecap: square"/>
   </g>
   <g id="line2d_2">
    <path d="M 375.470361 158.566798 
L 2234.265736 158.566798 
" clip-path="url(#pbd33eeab94)" style="fill: none; stroke: #000000; stroke-width: 2; stroke-linecap: square"/>
   </g>
   <g id="line2d_3">
    <path d="M 375.470361 204.920797 
L 2234.265736 204.920797 
" clip-path="url(#pbd33eeab94)" style="fill: none; stroke: #000000; stroke-width: 2; stroke-linecap: square"/>
   </g>
   <g id="line2d_4">
    <path d="M 375.470361 251.274797 
L 2234.265736 251.274797 
" clip-path="url(#pbd33eeab94)" style="fill: none; stroke: #000000; stroke-width: 2; stroke-linecap: square"/>
   </g>
   <g id="line2d_5">
    <path d="M 375.470361 297.628796 
L 2234.265736 297.628796 
" clip-path="url(#pbd33eeab94)" style="fill: none; stroke: #000000; stroke-width: 2; stroke-linecap: square"/>
   </g>
   <g id="line2d_6">
    <path d="M 375.470361 343.982795 
L 2234.265736 343.982795 
" clip-path="url(#pbd33eeab94)" style="fill: none; stroke: #000000; stroke-width: 2; stroke-linecap: square"/>
   </g>
   <g id="line2d_7">
    <path d="M 375.470361 390.336795 
L 2234.265736 390.336795 
" clip-path="url(#pbd33eeab94)" style="fill: none; stroke: #000000; stroke-width: 2; stroke-linecap: square"/>
   </g>
   <g id="line2d_8">
    <path d="M 375.470361 436.690794 
L 2234.265736 436.690794 
" clip-path="url(#pbd33eeab94)" style="fill: none; stroke: #000000; stroke-width: 2; stroke-linecap: square"/>
   </g>
   <g id="line2d_9">
    <path d="M 375.470361 483.044794 
L 2234.265736 483.044794 
" clip-path="url(#pbd33eeab94)" style="fill: none; stroke: #000000; stroke-width: 2; stroke-linecap: square"/>
   </g>
   <g id="line2d_10">
    <path d="M 375.470361 529.398793 
L 2234.265736 529.398793 
" clip-path="url(#pbd33eeab94)" style="fill: none; stroke: #000000; stroke-width: 2; stroke-linecap: square"/>
   </g>
   <g id="line2d_11">
    <path d="M 400.50152 158.566798 
L 400.50152 112.212799 
" clip-path="url(#pbd33eeab94)" style="fill: none; stroke: #000000; stroke-width: 2; stroke-linecap: square"/>
   </g>
   <g id="line2d_12">
    <path d="M 446.85552 483.044794 
L 446.85552 251.274797 
" clip-path="url(#pbd33eeab94)" style="fill: none; stroke: #000000; stroke-width: 2; stroke-linecap: square"/>
   </g>
   <g id="line2d_13">
    <path d="M 446.85552 204.920797 
L 446.85552 112.212799 
" clip-path="url(#pbd33eeab94)" style="fill: none; stroke: #000000; stroke-width: 2; stroke-linecap: square"/>
   </g>
   <g id="line2d_14">
    <path d="M 539.563518 483.044794 
L 539.563518 297.628796 
" clip-path="url(#pbd33eeab94)" style="fill: none; stroke: #000000; stroke-width: 2; stroke-linecap: square"/>
   </g>
   <g id="line2d_15">
    <path d="M 585.917518 483.044794 
L 585.917518 343.982795 
" clip-path="url(#pbd33eeab94)" style="fill: none; stroke: #000000; stroke-width: 2; stroke-linecap: square"/>
   </g>
   <g id="line2d_16">
    <path d="M 632.271517 483.044794 
L 632.271517 390.336795 
" clip-path="url(#pbd33eeab94)" style="fill: none; stroke: #000000; stroke-width: 2; stroke-linecap: square"/>
   </g>
   <g id="line2d_17">
    <path d="M 678.625517 483.044794 
L 678.625517 436.690794 
" clip-path="url(#pbd33eeab94)" style="fill: none; stroke: #000000; stroke-width: 2; stroke-linecap: square"/>
   </g>
   <g id="line2d_18">
    <path d="M 771.333515 483.044794 
L 771.333515 436.690794 
" clip-path="url(#pbd33eeab94)" style="fill: none; stroke: #000000; stroke-width: 2; stroke-linecap: square"/>
   </g>
   <g id="line2d_19">
    <path d="M 817.687515 483.044794 
L 817.687515 390.336795 
" clip-path="url(#pbd33eeab94)" style="fill: none; stroke: #000000; stroke-width: 2; stroke-linecap: square"/>
   </g>
   <g id="line2d_20">
    <path d="M 864.041514 483.044794 
L 864.041514 343.982795 
" clip-path="url(#pbd33eeab94)" style="fill: none; stroke: #000000; stroke-width: 2; stroke-linecap: square"/>
   </g>
   <g id="line2d_21">
    <path d="M 956.749513 483.044794 
L 956.749513 297.628796 
" clip-path="url(#pbd33eeab94)" style="fill: none; stroke: #000000; stroke-width: 2; stroke-linecap: square"/>
   </g>
   <g id="line2d_22">
    <path d="M 1049.457512 483.044794 
L 1049.457512 251.274797 
" clip-path="url(#pbd33eeab94)" style="fill: none; stroke: #000000; stroke-width: 2; stroke-linecap: square"/>
   </g>
   <g id="line2d_23">
    <path d="M 1095.811511 529.398793 
L 1095.811511 297.628796 
" clip-path="url(#pbd33eeab94)" style="fill: none; stroke: #000000; stroke-width: 2; stroke-linecap: square"/>
   </g>
   <g id="line2d_24">
    <path d="M 1188.51951 529.398793 
L 1188.51951 251.274797 
" clip-path="url(#pbd33eeab94)" style="fill: none; stroke: #000000; stroke-width: 2; stroke-linecap: square"/>
   </g>
   <g id="line2d_25">
    <path d="M 1281.227509 529.398793 
L 1281.227509 297.628796 
" clip-path="url(#pbd33eeab94)" style="fill: none; stroke: #000000; stroke-width: 2; stroke-linecap: square"/>
   </g>
   <g id="line2d_26">
    <path d="M 1281.227509 251.274797 
L 1281.227509 112.212799 
" clip-path="url(#pbd33eeab94)" style="fill: none; stroke: #000000; stroke-width: 2; stroke-linecap: square"/>
   </g>
   <g id="line2d_27">
    <path d="M 1327.581508 483.044794 
L 1327.581508 112.212799 
" clip-path="url(#pbd33eeab94)" style="fill: none; stroke: #000000; stroke-width: 2; stroke-linecap: square"/>
   </g>
   <g id="line2d_28">
    <path d="M 1420.289507 529.398793 
L 1420.289507 112.212799 
" clip-path="url(#pbd33eeab94)" style="fill: none; stroke: #000000; stroke-width: 2; stroke-linecap: square"/>
   </g>
   <g id="line2d_29">
    <path d="M 1512.997505 529.398793 
L 1512.997505 112.212799 
" clip-path="url(#pbd33eeab94)" style="fill: none; stroke: #000000; stroke-width: 2; stroke-linecap: square"/>
   </g>
   <g id="line2d_30">
    <path d="M 1559.351505 483.044794 
L 1559.351505 112.212799 
" clip-path="url(#pbd33eeab94)" style="fill: none; stroke: #000000; stroke-width: 2; stroke-linecap: square"/>
   </g>
   <g id="line2d_31">
    <path d="M 1605.705504 251.274797 
L 1605.705504 112.212799 
" clip-path="url(#pbd33eeab94)" style="fill: none; stroke: #000000; stroke-width: 2; stroke-linecap: square"/>
   </g>
   <g id="line2d_32">
    <path d="M 1698.413503 483.044794 
L 1698.413503 112.212799 
" clip-path="url(#pbd33eeab94)" style="fill: none; stroke: #000000; stroke-width: 2; stroke-linecap: square"/>
   </g>
   <g id="line2d_33">
    <path d="M 1744.767502 297.628796 
L 1744.767502 112.212799 
" clip-path="url(#pbd33eeab94)" style="fill: none; stroke: #000000; stroke-width: 2; stroke-linecap: square"/>
   </g>
   <g id="line2d_34">
    <path d="M 1791.121502 251.274797 
L 1791.121502 112.212799 
" clip-path="url(#pbd33eeab94)" style="fill: none; stroke: #000000; stroke-width: 2; stroke-linecap: square"/>
   </g>
   <g id="line2d_35">
    <path d="M 1837.475501 204.920797 
L 1837.475501 112.212799 
" clip-path="url(#pbd33eeab94)" style="fill: none; stroke: #000000; stroke-width: 2; stroke-linecap: square"/>
   </g>
   <g id="line2d_36">
    <path d="M 1883.829501 158.566798 
L 1883.829501 112.212799 
" clip-path="url(#pbd33eeab94)" style="fill: none; stroke: #000000; stroke-width: 2; stroke-linecap: square"/>
   </g>
   <g id="line2d_37">
    <path d="M 1976.537499 158.566798 
L 1976.537499 112.212799 
" clip-path="url(#pbd33eeab94)" style="fill: none; stroke: #000000; stroke-width: 2; stroke-linecap: square"/>
   </g>
   <g id="line2d_38">
    <path d="M 2022.891499 204.920797 
L 2022.891499 112.212799 
" clip-path="url(#pbd33eeab94)" style="fill: none; stroke: #000000; stroke-width: 2; stroke-linecap: square"/>
   </g>
   <g id="line2d_39">
    <path d="M 2069.245498 251.274797 
L 2069.245498 112.212799 
" clip-path="url(#pbd33eeab94)" style="fill: none; stroke: #000000; stroke-width: 2; stroke-linecap: square"/>
   </g>
   <g id="line2d_40">
    <path d="M 2115.599497 297.628796 
L 2115.599497 112.212799 
" clip-path="url(#pbd33eeab94)" style="fill: none; stroke: #000000; stroke-width: 2; stroke-linecap: square"/>
   </g>
   <g id="line2d_41">
    <path d="M 2208.307496 483.044794 
L 2208.307496 112.212799 
" clip-path="url(#pbd33eeab94)" style="fill: none; stroke: #000000; stroke-width: 2; stroke-linecap: square"/>
   </g>
   <g id="text_1">
    <!-- TERMS: 4, DEPTH:33 -->
    <g transform="translate(1216.44865 69.129599)scale(0.12 -0.12)">
     <defs>
      <path id="DejaVuSans-54" d="M -19 4666 
L 3928 4666 
L 3928 4134 
L 2272 4134 
L 2272 0 
L 1638 0 
L 1638 4134 
L -19 4134 
L -19 4666 
z
" transform="scale(0.015625)"/>
      <path id="DejaVuSans-45" d="M 628 4666 
L 3578 4666 
L 3578 4134 
L 1259 4134 
L 1259 2753 
L 3481 2753 
L 3481 2222 
L 1259 2222 
L 1259 531 
L 3634 531 
L 3634 0 
L 628 0 
L 628 4666 
z
" transform="scale(0.015625)"/>
      <path id="DejaVuSans-52" d="M 2841 2188 
Q 3044 2119 3236 1894 
Q 3428 1669 3622 1275 
L 4263 0 
L 3584 0 
L 2988 1197 
Q 2756 1666 2539 1819 
Q 2322 1972 1947 1972 
L 1259 1972 
L 1259 0 
L 628 0 
L 628 4666 
L 2053 4666 
Q 2853 4666 3247 4331 
Q 3641 3997 3641 3322 
Q 3641 2881 3436 2590 
Q 3231 2300 2841 2188 
z
M 1259 4147 
L 1259 2491 
L 2053 2491 
Q 2509 2491 2742 2702 
Q 2975 2913 2975 3322 
Q 2975 3731 2742 3939 
Q 2509 4147 2053 4147 
L 1259 4147 
z
" transform="scale(0.015625)"/>
      <path id="DejaVuSans-4d" d="M 628 4666 
L 1569 4666 
L 2759 1491 
L 3956 4666 
L 4897 4666 
L 4897 0 
L 4281 0 
L 4281 4097 
L 3078 897 
L 2444 897 
L 1241 4097 
L 1241 0 
L 628 0 
L 628 4666 
z
" transform="scale(0.015625)"/>
      <path id="DejaVuSans-53" d="M 3425 4513 
L 3425 3897 
Q 3066 4069 2747 4153 
Q 2428 4238 2131 4238 
Q 1616 4238 1336 4038 
Q 1056 3838 1056 3469 
Q 1056 3159 1242 3001 
Q 1428 2844 1947 2747 
L 2328 2669 
Q 3034 2534 3370 2195 
Q 3706 1856 3706 1288 
Q 3706 609 3251 259 
Q 2797 -91 1919 -91 
Q 1588 -91 1214 -16 
Q 841 59 441 206 
L 441 856 
Q 825 641 1194 531 
Q 1563 422 1919 422 
Q 2459 422 2753 634 
Q 3047 847 3047 1241 
Q 3047 1584 2836 1778 
Q 2625 1972 2144 2069 
L 1759 2144 
Q 1053 2284 737 2584 
Q 422 2884 422 3419 
Q 422 4038 858 4394 
Q 1294 4750 2059 4750 
Q 2388 4750 2728 4690 
Q 3069 4631 3425 4513 
z
" transform="scale(0.015625)"/>
      <path id="DejaVuSans-3a" d="M 750 794 
L 1409 794 
L 1409 0 
L 750 0 
L 750 794 
z
M 750 3309 
L 1409 3309 
L 1409 2516 
L 750 2516 
L 750 3309 
z
" transform="scale(0.015625)"/>
      <path id="DejaVuSans-20" transform="scale(0.015625)"/>
      <path id="DejaVuSans-34" d="M 2419 4116 
L 825 1625 
L 2419 1625 
L 2419 4116 
z
M 2253 4666 
L 3047 4666 
L 3047 1625 
L 3713 1625 
L 3713 1100 
L 3047 1100 
L 3047 0 
L 2419 0 
L 2419 1100 
L 313 1100 
L 313 1709 
L 2253 4666 
z
" transform="scale(0.015625)"/>
      <path id="DejaVuSans-2c" d="M 750 794 
L 1409 794 
L 1409 256 
L 897 -744 
L 494 -744 
L 750 256 
L 750 794 
z
" transform="scale(0.015625)"/>
      <path id="DejaVuSans-44" d="M 1259 4147 
L 1259 519 
L 2022 519 
Q 2988 519 3436 956 
Q 3884 1394 3884 2338 
Q 3884 3275 3436 3711 
Q 2988 4147 2022 4147 
L 1259 4147 
z
M 628 4666 
L 1925 4666 
Q 3281 4666 3915 4102 
Q 4550 3538 4550 2338 
Q 4550 1131 3912 565 
Q 3275 0 1925 0 
L 628 0 
L 628 4666 
z
" transform="scale(0.015625)"/>
      <path id="DejaVuSans-50" d="M 1259 4147 
L 1259 2394 
L 2053 2394 
Q 2494 2394 2734 2622 
Q 2975 2850 2975 3272 
Q 2975 3691 2734 3919 
Q 2494 4147 2053 4147 
L 1259 4147 
z
M 628 4666 
L 2053 4666 
Q 2838 4666 3239 4311 
Q 3641 3956 3641 3272 
Q 3641 2581 3239 2228 
Q 2838 1875 2053 1875 
L 1259 1875 
L 1259 0 
L 628 0 
L 628 4666 
z
" transform="scale(0.015625)"/>
      <path id="DejaVuSans-48" d="M 628 4666 
L 1259 4666 
L 1259 2753 
L 3553 2753 
L 3553 4666 
L 4184 4666 
L 4184 0 
L 3553 0 
L 3553 2222 
L 1259 2222 
L 1259 0 
L 628 0 
L 628 4666 
z
" transform="scale(0.015625)"/>
      <path id="DejaVuSans-33" d="M 2597 2516 
Q 3050 2419 3304 2112 
Q 3559 1806 3559 1356 
Q 3559 666 3084 287 
Q 2609 -91 1734 -91 
Q 1441 -91 1130 -33 
Q 819 25 488 141 
L 488 750 
Q 750 597 1062 519 
Q 1375 441 1716 441 
Q 2309 441 2620 675 
Q 2931 909 2931 1356 
Q 2931 1769 2642 2001 
Q 2353 2234 1838 2234 
L 1294 2234 
L 1294 2753 
L 1863 2753 
Q 2328 2753 2575 2939 
Q 2822 3125 2822 3475 
Q 2822 3834 2567 4026 
Q 2313 4219 1838 4219 
Q 1578 4219 1281 4162 
Q 984 4106 628 3988 
L 628 4550 
Q 988 4650 1302 4700 
Q 1616 4750 1894 4750 
Q 2613 4750 3031 4423 
Q 3450 4097 3450 3541 
Q 3450 3153 3228 2886 
Q 3006 2619 2597 2516 
z
" transform="scale(0.015625)"/>
     </defs>
     <use xlink:href="#DejaVuSans-54"/>
     <use xlink:href="#DejaVuSans-45" x="61.083984"/>
     <use xlink:href="#DejaVuSans-52" x="124.267578"/>
     <use xlink:href="#DejaVuSans-4d" x="193.75"/>
     <use xlink:href="#DejaVuSans-53" x="280.029297"/>
     <use xlink:href="#DejaVuSans-3a" x="343.505859"/>
     <use xlink:href="#DejaVuSans-20" x="377.197266"/>
     <use xlink:href="#DejaVuSans-34" x="408.984375"/>
     <use xlink:href="#DejaVuSans-2c" x="472.607422"/>
     <use xlink:href="#DejaVuSans-20" x="504.394531"/>
     <use xlink:href="#DejaVuSans-44" x="536.181641"/>
     <use xlink:href="#DejaVuSans-45" x="613.183594"/>
     <use xlink:href="#DejaVuSans-50" x="676.367188"/>
     <use xlink:href="#DejaVuSans-54" x="736.669922"/>
     <use xlink:href="#DejaVuSans-48" x="797.753906"/>
     <use xlink:href="#DejaVuSans-3a" x="872.949219"/>
     <use xlink:href="#DejaVuSans-33" x="906.640625"/>
     <use xlink:href="#DejaVuSans-33" x="970.263672"/>
    </g>
   </g>
   <g id="patch_2">
    <path d="M 385.43647 266.339846 
L 415.56657 266.339846 
L 415.56657 236.209747 
L 385.43647 236.209747 
z
" clip-path="url(#pbd33eeab94)" style="fill: #ffffff; stroke: #000000; stroke-width: 1.5; stroke-linejoin: miter"/>
   </g>
   <g id="patch_3">
    <path d="M 385.43647 312.693846 
L 415.56657 312.693846 
L 415.56657 282.563746 
L 385.43647 282.563746 
z
" clip-path="url(#pbd33eeab94)" style="fill: #ffffff; stroke: #000000; stroke-width: 1.5; stroke-linejoin: miter"/>
   </g>
   <g id="patch_4">
    <path d="M 385.43647 359.047845 
L 415.56657 359.047845 
L 415.56657 328.917746 
L 385.43647 328.917746 
z
" clip-path="url(#pbd33eeab94)" style="fill: #ffffff; stroke: #000000; stroke-width: 1.5; stroke-linejoin: miter"/>
   </g>
   <g id="patch_5">
    <path d="M 400.50152 163.086313 
C 401.70011 163.086313 402.849769 162.610108 403.6973 161.762578 
C 404.544831 160.915047 405.021035 159.765387 405.021035 158.566798 
C 405.021035 157.368209 404.544831 156.218549 403.6973 155.371018 
C 402.849769 154.523488 401.70011 154.047283 400.50152 154.047283 
C 399.302931 154.047283 398.153271 154.523488 397.305741 155.371018 
C 396.45821 156.218549 395.982005 157.368209 395.982005 158.566798 
C 395.982005 159.765387 396.45821 160.915047 397.305741 161.762578 
C 398.153271 162.610108 399.302931 163.086313 400.50152 163.086313 
z
" clip-path="url(#pbd33eeab94)" style="stroke: #000000; stroke-width: 1.5; stroke-linejoin: miter"/>
   </g>
   <g id="patch_6">
    <path d="M 400.50152 122.758333 
C 403.298229 122.758333 405.980768 121.647189 407.958339 119.669618 
C 409.935911 117.692046 411.047055 115.009507 411.047055 112.212799 
C 411.047055 109.41609 409.935911 106.733551 407.958339 104.755979 
C 405.980768 102.778408 403.298229 101.667264 400.50152 101.667264 
C 397.704812 101.667264 395.022273 102.778408 393.044701 104.755979 
C 391.067129 106.733551 389.955985 109.41609 389.955985 112.212799 
C 389.955985 115.009507 391.067129 117.692046 393.044701 119.669618 
C 395.022273 121.647189 397.704812 122.758333 400.50152 122.758333 
z
" clip-path="url(#pbd33eeab94)" style="stroke: #000000; stroke-width: 2; stroke-linejoin: miter"/>
   </g>
   <g id="patch_7">
    <path d="M 446.85552 255.794312 
C 448.054109 255.794312 449.203769 255.318107 450.051299 254.470576 
C 450.89883 253.623046 451.375035 252.473386 451.375035 251.274797 
C 451.375035 250.076207 450.89883 248.926548 450.051299 248.079017 
C 449.203769 247.231486 448.054109 246.755282 446.85552 246.755282 
C 445.65693 246.755282 444.507271 247.231486 443.65974 248.079017 
C 442.812209 248.926548 442.336005 250.076207 442.336005 251.274797 
C 442.336005 252.473386 442.812209 253.623046 443.65974 254.470576 
C 444.507271 255.318107 445.65693 255.794312 446.85552 255.794312 
z
" clip-path="url(#pbd33eeab94)" style="stroke: #000000; stroke-width: 1.5; stroke-linejoin: miter"/>
   </g>
   <g id="patch_8">
    <path d="M 446.85552 493.590328 
C 449.652228 493.590328 452.334767 492.479184 454.312339 490.501613 
C 456.28991 488.524041 457.401055 485.841502 457.401055 483.044794 
C 457.401055 480.248085 456.28991 477.565546 454.312339 475.587974 
C 452.334767 473.610403 449.652228 472.499259 446.85552 472.499259 
C 444.058811 472.499259 441.376272 473.610403 439.3987 475.587974 
C 437.421129 477.565546 436.309985 480.248085 436.309985 483.044794 
C 436.309985 485.841502 437.421129 488.524041 439.3987 490.501613 
C 441.376272 492.479184 444.058811 493.590328 446.85552 493.590328 
z
" clip-path="url(#pbd33eeab94)" style="stroke: #000000; stroke-width: 2; stroke-linejoin: miter"/>
   </g>
   <g id="patch_9">
    <path d="M 446.85552 209.440312 
C 448.054109 209.440312 449.203769 208.964108 450.051299 208.116577 
C 450.89883 207.269046 451.375035 206.119387 451.375035 204.920797 
C 451.375035 203.722208 450.89883 202.572548 450.051299 201.725018 
C 449.203769 200.877487 448.054109 200.401282 446.85552 200.401282 
C 445.65693 200.401282 444.507271 200.877487 443.65974 201.725018 
C 442.812209 202.572548 442.336005 203.722208 442.336005 204.920797 
C 442.336005 206.119387 442.812209 207.269046 443.65974 208.116577 
C 444.507271 208.964108 445.65693 209.440312 446.85552 209.440312 
z
" clip-path="url(#pbd33eeab94)" style="stroke: #000000; stroke-width: 1.5; stroke-linejoin: miter"/>
   </g>
   <g id="patch_10">
    <path d="M 446.85552 122.758333 
C 449.652228 122.758333 452.334767 121.647189 454.312339 119.669618 
C 456.28991 117.692046 457.401055 115.009507 457.401055 112.212799 
C 457.401055 109.41609 456.28991 106.733551 454.312339 104.755979 
C 452.334767 102.778408 449.652228 101.667264 446.85552 101.667264 
C 444.058811 101.667264 441.376272 102.778408 439.3987 104.755979 
C 437.421129 106.733551 436.309985 109.41609 436.309985 112.212799 
C 436.309985 115.009507 437.421129 117.692046 439.3987 119.669618 
C 441.376272 121.647189 444.058811 122.758333 446.85552 122.758333 
z
" clip-path="url(#pbd33eeab94)" style="stroke: #000000; stroke-width: 2; stroke-linejoin: miter"/>
   </g>
   <g id="patch_11">
    <path d="M 478.144469 359.047845 
L 508.274569 359.047845 
L 508.274569 328.917746 
L 478.144469 328.917746 
z
" clip-path="url(#pbd33eeab94)" style="fill: #ffffff; stroke: #000000; stroke-width: 1.5; stroke-linejoin: miter"/>
   </g>
   <g id="patch_12">
    <path d="M 539.563518 302.148311 
C 540.762108 302.148311 541.911767 301.672106 542.759298 300.824576 
C 543.606829 299.977045 544.083033 298.827385 544.083033 297.628796 
C 544.083033 296.430207 543.606829 295.280547 542.759298 294.433016 
C 541.911767 293.585486 540.762108 293.109281 539.563518 293.109281 
C 538.364929 293.109281 537.215269 293.585486 536.367739 294.433016 
C 535.520208 295.280547 535.044003 296.430207 535.044003 297.628796 
C 535.044003 298.827385 535.520208 299.977045 536.367739 300.824576 
C 537.215269 301.672106 538.364929 302.148311 539.563518 302.148311 
z
" clip-path="url(#pbd33eeab94)" style="stroke: #000000; stroke-width: 1.5; stroke-linejoin: miter"/>
   </g>
   <g id="patch_13">
    <path d="M 539.563518 493.590328 
C 542.360227 493.590328 545.042766 492.479184 547.020338 490.501613 
C 548.997909 488.524041 550.109053 485.841502 550.109053 483.044794 
C 550.109053 480.248085 548.997909 477.565546 547.020338 475.587974 
C 545.042766 473.610403 542.360227 472.499259 539.563518 472.499259 
C 536.76681 472.499259 534.084271 473.610403 532.106699 475.587974 
C 530.129128 477.565546 529.017984 480.248085 529.017984 483.044794 
C 529.017984 485.841502 530.129128 488.524041 532.106699 490.501613 
C 534.084271 492.479184 536.76681 493.590328 539.563518 493.590328 
z
" clip-path="url(#pbd33eeab94)" style="stroke: #000000; stroke-width: 2; stroke-linejoin: miter"/>
   </g>
   <g id="patch_14">
    <path d="M 585.917518 348.50231 
C 587.116107 348.50231 588.265767 348.026106 589.113297 347.178575 
C 589.960828 346.331044 590.437033 345.181385 590.437033 343.982795 
C 590.437033 342.784206 589.960828 341.634546 589.113297 340.787016 
C 588.265767 339.939485 587.116107 339.46328 585.917518 339.46328 
C 584.718928 339.46328 583.569269 339.939485 582.721738 340.787016 
C 581.874207 341.634546 581.398003 342.784206 581.398003 343.982795 
C 581.398003 345.181385 581.874207 346.331044 582.721738 347.178575 
C 583.569269 348.026106 584.718928 348.50231 585.917518 348.50231 
z
" clip-path="url(#pbd33eeab94)" style="stroke: #000000; stroke-width: 1.5; stroke-linejoin: miter"/>
   </g>
   <g id="patch_15">
    <path d="M 585.917518 493.590328 
C 588.714226 493.590328 591.396765 492.479184 593.374337 490.501613 
C 595.351909 488.524041 596.463053 485.841502 596.463053 483.044794 
C 596.463053 480.248085 595.351909 477.565546 593.374337 475.587974 
C 591.396765 473.610403 588.714226 472.499259 585.917518 472.499259 
C 583.120809 472.499259 580.43827 473.610403 578.460699 475.587974 
C 576.483127 477.565546 575.371983 480.248085 575.371983 483.044794 
C 575.371983 485.841502 576.483127 488.524041 578.460699 490.501613 
C 580.43827 492.479184 583.120809 493.590328 585.917518 493.590328 
z
" clip-path="url(#pbd33eeab94)" style="stroke: #000000; stroke-width: 2; stroke-linejoin: miter"/>
   </g>
   <g id="patch_16">
    <path d="M 632.271517 394.85631 
C 633.470107 394.85631 634.619766 394.380105 635.467297 393.532574 
C 636.314828 392.685044 636.791032 391.535384 636.791032 390.336795 
C 636.791032 389.138205 636.314828 387.988546 635.467297 387.141015 
C 634.619766 386.293484 633.470107 385.81728 632.271517 385.81728 
C 631.072928 385.81728 629.923268 386.293484 629.075738 387.141015 
C 628.228207 387.988546 627.752002 389.138205 627.752002 390.336795 
C 627.752002 391.535384 628.228207 392.685044 629.075738 393.532574 
C 629.923268 394.380105 631.072928 394.85631 632.271517 394.85631 
z
" clip-path="url(#pbd33eeab94)" style="stroke: #000000; stroke-width: 1.5; stroke-linejoin: miter"/>
   </g>
   <g id="patch_17">
    <path d="M 632.271517 493.590328 
C 635.068226 493.590328 637.750765 492.479184 639.728336 490.501613 
C 641.705908 488.524041 642.817052 485.841502 642.817052 483.044794 
C 642.817052 480.248085 641.705908 477.565546 639.728336 475.587974 
C 637.750765 473.610403 635.068226 472.499259 632.271517 472.499259 
C 629.474809 472.499259 626.79227 473.610403 624.814698 475.587974 
C 622.837126 477.565546 621.725982 480.248085 621.725982 483.044794 
C 621.725982 485.841502 622.837126 488.524041 624.814698 490.501613 
C 626.79227 492.479184 629.474809 493.590328 632.271517 493.590328 
z
" clip-path="url(#pbd33eeab94)" style="stroke: #000000; stroke-width: 2; stroke-linejoin: miter"/>
   </g>
   <g id="patch_18">
    <path d="M 678.625517 441.210309 
C 679.824106 441.210309 680.973766 440.734105 681.821296 439.886574 
C 682.668827 439.039043 683.145032 437.889384 683.145032 436.690794 
C 683.145032 435.492205 682.668827 434.342545 681.821296 433.495015 
C 680.973766 432.647484 679.824106 432.171279 678.625517 432.171279 
C 677.426927 432.171279 676.277268 432.647484 675.429737 433.495015 
C 674.582206 434.342545 674.106002 435.492205 674.106002 436.690794 
C 674.106002 437.889384 674.582206 439.039043 675.429737 439.886574 
C 676.277268 440.734105 677.426927 441.210309 678.625517 441.210309 
z
" clip-path="url(#pbd33eeab94)" style="stroke: #000000; stroke-width: 1.5; stroke-linejoin: miter"/>
   </g>
   <g id="patch_19">
    <path d="M 678.625517 493.590328 
C 681.422225 493.590328 684.104764 492.479184 686.082336 490.501613 
C 688.059907 488.524041 689.171051 485.841502 689.171051 483.044794 
C 689.171051 480.248085 688.059907 477.565546 686.082336 475.587974 
C 684.104764 473.610403 681.422225 472.499259 678.625517 472.499259 
C 675.828808 472.499259 673.146269 473.610403 671.168697 475.587974 
C 669.191126 477.565546 668.079982 480.248085 668.079982 483.044794 
C 668.079982 485.841502 669.191126 488.524041 671.168697 490.501613 
C 673.146269 492.479184 675.828808 493.590328 678.625517 493.590328 
z
" clip-path="url(#pbd33eeab94)" style="stroke: #000000; stroke-width: 2; stroke-linejoin: miter"/>
   </g>
   <g id="patch_20">
    <path d="M 707.205075 498.109843 
L 742.753957 498.109843 
L 742.753957 467.979744 
L 707.205075 467.979744 
z
" clip-path="url(#pbd33eeab94)" style="fill: #ffffff; stroke: #000000; stroke-width: 1.5; stroke-linejoin: miter"/>
   </g>
   <g id="patch_21">
    <path d="M 771.333515 441.210309 
C 772.532105 441.210309 773.681764 440.734105 774.529295 439.886574 
C 775.376826 439.039043 775.85303 437.889384 775.85303 436.690794 
C 775.85303 435.492205 775.376826 434.342545 774.529295 433.495015 
C 773.681764 432.647484 772.532105 432.171279 771.333515 432.171279 
C 770.134926 432.171279 768.985266 432.647484 768.137736 433.495015 
C 767.290205 434.342545 766.814 435.492205 766.814 436.690794 
C 766.814 437.889384 767.290205 439.039043 768.137736 439.886574 
C 768.985266 440.734105 770.134926 441.210309 771.333515 441.210309 
z
" clip-path="url(#pbd33eeab94)" style="stroke: #000000; stroke-width: 1.5; stroke-linejoin: miter"/>
   </g>
   <g id="patch_22">
    <path d="M 771.333515 493.590328 
C 774.130224 493.590328 776.812763 492.479184 778.790335 490.501613 
C 780.767906 488.524041 781.87905 485.841502 781.87905 483.044794 
C 781.87905 480.248085 780.767906 477.565546 778.790335 475.587974 
C 776.812763 473.610403 774.130224 472.499259 771.333515 472.499259 
C 768.536807 472.499259 765.854268 473.610403 763.876696 475.587974 
C 761.899125 477.565546 760.78798 480.248085 760.78798 483.044794 
C 760.78798 485.841502 761.899125 488.524041 763.876696 490.501613 
C 765.854268 492.479184 768.536807 493.590328 771.333515 493.590328 
z
" clip-path="url(#pbd33eeab94)" style="stroke: #000000; stroke-width: 2; stroke-linejoin: miter"/>
   </g>
   <g id="patch_23">
    <path d="M 817.687515 394.85631 
C 818.886104 394.85631 820.035764 394.380105 820.883294 393.532574 
C 821.730825 392.685044 822.20703 391.535384 822.20703 390.336795 
C 822.20703 389.138205 821.730825 387.988546 820.883294 387.141015 
C 820.035764 386.293484 818.886104 385.81728 817.687515 385.81728 
C 816.488925 385.81728 815.339266 386.293484 814.491735 387.141015 
C 813.644204 387.988546 813.168 389.138205 813.168 390.336795 
C 813.168 391.535384 813.644204 392.685044 814.491735 393.532574 
C 815.339266 394.380105 816.488925 394.85631 817.687515 394.85631 
z
" clip-path="url(#pbd33eeab94)" style="stroke: #000000; stroke-width: 1.5; stroke-linejoin: miter"/>
   </g>
   <g id="patch_24">
    <path d="M 817.687515 493.590328 
C 820.484223 493.590328 823.166762 492.479184 825.144334 490.501613 
C 827.121906 488.524041 828.23305 485.841502 828.23305 483.044794 
C 828.23305 480.248085 827.121906 477.565546 825.144334 475.587974 
C 823.166762 473.610403 820.484223 472.499259 817.687515 472.499259 
C 814.890806 472.499259 812.208267 473.610403 810.230696 475.587974 
C 808.253124 477.565546 807.14198 480.248085 807.14198 483.044794 
C 807.14198 485.841502 808.253124 488.524041 810.230696 490.501613 
C 812.208267 492.479184 814.890806 493.590328 817.687515 493.590328 
z
" clip-path="url(#pbd33eeab94)" style="stroke: #000000; stroke-width: 2; stroke-linejoin: miter"/>
   </g>
   <g id="patch_25">
    <path d="M 864.041514 348.50231 
C 865.240103 348.50231 866.389763 348.026106 867.237294 347.178575 
C 868.084824 346.331044 868.561029 345.181385 868.561029 343.982795 
C 868.561029 342.784206 868.084824 341.634546 867.237294 340.787016 
C 866.389763 339.939485 865.240103 339.46328 864.041514 339.46328 
C 862.842925 339.46328 861.693265 339.939485 860.845734 340.787016 
C 859.998204 341.634546 859.521999 342.784206 859.521999 343.982795 
C 859.521999 345.181385 859.998204 346.331044 860.845734 347.178575 
C 861.693265 348.026106 862.842925 348.50231 864.041514 348.50231 
z
" clip-path="url(#pbd33eeab94)" style="stroke: #000000; stroke-width: 1.5; stroke-linejoin: miter"/>
   </g>
   <g id="patch_26">
    <path d="M 864.041514 493.590328 
C 866.838223 493.590328 869.520762 492.479184 871.498333 490.501613 
C 873.475905 488.524041 874.587049 485.841502 874.587049 483.044794 
C 874.587049 480.248085 873.475905 477.565546 871.498333 475.587974 
C 869.520762 473.610403 866.838223 472.499259 864.041514 472.499259 
C 861.244806 472.499259 858.562266 473.610403 856.584695 475.587974 
C 854.607123 477.565546 853.495979 480.248085 853.495979 483.044794 
C 853.495979 485.841502 854.607123 488.524041 856.584695 490.501613 
C 858.562266 492.479184 861.244806 493.590328 864.041514 493.590328 
z
" clip-path="url(#pbd33eeab94)" style="stroke: #000000; stroke-width: 2; stroke-linejoin: miter"/>
   </g>
   <g id="patch_27">
    <path d="M 895.330464 359.047845 
L 925.460563 359.047845 
L 925.460563 328.917746 
L 895.330464 328.917746 
z
" clip-path="url(#pbd33eeab94)" style="fill: #ffffff; stroke: #000000; stroke-width: 1.5; stroke-linejoin: miter"/>
   </g>
   <g id="patch_28">
    <path d="M 956.749513 302.148311 
C 957.948102 302.148311 959.097762 301.672106 959.945293 300.824576 
C 960.792823 299.977045 961.269028 298.827385 961.269028 297.628796 
C 961.269028 296.430207 960.792823 295.280547 959.945293 294.433016 
C 959.097762 293.585486 957.948102 293.109281 956.749513 293.109281 
C 955.550924 293.109281 954.401264 293.585486 953.553733 294.433016 
C 952.706203 295.280547 952.229998 296.430207 952.229998 297.628796 
C 952.229998 298.827385 952.706203 299.977045 953.553733 300.824576 
C 954.401264 301.672106 955.550924 302.148311 956.749513 302.148311 
z
" clip-path="url(#pbd33eeab94)" style="stroke: #000000; stroke-width: 1.5; stroke-linejoin: miter"/>
   </g>
   <g id="patch_29">
    <path d="M 956.749513 493.590328 
C 959.546221 493.590328 962.228761 492.479184 964.206332 490.501613 
C 966.183904 488.524041 967.295048 485.841502 967.295048 483.044794 
C 967.295048 480.248085 966.183904 477.565546 964.206332 475.587974 
C 962.228761 473.610403 959.546221 472.499259 956.749513 472.499259 
C 953.952804 472.499259 951.270265 473.610403 949.292694 475.587974 
C 947.315122 477.565546 946.203978 480.248085 946.203978 483.044794 
C 946.203978 485.841502 947.315122 488.524041 949.292694 490.501613 
C 951.270265 492.479184 953.952804 493.590328 956.749513 493.590328 
z
" clip-path="url(#pbd33eeab94)" style="stroke: #000000; stroke-width: 2; stroke-linejoin: miter"/>
   </g>
   <g id="patch_30">
    <path d="M 988.038462 359.047845 
L 1018.168562 359.047845 
L 1018.168562 328.917746 
L 988.038462 328.917746 
z
" clip-path="url(#pbd33eeab94)" style="fill: #ffffff; stroke: #000000; stroke-width: 1.5; stroke-linejoin: miter"/>
   </g>
   <g id="patch_31">
    <path d="M 988.038462 312.693846 
L 1018.168562 312.693846 
L 1018.168562 282.563746 
L 988.038462 282.563746 
z
" clip-path="url(#pbd33eeab94)" style="fill: #ffffff; stroke: #000000; stroke-width: 1.5; stroke-linejoin: miter"/>
   </g>
   <g id="patch_32">
    <path d="M 1049.457512 255.794312 
C 1050.656101 255.794312 1051.805761 255.318107 1052.653291 254.470576 
C 1053.500822 253.623046 1053.977027 252.473386 1053.977027 251.274797 
C 1053.977027 250.076207 1053.500822 248.926548 1052.653291 248.079017 
C 1051.805761 247.231486 1050.656101 246.755282 1049.457512 246.755282 
C 1048.258922 246.755282 1047.109263 247.231486 1046.261732 248.079017 
C 1045.414201 248.926548 1044.937997 250.076207 1044.937997 251.274797 
C 1044.937997 252.473386 1045.414201 253.623046 1046.261732 254.470576 
C 1047.109263 255.318107 1048.258922 255.794312 1049.457512 255.794312 
z
" clip-path="url(#pbd33eeab94)" style="stroke: #000000; stroke-width: 1.5; stroke-linejoin: miter"/>
   </g>
   <g id="patch_33">
    <path d="M 1049.457512 493.590328 
C 1052.25422 493.590328 1054.936759 492.479184 1056.914331 490.501613 
C 1058.891902 488.524041 1060.003047 485.841502 1060.003047 483.044794 
C 1060.003047 480.248085 1058.891902 477.565546 1056.914331 475.587974 
C 1054.936759 473.610403 1052.25422 472.499259 1049.457512 472.499259 
C 1046.660803 472.499259 1043.978264 473.610403 1042.000692 475.587974 
C 1040.023121 477.565546 1038.911977 480.248085 1038.911977 483.044794 
C 1038.911977 485.841502 1040.023121 488.524041 1042.000692 490.501613 
C 1043.978264 492.479184 1046.660803 493.590328 1049.457512 493.590328 
z
" clip-path="url(#pbd33eeab94)" style="stroke: #000000; stroke-width: 2; stroke-linejoin: miter"/>
   </g>
   <g id="patch_34">
    <path d="M 1095.811511 302.148311 
C 1097.0101 302.148311 1098.15976 301.672106 1099.007291 300.824576 
C 1099.854821 299.977045 1100.331026 298.827385 1100.331026 297.628796 
C 1100.331026 296.430207 1099.854821 295.280547 1099.007291 294.433016 
C 1098.15976 293.585486 1097.0101 293.109281 1095.811511 293.109281 
C 1094.612922 293.109281 1093.463262 293.585486 1092.615731 294.433016 
C 1091.768201 295.280547 1091.291996 296.430207 1091.291996 297.628796 
C 1091.291996 298.827385 1091.768201 299.977045 1092.615731 300.824576 
C 1093.463262 301.672106 1094.612922 302.148311 1095.811511 302.148311 
z
" clip-path="url(#pbd33eeab94)" style="stroke: #000000; stroke-width: 1.5; stroke-linejoin: miter"/>
   </g>
   <g id="patch_35">
    <path d="M 1095.811511 539.944328 
C 1098.60822 539.944328 1101.290759 538.833184 1103.26833 536.855612 
C 1105.245902 534.878041 1106.357046 532.195502 1106.357046 529.398793 
C 1106.357046 526.602084 1105.245902 523.919545 1103.26833 521.941974 
C 1101.290759 519.964402 1098.60822 518.853258 1095.811511 518.853258 
C 1093.014803 518.853258 1090.332263 519.964402 1088.354692 521.941974 
C 1086.37712 523.919545 1085.265976 526.602084 1085.265976 529.398793 
C 1085.265976 532.195502 1086.37712 534.878041 1088.354692 536.855612 
C 1090.332263 538.833184 1093.014803 539.944328 1095.811511 539.944328 
z
" clip-path="url(#pbd33eeab94)" style="stroke: #000000; stroke-width: 2; stroke-linejoin: miter"/>
   </g>
   <g id="patch_36">
    <path d="M 1080.746461 266.339846 
L 1110.876561 266.339846 
L 1110.876561 236.209747 
L 1080.746461 236.209747 
z
" clip-path="url(#pbd33eeab94)" style="fill: #ffffff; stroke: #000000; stroke-width: 1.5; stroke-linejoin: miter"/>
   </g>
   <g id="patch_37">
    <path d="M 1127.100461 498.109843 
L 1157.23056 498.109843 
L 1157.23056 467.979744 
L 1127.100461 467.979744 
z
" clip-path="url(#pbd33eeab94)" style="fill: #ffffff; stroke: #000000; stroke-width: 1.5; stroke-linejoin: miter"/>
   </g>
   <g id="patch_38">
    <path d="M 1188.51951 255.794312 
C 1189.718099 255.794312 1190.867759 255.318107 1191.715289 254.470576 
C 1192.56282 253.623046 1193.039025 252.473386 1193.039025 251.274797 
C 1193.039025 250.076207 1192.56282 248.926548 1191.715289 248.079017 
C 1190.867759 247.231486 1189.718099 246.755282 1188.51951 246.755282 
C 1187.32092 246.755282 1186.171261 247.231486 1185.32373 248.079017 
C 1184.476199 248.926548 1183.999995 250.076207 1183.999995 251.274797 
C 1183.999995 252.473386 1184.476199 253.623046 1185.32373 254.470576 
C 1186.171261 255.318107 1187.32092 255.794312 1188.51951 255.794312 
z
" clip-path="url(#pbd33eeab94)" style="stroke: #000000; stroke-width: 1.5; stroke-linejoin: miter"/>
   </g>
   <g id="patch_39">
    <path d="M 1188.51951 539.944328 
C 1191.316218 539.944328 1193.998757 538.833184 1195.976329 536.855612 
C 1197.953901 534.878041 1199.065045 532.195502 1199.065045 529.398793 
C 1199.065045 526.602084 1197.953901 523.919545 1195.976329 521.941974 
C 1193.998757 519.964402 1191.316218 518.853258 1188.51951 518.853258 
C 1185.722801 518.853258 1183.040262 519.964402 1181.062691 521.941974 
C 1179.085119 523.919545 1177.973975 526.602084 1177.973975 529.398793 
C 1177.973975 532.195502 1179.085119 534.878041 1181.062691 536.855612 
C 1183.040262 538.833184 1185.722801 539.944328 1188.51951 539.944328 
z
" clip-path="url(#pbd33eeab94)" style="stroke: #000000; stroke-width: 2; stroke-linejoin: miter"/>
   </g>
   <g id="patch_40">
    <path d="M 1219.808459 544.463843 
L 1249.938559 544.463843 
L 1249.938559 514.333743 
L 1219.808459 514.333743 
z
" clip-path="url(#pbd33eeab94)" style="fill: #ffffff; stroke: #000000; stroke-width: 1.5; stroke-linejoin: miter"/>
   </g>
   <g id="patch_41">
    <path d="M 1219.808459 266.339846 
L 1249.938559 266.339846 
L 1249.938559 236.209747 
L 1219.808459 236.209747 
z
" clip-path="url(#pbd33eeab94)" style="fill: #ffffff; stroke: #000000; stroke-width: 1.5; stroke-linejoin: miter"/>
   </g>
   <g id="patch_42">
    <path d="M 1281.227509 302.148311 
C 1282.426098 302.148311 1283.575758 301.672106 1284.423288 300.824576 
C 1285.270819 299.977045 1285.747024 298.827385 1285.747024 297.628796 
C 1285.747024 296.430207 1285.270819 295.280547 1284.423288 294.433016 
C 1283.575758 293.585486 1282.426098 293.109281 1281.227509 293.109281 
C 1280.028919 293.109281 1278.87926 293.585486 1278.031729 294.433016 
C 1277.184198 295.280547 1276.707994 296.430207 1276.707994 297.628796 
C 1276.707994 298.827385 1277.184198 299.977045 1278.031729 300.824576 
C 1278.87926 301.672106 1280.028919 302.148311 1281.227509 302.148311 
z
" clip-path="url(#pbd33eeab94)" style="stroke: #000000; stroke-width: 1.5; stroke-linejoin: miter"/>
   </g>
   <g id="patch_43">
    <path d="M 1281.227509 539.944328 
C 1284.024217 539.944328 1286.706756 538.833184 1288.684328 536.855612 
C 1290.661899 534.878041 1291.773043 532.195502 1291.773043 529.398793 
C 1291.773043 526.602084 1290.661899 523.919545 1288.684328 521.941974 
C 1286.706756 519.964402 1284.024217 518.853258 1281.227509 518.853258 
C 1278.4308 518.853258 1275.748261 519.964402 1273.770689 521.941974 
C 1271.793118 523.919545 1270.681974 526.602084 1270.681974 529.398793 
C 1270.681974 532.195502 1271.793118 534.878041 1273.770689 536.855612 
C 1275.748261 538.833184 1278.4308 539.944328 1281.227509 539.944328 
z
" clip-path="url(#pbd33eeab94)" style="stroke: #000000; stroke-width: 2; stroke-linejoin: miter"/>
   </g>
   <g id="patch_44">
    <path d="M 1281.227509 255.794312 
C 1282.426098 255.794312 1283.575758 255.318107 1284.423288 254.470576 
C 1285.270819 253.623046 1285.747024 252.473386 1285.747024 251.274797 
C 1285.747024 250.076207 1285.270819 248.926548 1284.423288 248.079017 
C 1283.575758 247.231486 1282.426098 246.755282 1281.227509 246.755282 
C 1280.028919 246.755282 1278.87926 247.231486 1278.031729 248.079017 
C 1277.184198 248.926548 1276.707994 250.076207 1276.707994 251.274797 
C 1276.707994 252.473386 1277.184198 253.623046 1278.031729 254.470576 
C 1278.87926 255.318107 1280.028919 255.794312 1281.227509 255.794312 
z
" clip-path="url(#pbd33eeab94)" style="stroke: #000000; stroke-width: 1.5; stroke-linejoin: miter"/>
   </g>
   <g id="patch_45">
    <path d="M 1281.227509 122.758333 
C 1284.024217 122.758333 1286.706756 121.647189 1288.684328 119.669618 
C 1290.661899 117.692046 1291.773043 115.009507 1291.773043 112.212799 
C 1291.773043 109.41609 1290.661899 106.733551 1288.684328 104.755979 
C 1286.706756 102.778408 1284.024217 101.667264 1281.227509 101.667264 
C 1278.4308 101.667264 1275.748261 102.778408 1273.770689 104.755979 
C 1271.793118 106.733551 1270.681974 109.41609 1270.681974 112.212799 
C 1270.681974 115.009507 1271.793118 117.692046 1273.770689 119.669618 
C 1275.748261 121.647189 1278.4308 122.758333 1281.227509 122.758333 
z
" clip-path="url(#pbd33eeab94)" style="stroke: #000000; stroke-width: 2; stroke-linejoin: miter"/>
   </g>
   <g id="patch_46">
    <path d="M 1327.581508 487.564309 
C 1328.780097 487.564309 1329.929757 487.088104 1330.777288 486.240573 
C 1331.624818 485.393043 1332.101023 484.243383 1332.101023 483.044794 
C 1332.101023 481.846204 1331.624818 480.696545 1330.777288 479.849014 
C 1329.929757 479.001483 1328.780097 478.525279 1327.581508 478.525279 
C 1326.382919 478.525279 1325.233259 479.001483 1324.385728 479.849014 
C 1323.538198 480.696545 1323.061993 481.846204 1323.061993 483.044794 
C 1323.061993 484.243383 1323.538198 485.393043 1324.385728 486.240573 
C 1325.233259 487.088104 1326.382919 487.564309 1327.581508 487.564309 
z
" clip-path="url(#pbd33eeab94)" style="stroke: #000000; stroke-width: 1.5; stroke-linejoin: miter"/>
   </g>
   <g id="patch_47">
    <path d="M 1327.581508 122.758333 
C 1330.378216 122.758333 1333.060756 121.647189 1335.038327 119.669618 
C 1337.015899 117.692046 1338.127043 115.009507 1338.127043 112.212799 
C 1338.127043 109.41609 1337.015899 106.733551 1335.038327 104.755979 
C 1333.060756 102.778408 1330.378216 101.667264 1327.581508 101.667264 
C 1324.784799 101.667264 1322.10226 102.778408 1320.124689 104.755979 
C 1318.147117 106.733551 1317.035973 109.41609 1317.035973 112.212799 
C 1317.035973 115.009507 1318.147117 117.692046 1320.124689 119.669618 
C 1322.10226 121.647189 1324.784799 122.758333 1327.581508 122.758333 
z
" clip-path="url(#pbd33eeab94)" style="stroke: #000000; stroke-width: 2; stroke-linejoin: miter"/>
   </g>
   <g id="patch_48">
    <path d="M 1312.516458 544.463843 
L 1342.646558 544.463843 
L 1342.646558 514.333743 
L 1312.516458 514.333743 
z
" clip-path="url(#pbd33eeab94)" style="fill: #ffffff; stroke: #000000; stroke-width: 1.5; stroke-linejoin: miter"/>
   </g>
   <g id="patch_49">
    <path d="M 1358.870458 312.693846 
L 1389.000557 312.693846 
L 1389.000557 282.563746 
L 1358.870458 282.563746 
z
" clip-path="url(#pbd33eeab94)" style="fill: #ffffff; stroke: #000000; stroke-width: 1.5; stroke-linejoin: miter"/>
   </g>
   <g id="patch_50">
    <path d="M 1420.289507 533.918308 
C 1421.488096 533.918308 1422.637756 533.442103 1423.485286 532.594573 
C 1424.332817 531.747042 1424.809022 530.597382 1424.809022 529.398793 
C 1424.809022 528.200204 1424.332817 527.050544 1423.485286 526.203013 
C 1422.637756 525.355483 1421.488096 524.879278 1420.289507 524.879278 
C 1419.090917 524.879278 1417.941258 525.355483 1417.093727 526.203013 
C 1416.246196 527.050544 1415.769992 528.200204 1415.769992 529.398793 
C 1415.769992 530.597382 1416.246196 531.747042 1417.093727 532.594573 
C 1417.941258 533.442103 1419.090917 533.918308 1420.289507 533.918308 
z
" clip-path="url(#pbd33eeab94)" style="stroke: #000000; stroke-width: 1.5; stroke-linejoin: miter"/>
   </g>
   <g id="patch_51">
    <path d="M 1420.289507 122.758333 
C 1423.086215 122.758333 1425.768754 121.647189 1427.746326 119.669618 
C 1429.723898 117.692046 1430.835042 115.009507 1430.835042 112.212799 
C 1430.835042 109.41609 1429.723898 106.733551 1427.746326 104.755979 
C 1425.768754 102.778408 1423.086215 101.667264 1420.289507 101.667264 
C 1417.492798 101.667264 1414.810259 102.778408 1412.832688 104.755979 
C 1410.855116 106.733551 1409.743972 109.41609 1409.743972 112.212799 
C 1409.743972 115.009507 1410.855116 117.692046 1412.832688 119.669618 
C 1414.810259 121.647189 1417.492798 122.758333 1420.289507 122.758333 
z
" clip-path="url(#pbd33eeab94)" style="stroke: #000000; stroke-width: 2; stroke-linejoin: miter"/>
   </g>
   <g id="patch_52">
    <path d="M 1448.869065 127.277848 
L 1484.417947 127.277848 
L 1484.417947 97.147749 
L 1448.869065 97.147749 
z
" clip-path="url(#pbd33eeab94)" style="fill: #ffffff; stroke: #000000; stroke-width: 1.5; stroke-linejoin: miter"/>
   </g>
   <g id="patch_53">
    <path d="M 1512.997505 533.918308 
C 1514.196095 533.918308 1515.345754 533.442103 1516.193285 532.594573 
C 1517.040816 531.747042 1517.51702 530.597382 1517.51702 529.398793 
C 1517.51702 528.200204 1517.040816 527.050544 1516.193285 526.203013 
C 1515.345754 525.355483 1514.196095 524.879278 1512.997505 524.879278 
C 1511.798916 524.879278 1510.649257 525.355483 1509.801726 526.203013 
C 1508.954195 527.050544 1508.477991 528.200204 1508.477991 529.398793 
C 1508.477991 530.597382 1508.954195 531.747042 1509.801726 532.594573 
C 1510.649257 533.442103 1511.798916 533.918308 1512.997505 533.918308 
z
" clip-path="url(#pbd33eeab94)" style="stroke: #000000; stroke-width: 1.5; stroke-linejoin: miter"/>
   </g>
   <g id="patch_54">
    <path d="M 1512.997505 122.758333 
C 1515.794214 122.758333 1518.476753 121.647189 1520.454325 119.669618 
C 1522.431896 117.692046 1523.54304 115.009507 1523.54304 112.212799 
C 1523.54304 109.41609 1522.431896 106.733551 1520.454325 104.755979 
C 1518.476753 102.778408 1515.794214 101.667264 1512.997505 101.667264 
C 1510.200797 101.667264 1507.518258 102.778408 1505.540686 104.755979 
C 1503.563115 106.733551 1502.451971 109.41609 1502.451971 112.212799 
C 1502.451971 115.009507 1503.563115 117.692046 1505.540686 119.669618 
C 1507.518258 121.647189 1510.200797 122.758333 1512.997505 122.758333 
z
" clip-path="url(#pbd33eeab94)" style="stroke: #000000; stroke-width: 2; stroke-linejoin: miter"/>
   </g>
   <g id="patch_55">
    <path d="M 1544.286455 544.463843 
L 1574.416555 544.463843 
L 1574.416555 514.333743 
L 1544.286455 514.333743 
z
" clip-path="url(#pbd33eeab94)" style="fill: #ffffff; stroke: #000000; stroke-width: 1.5; stroke-linejoin: miter"/>
   </g>
   <g id="patch_56">
    <path d="M 1559.351505 487.564309 
C 1560.550094 487.564309 1561.699754 487.088104 1562.547285 486.240573 
C 1563.394815 485.393043 1563.87102 484.243383 1563.87102 483.044794 
C 1563.87102 481.846204 1563.394815 480.696545 1562.547285 479.849014 
C 1561.699754 479.001483 1560.550094 478.525279 1559.351505 478.525279 
C 1558.152916 478.525279 1557.003256 479.001483 1556.155725 479.849014 
C 1555.308195 480.696545 1554.83199 481.846204 1554.83199 483.044794 
C 1554.83199 484.243383 1555.308195 485.393043 1556.155725 486.240573 
C 1557.003256 487.088104 1558.152916 487.564309 1559.351505 487.564309 
z
" clip-path="url(#pbd33eeab94)" style="stroke: #000000; stroke-width: 1.5; stroke-linejoin: miter"/>
   </g>
   <g id="patch_57">
    <path d="M 1559.351505 122.758333 
C 1562.148213 122.758333 1564.830753 121.647189 1566.808324 119.669618 
C 1568.785896 117.692046 1569.89704 115.009507 1569.89704 112.212799 
C 1569.89704 109.41609 1568.785896 106.733551 1566.808324 104.755979 
C 1564.830753 102.778408 1562.148213 101.667264 1559.351505 101.667264 
C 1556.554796 101.667264 1553.872257 102.778408 1551.894686 104.755979 
C 1549.917114 106.733551 1548.80597 109.41609 1548.80597 112.212799 
C 1548.80597 115.009507 1549.917114 117.692046 1551.894686 119.669618 
C 1553.872257 121.647189 1556.554796 122.758333 1559.351505 122.758333 
z
" clip-path="url(#pbd33eeab94)" style="stroke: #000000; stroke-width: 2; stroke-linejoin: miter"/>
   </g>
   <g id="patch_58">
    <path d="M 1590.640454 498.109843 
L 1620.770554 498.109843 
L 1620.770554 467.979744 
L 1590.640454 467.979744 
z
" clip-path="url(#pbd33eeab94)" style="fill: #ffffff; stroke: #000000; stroke-width: 1.5; stroke-linejoin: miter"/>
   </g>
   <g id="patch_59">
    <path d="M 1605.705504 255.794312 
C 1606.904094 255.794312 1608.053753 255.318107 1608.901284 254.470576 
C 1609.748815 253.623046 1610.225019 252.473386 1610.225019 251.274797 
C 1610.225019 250.076207 1609.748815 248.926548 1608.901284 248.079017 
C 1608.053753 247.231486 1606.904094 246.755282 1605.705504 246.755282 
C 1604.506915 246.755282 1603.357255 247.231486 1602.509725 248.079017 
C 1601.662194 248.926548 1601.185989 250.076207 1601.185989 251.274797 
C 1601.185989 252.473386 1601.662194 253.623046 1602.509725 254.470576 
C 1603.357255 255.318107 1604.506915 255.794312 1605.705504 255.794312 
z
" clip-path="url(#pbd33eeab94)" style="stroke: #000000; stroke-width: 1.5; stroke-linejoin: miter"/>
   </g>
   <g id="patch_60">
    <path d="M 1605.705504 122.758333 
C 1608.502213 122.758333 1611.184752 121.647189 1613.162323 119.669618 
C 1615.139895 117.692046 1616.251039 115.009507 1616.251039 112.212799 
C 1616.251039 109.41609 1615.139895 106.733551 1613.162323 104.755979 
C 1611.184752 102.778408 1608.502213 101.667264 1605.705504 101.667264 
C 1602.908796 101.667264 1600.226257 102.778408 1598.248685 104.755979 
C 1596.271113 106.733551 1595.159969 109.41609 1595.159969 112.212799 
C 1595.159969 115.009507 1596.271113 117.692046 1598.248685 119.669618 
C 1600.226257 121.647189 1602.908796 122.758333 1605.705504 122.758333 
z
" clip-path="url(#pbd33eeab94)" style="stroke: #000000; stroke-width: 2; stroke-linejoin: miter"/>
   </g>
   <g id="patch_61">
    <path d="M 1636.994454 266.339846 
L 1667.124553 266.339846 
L 1667.124553 236.209747 
L 1636.994454 236.209747 
z
" clip-path="url(#pbd33eeab94)" style="fill: #ffffff; stroke: #000000; stroke-width: 1.5; stroke-linejoin: miter"/>
   </g>
   <g id="patch_62">
    <path d="M 1698.413503 487.564309 
C 1699.612092 487.564309 1700.761752 487.088104 1701.609283 486.240573 
C 1702.456813 485.393043 1702.933018 484.243383 1702.933018 483.044794 
C 1702.933018 481.846204 1702.456813 480.696545 1701.609283 479.849014 
C 1700.761752 479.001483 1699.612092 478.525279 1698.413503 478.525279 
C 1697.214914 478.525279 1696.065254 479.001483 1695.217723 479.849014 
C 1694.370193 480.696545 1693.893988 481.846204 1693.893988 483.044794 
C 1693.893988 484.243383 1694.370193 485.393043 1695.217723 486.240573 
C 1696.065254 487.088104 1697.214914 487.564309 1698.413503 487.564309 
z
" clip-path="url(#pbd33eeab94)" style="stroke: #000000; stroke-width: 1.5; stroke-linejoin: miter"/>
   </g>
   <g id="patch_63">
    <path d="M 1698.413503 122.758333 
C 1701.210212 122.758333 1703.892751 121.647189 1705.870322 119.669618 
C 1707.847894 117.692046 1708.959038 115.009507 1708.959038 112.212799 
C 1708.959038 109.41609 1707.847894 106.733551 1705.870322 104.755979 
C 1703.892751 102.778408 1701.210212 101.667264 1698.413503 101.667264 
C 1695.616794 101.667264 1692.934255 102.778408 1690.956684 104.755979 
C 1688.979112 106.733551 1687.867968 109.41609 1687.867968 112.212799 
C 1687.867968 115.009507 1688.979112 117.692046 1690.956684 119.669618 
C 1692.934255 121.647189 1695.616794 122.758333 1698.413503 122.758333 
z
" clip-path="url(#pbd33eeab94)" style="stroke: #000000; stroke-width: 2; stroke-linejoin: miter"/>
   </g>
   <g id="patch_64">
    <path d="M 1744.767502 302.148311 
C 1745.966092 302.148311 1747.115751 301.672106 1747.963282 300.824576 
C 1748.810813 299.977045 1749.287017 298.827385 1749.287017 297.628796 
C 1749.287017 296.430207 1748.810813 295.280547 1747.963282 294.433016 
C 1747.115751 293.585486 1745.966092 293.109281 1744.767502 293.109281 
C 1743.568913 293.109281 1742.419253 293.585486 1741.571723 294.433016 
C 1740.724192 295.280547 1740.247987 296.430207 1740.247987 297.628796 
C 1740.247987 298.827385 1740.724192 299.977045 1741.571723 300.824576 
C 1742.419253 301.672106 1743.568913 302.148311 1744.767502 302.148311 
z
" clip-path="url(#pbd33eeab94)" style="stroke: #000000; stroke-width: 1.5; stroke-linejoin: miter"/>
   </g>
   <g id="patch_65">
    <path d="M 1744.767502 122.758333 
C 1747.564211 122.758333 1750.24675 121.647189 1752.224322 119.669618 
C 1754.201893 117.692046 1755.313037 115.009507 1755.313037 112.212799 
C 1755.313037 109.41609 1754.201893 106.733551 1752.224322 104.755979 
C 1750.24675 102.778408 1747.564211 101.667264 1744.767502 101.667264 
C 1741.970794 101.667264 1739.288255 102.778408 1737.310683 104.755979 
C 1735.333112 106.733551 1734.221968 109.41609 1734.221968 112.212799 
C 1734.221968 115.009507 1735.333112 117.692046 1737.310683 119.669618 
C 1739.288255 121.647189 1741.970794 122.758333 1744.767502 122.758333 
z
" clip-path="url(#pbd33eeab94)" style="stroke: #000000; stroke-width: 2; stroke-linejoin: miter"/>
   </g>
   <g id="patch_66">
    <path d="M 1791.121502 255.794312 
C 1792.320091 255.794312 1793.469751 255.318107 1794.317281 254.470576 
C 1795.164812 253.623046 1795.641017 252.473386 1795.641017 251.274797 
C 1795.641017 250.076207 1795.164812 248.926548 1794.317281 248.079017 
C 1793.469751 247.231486 1792.320091 246.755282 1791.121502 246.755282 
C 1789.922912 246.755282 1788.773253 247.231486 1787.925722 248.079017 
C 1787.078191 248.926548 1786.601987 250.076207 1786.601987 251.274797 
C 1786.601987 252.473386 1787.078191 253.623046 1787.925722 254.470576 
C 1788.773253 255.318107 1789.922912 255.794312 1791.121502 255.794312 
z
" clip-path="url(#pbd33eeab94)" style="stroke: #000000; stroke-width: 1.5; stroke-linejoin: miter"/>
   </g>
   <g id="patch_67">
    <path d="M 1791.121502 122.758333 
C 1793.91821 122.758333 1796.600749 121.647189 1798.578321 119.669618 
C 1800.555893 117.692046 1801.667037 115.009507 1801.667037 112.212799 
C 1801.667037 109.41609 1800.555893 106.733551 1798.578321 104.755979 
C 1796.600749 102.778408 1793.91821 101.667264 1791.121502 101.667264 
C 1788.324793 101.667264 1785.642254 102.778408 1783.664683 104.755979 
C 1781.687111 106.733551 1780.575967 109.41609 1780.575967 112.212799 
C 1780.575967 115.009507 1781.687111 117.692046 1783.664683 119.669618 
C 1785.642254 121.647189 1788.324793 122.758333 1791.121502 122.758333 
z
" clip-path="url(#pbd33eeab94)" style="stroke: #000000; stroke-width: 2; stroke-linejoin: miter"/>
   </g>
   <g id="patch_68">
    <path d="M 1837.475501 209.440312 
C 1838.674091 209.440312 1839.82375 208.964108 1840.671281 208.116577 
C 1841.518812 207.269046 1841.995016 206.119387 1841.995016 204.920797 
C 1841.995016 203.722208 1841.518812 202.572548 1840.671281 201.725018 
C 1839.82375 200.877487 1838.674091 200.401282 1837.475501 200.401282 
C 1836.276912 200.401282 1835.127252 200.877487 1834.279722 201.725018 
C 1833.432191 202.572548 1832.955986 203.722208 1832.955986 204.920797 
C 1832.955986 206.119387 1833.432191 207.269046 1834.279722 208.116577 
C 1835.127252 208.964108 1836.276912 209.440312 1837.475501 209.440312 
z
" clip-path="url(#pbd33eeab94)" style="stroke: #000000; stroke-width: 1.5; stroke-linejoin: miter"/>
   </g>
   <g id="patch_69">
    <path d="M 1837.475501 122.758333 
C 1840.27221 122.758333 1842.954749 121.647189 1844.93232 119.669618 
C 1846.909892 117.692046 1848.021036 115.009507 1848.021036 112.212799 
C 1848.021036 109.41609 1846.909892 106.733551 1844.93232 104.755979 
C 1842.954749 102.778408 1840.27221 101.667264 1837.475501 101.667264 
C 1834.678793 101.667264 1831.996254 102.778408 1830.018682 104.755979 
C 1828.04111 106.733551 1826.929966 109.41609 1826.929966 112.212799 
C 1826.929966 115.009507 1828.04111 117.692046 1830.018682 119.669618 
C 1831.996254 121.647189 1834.678793 122.758333 1837.475501 122.758333 
z
" clip-path="url(#pbd33eeab94)" style="stroke: #000000; stroke-width: 2; stroke-linejoin: miter"/>
   </g>
   <g id="patch_70">
    <path d="M 1883.829501 163.086313 
C 1885.02809 163.086313 1886.17775 162.610108 1887.02528 161.762578 
C 1887.872811 160.915047 1888.349016 159.765387 1888.349016 158.566798 
C 1888.349016 157.368209 1887.872811 156.218549 1887.02528 155.371018 
C 1886.17775 154.523488 1885.02809 154.047283 1883.829501 154.047283 
C 1882.630911 154.047283 1881.481252 154.523488 1880.633721 155.371018 
C 1879.78619 156.218549 1879.309986 157.368209 1879.309986 158.566798 
C 1879.309986 159.765387 1879.78619 160.915047 1880.633721 161.762578 
C 1881.481252 162.610108 1882.630911 163.086313 1883.829501 163.086313 
z
" clip-path="url(#pbd33eeab94)" style="stroke: #000000; stroke-width: 1.5; stroke-linejoin: miter"/>
   </g>
   <g id="patch_71">
    <path d="M 1883.829501 122.758333 
C 1886.626209 122.758333 1889.308748 121.647189 1891.28632 119.669618 
C 1893.263891 117.692046 1894.375035 115.009507 1894.375035 112.212799 
C 1894.375035 109.41609 1893.263891 106.733551 1891.28632 104.755979 
C 1889.308748 102.778408 1886.626209 101.667264 1883.829501 101.667264 
C 1881.032792 101.667264 1878.350253 102.778408 1876.372681 104.755979 
C 1874.39511 106.733551 1873.283966 109.41609 1873.283966 112.212799 
C 1873.283966 115.009507 1874.39511 117.692046 1876.372681 119.669618 
C 1878.350253 121.647189 1881.032792 122.758333 1883.829501 122.758333 
z
" clip-path="url(#pbd33eeab94)" style="stroke: #000000; stroke-width: 2; stroke-linejoin: miter"/>
   </g>
   <g id="patch_72">
    <path d="M 1912.409059 127.277848 
L 1947.957941 127.277848 
L 1947.957941 97.147749 
L 1912.409059 97.147749 
z
" clip-path="url(#pbd33eeab94)" style="fill: #ffffff; stroke: #000000; stroke-width: 1.5; stroke-linejoin: miter"/>
   </g>
   <g id="patch_73">
    <path d="M 1976.537499 163.086313 
C 1977.736089 163.086313 1978.885748 162.610108 1979.733279 161.762578 
C 1980.58081 160.915047 1981.057014 159.765387 1981.057014 158.566798 
C 1981.057014 157.368209 1980.58081 156.218549 1979.733279 155.371018 
C 1978.885748 154.523488 1977.736089 154.047283 1976.537499 154.047283 
C 1975.33891 154.047283 1974.18925 154.523488 1973.34172 155.371018 
C 1972.494189 156.218549 1972.017984 157.368209 1972.017984 158.566798 
C 1972.017984 159.765387 1972.494189 160.915047 1973.34172 161.762578 
C 1974.18925 162.610108 1975.33891 163.086313 1976.537499 163.086313 
z
" clip-path="url(#pbd33eeab94)" style="stroke: #000000; stroke-width: 1.5; stroke-linejoin: miter"/>
   </g>
   <g id="patch_74">
    <path d="M 1976.537499 122.758333 
C 1979.334208 122.758333 1982.016747 121.647189 1983.994319 119.669618 
C 1985.97189 117.692046 1987.083034 115.009507 1987.083034 112.212799 
C 1987.083034 109.41609 1985.97189 106.733551 1983.994319 104.755979 
C 1982.016747 102.778408 1979.334208 101.667264 1976.537499 101.667264 
C 1973.740791 101.667264 1971.058252 102.778408 1969.08068 104.755979 
C 1967.103109 106.733551 1965.991964 109.41609 1965.991964 112.212799 
C 1965.991964 115.009507 1967.103109 117.692046 1969.08068 119.669618 
C 1971.058252 121.647189 1973.740791 122.758333 1976.537499 122.758333 
z
" clip-path="url(#pbd33eeab94)" style="stroke: #000000; stroke-width: 2; stroke-linejoin: miter"/>
   </g>
   <g id="patch_75">
    <path d="M 2022.891499 209.440312 
C 2024.090088 209.440312 2025.239748 208.964108 2026.087278 208.116577 
C 2026.934809 207.269046 2027.411014 206.119387 2027.411014 204.920797 
C 2027.411014 203.722208 2026.934809 202.572548 2026.087278 201.725018 
C 2025.239748 200.877487 2024.090088 200.401282 2022.891499 200.401282 
C 2021.692909 200.401282 2020.54325 200.877487 2019.695719 201.725018 
C 2018.848188 202.572548 2018.371984 203.722208 2018.371984 204.920797 
C 2018.371984 206.119387 2018.848188 207.269046 2019.695719 208.116577 
C 2020.54325 208.964108 2021.692909 209.440312 2022.891499 209.440312 
z
" clip-path="url(#pbd33eeab94)" style="stroke: #000000; stroke-width: 1.5; stroke-linejoin: miter"/>
   </g>
   <g id="patch_76">
    <path d="M 2022.891499 122.758333 
C 2025.688207 122.758333 2028.370746 121.647189 2030.348318 119.669618 
C 2032.32589 117.692046 2033.437034 115.009507 2033.437034 112.212799 
C 2033.437034 109.41609 2032.32589 106.733551 2030.348318 104.755979 
C 2028.370746 102.778408 2025.688207 101.667264 2022.891499 101.667264 
C 2020.09479 101.667264 2017.412251 102.778408 2015.43468 104.755979 
C 2013.457108 106.733551 2012.345964 109.41609 2012.345964 112.212799 
C 2012.345964 115.009507 2013.457108 117.692046 2015.43468 119.669618 
C 2017.412251 121.647189 2020.09479 122.758333 2022.891499 122.758333 
z
" clip-path="url(#pbd33eeab94)" style="stroke: #000000; stroke-width: 2; stroke-linejoin: miter"/>
   </g>
   <g id="patch_77">
    <path d="M 2069.245498 255.794312 
C 2070.444087 255.794312 2071.593747 255.318107 2072.441278 254.470576 
C 2073.288808 253.623046 2073.765013 252.473386 2073.765013 251.274797 
C 2073.765013 250.076207 2073.288808 248.926548 2072.441278 248.079017 
C 2071.593747 247.231486 2070.444087 246.755282 2069.245498 246.755282 
C 2068.046909 246.755282 2066.897249 247.231486 2066.049718 248.079017 
C 2065.202188 248.926548 2064.725983 250.076207 2064.725983 251.274797 
C 2064.725983 252.473386 2065.202188 253.623046 2066.049718 254.470576 
C 2066.897249 255.318107 2068.046909 255.794312 2069.245498 255.794312 
z
" clip-path="url(#pbd33eeab94)" style="stroke: #000000; stroke-width: 1.5; stroke-linejoin: miter"/>
   </g>
   <g id="patch_78">
    <path d="M 2069.245498 122.758333 
C 2072.042207 122.758333 2074.724746 121.647189 2076.702317 119.669618 
C 2078.679889 117.692046 2079.791033 115.009507 2079.791033 112.212799 
C 2079.791033 109.41609 2078.679889 106.733551 2076.702317 104.755979 
C 2074.724746 102.778408 2072.042207 101.667264 2069.245498 101.667264 
C 2066.44879 101.667264 2063.76625 102.778408 2061.788679 104.755979 
C 2059.811107 106.733551 2058.699963 109.41609 2058.699963 112.212799 
C 2058.699963 115.009507 2059.811107 117.692046 2061.788679 119.669618 
C 2063.76625 121.647189 2066.44879 122.758333 2069.245498 122.758333 
z
" clip-path="url(#pbd33eeab94)" style="stroke: #000000; stroke-width: 2; stroke-linejoin: miter"/>
   </g>
   <g id="patch_79">
    <path d="M 2115.599497 302.148311 
C 2116.798087 302.148311 2117.947746 301.672106 2118.795277 300.824576 
C 2119.642808 299.977045 2120.119012 298.827385 2120.119012 297.628796 
C 2120.119012 296.430207 2119.642808 295.280547 2118.795277 294.433016 
C 2117.947746 293.585486 2116.798087 293.109281 2115.599497 293.109281 
C 2114.400908 293.109281 2113.251248 293.585486 2112.403718 294.433016 
C 2111.556187 295.280547 2111.079983 296.430207 2111.079983 297.628796 
C 2111.079983 298.827385 2111.556187 299.977045 2112.403718 300.824576 
C 2113.251248 301.672106 2114.400908 302.148311 2115.599497 302.148311 
z
" clip-path="url(#pbd33eeab94)" style="stroke: #000000; stroke-width: 1.5; stroke-linejoin: miter"/>
   </g>
   <g id="patch_80">
    <path d="M 2115.599497 122.758333 
C 2118.396206 122.758333 2121.078745 121.647189 2123.056317 119.669618 
C 2125.033888 117.692046 2126.145032 115.009507 2126.145032 112.212799 
C 2126.145032 109.41609 2125.033888 106.733551 2123.056317 104.755979 
C 2121.078745 102.778408 2118.396206 101.667264 2115.599497 101.667264 
C 2112.802789 101.667264 2110.12025 102.778408 2108.142678 104.755979 
C 2106.165107 106.733551 2105.053963 109.41609 2105.053963 112.212799 
C 2105.053963 115.009507 2106.165107 117.692046 2108.142678 119.669618 
C 2110.12025 121.647189 2112.802789 122.758333 2115.599497 122.758333 
z
" clip-path="url(#pbd33eeab94)" style="stroke: #000000; stroke-width: 2; stroke-linejoin: miter"/>
   </g>
   <g id="patch_81">
    <path d="M 2146.888447 312.693846 
L 2177.018547 312.693846 
L 2177.018547 282.563746 
L 2146.888447 282.563746 
z
" clip-path="url(#pbd33eeab94)" style="fill: #ffffff; stroke: #000000; stroke-width: 1.5; stroke-linejoin: miter"/>
   </g>
   <g id="patch_82">
    <path d="M 2208.307496 487.564309 
C 2209.506086 487.564309 2210.655745 487.088104 2211.503276 486.240573 
C 2212.350807 485.393043 2212.827011 484.243383 2212.827011 483.044794 
C 2212.827011 481.846204 2212.350807 480.696545 2211.503276 479.849014 
C 2210.655745 479.001483 2209.506086 478.525279 2208.307496 478.525279 
C 2207.108907 478.525279 2205.959247 479.001483 2205.111717 479.849014 
C 2204.264186 480.696545 2203.787981 481.846204 2203.787981 483.044794 
C 2203.787981 484.243383 2204.264186 485.393043 2205.111717 486.240573 
C 2205.959247 487.088104 2207.108907 487.564309 2208.307496 487.564309 
z
" clip-path="url(#pbd33eeab94)" style="stroke: #000000; stroke-width: 1.5; stroke-linejoin: miter"/>
   </g>
   <g id="patch_83">
    <path d="M 2208.307496 122.758333 
C 2211.104205 122.758333 2213.786744 121.647189 2215.764315 119.669618 
C 2217.741887 117.692046 2218.853031 115.009507 2218.853031 112.212799 
C 2218.853031 109.41609 2217.741887 106.733551 2215.764315 104.755979 
C 2213.786744 102.778408 2211.104205 101.667264 2208.307496 101.667264 
C 2205.510788 101.667264 2202.828249 102.778408 2200.850677 104.755979 
C 2198.873105 106.733551 2197.761961 109.41609 2197.761961 112.212799 
C 2197.761961 115.009507 2198.873105 117.692046 2200.850677 119.669618 
C 2202.828249 121.647189 2205.510788 122.758333 2208.307496 122.758333 
z
" clip-path="url(#pbd33eeab94)" style="stroke: #000000; stroke-width: 2; stroke-linejoin: miter"/>
   </g>
   <g id="text_2">
    <g clip-path="url(#pbd33eeab94)">
     <!-- ${q}_{0}$ -->
     <g transform="translate(348.162061 116.663775)scale(0.1625 -0.1625)">
      <defs>
       <path id="DejaVuSans-Oblique-71" d="M 2669 525 
Q 2438 222 2123 65 
Q 1809 -91 1428 -91 
Q 897 -91 595 267 
Q 294 625 294 1253 
Q 294 1759 480 2231 
Q 666 2703 1013 3078 
Q 1238 3322 1530 3453 
Q 1822 3584 2144 3584 
Q 2531 3584 2781 3431 
Q 3031 3278 3144 2969 
L 3244 3494 
L 3822 3494 
L 2888 -1319 
L 2309 -1319 
L 2669 525 
z
M 891 1338 
Q 891 875 1084 633 
Q 1278 391 1644 391 
Q 2188 391 2572 911 
Q 2956 1431 2956 2175 
Q 2956 2625 2757 2864 
Q 2559 3103 2188 3103 
Q 1916 3103 1684 2976 
Q 1453 2850 1281 2606 
Q 1100 2350 995 2006 
Q 891 1663 891 1338 
z
" transform="scale(0.015625)"/>
       <path id="DejaVuSans-30" d="M 2034 4250 
Q 1547 4250 1301 3770 
Q 1056 3291 1056 2328 
Q 1056 1369 1301 889 
Q 1547 409 2034 409 
Q 2525 409 2770 889 
Q 3016 1369 3016 2328 
Q 3016 3291 2770 3770 
Q 2525 4250 2034 4250 
z
M 2034 4750 
Q 2819 4750 3233 4129 
Q 3647 3509 3647 2328 
Q 3647 1150 3233 529 
Q 2819 -91 2034 -91 
Q 1250 -91 836 529 
Q 422 1150 422 2328 
Q 422 3509 836 4129 
Q 1250 4750 2034 4750 
z
" transform="scale(0.015625)"/>
      </defs>
      <use xlink:href="#DejaVuSans-Oblique-71"/>
      <use xlink:href="#DejaVuSans-30" transform="translate(63.476562 -16.40625)scale(0.7)"/>
     </g>
    </g>
   </g>
   <g id="text_3">
    <g clip-path="url(#pbd33eeab94)">
     <!-- ${q}_{1}$ -->
     <g transform="translate(348.162061 163.017774)scale(0.1625 -0.1625)">
      <defs>
       <path id="DejaVuSans-31" d="M 794 531 
L 1825 531 
L 1825 4091 
L 703 3866 
L 703 4441 
L 1819 4666 
L 2450 4666 
L 2450 531 
L 3481 531 
L 3481 0 
L 794 0 
L 794 531 
z
" transform="scale(0.015625)"/>
      </defs>
      <use xlink:href="#DejaVuSans-Oblique-71"/>
      <use xlink:href="#DejaVuSans-31" transform="translate(63.476562 -16.40625)scale(0.7)"/>
     </g>
    </g>
   </g>
   <g id="text_4">
    <g clip-path="url(#pbd33eeab94)">
     <!-- ${q}_{2}$ -->
     <g transform="translate(348.162061 209.371774)scale(0.1625 -0.1625)">
      <defs>
       <path id="DejaVuSans-32" d="M 1228 531 
L 3431 531 
L 3431 0 
L 469 0 
L 469 531 
Q 828 903 1448 1529 
Q 2069 2156 2228 2338 
Q 2531 2678 2651 2914 
Q 2772 3150 2772 3378 
Q 2772 3750 2511 3984 
Q 2250 4219 1831 4219 
Q 1534 4219 1204 4116 
Q 875 4013 500 3803 
L 500 4441 
Q 881 4594 1212 4672 
Q 1544 4750 1819 4750 
Q 2544 4750 2975 4387 
Q 3406 4025 3406 3419 
Q 3406 3131 3298 2873 
Q 3191 2616 2906 2266 
Q 2828 2175 2409 1742 
Q 1991 1309 1228 531 
z
" transform="scale(0.015625)"/>
      </defs>
      <use xlink:href="#DejaVuSans-Oblique-71"/>
      <use xlink:href="#DejaVuSans-32" transform="translate(63.476562 -16.40625)scale(0.7)"/>
     </g>
    </g>
   </g>
   <g id="text_5">
    <g clip-path="url(#pbd33eeab94)">
     <!-- ${q}_{3}$ -->
     <g transform="translate(348.162061 255.725773)scale(0.1625 -0.1625)">
      <use xlink:href="#DejaVuSans-Oblique-71"/>
      <use xlink:href="#DejaVuSans-33" transform="translate(63.476562 -16.40625)scale(0.7)"/>
     </g>
    </g>
   </g>
   <g id="text_6">
    <g clip-path="url(#pbd33eeab94)">
     <!-- ${q}_{4}$ -->
     <g transform="translate(348.162061 302.079773)scale(0.1625 -0.1625)">
      <use xlink:href="#DejaVuSans-Oblique-71"/>
      <use xlink:href="#DejaVuSans-34" transform="translate(63.476562 -16.40625)scale(0.7)"/>
     </g>
    </g>
   </g>
   <g id="text_7">
    <g clip-path="url(#pbd33eeab94)">
     <!-- ${q}_{5}$ -->
     <g transform="translate(348.162061 348.433772)scale(0.1625 -0.1625)">
      <defs>
       <path id="DejaVuSans-35" d="M 691 4666 
L 3169 4666 
L 3169 4134 
L 1269 4134 
L 1269 2991 
Q 1406 3038 1543 3061 
Q 1681 3084 1819 3084 
Q 2600 3084 3056 2656 
Q 3513 2228 3513 1497 
Q 3513 744 3044 326 
Q 2575 -91 1722 -91 
Q 1428 -91 1123 -41 
Q 819 9 494 109 
L 494 744 
Q 775 591 1075 516 
Q 1375 441 1709 441 
Q 2250 441 2565 725 
Q 2881 1009 2881 1497 
Q 2881 1984 2565 2268 
Q 2250 2553 1709 2553 
Q 1456 2553 1204 2497 
Q 953 2441 691 2322 
L 691 4666 
z
" transform="scale(0.015625)"/>
      </defs>
      <use xlink:href="#DejaVuSans-Oblique-71"/>
      <use xlink:href="#DejaVuSans-35" transform="translate(63.476562 -16.40625)scale(0.7)"/>
     </g>
    </g>
   </g>
   <g id="text_8">
    <g clip-path="url(#pbd33eeab94)">
     <!-- ${q}_{6}$ -->
     <g transform="translate(348.162061 394.787771)scale(0.1625 -0.1625)">
      <defs>
       <path id="DejaVuSans-36" d="M 2113 2584 
Q 1688 2584 1439 2293 
Q 1191 2003 1191 1497 
Q 1191 994 1439 701 
Q 1688 409 2113 409 
Q 2538 409 2786 701 
Q 3034 994 3034 1497 
Q 3034 2003 2786 2293 
Q 2538 2584 2113 2584 
z
M 3366 4563 
L 3366 3988 
Q 3128 4100 2886 4159 
Q 2644 4219 2406 4219 
Q 1781 4219 1451 3797 
Q 1122 3375 1075 2522 
Q 1259 2794 1537 2939 
Q 1816 3084 2150 3084 
Q 2853 3084 3261 2657 
Q 3669 2231 3669 1497 
Q 3669 778 3244 343 
Q 2819 -91 2113 -91 
Q 1303 -91 875 529 
Q 447 1150 447 2328 
Q 447 3434 972 4092 
Q 1497 4750 2381 4750 
Q 2619 4750 2861 4703 
Q 3103 4656 3366 4563 
z
" transform="scale(0.015625)"/>
      </defs>
      <use xlink:href="#DejaVuSans-Oblique-71"/>
      <use xlink:href="#DejaVuSans-36" transform="translate(63.476562 -16.40625)scale(0.7)"/>
     </g>
    </g>
   </g>
   <g id="text_9">
    <g clip-path="url(#pbd33eeab94)">
     <!-- ${q}_{7}$ -->
     <g transform="translate(348.162061 441.141771)scale(0.1625 -0.1625)">
      <defs>
       <path id="DejaVuSans-37" d="M 525 4666 
L 3525 4666 
L 3525 4397 
L 1831 0 
L 1172 0 
L 2766 4134 
L 525 4134 
L 525 4666 
z
" transform="scale(0.015625)"/>
      </defs>
      <use xlink:href="#DejaVuSans-Oblique-71"/>
      <use xlink:href="#DejaVuSans-37" transform="translate(63.476562 -16.40625)scale(0.7)"/>
     </g>
    </g>
   </g>
   <g id="text_10">
    <g clip-path="url(#pbd33eeab94)">
     <!-- ${q}_{8}$ -->
     <g transform="translate(348.162061 487.49577)scale(0.1625 -0.1625)">
      <defs>
       <path id="DejaVuSans-38" d="M 2034 2216 
Q 1584 2216 1326 1975 
Q 1069 1734 1069 1313 
Q 1069 891 1326 650 
Q 1584 409 2034 409 
Q 2484 409 2743 651 
Q 3003 894 3003 1313 
Q 3003 1734 2745 1975 
Q 2488 2216 2034 2216 
z
M 1403 2484 
Q 997 2584 770 2862 
Q 544 3141 544 3541 
Q 544 4100 942 4425 
Q 1341 4750 2034 4750 
Q 2731 4750 3128 4425 
Q 3525 4100 3525 3541 
Q 3525 3141 3298 2862 
Q 3072 2584 2669 2484 
Q 3125 2378 3379 2068 
Q 3634 1759 3634 1313 
Q 3634 634 3220 271 
Q 2806 -91 2034 -91 
Q 1263 -91 848 271 
Q 434 634 434 1313 
Q 434 1759 690 2068 
Q 947 2378 1403 2484 
z
M 1172 3481 
Q 1172 3119 1398 2916 
Q 1625 2713 2034 2713 
Q 2441 2713 2670 2916 
Q 2900 3119 2900 3481 
Q 2900 3844 2670 4047 
Q 2441 4250 2034 4250 
Q 1625 4250 1398 4047 
Q 1172 3844 1172 3481 
z
" transform="scale(0.015625)"/>
      </defs>
      <use xlink:href="#DejaVuSans-Oblique-71"/>
      <use xlink:href="#DejaVuSans-38" transform="translate(63.476562 -16.40625)scale(0.7)"/>
     </g>
    </g>
   </g>
   <g id="text_11">
    <g clip-path="url(#pbd33eeab94)">
     <!-- ${q}_{9}$ -->
     <g transform="translate(348.162061 533.84977)scale(0.1625 -0.1625)">
      <defs>
       <path id="DejaVuSans-39" d="M 703 97 
L 703 672 
Q 941 559 1184 500 
Q 1428 441 1663 441 
Q 2288 441 2617 861 
Q 2947 1281 2994 2138 
Q 2813 1869 2534 1725 
Q 2256 1581 1919 1581 
Q 1219 1581 811 2004 
Q 403 2428 403 3163 
Q 403 3881 828 4315 
Q 1253 4750 1959 4750 
Q 2769 4750 3195 4129 
Q 3622 3509 3622 2328 
Q 3622 1225 3098 567 
Q 2575 -91 1691 -91 
Q 1453 -91 1209 -44 
Q 966 3 703 97 
z
M 1959 2075 
Q 2384 2075 2632 2365 
Q 2881 2656 2881 3163 
Q 2881 3666 2632 3958 
Q 2384 4250 1959 4250 
Q 1534 4250 1286 3958 
Q 1038 3666 1038 3163 
Q 1038 2656 1286 2365 
Q 1534 2075 1959 2075 
z
" transform="scale(0.015625)"/>
      </defs>
      <use xlink:href="#DejaVuSans-Oblique-71"/>
      <use xlink:href="#DejaVuSans-39" transform="translate(63.476562 -16.40625)scale(0.7)"/>
     </g>
    </g>
   </g>
   <g id="text_12">
    <g clip-path="url(#pbd33eeab94)">
     <!-- H -->
     <g transform="translate(395.613317 254.861984)scale(0.13 -0.13)">
      <use xlink:href="#DejaVuSans-48"/>
     </g>
    </g>
   </g>
   <g id="text_13">
    <g clip-path="url(#pbd33eeab94)">
     <!-- H -->
     <g transform="translate(395.613317 301.215984)scale(0.13 -0.13)">
      <use xlink:href="#DejaVuSans-48"/>
     </g>
    </g>
   </g>
   <g id="text_14">
    <g clip-path="url(#pbd33eeab94)">
     <!-- S -->
     <g transform="translate(396.375036 347.569983)scale(0.13 -0.13)">
      <use xlink:href="#DejaVuSans-53"/>
     </g>
    </g>
   </g>
   <g id="line2d_42">
    <path d="M 400.50152 118.238818 
L 400.50152 106.186779 
" clip-path="url(#pbd33eeab94)" style="fill: none; stroke: #ffffff; stroke-width: 2; stroke-linecap: square"/>
   </g>
   <g id="line2d_43">
    <path d="M 394.4755 112.212799 
L 406.52754 112.212799 
" clip-path="url(#pbd33eeab94)" style="fill: none; stroke: #ffffff; stroke-width: 2; stroke-linecap: square"/>
   </g>
   <g id="line2d_44">
    <path d="M 446.85552 489.070814 
L 446.85552 477.018774 
" clip-path="url(#pbd33eeab94)" style="fill: none; stroke: #ffffff; stroke-width: 2; stroke-linecap: square"/>
   </g>
   <g id="line2d_45">
    <path d="M 440.8295 483.044794 
L 452.88154 483.044794 
" clip-path="url(#pbd33eeab94)" style="fill: none; stroke: #ffffff; stroke-width: 2; stroke-linecap: square"/>
   </g>
   <g id="line2d_46">
    <path d="M 446.85552 118.238818 
L 446.85552 106.186779 
" clip-path="url(#pbd33eeab94)" style="fill: none; stroke: #ffffff; stroke-width: 2; stroke-linecap: square"/>
   </g>
   <g id="line2d_47">
    <path d="M 440.8295 112.212799 
L 452.88154 112.212799 
" clip-path="url(#pbd33eeab94)" style="fill: none; stroke: #ffffff; stroke-width: 2; stroke-linecap: square"/>
   </g>
   <g id="text_15">
    <g clip-path="url(#pbd33eeab94)">
     <!-- H -->
     <g transform="translate(488.321316 347.569983)scale(0.13 -0.13)">
      <use xlink:href="#DejaVuSans-48"/>
     </g>
    </g>
   </g>
   <g id="line2d_48">
    <path d="M 539.563518 489.070814 
L 539.563518 477.018774 
" clip-path="url(#pbd33eeab94)" style="fill: none; stroke: #ffffff; stroke-width: 2; stroke-linecap: square"/>
   </g>
   <g id="line2d_49">
    <path d="M 533.537499 483.044794 
L 545.589538 483.044794 
" clip-path="url(#pbd33eeab94)" style="fill: none; stroke: #ffffff; stroke-width: 2; stroke-linecap: square"/>
   </g>
   <g id="line2d_50">
    <path d="M 585.917518 489.070814 
L 585.917518 477.018774 
" clip-path="url(#pbd33eeab94)" style="fill: none; stroke: #ffffff; stroke-width: 2; stroke-linecap: square"/>
   </g>
   <g id="line2d_51">
    <path d="M 579.891498 483.044794 
L 591.943538 483.044794 
" clip-path="url(#pbd33eeab94)" style="fill: none; stroke: #ffffff; stroke-width: 2; stroke-linecap: square"/>
   </g>
   <g id="line2d_52">
    <path d="M 632.271517 489.070814 
L 632.271517 477.018774 
" clip-path="url(#pbd33eeab94)" style="fill: none; stroke: #ffffff; stroke-width: 2; stroke-linecap: square"/>
   </g>
   <g id="line2d_53">
    <path d="M 626.245497 483.044794 
L 638.297537 483.044794 
" clip-path="url(#pbd33eeab94)" style="fill: none; stroke: #ffffff; stroke-width: 2; stroke-linecap: square"/>
   </g>
   <g id="line2d_54">
    <path d="M 678.625517 489.070814 
L 678.625517 477.018774 
" clip-path="url(#pbd33eeab94)" style="fill: none; stroke: #ffffff; stroke-width: 2; stroke-linecap: square"/>
   </g>
   <g id="line2d_55">
    <path d="M 672.599497 483.044794 
L 684.651537 483.044794 
" clip-path="url(#pbd33eeab94)" style="fill: none; stroke: #ffffff; stroke-width: 2; stroke-linecap: square"/>
   </g>
   <g id="text_16">
    <g clip-path="url(#pbd33eeab94)">
     <!-- 0.00422 -->
     <g transform="translate(708.438266 494.291323)scale(0.08 -0.08)">
      <defs>
       <path id="DejaVuSans-2e" d="M 684 794 
L 1344 794 
L 1344 0 
L 684 0 
L 684 794 
z
" transform="scale(0.015625)"/>
      </defs>
      <use xlink:href="#DejaVuSans-30"/>
      <use xlink:href="#DejaVuSans-2e" x="63.623047"/>
      <use xlink:href="#DejaVuSans-30" x="95.410156"/>
      <use xlink:href="#DejaVuSans-30" x="159.033203"/>
      <use xlink:href="#DejaVuSans-34" x="222.65625"/>
      <use xlink:href="#DejaVuSans-32" x="286.279297"/>
      <use xlink:href="#DejaVuSans-32" x="349.902344"/>
     </g>
    </g>
   </g>
   <g id="text_17">
    <g clip-path="url(#pbd33eeab94)">
     <!-- $\mathrm{R_Z}$ -->
     <g transform="translate(717.049516 482.112466)scale(0.13 -0.13)">
      <defs>
       <path id="DejaVuSans-5a" d="M 359 4666 
L 4025 4666 
L 4025 4184 
L 1075 531 
L 4097 531 
L 4097 0 
L 288 0 
L 288 481 
L 3238 4134 
L 359 4134 
L 359 4666 
z
" transform="scale(0.015625)"/>
      </defs>
      <use xlink:href="#DejaVuSans-52" transform="translate(0 0.09375)"/>
      <use xlink:href="#DejaVuSans-5a" transform="translate(70.439453 -16.3125)scale(0.7)"/>
     </g>
    </g>
   </g>
   <g id="line2d_56">
    <path d="M 771.333515 489.070814 
L 771.333515 477.018774 
" clip-path="url(#pbd33eeab94)" style="fill: none; stroke: #ffffff; stroke-width: 2; stroke-linecap: square"/>
   </g>
   <g id="line2d_57">
    <path d="M 765.307495 483.044794 
L 777.359535 483.044794 
" clip-path="url(#pbd33eeab94)" style="fill: none; stroke: #ffffff; stroke-width: 2; stroke-linecap: square"/>
   </g>
   <g id="line2d_58">
    <path d="M 817.687515 489.070814 
L 817.687515 477.018774 
" clip-path="url(#pbd33eeab94)" style="fill: none; stroke: #ffffff; stroke-width: 2; stroke-linecap: square"/>
   </g>
   <g id="line2d_59">
    <path d="M 811.661495 483.044794 
L 823.713535 483.044794 
" clip-path="url(#pbd33eeab94)" style="fill: none; stroke: #ffffff; stroke-width: 2; stroke-linecap: square"/>
   </g>
   <g id="line2d_60">
    <path d="M 864.041514 489.070814 
L 864.041514 477.018774 
" clip-path="url(#pbd33eeab94)" style="fill: none; stroke: #ffffff; stroke-width: 2; stroke-linecap: square"/>
   </g>
   <g id="line2d_61">
    <path d="M 858.015494 483.044794 
L 870.067534 483.044794 
" clip-path="url(#pbd33eeab94)" style="fill: none; stroke: #ffffff; stroke-width: 2; stroke-linecap: square"/>
   </g>
   <g id="text_18">
    <g clip-path="url(#pbd33eeab94)">
     <!-- H -->
     <g transform="translate(905.50731 347.569983)scale(0.13 -0.13)">
      <use xlink:href="#DejaVuSans-48"/>
     </g>
    </g>
   </g>
   <g id="line2d_62">
    <path d="M 956.749513 489.070814 
L 956.749513 477.018774 
" clip-path="url(#pbd33eeab94)" style="fill: none; stroke: #ffffff; stroke-width: 2; stroke-linecap: square"/>
   </g>
   <g id="line2d_63">
    <path d="M 950.723493 483.044794 
L 962.775533 483.044794 
" clip-path="url(#pbd33eeab94)" style="fill: none; stroke: #ffffff; stroke-width: 2; stroke-linecap: square"/>
   </g>
   <g id="text_19">
    <g clip-path="url(#pbd33eeab94)">
     <!-- $\mathrm{S^\dagger}$ -->
     <g transform="translate(994.653512 347.569983)scale(0.13 -0.13)">
      <defs>
       <path id="DejaVuSans-2020" d="M 1325 4666 
L 1875 4666 
L 1875 3353 
L 3022 3353 
L 3022 2875 
L 1875 2875 
L 1875 -616 
L 1325 -616 
L 1325 2875 
L 178 2875 
L 178 3353 
L 1325 3353 
L 1325 4666 
z
" transform="scale(0.015625)"/>
      </defs>
      <use xlink:href="#DejaVuSans-53" transform="translate(0 0.684375)"/>
      <use xlink:href="#DejaVuSans-2020" transform="translate(78.071289 38.965625)scale(0.7)"/>
     </g>
    </g>
   </g>
   <g id="text_20">
    <g clip-path="url(#pbd33eeab94)">
     <!-- H -->
     <g transform="translate(998.215309 301.215984)scale(0.13 -0.13)">
      <use xlink:href="#DejaVuSans-48"/>
     </g>
    </g>
   </g>
   <g id="line2d_64">
    <path d="M 1049.457512 489.070814 
L 1049.457512 477.018774 
" clip-path="url(#pbd33eeab94)" style="fill: none; stroke: #ffffff; stroke-width: 2; stroke-linecap: square"/>
   </g>
   <g id="line2d_65">
    <path d="M 1043.431492 483.044794 
L 1055.483532 483.044794 
" clip-path="url(#pbd33eeab94)" style="fill: none; stroke: #ffffff; stroke-width: 2; stroke-linecap: square"/>
   </g>
   <g id="line2d_66">
    <path d="M 1095.811511 535.424813 
L 1095.811511 523.372773 
" clip-path="url(#pbd33eeab94)" style="fill: none; stroke: #ffffff; stroke-width: 2; stroke-linecap: square"/>
   </g>
   <g id="line2d_67">
    <path d="M 1089.785491 529.398793 
L 1101.837531 529.398793 
" clip-path="url(#pbd33eeab94)" style="fill: none; stroke: #ffffff; stroke-width: 2; stroke-linecap: square"/>
   </g>
   <g id="text_21">
    <g clip-path="url(#pbd33eeab94)">
     <!-- H -->
     <g transform="translate(1090.923308 254.861984)scale(0.13 -0.13)">
      <use xlink:href="#DejaVuSans-48"/>
     </g>
    </g>
   </g>
   <g id="text_22">
    <g clip-path="url(#pbd33eeab94)">
     <!-- H -->
     <g transform="translate(1137.277307 486.631981)scale(0.13 -0.13)">
      <use xlink:href="#DejaVuSans-48"/>
     </g>
    </g>
   </g>
   <g id="line2d_68">
    <path d="M 1188.51951 535.424813 
L 1188.51951 523.372773 
" clip-path="url(#pbd33eeab94)" style="fill: none; stroke: #ffffff; stroke-width: 2; stroke-linecap: square"/>
   </g>
   <g id="line2d_69">
    <path d="M 1182.49349 529.398793 
L 1194.54553 529.398793 
" clip-path="url(#pbd33eeab94)" style="fill: none; stroke: #ffffff; stroke-width: 2; stroke-linecap: square"/>
   </g>
   <g id="text_23">
    <g clip-path="url(#pbd33eeab94)">
     <!-- 0.0235 -->
     <g transform="translate(1220.877259 540.645323)scale(0.08 -0.08)">
      <use xlink:href="#DejaVuSans-30"/>
      <use xlink:href="#DejaVuSans-2e" x="63.623047"/>
      <use xlink:href="#DejaVuSans-30" x="95.410156"/>
      <use xlink:href="#DejaVuSans-32" x="159.033203"/>
      <use xlink:href="#DejaVuSans-33" x="222.65625"/>
      <use xlink:href="#DejaVuSans-35" x="286.279297"/>
     </g>
    </g>
   </g>
   <g id="text_24">
    <g clip-path="url(#pbd33eeab94)">
     <!-- $\mathrm{R_Z}$ -->
     <g transform="translate(1226.943509 528.466466)scale(0.13 -0.13)">
      <use xlink:href="#DejaVuSans-52" transform="translate(0 0.09375)"/>
      <use xlink:href="#DejaVuSans-5a" transform="translate(70.439453 -16.3125)scale(0.7)"/>
     </g>
    </g>
   </g>
   <g id="text_25">
    <g clip-path="url(#pbd33eeab94)">
     <!-- H -->
     <g transform="translate(1229.985306 254.861984)scale(0.13 -0.13)">
      <use xlink:href="#DejaVuSans-48"/>
     </g>
    </g>
   </g>
   <g id="line2d_70">
    <path d="M 1281.227509 535.424813 
L 1281.227509 523.372773 
" clip-path="url(#pbd33eeab94)" style="fill: none; stroke: #ffffff; stroke-width: 2; stroke-linecap: square"/>
   </g>
   <g id="line2d_71">
    <path d="M 1275.201489 529.398793 
L 1287.253528 529.398793 
" clip-path="url(#pbd33eeab94)" style="fill: none; stroke: #ffffff; stroke-width: 2; stroke-linecap: square"/>
   </g>
   <g id="line2d_72">
    <path d="M 1281.227509 118.238818 
L 1281.227509 106.186779 
" clip-path="url(#pbd33eeab94)" style="fill: none; stroke: #ffffff; stroke-width: 2; stroke-linecap: square"/>
   </g>
   <g id="line2d_73">
    <path d="M 1275.201489 112.212799 
L 1287.253528 112.212799 
" clip-path="url(#pbd33eeab94)" style="fill: none; stroke: #ffffff; stroke-width: 2; stroke-linecap: square"/>
   </g>
   <g id="line2d_74">
    <path d="M 1327.581508 118.238818 
L 1327.581508 106.186779 
" clip-path="url(#pbd33eeab94)" style="fill: none; stroke: #ffffff; stroke-width: 2; stroke-linecap: square"/>
   </g>
   <g id="line2d_75">
    <path d="M 1321.555488 112.212799 
L 1333.607528 112.212799 
" clip-path="url(#pbd33eeab94)" style="fill: none; stroke: #ffffff; stroke-width: 2; stroke-linecap: square"/>
   </g>
   <g id="text_26">
    <g clip-path="url(#pbd33eeab94)">
     <!-- H -->
     <g transform="translate(1322.693305 532.98598)scale(0.13 -0.13)">
      <use xlink:href="#DejaVuSans-48"/>
     </g>
    </g>
   </g>
   <g id="text_27">
    <g clip-path="url(#pbd33eeab94)">
     <!-- H -->
     <g transform="translate(1369.047304 301.215984)scale(0.13 -0.13)">
      <use xlink:href="#DejaVuSans-48"/>
     </g>
    </g>
   </g>
   <g id="line2d_76">
    <path d="M 1420.289507 118.238818 
L 1420.289507 106.186779 
" clip-path="url(#pbd33eeab94)" style="fill: none; stroke: #ffffff; stroke-width: 2; stroke-linecap: square"/>
   </g>
   <g id="line2d_77">
    <path d="M 1414.263487 112.212799 
L 1426.315527 112.212799 
" clip-path="url(#pbd33eeab94)" style="fill: none; stroke: #ffffff; stroke-width: 2; stroke-linecap: square"/>
   </g>
   <g id="text_28">
    <g clip-path="url(#pbd33eeab94)">
     <!-- 0.00422 -->
     <g transform="translate(1450.102256 123.459328)scale(0.08 -0.08)">
      <use xlink:href="#DejaVuSans-30"/>
      <use xlink:href="#DejaVuSans-2e" x="63.623047"/>
      <use xlink:href="#DejaVuSans-30" x="95.410156"/>
      <use xlink:href="#DejaVuSans-30" x="159.033203"/>
      <use xlink:href="#DejaVuSans-34" x="222.65625"/>
      <use xlink:href="#DejaVuSans-32" x="286.279297"/>
      <use xlink:href="#DejaVuSans-32" x="349.902344"/>
     </g>
    </g>
   </g>
   <g id="text_29">
    <g clip-path="url(#pbd33eeab94)">
     <!-- $\mathrm{R_Z}$ -->
     <g transform="translate(1458.713506 111.280471)scale(0.13 -0.13)">
      <use xlink:href="#DejaVuSans-52" transform="translate(0 0.09375)"/>
      <use xlink:href="#DejaVuSans-5a" transform="translate(70.439453 -16.3125)scale(0.7)"/>
     </g>
    </g>
   </g>
   <g id="line2d_78">
    <path d="M 1512.997505 118.238818 
L 1512.997505 106.186779 
" clip-path="url(#pbd33eeab94)" style="fill: none; stroke: #ffffff; stroke-width: 2; stroke-linecap: square"/>
   </g>
   <g id="line2d_79">
    <path d="M 1506.971486 112.212799 
L 1519.023525 112.212799 
" clip-path="url(#pbd33eeab94)" style="fill: none; stroke: #ffffff; stroke-width: 2; stroke-linecap: square"/>
   </g>
   <g id="text_30">
    <g clip-path="url(#pbd33eeab94)">
     <!-- H -->
     <g transform="translate(1554.463302 532.98598)scale(0.13 -0.13)">
      <use xlink:href="#DejaVuSans-48"/>
     </g>
    </g>
   </g>
   <g id="line2d_80">
    <path d="M 1559.351505 118.238818 
L 1559.351505 106.186779 
" clip-path="url(#pbd33eeab94)" style="fill: none; stroke: #ffffff; stroke-width: 2; stroke-linecap: square"/>
   </g>
   <g id="line2d_81">
    <path d="M 1553.325485 112.212799 
L 1565.377525 112.212799 
" clip-path="url(#pbd33eeab94)" style="fill: none; stroke: #ffffff; stroke-width: 2; stroke-linecap: square"/>
   </g>
   <g id="text_31">
    <g clip-path="url(#pbd33eeab94)">
     <!-- H -->
     <g transform="translate(1600.817301 486.631981)scale(0.13 -0.13)">
      <use xlink:href="#DejaVuSans-48"/>
     </g>
    </g>
   </g>
   <g id="line2d_82">
    <path d="M 1605.705504 118.238818 
L 1605.705504 106.186779 
" clip-path="url(#pbd33eeab94)" style="fill: none; stroke: #ffffff; stroke-width: 2; stroke-linecap: square"/>
   </g>
   <g id="line2d_83">
    <path d="M 1599.679484 112.212799 
L 1611.731524 112.212799 
" clip-path="url(#pbd33eeab94)" style="fill: none; stroke: #ffffff; stroke-width: 2; stroke-linecap: square"/>
   </g>
   <g id="text_32">
    <g clip-path="url(#pbd33eeab94)">
     <!-- H -->
     <g transform="translate(1647.171301 254.861984)scale(0.13 -0.13)">
      <use xlink:href="#DejaVuSans-48"/>
     </g>
    </g>
   </g>
   <g id="line2d_84">
    <path d="M 1698.413503 118.238818 
L 1698.413503 106.186779 
" clip-path="url(#pbd33eeab94)" style="fill: none; stroke: #ffffff; stroke-width: 2; stroke-linecap: square"/>
   </g>
   <g id="line2d_85">
    <path d="M 1692.387483 112.212799 
L 1704.439523 112.212799 
" clip-path="url(#pbd33eeab94)" style="fill: none; stroke: #ffffff; stroke-width: 2; stroke-linecap: square"/>
   </g>
   <g id="line2d_86">
    <path d="M 1744.767502 118.238818 
L 1744.767502 106.186779 
" clip-path="url(#pbd33eeab94)" style="fill: none; stroke: #ffffff; stroke-width: 2; stroke-linecap: square"/>
   </g>
   <g id="line2d_87">
    <path d="M 1738.741482 112.212799 
L 1750.793522 112.212799 
" clip-path="url(#pbd33eeab94)" style="fill: none; stroke: #ffffff; stroke-width: 2; stroke-linecap: square"/>
   </g>
   <g id="line2d_88">
    <path d="M 1791.121502 118.238818 
L 1791.121502 106.186779 
" clip-path="url(#pbd33eeab94)" style="fill: none; stroke: #ffffff; stroke-width: 2; stroke-linecap: square"/>
   </g>
   <g id="line2d_89">
    <path d="M 1785.095482 112.212799 
L 1797.147522 112.212799 
" clip-path="url(#pbd33eeab94)" style="fill: none; stroke: #ffffff; stroke-width: 2; stroke-linecap: square"/>
   </g>
   <g id="line2d_90">
    <path d="M 1837.475501 118.238818 
L 1837.475501 106.186779 
" clip-path="url(#pbd33eeab94)" style="fill: none; stroke: #ffffff; stroke-width: 2; stroke-linecap: square"/>
   </g>
   <g id="line2d_91">
    <path d="M 1831.449481 112.212799 
L 1843.501521 112.212799 
" clip-path="url(#pbd33eeab94)" style="fill: none; stroke: #ffffff; stroke-width: 2; stroke-linecap: square"/>
   </g>
   <g id="line2d_92">
    <path d="M 1883.829501 118.238818 
L 1883.829501 106.186779 
" clip-path="url(#pbd33eeab94)" style="fill: none; stroke: #ffffff; stroke-width: 2; stroke-linecap: square"/>
   </g>
   <g id="line2d_93">
    <path d="M 1877.803481 112.212799 
L 1889.85552 112.212799 
" clip-path="url(#pbd33eeab94)" style="fill: none; stroke: #ffffff; stroke-width: 2; stroke-linecap: square"/>
   </g>
   <g id="text_33">
    <g clip-path="url(#pbd33eeab94)">
     <!-- 0.00474 -->
     <g transform="translate(1913.64225 123.459328)scale(0.08 -0.08)">
      <use xlink:href="#DejaVuSans-30"/>
      <use xlink:href="#DejaVuSans-2e" x="63.623047"/>
      <use xlink:href="#DejaVuSans-30" x="95.410156"/>
      <use xlink:href="#DejaVuSans-30" x="159.033203"/>
      <use xlink:href="#DejaVuSans-34" x="222.65625"/>
      <use xlink:href="#DejaVuSans-37" x="286.279297"/>
      <use xlink:href="#DejaVuSans-34" x="349.902344"/>
     </g>
    </g>
   </g>
   <g id="text_34">
    <g clip-path="url(#pbd33eeab94)">
     <!-- $\mathrm{R_Z}$ -->
     <g transform="translate(1922.2535 111.280471)scale(0.13 -0.13)">
      <use xlink:href="#DejaVuSans-52" transform="translate(0 0.09375)"/>
      <use xlink:href="#DejaVuSans-5a" transform="translate(70.439453 -16.3125)scale(0.7)"/>
     </g>
    </g>
   </g>
   <g id="line2d_94">
    <path d="M 1976.537499 118.238818 
L 1976.537499 106.186779 
" clip-path="url(#pbd33eeab94)" style="fill: none; stroke: #ffffff; stroke-width: 2; stroke-linecap: square"/>
   </g>
   <g id="line2d_95">
    <path d="M 1970.511479 112.212799 
L 1982.563519 112.212799 
" clip-path="url(#pbd33eeab94)" style="fill: none; stroke: #ffffff; stroke-width: 2; stroke-linecap: square"/>
   </g>
   <g id="line2d_96">
    <path d="M 2022.891499 118.238818 
L 2022.891499 106.186779 
" clip-path="url(#pbd33eeab94)" style="fill: none; stroke: #ffffff; stroke-width: 2; stroke-linecap: square"/>
   </g>
   <g id="line2d_97">
    <path d="M 2016.865479 112.212799 
L 2028.917519 112.212799 
" clip-path="url(#pbd33eeab94)" style="fill: none; stroke: #ffffff; stroke-width: 2; stroke-linecap: square"/>
   </g>
   <g id="line2d_98">
    <path d="M 2069.245498 118.238818 
L 2069.245498 106.186779 
" clip-path="url(#pbd33eeab94)" style="fill: none; stroke: #ffffff; stroke-width: 2; stroke-linecap: square"/>
   </g>
   <g id="line2d_99">
    <path d="M 2063.219478 112.212799 
L 2075.271518 112.212799 
" clip-path="url(#pbd33eeab94)" style="fill: none; stroke: #ffffff; stroke-width: 2; stroke-linecap: square"/>
   </g>
   <g id="line2d_100">
    <path d="M 2115.599497 118.238818 
L 2115.599497 106.186779 
" clip-path="url(#pbd33eeab94)" style="fill: none; stroke: #ffffff; stroke-width: 2; stroke-linecap: square"/>
   </g>
   <g id="line2d_101">
    <path d="M 2109.573478 112.212799 
L 2121.625517 112.212799 
" clip-path="url(#pbd33eeab94)" style="fill: none; stroke: #ffffff; stroke-width: 2; stroke-linecap: square"/>
   </g>
   <g id="text_35">
    <g clip-path="url(#pbd33eeab94)">
     <!-- H -->
     <g transform="translate(2157.065294 301.215984)scale(0.13 -0.13)">
      <use xlink:href="#DejaVuSans-48"/>
     </g>
    </g>
   </g>
   <g id="line2d_102">
    <path d="M 2208.307496 118.238818 
L 2208.307496 106.186779 
" clip-path="url(#pbd33eeab94)" style="fill: none; stroke: #ffffff; stroke-width: 2; stroke-linecap: square"/>
   </g>
   <g id="line2d_103">
    <path d="M 2202.281476 112.212799 
L 2214.333516 112.212799 
" clip-path="url(#pbd33eeab94)" style="fill: none; stroke: #ffffff; stroke-width: 2; stroke-linecap: square"/>
   </g>
  </g>
 </g>
 <defs>
  <clipPath id="pbd33eeab94">
   <rect x="318.061164" y="75.129599" width="1920.839972" height="482.081594"/>
  </clipPath>
 </defs>
</svg>
