<?xml version="1.0" encoding="utf-8" standalone="no"?>
<!DOCTYPE svg PUBLIC "-//W3C//DTD SVG 1.1//EN"
  "http://www.w3.org/Graphics/SVG/1.1/DTD/svg11.dtd">
<svg xmlns:xlink="http://www.w3.org/1999/xlink" width="1471.197379pt" height="626.079992pt" viewBox="0 0 1471.197379 626.079992" xmlns="http://www.w3.org/2000/svg" version="1.1">
 <metadata>
  <rdf:RDF xmlns:dc="http://purl.org/dc/elements/1.1/" xmlns:cc="http://creativecommons.org/ns#" xmlns:rdf="http://www.w3.org/1999/02/22-rdf-syntax-ns#">
   <cc:Work>
    <dc:type rdf:resource="http://purl.org/dc/dcmitype/StillImage"/>
    <dc:date>2022-05-22T15:04:51.726319</dc:date>
    <dc:format>image/svg+xml</dc:format>
    <dc:creator>
     <cc:Agent>
      <dc:title>Matplotlib v3.5.1, https://matplotlib.org/</dc:title>
     </cc:Agent>
    </dc:creator>
   </cc:Work>
  </rdf:RDF>
 </metadata>
 <defs>
  <style type="text/css">*{stroke-linejoin: round; stroke-linecap: butt}</style>
 </defs>
 <g id="figure_1">
  <g id="patch_1">
   <path d="M 0 626.079992 
L 1471.197379 626.079992 
L 1471.197379 0 
L 0 0 
z
" style="fill: #ffffff"/>
  </g>
  <g id="axes_1">
   <g id="line2d_1">
    <path d="M 244.986862 112.212799 
L 1315.764248 112.212799 
" clip-path="url(#p682500ecbc)" style="fill: none; stroke: #000000; stroke-width: 2; stroke-linecap: square"/>
   </g>
   <g id="line2d_2">
    <path d="M 244.986862 158.566798 
L 1315.764248 158.566798 
" clip-path="url(#p682500ecbc)" style="fill: none; stroke: #000000; stroke-width: 2; stroke-linecap: square"/>
   </g>
   <g id="line2d_3">
    <path d="M 244.986862 204.920797 
L 1315.764248 204.920797 
" clip-path="url(#p682500ecbc)" style="fill: none; stroke: #000000; stroke-width: 2; stroke-linecap: square"/>
   </g>
   <g id="line2d_4">
    <path d="M 244.986862 251.274797 
L 1315.764248 251.274797 
" clip-path="url(#p682500ecbc)" style="fill: none; stroke: #000000; stroke-width: 2; stroke-linecap: square"/>
   </g>
   <g id="line2d_5">
    <path d="M 244.986862 297.628796 
L 1315.764248 297.628796 
" clip-path="url(#p682500ecbc)" style="fill: none; stroke: #000000; stroke-width: 2; stroke-linecap: square"/>
   </g>
   <g id="line2d_6">
    <path d="M 244.986862 343.982795 
L 1315.764248 343.982795 
" clip-path="url(#p682500ecbc)" style="fill: none; stroke: #000000; stroke-width: 2; stroke-linecap: square"/>
   </g>
   <g id="line2d_7">
    <path d="M 244.986862 390.336795 
L 1315.764248 390.336795 
" clip-path="url(#p682500ecbc)" style="fill: none; stroke: #000000; stroke-width: 2; stroke-linecap: square"/>
   </g>
   <g id="line2d_8">
    <path d="M 244.986862 436.690794 
L 1315.764248 436.690794 
" clip-path="url(#p682500ecbc)" style="fill: none; stroke: #000000; stroke-width: 2; stroke-linecap: square"/>
   </g>
   <g id="line2d_9">
    <path d="M 244.986862 483.044794 
L 1315.764248 483.044794 
" clip-path="url(#p682500ecbc)" style="fill: none; stroke: #000000; stroke-width: 2; stroke-linecap: square"/>
   </g>
   <g id="line2d_10">
    <path d="M 244.986862 529.398793 
L 1315.764248 529.398793 
" clip-path="url(#p682500ecbc)" style="fill: none; stroke: #000000; stroke-width: 2; stroke-linecap: square"/>
   </g>
   <g id="line2d_11">
    <path d="M 270.018022 297.628796 
L 270.018022 112.212799 
" clip-path="url(#p682500ecbc)" style="fill: none; stroke: #000000; stroke-width: 2; stroke-linecap: square"/>
   </g>
   <g id="line2d_12">
    <path d="M 270.018022 529.398793 
L 270.018022 483.044794 
" clip-path="url(#p682500ecbc)" style="fill: none; stroke: #000000; stroke-width: 2; stroke-linecap: square"/>
   </g>
   <g id="line2d_13">
    <path d="M 316.372021 529.398793 
L 316.372021 436.690794 
" clip-path="url(#p682500ecbc)" style="fill: none; stroke: #000000; stroke-width: 2; stroke-linecap: square"/>
   </g>
   <g id="line2d_14">
    <path d="M 362.726021 297.628796 
L 362.726021 112.212799 
" clip-path="url(#p682500ecbc)" style="fill: none; stroke: #000000; stroke-width: 2; stroke-linecap: square"/>
   </g>
   <g id="line2d_15">
    <path d="M 362.726021 529.398793 
L 362.726021 390.336795 
" clip-path="url(#p682500ecbc)" style="fill: none; stroke: #000000; stroke-width: 2; stroke-linecap: square"/>
   </g>
   <g id="line2d_16">
    <path d="M 409.08002 529.398793 
L 409.08002 251.274797 
" clip-path="url(#p682500ecbc)" style="fill: none; stroke: #000000; stroke-width: 2; stroke-linecap: square"/>
   </g>
   <g id="line2d_17">
    <path d="M 455.43402 529.398793 
L 455.43402 204.920797 
" clip-path="url(#p682500ecbc)" style="fill: none; stroke: #000000; stroke-width: 2; stroke-linecap: square"/>
   </g>
   <g id="line2d_18">
    <path d="M 501.788019 529.398793 
L 501.788019 158.566798 
" clip-path="url(#p682500ecbc)" style="fill: none; stroke: #000000; stroke-width: 2; stroke-linecap: square"/>
   </g>
   <g id="line2d_19">
    <path d="M 594.496018 529.398793 
L 594.496018 158.566798 
" clip-path="url(#p682500ecbc)" style="fill: none; stroke: #000000; stroke-width: 2; stroke-linecap: square"/>
   </g>
   <g id="line2d_20">
    <path d="M 640.850017 529.398793 
L 640.850017 204.920797 
" clip-path="url(#p682500ecbc)" style="fill: none; stroke: #000000; stroke-width: 2; stroke-linecap: square"/>
   </g>
   <g id="line2d_21">
    <path d="M 687.204016 529.398793 
L 687.204016 251.274797 
" clip-path="url(#p682500ecbc)" style="fill: none; stroke: #000000; stroke-width: 2; stroke-linecap: square"/>
   </g>
   <g id="line2d_22">
    <path d="M 733.558016 529.398793 
L 733.558016 390.336795 
" clip-path="url(#p682500ecbc)" style="fill: none; stroke: #000000; stroke-width: 2; stroke-linecap: square"/>
   </g>
   <g id="line2d_23">
    <path d="M 779.912015 529.398793 
L 779.912015 436.690794 
" clip-path="url(#p682500ecbc)" style="fill: none; stroke: #000000; stroke-width: 2; stroke-linecap: square"/>
   </g>
   <g id="line2d_24">
    <path d="M 826.266015 529.398793 
L 826.266015 483.044794 
" clip-path="url(#p682500ecbc)" style="fill: none; stroke: #000000; stroke-width: 2; stroke-linecap: square"/>
   </g>
   <g id="line2d_25">
    <path d="M 872.620014 529.398793 
L 872.620014 297.628796 
" clip-path="url(#p682500ecbc)" style="fill: none; stroke: #000000; stroke-width: 2; stroke-linecap: square"/>
   </g>
   <g id="line2d_26">
    <path d="M 918.974013 390.336795 
L 918.974013 251.274797 
" clip-path="url(#p682500ecbc)" style="fill: none; stroke: #000000; stroke-width: 2; stroke-linecap: square"/>
   </g>
   <g id="line2d_27">
    <path d="M 1011.682012 529.398793 
L 1011.682012 297.628796 
" clip-path="url(#p682500ecbc)" style="fill: none; stroke: #000000; stroke-width: 2; stroke-linecap: square"/>
   </g>
   <g id="line2d_28">
    <path d="M 1104.390011 297.628796 
L 1104.390011 251.274797 
" clip-path="url(#p682500ecbc)" style="fill: none; stroke: #000000; stroke-width: 2; stroke-linecap: square"/>
   </g>
   <g id="line2d_29">
    <path d="M 1197.09801 297.628796 
L 1197.09801 251.274797 
" clip-path="url(#p682500ecbc)" style="fill: none; stroke: #000000; stroke-width: 2; stroke-linecap: square"/>
   </g>
   <g id="line2d_30">
    <path d="M 1289.806008 390.336795 
L 1289.806008 251.274797 
" clip-path="url(#p682500ecbc)" style="fill: none; stroke: #000000; stroke-width: 2; stroke-linecap: square"/>
   </g>
   <g id="text_1">
    <!-- TERMS: 4, DEPTH:21 -->
    <g transform="translate(691.956157 69.129599)scale(0.12 -0.12)">
     <defs>
      <path id="DejaVuSans-54" d="M -19 4666 
L 3928 4666 
L 3928 4134 
L 2272 4134 
L 2272 0 
L 1638 0 
L 1638 4134 
L -19 4134 
L -19 4666 
z
" transform="scale(0.015625)"/>
      <path id="DejaVuSans-45" d="M 628 4666 
L 3578 4666 
L 3578 4134 
L 1259 4134 
L 1259 2753 
L 3481 2753 
L 3481 2222 
L 1259 2222 
L 1259 531 
L 3634 531 
L 3634 0 
L 628 0 
L 628 4666 
z
" transform="scale(0.015625)"/>
      <path id="DejaVuSans-52" d="M 2841 2188 
Q 3044 2119 3236 1894 
Q 3428 1669 3622 1275 
L 4263 0 
L 3584 0 
L 2988 1197 
Q 2756 1666 2539 1819 
Q 2322 1972 1947 1972 
L 1259 1972 
L 1259 0 
L 628 0 
L 628 4666 
L 2053 4666 
Q 2853 4666 3247 4331 
Q 3641 3997 3641 3322 
Q 3641 2881 3436 2590 
Q 3231 2300 2841 2188 
z
M 1259 4147 
L 1259 2491 
L 2053 2491 
Q 2509 2491 2742 2702 
Q 2975 2913 2975 3322 
Q 2975 3731 2742 3939 
Q 2509 4147 2053 4147 
L 1259 4147 
z
" transform="scale(0.015625)"/>
      <path id="DejaVuSans-4d" d="M 628 4666 
L 1569 4666 
L 2759 1491 
L 3956 4666 
L 4897 4666 
L 4897 0 
L 4281 0 
L 4281 4097 
L 3078 897 
L 2444 897 
L 1241 4097 
L 1241 0 
L 628 0 
L 628 4666 
z
" transform="scale(0.015625)"/>
      <path id="DejaVuSans-53" d="M 3425 4513 
L 3425 3897 
Q 3066 4069 2747 4153 
Q 2428 4238 2131 4238 
Q 1616 4238 1336 4038 
Q 1056 3838 1056 3469 
Q 1056 3159 1242 3001 
Q 1428 2844 1947 2747 
L 2328 2669 
Q 3034 2534 3370 2195 
Q 3706 1856 3706 1288 
Q 3706 609 3251 259 
Q 2797 -91 1919 -91 
Q 1588 -91 1214 -16 
Q 841 59 441 206 
L 441 856 
Q 825 641 1194 531 
Q 1563 422 1919 422 
Q 2459 422 2753 634 
Q 3047 847 3047 1241 
Q 3047 1584 2836 1778 
Q 2625 1972 2144 2069 
L 1759 2144 
Q 1053 2284 737 2584 
Q 422 2884 422 3419 
Q 422 4038 858 4394 
Q 1294 4750 2059 4750 
Q 2388 4750 2728 4690 
Q 3069 4631 3425 4513 
z
" transform="scale(0.015625)"/>
      <path id="DejaVuSans-3a" d="M 750 794 
L 1409 794 
L 1409 0 
L 750 0 
L 750 794 
z
M 750 3309 
L 1409 3309 
L 1409 2516 
L 750 2516 
L 750 3309 
z
" transform="scale(0.015625)"/>
      <path id="DejaVuSans-20" transform="scale(0.015625)"/>
      <path id="DejaVuSans-34" d="M 2419 4116 
L 825 1625 
L 2419 1625 
L 2419 4116 
z
M 2253 4666 
L 3047 4666 
L 3047 1625 
L 3713 1625 
L 3713 1100 
L 3047 1100 
L 3047 0 
L 2419 0 
L 2419 1100 
L 313 1100 
L 313 1709 
L 2253 4666 
z
" transform="scale(0.015625)"/>
      <path id="DejaVuSans-2c" d="M 750 794 
L 1409 794 
L 1409 256 
L 897 -744 
L 494 -744 
L 750 256 
L 750 794 
z
" transform="scale(0.015625)"/>
      <path id="DejaVuSans-44" d="M 1259 4147 
L 1259 519 
L 2022 519 
Q 2988 519 3436 956 
Q 3884 1394 3884 2338 
Q 3884 3275 3436 3711 
Q 2988 4147 2022 4147 
L 1259 4147 
z
M 628 4666 
L 1925 4666 
Q 3281 4666 3915 4102 
Q 4550 3538 4550 2338 
Q 4550 1131 3912 565 
Q 3275 0 1925 0 
L 628 0 
L 628 4666 
z
" transform="scale(0.015625)"/>
      <path id="DejaVuSans-50" d="M 1259 4147 
L 1259 2394 
L 2053 2394 
Q 2494 2394 2734 2622 
Q 2975 2850 2975 3272 
Q 2975 3691 2734 3919 
Q 2494 4147 2053 4147 
L 1259 4147 
z
M 628 4666 
L 2053 4666 
Q 2838 4666 3239 4311 
Q 3641 3956 3641 3272 
Q 3641 2581 3239 2228 
Q 2838 1875 2053 1875 
L 1259 1875 
L 1259 0 
L 628 0 
L 628 4666 
z
" transform="scale(0.015625)"/>
      <path id="DejaVuSans-48" d="M 628 4666 
L 1259 4666 
L 1259 2753 
L 3553 2753 
L 3553 4666 
L 4184 4666 
L 4184 0 
L 3553 0 
L 3553 2222 
L 1259 2222 
L 1259 0 
L 628 0 
L 628 4666 
z
" transform="scale(0.015625)"/>
      <path id="DejaVuSans-32" d="M 1228 531 
L 3431 531 
L 3431 0 
L 469 0 
L 469 531 
Q 828 903 1448 1529 
Q 2069 2156 2228 2338 
Q 2531 2678 2651 2914 
Q 2772 3150 2772 3378 
Q 2772 3750 2511 3984 
Q 2250 4219 1831 4219 
Q 1534 4219 1204 4116 
Q 875 4013 500 3803 
L 500 4441 
Q 881 4594 1212 4672 
Q 1544 4750 1819 4750 
Q 2544 4750 2975 4387 
Q 3406 4025 3406 3419 
Q 3406 3131 3298 2873 
Q 3191 2616 2906 2266 
Q 2828 2175 2409 1742 
Q 1991 1309 1228 531 
z
" transform="scale(0.015625)"/>
      <path id="DejaVuSans-31" d="M 794 531 
L 1825 531 
L 1825 4091 
L 703 3866 
L 703 4441 
L 1819 4666 
L 2450 4666 
L 2450 531 
L 3481 531 
L 3481 0 
L 794 0 
L 794 531 
z
" transform="scale(0.015625)"/>
     </defs>
     <use xlink:href="#DejaVuSans-54"/>
     <use xlink:href="#DejaVuSans-45" x="61.083984"/>
     <use xlink:href="#DejaVuSans-52" x="124.267578"/>
     <use xlink:href="#DejaVuSans-4d" x="193.75"/>
     <use xlink:href="#DejaVuSans-53" x="280.029297"/>
     <use xlink:href="#DejaVuSans-3a" x="343.505859"/>
     <use xlink:href="#DejaVuSans-20" x="377.197266"/>
     <use xlink:href="#DejaVuSans-34" x="408.984375"/>
     <use xlink:href="#DejaVuSans-2c" x="472.607422"/>
     <use xlink:href="#DejaVuSans-20" x="504.394531"/>
     <use xlink:href="#DejaVuSans-44" x="536.181641"/>
     <use xlink:href="#DejaVuSans-45" x="613.183594"/>
     <use xlink:href="#DejaVuSans-50" x="676.367188"/>
     <use xlink:href="#DejaVuSans-54" x="736.669922"/>
     <use xlink:href="#DejaVuSans-48" x="797.753906"/>
     <use xlink:href="#DejaVuSans-3a" x="872.949219"/>
     <use xlink:href="#DejaVuSans-32" x="906.640625"/>
     <use xlink:href="#DejaVuSans-31" x="970.263672"/>
    </g>
   </g>
   <g id="patch_2">
    <path d="M 270.018022 116.732313 
C 271.216611 116.732313 272.366271 116.256109 273.213802 115.408578 
C 274.061332 114.561047 274.537537 113.411388 274.537537 112.212799 
C 274.537537 111.014209 274.061332 109.86455 273.213802 109.017019 
C 272.366271 108.169488 271.216611 107.693284 270.018022 107.693284 
C 268.819433 107.693284 267.669773 108.169488 266.822242 109.017019 
C 265.974712 109.86455 265.498507 111.014209 265.498507 112.212799 
C 265.498507 113.411388 265.974712 114.561047 266.822242 115.408578 
C 267.669773 116.256109 268.819433 116.732313 270.018022 116.732313 
z
" clip-path="url(#p682500ecbc)" style="stroke: #000000; stroke-width: 1.5; stroke-linejoin: miter"/>
   </g>
   <g id="patch_3">
    <path d="M 270.018022 308.174331 
C 272.814731 308.174331 275.49727 307.063187 277.474841 305.085615 
C 279.452413 303.108044 280.563557 300.425505 280.563557 297.628796 
C 280.563557 294.832088 279.452413 292.149548 277.474841 290.171977 
C 275.49727 288.194405 272.814731 287.083261 270.018022 287.083261 
C 267.221313 287.083261 264.538774 288.194405 262.561203 290.171977 
C 260.583631 292.149548 259.472487 294.832088 259.472487 297.628796 
C 259.472487 300.425505 260.583631 303.108044 262.561203 305.085615 
C 264.538774 307.063187 267.221313 308.174331 270.018022 308.174331 
z
" clip-path="url(#p682500ecbc)" style="stroke: #000000; stroke-width: 2; stroke-linejoin: miter"/>
   </g>
   <g id="patch_4">
    <path d="M 270.018022 487.564309 
C 271.216611 487.564309 272.366271 487.088104 273.213802 486.240573 
C 274.061332 485.393043 274.537537 484.243383 274.537537 483.044794 
C 274.537537 481.846204 274.061332 480.696545 273.213802 479.849014 
C 272.366271 479.001483 271.216611 478.525279 270.018022 478.525279 
C 268.819433 478.525279 267.669773 479.001483 266.822242 479.849014 
C 265.974712 480.696545 265.498507 481.846204 265.498507 483.044794 
C 265.498507 484.243383 265.974712 485.393043 266.822242 486.240573 
C 267.669773 487.088104 268.819433 487.564309 270.018022 487.564309 
z
" clip-path="url(#p682500ecbc)" style="stroke: #000000; stroke-width: 1.5; stroke-linejoin: miter"/>
   </g>
   <g id="patch_5">
    <path d="M 270.018022 539.944328 
C 272.814731 539.944328 275.49727 538.833184 277.474841 536.855612 
C 279.452413 534.878041 280.563557 532.195502 280.563557 529.398793 
C 280.563557 526.602084 279.452413 523.919545 277.474841 521.941974 
C 275.49727 519.964402 272.814731 518.853258 270.018022 518.853258 
C 267.221313 518.853258 264.538774 519.964402 262.561203 521.941974 
C 260.583631 523.919545 259.472487 526.602084 259.472487 529.398793 
C 259.472487 532.195502 260.583631 534.878041 262.561203 536.855612 
C 264.538774 538.833184 267.221313 539.944328 270.018022 539.944328 
z
" clip-path="url(#p682500ecbc)" style="stroke: #000000; stroke-width: 2; stroke-linejoin: miter"/>
   </g>
   <g id="patch_6">
    <path d="M 254.952972 405.401845 
L 285.083072 405.401845 
L 285.083072 375.271745 
L 254.952972 375.271745 
z
" clip-path="url(#p682500ecbc)" style="fill: #ffffff; stroke: #000000; stroke-width: 1.5; stroke-linejoin: miter"/>
   </g>
   <g id="patch_7">
    <path d="M 301.306972 266.339846 
L 331.437071 266.339846 
L 331.437071 236.209747 
L 301.306972 236.209747 
z
" clip-path="url(#p682500ecbc)" style="fill: #ffffff; stroke: #000000; stroke-width: 1.5; stroke-linejoin: miter"/>
   </g>
   <g id="patch_8">
    <path d="M 301.306972 173.631848 
L 331.437071 173.631848 
L 331.437071 143.501748 
L 301.306972 143.501748 
z
" clip-path="url(#p682500ecbc)" style="fill: #ffffff; stroke: #000000; stroke-width: 1.5; stroke-linejoin: miter"/>
   </g>
   <g id="patch_9">
    <path d="M 301.306972 312.693846 
L 331.437071 312.693846 
L 331.437071 282.563746 
L 301.306972 282.563746 
z
" clip-path="url(#p682500ecbc)" style="fill: #ffffff; stroke: #000000; stroke-width: 1.5; stroke-linejoin: miter"/>
   </g>
   <g id="patch_10">
    <path d="M 316.372021 441.210309 
C 317.570611 441.210309 318.72027 440.734105 319.567801 439.886574 
C 320.415332 439.039043 320.891536 437.889384 320.891536 436.690794 
C 320.891536 435.492205 320.415332 434.342545 319.567801 433.495015 
C 318.72027 432.647484 317.570611 432.171279 316.372021 432.171279 
C 315.173432 432.171279 314.023772 432.647484 313.176242 433.495015 
C 312.328711 434.342545 311.852506 435.492205 311.852506 436.690794 
C 311.852506 437.889384 312.328711 439.039043 313.176242 439.886574 
C 314.023772 440.734105 315.173432 441.210309 316.372021 441.210309 
z
" clip-path="url(#p682500ecbc)" style="stroke: #000000; stroke-width: 1.5; stroke-linejoin: miter"/>
   </g>
   <g id="patch_11">
    <path d="M 316.372021 539.944328 
C 319.16873 539.944328 321.851269 538.833184 323.828841 536.855612 
C 325.806412 534.878041 326.917556 532.195502 326.917556 529.398793 
C 326.917556 526.602084 325.806412 523.919545 323.828841 521.941974 
C 321.851269 519.964402 319.16873 518.853258 316.372021 518.853258 
C 313.575313 518.853258 310.892774 519.964402 308.915202 521.941974 
C 306.937631 523.919545 305.826487 526.602084 305.826487 529.398793 
C 305.826487 532.195502 306.937631 534.878041 308.915202 536.855612 
C 310.892774 538.833184 313.575313 539.944328 316.372021 539.944328 
z
" clip-path="url(#p682500ecbc)" style="stroke: #000000; stroke-width: 2; stroke-linejoin: miter"/>
   </g>
   <g id="patch_12">
    <path d="M 301.306972 405.401845 
L 331.437071 405.401845 
L 331.437071 375.271745 
L 301.306972 375.271745 
z
" clip-path="url(#p682500ecbc)" style="fill: #ffffff; stroke: #000000; stroke-width: 1.5; stroke-linejoin: miter"/>
   </g>
   <g id="patch_13">
    <path d="M 362.726021 116.732313 
C 363.92461 116.732313 365.07427 116.256109 365.9218 115.408578 
C 366.769331 114.561047 367.245536 113.411388 367.245536 112.212799 
C 367.245536 111.014209 366.769331 109.86455 365.9218 109.017019 
C 365.07427 108.169488 363.92461 107.693284 362.726021 107.693284 
C 361.527431 107.693284 360.377772 108.169488 359.530241 109.017019 
C 358.68271 109.86455 358.206506 111.014209 358.206506 112.212799 
C 358.206506 113.411388 358.68271 114.561047 359.530241 115.408578 
C 360.377772 116.256109 361.527431 116.732313 362.726021 116.732313 
z
" clip-path="url(#p682500ecbc)" style="stroke: #000000; stroke-width: 1.5; stroke-linejoin: miter"/>
   </g>
   <g id="patch_14">
    <path d="M 362.726021 308.174331 
C 365.522729 308.174331 368.205268 307.063187 370.18284 305.085615 
C 372.160412 303.108044 373.271556 300.425505 373.271556 297.628796 
C 373.271556 294.832088 372.160412 292.149548 370.18284 290.171977 
C 368.205268 288.194405 365.522729 287.083261 362.726021 287.083261 
C 359.929312 287.083261 357.246773 288.194405 355.269202 290.171977 
C 353.29163 292.149548 352.180486 294.832088 352.180486 297.628796 
C 352.180486 300.425505 353.29163 303.108044 355.269202 305.085615 
C 357.246773 307.063187 359.929312 308.174331 362.726021 308.174331 
z
" clip-path="url(#p682500ecbc)" style="stroke: #000000; stroke-width: 2; stroke-linejoin: miter"/>
   </g>
   <g id="patch_15">
    <path d="M 362.726021 394.85631 
C 363.92461 394.85631 365.07427 394.380105 365.9218 393.532574 
C 366.769331 392.685044 367.245536 391.535384 367.245536 390.336795 
C 367.245536 389.138205 366.769331 387.988546 365.9218 387.141015 
C 365.07427 386.293484 363.92461 385.81728 362.726021 385.81728 
C 361.527431 385.81728 360.377772 386.293484 359.530241 387.141015 
C 358.68271 387.988546 358.206506 389.138205 358.206506 390.336795 
C 358.206506 391.535384 358.68271 392.685044 359.530241 393.532574 
C 360.377772 394.380105 361.527431 394.85631 362.726021 394.85631 
z
" clip-path="url(#p682500ecbc)" style="stroke: #000000; stroke-width: 1.5; stroke-linejoin: miter"/>
   </g>
   <g id="patch_16">
    <path d="M 362.726021 539.944328 
C 365.522729 539.944328 368.205268 538.833184 370.18284 536.855612 
C 372.160412 534.878041 373.271556 532.195502 373.271556 529.398793 
C 373.271556 526.602084 372.160412 523.919545 370.18284 521.941974 
C 368.205268 519.964402 365.522729 518.853258 362.726021 518.853258 
C 359.929312 518.853258 357.246773 519.964402 355.269202 521.941974 
C 353.29163 523.919545 352.180486 526.602084 352.180486 529.398793 
C 352.180486 532.195502 353.29163 534.878041 355.269202 536.855612 
C 357.246773 538.833184 359.929312 539.944328 362.726021 539.944328 
z
" clip-path="url(#p682500ecbc)" style="stroke: #000000; stroke-width: 2; stroke-linejoin: miter"/>
   </g>
   <g id="patch_17">
    <path d="M 409.08002 255.794312 
C 410.27861 255.794312 411.428269 255.318107 412.2758 254.470576 
C 413.123331 253.623046 413.599535 252.473386 413.599535 251.274797 
C 413.599535 250.076207 413.123331 248.926548 412.2758 248.079017 
C 411.428269 247.231486 410.27861 246.755282 409.08002 246.755282 
C 407.881431 246.755282 406.731771 247.231486 405.884241 248.079017 
C 405.03671 248.926548 404.560505 250.076207 404.560505 251.274797 
C 404.560505 252.473386 405.03671 253.623046 405.884241 254.470576 
C 406.731771 255.318107 407.881431 255.794312 409.08002 255.794312 
z
" clip-path="url(#p682500ecbc)" style="stroke: #000000; stroke-width: 1.5; stroke-linejoin: miter"/>
   </g>
   <g id="patch_18">
    <path d="M 409.08002 539.944328 
C 411.876729 539.944328 414.559268 538.833184 416.536839 536.855612 
C 418.514411 534.878041 419.625555 532.195502 419.625555 529.398793 
C 419.625555 526.602084 418.514411 523.919545 416.536839 521.941974 
C 414.559268 519.964402 411.876729 518.853258 409.08002 518.853258 
C 406.283312 518.853258 403.600773 519.964402 401.623201 521.941974 
C 399.645629 523.919545 398.534485 526.602084 398.534485 529.398793 
C 398.534485 532.195502 399.645629 534.878041 401.623201 536.855612 
C 403.600773 538.833184 406.283312 539.944328 409.08002 539.944328 
z
" clip-path="url(#p682500ecbc)" style="stroke: #000000; stroke-width: 2; stroke-linejoin: miter"/>
   </g>
   <g id="patch_19">
    <path d="M 455.43402 209.440312 
C 456.632609 209.440312 457.782269 208.964108 458.629799 208.116577 
C 459.47733 207.269046 459.953534 206.119387 459.953534 204.920797 
C 459.953534 203.722208 459.47733 202.572548 458.629799 201.725018 
C 457.782269 200.877487 456.632609 200.401282 455.43402 200.401282 
C 454.23543 200.401282 453.085771 200.877487 452.23824 201.725018 
C 451.390709 202.572548 450.914505 203.722208 450.914505 204.920797 
C 450.914505 206.119387 451.390709 207.269046 452.23824 208.116577 
C 453.085771 208.964108 454.23543 209.440312 455.43402 209.440312 
z
" clip-path="url(#p682500ecbc)" style="stroke: #000000; stroke-width: 1.5; stroke-linejoin: miter"/>
   </g>
   <g id="patch_20">
    <path d="M 455.43402 539.944328 
C 458.230728 539.944328 460.913267 538.833184 462.890839 536.855612 
C 464.86841 534.878041 465.979554 532.195502 465.979554 529.398793 
C 465.979554 526.602084 464.86841 523.919545 462.890839 521.941974 
C 460.913267 519.964402 458.230728 518.853258 455.43402 518.853258 
C 452.637311 518.853258 449.954772 519.964402 447.9772 521.941974 
C 445.999629 523.919545 444.888485 526.602084 444.888485 529.398793 
C 444.888485 532.195502 445.999629 534.878041 447.9772 536.855612 
C 449.954772 538.833184 452.637311 539.944328 455.43402 539.944328 
z
" clip-path="url(#p682500ecbc)" style="stroke: #000000; stroke-width: 2; stroke-linejoin: miter"/>
   </g>
   <g id="patch_21">
    <path d="M 501.788019 163.086313 
C 502.986608 163.086313 504.136268 162.610108 504.983799 161.762578 
C 505.831329 160.915047 506.307534 159.765387 506.307534 158.566798 
C 506.307534 157.368209 505.831329 156.218549 504.983799 155.371018 
C 504.136268 154.523488 502.986608 154.047283 501.788019 154.047283 
C 500.58943 154.047283 499.43977 154.523488 498.592239 155.371018 
C 497.744709 156.218549 497.268504 157.368209 497.268504 158.566798 
C 497.268504 159.765387 497.744709 160.915047 498.592239 161.762578 
C 499.43977 162.610108 500.58943 163.086313 501.788019 163.086313 
z
" clip-path="url(#p682500ecbc)" style="stroke: #000000; stroke-width: 1.5; stroke-linejoin: miter"/>
   </g>
   <g id="patch_22">
    <path d="M 501.788019 539.944328 
C 504.584727 539.944328 507.267267 538.833184 509.244838 536.855612 
C 511.22241 534.878041 512.333554 532.195502 512.333554 529.398793 
C 512.333554 526.602084 511.22241 523.919545 509.244838 521.941974 
C 507.267267 519.964402 504.584727 518.853258 501.788019 518.853258 
C 498.99131 518.853258 496.308771 519.964402 494.3312 521.941974 
C 492.353628 523.919545 491.242484 526.602084 491.242484 529.398793 
C 491.242484 532.195502 492.353628 534.878041 494.3312 536.855612 
C 496.308771 538.833184 498.99131 539.944328 501.788019 539.944328 
z
" clip-path="url(#p682500ecbc)" style="stroke: #000000; stroke-width: 2; stroke-linejoin: miter"/>
   </g>
   <g id="patch_23">
    <path d="M 530.464921 544.463843 
L 565.819116 544.463843 
L 565.819116 514.333743 
L 530.464921 514.333743 
z
" clip-path="url(#p682500ecbc)" style="fill: #ffffff; stroke: #000000; stroke-width: 1.5; stroke-linejoin: miter"/>
   </g>
   <g id="patch_24">
    <path d="M 594.496018 163.086313 
C 595.694607 163.086313 596.844267 162.610108 597.691797 161.762578 
C 598.539328 160.915047 599.015533 159.765387 599.015533 158.566798 
C 599.015533 157.368209 598.539328 156.218549 597.691797 155.371018 
C 596.844267 154.523488 595.694607 154.047283 594.496018 154.047283 
C 593.297428 154.047283 592.147769 154.523488 591.300238 155.371018 
C 590.452707 156.218549 589.976503 157.368209 589.976503 158.566798 
C 589.976503 159.765387 590.452707 160.915047 591.300238 161.762578 
C 592.147769 162.610108 593.297428 163.086313 594.496018 163.086313 
z
" clip-path="url(#p682500ecbc)" style="stroke: #000000; stroke-width: 1.5; stroke-linejoin: miter"/>
   </g>
   <g id="patch_25">
    <path d="M 594.496018 539.944328 
C 597.292726 539.944328 599.975265 538.833184 601.952837 536.855612 
C 603.930408 534.878041 605.041553 532.195502 605.041553 529.398793 
C 605.041553 526.602084 603.930408 523.919545 601.952837 521.941974 
C 599.975265 519.964402 597.292726 518.853258 594.496018 518.853258 
C 591.699309 518.853258 589.01677 519.964402 587.039198 521.941974 
C 585.061627 523.919545 583.950483 526.602084 583.950483 529.398793 
C 583.950483 532.195502 585.061627 534.878041 587.039198 536.855612 
C 589.01677 538.833184 591.699309 539.944328 594.496018 539.944328 
z
" clip-path="url(#p682500ecbc)" style="stroke: #000000; stroke-width: 2; stroke-linejoin: miter"/>
   </g>
   <g id="patch_26">
    <path d="M 625.784967 173.631848 
L 655.915067 173.631848 
L 655.915067 143.501748 
L 625.784967 143.501748 
z
" clip-path="url(#p682500ecbc)" style="fill: #ffffff; stroke: #000000; stroke-width: 1.5; stroke-linejoin: miter"/>
   </g>
   <g id="patch_27">
    <path d="M 640.850017 209.440312 
C 642.048606 209.440312 643.198266 208.964108 644.045797 208.116577 
C 644.893327 207.269046 645.369532 206.119387 645.369532 204.920797 
C 645.369532 203.722208 644.893327 202.572548 644.045797 201.725018 
C 643.198266 200.877487 642.048606 200.401282 640.850017 200.401282 
C 639.651428 200.401282 638.501768 200.877487 637.654237 201.725018 
C 636.806707 202.572548 636.330502 203.722208 636.330502 204.920797 
C 636.330502 206.119387 636.806707 207.269046 637.654237 208.116577 
C 638.501768 208.964108 639.651428 209.440312 640.850017 209.440312 
z
" clip-path="url(#p682500ecbc)" style="stroke: #000000; stroke-width: 1.5; stroke-linejoin: miter"/>
   </g>
   <g id="patch_28">
    <path d="M 640.850017 539.944328 
C 643.646726 539.944328 646.329265 538.833184 648.306836 536.855612 
C 650.284408 534.878041 651.395552 532.195502 651.395552 529.398793 
C 651.395552 526.602084 650.284408 523.919545 648.306836 521.941974 
C 646.329265 519.964402 643.646726 518.853258 640.850017 518.853258 
C 638.053309 518.853258 635.370769 519.964402 633.393198 521.941974 
C 631.415626 523.919545 630.304482 526.602084 630.304482 529.398793 
C 630.304482 532.195502 631.415626 534.878041 633.393198 536.855612 
C 635.370769 538.833184 638.053309 539.944328 640.850017 539.944328 
z
" clip-path="url(#p682500ecbc)" style="stroke: #000000; stroke-width: 2; stroke-linejoin: miter"/>
   </g>
   <g id="patch_29">
    <path d="M 687.204016 255.794312 
C 688.402606 255.794312 689.552265 255.318107 690.399796 254.470576 
C 691.247327 253.623046 691.723531 252.473386 691.723531 251.274797 
C 691.723531 250.076207 691.247327 248.926548 690.399796 248.079017 
C 689.552265 247.231486 688.402606 246.755282 687.204016 246.755282 
C 686.005427 246.755282 684.855767 247.231486 684.008237 248.079017 
C 683.160706 248.926548 682.684502 250.076207 682.684502 251.274797 
C 682.684502 252.473386 683.160706 253.623046 684.008237 254.470576 
C 684.855767 255.318107 686.005427 255.794312 687.204016 255.794312 
z
" clip-path="url(#p682500ecbc)" style="stroke: #000000; stroke-width: 1.5; stroke-linejoin: miter"/>
   </g>
   <g id="patch_30">
    <path d="M 687.204016 539.944328 
C 690.000725 539.944328 692.683264 538.833184 694.660836 536.855612 
C 696.638407 534.878041 697.749551 532.195502 697.749551 529.398793 
C 697.749551 526.602084 696.638407 523.919545 694.660836 521.941974 
C 692.683264 519.964402 690.000725 518.853258 687.204016 518.853258 
C 684.407308 518.853258 681.724769 519.964402 679.747197 521.941974 
C 677.769626 523.919545 676.658482 526.602084 676.658482 529.398793 
C 676.658482 532.195502 677.769626 534.878041 679.747197 536.855612 
C 681.724769 538.833184 684.407308 539.944328 687.204016 539.944328 
z
" clip-path="url(#p682500ecbc)" style="stroke: #000000; stroke-width: 2; stroke-linejoin: miter"/>
   </g>
   <g id="patch_31">
    <path d="M 733.558016 394.85631 
C 734.756605 394.85631 735.906265 394.380105 736.753796 393.532574 
C 737.601326 392.685044 738.077531 391.535384 738.077531 390.336795 
C 738.077531 389.138205 737.601326 387.988546 736.753796 387.141015 
C 735.906265 386.293484 734.756605 385.81728 733.558016 385.81728 
C 732.359426 385.81728 731.209767 386.293484 730.362236 387.141015 
C 729.514706 387.988546 729.038501 389.138205 729.038501 390.336795 
C 729.038501 391.535384 729.514706 392.685044 730.362236 393.532574 
C 731.209767 394.380105 732.359426 394.85631 733.558016 394.85631 
z
" clip-path="url(#p682500ecbc)" style="stroke: #000000; stroke-width: 1.5; stroke-linejoin: miter"/>
   </g>
   <g id="patch_32">
    <path d="M 733.558016 539.944328 
C 736.354724 539.944328 739.037263 538.833184 741.014835 536.855612 
C 742.992407 534.878041 744.103551 532.195502 744.103551 529.398793 
C 744.103551 526.602084 742.992407 523.919545 741.014835 521.941974 
C 739.037263 519.964402 736.354724 518.853258 733.558016 518.853258 
C 730.761307 518.853258 728.078768 519.964402 726.101197 521.941974 
C 724.123625 523.919545 723.012481 526.602084 723.012481 529.398793 
C 723.012481 532.195502 724.123625 534.878041 726.101197 536.855612 
C 728.078768 538.833184 730.761307 539.944328 733.558016 539.944328 
z
" clip-path="url(#p682500ecbc)" style="stroke: #000000; stroke-width: 2; stroke-linejoin: miter"/>
   </g>
   <g id="patch_33">
    <path d="M 764.846965 405.401845 
L 794.977065 405.401845 
L 794.977065 375.271745 
L 764.846965 375.271745 
z
" clip-path="url(#p682500ecbc)" style="fill: #ffffff; stroke: #000000; stroke-width: 1.5; stroke-linejoin: miter"/>
   </g>
   <g id="patch_34">
    <path d="M 779.912015 441.210309 
C 781.110605 441.210309 782.260264 440.734105 783.107795 439.886574 
C 783.955326 439.039043 784.43153 437.889384 784.43153 436.690794 
C 784.43153 435.492205 783.955326 434.342545 783.107795 433.495015 
C 782.260264 432.647484 781.110605 432.171279 779.912015 432.171279 
C 778.713426 432.171279 777.563766 432.647484 776.716236 433.495015 
C 775.868705 434.342545 775.3925 435.492205 775.3925 436.690794 
C 775.3925 437.889384 775.868705 439.039043 776.716236 439.886574 
C 777.563766 440.734105 778.713426 441.210309 779.912015 441.210309 
z
" clip-path="url(#p682500ecbc)" style="stroke: #000000; stroke-width: 1.5; stroke-linejoin: miter"/>
   </g>
   <g id="patch_35">
    <path d="M 779.912015 539.944328 
C 782.708724 539.944328 785.391263 538.833184 787.368834 536.855612 
C 789.346406 534.878041 790.45755 532.195502 790.45755 529.398793 
C 790.45755 526.602084 789.346406 523.919545 787.368834 521.941974 
C 785.391263 519.964402 782.708724 518.853258 779.912015 518.853258 
C 777.115307 518.853258 774.432768 519.964402 772.455196 521.941974 
C 770.477624 523.919545 769.36648 526.602084 769.36648 529.398793 
C 769.36648 532.195502 770.477624 534.878041 772.455196 536.855612 
C 774.432768 538.833184 777.115307 539.944328 779.912015 539.944328 
z
" clip-path="url(#p682500ecbc)" style="stroke: #000000; stroke-width: 2; stroke-linejoin: miter"/>
   </g>
   <g id="patch_36">
    <path d="M 811.200965 405.401845 
L 841.331064 405.401845 
L 841.331064 375.271745 
L 811.200965 375.271745 
z
" clip-path="url(#p682500ecbc)" style="fill: #ffffff; stroke: #000000; stroke-width: 1.5; stroke-linejoin: miter"/>
   </g>
   <g id="patch_37">
    <path d="M 826.266015 487.564309 
C 827.464604 487.564309 828.614264 487.088104 829.461794 486.240573 
C 830.309325 485.393043 830.78553 484.243383 830.78553 483.044794 
C 830.78553 481.846204 830.309325 480.696545 829.461794 479.849014 
C 828.614264 479.001483 827.464604 478.525279 826.266015 478.525279 
C 825.067425 478.525279 823.917766 479.001483 823.070235 479.849014 
C 822.222704 480.696545 821.7465 481.846204 821.7465 483.044794 
C 821.7465 484.243383 822.222704 485.393043 823.070235 486.240573 
C 823.917766 487.088104 825.067425 487.564309 826.266015 487.564309 
z
" clip-path="url(#p682500ecbc)" style="stroke: #000000; stroke-width: 1.5; stroke-linejoin: miter"/>
   </g>
   <g id="patch_38">
    <path d="M 826.266015 539.944328 
C 829.062723 539.944328 831.745262 538.833184 833.722834 536.855612 
C 835.700405 534.878041 836.811549 532.195502 836.811549 529.398793 
C 836.811549 526.602084 835.700405 523.919545 833.722834 521.941974 
C 831.745262 519.964402 829.062723 518.853258 826.266015 518.853258 
C 823.469306 518.853258 820.786767 519.964402 818.809195 521.941974 
C 816.831624 523.919545 815.72048 526.602084 815.72048 529.398793 
C 815.72048 532.195502 816.831624 534.878041 818.809195 536.855612 
C 820.786767 538.833184 823.469306 539.944328 826.266015 539.944328 
z
" clip-path="url(#p682500ecbc)" style="stroke: #000000; stroke-width: 2; stroke-linejoin: miter"/>
   </g>
   <g id="patch_39">
    <path d="M 872.620014 533.918308 
C 873.818603 533.918308 874.968263 533.442103 875.815794 532.594573 
C 876.663324 531.747042 877.139529 530.597382 877.139529 529.398793 
C 877.139529 528.200204 876.663324 527.050544 875.815794 526.203013 
C 874.968263 525.355483 873.818603 524.879278 872.620014 524.879278 
C 871.421425 524.879278 870.271765 525.355483 869.424234 526.203013 
C 868.576704 527.050544 868.100499 528.200204 868.100499 529.398793 
C 868.100499 530.597382 868.576704 531.747042 869.424234 532.594573 
C 870.271765 533.442103 871.421425 533.918308 872.620014 533.918308 
z
" clip-path="url(#p682500ecbc)" style="stroke: #000000; stroke-width: 1.5; stroke-linejoin: miter"/>
   </g>
   <g id="patch_40">
    <path d="M 872.620014 308.174331 
C 875.416723 308.174331 878.099262 307.063187 880.076833 305.085615 
C 882.054405 303.108044 883.165549 300.425505 883.165549 297.628796 
C 883.165549 294.832088 882.054405 292.149548 880.076833 290.171977 
C 878.099262 288.194405 875.416723 287.083261 872.620014 287.083261 
C 869.823305 287.083261 867.140766 288.194405 865.163195 290.171977 
C 863.185623 292.149548 862.074479 294.832088 862.074479 297.628796 
C 862.074479 300.425505 863.185623 303.108044 865.163195 305.085615 
C 867.140766 307.063187 869.823305 308.174331 872.620014 308.174331 
z
" clip-path="url(#p682500ecbc)" style="stroke: #000000; stroke-width: 2; stroke-linejoin: miter"/>
   </g>
   <g id="patch_41">
    <path d="M 918.974013 394.85631 
C 920.172603 394.85631 921.322262 394.380105 922.169793 393.532574 
C 923.017324 392.685044 923.493528 391.535384 923.493528 390.336795 
C 923.493528 389.138205 923.017324 387.988546 922.169793 387.141015 
C 921.322262 386.293484 920.172603 385.81728 918.974013 385.81728 
C 917.775424 385.81728 916.625764 386.293484 915.778234 387.141015 
C 914.930703 387.988546 914.454498 389.138205 914.454498 390.336795 
C 914.454498 391.535384 914.930703 392.685044 915.778234 393.532574 
C 916.625764 394.380105 917.775424 394.85631 918.974013 394.85631 
z
" clip-path="url(#p682500ecbc)" style="stroke: #000000; stroke-width: 1.5; stroke-linejoin: miter"/>
   </g>
   <g id="patch_42">
    <path d="M 918.974013 261.820332 
C 921.770722 261.820332 924.453261 260.709187 926.430833 258.731616 
C 928.408404 256.754044 929.519548 254.071505 929.519548 251.274797 
C 929.519548 248.478088 928.408404 245.795549 926.430833 243.817977 
C 924.453261 241.840406 921.770722 240.729262 918.974013 240.729262 
C 916.177305 240.729262 913.494766 241.840406 911.517194 243.817977 
C 909.539623 245.795549 908.428479 248.478088 908.428479 251.274797 
C 908.428479 254.071505 909.539623 256.754044 911.517194 258.731616 
C 913.494766 260.709187 916.177305 261.820332 918.974013 261.820332 
z
" clip-path="url(#p682500ecbc)" style="stroke: #000000; stroke-width: 2; stroke-linejoin: miter"/>
   </g>
   <g id="patch_43">
    <path d="M 950.262963 312.693846 
L 980.393063 312.693846 
L 980.393063 282.563746 
L 950.262963 282.563746 
z
" clip-path="url(#p682500ecbc)" style="fill: #ffffff; stroke: #000000; stroke-width: 1.5; stroke-linejoin: miter"/>
   </g>
   <g id="patch_44">
    <path d="M 1011.682012 533.918308 
C 1012.880602 533.918308 1014.030261 533.442103 1014.877792 532.594573 
C 1015.725322 531.747042 1016.201527 530.597382 1016.201527 529.398793 
C 1016.201527 528.200204 1015.725322 527.050544 1014.877792 526.203013 
C 1014.030261 525.355483 1012.880602 524.879278 1011.682012 524.879278 
C 1010.483423 524.879278 1009.333763 525.355483 1008.486232 526.203013 
C 1007.638702 527.050544 1007.162497 528.200204 1007.162497 529.398793 
C 1007.162497 530.597382 1007.638702 531.747042 1008.486232 532.594573 
C 1009.333763 533.442103 1010.483423 533.918308 1011.682012 533.918308 
z
" clip-path="url(#p682500ecbc)" style="stroke: #000000; stroke-width: 1.5; stroke-linejoin: miter"/>
   </g>
   <g id="patch_45">
    <path d="M 1011.682012 308.174331 
C 1014.478721 308.174331 1017.16126 307.063187 1019.138831 305.085615 
C 1021.116403 303.108044 1022.227547 300.425505 1022.227547 297.628796 
C 1022.227547 294.832088 1021.116403 292.149548 1019.138831 290.171977 
C 1017.16126 288.194405 1014.478721 287.083261 1011.682012 287.083261 
C 1008.885304 287.083261 1006.202765 288.194405 1004.225193 290.171977 
C 1002.247621 292.149548 1001.136477 294.832088 1001.136477 297.628796 
C 1001.136477 300.425505 1002.247621 303.108044 1004.225193 305.085615 
C 1006.202765 307.063187 1008.885304 308.174331 1011.682012 308.174331 
z
" clip-path="url(#p682500ecbc)" style="stroke: #000000; stroke-width: 2; stroke-linejoin: miter"/>
   </g>
   <g id="patch_46">
    <path d="M 1042.970962 312.693846 
L 1073.101061 312.693846 
L 1073.101061 282.563746 
L 1042.970962 282.563746 
z
" clip-path="url(#p682500ecbc)" style="fill: #ffffff; stroke: #000000; stroke-width: 1.5; stroke-linejoin: miter"/>
   </g>
   <g id="patch_47">
    <path d="M 1104.390011 302.148311 
C 1105.5886 302.148311 1106.73826 301.672106 1107.585791 300.824576 
C 1108.433321 299.977045 1108.909526 298.827385 1108.909526 297.628796 
C 1108.909526 296.430207 1108.433321 295.280547 1107.585791 294.433016 
C 1106.73826 293.585486 1105.5886 293.109281 1104.390011 293.109281 
C 1103.191422 293.109281 1102.041762 293.585486 1101.194231 294.433016 
C 1100.346701 295.280547 1099.870496 296.430207 1099.870496 297.628796 
C 1099.870496 298.827385 1100.346701 299.977045 1101.194231 300.824576 
C 1102.041762 301.672106 1103.191422 302.148311 1104.390011 302.148311 
z
" clip-path="url(#p682500ecbc)" style="stroke: #000000; stroke-width: 1.5; stroke-linejoin: miter"/>
   </g>
   <g id="patch_48">
    <path d="M 1104.390011 261.820332 
C 1107.186719 261.820332 1109.869259 260.709187 1111.84683 258.731616 
C 1113.824402 256.754044 1114.935546 254.071505 1114.935546 251.274797 
C 1114.935546 248.478088 1113.824402 245.795549 1111.84683 243.817977 
C 1109.869259 241.840406 1107.186719 240.729262 1104.390011 240.729262 
C 1101.593302 240.729262 1098.910763 241.840406 1096.933192 243.817977 
C 1094.95562 245.795549 1093.844476 248.478088 1093.844476 251.274797 
C 1093.844476 254.071505 1094.95562 256.754044 1096.933192 258.731616 
C 1098.910763 260.709187 1101.593302 261.820332 1104.390011 261.820332 
z
" clip-path="url(#p682500ecbc)" style="stroke: #000000; stroke-width: 2; stroke-linejoin: miter"/>
   </g>
   <g id="patch_49">
    <path d="M 1129.446665 266.339846 
L 1172.041355 266.339846 
L 1172.041355 236.209747 
L 1129.446665 236.209747 
z
" clip-path="url(#p682500ecbc)" style="fill: #ffffff; stroke: #000000; stroke-width: 1.5; stroke-linejoin: miter"/>
   </g>
   <g id="patch_50">
    <path d="M 1197.09801 302.148311 
C 1198.296599 302.148311 1199.446259 301.672106 1200.293789 300.824576 
C 1201.14132 299.977045 1201.617525 298.827385 1201.617525 297.628796 
C 1201.617525 296.430207 1201.14132 295.280547 1200.293789 294.433016 
C 1199.446259 293.585486 1198.296599 293.109281 1197.09801 293.109281 
C 1195.89942 293.109281 1194.749761 293.585486 1193.90223 294.433016 
C 1193.054699 295.280547 1192.578495 296.430207 1192.578495 297.628796 
C 1192.578495 298.827385 1193.054699 299.977045 1193.90223 300.824576 
C 1194.749761 301.672106 1195.89942 302.148311 1197.09801 302.148311 
z
" clip-path="url(#p682500ecbc)" style="stroke: #000000; stroke-width: 1.5; stroke-linejoin: miter"/>
   </g>
   <g id="patch_51">
    <path d="M 1197.09801 261.820332 
C 1199.894718 261.820332 1202.577257 260.709187 1204.554829 258.731616 
C 1206.5324 256.754044 1207.643545 254.071505 1207.643545 251.274797 
C 1207.643545 248.478088 1206.5324 245.795549 1204.554829 243.817977 
C 1202.577257 241.840406 1199.894718 240.729262 1197.09801 240.729262 
C 1194.301301 240.729262 1191.618762 241.840406 1189.64119 243.817977 
C 1187.663619 245.795549 1186.552475 248.478088 1186.552475 251.274797 
C 1186.552475 254.071505 1187.663619 256.754044 1189.64119 258.731616 
C 1191.618762 260.709187 1194.301301 261.820332 1197.09801 261.820332 
z
" clip-path="url(#p682500ecbc)" style="stroke: #000000; stroke-width: 2; stroke-linejoin: miter"/>
   </g>
   <g id="patch_52">
    <path d="M 1228.386959 312.693846 
L 1258.517059 312.693846 
L 1258.517059 282.563746 
L 1228.386959 282.563746 
z
" clip-path="url(#p682500ecbc)" style="fill: #ffffff; stroke: #000000; stroke-width: 1.5; stroke-linejoin: miter"/>
   </g>
   <g id="patch_53">
    <path d="M 1289.806008 394.85631 
C 1291.004598 394.85631 1292.154257 394.380105 1293.001788 393.532574 
C 1293.849319 392.685044 1294.325523 391.535384 1294.325523 390.336795 
C 1294.325523 389.138205 1293.849319 387.988546 1293.001788 387.141015 
C 1292.154257 386.293484 1291.004598 385.81728 1289.806008 385.81728 
C 1288.607419 385.81728 1287.457759 386.293484 1286.610229 387.141015 
C 1285.762698 387.988546 1285.286494 389.138205 1285.286494 390.336795 
C 1285.286494 391.535384 1285.762698 392.685044 1286.610229 393.532574 
C 1287.457759 394.380105 1288.607419 394.85631 1289.806008 394.85631 
z
" clip-path="url(#p682500ecbc)" style="stroke: #000000; stroke-width: 1.5; stroke-linejoin: miter"/>
   </g>
   <g id="patch_54">
    <path d="M 1289.806008 261.820332 
C 1292.602717 261.820332 1295.285256 260.709187 1297.262828 258.731616 
C 1299.240399 256.754044 1300.351543 254.071505 1300.351543 251.274797 
C 1300.351543 248.478088 1299.240399 245.795549 1297.262828 243.817977 
C 1295.285256 241.840406 1292.602717 240.729262 1289.806008 240.729262 
C 1287.0093 240.729262 1284.326761 241.840406 1282.349189 243.817977 
C 1280.371618 245.795549 1279.260474 248.478088 1279.260474 251.274797 
C 1279.260474 254.071505 1280.371618 256.754044 1282.349189 258.731616 
C 1284.326761 260.709187 1287.0093 261.820332 1289.806008 261.820332 
z
" clip-path="url(#p682500ecbc)" style="stroke: #000000; stroke-width: 2; stroke-linejoin: miter"/>
   </g>
   <g id="text_2">
    <g clip-path="url(#p682500ecbc)">
     <!-- ${q}_{0}$ -->
     <g transform="translate(217.678562 116.663775)scale(0.1625 -0.1625)">
      <defs>
       <path id="DejaVuSans-Oblique-71" d="M 2669 525 
Q 2438 222 2123 65 
Q 1809 -91 1428 -91 
Q 897 -91 595 267 
Q 294 625 294 1253 
Q 294 1759 480 2231 
Q 666 2703 1013 3078 
Q 1238 3322 1530 3453 
Q 1822 3584 2144 3584 
Q 2531 3584 2781 3431 
Q 3031 3278 3144 2969 
L 3244 3494 
L 3822 3494 
L 2888 -1319 
L 2309 -1319 
L 2669 525 
z
M 891 1338 
Q 891 875 1084 633 
Q 1278 391 1644 391 
Q 2188 391 2572 911 
Q 2956 1431 2956 2175 
Q 2956 2625 2757 2864 
Q 2559 3103 2188 3103 
Q 1916 3103 1684 2976 
Q 1453 2850 1281 2606 
Q 1100 2350 995 2006 
Q 891 1663 891 1338 
z
" transform="scale(0.015625)"/>
       <path id="DejaVuSans-30" d="M 2034 4250 
Q 1547 4250 1301 3770 
Q 1056 3291 1056 2328 
Q 1056 1369 1301 889 
Q 1547 409 2034 409 
Q 2525 409 2770 889 
Q 3016 1369 3016 2328 
Q 3016 3291 2770 3770 
Q 2525 4250 2034 4250 
z
M 2034 4750 
Q 2819 4750 3233 4129 
Q 3647 3509 3647 2328 
Q 3647 1150 3233 529 
Q 2819 -91 2034 -91 
Q 1250 -91 836 529 
Q 422 1150 422 2328 
Q 422 3509 836 4129 
Q 1250 4750 2034 4750 
z
" transform="scale(0.015625)"/>
      </defs>
      <use xlink:href="#DejaVuSans-Oblique-71"/>
      <use xlink:href="#DejaVuSans-30" transform="translate(63.476562 -16.40625)scale(0.7)"/>
     </g>
    </g>
   </g>
   <g id="text_3">
    <g clip-path="url(#p682500ecbc)">
     <!-- ${q}_{1}$ -->
     <g transform="translate(217.678562 163.017774)scale(0.1625 -0.1625)">
      <use xlink:href="#DejaVuSans-Oblique-71"/>
      <use xlink:href="#DejaVuSans-31" transform="translate(63.476562 -16.40625)scale(0.7)"/>
     </g>
    </g>
   </g>
   <g id="text_4">
    <g clip-path="url(#p682500ecbc)">
     <!-- ${q}_{2}$ -->
     <g transform="translate(217.678562 209.371774)scale(0.1625 -0.1625)">
      <use xlink:href="#DejaVuSans-Oblique-71"/>
      <use xlink:href="#DejaVuSans-32" transform="translate(63.476562 -16.40625)scale(0.7)"/>
     </g>
    </g>
   </g>
   <g id="text_5">
    <g clip-path="url(#p682500ecbc)">
     <!-- ${q}_{3}$ -->
     <g transform="translate(217.678562 255.725773)scale(0.1625 -0.1625)">
      <defs>
       <path id="DejaVuSans-33" d="M 2597 2516 
Q 3050 2419 3304 2112 
Q 3559 1806 3559 1356 
Q 3559 666 3084 287 
Q 2609 -91 1734 -91 
Q 1441 -91 1130 -33 
Q 819 25 488 141 
L 488 750 
Q 750 597 1062 519 
Q 1375 441 1716 441 
Q 2309 441 2620 675 
Q 2931 909 2931 1356 
Q 2931 1769 2642 2001 
Q 2353 2234 1838 2234 
L 1294 2234 
L 1294 2753 
L 1863 2753 
Q 2328 2753 2575 2939 
Q 2822 3125 2822 3475 
Q 2822 3834 2567 4026 
Q 2313 4219 1838 4219 
Q 1578 4219 1281 4162 
Q 984 4106 628 3988 
L 628 4550 
Q 988 4650 1302 4700 
Q 1616 4750 1894 4750 
Q 2613 4750 3031 4423 
Q 3450 4097 3450 3541 
Q 3450 3153 3228 2886 
Q 3006 2619 2597 2516 
z
" transform="scale(0.015625)"/>
      </defs>
      <use xlink:href="#DejaVuSans-Oblique-71"/>
      <use xlink:href="#DejaVuSans-33" transform="translate(63.476562 -16.40625)scale(0.7)"/>
     </g>
    </g>
   </g>
   <g id="text_6">
    <g clip-path="url(#p682500ecbc)">
     <!-- ${q}_{4}$ -->
     <g transform="translate(217.678562 302.079773)scale(0.1625 -0.1625)">
      <use xlink:href="#DejaVuSans-Oblique-71"/>
      <use xlink:href="#DejaVuSans-34" transform="translate(63.476562 -16.40625)scale(0.7)"/>
     </g>
    </g>
   </g>
   <g id="text_7">
    <g clip-path="url(#p682500ecbc)">
     <!-- ${q}_{5}$ -->
     <g transform="translate(217.678562 348.433772)scale(0.1625 -0.1625)">
      <defs>
       <path id="DejaVuSans-35" d="M 691 4666 
L 3169 4666 
L 3169 4134 
L 1269 4134 
L 1269 2991 
Q 1406 3038 1543 3061 
Q 1681 3084 1819 3084 
Q 2600 3084 3056 2656 
Q 3513 2228 3513 1497 
Q 3513 744 3044 326 
Q 2575 -91 1722 -91 
Q 1428 -91 1123 -41 
Q 819 9 494 109 
L 494 744 
Q 775 591 1075 516 
Q 1375 441 1709 441 
Q 2250 441 2565 725 
Q 2881 1009 2881 1497 
Q 2881 1984 2565 2268 
Q 2250 2553 1709 2553 
Q 1456 2553 1204 2497 
Q 953 2441 691 2322 
L 691 4666 
z
" transform="scale(0.015625)"/>
      </defs>
      <use xlink:href="#DejaVuSans-Oblique-71"/>
      <use xlink:href="#DejaVuSans-35" transform="translate(63.476562 -16.40625)scale(0.7)"/>
     </g>
    </g>
   </g>
   <g id="text_8">
    <g clip-path="url(#p682500ecbc)">
     <!-- ${q}_{6}$ -->
     <g transform="translate(217.678562 394.787771)scale(0.1625 -0.1625)">
      <defs>
       <path id="DejaVuSans-36" d="M 2113 2584 
Q 1688 2584 1439 2293 
Q 1191 2003 1191 1497 
Q 1191 994 1439 701 
Q 1688 409 2113 409 
Q 2538 409 2786 701 
Q 3034 994 3034 1497 
Q 3034 2003 2786 2293 
Q 2538 2584 2113 2584 
z
M 3366 4563 
L 3366 3988 
Q 3128 4100 2886 4159 
Q 2644 4219 2406 4219 
Q 1781 4219 1451 3797 
Q 1122 3375 1075 2522 
Q 1259 2794 1537 2939 
Q 1816 3084 2150 3084 
Q 2853 3084 3261 2657 
Q 3669 2231 3669 1497 
Q 3669 778 3244 343 
Q 2819 -91 2113 -91 
Q 1303 -91 875 529 
Q 447 1150 447 2328 
Q 447 3434 972 4092 
Q 1497 4750 2381 4750 
Q 2619 4750 2861 4703 
Q 3103 4656 3366 4563 
z
" transform="scale(0.015625)"/>
      </defs>
      <use xlink:href="#DejaVuSans-Oblique-71"/>
      <use xlink:href="#DejaVuSans-36" transform="translate(63.476562 -16.40625)scale(0.7)"/>
     </g>
    </g>
   </g>
   <g id="text_9">
    <g clip-path="url(#p682500ecbc)">
     <!-- ${q}_{7}$ -->
     <g transform="translate(217.678562 441.141771)scale(0.1625 -0.1625)">
      <defs>
       <path id="DejaVuSans-37" d="M 525 4666 
L 3525 4666 
L 3525 4397 
L 1831 0 
L 1172 0 
L 2766 4134 
L 525 4134 
L 525 4666 
z
" transform="scale(0.015625)"/>
      </defs>
      <use xlink:href="#DejaVuSans-Oblique-71"/>
      <use xlink:href="#DejaVuSans-37" transform="translate(63.476562 -16.40625)scale(0.7)"/>
     </g>
    </g>
   </g>
   <g id="text_10">
    <g clip-path="url(#p682500ecbc)">
     <!-- ${q}_{8}$ -->
     <g transform="translate(217.678562 487.49577)scale(0.1625 -0.1625)">
      <defs>
       <path id="DejaVuSans-38" d="M 2034 2216 
Q 1584 2216 1326 1975 
Q 1069 1734 1069 1313 
Q 1069 891 1326 650 
Q 1584 409 2034 409 
Q 2484 409 2743 651 
Q 3003 894 3003 1313 
Q 3003 1734 2745 1975 
Q 2488 2216 2034 2216 
z
M 1403 2484 
Q 997 2584 770 2862 
Q 544 3141 544 3541 
Q 544 4100 942 4425 
Q 1341 4750 2034 4750 
Q 2731 4750 3128 4425 
Q 3525 4100 3525 3541 
Q 3525 3141 3298 2862 
Q 3072 2584 2669 2484 
Q 3125 2378 3379 2068 
Q 3634 1759 3634 1313 
Q 3634 634 3220 271 
Q 2806 -91 2034 -91 
Q 1263 -91 848 271 
Q 434 634 434 1313 
Q 434 1759 690 2068 
Q 947 2378 1403 2484 
z
M 1172 3481 
Q 1172 3119 1398 2916 
Q 1625 2713 2034 2713 
Q 2441 2713 2670 2916 
Q 2900 3119 2900 3481 
Q 2900 3844 2670 4047 
Q 2441 4250 2034 4250 
Q 1625 4250 1398 4047 
Q 1172 3844 1172 3481 
z
" transform="scale(0.015625)"/>
      </defs>
      <use xlink:href="#DejaVuSans-Oblique-71"/>
      <use xlink:href="#DejaVuSans-38" transform="translate(63.476562 -16.40625)scale(0.7)"/>
     </g>
    </g>
   </g>
   <g id="text_11">
    <g clip-path="url(#p682500ecbc)">
     <!-- ${q}_{9}$ -->
     <g transform="translate(217.678562 533.84977)scale(0.1625 -0.1625)">
      <defs>
       <path id="DejaVuSans-39" d="M 703 97 
L 703 672 
Q 941 559 1184 500 
Q 1428 441 1663 441 
Q 2288 441 2617 861 
Q 2947 1281 2994 2138 
Q 2813 1869 2534 1725 
Q 2256 1581 1919 1581 
Q 1219 1581 811 2004 
Q 403 2428 403 3163 
Q 403 3881 828 4315 
Q 1253 4750 1959 4750 
Q 2769 4750 3195 4129 
Q 3622 3509 3622 2328 
Q 3622 1225 3098 567 
Q 2575 -91 1691 -91 
Q 1453 -91 1209 -44 
Q 966 3 703 97 
z
M 1959 2075 
Q 2384 2075 2632 2365 
Q 2881 2656 2881 3163 
Q 2881 3666 2632 3958 
Q 2384 4250 1959 4250 
Q 1534 4250 1286 3958 
Q 1038 3666 1038 3163 
Q 1038 2656 1286 2365 
Q 1534 2075 1959 2075 
z
" transform="scale(0.015625)"/>
      </defs>
      <use xlink:href="#DejaVuSans-Oblique-71"/>
      <use xlink:href="#DejaVuSans-39" transform="translate(63.476562 -16.40625)scale(0.7)"/>
     </g>
    </g>
   </g>
   <g id="line2d_31">
    <path d="M 270.018022 303.654816 
L 270.018022 291.602776 
" clip-path="url(#p682500ecbc)" style="fill: none; stroke: #ffffff; stroke-width: 2; stroke-linecap: square"/>
   </g>
   <g id="line2d_32">
    <path d="M 263.992002 297.628796 
L 276.044042 297.628796 
" clip-path="url(#p682500ecbc)" style="fill: none; stroke: #ffffff; stroke-width: 2; stroke-linecap: square"/>
   </g>
   <g id="line2d_33">
    <path d="M 270.018022 535.424813 
L 270.018022 523.372773 
" clip-path="url(#p682500ecbc)" style="fill: none; stroke: #ffffff; stroke-width: 2; stroke-linecap: square"/>
   </g>
   <g id="line2d_34">
    <path d="M 263.992002 529.398793 
L 276.044042 529.398793 
" clip-path="url(#p682500ecbc)" style="fill: none; stroke: #ffffff; stroke-width: 2; stroke-linecap: square"/>
   </g>
   <g id="text_12">
    <g clip-path="url(#p682500ecbc)">
     <!-- S -->
     <g transform="translate(265.891538 393.923982)scale(0.13 -0.13)">
      <use xlink:href="#DejaVuSans-53"/>
     </g>
    </g>
   </g>
   <g id="text_13">
    <g clip-path="url(#p682500ecbc)">
     <!-- H -->
     <g transform="translate(311.483818 254.861984)scale(0.13 -0.13)">
      <use xlink:href="#DejaVuSans-48"/>
     </g>
    </g>
   </g>
   <g id="text_14">
    <g clip-path="url(#p682500ecbc)">
     <!-- H -->
     <g transform="translate(311.483818 162.153985)scale(0.13 -0.13)">
      <use xlink:href="#DejaVuSans-48"/>
     </g>
    </g>
   </g>
   <g id="text_15">
    <g clip-path="url(#p682500ecbc)">
     <!-- 0.167 -->
     <g transform="translate(304.920771 308.875326)scale(0.08 -0.08)">
      <defs>
       <path id="DejaVuSans-2e" d="M 684 794 
L 1344 794 
L 1344 0 
L 684 0 
L 684 794 
z
" transform="scale(0.015625)"/>
      </defs>
      <use xlink:href="#DejaVuSans-30"/>
      <use xlink:href="#DejaVuSans-2e" x="63.623047"/>
      <use xlink:href="#DejaVuSans-31" x="95.410156"/>
      <use xlink:href="#DejaVuSans-36" x="159.033203"/>
      <use xlink:href="#DejaVuSans-37" x="222.65625"/>
     </g>
    </g>
   </g>
   <g id="text_16">
    <g clip-path="url(#p682500ecbc)">
     <!-- $\mathrm{R_Z}$ -->
     <g transform="translate(308.442021 296.696469)scale(0.13 -0.13)">
      <defs>
       <path id="DejaVuSans-5a" d="M 359 4666 
L 4025 4666 
L 4025 4184 
L 1075 531 
L 4097 531 
L 4097 0 
L 288 0 
L 288 481 
L 3238 4134 
L 359 4134 
L 359 4666 
z
" transform="scale(0.015625)"/>
      </defs>
      <use xlink:href="#DejaVuSans-52" transform="translate(0 0.09375)"/>
      <use xlink:href="#DejaVuSans-5a" transform="translate(70.439453 -16.3125)scale(0.7)"/>
     </g>
    </g>
   </g>
   <g id="line2d_35">
    <path d="M 316.372021 535.424813 
L 316.372021 523.372773 
" clip-path="url(#p682500ecbc)" style="fill: none; stroke: #ffffff; stroke-width: 2; stroke-linecap: square"/>
   </g>
   <g id="line2d_36">
    <path d="M 310.346001 529.398793 
L 322.398041 529.398793 
" clip-path="url(#p682500ecbc)" style="fill: none; stroke: #ffffff; stroke-width: 2; stroke-linecap: square"/>
   </g>
   <g id="text_17">
    <g clip-path="url(#p682500ecbc)">
     <!-- H -->
     <g transform="translate(311.483818 393.923982)scale(0.13 -0.13)">
      <use xlink:href="#DejaVuSans-48"/>
     </g>
    </g>
   </g>
   <g id="line2d_37">
    <path d="M 362.726021 303.654816 
L 362.726021 291.602776 
" clip-path="url(#p682500ecbc)" style="fill: none; stroke: #ffffff; stroke-width: 2; stroke-linecap: square"/>
   </g>
   <g id="line2d_38">
    <path d="M 356.700001 297.628796 
L 368.752041 297.628796 
" clip-path="url(#p682500ecbc)" style="fill: none; stroke: #ffffff; stroke-width: 2; stroke-linecap: square"/>
   </g>
   <g id="line2d_39">
    <path d="M 362.726021 535.424813 
L 362.726021 523.372773 
" clip-path="url(#p682500ecbc)" style="fill: none; stroke: #ffffff; stroke-width: 2; stroke-linecap: square"/>
   </g>
   <g id="line2d_40">
    <path d="M 356.700001 529.398793 
L 368.752041 529.398793 
" clip-path="url(#p682500ecbc)" style="fill: none; stroke: #ffffff; stroke-width: 2; stroke-linecap: square"/>
   </g>
   <g id="line2d_41">
    <path d="M 409.08002 535.424813 
L 409.08002 523.372773 
" clip-path="url(#p682500ecbc)" style="fill: none; stroke: #ffffff; stroke-width: 2; stroke-linecap: square"/>
   </g>
   <g id="line2d_42">
    <path d="M 403.054 529.398793 
L 415.10604 529.398793 
" clip-path="url(#p682500ecbc)" style="fill: none; stroke: #ffffff; stroke-width: 2; stroke-linecap: square"/>
   </g>
   <g id="line2d_43">
    <path d="M 455.43402 535.424813 
L 455.43402 523.372773 
" clip-path="url(#p682500ecbc)" style="fill: none; stroke: #ffffff; stroke-width: 2; stroke-linecap: square"/>
   </g>
   <g id="line2d_44">
    <path d="M 449.408 529.398793 
L 461.460039 529.398793 
" clip-path="url(#p682500ecbc)" style="fill: none; stroke: #ffffff; stroke-width: 2; stroke-linecap: square"/>
   </g>
   <g id="line2d_45">
    <path d="M 501.788019 535.424813 
L 501.788019 523.372773 
" clip-path="url(#p682500ecbc)" style="fill: none; stroke: #ffffff; stroke-width: 2; stroke-linecap: square"/>
   </g>
   <g id="line2d_46">
    <path d="M 495.761999 529.398793 
L 507.814039 529.398793 
" clip-path="url(#p682500ecbc)" style="fill: none; stroke: #ffffff; stroke-width: 2; stroke-linecap: square"/>
   </g>
   <g id="text_18">
    <g clip-path="url(#p682500ecbc)">
     <!-- 0.00961 -->
     <g transform="translate(531.600768 540.645323)scale(0.08 -0.08)">
      <use xlink:href="#DejaVuSans-30"/>
      <use xlink:href="#DejaVuSans-2e" x="63.623047"/>
      <use xlink:href="#DejaVuSans-30" x="95.410156"/>
      <use xlink:href="#DejaVuSans-30" x="159.033203"/>
      <use xlink:href="#DejaVuSans-39" x="222.65625"/>
      <use xlink:href="#DejaVuSans-36" x="286.279297"/>
      <use xlink:href="#DejaVuSans-31" x="349.902344"/>
     </g>
    </g>
   </g>
   <g id="text_19">
    <g clip-path="url(#p682500ecbc)">
     <!-- $\mathrm{R_Z}$ -->
     <g transform="translate(540.212018 528.466466)scale(0.13 -0.13)">
      <use xlink:href="#DejaVuSans-52" transform="translate(0 0.09375)"/>
      <use xlink:href="#DejaVuSans-5a" transform="translate(70.439453 -16.3125)scale(0.7)"/>
     </g>
    </g>
   </g>
   <g id="line2d_47">
    <path d="M 594.496018 535.424813 
L 594.496018 523.372773 
" clip-path="url(#p682500ecbc)" style="fill: none; stroke: #ffffff; stroke-width: 2; stroke-linecap: square"/>
   </g>
   <g id="line2d_48">
    <path d="M 588.469998 529.398793 
L 600.522038 529.398793 
" clip-path="url(#p682500ecbc)" style="fill: none; stroke: #ffffff; stroke-width: 2; stroke-linecap: square"/>
   </g>
   <g id="text_20">
    <g clip-path="url(#p682500ecbc)">
     <!-- H -->
     <g transform="translate(635.961814 162.153985)scale(0.13 -0.13)">
      <use xlink:href="#DejaVuSans-48"/>
     </g>
    </g>
   </g>
   <g id="line2d_49">
    <path d="M 640.850017 535.424813 
L 640.850017 523.372773 
" clip-path="url(#p682500ecbc)" style="fill: none; stroke: #ffffff; stroke-width: 2; stroke-linecap: square"/>
   </g>
   <g id="line2d_50">
    <path d="M 634.823997 529.398793 
L 646.876037 529.398793 
" clip-path="url(#p682500ecbc)" style="fill: none; stroke: #ffffff; stroke-width: 2; stroke-linecap: square"/>
   </g>
   <g id="line2d_51">
    <path d="M 687.204016 535.424813 
L 687.204016 523.372773 
" clip-path="url(#p682500ecbc)" style="fill: none; stroke: #ffffff; stroke-width: 2; stroke-linecap: square"/>
   </g>
   <g id="line2d_52">
    <path d="M 681.177997 529.398793 
L 693.230036 529.398793 
" clip-path="url(#p682500ecbc)" style="fill: none; stroke: #ffffff; stroke-width: 2; stroke-linecap: square"/>
   </g>
   <g id="line2d_53">
    <path d="M 733.558016 535.424813 
L 733.558016 523.372773 
" clip-path="url(#p682500ecbc)" style="fill: none; stroke: #ffffff; stroke-width: 2; stroke-linecap: square"/>
   </g>
   <g id="line2d_54">
    <path d="M 727.531996 529.398793 
L 739.584036 529.398793 
" clip-path="url(#p682500ecbc)" style="fill: none; stroke: #ffffff; stroke-width: 2; stroke-linecap: square"/>
   </g>
   <g id="text_21">
    <g clip-path="url(#p682500ecbc)">
     <!-- H -->
     <g transform="translate(775.023812 393.923982)scale(0.13 -0.13)">
      <use xlink:href="#DejaVuSans-48"/>
     </g>
    </g>
   </g>
   <g id="line2d_55">
    <path d="M 779.912015 535.424813 
L 779.912015 523.372773 
" clip-path="url(#p682500ecbc)" style="fill: none; stroke: #ffffff; stroke-width: 2; stroke-linecap: square"/>
   </g>
   <g id="line2d_56">
    <path d="M 773.885995 529.398793 
L 785.938035 529.398793 
" clip-path="url(#p682500ecbc)" style="fill: none; stroke: #ffffff; stroke-width: 2; stroke-linecap: square"/>
   </g>
   <g id="text_22">
    <g clip-path="url(#p682500ecbc)">
     <!-- $\mathrm{S^\dagger}$ -->
     <g transform="translate(817.816015 393.923982)scale(0.13 -0.13)">
      <defs>
       <path id="DejaVuSans-2020" d="M 1325 4666 
L 1875 4666 
L 1875 3353 
L 3022 3353 
L 3022 2875 
L 1875 2875 
L 1875 -616 
L 1325 -616 
L 1325 2875 
L 178 2875 
L 178 3353 
L 1325 3353 
L 1325 4666 
z
" transform="scale(0.015625)"/>
      </defs>
      <use xlink:href="#DejaVuSans-53" transform="translate(0 0.684375)"/>
      <use xlink:href="#DejaVuSans-2020" transform="translate(78.071289 38.965625)scale(0.7)"/>
     </g>
    </g>
   </g>
   <g id="line2d_57">
    <path d="M 826.266015 535.424813 
L 826.266015 523.372773 
" clip-path="url(#p682500ecbc)" style="fill: none; stroke: #ffffff; stroke-width: 2; stroke-linecap: square"/>
   </g>
   <g id="line2d_58">
    <path d="M 820.239995 529.398793 
L 832.292035 529.398793 
" clip-path="url(#p682500ecbc)" style="fill: none; stroke: #ffffff; stroke-width: 2; stroke-linecap: square"/>
   </g>
   <g id="line2d_59">
    <path d="M 872.620014 303.654816 
L 872.620014 291.602776 
" clip-path="url(#p682500ecbc)" style="fill: none; stroke: #ffffff; stroke-width: 2; stroke-linecap: square"/>
   </g>
   <g id="line2d_60">
    <path d="M 866.593994 297.628796 
L 878.646034 297.628796 
" clip-path="url(#p682500ecbc)" style="fill: none; stroke: #ffffff; stroke-width: 2; stroke-linecap: square"/>
   </g>
   <g id="line2d_61">
    <path d="M 918.974013 257.300817 
L 918.974013 245.248777 
" clip-path="url(#p682500ecbc)" style="fill: none; stroke: #ffffff; stroke-width: 2; stroke-linecap: square"/>
   </g>
   <g id="line2d_62">
    <path d="M 912.947993 251.274797 
L 925.000033 251.274797 
" clip-path="url(#p682500ecbc)" style="fill: none; stroke: #ffffff; stroke-width: 2; stroke-linecap: square"/>
   </g>
   <g id="text_23">
    <g clip-path="url(#p682500ecbc)">
     <!-- 0.247 -->
     <g transform="translate(953.876763 308.875326)scale(0.08 -0.08)">
      <use xlink:href="#DejaVuSans-30"/>
      <use xlink:href="#DejaVuSans-2e" x="63.623047"/>
      <use xlink:href="#DejaVuSans-32" x="95.410156"/>
      <use xlink:href="#DejaVuSans-34" x="159.033203"/>
      <use xlink:href="#DejaVuSans-37" x="222.65625"/>
     </g>
    </g>
   </g>
   <g id="text_24">
    <g clip-path="url(#p682500ecbc)">
     <!-- $\mathrm{R_Z}$ -->
     <g transform="translate(957.398013 296.696469)scale(0.13 -0.13)">
      <use xlink:href="#DejaVuSans-52" transform="translate(0 0.09375)"/>
      <use xlink:href="#DejaVuSans-5a" transform="translate(70.439453 -16.3125)scale(0.7)"/>
     </g>
    </g>
   </g>
   <g id="line2d_63">
    <path d="M 1011.682012 303.654816 
L 1011.682012 291.602776 
" clip-path="url(#p682500ecbc)" style="fill: none; stroke: #ffffff; stroke-width: 2; stroke-linecap: square"/>
   </g>
   <g id="line2d_64">
    <path d="M 1005.655992 297.628796 
L 1017.708032 297.628796 
" clip-path="url(#p682500ecbc)" style="fill: none; stroke: #ffffff; stroke-width: 2; stroke-linecap: square"/>
   </g>
   <g id="text_25">
    <g clip-path="url(#p682500ecbc)">
     <!-- H -->
     <g transform="translate(1053.147808 301.215984)scale(0.13 -0.13)">
      <use xlink:href="#DejaVuSans-48"/>
     </g>
    </g>
   </g>
   <g id="line2d_65">
    <path d="M 1104.390011 257.300817 
L 1104.390011 245.248777 
" clip-path="url(#p682500ecbc)" style="fill: none; stroke: #ffffff; stroke-width: 2; stroke-linecap: square"/>
   </g>
   <g id="line2d_66">
    <path d="M 1098.363991 251.274797 
L 1110.416031 251.274797 
" clip-path="url(#p682500ecbc)" style="fill: none; stroke: #ffffff; stroke-width: 2; stroke-linecap: square"/>
   </g>
   <g id="text_26">
    <g clip-path="url(#p682500ecbc)">
     <!-- $-$0.00236 -->
     <g transform="translate(1130.82401 262.521327)scale(0.08 -0.08)">
      <defs>
       <path id="DejaVuSans-2212" d="M 678 2272 
L 4684 2272 
L 4684 1741 
L 678 1741 
L 678 2272 
z
" transform="scale(0.015625)"/>
      </defs>
      <use xlink:href="#DejaVuSans-2212" transform="translate(0 0.78125)"/>
      <use xlink:href="#DejaVuSans-30" transform="translate(83.789062 0.78125)"/>
      <use xlink:href="#DejaVuSans-2e" transform="translate(147.412109 0.78125)"/>
      <use xlink:href="#DejaVuSans-30" transform="translate(179.199219 0.78125)"/>
      <use xlink:href="#DejaVuSans-30" transform="translate(242.822266 0.78125)"/>
      <use xlink:href="#DejaVuSans-32" transform="translate(306.445312 0.78125)"/>
      <use xlink:href="#DejaVuSans-33" transform="translate(370.068359 0.78125)"/>
      <use xlink:href="#DejaVuSans-36" transform="translate(433.691406 0.78125)"/>
     </g>
    </g>
   </g>
   <g id="text_27">
    <g clip-path="url(#p682500ecbc)">
     <!-- $\mathrm{R_Z}$ -->
     <g transform="translate(1142.81401 250.342469)scale(0.13 -0.13)">
      <use xlink:href="#DejaVuSans-52" transform="translate(0 0.09375)"/>
      <use xlink:href="#DejaVuSans-5a" transform="translate(70.439453 -16.3125)scale(0.7)"/>
     </g>
    </g>
   </g>
   <g id="line2d_67">
    <path d="M 1197.09801 257.300817 
L 1197.09801 245.248777 
" clip-path="url(#p682500ecbc)" style="fill: none; stroke: #ffffff; stroke-width: 2; stroke-linecap: square"/>
   </g>
   <g id="line2d_68">
    <path d="M 1191.07199 251.274797 
L 1203.12403 251.274797 
" clip-path="url(#p682500ecbc)" style="fill: none; stroke: #ffffff; stroke-width: 2; stroke-linecap: square"/>
   </g>
   <g id="text_28">
    <g clip-path="url(#p682500ecbc)">
     <!-- H -->
     <g transform="translate(1238.563806 301.215984)scale(0.13 -0.13)">
      <use xlink:href="#DejaVuSans-48"/>
     </g>
    </g>
   </g>
   <g id="line2d_69">
    <path d="M 1289.806008 257.300817 
L 1289.806008 245.248777 
" clip-path="url(#p682500ecbc)" style="fill: none; stroke: #ffffff; stroke-width: 2; stroke-linecap: square"/>
   </g>
   <g id="line2d_70">
    <path d="M 1283.779989 251.274797 
L 1295.832028 251.274797 
" clip-path="url(#p682500ecbc)" style="fill: none; stroke: #ffffff; stroke-width: 2; stroke-linecap: square"/>
   </g>
  </g>
 </g>
 <defs>
  <clipPath id="p682500ecbc">
   <rect x="187.577666" y="75.129599" width="1132.821982" height="482.081594"/>
  </clipPath>
 </defs>
</svg>
