<?xml version="1.0" encoding="utf-8" standalone="no"?>
<!DOCTYPE svg PUBLIC "-//W3C//DTD SVG 1.1//EN"
  "http://www.w3.org/Graphics/SVG/1.1/DTD/svg11.dtd">
<svg xmlns:xlink="http://www.w3.org/1999/xlink" width="1711.997376pt" height="626.079992pt" viewBox="0 0 1711.997376 626.079992" xmlns="http://www.w3.org/2000/svg" version="1.1">
 <metadata>
  <rdf:RDF xmlns:dc="http://purl.org/dc/elements/1.1/" xmlns:cc="http://creativecommons.org/ns#" xmlns:rdf="http://www.w3.org/1999/02/22-rdf-syntax-ns#">
   <cc:Work>
    <dc:type rdf:resource="http://purl.org/dc/dcmitype/StillImage"/>
    <dc:date>2022-05-22T13:44:16.233035</dc:date>
    <dc:format>image/svg+xml</dc:format>
    <dc:creator>
     <cc:Agent>
      <dc:title>Matplotlib v3.5.1, https://matplotlib.org/</dc:title>
     </cc:Agent>
    </dc:creator>
   </cc:Work>
  </rdf:RDF>
 </metadata>
 <defs>
  <style type="text/css">*{stroke-linejoin: round; stroke-linecap: butt}</style>
 </defs>
 <g id="figure_1">
  <g id="patch_1">
   <path d="M 0 626.079992 
L 1711.997376 626.079992 
L 1711.997376 0 
L 0 0 
z
" style="fill: #ffffff"/>
  </g>
  <g id="axes_1">
   <g id="line2d_1">
    <path d="M 275.688862 112.212799 
L 1531.882245 112.212799 
" clip-path="url(#p3207cd1762)" style="fill: none; stroke: #000000; stroke-width: 2; stroke-linecap: square"/>
   </g>
   <g id="line2d_2">
    <path d="M 275.688862 158.566798 
L 1531.882245 158.566798 
" clip-path="url(#p3207cd1762)" style="fill: none; stroke: #000000; stroke-width: 2; stroke-linecap: square"/>
   </g>
   <g id="line2d_3">
    <path d="M 275.688862 204.920797 
L 1531.882245 204.920797 
" clip-path="url(#p3207cd1762)" style="fill: none; stroke: #000000; stroke-width: 2; stroke-linecap: square"/>
   </g>
   <g id="line2d_4">
    <path d="M 275.688862 251.274797 
L 1531.882245 251.274797 
" clip-path="url(#p3207cd1762)" style="fill: none; stroke: #000000; stroke-width: 2; stroke-linecap: square"/>
   </g>
   <g id="line2d_5">
    <path d="M 275.688862 297.628796 
L 1531.882245 297.628796 
" clip-path="url(#p3207cd1762)" style="fill: none; stroke: #000000; stroke-width: 2; stroke-linecap: square"/>
   </g>
   <g id="line2d_6">
    <path d="M 275.688862 343.982795 
L 1531.882245 343.982795 
" clip-path="url(#p3207cd1762)" style="fill: none; stroke: #000000; stroke-width: 2; stroke-linecap: square"/>
   </g>
   <g id="line2d_7">
    <path d="M 275.688862 390.336795 
L 1531.882245 390.336795 
" clip-path="url(#p3207cd1762)" style="fill: none; stroke: #000000; stroke-width: 2; stroke-linecap: square"/>
   </g>
   <g id="line2d_8">
    <path d="M 275.688862 436.690794 
L 1531.882245 436.690794 
" clip-path="url(#p3207cd1762)" style="fill: none; stroke: #000000; stroke-width: 2; stroke-linecap: square"/>
   </g>
   <g id="line2d_9">
    <path d="M 275.688862 483.044794 
L 1531.882245 483.044794 
" clip-path="url(#p3207cd1762)" style="fill: none; stroke: #000000; stroke-width: 2; stroke-linecap: square"/>
   </g>
   <g id="line2d_10">
    <path d="M 275.688862 529.398793 
L 1531.882245 529.398793 
" clip-path="url(#p3207cd1762)" style="fill: none; stroke: #000000; stroke-width: 2; stroke-linecap: square"/>
   </g>
   <g id="line2d_11">
    <path d="M 393.42802 529.398793 
L 393.42802 158.566798 
" clip-path="url(#p3207cd1762)" style="fill: none; stroke: #000000; stroke-width: 2; stroke-linecap: square"/>
   </g>
   <g id="line2d_12">
    <path d="M 439.78202 529.398793 
L 439.78202 204.920797 
" clip-path="url(#p3207cd1762)" style="fill: none; stroke: #000000; stroke-width: 2; stroke-linecap: square"/>
   </g>
   <g id="line2d_13">
    <path d="M 486.136019 529.398793 
L 486.136019 251.274797 
" clip-path="url(#p3207cd1762)" style="fill: none; stroke: #000000; stroke-width: 2; stroke-linecap: square"/>
   </g>
   <g id="line2d_14">
    <path d="M 532.490019 529.398793 
L 532.490019 390.336795 
" clip-path="url(#p3207cd1762)" style="fill: none; stroke: #000000; stroke-width: 2; stroke-linecap: square"/>
   </g>
   <g id="line2d_15">
    <path d="M 578.844018 529.398793 
L 578.844018 436.690794 
" clip-path="url(#p3207cd1762)" style="fill: none; stroke: #000000; stroke-width: 2; stroke-linecap: square"/>
   </g>
   <g id="line2d_16">
    <path d="M 625.198017 529.398793 
L 625.198017 483.044794 
" clip-path="url(#p3207cd1762)" style="fill: none; stroke: #000000; stroke-width: 2; stroke-linecap: square"/>
   </g>
   <g id="line2d_17">
    <path d="M 717.906016 529.398793 
L 717.906016 483.044794 
" clip-path="url(#p3207cd1762)" style="fill: none; stroke: #000000; stroke-width: 2; stroke-linecap: square"/>
   </g>
   <g id="line2d_18">
    <path d="M 764.260015 529.398793 
L 764.260015 436.690794 
" clip-path="url(#p3207cd1762)" style="fill: none; stroke: #000000; stroke-width: 2; stroke-linecap: square"/>
   </g>
   <g id="line2d_19">
    <path d="M 810.614015 436.690794 
L 810.614015 112.212799 
" clip-path="url(#p3207cd1762)" style="fill: none; stroke: #000000; stroke-width: 2; stroke-linecap: square"/>
   </g>
   <g id="line2d_20">
    <path d="M 856.968014 529.398793 
L 856.968014 390.336795 
" clip-path="url(#p3207cd1762)" style="fill: none; stroke: #000000; stroke-width: 2; stroke-linecap: square"/>
   </g>
   <g id="line2d_21">
    <path d="M 949.676013 529.398793 
L 949.676013 251.274797 
" clip-path="url(#p3207cd1762)" style="fill: none; stroke: #000000; stroke-width: 2; stroke-linecap: square"/>
   </g>
   <g id="line2d_22">
    <path d="M 996.030012 529.398793 
L 996.030012 204.920797 
" clip-path="url(#p3207cd1762)" style="fill: none; stroke: #000000; stroke-width: 2; stroke-linecap: square"/>
   </g>
   <g id="line2d_23">
    <path d="M 1042.384012 483.044794 
L 1042.384012 390.336795 
" clip-path="url(#p3207cd1762)" style="fill: none; stroke: #000000; stroke-width: 2; stroke-linecap: square"/>
   </g>
   <g id="line2d_24">
    <path d="M 1088.738011 436.690794 
L 1088.738011 112.212799 
" clip-path="url(#p3207cd1762)" style="fill: none; stroke: #000000; stroke-width: 2; stroke-linecap: square"/>
   </g>
   <g id="line2d_25">
    <path d="M 1135.092011 529.398793 
L 1135.092011 158.566798 
" clip-path="url(#p3207cd1762)" style="fill: none; stroke: #000000; stroke-width: 2; stroke-linecap: square"/>
   </g>
   <g id="line2d_26">
    <path d="M 1227.800009 297.628796 
L 1227.800009 251.274797 
" clip-path="url(#p3207cd1762)" style="fill: none; stroke: #000000; stroke-width: 2; stroke-linecap: square"/>
   </g>
   <g id="line2d_27">
    <path d="M 1227.800009 529.398793 
L 1227.800009 390.336795 
" clip-path="url(#p3207cd1762)" style="fill: none; stroke: #000000; stroke-width: 2; stroke-linecap: square"/>
   </g>
   <g id="line2d_28">
    <path d="M 1274.154009 297.628796 
L 1274.154009 204.920797 
" clip-path="url(#p3207cd1762)" style="fill: none; stroke: #000000; stroke-width: 2; stroke-linecap: square"/>
   </g>
   <g id="line2d_29">
    <path d="M 1320.508008 529.398793 
L 1320.508008 390.336795 
" clip-path="url(#p3207cd1762)" style="fill: none; stroke: #000000; stroke-width: 2; stroke-linecap: square"/>
   </g>
   <g id="line2d_30">
    <path d="M 1366.862007 297.628796 
L 1366.862007 204.920797 
" clip-path="url(#p3207cd1762)" style="fill: none; stroke: #000000; stroke-width: 2; stroke-linecap: square"/>
   </g>
   <g id="line2d_31">
    <path d="M 1366.862007 483.044794 
L 1366.862007 390.336795 
" clip-path="url(#p3207cd1762)" style="fill: none; stroke: #000000; stroke-width: 2; stroke-linecap: square"/>
   </g>
   <g id="line2d_32">
    <path d="M 1413.216007 297.628796 
L 1413.216007 251.274797 
" clip-path="url(#p3207cd1762)" style="fill: none; stroke: #000000; stroke-width: 2; stroke-linecap: square"/>
   </g>
   <g id="text_1">
    <!-- TERMS: 8, DEPTH:22 -->
    <g transform="translate(815.366155 69.129599)scale(0.12 -0.12)">
     <defs>
      <path id="DejaVuSans-54" d="M -19 4666 
L 3928 4666 
L 3928 4134 
L 2272 4134 
L 2272 0 
L 1638 0 
L 1638 4134 
L -19 4134 
L -19 4666 
z
" transform="scale(0.015625)"/>
      <path id="DejaVuSans-45" d="M 628 4666 
L 3578 4666 
L 3578 4134 
L 1259 4134 
L 1259 2753 
L 3481 2753 
L 3481 2222 
L 1259 2222 
L 1259 531 
L 3634 531 
L 3634 0 
L 628 0 
L 628 4666 
z
" transform="scale(0.015625)"/>
      <path id="DejaVuSans-52" d="M 2841 2188 
Q 3044 2119 3236 1894 
Q 3428 1669 3622 1275 
L 4263 0 
L 3584 0 
L 2988 1197 
Q 2756 1666 2539 1819 
Q 2322 1972 1947 1972 
L 1259 1972 
L 1259 0 
L 628 0 
L 628 4666 
L 2053 4666 
Q 2853 4666 3247 4331 
Q 3641 3997 3641 3322 
Q 3641 2881 3436 2590 
Q 3231 2300 2841 2188 
z
M 1259 4147 
L 1259 2491 
L 2053 2491 
Q 2509 2491 2742 2702 
Q 2975 2913 2975 3322 
Q 2975 3731 2742 3939 
Q 2509 4147 2053 4147 
L 1259 4147 
z
" transform="scale(0.015625)"/>
      <path id="DejaVuSans-4d" d="M 628 4666 
L 1569 4666 
L 2759 1491 
L 3956 4666 
L 4897 4666 
L 4897 0 
L 4281 0 
L 4281 4097 
L 3078 897 
L 2444 897 
L 1241 4097 
L 1241 0 
L 628 0 
L 628 4666 
z
" transform="scale(0.015625)"/>
      <path id="DejaVuSans-53" d="M 3425 4513 
L 3425 3897 
Q 3066 4069 2747 4153 
Q 2428 4238 2131 4238 
Q 1616 4238 1336 4038 
Q 1056 3838 1056 3469 
Q 1056 3159 1242 3001 
Q 1428 2844 1947 2747 
L 2328 2669 
Q 3034 2534 3370 2195 
Q 3706 1856 3706 1288 
Q 3706 609 3251 259 
Q 2797 -91 1919 -91 
Q 1588 -91 1214 -16 
Q 841 59 441 206 
L 441 856 
Q 825 641 1194 531 
Q 1563 422 1919 422 
Q 2459 422 2753 634 
Q 3047 847 3047 1241 
Q 3047 1584 2836 1778 
Q 2625 1972 2144 2069 
L 1759 2144 
Q 1053 2284 737 2584 
Q 422 2884 422 3419 
Q 422 4038 858 4394 
Q 1294 4750 2059 4750 
Q 2388 4750 2728 4690 
Q 3069 4631 3425 4513 
z
" transform="scale(0.015625)"/>
      <path id="DejaVuSans-3a" d="M 750 794 
L 1409 794 
L 1409 0 
L 750 0 
L 750 794 
z
M 750 3309 
L 1409 3309 
L 1409 2516 
L 750 2516 
L 750 3309 
z
" transform="scale(0.015625)"/>
      <path id="DejaVuSans-20" transform="scale(0.015625)"/>
      <path id="DejaVuSans-38" d="M 2034 2216 
Q 1584 2216 1326 1975 
Q 1069 1734 1069 1313 
Q 1069 891 1326 650 
Q 1584 409 2034 409 
Q 2484 409 2743 651 
Q 3003 894 3003 1313 
Q 3003 1734 2745 1975 
Q 2488 2216 2034 2216 
z
M 1403 2484 
Q 997 2584 770 2862 
Q 544 3141 544 3541 
Q 544 4100 942 4425 
Q 1341 4750 2034 4750 
Q 2731 4750 3128 4425 
Q 3525 4100 3525 3541 
Q 3525 3141 3298 2862 
Q 3072 2584 2669 2484 
Q 3125 2378 3379 2068 
Q 3634 1759 3634 1313 
Q 3634 634 3220 271 
Q 2806 -91 2034 -91 
Q 1263 -91 848 271 
Q 434 634 434 1313 
Q 434 1759 690 2068 
Q 947 2378 1403 2484 
z
M 1172 3481 
Q 1172 3119 1398 2916 
Q 1625 2713 2034 2713 
Q 2441 2713 2670 2916 
Q 2900 3119 2900 3481 
Q 2900 3844 2670 4047 
Q 2441 4250 2034 4250 
Q 1625 4250 1398 4047 
Q 1172 3844 1172 3481 
z
" transform="scale(0.015625)"/>
      <path id="DejaVuSans-2c" d="M 750 794 
L 1409 794 
L 1409 256 
L 897 -744 
L 494 -744 
L 750 256 
L 750 794 
z
" transform="scale(0.015625)"/>
      <path id="DejaVuSans-44" d="M 1259 4147 
L 1259 519 
L 2022 519 
Q 2988 519 3436 956 
Q 3884 1394 3884 2338 
Q 3884 3275 3436 3711 
Q 2988 4147 2022 4147 
L 1259 4147 
z
M 628 4666 
L 1925 4666 
Q 3281 4666 3915 4102 
Q 4550 3538 4550 2338 
Q 4550 1131 3912 565 
Q 3275 0 1925 0 
L 628 0 
L 628 4666 
z
" transform="scale(0.015625)"/>
      <path id="DejaVuSans-50" d="M 1259 4147 
L 1259 2394 
L 2053 2394 
Q 2494 2394 2734 2622 
Q 2975 2850 2975 3272 
Q 2975 3691 2734 3919 
Q 2494 4147 2053 4147 
L 1259 4147 
z
M 628 4666 
L 2053 4666 
Q 2838 4666 3239 4311 
Q 3641 3956 3641 3272 
Q 3641 2581 3239 2228 
Q 2838 1875 2053 1875 
L 1259 1875 
L 1259 0 
L 628 0 
L 628 4666 
z
" transform="scale(0.015625)"/>
      <path id="DejaVuSans-48" d="M 628 4666 
L 1259 4666 
L 1259 2753 
L 3553 2753 
L 3553 4666 
L 4184 4666 
L 4184 0 
L 3553 0 
L 3553 2222 
L 1259 2222 
L 1259 0 
L 628 0 
L 628 4666 
z
" transform="scale(0.015625)"/>
      <path id="DejaVuSans-32" d="M 1228 531 
L 3431 531 
L 3431 0 
L 469 0 
L 469 531 
Q 828 903 1448 1529 
Q 2069 2156 2228 2338 
Q 2531 2678 2651 2914 
Q 2772 3150 2772 3378 
Q 2772 3750 2511 3984 
Q 2250 4219 1831 4219 
Q 1534 4219 1204 4116 
Q 875 4013 500 3803 
L 500 4441 
Q 881 4594 1212 4672 
Q 1544 4750 1819 4750 
Q 2544 4750 2975 4387 
Q 3406 4025 3406 3419 
Q 3406 3131 3298 2873 
Q 3191 2616 2906 2266 
Q 2828 2175 2409 1742 
Q 1991 1309 1228 531 
z
" transform="scale(0.015625)"/>
     </defs>
     <use xlink:href="#DejaVuSans-54"/>
     <use xlink:href="#DejaVuSans-45" x="61.083984"/>
     <use xlink:href="#DejaVuSans-52" x="124.267578"/>
     <use xlink:href="#DejaVuSans-4d" x="193.75"/>
     <use xlink:href="#DejaVuSans-53" x="280.029297"/>
     <use xlink:href="#DejaVuSans-3a" x="343.505859"/>
     <use xlink:href="#DejaVuSans-20" x="377.197266"/>
     <use xlink:href="#DejaVuSans-38" x="408.984375"/>
     <use xlink:href="#DejaVuSans-2c" x="472.607422"/>
     <use xlink:href="#DejaVuSans-20" x="504.394531"/>
     <use xlink:href="#DejaVuSans-44" x="536.181641"/>
     <use xlink:href="#DejaVuSans-45" x="613.183594"/>
     <use xlink:href="#DejaVuSans-50" x="676.367188"/>
     <use xlink:href="#DejaVuSans-54" x="736.669922"/>
     <use xlink:href="#DejaVuSans-48" x="797.753906"/>
     <use xlink:href="#DejaVuSans-3a" x="872.949219"/>
     <use xlink:href="#DejaVuSans-32" x="906.640625"/>
     <use xlink:href="#DejaVuSans-32" x="970.263672"/>
    </g>
   </g>
   <g id="patch_2">
    <path d="M 285.654972 173.631848 
L 315.785071 173.631848 
L 315.785071 143.501748 
L 285.654972 143.501748 
z
" clip-path="url(#p3207cd1762)" style="fill: #ffffff; stroke: #000000; stroke-width: 1.5; stroke-linejoin: miter"/>
   </g>
   <g id="patch_3">
    <path d="M 285.654972 266.339846 
L 315.785071 266.339846 
L 315.785071 236.209747 
L 285.654972 236.209747 
z
" clip-path="url(#p3207cd1762)" style="fill: #ffffff; stroke: #000000; stroke-width: 1.5; stroke-linejoin: miter"/>
   </g>
   <g id="patch_4">
    <path d="M 285.654972 405.401845 
L 315.785071 405.401845 
L 315.785071 375.271745 
L 285.654972 375.271745 
z
" clip-path="url(#p3207cd1762)" style="fill: #ffffff; stroke: #000000; stroke-width: 1.5; stroke-linejoin: miter"/>
   </g>
   <g id="patch_5">
    <path d="M 332.008971 173.631848 
L 362.139071 173.631848 
L 362.139071 143.501748 
L 332.008971 143.501748 
z
" clip-path="url(#p3207cd1762)" style="fill: #ffffff; stroke: #000000; stroke-width: 1.5; stroke-linejoin: miter"/>
   </g>
   <g id="patch_6">
    <path d="M 332.008971 266.339846 
L 362.139071 266.339846 
L 362.139071 236.209747 
L 332.008971 236.209747 
z
" clip-path="url(#p3207cd1762)" style="fill: #ffffff; stroke: #000000; stroke-width: 1.5; stroke-linejoin: miter"/>
   </g>
   <g id="patch_7">
    <path d="M 393.42802 163.086313 
C 394.62661 163.086313 395.776269 162.610108 396.6238 161.762578 
C 397.471331 160.915047 397.947535 159.765387 397.947535 158.566798 
C 397.947535 157.368209 397.471331 156.218549 396.6238 155.371018 
C 395.776269 154.523488 394.62661 154.047283 393.42802 154.047283 
C 392.229431 154.047283 391.079771 154.523488 390.232241 155.371018 
C 389.38471 156.218549 388.908505 157.368209 388.908505 158.566798 
C 388.908505 159.765387 389.38471 160.915047 390.232241 161.762578 
C 391.079771 162.610108 392.229431 163.086313 393.42802 163.086313 
z
" clip-path="url(#p3207cd1762)" style="stroke: #000000; stroke-width: 1.5; stroke-linejoin: miter"/>
   </g>
   <g id="patch_8">
    <path d="M 393.42802 539.944328 
C 396.224729 539.944328 398.907268 538.833184 400.88484 536.855612 
C 402.862411 534.878041 403.973555 532.195502 403.973555 529.398793 
C 403.973555 526.602084 402.862411 523.919545 400.88484 521.941974 
C 398.907268 519.964402 396.224729 518.853258 393.42802 518.853258 
C 390.631312 518.853258 387.948773 519.964402 385.971201 521.941974 
C 383.99363 523.919545 382.882486 526.602084 382.882486 529.398793 
C 382.882486 532.195502 383.99363 534.878041 385.971201 536.855612 
C 387.948773 538.833184 390.631312 539.944328 393.42802 539.944328 
z
" clip-path="url(#p3207cd1762)" style="stroke: #000000; stroke-width: 2; stroke-linejoin: miter"/>
   </g>
   <g id="patch_9">
    <path d="M 439.78202 209.440312 
C 440.980609 209.440312 442.130269 208.964108 442.977799 208.116577 
C 443.82533 207.269046 444.301535 206.119387 444.301535 204.920797 
C 444.301535 203.722208 443.82533 202.572548 442.977799 201.725018 
C 442.130269 200.877487 440.980609 200.401282 439.78202 200.401282 
C 438.58343 200.401282 437.433771 200.877487 436.58624 201.725018 
C 435.738709 202.572548 435.262505 203.722208 435.262505 204.920797 
C 435.262505 206.119387 435.738709 207.269046 436.58624 208.116577 
C 437.433771 208.964108 438.58343 209.440312 439.78202 209.440312 
z
" clip-path="url(#p3207cd1762)" style="stroke: #000000; stroke-width: 1.5; stroke-linejoin: miter"/>
   </g>
   <g id="patch_10">
    <path d="M 439.78202 539.944328 
C 442.578728 539.944328 445.261267 538.833184 447.238839 536.855612 
C 449.216411 534.878041 450.327555 532.195502 450.327555 529.398793 
C 450.327555 526.602084 449.216411 523.919545 447.238839 521.941974 
C 445.261267 519.964402 442.578728 518.853258 439.78202 518.853258 
C 436.985311 518.853258 434.302772 519.964402 432.325201 521.941974 
C 430.347629 523.919545 429.236485 526.602084 429.236485 529.398793 
C 429.236485 532.195502 430.347629 534.878041 432.325201 536.855612 
C 434.302772 538.833184 436.985311 539.944328 439.78202 539.944328 
z
" clip-path="url(#p3207cd1762)" style="stroke: #000000; stroke-width: 2; stroke-linejoin: miter"/>
   </g>
   <g id="patch_11">
    <path d="M 486.136019 255.794312 
C 487.334609 255.794312 488.484268 255.318107 489.331799 254.470576 
C 490.179329 253.623046 490.655534 252.473386 490.655534 251.274797 
C 490.655534 250.076207 490.179329 248.926548 489.331799 248.079017 
C 488.484268 247.231486 487.334609 246.755282 486.136019 246.755282 
C 484.93743 246.755282 483.78777 247.231486 482.940239 248.079017 
C 482.092709 248.926548 481.616504 250.076207 481.616504 251.274797 
C 481.616504 252.473386 482.092709 253.623046 482.940239 254.470576 
C 483.78777 255.318107 484.93743 255.794312 486.136019 255.794312 
z
" clip-path="url(#p3207cd1762)" style="stroke: #000000; stroke-width: 1.5; stroke-linejoin: miter"/>
   </g>
   <g id="patch_12">
    <path d="M 486.136019 539.944328 
C 488.932728 539.944328 491.615267 538.833184 493.592838 536.855612 
C 495.57041 534.878041 496.681554 532.195502 496.681554 529.398793 
C 496.681554 526.602084 495.57041 523.919545 493.592838 521.941974 
C 491.615267 519.964402 488.932728 518.853258 486.136019 518.853258 
C 483.339311 518.853258 480.656772 519.964402 478.6792 521.941974 
C 476.701628 523.919545 475.590484 526.602084 475.590484 529.398793 
C 475.590484 532.195502 476.701628 534.878041 478.6792 536.855612 
C 480.656772 538.833184 483.339311 539.944328 486.136019 539.944328 
z
" clip-path="url(#p3207cd1762)" style="stroke: #000000; stroke-width: 2; stroke-linejoin: miter"/>
   </g>
   <g id="patch_13">
    <path d="M 532.490019 394.85631 
C 533.688608 394.85631 534.838268 394.380105 535.685798 393.532574 
C 536.533329 392.685044 537.009533 391.535384 537.009533 390.336795 
C 537.009533 389.138205 536.533329 387.988546 535.685798 387.141015 
C 534.838268 386.293484 533.688608 385.81728 532.490019 385.81728 
C 531.291429 385.81728 530.14177 386.293484 529.294239 387.141015 
C 528.446708 387.988546 527.970504 389.138205 527.970504 390.336795 
C 527.970504 391.535384 528.446708 392.685044 529.294239 393.532574 
C 530.14177 394.380105 531.291429 394.85631 532.490019 394.85631 
z
" clip-path="url(#p3207cd1762)" style="stroke: #000000; stroke-width: 1.5; stroke-linejoin: miter"/>
   </g>
   <g id="patch_14">
    <path d="M 532.490019 539.944328 
C 535.286727 539.944328 537.969266 538.833184 539.946838 536.855612 
C 541.924409 534.878041 543.035553 532.195502 543.035553 529.398793 
C 543.035553 526.602084 541.924409 523.919545 539.946838 521.941974 
C 537.969266 519.964402 535.286727 518.853258 532.490019 518.853258 
C 529.69331 518.853258 527.010771 519.964402 525.033199 521.941974 
C 523.055628 523.919545 521.944484 526.602084 521.944484 529.398793 
C 521.944484 532.195502 523.055628 534.878041 525.033199 536.855612 
C 527.010771 538.833184 529.69331 539.944328 532.490019 539.944328 
z
" clip-path="url(#p3207cd1762)" style="stroke: #000000; stroke-width: 2; stroke-linejoin: miter"/>
   </g>
   <g id="patch_15">
    <path d="M 578.844018 441.210309 
C 580.042607 441.210309 581.192267 440.734105 582.039798 439.886574 
C 582.887328 439.039043 583.363533 437.889384 583.363533 436.690794 
C 583.363533 435.492205 582.887328 434.342545 582.039798 433.495015 
C 581.192267 432.647484 580.042607 432.171279 578.844018 432.171279 
C 577.645429 432.171279 576.495769 432.647484 575.648238 433.495015 
C 574.800708 434.342545 574.324503 435.492205 574.324503 436.690794 
C 574.324503 437.889384 574.800708 439.039043 575.648238 439.886574 
C 576.495769 440.734105 577.645429 441.210309 578.844018 441.210309 
z
" clip-path="url(#p3207cd1762)" style="stroke: #000000; stroke-width: 1.5; stroke-linejoin: miter"/>
   </g>
   <g id="patch_16">
    <path d="M 578.844018 539.944328 
C 581.640726 539.944328 584.323266 538.833184 586.300837 536.855612 
C 588.278409 534.878041 589.389553 532.195502 589.389553 529.398793 
C 589.389553 526.602084 588.278409 523.919545 586.300837 521.941974 
C 584.323266 519.964402 581.640726 518.853258 578.844018 518.853258 
C 576.047309 518.853258 573.36477 519.964402 571.387199 521.941974 
C 569.409627 523.919545 568.298483 526.602084 568.298483 529.398793 
C 568.298483 532.195502 569.409627 534.878041 571.387199 536.855612 
C 573.36477 538.833184 576.047309 539.944328 578.844018 539.944328 
z
" clip-path="url(#p3207cd1762)" style="stroke: #000000; stroke-width: 2; stroke-linejoin: miter"/>
   </g>
   <g id="patch_17">
    <path d="M 625.198017 487.564309 
C 626.396607 487.564309 627.546266 487.088104 628.393797 486.240573 
C 629.241328 485.393043 629.717532 484.243383 629.717532 483.044794 
C 629.717532 481.846204 629.241328 480.696545 628.393797 479.849014 
C 627.546266 479.001483 626.396607 478.525279 625.198017 478.525279 
C 623.999428 478.525279 622.849768 479.001483 622.002238 479.849014 
C 621.154707 480.696545 620.678502 481.846204 620.678502 483.044794 
C 620.678502 484.243383 621.154707 485.393043 622.002238 486.240573 
C 622.849768 487.088104 623.999428 487.564309 625.198017 487.564309 
z
" clip-path="url(#p3207cd1762)" style="stroke: #000000; stroke-width: 1.5; stroke-linejoin: miter"/>
   </g>
   <g id="patch_18">
    <path d="M 625.198017 539.944328 
C 627.994726 539.944328 630.677265 538.833184 632.654837 536.855612 
C 634.632408 534.878041 635.743552 532.195502 635.743552 529.398793 
C 635.743552 526.602084 634.632408 523.919545 632.654837 521.941974 
C 630.677265 519.964402 627.994726 518.853258 625.198017 518.853258 
C 622.401309 518.853258 619.71877 519.964402 617.741198 521.941974 
C 615.763627 523.919545 614.652482 526.602084 614.652482 529.398793 
C 614.652482 532.195502 615.763627 534.878041 617.741198 536.855612 
C 619.71877 538.833184 622.401309 539.944328 625.198017 539.944328 
z
" clip-path="url(#p3207cd1762)" style="stroke: #000000; stroke-width: 2; stroke-linejoin: miter"/>
   </g>
   <g id="patch_19">
    <path d="M 653.874919 544.463843 
L 689.229114 544.463843 
L 689.229114 514.333743 
L 653.874919 514.333743 
z
" clip-path="url(#p3207cd1762)" style="fill: #ffffff; stroke: #000000; stroke-width: 1.5; stroke-linejoin: miter"/>
   </g>
   <g id="patch_20">
    <path d="M 717.906016 487.564309 
C 719.104605 487.564309 720.254265 487.088104 721.101796 486.240573 
C 721.949326 485.393043 722.425531 484.243383 722.425531 483.044794 
C 722.425531 481.846204 721.949326 480.696545 721.101796 479.849014 
C 720.254265 479.001483 719.104605 478.525279 717.906016 478.525279 
C 716.707427 478.525279 715.557767 479.001483 714.710236 479.849014 
C 713.862706 480.696545 713.386501 481.846204 713.386501 483.044794 
C 713.386501 484.243383 713.862706 485.393043 714.710236 486.240573 
C 715.557767 487.088104 716.707427 487.564309 717.906016 487.564309 
z
" clip-path="url(#p3207cd1762)" style="stroke: #000000; stroke-width: 1.5; stroke-linejoin: miter"/>
   </g>
   <g id="patch_21">
    <path d="M 717.906016 539.944328 
C 720.702725 539.944328 723.385264 538.833184 725.362835 536.855612 
C 727.340407 534.878041 728.451551 532.195502 728.451551 529.398793 
C 728.451551 526.602084 727.340407 523.919545 725.362835 521.941974 
C 723.385264 519.964402 720.702725 518.853258 717.906016 518.853258 
C 715.109308 518.853258 712.426768 519.964402 710.449197 521.941974 
C 708.471625 523.919545 707.360481 526.602084 707.360481 529.398793 
C 707.360481 532.195502 708.471625 534.878041 710.449197 536.855612 
C 712.426768 538.833184 715.109308 539.944328 717.906016 539.944328 
z
" clip-path="url(#p3207cd1762)" style="stroke: #000000; stroke-width: 2; stroke-linejoin: miter"/>
   </g>
   <g id="patch_22">
    <path d="M 764.260015 441.210309 
C 765.458605 441.210309 766.608264 440.734105 767.455795 439.886574 
C 768.303326 439.039043 768.77953 437.889384 768.77953 436.690794 
C 768.77953 435.492205 768.303326 434.342545 767.455795 433.495015 
C 766.608264 432.647484 765.458605 432.171279 764.260015 432.171279 
C 763.061426 432.171279 761.911766 432.647484 761.064236 433.495015 
C 760.216705 434.342545 759.740501 435.492205 759.740501 436.690794 
C 759.740501 437.889384 760.216705 439.039043 761.064236 439.886574 
C 761.911766 440.734105 763.061426 441.210309 764.260015 441.210309 
z
" clip-path="url(#p3207cd1762)" style="stroke: #000000; stroke-width: 1.5; stroke-linejoin: miter"/>
   </g>
   <g id="patch_23">
    <path d="M 764.260015 539.944328 
C 767.056724 539.944328 769.739263 538.833184 771.716835 536.855612 
C 773.694406 534.878041 774.80555 532.195502 774.80555 529.398793 
C 774.80555 526.602084 773.694406 523.919545 771.716835 521.941974 
C 769.739263 519.964402 767.056724 518.853258 764.260015 518.853258 
C 761.463307 518.853258 758.780768 519.964402 756.803196 521.941974 
C 754.825625 523.919545 753.714481 526.602084 753.714481 529.398793 
C 753.714481 532.195502 754.825625 534.878041 756.803196 536.855612 
C 758.780768 538.833184 761.463307 539.944328 764.260015 539.944328 
z
" clip-path="url(#p3207cd1762)" style="stroke: #000000; stroke-width: 2; stroke-linejoin: miter"/>
   </g>
   <g id="patch_24">
    <path d="M 795.548965 498.109843 
L 825.679065 498.109843 
L 825.679065 467.979744 
L 795.548965 467.979744 
z
" clip-path="url(#p3207cd1762)" style="fill: #ffffff; stroke: #000000; stroke-width: 1.5; stroke-linejoin: miter"/>
   </g>
   <g id="patch_25">
    <path d="M 810.614015 441.210309 
C 811.812604 441.210309 812.962264 440.734105 813.809794 439.886574 
C 814.657325 439.039043 815.13353 437.889384 815.13353 436.690794 
C 815.13353 435.492205 814.657325 434.342545 813.809794 433.495015 
C 812.962264 432.647484 811.812604 432.171279 810.614015 432.171279 
C 809.415425 432.171279 808.265766 432.647484 807.418235 433.495015 
C 806.570704 434.342545 806.0945 435.492205 806.0945 436.690794 
C 806.0945 437.889384 806.570704 439.039043 807.418235 439.886574 
C 808.265766 440.734105 809.415425 441.210309 810.614015 441.210309 
z
" clip-path="url(#p3207cd1762)" style="stroke: #000000; stroke-width: 1.5; stroke-linejoin: miter"/>
   </g>
   <g id="patch_26">
    <path d="M 810.614015 122.758333 
C 813.410723 122.758333 816.093262 121.647189 818.070834 119.669618 
C 820.048406 117.692046 821.15955 115.009507 821.15955 112.212799 
C 821.15955 109.41609 820.048406 106.733551 818.070834 104.755979 
C 816.093262 102.778408 813.410723 101.667264 810.614015 101.667264 
C 807.817306 101.667264 805.134767 102.778408 803.157196 104.755979 
C 801.179624 106.733551 800.06848 109.41609 800.06848 112.212799 
C 800.06848 115.009507 801.179624 117.692046 803.157196 119.669618 
C 805.134767 121.647189 807.817306 122.758333 810.614015 122.758333 
z
" clip-path="url(#p3207cd1762)" style="stroke: #000000; stroke-width: 2; stroke-linejoin: miter"/>
   </g>
   <g id="patch_27">
    <path d="M 856.968014 394.85631 
C 858.166604 394.85631 859.316263 394.380105 860.163794 393.532574 
C 861.011325 392.685044 861.487529 391.535384 861.487529 390.336795 
C 861.487529 389.138205 861.011325 387.988546 860.163794 387.141015 
C 859.316263 386.293484 858.166604 385.81728 856.968014 385.81728 
C 855.769425 385.81728 854.619765 386.293484 853.772235 387.141015 
C 852.924704 387.988546 852.448499 389.138205 852.448499 390.336795 
C 852.448499 391.535384 852.924704 392.685044 853.772235 393.532574 
C 854.619765 394.380105 855.769425 394.85631 856.968014 394.85631 
z
" clip-path="url(#p3207cd1762)" style="stroke: #000000; stroke-width: 1.5; stroke-linejoin: miter"/>
   </g>
   <g id="patch_28">
    <path d="M 856.968014 539.944328 
C 859.764723 539.944328 862.447262 538.833184 864.424833 536.855612 
C 866.402405 534.878041 867.513549 532.195502 867.513549 529.398793 
C 867.513549 526.602084 866.402405 523.919545 864.424833 521.941974 
C 862.447262 519.964402 859.764723 518.853258 856.968014 518.853258 
C 854.171306 518.853258 851.488767 519.964402 849.511195 521.941974 
C 847.533623 523.919545 846.422479 526.602084 846.422479 529.398793 
C 846.422479 532.195502 847.533623 534.878041 849.511195 536.855612 
C 851.488767 538.833184 854.171306 539.944328 856.968014 539.944328 
z
" clip-path="url(#p3207cd1762)" style="stroke: #000000; stroke-width: 2; stroke-linejoin: miter"/>
   </g>
   <g id="patch_29">
    <path d="M 841.902964 127.277848 
L 872.033064 127.277848 
L 872.033064 97.147749 
L 841.902964 97.147749 
z
" clip-path="url(#p3207cd1762)" style="fill: #ffffff; stroke: #000000; stroke-width: 1.5; stroke-linejoin: miter"/>
   </g>
   <g id="patch_30">
    <path d="M 888.256964 405.401845 
L 918.387063 405.401845 
L 918.387063 375.271745 
L 888.256964 375.271745 
z
" clip-path="url(#p3207cd1762)" style="fill: #ffffff; stroke: #000000; stroke-width: 1.5; stroke-linejoin: miter"/>
   </g>
   <g id="patch_31">
    <path d="M 949.676013 255.794312 
C 950.874602 255.794312 952.024262 255.318107 952.871793 254.470576 
C 953.719323 253.623046 954.195528 252.473386 954.195528 251.274797 
C 954.195528 250.076207 953.719323 248.926548 952.871793 248.079017 
C 952.024262 247.231486 950.874602 246.755282 949.676013 246.755282 
C 948.477424 246.755282 947.327764 247.231486 946.480233 248.079017 
C 945.632703 248.926548 945.156498 250.076207 945.156498 251.274797 
C 945.156498 252.473386 945.632703 253.623046 946.480233 254.470576 
C 947.327764 255.318107 948.477424 255.794312 949.676013 255.794312 
z
" clip-path="url(#p3207cd1762)" style="stroke: #000000; stroke-width: 1.5; stroke-linejoin: miter"/>
   </g>
   <g id="patch_32">
    <path d="M 949.676013 539.944328 
C 952.472722 539.944328 955.155261 538.833184 957.132832 536.855612 
C 959.110404 534.878041 960.221548 532.195502 960.221548 529.398793 
C 960.221548 526.602084 959.110404 523.919545 957.132832 521.941974 
C 955.155261 519.964402 952.472722 518.853258 949.676013 518.853258 
C 946.879304 518.853258 944.196765 519.964402 942.219194 521.941974 
C 940.241622 523.919545 939.130478 526.602084 939.130478 529.398793 
C 939.130478 532.195502 940.241622 534.878041 942.219194 536.855612 
C 944.196765 538.833184 946.879304 539.944328 949.676013 539.944328 
z
" clip-path="url(#p3207cd1762)" style="stroke: #000000; stroke-width: 2; stroke-linejoin: miter"/>
   </g>
   <g id="patch_33">
    <path d="M 996.030012 209.440312 
C 997.228602 209.440312 998.378261 208.964108 999.225792 208.116577 
C 1000.073323 207.269046 1000.549527 206.119387 1000.549527 204.920797 
C 1000.549527 203.722208 1000.073323 202.572548 999.225792 201.725018 
C 998.378261 200.877487 997.228602 200.401282 996.030012 200.401282 
C 994.831423 200.401282 993.681763 200.877487 992.834233 201.725018 
C 991.986702 202.572548 991.510497 203.722208 991.510497 204.920797 
C 991.510497 206.119387 991.986702 207.269046 992.834233 208.116577 
C 993.681763 208.964108 994.831423 209.440312 996.030012 209.440312 
z
" clip-path="url(#p3207cd1762)" style="stroke: #000000; stroke-width: 1.5; stroke-linejoin: miter"/>
   </g>
   <g id="patch_34">
    <path d="M 996.030012 539.944328 
C 998.826721 539.944328 1001.50926 538.833184 1003.486832 536.855612 
C 1005.464403 534.878041 1006.575547 532.195502 1006.575547 529.398793 
C 1006.575547 526.602084 1005.464403 523.919545 1003.486832 521.941974 
C 1001.50926 519.964402 998.826721 518.853258 996.030012 518.853258 
C 993.233304 518.853258 990.550765 519.964402 988.573193 521.941974 
C 986.595622 523.919545 985.484478 526.602084 985.484478 529.398793 
C 985.484478 532.195502 986.595622 534.878041 988.573193 536.855612 
C 990.550765 538.833184 993.233304 539.944328 996.030012 539.944328 
z
" clip-path="url(#p3207cd1762)" style="stroke: #000000; stroke-width: 2; stroke-linejoin: miter"/>
   </g>
   <g id="patch_35">
    <path d="M 1027.318962 266.339846 
L 1057.449062 266.339846 
L 1057.449062 236.209747 
L 1027.318962 236.209747 
z
" clip-path="url(#p3207cd1762)" style="fill: #ffffff; stroke: #000000; stroke-width: 1.5; stroke-linejoin: miter"/>
   </g>
   <g id="patch_36">
    <path d="M 1042.384012 487.564309 
C 1043.582601 487.564309 1044.732261 487.088104 1045.579791 486.240573 
C 1046.427322 485.393043 1046.903527 484.243383 1046.903527 483.044794 
C 1046.903527 481.846204 1046.427322 480.696545 1045.579791 479.849014 
C 1044.732261 479.001483 1043.582601 478.525279 1042.384012 478.525279 
C 1041.185422 478.525279 1040.035763 479.001483 1039.188232 479.849014 
C 1038.340701 480.696545 1037.864497 481.846204 1037.864497 483.044794 
C 1037.864497 484.243383 1038.340701 485.393043 1039.188232 486.240573 
C 1040.035763 487.088104 1041.185422 487.564309 1042.384012 487.564309 
z
" clip-path="url(#p3207cd1762)" style="stroke: #000000; stroke-width: 1.5; stroke-linejoin: miter"/>
   </g>
   <g id="patch_37">
    <path d="M 1042.384012 400.88233 
C 1045.18072 400.88233 1047.863259 399.771186 1049.840831 397.793614 
C 1051.818403 395.816042 1052.929547 393.133503 1052.929547 390.336795 
C 1052.929547 387.540086 1051.818403 384.857547 1049.840831 382.879976 
C 1047.863259 380.902404 1045.18072 379.79126 1042.384012 379.79126 
C 1039.587303 379.79126 1036.904764 380.902404 1034.927193 382.879976 
C 1032.949621 384.857547 1031.838477 387.540086 1031.838477 390.336795 
C 1031.838477 393.133503 1032.949621 395.816042 1034.927193 397.793614 
C 1036.904764 399.771186 1039.587303 400.88233 1042.384012 400.88233 
z
" clip-path="url(#p3207cd1762)" style="stroke: #000000; stroke-width: 2; stroke-linejoin: miter"/>
   </g>
   <g id="patch_38">
    <path d="M 1088.738011 441.210309 
C 1089.936601 441.210309 1091.08626 440.734105 1091.933791 439.886574 
C 1092.781321 439.039043 1093.257526 437.889384 1093.257526 436.690794 
C 1093.257526 435.492205 1092.781321 434.342545 1091.933791 433.495015 
C 1091.08626 432.647484 1089.936601 432.171279 1088.738011 432.171279 
C 1087.539422 432.171279 1086.389762 432.647484 1085.542231 433.495015 
C 1084.694701 434.342545 1084.218496 435.492205 1084.218496 436.690794 
C 1084.218496 437.889384 1084.694701 439.039043 1085.542231 439.886574 
C 1086.389762 440.734105 1087.539422 441.210309 1088.738011 441.210309 
z
" clip-path="url(#p3207cd1762)" style="stroke: #000000; stroke-width: 1.5; stroke-linejoin: miter"/>
   </g>
   <g id="patch_39">
    <path d="M 1088.738011 122.758333 
C 1091.53472 122.758333 1094.217259 121.647189 1096.19483 119.669618 
C 1098.172402 117.692046 1099.283546 115.009507 1099.283546 112.212799 
C 1099.283546 109.41609 1098.172402 106.733551 1096.19483 104.755979 
C 1094.217259 102.778408 1091.53472 101.667264 1088.738011 101.667264 
C 1085.941303 101.667264 1083.258763 102.778408 1081.281192 104.755979 
C 1079.30362 106.733551 1078.192476 109.41609 1078.192476 112.212799 
C 1078.192476 115.009507 1079.30362 117.692046 1081.281192 119.669618 
C 1083.258763 121.647189 1085.941303 122.758333 1088.738011 122.758333 
z
" clip-path="url(#p3207cd1762)" style="stroke: #000000; stroke-width: 2; stroke-linejoin: miter"/>
   </g>
   <g id="patch_40">
    <path d="M 1135.092011 163.086313 
C 1136.2906 163.086313 1137.44026 162.610108 1138.28779 161.762578 
C 1139.135321 160.915047 1139.611525 159.765387 1139.611525 158.566798 
C 1139.611525 157.368209 1139.135321 156.218549 1138.28779 155.371018 
C 1137.44026 154.523488 1136.2906 154.047283 1135.092011 154.047283 
C 1133.893421 154.047283 1132.743762 154.523488 1131.896231 155.371018 
C 1131.0487 156.218549 1130.572496 157.368209 1130.572496 158.566798 
C 1130.572496 159.765387 1131.0487 160.915047 1131.896231 161.762578 
C 1132.743762 162.610108 1133.893421 163.086313 1135.092011 163.086313 
z
" clip-path="url(#p3207cd1762)" style="stroke: #000000; stroke-width: 1.5; stroke-linejoin: miter"/>
   </g>
   <g id="patch_41">
    <path d="M 1135.092011 539.944328 
C 1137.888719 539.944328 1140.571258 538.833184 1142.54883 536.855612 
C 1144.526401 534.878041 1145.637545 532.195502 1145.637545 529.398793 
C 1145.637545 526.602084 1144.526401 523.919545 1142.54883 521.941974 
C 1140.571258 519.964402 1137.888719 518.853258 1135.092011 518.853258 
C 1132.295302 518.853258 1129.612763 519.964402 1127.635191 521.941974 
C 1125.65762 523.919545 1124.546476 526.602084 1124.546476 529.398793 
C 1124.546476 532.195502 1125.65762 534.878041 1127.635191 536.855612 
C 1129.612763 538.833184 1132.295302 539.944328 1135.092011 539.944328 
z
" clip-path="url(#p3207cd1762)" style="stroke: #000000; stroke-width: 2; stroke-linejoin: miter"/>
   </g>
   <g id="patch_42">
    <path d="M 1166.38096 266.339846 
L 1196.51106 266.339846 
L 1196.51106 236.209747 
L 1166.38096 236.209747 
z
" clip-path="url(#p3207cd1762)" style="fill: #ffffff; stroke: #000000; stroke-width: 1.5; stroke-linejoin: miter"/>
   </g>
   <g id="patch_43">
    <path d="M 1166.38096 173.631848 
L 1196.51106 173.631848 
L 1196.51106 143.501748 
L 1166.38096 143.501748 
z
" clip-path="url(#p3207cd1762)" style="fill: #ffffff; stroke: #000000; stroke-width: 1.5; stroke-linejoin: miter"/>
   </g>
   <g id="patch_44">
    <path d="M 1166.38096 544.463843 
L 1196.51106 544.463843 
L 1196.51106 514.333743 
L 1166.38096 514.333743 
z
" clip-path="url(#p3207cd1762)" style="fill: #ffffff; stroke: #000000; stroke-width: 1.5; stroke-linejoin: miter"/>
   </g>
   <g id="patch_45">
    <path d="M 1227.800009 255.794312 
C 1228.998599 255.794312 1230.148258 255.318107 1230.995789 254.470576 
C 1231.84332 253.623046 1232.319524 252.473386 1232.319524 251.274797 
C 1232.319524 250.076207 1231.84332 248.926548 1230.995789 248.079017 
C 1230.148258 247.231486 1228.998599 246.755282 1227.800009 246.755282 
C 1226.60142 246.755282 1225.45176 247.231486 1224.60423 248.079017 
C 1223.756699 248.926548 1223.280494 250.076207 1223.280494 251.274797 
C 1223.280494 252.473386 1223.756699 253.623046 1224.60423 254.470576 
C 1225.45176 255.318107 1226.60142 255.794312 1227.800009 255.794312 
z
" clip-path="url(#p3207cd1762)" style="stroke: #000000; stroke-width: 1.5; stroke-linejoin: miter"/>
   </g>
   <g id="patch_46">
    <path d="M 1227.800009 308.174331 
C 1230.596718 308.174331 1233.279257 307.063187 1235.256828 305.085615 
C 1237.2344 303.108044 1238.345544 300.425505 1238.345544 297.628796 
C 1238.345544 294.832088 1237.2344 292.149548 1235.256828 290.171977 
C 1233.279257 288.194405 1230.596718 287.083261 1227.800009 287.083261 
C 1225.003301 287.083261 1222.320762 288.194405 1220.34319 290.171977 
C 1218.365619 292.149548 1217.254474 294.832088 1217.254474 297.628796 
C 1217.254474 300.425505 1218.365619 303.108044 1220.34319 305.085615 
C 1222.320762 307.063187 1225.003301 308.174331 1227.800009 308.174331 
z
" clip-path="url(#p3207cd1762)" style="stroke: #000000; stroke-width: 2; stroke-linejoin: miter"/>
   </g>
   <g id="patch_47">
    <path d="M 1212.734959 173.631848 
L 1242.865059 173.631848 
L 1242.865059 143.501748 
L 1212.734959 143.501748 
z
" clip-path="url(#p3207cd1762)" style="fill: #ffffff; stroke: #000000; stroke-width: 1.5; stroke-linejoin: miter"/>
   </g>
   <g id="patch_48">
    <path d="M 1227.800009 533.918308 
C 1228.998599 533.918308 1230.148258 533.442103 1230.995789 532.594573 
C 1231.84332 531.747042 1232.319524 530.597382 1232.319524 529.398793 
C 1232.319524 528.200204 1231.84332 527.050544 1230.995789 526.203013 
C 1230.148258 525.355483 1228.998599 524.879278 1227.800009 524.879278 
C 1226.60142 524.879278 1225.45176 525.355483 1224.60423 526.203013 
C 1223.756699 527.050544 1223.280494 528.200204 1223.280494 529.398793 
C 1223.280494 530.597382 1223.756699 531.747042 1224.60423 532.594573 
C 1225.45176 533.442103 1226.60142 533.918308 1227.800009 533.918308 
z
" clip-path="url(#p3207cd1762)" style="stroke: #000000; stroke-width: 1.5; stroke-linejoin: miter"/>
   </g>
   <g id="patch_49">
    <path d="M 1227.800009 400.88233 
C 1230.596718 400.88233 1233.279257 399.771186 1235.256828 397.793614 
C 1237.2344 395.816042 1238.345544 393.133503 1238.345544 390.336795 
C 1238.345544 387.540086 1237.2344 384.857547 1235.256828 382.879976 
C 1233.279257 380.902404 1230.596718 379.79126 1227.800009 379.79126 
C 1225.003301 379.79126 1222.320762 380.902404 1220.34319 382.879976 
C 1218.365619 384.857547 1217.254474 387.540086 1217.254474 390.336795 
C 1217.254474 393.133503 1218.365619 395.816042 1220.34319 397.793614 
C 1222.320762 399.771186 1225.003301 400.88233 1227.800009 400.88233 
z
" clip-path="url(#p3207cd1762)" style="stroke: #000000; stroke-width: 2; stroke-linejoin: miter"/>
   </g>
   <g id="patch_50">
    <path d="M 1274.154009 209.440312 
C 1275.352598 209.440312 1276.502258 208.964108 1277.349788 208.116577 
C 1278.197319 207.269046 1278.673524 206.119387 1278.673524 204.920797 
C 1278.673524 203.722208 1278.197319 202.572548 1277.349788 201.725018 
C 1276.502258 200.877487 1275.352598 200.401282 1274.154009 200.401282 
C 1272.955419 200.401282 1271.80576 200.877487 1270.958229 201.725018 
C 1270.110698 202.572548 1269.634494 203.722208 1269.634494 204.920797 
C 1269.634494 206.119387 1270.110698 207.269046 1270.958229 208.116577 
C 1271.80576 208.964108 1272.955419 209.440312 1274.154009 209.440312 
z
" clip-path="url(#p3207cd1762)" style="stroke: #000000; stroke-width: 1.5; stroke-linejoin: miter"/>
   </g>
   <g id="patch_51">
    <path d="M 1274.154009 308.174331 
C 1276.950717 308.174331 1279.633256 307.063187 1281.610828 305.085615 
C 1283.588399 303.108044 1284.699544 300.425505 1284.699544 297.628796 
C 1284.699544 294.832088 1283.588399 292.149548 1281.610828 290.171977 
C 1279.633256 288.194405 1276.950717 287.083261 1274.154009 287.083261 
C 1271.3573 287.083261 1268.674761 288.194405 1266.697189 290.171977 
C 1264.719618 292.149548 1263.608474 294.832088 1263.608474 297.628796 
C 1263.608474 300.425505 1264.719618 303.108044 1266.697189 305.085615 
C 1268.674761 307.063187 1271.3573 308.174331 1274.154009 308.174331 
z
" clip-path="url(#p3207cd1762)" style="stroke: #000000; stroke-width: 2; stroke-linejoin: miter"/>
   </g>
   <g id="patch_52">
    <path d="M 1256.379568 405.401845 
L 1291.92845 405.401845 
L 1291.92845 375.271745 
L 1256.379568 375.271745 
z
" clip-path="url(#p3207cd1762)" style="fill: #ffffff; stroke: #000000; stroke-width: 1.5; stroke-linejoin: miter"/>
   </g>
   <g id="patch_53">
    <path d="M 1302.733567 312.693846 
L 1338.282449 312.693846 
L 1338.282449 282.563746 
L 1302.733567 282.563746 
z
" clip-path="url(#p3207cd1762)" style="fill: #ffffff; stroke: #000000; stroke-width: 1.5; stroke-linejoin: miter"/>
   </g>
   <g id="patch_54">
    <path d="M 1320.508008 533.918308 
C 1321.706597 533.918308 1322.856257 533.442103 1323.703788 532.594573 
C 1324.551318 531.747042 1325.027523 530.597382 1325.027523 529.398793 
C 1325.027523 528.200204 1324.551318 527.050544 1323.703788 526.203013 
C 1322.856257 525.355483 1321.706597 524.879278 1320.508008 524.879278 
C 1319.309419 524.879278 1318.159759 525.355483 1317.312228 526.203013 
C 1316.464698 527.050544 1315.988493 528.200204 1315.988493 529.398793 
C 1315.988493 530.597382 1316.464698 531.747042 1317.312228 532.594573 
C 1318.159759 533.442103 1319.309419 533.918308 1320.508008 533.918308 
z
" clip-path="url(#p3207cd1762)" style="stroke: #000000; stroke-width: 1.5; stroke-linejoin: miter"/>
   </g>
   <g id="patch_55">
    <path d="M 1320.508008 400.88233 
C 1323.304717 400.88233 1325.987256 399.771186 1327.964827 397.793614 
C 1329.942399 395.816042 1331.053543 393.133503 1331.053543 390.336795 
C 1331.053543 387.540086 1329.942399 384.857547 1327.964827 382.879976 
C 1325.987256 380.902404 1323.304717 379.79126 1320.508008 379.79126 
C 1317.7113 379.79126 1315.02876 380.902404 1313.051189 382.879976 
C 1311.073617 384.857547 1309.962473 387.540086 1309.962473 390.336795 
C 1309.962473 393.133503 1311.073617 395.816042 1313.051189 397.793614 
C 1315.02876 399.771186 1317.7113 400.88233 1320.508008 400.88233 
z
" clip-path="url(#p3207cd1762)" style="stroke: #000000; stroke-width: 2; stroke-linejoin: miter"/>
   </g>
   <g id="patch_56">
    <path d="M 1366.862007 209.440312 
C 1368.060597 209.440312 1369.210256 208.964108 1370.057787 208.116577 
C 1370.905318 207.269046 1371.381522 206.119387 1371.381522 204.920797 
C 1371.381522 203.722208 1370.905318 202.572548 1370.057787 201.725018 
C 1369.210256 200.877487 1368.060597 200.401282 1366.862007 200.401282 
C 1365.663418 200.401282 1364.513758 200.877487 1363.666228 201.725018 
C 1362.818697 202.572548 1362.342492 203.722208 1362.342492 204.920797 
C 1362.342492 206.119387 1362.818697 207.269046 1363.666228 208.116577 
C 1364.513758 208.964108 1365.663418 209.440312 1366.862007 209.440312 
z
" clip-path="url(#p3207cd1762)" style="stroke: #000000; stroke-width: 1.5; stroke-linejoin: miter"/>
   </g>
   <g id="patch_57">
    <path d="M 1366.862007 308.174331 
C 1369.658716 308.174331 1372.341255 307.063187 1374.318827 305.085615 
C 1376.296398 303.108044 1377.407542 300.425505 1377.407542 297.628796 
C 1377.407542 294.832088 1376.296398 292.149548 1374.318827 290.171977 
C 1372.341255 288.194405 1369.658716 287.083261 1366.862007 287.083261 
C 1364.065299 287.083261 1361.38276 288.194405 1359.405188 290.171977 
C 1357.427617 292.149548 1356.316473 294.832088 1356.316473 297.628796 
C 1356.316473 300.425505 1357.427617 303.108044 1359.405188 305.085615 
C 1361.38276 307.063187 1364.065299 308.174331 1366.862007 308.174331 
z
" clip-path="url(#p3207cd1762)" style="stroke: #000000; stroke-width: 2; stroke-linejoin: miter"/>
   </g>
   <g id="patch_58">
    <path d="M 1351.796958 544.463843 
L 1381.927057 544.463843 
L 1381.927057 514.333743 
L 1351.796958 514.333743 
z
" clip-path="url(#p3207cd1762)" style="fill: #ffffff; stroke: #000000; stroke-width: 1.5; stroke-linejoin: miter"/>
   </g>
   <g id="patch_59">
    <path d="M 1366.862007 487.564309 
C 1368.060597 487.564309 1369.210256 487.088104 1370.057787 486.240573 
C 1370.905318 485.393043 1371.381522 484.243383 1371.381522 483.044794 
C 1371.381522 481.846204 1370.905318 480.696545 1370.057787 479.849014 
C 1369.210256 479.001483 1368.060597 478.525279 1366.862007 478.525279 
C 1365.663418 478.525279 1364.513758 479.001483 1363.666228 479.849014 
C 1362.818697 480.696545 1362.342492 481.846204 1362.342492 483.044794 
C 1362.342492 484.243383 1362.818697 485.393043 1363.666228 486.240573 
C 1364.513758 487.088104 1365.663418 487.564309 1366.862007 487.564309 
z
" clip-path="url(#p3207cd1762)" style="stroke: #000000; stroke-width: 1.5; stroke-linejoin: miter"/>
   </g>
   <g id="patch_60">
    <path d="M 1366.862007 400.88233 
C 1369.658716 400.88233 1372.341255 399.771186 1374.318827 397.793614 
C 1376.296398 395.816042 1377.407542 393.133503 1377.407542 390.336795 
C 1377.407542 387.540086 1376.296398 384.857547 1374.318827 382.879976 
C 1372.341255 380.902404 1369.658716 379.79126 1366.862007 379.79126 
C 1364.065299 379.79126 1361.38276 380.902404 1359.405188 382.879976 
C 1357.427617 384.857547 1356.316473 387.540086 1356.316473 390.336795 
C 1356.316473 393.133503 1357.427617 395.816042 1359.405188 397.793614 
C 1361.38276 399.771186 1364.065299 400.88233 1366.862007 400.88233 
z
" clip-path="url(#p3207cd1762)" style="stroke: #000000; stroke-width: 2; stroke-linejoin: miter"/>
   </g>
   <g id="patch_61">
    <path d="M 1413.216007 255.794312 
C 1414.414596 255.794312 1415.564256 255.318107 1416.411786 254.470576 
C 1417.259317 253.623046 1417.735522 252.473386 1417.735522 251.274797 
C 1417.735522 250.076207 1417.259317 248.926548 1416.411786 248.079017 
C 1415.564256 247.231486 1414.414596 246.755282 1413.216007 246.755282 
C 1412.017417 246.755282 1410.867758 247.231486 1410.020227 248.079017 
C 1409.172696 248.926548 1408.696492 250.076207 1408.696492 251.274797 
C 1408.696492 252.473386 1409.172696 253.623046 1410.020227 254.470576 
C 1410.867758 255.318107 1412.017417 255.794312 1413.216007 255.794312 
z
" clip-path="url(#p3207cd1762)" style="stroke: #000000; stroke-width: 1.5; stroke-linejoin: miter"/>
   </g>
   <g id="patch_62">
    <path d="M 1413.216007 308.174331 
C 1416.012715 308.174331 1418.695254 307.063187 1420.672826 305.085615 
C 1422.650398 303.108044 1423.761542 300.425505 1423.761542 297.628796 
C 1423.761542 294.832088 1422.650398 292.149548 1420.672826 290.171977 
C 1418.695254 288.194405 1416.012715 287.083261 1413.216007 287.083261 
C 1410.419298 287.083261 1407.736759 288.194405 1405.759188 290.171977 
C 1403.781616 292.149548 1402.670472 294.832088 1402.670472 297.628796 
C 1402.670472 300.425505 1403.781616 303.108044 1405.759188 305.085615 
C 1407.736759 307.063187 1410.419298 308.174331 1413.216007 308.174331 
z
" clip-path="url(#p3207cd1762)" style="stroke: #000000; stroke-width: 2; stroke-linejoin: miter"/>
   </g>
   <g id="patch_63">
    <path d="M 1398.150957 498.109843 
L 1428.281057 498.109843 
L 1428.281057 467.979744 
L 1398.150957 467.979744 
z
" clip-path="url(#p3207cd1762)" style="fill: #ffffff; stroke: #000000; stroke-width: 1.5; stroke-linejoin: miter"/>
   </g>
   <g id="patch_64">
    <path d="M 1444.504956 266.339846 
L 1474.635056 266.339846 
L 1474.635056 236.209747 
L 1444.504956 236.209747 
z
" clip-path="url(#p3207cd1762)" style="fill: #ffffff; stroke: #000000; stroke-width: 1.5; stroke-linejoin: miter"/>
   </g>
   <g id="patch_65">
    <path d="M 1490.858956 266.339846 
L 1520.989055 266.339846 
L 1520.989055 236.209747 
L 1490.858956 236.209747 
z
" clip-path="url(#p3207cd1762)" style="fill: #ffffff; stroke: #000000; stroke-width: 1.5; stroke-linejoin: miter"/>
   </g>
   <g id="text_2">
    <g clip-path="url(#p3207cd1762)">
     <!-- ${q}_{0}$ -->
     <g transform="translate(248.380562 116.663775)scale(0.1625 -0.1625)">
      <defs>
       <path id="DejaVuSans-Oblique-71" d="M 2669 525 
Q 2438 222 2123 65 
Q 1809 -91 1428 -91 
Q 897 -91 595 267 
Q 294 625 294 1253 
Q 294 1759 480 2231 
Q 666 2703 1013 3078 
Q 1238 3322 1530 3453 
Q 1822 3584 2144 3584 
Q 2531 3584 2781 3431 
Q 3031 3278 3144 2969 
L 3244 3494 
L 3822 3494 
L 2888 -1319 
L 2309 -1319 
L 2669 525 
z
M 891 1338 
Q 891 875 1084 633 
Q 1278 391 1644 391 
Q 2188 391 2572 911 
Q 2956 1431 2956 2175 
Q 2956 2625 2757 2864 
Q 2559 3103 2188 3103 
Q 1916 3103 1684 2976 
Q 1453 2850 1281 2606 
Q 1100 2350 995 2006 
Q 891 1663 891 1338 
z
" transform="scale(0.015625)"/>
       <path id="DejaVuSans-30" d="M 2034 4250 
Q 1547 4250 1301 3770 
Q 1056 3291 1056 2328 
Q 1056 1369 1301 889 
Q 1547 409 2034 409 
Q 2525 409 2770 889 
Q 3016 1369 3016 2328 
Q 3016 3291 2770 3770 
Q 2525 4250 2034 4250 
z
M 2034 4750 
Q 2819 4750 3233 4129 
Q 3647 3509 3647 2328 
Q 3647 1150 3233 529 
Q 2819 -91 2034 -91 
Q 1250 -91 836 529 
Q 422 1150 422 2328 
Q 422 3509 836 4129 
Q 1250 4750 2034 4750 
z
" transform="scale(0.015625)"/>
      </defs>
      <use xlink:href="#DejaVuSans-Oblique-71"/>
      <use xlink:href="#DejaVuSans-30" transform="translate(63.476562 -16.40625)scale(0.7)"/>
     </g>
    </g>
   </g>
   <g id="text_3">
    <g clip-path="url(#p3207cd1762)">
     <!-- ${q}_{1}$ -->
     <g transform="translate(248.380562 163.017774)scale(0.1625 -0.1625)">
      <defs>
       <path id="DejaVuSans-31" d="M 794 531 
L 1825 531 
L 1825 4091 
L 703 3866 
L 703 4441 
L 1819 4666 
L 2450 4666 
L 2450 531 
L 3481 531 
L 3481 0 
L 794 0 
L 794 531 
z
" transform="scale(0.015625)"/>
      </defs>
      <use xlink:href="#DejaVuSans-Oblique-71"/>
      <use xlink:href="#DejaVuSans-31" transform="translate(63.476562 -16.40625)scale(0.7)"/>
     </g>
    </g>
   </g>
   <g id="text_4">
    <g clip-path="url(#p3207cd1762)">
     <!-- ${q}_{2}$ -->
     <g transform="translate(248.380562 209.371774)scale(0.1625 -0.1625)">
      <use xlink:href="#DejaVuSans-Oblique-71"/>
      <use xlink:href="#DejaVuSans-32" transform="translate(63.476562 -16.40625)scale(0.7)"/>
     </g>
    </g>
   </g>
   <g id="text_5">
    <g clip-path="url(#p3207cd1762)">
     <!-- ${q}_{3}$ -->
     <g transform="translate(248.380562 255.725773)scale(0.1625 -0.1625)">
      <defs>
       <path id="DejaVuSans-33" d="M 2597 2516 
Q 3050 2419 3304 2112 
Q 3559 1806 3559 1356 
Q 3559 666 3084 287 
Q 2609 -91 1734 -91 
Q 1441 -91 1130 -33 
Q 819 25 488 141 
L 488 750 
Q 750 597 1062 519 
Q 1375 441 1716 441 
Q 2309 441 2620 675 
Q 2931 909 2931 1356 
Q 2931 1769 2642 2001 
Q 2353 2234 1838 2234 
L 1294 2234 
L 1294 2753 
L 1863 2753 
Q 2328 2753 2575 2939 
Q 2822 3125 2822 3475 
Q 2822 3834 2567 4026 
Q 2313 4219 1838 4219 
Q 1578 4219 1281 4162 
Q 984 4106 628 3988 
L 628 4550 
Q 988 4650 1302 4700 
Q 1616 4750 1894 4750 
Q 2613 4750 3031 4423 
Q 3450 4097 3450 3541 
Q 3450 3153 3228 2886 
Q 3006 2619 2597 2516 
z
" transform="scale(0.015625)"/>
      </defs>
      <use xlink:href="#DejaVuSans-Oblique-71"/>
      <use xlink:href="#DejaVuSans-33" transform="translate(63.476562 -16.40625)scale(0.7)"/>
     </g>
    </g>
   </g>
   <g id="text_6">
    <g clip-path="url(#p3207cd1762)">
     <!-- ${q}_{4}$ -->
     <g transform="translate(248.380562 302.079773)scale(0.1625 -0.1625)">
      <defs>
       <path id="DejaVuSans-34" d="M 2419 4116 
L 825 1625 
L 2419 1625 
L 2419 4116 
z
M 2253 4666 
L 3047 4666 
L 3047 1625 
L 3713 1625 
L 3713 1100 
L 3047 1100 
L 3047 0 
L 2419 0 
L 2419 1100 
L 313 1100 
L 313 1709 
L 2253 4666 
z
" transform="scale(0.015625)"/>
      </defs>
      <use xlink:href="#DejaVuSans-Oblique-71"/>
      <use xlink:href="#DejaVuSans-34" transform="translate(63.476562 -16.40625)scale(0.7)"/>
     </g>
    </g>
   </g>
   <g id="text_7">
    <g clip-path="url(#p3207cd1762)">
     <!-- ${q}_{5}$ -->
     <g transform="translate(248.380562 348.433772)scale(0.1625 -0.1625)">
      <defs>
       <path id="DejaVuSans-35" d="M 691 4666 
L 3169 4666 
L 3169 4134 
L 1269 4134 
L 1269 2991 
Q 1406 3038 1543 3061 
Q 1681 3084 1819 3084 
Q 2600 3084 3056 2656 
Q 3513 2228 3513 1497 
Q 3513 744 3044 326 
Q 2575 -91 1722 -91 
Q 1428 -91 1123 -41 
Q 819 9 494 109 
L 494 744 
Q 775 591 1075 516 
Q 1375 441 1709 441 
Q 2250 441 2565 725 
Q 2881 1009 2881 1497 
Q 2881 1984 2565 2268 
Q 2250 2553 1709 2553 
Q 1456 2553 1204 2497 
Q 953 2441 691 2322 
L 691 4666 
z
" transform="scale(0.015625)"/>
      </defs>
      <use xlink:href="#DejaVuSans-Oblique-71"/>
      <use xlink:href="#DejaVuSans-35" transform="translate(63.476562 -16.40625)scale(0.7)"/>
     </g>
    </g>
   </g>
   <g id="text_8">
    <g clip-path="url(#p3207cd1762)">
     <!-- ${q}_{6}$ -->
     <g transform="translate(248.380562 394.787771)scale(0.1625 -0.1625)">
      <defs>
       <path id="DejaVuSans-36" d="M 2113 2584 
Q 1688 2584 1439 2293 
Q 1191 2003 1191 1497 
Q 1191 994 1439 701 
Q 1688 409 2113 409 
Q 2538 409 2786 701 
Q 3034 994 3034 1497 
Q 3034 2003 2786 2293 
Q 2538 2584 2113 2584 
z
M 3366 4563 
L 3366 3988 
Q 3128 4100 2886 4159 
Q 2644 4219 2406 4219 
Q 1781 4219 1451 3797 
Q 1122 3375 1075 2522 
Q 1259 2794 1537 2939 
Q 1816 3084 2150 3084 
Q 2853 3084 3261 2657 
Q 3669 2231 3669 1497 
Q 3669 778 3244 343 
Q 2819 -91 2113 -91 
Q 1303 -91 875 529 
Q 447 1150 447 2328 
Q 447 3434 972 4092 
Q 1497 4750 2381 4750 
Q 2619 4750 2861 4703 
Q 3103 4656 3366 4563 
z
" transform="scale(0.015625)"/>
      </defs>
      <use xlink:href="#DejaVuSans-Oblique-71"/>
      <use xlink:href="#DejaVuSans-36" transform="translate(63.476562 -16.40625)scale(0.7)"/>
     </g>
    </g>
   </g>
   <g id="text_9">
    <g clip-path="url(#p3207cd1762)">
     <!-- ${q}_{7}$ -->
     <g transform="translate(248.380562 441.141771)scale(0.1625 -0.1625)">
      <defs>
       <path id="DejaVuSans-37" d="M 525 4666 
L 3525 4666 
L 3525 4397 
L 1831 0 
L 1172 0 
L 2766 4134 
L 525 4134 
L 525 4666 
z
" transform="scale(0.015625)"/>
      </defs>
      <use xlink:href="#DejaVuSans-Oblique-71"/>
      <use xlink:href="#DejaVuSans-37" transform="translate(63.476562 -16.40625)scale(0.7)"/>
     </g>
    </g>
   </g>
   <g id="text_10">
    <g clip-path="url(#p3207cd1762)">
     <!-- ${q}_{8}$ -->
     <g transform="translate(248.380562 487.49577)scale(0.1625 -0.1625)">
      <use xlink:href="#DejaVuSans-Oblique-71"/>
      <use xlink:href="#DejaVuSans-38" transform="translate(63.476562 -16.40625)scale(0.7)"/>
     </g>
    </g>
   </g>
   <g id="text_11">
    <g clip-path="url(#p3207cd1762)">
     <!-- ${q}_{9}$ -->
     <g transform="translate(248.380562 533.84977)scale(0.1625 -0.1625)">
      <defs>
       <path id="DejaVuSans-39" d="M 703 97 
L 703 672 
Q 941 559 1184 500 
Q 1428 441 1663 441 
Q 2288 441 2617 861 
Q 2947 1281 2994 2138 
Q 2813 1869 2534 1725 
Q 2256 1581 1919 1581 
Q 1219 1581 811 2004 
Q 403 2428 403 3163 
Q 403 3881 828 4315 
Q 1253 4750 1959 4750 
Q 2769 4750 3195 4129 
Q 3622 3509 3622 2328 
Q 3622 1225 3098 567 
Q 2575 -91 1691 -91 
Q 1453 -91 1209 -44 
Q 966 3 703 97 
z
M 1959 2075 
Q 2384 2075 2632 2365 
Q 2881 2656 2881 3163 
Q 2881 3666 2632 3958 
Q 2384 4250 1959 4250 
Q 1534 4250 1286 3958 
Q 1038 3666 1038 3163 
Q 1038 2656 1286 2365 
Q 1534 2075 1959 2075 
z
" transform="scale(0.015625)"/>
      </defs>
      <use xlink:href="#DejaVuSans-Oblique-71"/>
      <use xlink:href="#DejaVuSans-39" transform="translate(63.476562 -16.40625)scale(0.7)"/>
     </g>
    </g>
   </g>
   <g id="text_12">
    <g clip-path="url(#p3207cd1762)">
     <!-- S -->
     <g transform="translate(296.593537 162.153985)scale(0.13 -0.13)">
      <use xlink:href="#DejaVuSans-53"/>
     </g>
    </g>
   </g>
   <g id="text_13">
    <g clip-path="url(#p3207cd1762)">
     <!-- S -->
     <g transform="translate(296.593537 254.861984)scale(0.13 -0.13)">
      <use xlink:href="#DejaVuSans-53"/>
     </g>
    </g>
   </g>
   <g id="text_14">
    <g clip-path="url(#p3207cd1762)">
     <!-- H -->
     <g transform="translate(295.831818 393.923982)scale(0.13 -0.13)">
      <use xlink:href="#DejaVuSans-48"/>
     </g>
    </g>
   </g>
   <g id="text_15">
    <g clip-path="url(#p3207cd1762)">
     <!-- H -->
     <g transform="translate(342.185818 162.153985)scale(0.13 -0.13)">
      <use xlink:href="#DejaVuSans-48"/>
     </g>
    </g>
   </g>
   <g id="text_16">
    <g clip-path="url(#p3207cd1762)">
     <!-- H -->
     <g transform="translate(342.185818 254.861984)scale(0.13 -0.13)">
      <use xlink:href="#DejaVuSans-48"/>
     </g>
    </g>
   </g>
   <g id="line2d_33">
    <path d="M 393.42802 535.424813 
L 393.42802 523.372773 
" clip-path="url(#p3207cd1762)" style="fill: none; stroke: #ffffff; stroke-width: 2; stroke-linecap: square"/>
   </g>
   <g id="line2d_34">
    <path d="M 387.402 529.398793 
L 399.45404 529.398793 
" clip-path="url(#p3207cd1762)" style="fill: none; stroke: #ffffff; stroke-width: 2; stroke-linecap: square"/>
   </g>
   <g id="line2d_35">
    <path d="M 439.78202 535.424813 
L 439.78202 523.372773 
" clip-path="url(#p3207cd1762)" style="fill: none; stroke: #ffffff; stroke-width: 2; stroke-linecap: square"/>
   </g>
   <g id="line2d_36">
    <path d="M 433.756 529.398793 
L 445.80804 529.398793 
" clip-path="url(#p3207cd1762)" style="fill: none; stroke: #ffffff; stroke-width: 2; stroke-linecap: square"/>
   </g>
   <g id="line2d_37">
    <path d="M 486.136019 535.424813 
L 486.136019 523.372773 
" clip-path="url(#p3207cd1762)" style="fill: none; stroke: #ffffff; stroke-width: 2; stroke-linecap: square"/>
   </g>
   <g id="line2d_38">
    <path d="M 480.109999 529.398793 
L 492.162039 529.398793 
" clip-path="url(#p3207cd1762)" style="fill: none; stroke: #ffffff; stroke-width: 2; stroke-linecap: square"/>
   </g>
   <g id="line2d_39">
    <path d="M 532.490019 535.424813 
L 532.490019 523.372773 
" clip-path="url(#p3207cd1762)" style="fill: none; stroke: #ffffff; stroke-width: 2; stroke-linecap: square"/>
   </g>
   <g id="line2d_40">
    <path d="M 526.463999 529.398793 
L 538.516038 529.398793 
" clip-path="url(#p3207cd1762)" style="fill: none; stroke: #ffffff; stroke-width: 2; stroke-linecap: square"/>
   </g>
   <g id="line2d_41">
    <path d="M 578.844018 535.424813 
L 578.844018 523.372773 
" clip-path="url(#p3207cd1762)" style="fill: none; stroke: #ffffff; stroke-width: 2; stroke-linecap: square"/>
   </g>
   <g id="line2d_42">
    <path d="M 572.817998 529.398793 
L 584.870038 529.398793 
" clip-path="url(#p3207cd1762)" style="fill: none; stroke: #ffffff; stroke-width: 2; stroke-linecap: square"/>
   </g>
   <g id="line2d_43">
    <path d="M 625.198017 535.424813 
L 625.198017 523.372773 
" clip-path="url(#p3207cd1762)" style="fill: none; stroke: #ffffff; stroke-width: 2; stroke-linecap: square"/>
   </g>
   <g id="line2d_44">
    <path d="M 619.171997 529.398793 
L 631.224037 529.398793 
" clip-path="url(#p3207cd1762)" style="fill: none; stroke: #ffffff; stroke-width: 2; stroke-linecap: square"/>
   </g>
   <g id="text_17">
    <g clip-path="url(#p3207cd1762)">
     <!-- 0.00961 -->
     <g transform="translate(655.010767 540.645323)scale(0.08 -0.08)">
      <defs>
       <path id="DejaVuSans-2e" d="M 684 794 
L 1344 794 
L 1344 0 
L 684 0 
L 684 794 
z
" transform="scale(0.015625)"/>
      </defs>
      <use xlink:href="#DejaVuSans-30"/>
      <use xlink:href="#DejaVuSans-2e" x="63.623047"/>
      <use xlink:href="#DejaVuSans-30" x="95.410156"/>
      <use xlink:href="#DejaVuSans-30" x="159.033203"/>
      <use xlink:href="#DejaVuSans-39" x="222.65625"/>
      <use xlink:href="#DejaVuSans-36" x="286.279297"/>
      <use xlink:href="#DejaVuSans-31" x="349.902344"/>
     </g>
    </g>
   </g>
   <g id="text_18">
    <g clip-path="url(#p3207cd1762)">
     <!-- $\mathrm{R_Z}$ -->
     <g transform="translate(663.622017 528.466466)scale(0.13 -0.13)">
      <defs>
       <path id="DejaVuSans-5a" d="M 359 4666 
L 4025 4666 
L 4025 4184 
L 1075 531 
L 4097 531 
L 4097 0 
L 288 0 
L 288 481 
L 3238 4134 
L 359 4134 
L 359 4666 
z
" transform="scale(0.015625)"/>
      </defs>
      <use xlink:href="#DejaVuSans-52" transform="translate(0 0.09375)"/>
      <use xlink:href="#DejaVuSans-5a" transform="translate(70.439453 -16.3125)scale(0.7)"/>
     </g>
    </g>
   </g>
   <g id="line2d_45">
    <path d="M 717.906016 535.424813 
L 717.906016 523.372773 
" clip-path="url(#p3207cd1762)" style="fill: none; stroke: #ffffff; stroke-width: 2; stroke-linecap: square"/>
   </g>
   <g id="line2d_46">
    <path d="M 711.879996 529.398793 
L 723.932036 529.398793 
" clip-path="url(#p3207cd1762)" style="fill: none; stroke: #ffffff; stroke-width: 2; stroke-linecap: square"/>
   </g>
   <g id="line2d_47">
    <path d="M 764.260015 535.424813 
L 764.260015 523.372773 
" clip-path="url(#p3207cd1762)" style="fill: none; stroke: #ffffff; stroke-width: 2; stroke-linecap: square"/>
   </g>
   <g id="line2d_48">
    <path d="M 758.233996 529.398793 
L 770.286035 529.398793 
" clip-path="url(#p3207cd1762)" style="fill: none; stroke: #ffffff; stroke-width: 2; stroke-linecap: square"/>
   </g>
   <g id="text_19">
    <g clip-path="url(#p3207cd1762)">
     <!-- H -->
     <g transform="translate(805.725812 486.631981)scale(0.13 -0.13)">
      <use xlink:href="#DejaVuSans-48"/>
     </g>
    </g>
   </g>
   <g id="line2d_49">
    <path d="M 810.614015 118.238818 
L 810.614015 106.186779 
" clip-path="url(#p3207cd1762)" style="fill: none; stroke: #ffffff; stroke-width: 2; stroke-linecap: square"/>
   </g>
   <g id="line2d_50">
    <path d="M 804.587995 112.212799 
L 816.640035 112.212799 
" clip-path="url(#p3207cd1762)" style="fill: none; stroke: #ffffff; stroke-width: 2; stroke-linecap: square"/>
   </g>
   <g id="line2d_51">
    <path d="M 856.968014 535.424813 
L 856.968014 523.372773 
" clip-path="url(#p3207cd1762)" style="fill: none; stroke: #ffffff; stroke-width: 2; stroke-linecap: square"/>
   </g>
   <g id="line2d_52">
    <path d="M 850.941994 529.398793 
L 862.994034 529.398793 
" clip-path="url(#p3207cd1762)" style="fill: none; stroke: #ffffff; stroke-width: 2; stroke-linecap: square"/>
   </g>
   <g id="text_20">
    <g clip-path="url(#p3207cd1762)">
     <!-- 0.135 -->
     <g transform="translate(845.516764 123.459328)scale(0.08 -0.08)">
      <use xlink:href="#DejaVuSans-30"/>
      <use xlink:href="#DejaVuSans-2e" x="63.623047"/>
      <use xlink:href="#DejaVuSans-31" x="95.410156"/>
      <use xlink:href="#DejaVuSans-33" x="159.033203"/>
      <use xlink:href="#DejaVuSans-35" x="222.65625"/>
     </g>
    </g>
   </g>
   <g id="text_21">
    <g clip-path="url(#p3207cd1762)">
     <!-- $\mathrm{R_Z}$ -->
     <g transform="translate(849.038014 111.280471)scale(0.13 -0.13)">
      <use xlink:href="#DejaVuSans-52" transform="translate(0 0.09375)"/>
      <use xlink:href="#DejaVuSans-5a" transform="translate(70.439453 -16.3125)scale(0.7)"/>
     </g>
    </g>
   </g>
   <g id="text_22">
    <g clip-path="url(#p3207cd1762)">
     <!-- H -->
     <g transform="translate(898.43381 393.923982)scale(0.13 -0.13)">
      <use xlink:href="#DejaVuSans-48"/>
     </g>
    </g>
   </g>
   <g id="line2d_53">
    <path d="M 949.676013 535.424813 
L 949.676013 523.372773 
" clip-path="url(#p3207cd1762)" style="fill: none; stroke: #ffffff; stroke-width: 2; stroke-linecap: square"/>
   </g>
   <g id="line2d_54">
    <path d="M 943.649993 529.398793 
L 955.702033 529.398793 
" clip-path="url(#p3207cd1762)" style="fill: none; stroke: #ffffff; stroke-width: 2; stroke-linecap: square"/>
   </g>
   <g id="line2d_55">
    <path d="M 996.030012 535.424813 
L 996.030012 523.372773 
" clip-path="url(#p3207cd1762)" style="fill: none; stroke: #ffffff; stroke-width: 2; stroke-linecap: square"/>
   </g>
   <g id="line2d_56">
    <path d="M 990.003992 529.398793 
L 1002.056032 529.398793 
" clip-path="url(#p3207cd1762)" style="fill: none; stroke: #ffffff; stroke-width: 2; stroke-linecap: square"/>
   </g>
   <g id="text_23">
    <g clip-path="url(#p3207cd1762)">
     <!-- S -->
     <g transform="translate(1038.257527 254.861984)scale(0.13 -0.13)">
      <use xlink:href="#DejaVuSans-53"/>
     </g>
    </g>
   </g>
   <g id="line2d_57">
    <path d="M 1042.384012 396.362815 
L 1042.384012 384.310775 
" clip-path="url(#p3207cd1762)" style="fill: none; stroke: #ffffff; stroke-width: 2; stroke-linecap: square"/>
   </g>
   <g id="line2d_58">
    <path d="M 1036.357992 390.336795 
L 1048.410032 390.336795 
" clip-path="url(#p3207cd1762)" style="fill: none; stroke: #ffffff; stroke-width: 2; stroke-linecap: square"/>
   </g>
   <g id="line2d_59">
    <path d="M 1088.738011 118.238818 
L 1088.738011 106.186779 
" clip-path="url(#p3207cd1762)" style="fill: none; stroke: #ffffff; stroke-width: 2; stroke-linecap: square"/>
   </g>
   <g id="line2d_60">
    <path d="M 1082.711991 112.212799 
L 1094.764031 112.212799 
" clip-path="url(#p3207cd1762)" style="fill: none; stroke: #ffffff; stroke-width: 2; stroke-linecap: square"/>
   </g>
   <g id="line2d_61">
    <path d="M 1135.092011 535.424813 
L 1135.092011 523.372773 
" clip-path="url(#p3207cd1762)" style="fill: none; stroke: #ffffff; stroke-width: 2; stroke-linecap: square"/>
   </g>
   <g id="line2d_62">
    <path d="M 1129.065991 529.398793 
L 1141.11803 529.398793 
" clip-path="url(#p3207cd1762)" style="fill: none; stroke: #ffffff; stroke-width: 2; stroke-linecap: square"/>
   </g>
   <g id="text_24">
    <g clip-path="url(#p3207cd1762)">
     <!-- H -->
     <g transform="translate(1176.557807 254.861984)scale(0.13 -0.13)">
      <use xlink:href="#DejaVuSans-48"/>
     </g>
    </g>
   </g>
   <g id="text_25">
    <g clip-path="url(#p3207cd1762)">
     <!-- H -->
     <g transform="translate(1176.557807 162.153985)scale(0.13 -0.13)">
      <use xlink:href="#DejaVuSans-48"/>
     </g>
    </g>
   </g>
   <g id="text_26">
    <g clip-path="url(#p3207cd1762)">
     <!-- H -->
     <g transform="translate(1176.557807 532.98598)scale(0.13 -0.13)">
      <use xlink:href="#DejaVuSans-48"/>
     </g>
    </g>
   </g>
   <g id="line2d_63">
    <path d="M 1227.800009 303.654816 
L 1227.800009 291.602776 
" clip-path="url(#p3207cd1762)" style="fill: none; stroke: #ffffff; stroke-width: 2; stroke-linecap: square"/>
   </g>
   <g id="line2d_64">
    <path d="M 1221.773989 297.628796 
L 1233.826029 297.628796 
" clip-path="url(#p3207cd1762)" style="fill: none; stroke: #ffffff; stroke-width: 2; stroke-linecap: square"/>
   </g>
   <g id="text_27">
    <g clip-path="url(#p3207cd1762)">
     <!-- $\mathrm{S^\dagger}$ -->
     <g transform="translate(1219.350009 162.153985)scale(0.13 -0.13)">
      <defs>
       <path id="DejaVuSans-2020" d="M 1325 4666 
L 1875 4666 
L 1875 3353 
L 3022 3353 
L 3022 2875 
L 1875 2875 
L 1875 -616 
L 1325 -616 
L 1325 2875 
L 178 2875 
L 178 3353 
L 1325 3353 
L 1325 4666 
z
" transform="scale(0.015625)"/>
      </defs>
      <use xlink:href="#DejaVuSans-53" transform="translate(0 0.684375)"/>
      <use xlink:href="#DejaVuSans-2020" transform="translate(78.071289 38.965625)scale(0.7)"/>
     </g>
    </g>
   </g>
   <g id="line2d_65">
    <path d="M 1227.800009 396.362815 
L 1227.800009 384.310775 
" clip-path="url(#p3207cd1762)" style="fill: none; stroke: #ffffff; stroke-width: 2; stroke-linecap: square"/>
   </g>
   <g id="line2d_66">
    <path d="M 1221.773989 390.336795 
L 1233.826029 390.336795 
" clip-path="url(#p3207cd1762)" style="fill: none; stroke: #ffffff; stroke-width: 2; stroke-linecap: square"/>
   </g>
   <g id="line2d_67">
    <path d="M 1274.154009 303.654816 
L 1274.154009 291.602776 
" clip-path="url(#p3207cd1762)" style="fill: none; stroke: #ffffff; stroke-width: 2; stroke-linecap: square"/>
   </g>
   <g id="line2d_68">
    <path d="M 1268.127989 297.628796 
L 1280.180029 297.628796 
" clip-path="url(#p3207cd1762)" style="fill: none; stroke: #ffffff; stroke-width: 2; stroke-linecap: square"/>
   </g>
   <g id="text_28">
    <g clip-path="url(#p3207cd1762)">
     <!-- 0.00724 -->
     <g transform="translate(1257.612759 401.583325)scale(0.08 -0.08)">
      <use xlink:href="#DejaVuSans-30"/>
      <use xlink:href="#DejaVuSans-2e" x="63.623047"/>
      <use xlink:href="#DejaVuSans-30" x="95.410156"/>
      <use xlink:href="#DejaVuSans-30" x="159.033203"/>
      <use xlink:href="#DejaVuSans-37" x="222.65625"/>
      <use xlink:href="#DejaVuSans-32" x="286.279297"/>
      <use xlink:href="#DejaVuSans-34" x="349.902344"/>
     </g>
    </g>
   </g>
   <g id="text_29">
    <g clip-path="url(#p3207cd1762)">
     <!-- $\mathrm{R_Z}$ -->
     <g transform="translate(1266.224009 389.404467)scale(0.13 -0.13)">
      <use xlink:href="#DejaVuSans-52" transform="translate(0 0.09375)"/>
      <use xlink:href="#DejaVuSans-5a" transform="translate(70.439453 -16.3125)scale(0.7)"/>
     </g>
    </g>
   </g>
   <g id="text_30">
    <g clip-path="url(#p3207cd1762)">
     <!-- 0.00724 -->
     <g transform="translate(1303.966758 308.875326)scale(0.08 -0.08)">
      <use xlink:href="#DejaVuSans-30"/>
      <use xlink:href="#DejaVuSans-2e" x="63.623047"/>
      <use xlink:href="#DejaVuSans-30" x="95.410156"/>
      <use xlink:href="#DejaVuSans-30" x="159.033203"/>
      <use xlink:href="#DejaVuSans-37" x="222.65625"/>
      <use xlink:href="#DejaVuSans-32" x="286.279297"/>
      <use xlink:href="#DejaVuSans-34" x="349.902344"/>
     </g>
    </g>
   </g>
   <g id="text_31">
    <g clip-path="url(#p3207cd1762)">
     <!-- $\mathrm{R_Z}$ -->
     <g transform="translate(1312.578008 296.696469)scale(0.13 -0.13)">
      <use xlink:href="#DejaVuSans-52" transform="translate(0 0.09375)"/>
      <use xlink:href="#DejaVuSans-5a" transform="translate(70.439453 -16.3125)scale(0.7)"/>
     </g>
    </g>
   </g>
   <g id="line2d_69">
    <path d="M 1320.508008 396.362815 
L 1320.508008 384.310775 
" clip-path="url(#p3207cd1762)" style="fill: none; stroke: #ffffff; stroke-width: 2; stroke-linecap: square"/>
   </g>
   <g id="line2d_70">
    <path d="M 1314.481988 390.336795 
L 1326.534028 390.336795 
" clip-path="url(#p3207cd1762)" style="fill: none; stroke: #ffffff; stroke-width: 2; stroke-linecap: square"/>
   </g>
   <g id="line2d_71">
    <path d="M 1366.862007 303.654816 
L 1366.862007 291.602776 
" clip-path="url(#p3207cd1762)" style="fill: none; stroke: #ffffff; stroke-width: 2; stroke-linecap: square"/>
   </g>
   <g id="line2d_72">
    <path d="M 1360.835988 297.628796 
L 1372.888027 297.628796 
" clip-path="url(#p3207cd1762)" style="fill: none; stroke: #ffffff; stroke-width: 2; stroke-linecap: square"/>
   </g>
   <g id="text_32">
    <g clip-path="url(#p3207cd1762)">
     <!-- H -->
     <g transform="translate(1361.973804 532.98598)scale(0.13 -0.13)">
      <use xlink:href="#DejaVuSans-48"/>
     </g>
    </g>
   </g>
   <g id="line2d_73">
    <path d="M 1366.862007 396.362815 
L 1366.862007 384.310775 
" clip-path="url(#p3207cd1762)" style="fill: none; stroke: #ffffff; stroke-width: 2; stroke-linecap: square"/>
   </g>
   <g id="line2d_74">
    <path d="M 1360.835988 390.336795 
L 1372.888027 390.336795 
" clip-path="url(#p3207cd1762)" style="fill: none; stroke: #ffffff; stroke-width: 2; stroke-linecap: square"/>
   </g>
   <g id="line2d_75">
    <path d="M 1413.216007 303.654816 
L 1413.216007 291.602776 
" clip-path="url(#p3207cd1762)" style="fill: none; stroke: #ffffff; stroke-width: 2; stroke-linecap: square"/>
   </g>
   <g id="line2d_76">
    <path d="M 1407.189987 297.628796 
L 1419.242027 297.628796 
" clip-path="url(#p3207cd1762)" style="fill: none; stroke: #ffffff; stroke-width: 2; stroke-linecap: square"/>
   </g>
   <g id="text_33">
    <g clip-path="url(#p3207cd1762)">
     <!-- H -->
     <g transform="translate(1408.327804 486.631981)scale(0.13 -0.13)">
      <use xlink:href="#DejaVuSans-48"/>
     </g>
    </g>
   </g>
   <g id="text_34">
    <g clip-path="url(#p3207cd1762)">
     <!-- H -->
     <g transform="translate(1454.681803 254.861984)scale(0.13 -0.13)">
      <use xlink:href="#DejaVuSans-48"/>
     </g>
    </g>
   </g>
   <g id="text_35">
    <g clip-path="url(#p3207cd1762)">
     <!-- $\mathrm{S^\dagger}$ -->
     <g transform="translate(1497.474006 254.861984)scale(0.13 -0.13)">
      <use xlink:href="#DejaVuSans-53" transform="translate(0 0.684375)"/>
      <use xlink:href="#DejaVuSans-2020" transform="translate(78.071289 38.965625)scale(0.7)"/>
     </g>
    </g>
   </g>
  </g>
 </g>
 <defs>
  <clipPath id="p3207cd1762">
   <rect x="218.279665" y="75.129599" width="1318.23798" height="482.081594"/>
  </clipPath>
 </defs>
</svg>
