<?xml version="1.0" encoding="utf-8" standalone="no"?>
<!DOCTYPE svg PUBLIC "-//W3C//DTD SVG 1.1//EN"
  "http://www.w3.org/Graphics/SVG/1.1/DTD/svg11.dtd">
<svg xmlns:xlink="http://www.w3.org/1999/xlink" width="1711.997376pt" height="626.079992pt" viewBox="0 0 1711.997376 626.079992" xmlns="http://www.w3.org/2000/svg" version="1.1">
 <metadata>
  <rdf:RDF xmlns:dc="http://purl.org/dc/elements/1.1/" xmlns:cc="http://creativecommons.org/ns#" xmlns:rdf="http://www.w3.org/1999/02/22-rdf-syntax-ns#">
   <cc:Work>
    <dc:type rdf:resource="http://purl.org/dc/dcmitype/StillImage"/>
    <dc:date>2022-05-14T14:19:04.394098</dc:date>
    <dc:format>image/svg+xml</dc:format>
    <dc:creator>
     <cc:Agent>
      <dc:title>Matplotlib v3.5.1, https://matplotlib.org/</dc:title>
     </cc:Agent>
    </dc:creator>
   </cc:Work>
  </rdf:RDF>
 </metadata>
 <defs>
  <style type="text/css">*{stroke-linejoin: round; stroke-linecap: butt}</style>
 </defs>
 <g id="figure_1">
  <g id="patch_1">
   <path d="M 0 626.079992 
L 1711.997376 626.079992 
L 1711.997376 0 
L 0 0 
z
" style="fill: #ffffff"/>
  </g>
  <g id="axes_1">
   <g id="line2d_1">
    <path d="M 275.688862 112.212799 
L 1531.882245 112.212799 
" clip-path="url(#p182547425e)" style="fill: none; stroke: #000000; stroke-width: 2; stroke-linecap: square"/>
   </g>
   <g id="line2d_2">
    <path d="M 275.688862 158.566798 
L 1531.882245 158.566798 
" clip-path="url(#p182547425e)" style="fill: none; stroke: #000000; stroke-width: 2; stroke-linecap: square"/>
   </g>
   <g id="line2d_3">
    <path d="M 275.688862 204.920797 
L 1531.882245 204.920797 
" clip-path="url(#p182547425e)" style="fill: none; stroke: #000000; stroke-width: 2; stroke-linecap: square"/>
   </g>
   <g id="line2d_4">
    <path d="M 275.688862 251.274797 
L 1531.882245 251.274797 
" clip-path="url(#p182547425e)" style="fill: none; stroke: #000000; stroke-width: 2; stroke-linecap: square"/>
   </g>
   <g id="line2d_5">
    <path d="M 275.688862 297.628796 
L 1531.882245 297.628796 
" clip-path="url(#p182547425e)" style="fill: none; stroke: #000000; stroke-width: 2; stroke-linecap: square"/>
   </g>
   <g id="line2d_6">
    <path d="M 275.688862 343.982795 
L 1531.882245 343.982795 
" clip-path="url(#p182547425e)" style="fill: none; stroke: #000000; stroke-width: 2; stroke-linecap: square"/>
   </g>
   <g id="line2d_7">
    <path d="M 275.688862 390.336795 
L 1531.882245 390.336795 
" clip-path="url(#p182547425e)" style="fill: none; stroke: #000000; stroke-width: 2; stroke-linecap: square"/>
   </g>
   <g id="line2d_8">
    <path d="M 275.688862 436.690794 
L 1531.882245 436.690794 
" clip-path="url(#p182547425e)" style="fill: none; stroke: #000000; stroke-width: 2; stroke-linecap: square"/>
   </g>
   <g id="line2d_9">
    <path d="M 275.688862 483.044794 
L 1531.882245 483.044794 
" clip-path="url(#p182547425e)" style="fill: none; stroke: #000000; stroke-width: 2; stroke-linecap: square"/>
   </g>
   <g id="line2d_10">
    <path d="M 275.688862 529.398793 
L 1531.882245 529.398793 
" clip-path="url(#p182547425e)" style="fill: none; stroke: #000000; stroke-width: 2; stroke-linecap: square"/>
   </g>
   <g id="line2d_11">
    <path d="M 347.074021 204.920797 
L 347.074021 112.212799 
" clip-path="url(#p182547425e)" style="fill: none; stroke: #000000; stroke-width: 2; stroke-linecap: square"/>
   </g>
   <g id="line2d_12">
    <path d="M 393.42802 343.982795 
L 393.42802 112.212799 
" clip-path="url(#p182547425e)" style="fill: none; stroke: #000000; stroke-width: 2; stroke-linecap: square"/>
   </g>
   <g id="line2d_13">
    <path d="M 486.136019 343.982795 
L 486.136019 112.212799 
" clip-path="url(#p182547425e)" style="fill: none; stroke: #000000; stroke-width: 2; stroke-linecap: square"/>
   </g>
   <g id="line2d_14">
    <path d="M 532.490019 204.920797 
L 532.490019 112.212799 
" clip-path="url(#p182547425e)" style="fill: none; stroke: #000000; stroke-width: 2; stroke-linecap: square"/>
   </g>
   <g id="line2d_15">
    <path d="M 671.552017 529.398793 
L 671.552017 112.212799 
" clip-path="url(#p182547425e)" style="fill: none; stroke: #000000; stroke-width: 2; stroke-linecap: square"/>
   </g>
   <g id="line2d_16">
    <path d="M 810.614015 529.398793 
L 810.614015 112.212799 
" clip-path="url(#p182547425e)" style="fill: none; stroke: #000000; stroke-width: 2; stroke-linecap: square"/>
   </g>
   <g id="line2d_17">
    <path d="M 949.676013 204.920797 
L 949.676013 112.212799 
" clip-path="url(#p182547425e)" style="fill: none; stroke: #000000; stroke-width: 2; stroke-linecap: square"/>
   </g>
   <g id="line2d_18">
    <path d="M 996.030012 343.982795 
L 996.030012 112.212799 
" clip-path="url(#p182547425e)" style="fill: none; stroke: #000000; stroke-width: 2; stroke-linecap: square"/>
   </g>
   <g id="line2d_19">
    <path d="M 1088.738011 343.982795 
L 1088.738011 112.212799 
" clip-path="url(#p182547425e)" style="fill: none; stroke: #000000; stroke-width: 2; stroke-linecap: square"/>
   </g>
   <g id="line2d_20">
    <path d="M 1135.092011 204.920797 
L 1135.092011 112.212799 
" clip-path="url(#p182547425e)" style="fill: none; stroke: #000000; stroke-width: 2; stroke-linecap: square"/>
   </g>
   <g id="line2d_21">
    <path d="M 1274.154009 529.398793 
L 1274.154009 112.212799 
" clip-path="url(#p182547425e)" style="fill: none; stroke: #000000; stroke-width: 2; stroke-linecap: square"/>
   </g>
   <g id="line2d_22">
    <path d="M 1413.216007 529.398793 
L 1413.216007 112.212799 
" clip-path="url(#p182547425e)" style="fill: none; stroke: #000000; stroke-width: 2; stroke-linecap: square"/>
   </g>
   <g id="text_1">
    <!-- TERMS: 2, DEPTH:25 -->
    <g transform="translate(815.366155 69.129599)scale(0.12 -0.12)">
     <defs>
      <path id="DejaVuSans-54" d="M -19 4666 
L 3928 4666 
L 3928 4134 
L 2272 4134 
L 2272 0 
L 1638 0 
L 1638 4134 
L -19 4134 
L -19 4666 
z
" transform="scale(0.015625)"/>
      <path id="DejaVuSans-45" d="M 628 4666 
L 3578 4666 
L 3578 4134 
L 1259 4134 
L 1259 2753 
L 3481 2753 
L 3481 2222 
L 1259 2222 
L 1259 531 
L 3634 531 
L 3634 0 
L 628 0 
L 628 4666 
z
" transform="scale(0.015625)"/>
      <path id="DejaVuSans-52" d="M 2841 2188 
Q 3044 2119 3236 1894 
Q 3428 1669 3622 1275 
L 4263 0 
L 3584 0 
L 2988 1197 
Q 2756 1666 2539 1819 
Q 2322 1972 1947 1972 
L 1259 1972 
L 1259 0 
L 628 0 
L 628 4666 
L 2053 4666 
Q 2853 4666 3247 4331 
Q 3641 3997 3641 3322 
Q 3641 2881 3436 2590 
Q 3231 2300 2841 2188 
z
M 1259 4147 
L 1259 2491 
L 2053 2491 
Q 2509 2491 2742 2702 
Q 2975 2913 2975 3322 
Q 2975 3731 2742 3939 
Q 2509 4147 2053 4147 
L 1259 4147 
z
" transform="scale(0.015625)"/>
      <path id="DejaVuSans-4d" d="M 628 4666 
L 1569 4666 
L 2759 1491 
L 3956 4666 
L 4897 4666 
L 4897 0 
L 4281 0 
L 4281 4097 
L 3078 897 
L 2444 897 
L 1241 4097 
L 1241 0 
L 628 0 
L 628 4666 
z
" transform="scale(0.015625)"/>
      <path id="DejaVuSans-53" d="M 3425 4513 
L 3425 3897 
Q 3066 4069 2747 4153 
Q 2428 4238 2131 4238 
Q 1616 4238 1336 4038 
Q 1056 3838 1056 3469 
Q 1056 3159 1242 3001 
Q 1428 2844 1947 2747 
L 2328 2669 
Q 3034 2534 3370 2195 
Q 3706 1856 3706 1288 
Q 3706 609 3251 259 
Q 2797 -91 1919 -91 
Q 1588 -91 1214 -16 
Q 841 59 441 206 
L 441 856 
Q 825 641 1194 531 
Q 1563 422 1919 422 
Q 2459 422 2753 634 
Q 3047 847 3047 1241 
Q 3047 1584 2836 1778 
Q 2625 1972 2144 2069 
L 1759 2144 
Q 1053 2284 737 2584 
Q 422 2884 422 3419 
Q 422 4038 858 4394 
Q 1294 4750 2059 4750 
Q 2388 4750 2728 4690 
Q 3069 4631 3425 4513 
z
" transform="scale(0.015625)"/>
      <path id="DejaVuSans-3a" d="M 750 794 
L 1409 794 
L 1409 0 
L 750 0 
L 750 794 
z
M 750 3309 
L 1409 3309 
L 1409 2516 
L 750 2516 
L 750 3309 
z
" transform="scale(0.015625)"/>
      <path id="DejaVuSans-20" transform="scale(0.015625)"/>
      <path id="DejaVuSans-32" d="M 1228 531 
L 3431 531 
L 3431 0 
L 469 0 
L 469 531 
Q 828 903 1448 1529 
Q 2069 2156 2228 2338 
Q 2531 2678 2651 2914 
Q 2772 3150 2772 3378 
Q 2772 3750 2511 3984 
Q 2250 4219 1831 4219 
Q 1534 4219 1204 4116 
Q 875 4013 500 3803 
L 500 4441 
Q 881 4594 1212 4672 
Q 1544 4750 1819 4750 
Q 2544 4750 2975 4387 
Q 3406 4025 3406 3419 
Q 3406 3131 3298 2873 
Q 3191 2616 2906 2266 
Q 2828 2175 2409 1742 
Q 1991 1309 1228 531 
z
" transform="scale(0.015625)"/>
      <path id="DejaVuSans-2c" d="M 750 794 
L 1409 794 
L 1409 256 
L 897 -744 
L 494 -744 
L 750 256 
L 750 794 
z
" transform="scale(0.015625)"/>
      <path id="DejaVuSans-44" d="M 1259 4147 
L 1259 519 
L 2022 519 
Q 2988 519 3436 956 
Q 3884 1394 3884 2338 
Q 3884 3275 3436 3711 
Q 2988 4147 2022 4147 
L 1259 4147 
z
M 628 4666 
L 1925 4666 
Q 3281 4666 3915 4102 
Q 4550 3538 4550 2338 
Q 4550 1131 3912 565 
Q 3275 0 1925 0 
L 628 0 
L 628 4666 
z
" transform="scale(0.015625)"/>
      <path id="DejaVuSans-50" d="M 1259 4147 
L 1259 2394 
L 2053 2394 
Q 2494 2394 2734 2622 
Q 2975 2850 2975 3272 
Q 2975 3691 2734 3919 
Q 2494 4147 2053 4147 
L 1259 4147 
z
M 628 4666 
L 2053 4666 
Q 2838 4666 3239 4311 
Q 3641 3956 3641 3272 
Q 3641 2581 3239 2228 
Q 2838 1875 2053 1875 
L 1259 1875 
L 1259 0 
L 628 0 
L 628 4666 
z
" transform="scale(0.015625)"/>
      <path id="DejaVuSans-48" d="M 628 4666 
L 1259 4666 
L 1259 2753 
L 3553 2753 
L 3553 4666 
L 4184 4666 
L 4184 0 
L 3553 0 
L 3553 2222 
L 1259 2222 
L 1259 0 
L 628 0 
L 628 4666 
z
" transform="scale(0.015625)"/>
      <path id="DejaVuSans-35" d="M 691 4666 
L 3169 4666 
L 3169 4134 
L 1269 4134 
L 1269 2991 
Q 1406 3038 1543 3061 
Q 1681 3084 1819 3084 
Q 2600 3084 3056 2656 
Q 3513 2228 3513 1497 
Q 3513 744 3044 326 
Q 2575 -91 1722 -91 
Q 1428 -91 1123 -41 
Q 819 9 494 109 
L 494 744 
Q 775 591 1075 516 
Q 1375 441 1709 441 
Q 2250 441 2565 725 
Q 2881 1009 2881 1497 
Q 2881 1984 2565 2268 
Q 2250 2553 1709 2553 
Q 1456 2553 1204 2497 
Q 953 2441 691 2322 
L 691 4666 
z
" transform="scale(0.015625)"/>
     </defs>
     <use xlink:href="#DejaVuSans-54"/>
     <use xlink:href="#DejaVuSans-45" x="61.083984"/>
     <use xlink:href="#DejaVuSans-52" x="124.267578"/>
     <use xlink:href="#DejaVuSans-4d" x="193.75"/>
     <use xlink:href="#DejaVuSans-53" x="280.029297"/>
     <use xlink:href="#DejaVuSans-3a" x="343.505859"/>
     <use xlink:href="#DejaVuSans-20" x="377.197266"/>
     <use xlink:href="#DejaVuSans-32" x="408.984375"/>
     <use xlink:href="#DejaVuSans-2c" x="472.607422"/>
     <use xlink:href="#DejaVuSans-20" x="504.394531"/>
     <use xlink:href="#DejaVuSans-44" x="536.181641"/>
     <use xlink:href="#DejaVuSans-45" x="613.183594"/>
     <use xlink:href="#DejaVuSans-50" x="676.367188"/>
     <use xlink:href="#DejaVuSans-54" x="736.669922"/>
     <use xlink:href="#DejaVuSans-48" x="797.753906"/>
     <use xlink:href="#DejaVuSans-3a" x="872.949219"/>
     <use xlink:href="#DejaVuSans-32" x="906.640625"/>
     <use xlink:href="#DejaVuSans-35" x="970.263672"/>
    </g>
   </g>
   <g id="patch_2">
    <path d="M 285.654972 219.985847 
L 315.785071 219.985847 
L 315.785071 189.855747 
L 285.654972 189.855747 
z
" clip-path="url(#p182547425e)" style="fill: #ffffff; stroke: #000000; stroke-width: 1.5; stroke-linejoin: miter"/>
   </g>
   <g id="patch_3">
    <path d="M 285.654972 359.047845 
L 315.785071 359.047845 
L 315.785071 328.917746 
L 285.654972 328.917746 
z
" clip-path="url(#p182547425e)" style="fill: #ffffff; stroke: #000000; stroke-width: 1.5; stroke-linejoin: miter"/>
   </g>
   <g id="patch_4">
    <path d="M 347.074021 209.440312 
C 348.27261 209.440312 349.42227 208.964108 350.269801 208.116577 
C 351.117331 207.269046 351.593536 206.119387 351.593536 204.920797 
C 351.593536 203.722208 351.117331 202.572548 350.269801 201.725018 
C 349.42227 200.877487 348.27261 200.401282 347.074021 200.401282 
C 345.875432 200.401282 344.725772 200.877487 343.878241 201.725018 
C 343.030711 202.572548 342.554506 203.722208 342.554506 204.920797 
C 342.554506 206.119387 343.030711 207.269046 343.878241 208.116577 
C 344.725772 208.964108 345.875432 209.440312 347.074021 209.440312 
z
" clip-path="url(#p182547425e)" style="stroke: #000000; stroke-width: 1.5; stroke-linejoin: miter"/>
   </g>
   <g id="patch_5">
    <path d="M 347.074021 122.758333 
C 349.87073 122.758333 352.553269 121.647189 354.53084 119.669618 
C 356.508412 117.692046 357.619556 115.009507 357.619556 112.212799 
C 357.619556 109.41609 356.508412 106.733551 354.53084 104.755979 
C 352.553269 102.778408 349.87073 101.667264 347.074021 101.667264 
C 344.277312 101.667264 341.594773 102.778408 339.617202 104.755979 
C 337.63963 106.733551 336.528486 109.41609 336.528486 112.212799 
C 336.528486 115.009507 337.63963 117.692046 339.617202 119.669618 
C 341.594773 121.647189 344.277312 122.758333 347.074021 122.758333 
z
" clip-path="url(#p182547425e)" style="stroke: #000000; stroke-width: 2; stroke-linejoin: miter"/>
   </g>
   <g id="patch_6">
    <path d="M 393.42802 348.50231 
C 394.62661 348.50231 395.776269 348.026106 396.6238 347.178575 
C 397.471331 346.331044 397.947535 345.181385 397.947535 343.982795 
C 397.947535 342.784206 397.471331 341.634546 396.6238 340.787016 
C 395.776269 339.939485 394.62661 339.46328 393.42802 339.46328 
C 392.229431 339.46328 391.079771 339.939485 390.232241 340.787016 
C 389.38471 341.634546 388.908505 342.784206 388.908505 343.982795 
C 388.908505 345.181385 389.38471 346.331044 390.232241 347.178575 
C 391.079771 348.026106 392.229431 348.50231 393.42802 348.50231 
z
" clip-path="url(#p182547425e)" style="stroke: #000000; stroke-width: 1.5; stroke-linejoin: miter"/>
   </g>
   <g id="patch_7">
    <path d="M 393.42802 122.758333 
C 396.224729 122.758333 398.907268 121.647189 400.88484 119.669618 
C 402.862411 117.692046 403.973555 115.009507 403.973555 112.212799 
C 403.973555 109.41609 402.862411 106.733551 400.88484 104.755979 
C 398.907268 102.778408 396.224729 101.667264 393.42802 101.667264 
C 390.631312 101.667264 387.948773 102.778408 385.971201 104.755979 
C 383.99363 106.733551 382.882486 109.41609 382.882486 112.212799 
C 382.882486 115.009507 383.99363 117.692046 385.971201 119.669618 
C 387.948773 121.647189 390.631312 122.758333 393.42802 122.758333 
z
" clip-path="url(#p182547425e)" style="stroke: #000000; stroke-width: 2; stroke-linejoin: miter"/>
   </g>
   <g id="patch_8">
    <path d="M 424.71697 127.277848 
L 454.84707 127.277848 
L 454.84707 97.147749 
L 424.71697 97.147749 
z
" clip-path="url(#p182547425e)" style="fill: #ffffff; stroke: #000000; stroke-width: 1.5; stroke-linejoin: miter"/>
   </g>
   <g id="patch_9">
    <path d="M 486.136019 348.50231 
C 487.334609 348.50231 488.484268 348.026106 489.331799 347.178575 
C 490.179329 346.331044 490.655534 345.181385 490.655534 343.982795 
C 490.655534 342.784206 490.179329 341.634546 489.331799 340.787016 
C 488.484268 339.939485 487.334609 339.46328 486.136019 339.46328 
C 484.93743 339.46328 483.78777 339.939485 482.940239 340.787016 
C 482.092709 341.634546 481.616504 342.784206 481.616504 343.982795 
C 481.616504 345.181385 482.092709 346.331044 482.940239 347.178575 
C 483.78777 348.026106 484.93743 348.50231 486.136019 348.50231 
z
" clip-path="url(#p182547425e)" style="stroke: #000000; stroke-width: 1.5; stroke-linejoin: miter"/>
   </g>
   <g id="patch_10">
    <path d="M 486.136019 122.758333 
C 488.932728 122.758333 491.615267 121.647189 493.592838 119.669618 
C 495.57041 117.692046 496.681554 115.009507 496.681554 112.212799 
C 496.681554 109.41609 495.57041 106.733551 493.592838 104.755979 
C 491.615267 102.778408 488.932728 101.667264 486.136019 101.667264 
C 483.339311 101.667264 480.656772 102.778408 478.6792 104.755979 
C 476.701628 106.733551 475.590484 109.41609 475.590484 112.212799 
C 475.590484 115.009507 476.701628 117.692046 478.6792 119.669618 
C 480.656772 121.647189 483.339311 122.758333 486.136019 122.758333 
z
" clip-path="url(#p182547425e)" style="stroke: #000000; stroke-width: 2; stroke-linejoin: miter"/>
   </g>
   <g id="patch_11">
    <path d="M 532.490019 209.440312 
C 533.688608 209.440312 534.838268 208.964108 535.685798 208.116577 
C 536.533329 207.269046 537.009533 206.119387 537.009533 204.920797 
C 537.009533 203.722208 536.533329 202.572548 535.685798 201.725018 
C 534.838268 200.877487 533.688608 200.401282 532.490019 200.401282 
C 531.291429 200.401282 530.14177 200.877487 529.294239 201.725018 
C 528.446708 202.572548 527.970504 203.722208 527.970504 204.920797 
C 527.970504 206.119387 528.446708 207.269046 529.294239 208.116577 
C 530.14177 208.964108 531.291429 209.440312 532.490019 209.440312 
z
" clip-path="url(#p182547425e)" style="stroke: #000000; stroke-width: 1.5; stroke-linejoin: miter"/>
   </g>
   <g id="patch_12">
    <path d="M 532.490019 122.758333 
C 535.286727 122.758333 537.969266 121.647189 539.946838 119.669618 
C 541.924409 117.692046 543.035553 115.009507 543.035553 112.212799 
C 543.035553 109.41609 541.924409 106.733551 539.946838 104.755979 
C 537.969266 102.778408 535.286727 101.667264 532.490019 101.667264 
C 529.69331 101.667264 527.010771 102.778408 525.033199 104.755979 
C 523.055628 106.733551 521.944484 109.41609 521.944484 112.212799 
C 521.944484 115.009507 523.055628 117.692046 525.033199 119.669618 
C 527.010771 121.647189 529.69331 122.758333 532.490019 122.758333 
z
" clip-path="url(#p182547425e)" style="stroke: #000000; stroke-width: 2; stroke-linejoin: miter"/>
   </g>
   <g id="patch_13">
    <path d="M 563.778968 127.277848 
L 593.909068 127.277848 
L 593.909068 97.147749 
L 563.778968 97.147749 
z
" clip-path="url(#p182547425e)" style="fill: #ffffff; stroke: #000000; stroke-width: 1.5; stroke-linejoin: miter"/>
   </g>
   <g id="patch_14">
    <path d="M 610.132967 127.277848 
L 640.263067 127.277848 
L 640.263067 97.147749 
L 610.132967 97.147749 
z
" clip-path="url(#p182547425e)" style="fill: #ffffff; stroke: #000000; stroke-width: 1.5; stroke-linejoin: miter"/>
   </g>
   <g id="patch_15">
    <path d="M 671.552017 116.732313 
C 672.750606 116.732313 673.900266 116.256109 674.747796 115.408578 
C 675.595327 114.561047 676.071532 113.411388 676.071532 112.212799 
C 676.071532 111.014209 675.595327 109.86455 674.747796 109.017019 
C 673.900266 108.169488 672.750606 107.693284 671.552017 107.693284 
C 670.353427 107.693284 669.203768 108.169488 668.356237 109.017019 
C 667.508706 109.86455 667.032502 111.014209 667.032502 112.212799 
C 667.032502 113.411388 667.508706 114.561047 668.356237 115.408578 
C 669.203768 116.256109 670.353427 116.732313 671.552017 116.732313 
z
" clip-path="url(#p182547425e)" style="stroke: #000000; stroke-width: 1.5; stroke-linejoin: miter"/>
   </g>
   <g id="patch_16">
    <path d="M 671.552017 539.944328 
C 674.348725 539.944328 677.031264 538.833184 679.008836 536.855612 
C 680.986407 534.878041 682.097552 532.195502 682.097552 529.398793 
C 682.097552 526.602084 680.986407 523.919545 679.008836 521.941974 
C 677.031264 519.964402 674.348725 518.853258 671.552017 518.853258 
C 668.755308 518.853258 666.072769 519.964402 664.095197 521.941974 
C 662.117626 523.919545 661.006482 526.602084 661.006482 529.398793 
C 661.006482 532.195502 662.117626 534.878041 664.095197 536.855612 
C 666.072769 538.833184 668.755308 539.944328 671.552017 539.944328 
z
" clip-path="url(#p182547425e)" style="stroke: #000000; stroke-width: 2; stroke-linejoin: miter"/>
   </g>
   <g id="patch_17">
    <path d="M 719.688327 544.463843 
L 762.477704 544.463843 
L 762.477704 514.333743 
L 719.688327 514.333743 
z
" clip-path="url(#p182547425e)" style="fill: #ffffff; stroke: #000000; stroke-width: 1.5; stroke-linejoin: miter"/>
   </g>
   <g id="patch_18">
    <path d="M 810.614015 116.732313 
C 811.812604 116.732313 812.962264 116.256109 813.809794 115.408578 
C 814.657325 114.561047 815.13353 113.411388 815.13353 112.212799 
C 815.13353 111.014209 814.657325 109.86455 813.809794 109.017019 
C 812.962264 108.169488 811.812604 107.693284 810.614015 107.693284 
C 809.415425 107.693284 808.265766 108.169488 807.418235 109.017019 
C 806.570704 109.86455 806.0945 111.014209 806.0945 112.212799 
C 806.0945 113.411388 806.570704 114.561047 807.418235 115.408578 
C 808.265766 116.256109 809.415425 116.732313 810.614015 116.732313 
z
" clip-path="url(#p182547425e)" style="stroke: #000000; stroke-width: 1.5; stroke-linejoin: miter"/>
   </g>
   <g id="patch_19">
    <path d="M 810.614015 539.944328 
C 813.410723 539.944328 816.093262 538.833184 818.070834 536.855612 
C 820.048406 534.878041 821.15955 532.195502 821.15955 529.398793 
C 821.15955 526.602084 820.048406 523.919545 818.070834 521.941974 
C 816.093262 519.964402 813.410723 518.853258 810.614015 518.853258 
C 807.817306 518.853258 805.134767 519.964402 803.157196 521.941974 
C 801.179624 523.919545 800.06848 526.602084 800.06848 529.398793 
C 800.06848 532.195502 801.179624 534.878041 803.157196 536.855612 
C 805.134767 538.833184 807.817306 539.944328 810.614015 539.944328 
z
" clip-path="url(#p182547425e)" style="stroke: #000000; stroke-width: 2; stroke-linejoin: miter"/>
   </g>
   <g id="patch_20">
    <path d="M 841.902964 127.277848 
L 872.033064 127.277848 
L 872.033064 97.147749 
L 841.902964 97.147749 
z
" clip-path="url(#p182547425e)" style="fill: #ffffff; stroke: #000000; stroke-width: 1.5; stroke-linejoin: miter"/>
   </g>
   <g id="patch_21">
    <path d="M 888.256964 127.277848 
L 918.387063 127.277848 
L 918.387063 97.147749 
L 888.256964 97.147749 
z
" clip-path="url(#p182547425e)" style="fill: #ffffff; stroke: #000000; stroke-width: 1.5; stroke-linejoin: miter"/>
   </g>
   <g id="patch_22">
    <path d="M 949.676013 209.440312 
C 950.874602 209.440312 952.024262 208.964108 952.871793 208.116577 
C 953.719323 207.269046 954.195528 206.119387 954.195528 204.920797 
C 954.195528 203.722208 953.719323 202.572548 952.871793 201.725018 
C 952.024262 200.877487 950.874602 200.401282 949.676013 200.401282 
C 948.477424 200.401282 947.327764 200.877487 946.480233 201.725018 
C 945.632703 202.572548 945.156498 203.722208 945.156498 204.920797 
C 945.156498 206.119387 945.632703 207.269046 946.480233 208.116577 
C 947.327764 208.964108 948.477424 209.440312 949.676013 209.440312 
z
" clip-path="url(#p182547425e)" style="stroke: #000000; stroke-width: 1.5; stroke-linejoin: miter"/>
   </g>
   <g id="patch_23">
    <path d="M 949.676013 122.758333 
C 952.472722 122.758333 955.155261 121.647189 957.132832 119.669618 
C 959.110404 117.692046 960.221548 115.009507 960.221548 112.212799 
C 960.221548 109.41609 959.110404 106.733551 957.132832 104.755979 
C 955.155261 102.778408 952.472722 101.667264 949.676013 101.667264 
C 946.879304 101.667264 944.196765 102.778408 942.219194 104.755979 
C 940.241622 106.733551 939.130478 109.41609 939.130478 112.212799 
C 939.130478 115.009507 940.241622 117.692046 942.219194 119.669618 
C 944.196765 121.647189 946.879304 122.758333 949.676013 122.758333 
z
" clip-path="url(#p182547425e)" style="stroke: #000000; stroke-width: 2; stroke-linejoin: miter"/>
   </g>
   <g id="patch_24">
    <path d="M 996.030012 348.50231 
C 997.228602 348.50231 998.378261 348.026106 999.225792 347.178575 
C 1000.073323 346.331044 1000.549527 345.181385 1000.549527 343.982795 
C 1000.549527 342.784206 1000.073323 341.634546 999.225792 340.787016 
C 998.378261 339.939485 997.228602 339.46328 996.030012 339.46328 
C 994.831423 339.46328 993.681763 339.939485 992.834233 340.787016 
C 991.986702 341.634546 991.510497 342.784206 991.510497 343.982795 
C 991.510497 345.181385 991.986702 346.331044 992.834233 347.178575 
C 993.681763 348.026106 994.831423 348.50231 996.030012 348.50231 
z
" clip-path="url(#p182547425e)" style="stroke: #000000; stroke-width: 1.5; stroke-linejoin: miter"/>
   </g>
   <g id="patch_25">
    <path d="M 996.030012 122.758333 
C 998.826721 122.758333 1001.50926 121.647189 1003.486832 119.669618 
C 1005.464403 117.692046 1006.575547 115.009507 1006.575547 112.212799 
C 1006.575547 109.41609 1005.464403 106.733551 1003.486832 104.755979 
C 1001.50926 102.778408 998.826721 101.667264 996.030012 101.667264 
C 993.233304 101.667264 990.550765 102.778408 988.573193 104.755979 
C 986.595622 106.733551 985.484478 109.41609 985.484478 112.212799 
C 985.484478 115.009507 986.595622 117.692046 988.573193 119.669618 
C 990.550765 121.647189 993.233304 122.758333 996.030012 122.758333 
z
" clip-path="url(#p182547425e)" style="stroke: #000000; stroke-width: 2; stroke-linejoin: miter"/>
   </g>
   <g id="patch_26">
    <path d="M 1027.318962 127.277848 
L 1057.449062 127.277848 
L 1057.449062 97.147749 
L 1027.318962 97.147749 
z
" clip-path="url(#p182547425e)" style="fill: #ffffff; stroke: #000000; stroke-width: 1.5; stroke-linejoin: miter"/>
   </g>
   <g id="patch_27">
    <path d="M 1088.738011 348.50231 
C 1089.936601 348.50231 1091.08626 348.026106 1091.933791 347.178575 
C 1092.781321 346.331044 1093.257526 345.181385 1093.257526 343.982795 
C 1093.257526 342.784206 1092.781321 341.634546 1091.933791 340.787016 
C 1091.08626 339.939485 1089.936601 339.46328 1088.738011 339.46328 
C 1087.539422 339.46328 1086.389762 339.939485 1085.542231 340.787016 
C 1084.694701 341.634546 1084.218496 342.784206 1084.218496 343.982795 
C 1084.218496 345.181385 1084.694701 346.331044 1085.542231 347.178575 
C 1086.389762 348.026106 1087.539422 348.50231 1088.738011 348.50231 
z
" clip-path="url(#p182547425e)" style="stroke: #000000; stroke-width: 1.5; stroke-linejoin: miter"/>
   </g>
   <g id="patch_28">
    <path d="M 1088.738011 122.758333 
C 1091.53472 122.758333 1094.217259 121.647189 1096.19483 119.669618 
C 1098.172402 117.692046 1099.283546 115.009507 1099.283546 112.212799 
C 1099.283546 109.41609 1098.172402 106.733551 1096.19483 104.755979 
C 1094.217259 102.778408 1091.53472 101.667264 1088.738011 101.667264 
C 1085.941303 101.667264 1083.258763 102.778408 1081.281192 104.755979 
C 1079.30362 106.733551 1078.192476 109.41609 1078.192476 112.212799 
C 1078.192476 115.009507 1079.30362 117.692046 1081.281192 119.669618 
C 1083.258763 121.647189 1085.941303 122.758333 1088.738011 122.758333 
z
" clip-path="url(#p182547425e)" style="stroke: #000000; stroke-width: 2; stroke-linejoin: miter"/>
   </g>
   <g id="patch_29">
    <path d="M 1120.026961 359.047845 
L 1150.15706 359.047845 
L 1150.15706 328.917746 
L 1120.026961 328.917746 
z
" clip-path="url(#p182547425e)" style="fill: #ffffff; stroke: #000000; stroke-width: 1.5; stroke-linejoin: miter"/>
   </g>
   <g id="patch_30">
    <path d="M 1135.092011 209.440312 
C 1136.2906 209.440312 1137.44026 208.964108 1138.28779 208.116577 
C 1139.135321 207.269046 1139.611525 206.119387 1139.611525 204.920797 
C 1139.611525 203.722208 1139.135321 202.572548 1138.28779 201.725018 
C 1137.44026 200.877487 1136.2906 200.401282 1135.092011 200.401282 
C 1133.893421 200.401282 1132.743762 200.877487 1131.896231 201.725018 
C 1131.0487 202.572548 1130.572496 203.722208 1130.572496 204.920797 
C 1130.572496 206.119387 1131.0487 207.269046 1131.896231 208.116577 
C 1132.743762 208.964108 1133.893421 209.440312 1135.092011 209.440312 
z
" clip-path="url(#p182547425e)" style="stroke: #000000; stroke-width: 1.5; stroke-linejoin: miter"/>
   </g>
   <g id="patch_31">
    <path d="M 1135.092011 122.758333 
C 1137.888719 122.758333 1140.571258 121.647189 1142.54883 119.669618 
C 1144.526401 117.692046 1145.637545 115.009507 1145.637545 112.212799 
C 1145.637545 109.41609 1144.526401 106.733551 1142.54883 104.755979 
C 1140.571258 102.778408 1137.888719 101.667264 1135.092011 101.667264 
C 1132.295302 101.667264 1129.612763 102.778408 1127.635191 104.755979 
C 1125.65762 106.733551 1124.546476 109.41609 1124.546476 112.212799 
C 1124.546476 115.009507 1125.65762 117.692046 1127.635191 119.669618 
C 1129.612763 121.647189 1132.295302 122.758333 1135.092011 122.758333 
z
" clip-path="url(#p182547425e)" style="stroke: #000000; stroke-width: 2; stroke-linejoin: miter"/>
   </g>
   <g id="patch_32">
    <path d="M 1166.38096 219.985847 
L 1196.51106 219.985847 
L 1196.51106 189.855747 
L 1166.38096 189.855747 
z
" clip-path="url(#p182547425e)" style="fill: #ffffff; stroke: #000000; stroke-width: 1.5; stroke-linejoin: miter"/>
   </g>
   <g id="patch_33">
    <path d="M 1166.38096 127.277848 
L 1196.51106 127.277848 
L 1196.51106 97.147749 
L 1166.38096 97.147749 
z
" clip-path="url(#p182547425e)" style="fill: #ffffff; stroke: #000000; stroke-width: 1.5; stroke-linejoin: miter"/>
   </g>
   <g id="patch_34">
    <path d="M 1212.734959 127.277848 
L 1242.865059 127.277848 
L 1242.865059 97.147749 
L 1212.734959 97.147749 
z
" clip-path="url(#p182547425e)" style="fill: #ffffff; stroke: #000000; stroke-width: 1.5; stroke-linejoin: miter"/>
   </g>
   <g id="patch_35">
    <path d="M 1274.154009 116.732313 
C 1275.352598 116.732313 1276.502258 116.256109 1277.349788 115.408578 
C 1278.197319 114.561047 1278.673524 113.411388 1278.673524 112.212799 
C 1278.673524 111.014209 1278.197319 109.86455 1277.349788 109.017019 
C 1276.502258 108.169488 1275.352598 107.693284 1274.154009 107.693284 
C 1272.955419 107.693284 1271.80576 108.169488 1270.958229 109.017019 
C 1270.110698 109.86455 1269.634494 111.014209 1269.634494 112.212799 
C 1269.634494 113.411388 1270.110698 114.561047 1270.958229 115.408578 
C 1271.80576 116.256109 1272.955419 116.732313 1274.154009 116.732313 
z
" clip-path="url(#p182547425e)" style="stroke: #000000; stroke-width: 1.5; stroke-linejoin: miter"/>
   </g>
   <g id="patch_36">
    <path d="M 1274.154009 539.944328 
C 1276.950717 539.944328 1279.633256 538.833184 1281.610828 536.855612 
C 1283.588399 534.878041 1284.699544 532.195502 1284.699544 529.398793 
C 1284.699544 526.602084 1283.588399 523.919545 1281.610828 521.941974 
C 1279.633256 519.964402 1276.950717 518.853258 1274.154009 518.853258 
C 1271.3573 518.853258 1268.674761 519.964402 1266.697189 521.941974 
C 1264.719618 523.919545 1263.608474 526.602084 1263.608474 529.398793 
C 1263.608474 532.195502 1264.719618 534.878041 1266.697189 536.855612 
C 1268.674761 538.833184 1271.3573 539.944328 1274.154009 539.944328 
z
" clip-path="url(#p182547425e)" style="stroke: #000000; stroke-width: 2; stroke-linejoin: miter"/>
   </g>
   <g id="patch_37">
    <path d="M 1322.290319 544.463843 
L 1365.079696 544.463843 
L 1365.079696 514.333743 
L 1322.290319 514.333743 
z
" clip-path="url(#p182547425e)" style="fill: #ffffff; stroke: #000000; stroke-width: 1.5; stroke-linejoin: miter"/>
   </g>
   <g id="patch_38">
    <path d="M 1413.216007 116.732313 
C 1414.414596 116.732313 1415.564256 116.256109 1416.411786 115.408578 
C 1417.259317 114.561047 1417.735522 113.411388 1417.735522 112.212799 
C 1417.735522 111.014209 1417.259317 109.86455 1416.411786 109.017019 
C 1415.564256 108.169488 1414.414596 107.693284 1413.216007 107.693284 
C 1412.017417 107.693284 1410.867758 108.169488 1410.020227 109.017019 
C 1409.172696 109.86455 1408.696492 111.014209 1408.696492 112.212799 
C 1408.696492 113.411388 1409.172696 114.561047 1410.020227 115.408578 
C 1410.867758 116.256109 1412.017417 116.732313 1413.216007 116.732313 
z
" clip-path="url(#p182547425e)" style="stroke: #000000; stroke-width: 1.5; stroke-linejoin: miter"/>
   </g>
   <g id="patch_39">
    <path d="M 1413.216007 539.944328 
C 1416.012715 539.944328 1418.695254 538.833184 1420.672826 536.855612 
C 1422.650398 534.878041 1423.761542 532.195502 1423.761542 529.398793 
C 1423.761542 526.602084 1422.650398 523.919545 1420.672826 521.941974 
C 1418.695254 519.964402 1416.012715 518.853258 1413.216007 518.853258 
C 1410.419298 518.853258 1407.736759 519.964402 1405.759188 521.941974 
C 1403.781616 523.919545 1402.670472 526.602084 1402.670472 529.398793 
C 1402.670472 532.195502 1403.781616 534.878041 1405.759188 536.855612 
C 1407.736759 538.833184 1410.419298 539.944328 1413.216007 539.944328 
z
" clip-path="url(#p182547425e)" style="stroke: #000000; stroke-width: 2; stroke-linejoin: miter"/>
   </g>
   <g id="patch_40">
    <path d="M 1444.504956 127.277848 
L 1474.635056 127.277848 
L 1474.635056 97.147749 
L 1444.504956 97.147749 
z
" clip-path="url(#p182547425e)" style="fill: #ffffff; stroke: #000000; stroke-width: 1.5; stroke-linejoin: miter"/>
   </g>
   <g id="patch_41">
    <path d="M 1490.858956 127.277848 
L 1520.989055 127.277848 
L 1520.989055 97.147749 
L 1490.858956 97.147749 
z
" clip-path="url(#p182547425e)" style="fill: #ffffff; stroke: #000000; stroke-width: 1.5; stroke-linejoin: miter"/>
   </g>
   <g id="text_2">
    <g clip-path="url(#p182547425e)">
     <!-- ${q}_{0}$ -->
     <g transform="translate(248.380562 116.663775)scale(0.1625 -0.1625)">
      <defs>
       <path id="DejaVuSans-Oblique-71" d="M 2669 525 
Q 2438 222 2123 65 
Q 1809 -91 1428 -91 
Q 897 -91 595 267 
Q 294 625 294 1253 
Q 294 1759 480 2231 
Q 666 2703 1013 3078 
Q 1238 3322 1530 3453 
Q 1822 3584 2144 3584 
Q 2531 3584 2781 3431 
Q 3031 3278 3144 2969 
L 3244 3494 
L 3822 3494 
L 2888 -1319 
L 2309 -1319 
L 2669 525 
z
M 891 1338 
Q 891 875 1084 633 
Q 1278 391 1644 391 
Q 2188 391 2572 911 
Q 2956 1431 2956 2175 
Q 2956 2625 2757 2864 
Q 2559 3103 2188 3103 
Q 1916 3103 1684 2976 
Q 1453 2850 1281 2606 
Q 1100 2350 995 2006 
Q 891 1663 891 1338 
z
" transform="scale(0.015625)"/>
       <path id="DejaVuSans-30" d="M 2034 4250 
Q 1547 4250 1301 3770 
Q 1056 3291 1056 2328 
Q 1056 1369 1301 889 
Q 1547 409 2034 409 
Q 2525 409 2770 889 
Q 3016 1369 3016 2328 
Q 3016 3291 2770 3770 
Q 2525 4250 2034 4250 
z
M 2034 4750 
Q 2819 4750 3233 4129 
Q 3647 3509 3647 2328 
Q 3647 1150 3233 529 
Q 2819 -91 2034 -91 
Q 1250 -91 836 529 
Q 422 1150 422 2328 
Q 422 3509 836 4129 
Q 1250 4750 2034 4750 
z
" transform="scale(0.015625)"/>
      </defs>
      <use xlink:href="#DejaVuSans-Oblique-71"/>
      <use xlink:href="#DejaVuSans-30" transform="translate(63.476562 -16.40625)scale(0.7)"/>
     </g>
    </g>
   </g>
   <g id="text_3">
    <g clip-path="url(#p182547425e)">
     <!-- ${q}_{1}$ -->
     <g transform="translate(248.380562 163.017774)scale(0.1625 -0.1625)">
      <defs>
       <path id="DejaVuSans-31" d="M 794 531 
L 1825 531 
L 1825 4091 
L 703 3866 
L 703 4441 
L 1819 4666 
L 2450 4666 
L 2450 531 
L 3481 531 
L 3481 0 
L 794 0 
L 794 531 
z
" transform="scale(0.015625)"/>
      </defs>
      <use xlink:href="#DejaVuSans-Oblique-71"/>
      <use xlink:href="#DejaVuSans-31" transform="translate(63.476562 -16.40625)scale(0.7)"/>
     </g>
    </g>
   </g>
   <g id="text_4">
    <g clip-path="url(#p182547425e)">
     <!-- ${q}_{2}$ -->
     <g transform="translate(248.380562 209.371774)scale(0.1625 -0.1625)">
      <use xlink:href="#DejaVuSans-Oblique-71"/>
      <use xlink:href="#DejaVuSans-32" transform="translate(63.476562 -16.40625)scale(0.7)"/>
     </g>
    </g>
   </g>
   <g id="text_5">
    <g clip-path="url(#p182547425e)">
     <!-- ${q}_{3}$ -->
     <g transform="translate(248.380562 255.725773)scale(0.1625 -0.1625)">
      <defs>
       <path id="DejaVuSans-33" d="M 2597 2516 
Q 3050 2419 3304 2112 
Q 3559 1806 3559 1356 
Q 3559 666 3084 287 
Q 2609 -91 1734 -91 
Q 1441 -91 1130 -33 
Q 819 25 488 141 
L 488 750 
Q 750 597 1062 519 
Q 1375 441 1716 441 
Q 2309 441 2620 675 
Q 2931 909 2931 1356 
Q 2931 1769 2642 2001 
Q 2353 2234 1838 2234 
L 1294 2234 
L 1294 2753 
L 1863 2753 
Q 2328 2753 2575 2939 
Q 2822 3125 2822 3475 
Q 2822 3834 2567 4026 
Q 2313 4219 1838 4219 
Q 1578 4219 1281 4162 
Q 984 4106 628 3988 
L 628 4550 
Q 988 4650 1302 4700 
Q 1616 4750 1894 4750 
Q 2613 4750 3031 4423 
Q 3450 4097 3450 3541 
Q 3450 3153 3228 2886 
Q 3006 2619 2597 2516 
z
" transform="scale(0.015625)"/>
      </defs>
      <use xlink:href="#DejaVuSans-Oblique-71"/>
      <use xlink:href="#DejaVuSans-33" transform="translate(63.476562 -16.40625)scale(0.7)"/>
     </g>
    </g>
   </g>
   <g id="text_6">
    <g clip-path="url(#p182547425e)">
     <!-- ${q}_{4}$ -->
     <g transform="translate(248.380562 302.079773)scale(0.1625 -0.1625)">
      <defs>
       <path id="DejaVuSans-34" d="M 2419 4116 
L 825 1625 
L 2419 1625 
L 2419 4116 
z
M 2253 4666 
L 3047 4666 
L 3047 1625 
L 3713 1625 
L 3713 1100 
L 3047 1100 
L 3047 0 
L 2419 0 
L 2419 1100 
L 313 1100 
L 313 1709 
L 2253 4666 
z
" transform="scale(0.015625)"/>
      </defs>
      <use xlink:href="#DejaVuSans-Oblique-71"/>
      <use xlink:href="#DejaVuSans-34" transform="translate(63.476562 -16.40625)scale(0.7)"/>
     </g>
    </g>
   </g>
   <g id="text_7">
    <g clip-path="url(#p182547425e)">
     <!-- ${q}_{5}$ -->
     <g transform="translate(248.380562 348.433772)scale(0.1625 -0.1625)">
      <use xlink:href="#DejaVuSans-Oblique-71"/>
      <use xlink:href="#DejaVuSans-35" transform="translate(63.476562 -16.40625)scale(0.7)"/>
     </g>
    </g>
   </g>
   <g id="text_8">
    <g clip-path="url(#p182547425e)">
     <!-- ${q}_{6}$ -->
     <g transform="translate(248.380562 394.787771)scale(0.1625 -0.1625)">
      <defs>
       <path id="DejaVuSans-36" d="M 2113 2584 
Q 1688 2584 1439 2293 
Q 1191 2003 1191 1497 
Q 1191 994 1439 701 
Q 1688 409 2113 409 
Q 2538 409 2786 701 
Q 3034 994 3034 1497 
Q 3034 2003 2786 2293 
Q 2538 2584 2113 2584 
z
M 3366 4563 
L 3366 3988 
Q 3128 4100 2886 4159 
Q 2644 4219 2406 4219 
Q 1781 4219 1451 3797 
Q 1122 3375 1075 2522 
Q 1259 2794 1537 2939 
Q 1816 3084 2150 3084 
Q 2853 3084 3261 2657 
Q 3669 2231 3669 1497 
Q 3669 778 3244 343 
Q 2819 -91 2113 -91 
Q 1303 -91 875 529 
Q 447 1150 447 2328 
Q 447 3434 972 4092 
Q 1497 4750 2381 4750 
Q 2619 4750 2861 4703 
Q 3103 4656 3366 4563 
z
" transform="scale(0.015625)"/>
      </defs>
      <use xlink:href="#DejaVuSans-Oblique-71"/>
      <use xlink:href="#DejaVuSans-36" transform="translate(63.476562 -16.40625)scale(0.7)"/>
     </g>
    </g>
   </g>
   <g id="text_9">
    <g clip-path="url(#p182547425e)">
     <!-- ${q}_{7}$ -->
     <g transform="translate(248.380562 441.141771)scale(0.1625 -0.1625)">
      <defs>
       <path id="DejaVuSans-37" d="M 525 4666 
L 3525 4666 
L 3525 4397 
L 1831 0 
L 1172 0 
L 2766 4134 
L 525 4134 
L 525 4666 
z
" transform="scale(0.015625)"/>
      </defs>
      <use xlink:href="#DejaVuSans-Oblique-71"/>
      <use xlink:href="#DejaVuSans-37" transform="translate(63.476562 -16.40625)scale(0.7)"/>
     </g>
    </g>
   </g>
   <g id="text_10">
    <g clip-path="url(#p182547425e)">
     <!-- ${q}_{8}$ -->
     <g transform="translate(248.380562 487.49577)scale(0.1625 -0.1625)">
      <defs>
       <path id="DejaVuSans-38" d="M 2034 2216 
Q 1584 2216 1326 1975 
Q 1069 1734 1069 1313 
Q 1069 891 1326 650 
Q 1584 409 2034 409 
Q 2484 409 2743 651 
Q 3003 894 3003 1313 
Q 3003 1734 2745 1975 
Q 2488 2216 2034 2216 
z
M 1403 2484 
Q 997 2584 770 2862 
Q 544 3141 544 3541 
Q 544 4100 942 4425 
Q 1341 4750 2034 4750 
Q 2731 4750 3128 4425 
Q 3525 4100 3525 3541 
Q 3525 3141 3298 2862 
Q 3072 2584 2669 2484 
Q 3125 2378 3379 2068 
Q 3634 1759 3634 1313 
Q 3634 634 3220 271 
Q 2806 -91 2034 -91 
Q 1263 -91 848 271 
Q 434 634 434 1313 
Q 434 1759 690 2068 
Q 947 2378 1403 2484 
z
M 1172 3481 
Q 1172 3119 1398 2916 
Q 1625 2713 2034 2713 
Q 2441 2713 2670 2916 
Q 2900 3119 2900 3481 
Q 2900 3844 2670 4047 
Q 2441 4250 2034 4250 
Q 1625 4250 1398 4047 
Q 1172 3844 1172 3481 
z
" transform="scale(0.015625)"/>
      </defs>
      <use xlink:href="#DejaVuSans-Oblique-71"/>
      <use xlink:href="#DejaVuSans-38" transform="translate(63.476562 -16.40625)scale(0.7)"/>
     </g>
    </g>
   </g>
   <g id="text_11">
    <g clip-path="url(#p182547425e)">
     <!-- ${q}_{9}$ -->
     <g transform="translate(248.380562 533.84977)scale(0.1625 -0.1625)">
      <defs>
       <path id="DejaVuSans-39" d="M 703 97 
L 703 672 
Q 941 559 1184 500 
Q 1428 441 1663 441 
Q 2288 441 2617 861 
Q 2947 1281 2994 2138 
Q 2813 1869 2534 1725 
Q 2256 1581 1919 1581 
Q 1219 1581 811 2004 
Q 403 2428 403 3163 
Q 403 3881 828 4315 
Q 1253 4750 1959 4750 
Q 2769 4750 3195 4129 
Q 3622 3509 3622 2328 
Q 3622 1225 3098 567 
Q 2575 -91 1691 -91 
Q 1453 -91 1209 -44 
Q 966 3 703 97 
z
M 1959 2075 
Q 2384 2075 2632 2365 
Q 2881 2656 2881 3163 
Q 2881 3666 2632 3958 
Q 2384 4250 1959 4250 
Q 1534 4250 1286 3958 
Q 1038 3666 1038 3163 
Q 1038 2656 1286 2365 
Q 1534 2075 1959 2075 
z
" transform="scale(0.015625)"/>
      </defs>
      <use xlink:href="#DejaVuSans-Oblique-71"/>
      <use xlink:href="#DejaVuSans-39" transform="translate(63.476562 -16.40625)scale(0.7)"/>
     </g>
    </g>
   </g>
   <g id="text_12">
    <g clip-path="url(#p182547425e)">
     <!-- H -->
     <g transform="translate(295.831818 208.507985)scale(0.13 -0.13)">
      <use xlink:href="#DejaVuSans-48"/>
     </g>
    </g>
   </g>
   <g id="text_13">
    <g clip-path="url(#p182547425e)">
     <!-- H -->
     <g transform="translate(295.831818 347.569983)scale(0.13 -0.13)">
      <use xlink:href="#DejaVuSans-48"/>
     </g>
    </g>
   </g>
   <g id="line2d_23">
    <path d="M 347.074021 118.238818 
L 347.074021 106.186779 
" clip-path="url(#p182547425e)" style="fill: none; stroke: #ffffff; stroke-width: 2; stroke-linecap: square"/>
   </g>
   <g id="line2d_24">
    <path d="M 341.048001 112.212799 
L 353.100041 112.212799 
" clip-path="url(#p182547425e)" style="fill: none; stroke: #ffffff; stroke-width: 2; stroke-linecap: square"/>
   </g>
   <g id="line2d_25">
    <path d="M 393.42802 118.238818 
L 393.42802 106.186779 
" clip-path="url(#p182547425e)" style="fill: none; stroke: #ffffff; stroke-width: 2; stroke-linecap: square"/>
   </g>
   <g id="line2d_26">
    <path d="M 387.402 112.212799 
L 399.45404 112.212799 
" clip-path="url(#p182547425e)" style="fill: none; stroke: #ffffff; stroke-width: 2; stroke-linecap: square"/>
   </g>
   <g id="text_14">
    <g clip-path="url(#p182547425e)">
     <!-- 0.0628 -->
     <g transform="translate(425.78577 123.459328)scale(0.08 -0.08)">
      <defs>
       <path id="DejaVuSans-2e" d="M 684 794 
L 1344 794 
L 1344 0 
L 684 0 
L 684 794 
z
" transform="scale(0.015625)"/>
      </defs>
      <use xlink:href="#DejaVuSans-30"/>
      <use xlink:href="#DejaVuSans-2e" x="63.623047"/>
      <use xlink:href="#DejaVuSans-30" x="95.410156"/>
      <use xlink:href="#DejaVuSans-36" x="159.033203"/>
      <use xlink:href="#DejaVuSans-32" x="222.65625"/>
      <use xlink:href="#DejaVuSans-38" x="286.279297"/>
     </g>
    </g>
   </g>
   <g id="text_15">
    <g clip-path="url(#p182547425e)">
     <!-- $\mathrm{R_Z}$ -->
     <g transform="translate(431.85202 111.280471)scale(0.13 -0.13)">
      <defs>
       <path id="DejaVuSans-5a" d="M 359 4666 
L 4025 4666 
L 4025 4184 
L 1075 531 
L 4097 531 
L 4097 0 
L 288 0 
L 288 481 
L 3238 4134 
L 359 4134 
L 359 4666 
z
" transform="scale(0.015625)"/>
      </defs>
      <use xlink:href="#DejaVuSans-52" transform="translate(0 0.09375)"/>
      <use xlink:href="#DejaVuSans-5a" transform="translate(70.439453 -16.3125)scale(0.7)"/>
     </g>
    </g>
   </g>
   <g id="line2d_27">
    <path d="M 486.136019 118.238818 
L 486.136019 106.186779 
" clip-path="url(#p182547425e)" style="fill: none; stroke: #ffffff; stroke-width: 2; stroke-linecap: square"/>
   </g>
   <g id="line2d_28">
    <path d="M 480.109999 112.212799 
L 492.162039 112.212799 
" clip-path="url(#p182547425e)" style="fill: none; stroke: #ffffff; stroke-width: 2; stroke-linecap: square"/>
   </g>
   <g id="line2d_29">
    <path d="M 532.490019 118.238818 
L 532.490019 106.186779 
" clip-path="url(#p182547425e)" style="fill: none; stroke: #ffffff; stroke-width: 2; stroke-linecap: square"/>
   </g>
   <g id="line2d_30">
    <path d="M 526.463999 112.212799 
L 538.516038 112.212799 
" clip-path="url(#p182547425e)" style="fill: none; stroke: #ffffff; stroke-width: 2; stroke-linecap: square"/>
   </g>
   <g id="text_16">
    <g clip-path="url(#p182547425e)">
     <!-- S -->
     <g transform="translate(574.717534 115.799986)scale(0.13 -0.13)">
      <use xlink:href="#DejaVuSans-53"/>
     </g>
    </g>
   </g>
   <g id="text_17">
    <g clip-path="url(#p182547425e)">
     <!-- H -->
     <g transform="translate(620.309814 115.799986)scale(0.13 -0.13)">
      <use xlink:href="#DejaVuSans-48"/>
     </g>
    </g>
   </g>
   <g id="line2d_31">
    <path d="M 671.552017 535.424813 
L 671.552017 523.372773 
" clip-path="url(#p182547425e)" style="fill: none; stroke: #ffffff; stroke-width: 2; stroke-linecap: square"/>
   </g>
   <g id="line2d_32">
    <path d="M 665.525997 529.398793 
L 677.578037 529.398793 
" clip-path="url(#p182547425e)" style="fill: none; stroke: #ffffff; stroke-width: 2; stroke-linecap: square"/>
   </g>
   <g id="text_18">
    <g clip-path="url(#p182547425e)">
     <!-- $-$0.00492 -->
     <g transform="translate(721.243016 540.645323)scale(0.08 -0.08)">
      <defs>
       <path id="DejaVuSans-2212" d="M 678 2272 
L 4684 2272 
L 4684 1741 
L 678 1741 
L 678 2272 
z
" transform="scale(0.015625)"/>
      </defs>
      <use xlink:href="#DejaVuSans-2212" transform="translate(0 0.78125)"/>
      <use xlink:href="#DejaVuSans-30" transform="translate(83.789062 0.78125)"/>
      <use xlink:href="#DejaVuSans-2e" transform="translate(147.412109 0.78125)"/>
      <use xlink:href="#DejaVuSans-30" transform="translate(179.199219 0.78125)"/>
      <use xlink:href="#DejaVuSans-30" transform="translate(242.822266 0.78125)"/>
      <use xlink:href="#DejaVuSans-34" transform="translate(306.445312 0.78125)"/>
      <use xlink:href="#DejaVuSans-39" transform="translate(370.068359 0.78125)"/>
      <use xlink:href="#DejaVuSans-32" transform="translate(431.941406 0.78125)"/>
     </g>
    </g>
   </g>
   <g id="text_19">
    <g clip-path="url(#p182547425e)">
     <!-- $\mathrm{R_Z}$ -->
     <g transform="translate(733.153016 528.466466)scale(0.13 -0.13)">
      <use xlink:href="#DejaVuSans-52" transform="translate(0 0.09375)"/>
      <use xlink:href="#DejaVuSans-5a" transform="translate(70.439453 -16.3125)scale(0.7)"/>
     </g>
    </g>
   </g>
   <g id="line2d_33">
    <path d="M 810.614015 535.424813 
L 810.614015 523.372773 
" clip-path="url(#p182547425e)" style="fill: none; stroke: #ffffff; stroke-width: 2; stroke-linecap: square"/>
   </g>
   <g id="line2d_34">
    <path d="M 804.587995 529.398793 
L 816.640035 529.398793 
" clip-path="url(#p182547425e)" style="fill: none; stroke: #ffffff; stroke-width: 2; stroke-linecap: square"/>
   </g>
   <g id="text_20">
    <g clip-path="url(#p182547425e)">
     <!-- H -->
     <g transform="translate(852.079811 115.799986)scale(0.13 -0.13)">
      <use xlink:href="#DejaVuSans-48"/>
     </g>
    </g>
   </g>
   <g id="text_21">
    <g clip-path="url(#p182547425e)">
     <!-- $\mathrm{S^\dagger}$ -->
     <g transform="translate(894.872014 115.799986)scale(0.13 -0.13)">
      <defs>
       <path id="DejaVuSans-2020" d="M 1325 4666 
L 1875 4666 
L 1875 3353 
L 3022 3353 
L 3022 2875 
L 1875 2875 
L 1875 -616 
L 1325 -616 
L 1325 2875 
L 178 2875 
L 178 3353 
L 1325 3353 
L 1325 4666 
z
" transform="scale(0.015625)"/>
      </defs>
      <use xlink:href="#DejaVuSans-53" transform="translate(0 0.684375)"/>
      <use xlink:href="#DejaVuSans-2020" transform="translate(78.071289 38.965625)scale(0.7)"/>
     </g>
    </g>
   </g>
   <g id="line2d_35">
    <path d="M 949.676013 118.238818 
L 949.676013 106.186779 
" clip-path="url(#p182547425e)" style="fill: none; stroke: #ffffff; stroke-width: 2; stroke-linecap: square"/>
   </g>
   <g id="line2d_36">
    <path d="M 943.649993 112.212799 
L 955.702033 112.212799 
" clip-path="url(#p182547425e)" style="fill: none; stroke: #ffffff; stroke-width: 2; stroke-linecap: square"/>
   </g>
   <g id="line2d_37">
    <path d="M 996.030012 118.238818 
L 996.030012 106.186779 
" clip-path="url(#p182547425e)" style="fill: none; stroke: #ffffff; stroke-width: 2; stroke-linecap: square"/>
   </g>
   <g id="line2d_38">
    <path d="M 990.003992 112.212799 
L 1002.056032 112.212799 
" clip-path="url(#p182547425e)" style="fill: none; stroke: #ffffff; stroke-width: 2; stroke-linecap: square"/>
   </g>
   <g id="text_22">
    <g clip-path="url(#p182547425e)">
     <!-- 0.0628 -->
     <g transform="translate(1028.387762 123.459328)scale(0.08 -0.08)">
      <use xlink:href="#DejaVuSans-30"/>
      <use xlink:href="#DejaVuSans-2e" x="63.623047"/>
      <use xlink:href="#DejaVuSans-30" x="95.410156"/>
      <use xlink:href="#DejaVuSans-36" x="159.033203"/>
      <use xlink:href="#DejaVuSans-32" x="222.65625"/>
      <use xlink:href="#DejaVuSans-38" x="286.279297"/>
     </g>
    </g>
   </g>
   <g id="text_23">
    <g clip-path="url(#p182547425e)">
     <!-- $\mathrm{R_Z}$ -->
     <g transform="translate(1034.454012 111.280471)scale(0.13 -0.13)">
      <use xlink:href="#DejaVuSans-52" transform="translate(0 0.09375)"/>
      <use xlink:href="#DejaVuSans-5a" transform="translate(70.439453 -16.3125)scale(0.7)"/>
     </g>
    </g>
   </g>
   <g id="line2d_39">
    <path d="M 1088.738011 118.238818 
L 1088.738011 106.186779 
" clip-path="url(#p182547425e)" style="fill: none; stroke: #ffffff; stroke-width: 2; stroke-linecap: square"/>
   </g>
   <g id="line2d_40">
    <path d="M 1082.711991 112.212799 
L 1094.764031 112.212799 
" clip-path="url(#p182547425e)" style="fill: none; stroke: #ffffff; stroke-width: 2; stroke-linecap: square"/>
   </g>
   <g id="text_24">
    <g clip-path="url(#p182547425e)">
     <!-- H -->
     <g transform="translate(1130.203807 347.569983)scale(0.13 -0.13)">
      <use xlink:href="#DejaVuSans-48"/>
     </g>
    </g>
   </g>
   <g id="line2d_41">
    <path d="M 1135.092011 118.238818 
L 1135.092011 106.186779 
" clip-path="url(#p182547425e)" style="fill: none; stroke: #ffffff; stroke-width: 2; stroke-linecap: square"/>
   </g>
   <g id="line2d_42">
    <path d="M 1129.065991 112.212799 
L 1141.11803 112.212799 
" clip-path="url(#p182547425e)" style="fill: none; stroke: #ffffff; stroke-width: 2; stroke-linecap: square"/>
   </g>
   <g id="text_25">
    <g clip-path="url(#p182547425e)">
     <!-- H -->
     <g transform="translate(1176.557807 208.507985)scale(0.13 -0.13)">
      <use xlink:href="#DejaVuSans-48"/>
     </g>
    </g>
   </g>
   <g id="text_26">
    <g clip-path="url(#p182547425e)">
     <!-- S -->
     <g transform="translate(1177.319526 115.799986)scale(0.13 -0.13)">
      <use xlink:href="#DejaVuSans-53"/>
     </g>
    </g>
   </g>
   <g id="text_27">
    <g clip-path="url(#p182547425e)">
     <!-- H -->
     <g transform="translate(1222.911806 115.799986)scale(0.13 -0.13)">
      <use xlink:href="#DejaVuSans-48"/>
     </g>
    </g>
   </g>
   <g id="line2d_43">
    <path d="M 1274.154009 535.424813 
L 1274.154009 523.372773 
" clip-path="url(#p182547425e)" style="fill: none; stroke: #ffffff; stroke-width: 2; stroke-linecap: square"/>
   </g>
   <g id="line2d_44">
    <path d="M 1268.127989 529.398793 
L 1280.180029 529.398793 
" clip-path="url(#p182547425e)" style="fill: none; stroke: #ffffff; stroke-width: 2; stroke-linecap: square"/>
   </g>
   <g id="text_28">
    <g clip-path="url(#p182547425e)">
     <!-- $-$0.00492 -->
     <g transform="translate(1323.845008 540.645323)scale(0.08 -0.08)">
      <use xlink:href="#DejaVuSans-2212" transform="translate(0 0.78125)"/>
      <use xlink:href="#DejaVuSans-30" transform="translate(83.789062 0.78125)"/>
      <use xlink:href="#DejaVuSans-2e" transform="translate(147.412109 0.78125)"/>
      <use xlink:href="#DejaVuSans-30" transform="translate(179.199219 0.78125)"/>
      <use xlink:href="#DejaVuSans-30" transform="translate(242.822266 0.78125)"/>
      <use xlink:href="#DejaVuSans-34" transform="translate(306.445312 0.78125)"/>
      <use xlink:href="#DejaVuSans-39" transform="translate(370.068359 0.78125)"/>
      <use xlink:href="#DejaVuSans-32" transform="translate(431.941406 0.78125)"/>
     </g>
    </g>
   </g>
   <g id="text_29">
    <g clip-path="url(#p182547425e)">
     <!-- $\mathrm{R_Z}$ -->
     <g transform="translate(1335.755008 528.466466)scale(0.13 -0.13)">
      <use xlink:href="#DejaVuSans-52" transform="translate(0 0.09375)"/>
      <use xlink:href="#DejaVuSans-5a" transform="translate(70.439453 -16.3125)scale(0.7)"/>
     </g>
    </g>
   </g>
   <g id="line2d_45">
    <path d="M 1413.216007 535.424813 
L 1413.216007 523.372773 
" clip-path="url(#p182547425e)" style="fill: none; stroke: #ffffff; stroke-width: 2; stroke-linecap: square"/>
   </g>
   <g id="line2d_46">
    <path d="M 1407.189987 529.398793 
L 1419.242027 529.398793 
" clip-path="url(#p182547425e)" style="fill: none; stroke: #ffffff; stroke-width: 2; stroke-linecap: square"/>
   </g>
   <g id="text_30">
    <g clip-path="url(#p182547425e)">
     <!-- H -->
     <g transform="translate(1454.681803 115.799986)scale(0.13 -0.13)">
      <use xlink:href="#DejaVuSans-48"/>
     </g>
    </g>
   </g>
   <g id="text_31">
    <g clip-path="url(#p182547425e)">
     <!-- $\mathrm{S^\dagger}$ -->
     <g transform="translate(1497.474006 115.799986)scale(0.13 -0.13)">
      <use xlink:href="#DejaVuSans-53" transform="translate(0 0.684375)"/>
      <use xlink:href="#DejaVuSans-2020" transform="translate(78.071289 38.965625)scale(0.7)"/>
     </g>
    </g>
   </g>
  </g>
 </g>
 <defs>
  <clipPath id="p182547425e">
   <rect x="218.279665" y="75.129599" width="1318.23798" height="482.081594"/>
  </clipPath>
 </defs>
</svg>
