<?xml version="1.0" encoding="utf-8" standalone="no"?>
<!DOCTYPE svg PUBLIC "-//W3C//DTD SVG 1.1//EN"
  "http://www.w3.org/Graphics/SVG/1.1/DTD/svg11.dtd">
<svg xmlns:xlink="http://www.w3.org/1999/xlink" width="1711.997376pt" height="626.079992pt" viewBox="0 0 1711.997376 626.079992" xmlns="http://www.w3.org/2000/svg" version="1.1">
 <metadata>
  <rdf:RDF xmlns:dc="http://purl.org/dc/elements/1.1/" xmlns:cc="http://creativecommons.org/ns#" xmlns:rdf="http://www.w3.org/1999/02/22-rdf-syntax-ns#">
   <cc:Work>
    <dc:type rdf:resource="http://purl.org/dc/dcmitype/StillImage"/>
    <dc:date>2022-05-22T13:40:58.603599</dc:date>
    <dc:format>image/svg+xml</dc:format>
    <dc:creator>
     <cc:Agent>
      <dc:title>Matplotlib v3.5.1, https://matplotlib.org/</dc:title>
     </cc:Agent>
    </dc:creator>
   </cc:Work>
  </rdf:RDF>
 </metadata>
 <defs>
  <style type="text/css">*{stroke-linejoin: round; stroke-linecap: butt}</style>
 </defs>
 <g id="figure_1">
  <g id="patch_1">
   <path d="M 0 626.079992 
L 1711.997376 626.079992 
L 1711.997376 0 
L 0 0 
z
" style="fill: #ffffff"/>
  </g>
  <g id="axes_1">
   <g id="line2d_1">
    <path d="M 275.688862 112.212799 
L 1531.882245 112.212799 
" clip-path="url(#p89474701d9)" style="fill: none; stroke: #000000; stroke-width: 2; stroke-linecap: square"/>
   </g>
   <g id="line2d_2">
    <path d="M 275.688862 158.566798 
L 1531.882245 158.566798 
" clip-path="url(#p89474701d9)" style="fill: none; stroke: #000000; stroke-width: 2; stroke-linecap: square"/>
   </g>
   <g id="line2d_3">
    <path d="M 275.688862 204.920797 
L 1531.882245 204.920797 
" clip-path="url(#p89474701d9)" style="fill: none; stroke: #000000; stroke-width: 2; stroke-linecap: square"/>
   </g>
   <g id="line2d_4">
    <path d="M 275.688862 251.274797 
L 1531.882245 251.274797 
" clip-path="url(#p89474701d9)" style="fill: none; stroke: #000000; stroke-width: 2; stroke-linecap: square"/>
   </g>
   <g id="line2d_5">
    <path d="M 275.688862 297.628796 
L 1531.882245 297.628796 
" clip-path="url(#p89474701d9)" style="fill: none; stroke: #000000; stroke-width: 2; stroke-linecap: square"/>
   </g>
   <g id="line2d_6">
    <path d="M 275.688862 343.982795 
L 1531.882245 343.982795 
" clip-path="url(#p89474701d9)" style="fill: none; stroke: #000000; stroke-width: 2; stroke-linecap: square"/>
   </g>
   <g id="line2d_7">
    <path d="M 275.688862 390.336795 
L 1531.882245 390.336795 
" clip-path="url(#p89474701d9)" style="fill: none; stroke: #000000; stroke-width: 2; stroke-linecap: square"/>
   </g>
   <g id="line2d_8">
    <path d="M 275.688862 436.690794 
L 1531.882245 436.690794 
" clip-path="url(#p89474701d9)" style="fill: none; stroke: #000000; stroke-width: 2; stroke-linecap: square"/>
   </g>
   <g id="line2d_9">
    <path d="M 275.688862 483.044794 
L 1531.882245 483.044794 
" clip-path="url(#p89474701d9)" style="fill: none; stroke: #000000; stroke-width: 2; stroke-linecap: square"/>
   </g>
   <g id="line2d_10">
    <path d="M 275.688862 529.398793 
L 1531.882245 529.398793 
" clip-path="url(#p89474701d9)" style="fill: none; stroke: #000000; stroke-width: 2; stroke-linecap: square"/>
   </g>
   <g id="line2d_11">
    <path d="M 300.720022 390.336795 
L 300.720022 343.982795 
" clip-path="url(#p89474701d9)" style="fill: none; stroke: #000000; stroke-width: 2; stroke-linecap: square"/>
   </g>
   <g id="line2d_12">
    <path d="M 393.42802 436.690794 
L 393.42802 112.212799 
" clip-path="url(#p89474701d9)" style="fill: none; stroke: #000000; stroke-width: 2; stroke-linecap: square"/>
   </g>
   <g id="line2d_13">
    <path d="M 393.42802 529.398793 
L 393.42802 483.044794 
" clip-path="url(#p89474701d9)" style="fill: none; stroke: #000000; stroke-width: 2; stroke-linecap: square"/>
   </g>
   <g id="line2d_14">
    <path d="M 439.78202 390.336795 
L 439.78202 343.982795 
" clip-path="url(#p89474701d9)" style="fill: none; stroke: #000000; stroke-width: 2; stroke-linecap: square"/>
   </g>
   <g id="line2d_15">
    <path d="M 486.136019 436.690794 
L 486.136019 158.566798 
" clip-path="url(#p89474701d9)" style="fill: none; stroke: #000000; stroke-width: 2; stroke-linecap: square"/>
   </g>
   <g id="line2d_16">
    <path d="M 532.490019 436.690794 
L 532.490019 204.920797 
" clip-path="url(#p89474701d9)" style="fill: none; stroke: #000000; stroke-width: 2; stroke-linecap: square"/>
   </g>
   <g id="line2d_17">
    <path d="M 578.844018 436.690794 
L 578.844018 251.274797 
" clip-path="url(#p89474701d9)" style="fill: none; stroke: #000000; stroke-width: 2; stroke-linecap: square"/>
   </g>
   <g id="line2d_18">
    <path d="M 625.198017 436.690794 
L 625.198017 297.628796 
" clip-path="url(#p89474701d9)" style="fill: none; stroke: #000000; stroke-width: 2; stroke-linecap: square"/>
   </g>
   <g id="line2d_19">
    <path d="M 717.906016 436.690794 
L 717.906016 297.628796 
" clip-path="url(#p89474701d9)" style="fill: none; stroke: #000000; stroke-width: 2; stroke-linecap: square"/>
   </g>
   <g id="line2d_20">
    <path d="M 810.614015 436.690794 
L 810.614015 251.274797 
" clip-path="url(#p89474701d9)" style="fill: none; stroke: #000000; stroke-width: 2; stroke-linecap: square"/>
   </g>
   <g id="line2d_21">
    <path d="M 903.322014 436.690794 
L 903.322014 204.920797 
" clip-path="url(#p89474701d9)" style="fill: none; stroke: #000000; stroke-width: 2; stroke-linecap: square"/>
   </g>
   <g id="line2d_22">
    <path d="M 949.676013 436.690794 
L 949.676013 158.566798 
" clip-path="url(#p89474701d9)" style="fill: none; stroke: #000000; stroke-width: 2; stroke-linecap: square"/>
   </g>
   <g id="line2d_23">
    <path d="M 996.030012 436.690794 
L 996.030012 112.212799 
" clip-path="url(#p89474701d9)" style="fill: none; stroke: #000000; stroke-width: 2; stroke-linecap: square"/>
   </g>
   <g id="line2d_24">
    <path d="M 1042.384012 529.398793 
L 1042.384012 158.566798 
" clip-path="url(#p89474701d9)" style="fill: none; stroke: #000000; stroke-width: 2; stroke-linecap: square"/>
   </g>
   <g id="line2d_25">
    <path d="M 1088.738011 436.690794 
L 1088.738011 204.920797 
" clip-path="url(#p89474701d9)" style="fill: none; stroke: #000000; stroke-width: 2; stroke-linecap: square"/>
   </g>
   <g id="line2d_26">
    <path d="M 1135.092011 529.398793 
L 1135.092011 158.566798 
" clip-path="url(#p89474701d9)" style="fill: none; stroke: #000000; stroke-width: 2; stroke-linecap: square"/>
   </g>
   <g id="line2d_27">
    <path d="M 1181.44601 529.398793 
L 1181.44601 483.044794 
" clip-path="url(#p89474701d9)" style="fill: none; stroke: #000000; stroke-width: 2; stroke-linecap: square"/>
   </g>
   <g id="line2d_28">
    <path d="M 1227.800009 436.690794 
L 1227.800009 204.920797 
" clip-path="url(#p89474701d9)" style="fill: none; stroke: #000000; stroke-width: 2; stroke-linecap: square"/>
   </g>
   <g id="line2d_29">
    <path d="M 1274.154009 251.274797 
L 1274.154009 112.212799 
" clip-path="url(#p89474701d9)" style="fill: none; stroke: #000000; stroke-width: 2; stroke-linecap: square"/>
   </g>
   <g id="line2d_30">
    <path d="M 1366.862007 251.274797 
L 1366.862007 112.212799 
" clip-path="url(#p89474701d9)" style="fill: none; stroke: #000000; stroke-width: 2; stroke-linecap: square"/>
   </g>
   <g id="line2d_31">
    <path d="M 1413.216007 436.690794 
L 1413.216007 112.212799 
" clip-path="url(#p89474701d9)" style="fill: none; stroke: #000000; stroke-width: 2; stroke-linecap: square"/>
   </g>
   <g id="line2d_32">
    <path d="M 1505.924006 436.690794 
L 1505.924006 112.212799 
" clip-path="url(#p89474701d9)" style="fill: none; stroke: #000000; stroke-width: 2; stroke-linecap: square"/>
   </g>
   <g id="text_1">
    <!-- TERMS: 8, DEPTH:21 -->
    <g transform="translate(815.366155 69.129599)scale(0.12 -0.12)">
     <defs>
      <path id="DejaVuSans-54" d="M -19 4666 
L 3928 4666 
L 3928 4134 
L 2272 4134 
L 2272 0 
L 1638 0 
L 1638 4134 
L -19 4134 
L -19 4666 
z
" transform="scale(0.015625)"/>
      <path id="DejaVuSans-45" d="M 628 4666 
L 3578 4666 
L 3578 4134 
L 1259 4134 
L 1259 2753 
L 3481 2753 
L 3481 2222 
L 1259 2222 
L 1259 531 
L 3634 531 
L 3634 0 
L 628 0 
L 628 4666 
z
" transform="scale(0.015625)"/>
      <path id="DejaVuSans-52" d="M 2841 2188 
Q 3044 2119 3236 1894 
Q 3428 1669 3622 1275 
L 4263 0 
L 3584 0 
L 2988 1197 
Q 2756 1666 2539 1819 
Q 2322 1972 1947 1972 
L 1259 1972 
L 1259 0 
L 628 0 
L 628 4666 
L 2053 4666 
Q 2853 4666 3247 4331 
Q 3641 3997 3641 3322 
Q 3641 2881 3436 2590 
Q 3231 2300 2841 2188 
z
M 1259 4147 
L 1259 2491 
L 2053 2491 
Q 2509 2491 2742 2702 
Q 2975 2913 2975 3322 
Q 2975 3731 2742 3939 
Q 2509 4147 2053 4147 
L 1259 4147 
z
" transform="scale(0.015625)"/>
      <path id="DejaVuSans-4d" d="M 628 4666 
L 1569 4666 
L 2759 1491 
L 3956 4666 
L 4897 4666 
L 4897 0 
L 4281 0 
L 4281 4097 
L 3078 897 
L 2444 897 
L 1241 4097 
L 1241 0 
L 628 0 
L 628 4666 
z
" transform="scale(0.015625)"/>
      <path id="DejaVuSans-53" d="M 3425 4513 
L 3425 3897 
Q 3066 4069 2747 4153 
Q 2428 4238 2131 4238 
Q 1616 4238 1336 4038 
Q 1056 3838 1056 3469 
Q 1056 3159 1242 3001 
Q 1428 2844 1947 2747 
L 2328 2669 
Q 3034 2534 3370 2195 
Q 3706 1856 3706 1288 
Q 3706 609 3251 259 
Q 2797 -91 1919 -91 
Q 1588 -91 1214 -16 
Q 841 59 441 206 
L 441 856 
Q 825 641 1194 531 
Q 1563 422 1919 422 
Q 2459 422 2753 634 
Q 3047 847 3047 1241 
Q 3047 1584 2836 1778 
Q 2625 1972 2144 2069 
L 1759 2144 
Q 1053 2284 737 2584 
Q 422 2884 422 3419 
Q 422 4038 858 4394 
Q 1294 4750 2059 4750 
Q 2388 4750 2728 4690 
Q 3069 4631 3425 4513 
z
" transform="scale(0.015625)"/>
      <path id="DejaVuSans-3a" d="M 750 794 
L 1409 794 
L 1409 0 
L 750 0 
L 750 794 
z
M 750 3309 
L 1409 3309 
L 1409 2516 
L 750 2516 
L 750 3309 
z
" transform="scale(0.015625)"/>
      <path id="DejaVuSans-20" transform="scale(0.015625)"/>
      <path id="DejaVuSans-38" d="M 2034 2216 
Q 1584 2216 1326 1975 
Q 1069 1734 1069 1313 
Q 1069 891 1326 650 
Q 1584 409 2034 409 
Q 2484 409 2743 651 
Q 3003 894 3003 1313 
Q 3003 1734 2745 1975 
Q 2488 2216 2034 2216 
z
M 1403 2484 
Q 997 2584 770 2862 
Q 544 3141 544 3541 
Q 544 4100 942 4425 
Q 1341 4750 2034 4750 
Q 2731 4750 3128 4425 
Q 3525 4100 3525 3541 
Q 3525 3141 3298 2862 
Q 3072 2584 2669 2484 
Q 3125 2378 3379 2068 
Q 3634 1759 3634 1313 
Q 3634 634 3220 271 
Q 2806 -91 2034 -91 
Q 1263 -91 848 271 
Q 434 634 434 1313 
Q 434 1759 690 2068 
Q 947 2378 1403 2484 
z
M 1172 3481 
Q 1172 3119 1398 2916 
Q 1625 2713 2034 2713 
Q 2441 2713 2670 2916 
Q 2900 3119 2900 3481 
Q 2900 3844 2670 4047 
Q 2441 4250 2034 4250 
Q 1625 4250 1398 4047 
Q 1172 3844 1172 3481 
z
" transform="scale(0.015625)"/>
      <path id="DejaVuSans-2c" d="M 750 794 
L 1409 794 
L 1409 256 
L 897 -744 
L 494 -744 
L 750 256 
L 750 794 
z
" transform="scale(0.015625)"/>
      <path id="DejaVuSans-44" d="M 1259 4147 
L 1259 519 
L 2022 519 
Q 2988 519 3436 956 
Q 3884 1394 3884 2338 
Q 3884 3275 3436 3711 
Q 2988 4147 2022 4147 
L 1259 4147 
z
M 628 4666 
L 1925 4666 
Q 3281 4666 3915 4102 
Q 4550 3538 4550 2338 
Q 4550 1131 3912 565 
Q 3275 0 1925 0 
L 628 0 
L 628 4666 
z
" transform="scale(0.015625)"/>
      <path id="DejaVuSans-50" d="M 1259 4147 
L 1259 2394 
L 2053 2394 
Q 2494 2394 2734 2622 
Q 2975 2850 2975 3272 
Q 2975 3691 2734 3919 
Q 2494 4147 2053 4147 
L 1259 4147 
z
M 628 4666 
L 2053 4666 
Q 2838 4666 3239 4311 
Q 3641 3956 3641 3272 
Q 3641 2581 3239 2228 
Q 2838 1875 2053 1875 
L 1259 1875 
L 1259 0 
L 628 0 
L 628 4666 
z
" transform="scale(0.015625)"/>
      <path id="DejaVuSans-48" d="M 628 4666 
L 1259 4666 
L 1259 2753 
L 3553 2753 
L 3553 4666 
L 4184 4666 
L 4184 0 
L 3553 0 
L 3553 2222 
L 1259 2222 
L 1259 0 
L 628 0 
L 628 4666 
z
" transform="scale(0.015625)"/>
      <path id="DejaVuSans-32" d="M 1228 531 
L 3431 531 
L 3431 0 
L 469 0 
L 469 531 
Q 828 903 1448 1529 
Q 2069 2156 2228 2338 
Q 2531 2678 2651 2914 
Q 2772 3150 2772 3378 
Q 2772 3750 2511 3984 
Q 2250 4219 1831 4219 
Q 1534 4219 1204 4116 
Q 875 4013 500 3803 
L 500 4441 
Q 881 4594 1212 4672 
Q 1544 4750 1819 4750 
Q 2544 4750 2975 4387 
Q 3406 4025 3406 3419 
Q 3406 3131 3298 2873 
Q 3191 2616 2906 2266 
Q 2828 2175 2409 1742 
Q 1991 1309 1228 531 
z
" transform="scale(0.015625)"/>
      <path id="DejaVuSans-31" d="M 794 531 
L 1825 531 
L 1825 4091 
L 703 3866 
L 703 4441 
L 1819 4666 
L 2450 4666 
L 2450 531 
L 3481 531 
L 3481 0 
L 794 0 
L 794 531 
z
" transform="scale(0.015625)"/>
     </defs>
     <use xlink:href="#DejaVuSans-54"/>
     <use xlink:href="#DejaVuSans-45" x="61.083984"/>
     <use xlink:href="#DejaVuSans-52" x="124.267578"/>
     <use xlink:href="#DejaVuSans-4d" x="193.75"/>
     <use xlink:href="#DejaVuSans-53" x="280.029297"/>
     <use xlink:href="#DejaVuSans-3a" x="343.505859"/>
     <use xlink:href="#DejaVuSans-20" x="377.197266"/>
     <use xlink:href="#DejaVuSans-38" x="408.984375"/>
     <use xlink:href="#DejaVuSans-2c" x="472.607422"/>
     <use xlink:href="#DejaVuSans-20" x="504.394531"/>
     <use xlink:href="#DejaVuSans-44" x="536.181641"/>
     <use xlink:href="#DejaVuSans-45" x="613.183594"/>
     <use xlink:href="#DejaVuSans-50" x="676.367188"/>
     <use xlink:href="#DejaVuSans-54" x="736.669922"/>
     <use xlink:href="#DejaVuSans-48" x="797.753906"/>
     <use xlink:href="#DejaVuSans-3a" x="872.949219"/>
     <use xlink:href="#DejaVuSans-32" x="906.640625"/>
     <use xlink:href="#DejaVuSans-31" x="970.263672"/>
    </g>
   </g>
   <g id="patch_2">
    <path d="M 285.654972 127.277848 
L 315.785071 127.277848 
L 315.785071 97.147749 
L 285.654972 97.147749 
z
" clip-path="url(#p89474701d9)" style="fill: #ffffff; stroke: #000000; stroke-width: 1.5; stroke-linejoin: miter"/>
   </g>
   <g id="patch_3">
    <path d="M 285.654972 312.693846 
L 315.785071 312.693846 
L 315.785071 282.563746 
L 285.654972 282.563746 
z
" clip-path="url(#p89474701d9)" style="fill: #ffffff; stroke: #000000; stroke-width: 1.5; stroke-linejoin: miter"/>
   </g>
   <g id="patch_4">
    <path d="M 285.654972 498.109843 
L 315.785071 498.109843 
L 315.785071 467.979744 
L 285.654972 467.979744 
z
" clip-path="url(#p89474701d9)" style="fill: #ffffff; stroke: #000000; stroke-width: 1.5; stroke-linejoin: miter"/>
   </g>
   <g id="patch_5">
    <path d="M 300.720022 394.85631 
C 301.918611 394.85631 303.068271 394.380105 303.915801 393.532574 
C 304.763332 392.685044 305.239537 391.535384 305.239537 390.336795 
C 305.239537 389.138205 304.763332 387.988546 303.915801 387.141015 
C 303.068271 386.293484 301.918611 385.81728 300.720022 385.81728 
C 299.521432 385.81728 298.371773 386.293484 297.524242 387.141015 
C 296.676711 387.988546 296.200507 389.138205 296.200507 390.336795 
C 296.200507 391.535384 296.676711 392.685044 297.524242 393.532574 
C 298.371773 394.380105 299.521432 394.85631 300.720022 394.85631 
z
" clip-path="url(#p89474701d9)" style="stroke: #000000; stroke-width: 1.5; stroke-linejoin: miter"/>
   </g>
   <g id="patch_6">
    <path d="M 300.720022 354.52833 
C 303.51673 354.52833 306.199269 353.417186 308.176841 351.439615 
C 310.154412 349.462043 311.265556 346.779504 311.265556 343.982795 
C 311.265556 341.186087 310.154412 338.503548 308.176841 336.525976 
C 306.199269 334.548405 303.51673 333.437261 300.720022 333.437261 
C 297.923313 333.437261 295.240774 334.548405 293.263202 336.525976 
C 291.285631 338.503548 290.174487 341.186087 290.174487 343.982795 
C 290.174487 346.779504 291.285631 349.462043 293.263202 351.439615 
C 295.240774 353.417186 297.923313 354.52833 300.720022 354.52833 
z
" clip-path="url(#p89474701d9)" style="stroke: #000000; stroke-width: 2; stroke-linejoin: miter"/>
   </g>
   <g id="patch_7">
    <path d="M 332.008971 127.277848 
L 362.139071 127.277848 
L 362.139071 97.147749 
L 332.008971 97.147749 
z
" clip-path="url(#p89474701d9)" style="fill: #ffffff; stroke: #000000; stroke-width: 1.5; stroke-linejoin: miter"/>
   </g>
   <g id="patch_8">
    <path d="M 332.008971 312.693846 
L 362.139071 312.693846 
L 362.139071 282.563746 
L 332.008971 282.563746 
z
" clip-path="url(#p89474701d9)" style="fill: #ffffff; stroke: #000000; stroke-width: 1.5; stroke-linejoin: miter"/>
   </g>
   <g id="patch_9">
    <path d="M 332.008971 498.109843 
L 362.139071 498.109843 
L 362.139071 467.979744 
L 332.008971 467.979744 
z
" clip-path="url(#p89474701d9)" style="fill: #ffffff; stroke: #000000; stroke-width: 1.5; stroke-linejoin: miter"/>
   </g>
   <g id="patch_10">
    <path d="M 332.008971 359.047845 
L 362.139071 359.047845 
L 362.139071 328.917746 
L 332.008971 328.917746 
z
" clip-path="url(#p89474701d9)" style="fill: #ffffff; stroke: #000000; stroke-width: 1.5; stroke-linejoin: miter"/>
   </g>
   <g id="patch_11">
    <path d="M 393.42802 116.732313 
C 394.62661 116.732313 395.776269 116.256109 396.6238 115.408578 
C 397.471331 114.561047 397.947535 113.411388 397.947535 112.212799 
C 397.947535 111.014209 397.471331 109.86455 396.6238 109.017019 
C 395.776269 108.169488 394.62661 107.693284 393.42802 107.693284 
C 392.229431 107.693284 391.079771 108.169488 390.232241 109.017019 
C 389.38471 109.86455 388.908505 111.014209 388.908505 112.212799 
C 388.908505 113.411388 389.38471 114.561047 390.232241 115.408578 
C 391.079771 116.256109 392.229431 116.732313 393.42802 116.732313 
z
" clip-path="url(#p89474701d9)" style="stroke: #000000; stroke-width: 1.5; stroke-linejoin: miter"/>
   </g>
   <g id="patch_12">
    <path d="M 393.42802 447.236329 
C 396.224729 447.236329 398.907268 446.125185 400.88484 444.147613 
C 402.862411 442.170042 403.973555 439.487503 403.973555 436.690794 
C 403.973555 433.894086 402.862411 431.211547 400.88484 429.233975 
C 398.907268 427.256403 396.224729 426.145259 393.42802 426.145259 
C 390.631312 426.145259 387.948773 427.256403 385.971201 429.233975 
C 383.99363 431.211547 382.882486 433.894086 382.882486 436.690794 
C 382.882486 439.487503 383.99363 442.170042 385.971201 444.147613 
C 387.948773 446.125185 390.631312 447.236329 393.42802 447.236329 
z
" clip-path="url(#p89474701d9)" style="stroke: #000000; stroke-width: 2; stroke-linejoin: miter"/>
   </g>
   <g id="patch_13">
    <path d="M 393.42802 487.564309 
C 394.62661 487.564309 395.776269 487.088104 396.6238 486.240573 
C 397.471331 485.393043 397.947535 484.243383 397.947535 483.044794 
C 397.947535 481.846204 397.471331 480.696545 396.6238 479.849014 
C 395.776269 479.001483 394.62661 478.525279 393.42802 478.525279 
C 392.229431 478.525279 391.079771 479.001483 390.232241 479.849014 
C 389.38471 480.696545 388.908505 481.846204 388.908505 483.044794 
C 388.908505 484.243383 389.38471 485.393043 390.232241 486.240573 
C 391.079771 487.088104 392.229431 487.564309 393.42802 487.564309 
z
" clip-path="url(#p89474701d9)" style="stroke: #000000; stroke-width: 1.5; stroke-linejoin: miter"/>
   </g>
   <g id="patch_14">
    <path d="M 393.42802 539.944328 
C 396.224729 539.944328 398.907268 538.833184 400.88484 536.855612 
C 402.862411 534.878041 403.973555 532.195502 403.973555 529.398793 
C 403.973555 526.602084 402.862411 523.919545 400.88484 521.941974 
C 398.907268 519.964402 396.224729 518.853258 393.42802 518.853258 
C 390.631312 518.853258 387.948773 519.964402 385.971201 521.941974 
C 383.99363 523.919545 382.882486 526.602084 382.882486 529.398793 
C 382.882486 532.195502 383.99363 534.878041 385.971201 536.855612 
C 387.948773 538.833184 390.631312 539.944328 393.42802 539.944328 
z
" clip-path="url(#p89474701d9)" style="stroke: #000000; stroke-width: 2; stroke-linejoin: miter"/>
   </g>
   <g id="patch_15">
    <path d="M 439.78202 394.85631 
C 440.980609 394.85631 442.130269 394.380105 442.977799 393.532574 
C 443.82533 392.685044 444.301535 391.535384 444.301535 390.336795 
C 444.301535 389.138205 443.82533 387.988546 442.977799 387.141015 
C 442.130269 386.293484 440.980609 385.81728 439.78202 385.81728 
C 438.58343 385.81728 437.433771 386.293484 436.58624 387.141015 
C 435.738709 387.988546 435.262505 389.138205 435.262505 390.336795 
C 435.262505 391.535384 435.738709 392.685044 436.58624 393.532574 
C 437.433771 394.380105 438.58343 394.85631 439.78202 394.85631 
z
" clip-path="url(#p89474701d9)" style="stroke: #000000; stroke-width: 1.5; stroke-linejoin: miter"/>
   </g>
   <g id="patch_16">
    <path d="M 439.78202 354.52833 
C 442.578728 354.52833 445.261267 353.417186 447.238839 351.439615 
C 449.216411 349.462043 450.327555 346.779504 450.327555 343.982795 
C 450.327555 341.186087 449.216411 338.503548 447.238839 336.525976 
C 445.261267 334.548405 442.578728 333.437261 439.78202 333.437261 
C 436.985311 333.437261 434.302772 334.548405 432.325201 336.525976 
C 430.347629 338.503548 429.236485 341.186087 429.236485 343.982795 
C 429.236485 346.779504 430.347629 349.462043 432.325201 351.439615 
C 434.302772 353.417186 436.985311 354.52833 439.78202 354.52833 
z
" clip-path="url(#p89474701d9)" style="stroke: #000000; stroke-width: 2; stroke-linejoin: miter"/>
   </g>
   <g id="patch_17">
    <path d="M 486.136019 163.086313 
C 487.334609 163.086313 488.484268 162.610108 489.331799 161.762578 
C 490.179329 160.915047 490.655534 159.765387 490.655534 158.566798 
C 490.655534 157.368209 490.179329 156.218549 489.331799 155.371018 
C 488.484268 154.523488 487.334609 154.047283 486.136019 154.047283 
C 484.93743 154.047283 483.78777 154.523488 482.940239 155.371018 
C 482.092709 156.218549 481.616504 157.368209 481.616504 158.566798 
C 481.616504 159.765387 482.092709 160.915047 482.940239 161.762578 
C 483.78777 162.610108 484.93743 163.086313 486.136019 163.086313 
z
" clip-path="url(#p89474701d9)" style="stroke: #000000; stroke-width: 1.5; stroke-linejoin: miter"/>
   </g>
   <g id="patch_18">
    <path d="M 486.136019 447.236329 
C 488.932728 447.236329 491.615267 446.125185 493.592838 444.147613 
C 495.57041 442.170042 496.681554 439.487503 496.681554 436.690794 
C 496.681554 433.894086 495.57041 431.211547 493.592838 429.233975 
C 491.615267 427.256403 488.932728 426.145259 486.136019 426.145259 
C 483.339311 426.145259 480.656772 427.256403 478.6792 429.233975 
C 476.701628 431.211547 475.590484 433.894086 475.590484 436.690794 
C 475.590484 439.487503 476.701628 442.170042 478.6792 444.147613 
C 480.656772 446.125185 483.339311 447.236329 486.136019 447.236329 
z
" clip-path="url(#p89474701d9)" style="stroke: #000000; stroke-width: 2; stroke-linejoin: miter"/>
   </g>
   <g id="patch_19">
    <path d="M 532.490019 209.440312 
C 533.688608 209.440312 534.838268 208.964108 535.685798 208.116577 
C 536.533329 207.269046 537.009533 206.119387 537.009533 204.920797 
C 537.009533 203.722208 536.533329 202.572548 535.685798 201.725018 
C 534.838268 200.877487 533.688608 200.401282 532.490019 200.401282 
C 531.291429 200.401282 530.14177 200.877487 529.294239 201.725018 
C 528.446708 202.572548 527.970504 203.722208 527.970504 204.920797 
C 527.970504 206.119387 528.446708 207.269046 529.294239 208.116577 
C 530.14177 208.964108 531.291429 209.440312 532.490019 209.440312 
z
" clip-path="url(#p89474701d9)" style="stroke: #000000; stroke-width: 1.5; stroke-linejoin: miter"/>
   </g>
   <g id="patch_20">
    <path d="M 532.490019 447.236329 
C 535.286727 447.236329 537.969266 446.125185 539.946838 444.147613 
C 541.924409 442.170042 543.035553 439.487503 543.035553 436.690794 
C 543.035553 433.894086 541.924409 431.211547 539.946838 429.233975 
C 537.969266 427.256403 535.286727 426.145259 532.490019 426.145259 
C 529.69331 426.145259 527.010771 427.256403 525.033199 429.233975 
C 523.055628 431.211547 521.944484 433.894086 521.944484 436.690794 
C 521.944484 439.487503 523.055628 442.170042 525.033199 444.147613 
C 527.010771 446.125185 529.69331 447.236329 532.490019 447.236329 
z
" clip-path="url(#p89474701d9)" style="stroke: #000000; stroke-width: 2; stroke-linejoin: miter"/>
   </g>
   <g id="patch_21">
    <path d="M 578.844018 255.794312 
C 580.042607 255.794312 581.192267 255.318107 582.039798 254.470576 
C 582.887328 253.623046 583.363533 252.473386 583.363533 251.274797 
C 583.363533 250.076207 582.887328 248.926548 582.039798 248.079017 
C 581.192267 247.231486 580.042607 246.755282 578.844018 246.755282 
C 577.645429 246.755282 576.495769 247.231486 575.648238 248.079017 
C 574.800708 248.926548 574.324503 250.076207 574.324503 251.274797 
C 574.324503 252.473386 574.800708 253.623046 575.648238 254.470576 
C 576.495769 255.318107 577.645429 255.794312 578.844018 255.794312 
z
" clip-path="url(#p89474701d9)" style="stroke: #000000; stroke-width: 1.5; stroke-linejoin: miter"/>
   </g>
   <g id="patch_22">
    <path d="M 578.844018 447.236329 
C 581.640726 447.236329 584.323266 446.125185 586.300837 444.147613 
C 588.278409 442.170042 589.389553 439.487503 589.389553 436.690794 
C 589.389553 433.894086 588.278409 431.211547 586.300837 429.233975 
C 584.323266 427.256403 581.640726 426.145259 578.844018 426.145259 
C 576.047309 426.145259 573.36477 427.256403 571.387199 429.233975 
C 569.409627 431.211547 568.298483 433.894086 568.298483 436.690794 
C 568.298483 439.487503 569.409627 442.170042 571.387199 444.147613 
C 573.36477 446.125185 576.047309 447.236329 578.844018 447.236329 
z
" clip-path="url(#p89474701d9)" style="stroke: #000000; stroke-width: 2; stroke-linejoin: miter"/>
   </g>
   <g id="patch_23">
    <path d="M 625.198017 302.148311 
C 626.396607 302.148311 627.546266 301.672106 628.393797 300.824576 
C 629.241328 299.977045 629.717532 298.827385 629.717532 297.628796 
C 629.717532 296.430207 629.241328 295.280547 628.393797 294.433016 
C 627.546266 293.585486 626.396607 293.109281 625.198017 293.109281 
C 623.999428 293.109281 622.849768 293.585486 622.002238 294.433016 
C 621.154707 295.280547 620.678502 296.430207 620.678502 297.628796 
C 620.678502 298.827385 621.154707 299.977045 622.002238 300.824576 
C 622.849768 301.672106 623.999428 302.148311 625.198017 302.148311 
z
" clip-path="url(#p89474701d9)" style="stroke: #000000; stroke-width: 1.5; stroke-linejoin: miter"/>
   </g>
   <g id="patch_24">
    <path d="M 625.198017 447.236329 
C 627.994726 447.236329 630.677265 446.125185 632.654837 444.147613 
C 634.632408 442.170042 635.743552 439.487503 635.743552 436.690794 
C 635.743552 433.894086 634.632408 431.211547 632.654837 429.233975 
C 630.677265 427.256403 627.994726 426.145259 625.198017 426.145259 
C 622.401309 426.145259 619.71877 427.256403 617.741198 429.233975 
C 615.763627 431.211547 614.652482 433.894086 614.652482 436.690794 
C 614.652482 439.487503 615.763627 442.170042 617.741198 444.147613 
C 619.71877 446.125185 622.401309 447.236329 625.198017 447.236329 
z
" clip-path="url(#p89474701d9)" style="stroke: #000000; stroke-width: 2; stroke-linejoin: miter"/>
   </g>
   <g id="patch_25">
    <path d="M 653.874919 451.755844 
L 689.229114 451.755844 
L 689.229114 421.625744 
L 653.874919 421.625744 
z
" clip-path="url(#p89474701d9)" style="fill: #ffffff; stroke: #000000; stroke-width: 1.5; stroke-linejoin: miter"/>
   </g>
   <g id="patch_26">
    <path d="M 717.906016 302.148311 
C 719.104605 302.148311 720.254265 301.672106 721.101796 300.824576 
C 721.949326 299.977045 722.425531 298.827385 722.425531 297.628796 
C 722.425531 296.430207 721.949326 295.280547 721.101796 294.433016 
C 720.254265 293.585486 719.104605 293.109281 717.906016 293.109281 
C 716.707427 293.109281 715.557767 293.585486 714.710236 294.433016 
C 713.862706 295.280547 713.386501 296.430207 713.386501 297.628796 
C 713.386501 298.827385 713.862706 299.977045 714.710236 300.824576 
C 715.557767 301.672106 716.707427 302.148311 717.906016 302.148311 
z
" clip-path="url(#p89474701d9)" style="stroke: #000000; stroke-width: 1.5; stroke-linejoin: miter"/>
   </g>
   <g id="patch_27">
    <path d="M 717.906016 447.236329 
C 720.702725 447.236329 723.385264 446.125185 725.362835 444.147613 
C 727.340407 442.170042 728.451551 439.487503 728.451551 436.690794 
C 728.451551 433.894086 727.340407 431.211547 725.362835 429.233975 
C 723.385264 427.256403 720.702725 426.145259 717.906016 426.145259 
C 715.109308 426.145259 712.426768 427.256403 710.449197 429.233975 
C 708.471625 431.211547 707.360481 433.894086 707.360481 436.690794 
C 707.360481 439.487503 708.471625 442.170042 710.449197 444.147613 
C 712.426768 446.125185 715.109308 447.236329 717.906016 447.236329 
z
" clip-path="url(#p89474701d9)" style="stroke: #000000; stroke-width: 2; stroke-linejoin: miter"/>
   </g>
   <g id="patch_28">
    <path d="M 749.194966 312.693846 
L 779.325065 312.693846 
L 779.325065 282.563746 
L 749.194966 282.563746 
z
" clip-path="url(#p89474701d9)" style="fill: #ffffff; stroke: #000000; stroke-width: 1.5; stroke-linejoin: miter"/>
   </g>
   <g id="patch_29">
    <path d="M 810.614015 255.794312 
C 811.812604 255.794312 812.962264 255.318107 813.809794 254.470576 
C 814.657325 253.623046 815.13353 252.473386 815.13353 251.274797 
C 815.13353 250.076207 814.657325 248.926548 813.809794 248.079017 
C 812.962264 247.231486 811.812604 246.755282 810.614015 246.755282 
C 809.415425 246.755282 808.265766 247.231486 807.418235 248.079017 
C 806.570704 248.926548 806.0945 250.076207 806.0945 251.274797 
C 806.0945 252.473386 806.570704 253.623046 807.418235 254.470576 
C 808.265766 255.318107 809.415425 255.794312 810.614015 255.794312 
z
" clip-path="url(#p89474701d9)" style="stroke: #000000; stroke-width: 1.5; stroke-linejoin: miter"/>
   </g>
   <g id="patch_30">
    <path d="M 810.614015 447.236329 
C 813.410723 447.236329 816.093262 446.125185 818.070834 444.147613 
C 820.048406 442.170042 821.15955 439.487503 821.15955 436.690794 
C 821.15955 433.894086 820.048406 431.211547 818.070834 429.233975 
C 816.093262 427.256403 813.410723 426.145259 810.614015 426.145259 
C 807.817306 426.145259 805.134767 427.256403 803.157196 429.233975 
C 801.179624 431.211547 800.06848 433.894086 800.06848 436.690794 
C 800.06848 439.487503 801.179624 442.170042 803.157196 444.147613 
C 805.134767 446.125185 807.817306 447.236329 810.614015 447.236329 
z
" clip-path="url(#p89474701d9)" style="stroke: #000000; stroke-width: 2; stroke-linejoin: miter"/>
   </g>
   <g id="patch_31">
    <path d="M 841.902964 312.693846 
L 872.033064 312.693846 
L 872.033064 282.563746 
L 841.902964 282.563746 
z
" clip-path="url(#p89474701d9)" style="fill: #ffffff; stroke: #000000; stroke-width: 1.5; stroke-linejoin: miter"/>
   </g>
   <g id="patch_32">
    <path d="M 903.322014 209.440312 
C 904.520603 209.440312 905.670263 208.964108 906.517793 208.116577 
C 907.365324 207.269046 907.841529 206.119387 907.841529 204.920797 
C 907.841529 203.722208 907.365324 202.572548 906.517793 201.725018 
C 905.670263 200.877487 904.520603 200.401282 903.322014 200.401282 
C 902.123424 200.401282 900.973765 200.877487 900.126234 201.725018 
C 899.278703 202.572548 898.802499 203.722208 898.802499 204.920797 
C 898.802499 206.119387 899.278703 207.269046 900.126234 208.116577 
C 900.973765 208.964108 902.123424 209.440312 903.322014 209.440312 
z
" clip-path="url(#p89474701d9)" style="stroke: #000000; stroke-width: 1.5; stroke-linejoin: miter"/>
   </g>
   <g id="patch_33">
    <path d="M 903.322014 447.236329 
C 906.118722 447.236329 908.801261 446.125185 910.778833 444.147613 
C 912.756404 442.170042 913.867548 439.487503 913.867548 436.690794 
C 913.867548 433.894086 912.756404 431.211547 910.778833 429.233975 
C 908.801261 427.256403 906.118722 426.145259 903.322014 426.145259 
C 900.525305 426.145259 897.842766 427.256403 895.865194 429.233975 
C 893.887623 431.211547 892.776479 433.894086 892.776479 436.690794 
C 892.776479 439.487503 893.887623 442.170042 895.865194 444.147613 
C 897.842766 446.125185 900.525305 447.236329 903.322014 447.236329 
z
" clip-path="url(#p89474701d9)" style="stroke: #000000; stroke-width: 2; stroke-linejoin: miter"/>
   </g>
   <g id="patch_34">
    <path d="M 949.676013 163.086313 
C 950.874602 163.086313 952.024262 162.610108 952.871793 161.762578 
C 953.719323 160.915047 954.195528 159.765387 954.195528 158.566798 
C 954.195528 157.368209 953.719323 156.218549 952.871793 155.371018 
C 952.024262 154.523488 950.874602 154.047283 949.676013 154.047283 
C 948.477424 154.047283 947.327764 154.523488 946.480233 155.371018 
C 945.632703 156.218549 945.156498 157.368209 945.156498 158.566798 
C 945.156498 159.765387 945.632703 160.915047 946.480233 161.762578 
C 947.327764 162.610108 948.477424 163.086313 949.676013 163.086313 
z
" clip-path="url(#p89474701d9)" style="stroke: #000000; stroke-width: 1.5; stroke-linejoin: miter"/>
   </g>
   <g id="patch_35">
    <path d="M 949.676013 447.236329 
C 952.472722 447.236329 955.155261 446.125185 957.132832 444.147613 
C 959.110404 442.170042 960.221548 439.487503 960.221548 436.690794 
C 960.221548 433.894086 959.110404 431.211547 957.132832 429.233975 
C 955.155261 427.256403 952.472722 426.145259 949.676013 426.145259 
C 946.879304 426.145259 944.196765 427.256403 942.219194 429.233975 
C 940.241622 431.211547 939.130478 433.894086 939.130478 436.690794 
C 939.130478 439.487503 940.241622 442.170042 942.219194 444.147613 
C 944.196765 446.125185 946.879304 447.236329 949.676013 447.236329 
z
" clip-path="url(#p89474701d9)" style="stroke: #000000; stroke-width: 2; stroke-linejoin: miter"/>
   </g>
   <g id="patch_36">
    <path d="M 996.030012 116.732313 
C 997.228602 116.732313 998.378261 116.256109 999.225792 115.408578 
C 1000.073323 114.561047 1000.549527 113.411388 1000.549527 112.212799 
C 1000.549527 111.014209 1000.073323 109.86455 999.225792 109.017019 
C 998.378261 108.169488 997.228602 107.693284 996.030012 107.693284 
C 994.831423 107.693284 993.681763 108.169488 992.834233 109.017019 
C 991.986702 109.86455 991.510497 111.014209 991.510497 112.212799 
C 991.510497 113.411388 991.986702 114.561047 992.834233 115.408578 
C 993.681763 116.256109 994.831423 116.732313 996.030012 116.732313 
z
" clip-path="url(#p89474701d9)" style="stroke: #000000; stroke-width: 1.5; stroke-linejoin: miter"/>
   </g>
   <g id="patch_37">
    <path d="M 996.030012 447.236329 
C 998.826721 447.236329 1001.50926 446.125185 1003.486832 444.147613 
C 1005.464403 442.170042 1006.575547 439.487503 1006.575547 436.690794 
C 1006.575547 433.894086 1005.464403 431.211547 1003.486832 429.233975 
C 1001.50926 427.256403 998.826721 426.145259 996.030012 426.145259 
C 993.233304 426.145259 990.550765 427.256403 988.573193 429.233975 
C 986.595622 431.211547 985.484478 433.894086 985.484478 436.690794 
C 985.484478 439.487503 986.595622 442.170042 988.573193 444.147613 
C 990.550765 446.125185 993.233304 447.236329 996.030012 447.236329 
z
" clip-path="url(#p89474701d9)" style="stroke: #000000; stroke-width: 2; stroke-linejoin: miter"/>
   </g>
   <g id="patch_38">
    <path d="M 1042.384012 163.086313 
C 1043.582601 163.086313 1044.732261 162.610108 1045.579791 161.762578 
C 1046.427322 160.915047 1046.903527 159.765387 1046.903527 158.566798 
C 1046.903527 157.368209 1046.427322 156.218549 1045.579791 155.371018 
C 1044.732261 154.523488 1043.582601 154.047283 1042.384012 154.047283 
C 1041.185422 154.047283 1040.035763 154.523488 1039.188232 155.371018 
C 1038.340701 156.218549 1037.864497 157.368209 1037.864497 158.566798 
C 1037.864497 159.765387 1038.340701 160.915047 1039.188232 161.762578 
C 1040.035763 162.610108 1041.185422 163.086313 1042.384012 163.086313 
z
" clip-path="url(#p89474701d9)" style="stroke: #000000; stroke-width: 1.5; stroke-linejoin: miter"/>
   </g>
   <g id="patch_39">
    <path d="M 1042.384012 539.944328 
C 1045.18072 539.944328 1047.863259 538.833184 1049.840831 536.855612 
C 1051.818403 534.878041 1052.929547 532.195502 1052.929547 529.398793 
C 1052.929547 526.602084 1051.818403 523.919545 1049.840831 521.941974 
C 1047.863259 519.964402 1045.18072 518.853258 1042.384012 518.853258 
C 1039.587303 518.853258 1036.904764 519.964402 1034.927193 521.941974 
C 1032.949621 523.919545 1031.838477 526.602084 1031.838477 529.398793 
C 1031.838477 532.195502 1032.949621 534.878041 1034.927193 536.855612 
C 1036.904764 538.833184 1039.587303 539.944328 1042.384012 539.944328 
z
" clip-path="url(#p89474701d9)" style="stroke: #000000; stroke-width: 2; stroke-linejoin: miter"/>
   </g>
   <g id="patch_40">
    <path d="M 1027.318962 127.277848 
L 1057.449062 127.277848 
L 1057.449062 97.147749 
L 1027.318962 97.147749 
z
" clip-path="url(#p89474701d9)" style="fill: #ffffff; stroke: #000000; stroke-width: 1.5; stroke-linejoin: miter"/>
   </g>
   <g id="patch_41">
    <path d="M 1067.440666 544.463843 
L 1110.035356 544.463843 
L 1110.035356 514.333743 
L 1067.440666 514.333743 
z
" clip-path="url(#p89474701d9)" style="fill: #ffffff; stroke: #000000; stroke-width: 1.5; stroke-linejoin: miter"/>
   </g>
   <g id="patch_42">
    <path d="M 1088.738011 441.210309 
C 1089.936601 441.210309 1091.08626 440.734105 1091.933791 439.886574 
C 1092.781321 439.039043 1093.257526 437.889384 1093.257526 436.690794 
C 1093.257526 435.492205 1092.781321 434.342545 1091.933791 433.495015 
C 1091.08626 432.647484 1089.936601 432.171279 1088.738011 432.171279 
C 1087.539422 432.171279 1086.389762 432.647484 1085.542231 433.495015 
C 1084.694701 434.342545 1084.218496 435.492205 1084.218496 436.690794 
C 1084.218496 437.889384 1084.694701 439.039043 1085.542231 439.886574 
C 1086.389762 440.734105 1087.539422 441.210309 1088.738011 441.210309 
z
" clip-path="url(#p89474701d9)" style="stroke: #000000; stroke-width: 1.5; stroke-linejoin: miter"/>
   </g>
   <g id="patch_43">
    <path d="M 1088.738011 215.466332 
C 1091.53472 215.466332 1094.217259 214.355188 1096.19483 212.377616 
C 1098.172402 210.400045 1099.283546 207.717506 1099.283546 204.920797 
C 1099.283546 202.124089 1098.172402 199.44155 1096.19483 197.463978 
C 1094.217259 195.486406 1091.53472 194.375262 1088.738011 194.375262 
C 1085.941303 194.375262 1083.258763 195.486406 1081.281192 197.463978 
C 1079.30362 199.44155 1078.192476 202.124089 1078.192476 204.920797 
C 1078.192476 207.717506 1079.30362 210.400045 1081.281192 212.377616 
C 1083.258763 214.355188 1085.941303 215.466332 1088.738011 215.466332 
z
" clip-path="url(#p89474701d9)" style="stroke: #000000; stroke-width: 2; stroke-linejoin: miter"/>
   </g>
   <g id="patch_44">
    <path d="M 1073.672961 127.277848 
L 1103.803061 127.277848 
L 1103.803061 97.147749 
L 1073.672961 97.147749 
z
" clip-path="url(#p89474701d9)" style="fill: #ffffff; stroke: #000000; stroke-width: 1.5; stroke-linejoin: miter"/>
   </g>
   <g id="patch_45">
    <path d="M 1135.092011 163.086313 
C 1136.2906 163.086313 1137.44026 162.610108 1138.28779 161.762578 
C 1139.135321 160.915047 1139.611525 159.765387 1139.611525 158.566798 
C 1139.611525 157.368209 1139.135321 156.218549 1138.28779 155.371018 
C 1137.44026 154.523488 1136.2906 154.047283 1135.092011 154.047283 
C 1133.893421 154.047283 1132.743762 154.523488 1131.896231 155.371018 
C 1131.0487 156.218549 1130.572496 157.368209 1130.572496 158.566798 
C 1130.572496 159.765387 1131.0487 160.915047 1131.896231 161.762578 
C 1132.743762 162.610108 1133.893421 163.086313 1135.092011 163.086313 
z
" clip-path="url(#p89474701d9)" style="stroke: #000000; stroke-width: 1.5; stroke-linejoin: miter"/>
   </g>
   <g id="patch_46">
    <path d="M 1135.092011 539.944328 
C 1137.888719 539.944328 1140.571258 538.833184 1142.54883 536.855612 
C 1144.526401 534.878041 1145.637545 532.195502 1145.637545 529.398793 
C 1145.637545 526.602084 1144.526401 523.919545 1142.54883 521.941974 
C 1140.571258 519.964402 1137.888719 518.853258 1135.092011 518.853258 
C 1132.295302 518.853258 1129.612763 519.964402 1127.635191 521.941974 
C 1125.65762 523.919545 1124.546476 526.602084 1124.546476 529.398793 
C 1124.546476 532.195502 1125.65762 534.878041 1127.635191 536.855612 
C 1129.612763 538.833184 1132.295302 539.944328 1135.092011 539.944328 
z
" clip-path="url(#p89474701d9)" style="stroke: #000000; stroke-width: 2; stroke-linejoin: miter"/>
   </g>
   <g id="patch_47">
    <path d="M 1166.38096 219.985847 
L 1196.51106 219.985847 
L 1196.51106 189.855747 
L 1166.38096 189.855747 
z
" clip-path="url(#p89474701d9)" style="fill: #ffffff; stroke: #000000; stroke-width: 1.5; stroke-linejoin: miter"/>
   </g>
   <g id="patch_48">
    <path d="M 1181.44601 487.564309 
C 1182.644599 487.564309 1183.794259 487.088104 1184.64179 486.240573 
C 1185.48932 485.393043 1185.965525 484.243383 1185.965525 483.044794 
C 1185.965525 481.846204 1185.48932 480.696545 1184.64179 479.849014 
C 1183.794259 479.001483 1182.644599 478.525279 1181.44601 478.525279 
C 1180.247421 478.525279 1179.097761 479.001483 1178.25023 479.849014 
C 1177.4027 480.696545 1176.926495 481.846204 1176.926495 483.044794 
C 1176.926495 484.243383 1177.4027 485.393043 1178.25023 486.240573 
C 1179.097761 487.088104 1180.247421 487.564309 1181.44601 487.564309 
z
" clip-path="url(#p89474701d9)" style="stroke: #000000; stroke-width: 1.5; stroke-linejoin: miter"/>
   </g>
   <g id="patch_49">
    <path d="M 1181.44601 539.944328 
C 1184.242718 539.944328 1186.925258 538.833184 1188.902829 536.855612 
C 1190.880401 534.878041 1191.991545 532.195502 1191.991545 529.398793 
C 1191.991545 526.602084 1190.880401 523.919545 1188.902829 521.941974 
C 1186.925258 519.964402 1184.242718 518.853258 1181.44601 518.853258 
C 1178.649301 518.853258 1175.966762 519.964402 1173.989191 521.941974 
C 1172.011619 523.919545 1170.900475 526.602084 1170.900475 529.398793 
C 1170.900475 532.195502 1172.011619 534.878041 1173.989191 536.855612 
C 1175.966762 538.833184 1178.649301 539.944328 1181.44601 539.944328 
z
" clip-path="url(#p89474701d9)" style="stroke: #000000; stroke-width: 2; stroke-linejoin: miter"/>
   </g>
   <g id="patch_50">
    <path d="M 1227.800009 441.210309 
C 1228.998599 441.210309 1230.148258 440.734105 1230.995789 439.886574 
C 1231.84332 439.039043 1232.319524 437.889384 1232.319524 436.690794 
C 1232.319524 435.492205 1231.84332 434.342545 1230.995789 433.495015 
C 1230.148258 432.647484 1228.998599 432.171279 1227.800009 432.171279 
C 1226.60142 432.171279 1225.45176 432.647484 1224.60423 433.495015 
C 1223.756699 434.342545 1223.280494 435.492205 1223.280494 436.690794 
C 1223.280494 437.889384 1223.756699 439.039043 1224.60423 439.886574 
C 1225.45176 440.734105 1226.60142 441.210309 1227.800009 441.210309 
z
" clip-path="url(#p89474701d9)" style="stroke: #000000; stroke-width: 1.5; stroke-linejoin: miter"/>
   </g>
   <g id="patch_51">
    <path d="M 1227.800009 215.466332 
C 1230.596718 215.466332 1233.279257 214.355188 1235.256828 212.377616 
C 1237.2344 210.400045 1238.345544 207.717506 1238.345544 204.920797 
C 1238.345544 202.124089 1237.2344 199.44155 1235.256828 197.463978 
C 1233.279257 195.486406 1230.596718 194.375262 1227.800009 194.375262 
C 1225.003301 194.375262 1222.320762 195.486406 1220.34319 197.463978 
C 1218.365619 199.44155 1217.254474 202.124089 1217.254474 204.920797 
C 1217.254474 207.717506 1218.365619 210.400045 1220.34319 212.377616 
C 1222.320762 214.355188 1225.003301 215.466332 1227.800009 215.466332 
z
" clip-path="url(#p89474701d9)" style="stroke: #000000; stroke-width: 2; stroke-linejoin: miter"/>
   </g>
   <g id="patch_52">
    <path d="M 1212.734959 498.109843 
L 1242.865059 498.109843 
L 1242.865059 467.979744 
L 1212.734959 467.979744 
z
" clip-path="url(#p89474701d9)" style="fill: #ffffff; stroke: #000000; stroke-width: 1.5; stroke-linejoin: miter"/>
   </g>
   <g id="patch_53">
    <path d="M 1274.154009 116.732313 
C 1275.352598 116.732313 1276.502258 116.256109 1277.349788 115.408578 
C 1278.197319 114.561047 1278.673524 113.411388 1278.673524 112.212799 
C 1278.673524 111.014209 1278.197319 109.86455 1277.349788 109.017019 
C 1276.502258 108.169488 1275.352598 107.693284 1274.154009 107.693284 
C 1272.955419 107.693284 1271.80576 108.169488 1270.958229 109.017019 
C 1270.110698 109.86455 1269.634494 111.014209 1269.634494 112.212799 
C 1269.634494 113.411388 1270.110698 114.561047 1270.958229 115.408578 
C 1271.80576 116.256109 1272.955419 116.732313 1274.154009 116.732313 
z
" clip-path="url(#p89474701d9)" style="stroke: #000000; stroke-width: 1.5; stroke-linejoin: miter"/>
   </g>
   <g id="patch_54">
    <path d="M 1274.154009 261.820332 
C 1276.950717 261.820332 1279.633256 260.709187 1281.610828 258.731616 
C 1283.588399 256.754044 1284.699544 254.071505 1284.699544 251.274797 
C 1284.699544 248.478088 1283.588399 245.795549 1281.610828 243.817977 
C 1279.633256 241.840406 1276.950717 240.729262 1274.154009 240.729262 
C 1271.3573 240.729262 1268.674761 241.840406 1266.697189 243.817977 
C 1264.719618 245.795549 1263.608474 248.478088 1263.608474 251.274797 
C 1263.608474 254.071505 1264.719618 256.754044 1266.697189 258.731616 
C 1268.674761 260.709187 1271.3573 261.820332 1274.154009 261.820332 
z
" clip-path="url(#p89474701d9)" style="stroke: #000000; stroke-width: 2; stroke-linejoin: miter"/>
   </g>
   <g id="patch_55">
    <path d="M 1259.088959 498.109843 
L 1289.219058 498.109843 
L 1289.219058 467.979744 
L 1259.088959 467.979744 
z
" clip-path="url(#p89474701d9)" style="fill: #ffffff; stroke: #000000; stroke-width: 1.5; stroke-linejoin: miter"/>
   </g>
   <g id="patch_56">
    <path d="M 1305.442958 266.339846 
L 1335.573058 266.339846 
L 1335.573058 236.209747 
L 1305.442958 236.209747 
z
" clip-path="url(#p89474701d9)" style="fill: #ffffff; stroke: #000000; stroke-width: 1.5; stroke-linejoin: miter"/>
   </g>
   <g id="patch_57">
    <path d="M 1366.862007 116.732313 
C 1368.060597 116.732313 1369.210256 116.256109 1370.057787 115.408578 
C 1370.905318 114.561047 1371.381522 113.411388 1371.381522 112.212799 
C 1371.381522 111.014209 1370.905318 109.86455 1370.057787 109.017019 
C 1369.210256 108.169488 1368.060597 107.693284 1366.862007 107.693284 
C 1365.663418 107.693284 1364.513758 108.169488 1363.666228 109.017019 
C 1362.818697 109.86455 1362.342492 111.014209 1362.342492 112.212799 
C 1362.342492 113.411388 1362.818697 114.561047 1363.666228 115.408578 
C 1364.513758 116.256109 1365.663418 116.732313 1366.862007 116.732313 
z
" clip-path="url(#p89474701d9)" style="stroke: #000000; stroke-width: 1.5; stroke-linejoin: miter"/>
   </g>
   <g id="patch_58">
    <path d="M 1366.862007 261.820332 
C 1369.658716 261.820332 1372.341255 260.709187 1374.318827 258.731616 
C 1376.296398 256.754044 1377.407542 254.071505 1377.407542 251.274797 
C 1377.407542 248.478088 1376.296398 245.795549 1374.318827 243.817977 
C 1372.341255 241.840406 1369.658716 240.729262 1366.862007 240.729262 
C 1364.065299 240.729262 1361.38276 241.840406 1359.405188 243.817977 
C 1357.427617 245.795549 1356.316473 248.478088 1356.316473 251.274797 
C 1356.316473 254.071505 1357.427617 256.754044 1359.405188 258.731616 
C 1361.38276 260.709187 1364.065299 261.820332 1366.862007 261.820332 
z
" clip-path="url(#p89474701d9)" style="stroke: #000000; stroke-width: 2; stroke-linejoin: miter"/>
   </g>
   <g id="patch_59">
    <path d="M 1413.216007 116.732313 
C 1414.414596 116.732313 1415.564256 116.256109 1416.411786 115.408578 
C 1417.259317 114.561047 1417.735522 113.411388 1417.735522 112.212799 
C 1417.735522 111.014209 1417.259317 109.86455 1416.411786 109.017019 
C 1415.564256 108.169488 1414.414596 107.693284 1413.216007 107.693284 
C 1412.017417 107.693284 1410.867758 108.169488 1410.020227 109.017019 
C 1409.172696 109.86455 1408.696492 111.014209 1408.696492 112.212799 
C 1408.696492 113.411388 1409.172696 114.561047 1410.020227 115.408578 
C 1410.867758 116.256109 1412.017417 116.732313 1413.216007 116.732313 
z
" clip-path="url(#p89474701d9)" style="stroke: #000000; stroke-width: 1.5; stroke-linejoin: miter"/>
   </g>
   <g id="patch_60">
    <path d="M 1413.216007 447.236329 
C 1416.012715 447.236329 1418.695254 446.125185 1420.672826 444.147613 
C 1422.650398 442.170042 1423.761542 439.487503 1423.761542 436.690794 
C 1423.761542 433.894086 1422.650398 431.211547 1420.672826 429.233975 
C 1418.695254 427.256403 1416.012715 426.145259 1413.216007 426.145259 
C 1410.419298 426.145259 1407.736759 427.256403 1405.759188 429.233975 
C 1403.781616 431.211547 1402.670472 433.894086 1402.670472 436.690794 
C 1402.670472 439.487503 1403.781616 442.170042 1405.759188 444.147613 
C 1407.736759 446.125185 1410.419298 447.236329 1413.216007 447.236329 
z
" clip-path="url(#p89474701d9)" style="stroke: #000000; stroke-width: 2; stroke-linejoin: miter"/>
   </g>
   <g id="patch_61">
    <path d="M 1444.504956 451.755844 
L 1474.635056 451.755844 
L 1474.635056 421.625744 
L 1444.504956 421.625744 
z
" clip-path="url(#p89474701d9)" style="fill: #ffffff; stroke: #000000; stroke-width: 1.5; stroke-linejoin: miter"/>
   </g>
   <g id="patch_62">
    <path d="M 1505.924006 116.732313 
C 1507.122595 116.732313 1508.272255 116.256109 1509.119785 115.408578 
C 1509.967316 114.561047 1510.443521 113.411388 1510.443521 112.212799 
C 1510.443521 111.014209 1509.967316 109.86455 1509.119785 109.017019 
C 1508.272255 108.169488 1507.122595 107.693284 1505.924006 107.693284 
C 1504.725416 107.693284 1503.575757 108.169488 1502.728226 109.017019 
C 1501.880695 109.86455 1501.404491 111.014209 1501.404491 112.212799 
C 1501.404491 113.411388 1501.880695 114.561047 1502.728226 115.408578 
C 1503.575757 116.256109 1504.725416 116.732313 1505.924006 116.732313 
z
" clip-path="url(#p89474701d9)" style="stroke: #000000; stroke-width: 1.5; stroke-linejoin: miter"/>
   </g>
   <g id="patch_63">
    <path d="M 1505.924006 447.236329 
C 1508.720714 447.236329 1511.403253 446.125185 1513.380825 444.147613 
C 1515.358396 442.170042 1516.46954 439.487503 1516.46954 436.690794 
C 1516.46954 433.894086 1515.358396 431.211547 1513.380825 429.233975 
C 1511.403253 427.256403 1508.720714 426.145259 1505.924006 426.145259 
C 1503.127297 426.145259 1500.444758 427.256403 1498.467186 429.233975 
C 1496.489615 431.211547 1495.378471 433.894086 1495.378471 436.690794 
C 1495.378471 439.487503 1496.489615 442.170042 1498.467186 444.147613 
C 1500.444758 446.125185 1503.127297 447.236329 1505.924006 447.236329 
z
" clip-path="url(#p89474701d9)" style="stroke: #000000; stroke-width: 2; stroke-linejoin: miter"/>
   </g>
   <g id="text_2">
    <g clip-path="url(#p89474701d9)">
     <!-- ${q}_{0}$ -->
     <g transform="translate(248.380562 116.663775)scale(0.1625 -0.1625)">
      <defs>
       <path id="DejaVuSans-Oblique-71" d="M 2669 525 
Q 2438 222 2123 65 
Q 1809 -91 1428 -91 
Q 897 -91 595 267 
Q 294 625 294 1253 
Q 294 1759 480 2231 
Q 666 2703 1013 3078 
Q 1238 3322 1530 3453 
Q 1822 3584 2144 3584 
Q 2531 3584 2781 3431 
Q 3031 3278 3144 2969 
L 3244 3494 
L 3822 3494 
L 2888 -1319 
L 2309 -1319 
L 2669 525 
z
M 891 1338 
Q 891 875 1084 633 
Q 1278 391 1644 391 
Q 2188 391 2572 911 
Q 2956 1431 2956 2175 
Q 2956 2625 2757 2864 
Q 2559 3103 2188 3103 
Q 1916 3103 1684 2976 
Q 1453 2850 1281 2606 
Q 1100 2350 995 2006 
Q 891 1663 891 1338 
z
" transform="scale(0.015625)"/>
       <path id="DejaVuSans-30" d="M 2034 4250 
Q 1547 4250 1301 3770 
Q 1056 3291 1056 2328 
Q 1056 1369 1301 889 
Q 1547 409 2034 409 
Q 2525 409 2770 889 
Q 3016 1369 3016 2328 
Q 3016 3291 2770 3770 
Q 2525 4250 2034 4250 
z
M 2034 4750 
Q 2819 4750 3233 4129 
Q 3647 3509 3647 2328 
Q 3647 1150 3233 529 
Q 2819 -91 2034 -91 
Q 1250 -91 836 529 
Q 422 1150 422 2328 
Q 422 3509 836 4129 
Q 1250 4750 2034 4750 
z
" transform="scale(0.015625)"/>
      </defs>
      <use xlink:href="#DejaVuSans-Oblique-71"/>
      <use xlink:href="#DejaVuSans-30" transform="translate(63.476562 -16.40625)scale(0.7)"/>
     </g>
    </g>
   </g>
   <g id="text_3">
    <g clip-path="url(#p89474701d9)">
     <!-- ${q}_{1}$ -->
     <g transform="translate(248.380562 163.017774)scale(0.1625 -0.1625)">
      <use xlink:href="#DejaVuSans-Oblique-71"/>
      <use xlink:href="#DejaVuSans-31" transform="translate(63.476562 -16.40625)scale(0.7)"/>
     </g>
    </g>
   </g>
   <g id="text_4">
    <g clip-path="url(#p89474701d9)">
     <!-- ${q}_{2}$ -->
     <g transform="translate(248.380562 209.371774)scale(0.1625 -0.1625)">
      <use xlink:href="#DejaVuSans-Oblique-71"/>
      <use xlink:href="#DejaVuSans-32" transform="translate(63.476562 -16.40625)scale(0.7)"/>
     </g>
    </g>
   </g>
   <g id="text_5">
    <g clip-path="url(#p89474701d9)">
     <!-- ${q}_{3}$ -->
     <g transform="translate(248.380562 255.725773)scale(0.1625 -0.1625)">
      <defs>
       <path id="DejaVuSans-33" d="M 2597 2516 
Q 3050 2419 3304 2112 
Q 3559 1806 3559 1356 
Q 3559 666 3084 287 
Q 2609 -91 1734 -91 
Q 1441 -91 1130 -33 
Q 819 25 488 141 
L 488 750 
Q 750 597 1062 519 
Q 1375 441 1716 441 
Q 2309 441 2620 675 
Q 2931 909 2931 1356 
Q 2931 1769 2642 2001 
Q 2353 2234 1838 2234 
L 1294 2234 
L 1294 2753 
L 1863 2753 
Q 2328 2753 2575 2939 
Q 2822 3125 2822 3475 
Q 2822 3834 2567 4026 
Q 2313 4219 1838 4219 
Q 1578 4219 1281 4162 
Q 984 4106 628 3988 
L 628 4550 
Q 988 4650 1302 4700 
Q 1616 4750 1894 4750 
Q 2613 4750 3031 4423 
Q 3450 4097 3450 3541 
Q 3450 3153 3228 2886 
Q 3006 2619 2597 2516 
z
" transform="scale(0.015625)"/>
      </defs>
      <use xlink:href="#DejaVuSans-Oblique-71"/>
      <use xlink:href="#DejaVuSans-33" transform="translate(63.476562 -16.40625)scale(0.7)"/>
     </g>
    </g>
   </g>
   <g id="text_6">
    <g clip-path="url(#p89474701d9)">
     <!-- ${q}_{4}$ -->
     <g transform="translate(248.380562 302.079773)scale(0.1625 -0.1625)">
      <defs>
       <path id="DejaVuSans-34" d="M 2419 4116 
L 825 1625 
L 2419 1625 
L 2419 4116 
z
M 2253 4666 
L 3047 4666 
L 3047 1625 
L 3713 1625 
L 3713 1100 
L 3047 1100 
L 3047 0 
L 2419 0 
L 2419 1100 
L 313 1100 
L 313 1709 
L 2253 4666 
z
" transform="scale(0.015625)"/>
      </defs>
      <use xlink:href="#DejaVuSans-Oblique-71"/>
      <use xlink:href="#DejaVuSans-34" transform="translate(63.476562 -16.40625)scale(0.7)"/>
     </g>
    </g>
   </g>
   <g id="text_7">
    <g clip-path="url(#p89474701d9)">
     <!-- ${q}_{5}$ -->
     <g transform="translate(248.380562 348.433772)scale(0.1625 -0.1625)">
      <defs>
       <path id="DejaVuSans-35" d="M 691 4666 
L 3169 4666 
L 3169 4134 
L 1269 4134 
L 1269 2991 
Q 1406 3038 1543 3061 
Q 1681 3084 1819 3084 
Q 2600 3084 3056 2656 
Q 3513 2228 3513 1497 
Q 3513 744 3044 326 
Q 2575 -91 1722 -91 
Q 1428 -91 1123 -41 
Q 819 9 494 109 
L 494 744 
Q 775 591 1075 516 
Q 1375 441 1709 441 
Q 2250 441 2565 725 
Q 2881 1009 2881 1497 
Q 2881 1984 2565 2268 
Q 2250 2553 1709 2553 
Q 1456 2553 1204 2497 
Q 953 2441 691 2322 
L 691 4666 
z
" transform="scale(0.015625)"/>
      </defs>
      <use xlink:href="#DejaVuSans-Oblique-71"/>
      <use xlink:href="#DejaVuSans-35" transform="translate(63.476562 -16.40625)scale(0.7)"/>
     </g>
    </g>
   </g>
   <g id="text_8">
    <g clip-path="url(#p89474701d9)">
     <!-- ${q}_{6}$ -->
     <g transform="translate(248.380562 394.787771)scale(0.1625 -0.1625)">
      <defs>
       <path id="DejaVuSans-36" d="M 2113 2584 
Q 1688 2584 1439 2293 
Q 1191 2003 1191 1497 
Q 1191 994 1439 701 
Q 1688 409 2113 409 
Q 2538 409 2786 701 
Q 3034 994 3034 1497 
Q 3034 2003 2786 2293 
Q 2538 2584 2113 2584 
z
M 3366 4563 
L 3366 3988 
Q 3128 4100 2886 4159 
Q 2644 4219 2406 4219 
Q 1781 4219 1451 3797 
Q 1122 3375 1075 2522 
Q 1259 2794 1537 2939 
Q 1816 3084 2150 3084 
Q 2853 3084 3261 2657 
Q 3669 2231 3669 1497 
Q 3669 778 3244 343 
Q 2819 -91 2113 -91 
Q 1303 -91 875 529 
Q 447 1150 447 2328 
Q 447 3434 972 4092 
Q 1497 4750 2381 4750 
Q 2619 4750 2861 4703 
Q 3103 4656 3366 4563 
z
" transform="scale(0.015625)"/>
      </defs>
      <use xlink:href="#DejaVuSans-Oblique-71"/>
      <use xlink:href="#DejaVuSans-36" transform="translate(63.476562 -16.40625)scale(0.7)"/>
     </g>
    </g>
   </g>
   <g id="text_9">
    <g clip-path="url(#p89474701d9)">
     <!-- ${q}_{7}$ -->
     <g transform="translate(248.380562 441.141771)scale(0.1625 -0.1625)">
      <defs>
       <path id="DejaVuSans-37" d="M 525 4666 
L 3525 4666 
L 3525 4397 
L 1831 0 
L 1172 0 
L 2766 4134 
L 525 4134 
L 525 4666 
z
" transform="scale(0.015625)"/>
      </defs>
      <use xlink:href="#DejaVuSans-Oblique-71"/>
      <use xlink:href="#DejaVuSans-37" transform="translate(63.476562 -16.40625)scale(0.7)"/>
     </g>
    </g>
   </g>
   <g id="text_10">
    <g clip-path="url(#p89474701d9)">
     <!-- ${q}_{8}$ -->
     <g transform="translate(248.380562 487.49577)scale(0.1625 -0.1625)">
      <use xlink:href="#DejaVuSans-Oblique-71"/>
      <use xlink:href="#DejaVuSans-38" transform="translate(63.476562 -16.40625)scale(0.7)"/>
     </g>
    </g>
   </g>
   <g id="text_11">
    <g clip-path="url(#p89474701d9)">
     <!-- ${q}_{9}$ -->
     <g transform="translate(248.380562 533.84977)scale(0.1625 -0.1625)">
      <defs>
       <path id="DejaVuSans-39" d="M 703 97 
L 703 672 
Q 941 559 1184 500 
Q 1428 441 1663 441 
Q 2288 441 2617 861 
Q 2947 1281 2994 2138 
Q 2813 1869 2534 1725 
Q 2256 1581 1919 1581 
Q 1219 1581 811 2004 
Q 403 2428 403 3163 
Q 403 3881 828 4315 
Q 1253 4750 1959 4750 
Q 2769 4750 3195 4129 
Q 3622 3509 3622 2328 
Q 3622 1225 3098 567 
Q 2575 -91 1691 -91 
Q 1453 -91 1209 -44 
Q 966 3 703 97 
z
M 1959 2075 
Q 2384 2075 2632 2365 
Q 2881 2656 2881 3163 
Q 2881 3666 2632 3958 
Q 2384 4250 1959 4250 
Q 1534 4250 1286 3958 
Q 1038 3666 1038 3163 
Q 1038 2656 1286 2365 
Q 1534 2075 1959 2075 
z
" transform="scale(0.015625)"/>
      </defs>
      <use xlink:href="#DejaVuSans-Oblique-71"/>
      <use xlink:href="#DejaVuSans-39" transform="translate(63.476562 -16.40625)scale(0.7)"/>
     </g>
    </g>
   </g>
   <g id="text_12">
    <g clip-path="url(#p89474701d9)">
     <!-- S -->
     <g transform="translate(296.593537 115.799986)scale(0.13 -0.13)">
      <use xlink:href="#DejaVuSans-53"/>
     </g>
    </g>
   </g>
   <g id="text_13">
    <g clip-path="url(#p89474701d9)">
     <!-- S -->
     <g transform="translate(296.593537 301.215984)scale(0.13 -0.13)">
      <use xlink:href="#DejaVuSans-53"/>
     </g>
    </g>
   </g>
   <g id="text_14">
    <g clip-path="url(#p89474701d9)">
     <!-- S -->
     <g transform="translate(296.593537 486.631981)scale(0.13 -0.13)">
      <use xlink:href="#DejaVuSans-53"/>
     </g>
    </g>
   </g>
   <g id="line2d_33">
    <path d="M 300.720022 350.008815 
L 300.720022 337.956776 
" clip-path="url(#p89474701d9)" style="fill: none; stroke: #ffffff; stroke-width: 2; stroke-linecap: square"/>
   </g>
   <g id="line2d_34">
    <path d="M 294.694002 343.982795 
L 306.746042 343.982795 
" clip-path="url(#p89474701d9)" style="fill: none; stroke: #ffffff; stroke-width: 2; stroke-linecap: square"/>
   </g>
   <g id="text_15">
    <g clip-path="url(#p89474701d9)">
     <!-- H -->
     <g transform="translate(342.185818 115.799986)scale(0.13 -0.13)">
      <use xlink:href="#DejaVuSans-48"/>
     </g>
    </g>
   </g>
   <g id="text_16">
    <g clip-path="url(#p89474701d9)">
     <!-- H -->
     <g transform="translate(342.185818 301.215984)scale(0.13 -0.13)">
      <use xlink:href="#DejaVuSans-48"/>
     </g>
    </g>
   </g>
   <g id="text_17">
    <g clip-path="url(#p89474701d9)">
     <!-- H -->
     <g transform="translate(342.185818 486.631981)scale(0.13 -0.13)">
      <use xlink:href="#DejaVuSans-48"/>
     </g>
    </g>
   </g>
   <g id="text_18">
    <g clip-path="url(#p89474701d9)">
     <!-- 0.125 -->
     <g transform="translate(335.622771 355.229325)scale(0.08 -0.08)">
      <defs>
       <path id="DejaVuSans-2e" d="M 684 794 
L 1344 794 
L 1344 0 
L 684 0 
L 684 794 
z
" transform="scale(0.015625)"/>
      </defs>
      <use xlink:href="#DejaVuSans-30"/>
      <use xlink:href="#DejaVuSans-2e" x="63.623047"/>
      <use xlink:href="#DejaVuSans-31" x="95.410156"/>
      <use xlink:href="#DejaVuSans-32" x="159.033203"/>
      <use xlink:href="#DejaVuSans-35" x="222.65625"/>
     </g>
    </g>
   </g>
   <g id="text_19">
    <g clip-path="url(#p89474701d9)">
     <!-- $\mathrm{R_Z}$ -->
     <g transform="translate(339.144021 343.050468)scale(0.13 -0.13)">
      <defs>
       <path id="DejaVuSans-5a" d="M 359 4666 
L 4025 4666 
L 4025 4184 
L 1075 531 
L 4097 531 
L 4097 0 
L 288 0 
L 288 481 
L 3238 4134 
L 359 4134 
L 359 4666 
z
" transform="scale(0.015625)"/>
      </defs>
      <use xlink:href="#DejaVuSans-52" transform="translate(0 0.09375)"/>
      <use xlink:href="#DejaVuSans-5a" transform="translate(70.439453 -16.3125)scale(0.7)"/>
     </g>
    </g>
   </g>
   <g id="line2d_35">
    <path d="M 393.42802 442.716814 
L 393.42802 430.664774 
" clip-path="url(#p89474701d9)" style="fill: none; stroke: #ffffff; stroke-width: 2; stroke-linecap: square"/>
   </g>
   <g id="line2d_36">
    <path d="M 387.402 436.690794 
L 399.45404 436.690794 
" clip-path="url(#p89474701d9)" style="fill: none; stroke: #ffffff; stroke-width: 2; stroke-linecap: square"/>
   </g>
   <g id="line2d_37">
    <path d="M 393.42802 535.424813 
L 393.42802 523.372773 
" clip-path="url(#p89474701d9)" style="fill: none; stroke: #ffffff; stroke-width: 2; stroke-linecap: square"/>
   </g>
   <g id="line2d_38">
    <path d="M 387.402 529.398793 
L 399.45404 529.398793 
" clip-path="url(#p89474701d9)" style="fill: none; stroke: #ffffff; stroke-width: 2; stroke-linecap: square"/>
   </g>
   <g id="line2d_39">
    <path d="M 439.78202 350.008815 
L 439.78202 337.956776 
" clip-path="url(#p89474701d9)" style="fill: none; stroke: #ffffff; stroke-width: 2; stroke-linecap: square"/>
   </g>
   <g id="line2d_40">
    <path d="M 433.756 343.982795 
L 445.80804 343.982795 
" clip-path="url(#p89474701d9)" style="fill: none; stroke: #ffffff; stroke-width: 2; stroke-linecap: square"/>
   </g>
   <g id="line2d_41">
    <path d="M 486.136019 442.716814 
L 486.136019 430.664774 
" clip-path="url(#p89474701d9)" style="fill: none; stroke: #ffffff; stroke-width: 2; stroke-linecap: square"/>
   </g>
   <g id="line2d_42">
    <path d="M 480.109999 436.690794 
L 492.162039 436.690794 
" clip-path="url(#p89474701d9)" style="fill: none; stroke: #ffffff; stroke-width: 2; stroke-linecap: square"/>
   </g>
   <g id="line2d_43">
    <path d="M 532.490019 442.716814 
L 532.490019 430.664774 
" clip-path="url(#p89474701d9)" style="fill: none; stroke: #ffffff; stroke-width: 2; stroke-linecap: square"/>
   </g>
   <g id="line2d_44">
    <path d="M 526.463999 436.690794 
L 538.516038 436.690794 
" clip-path="url(#p89474701d9)" style="fill: none; stroke: #ffffff; stroke-width: 2; stroke-linecap: square"/>
   </g>
   <g id="line2d_45">
    <path d="M 578.844018 442.716814 
L 578.844018 430.664774 
" clip-path="url(#p89474701d9)" style="fill: none; stroke: #ffffff; stroke-width: 2; stroke-linecap: square"/>
   </g>
   <g id="line2d_46">
    <path d="M 572.817998 436.690794 
L 584.870038 436.690794 
" clip-path="url(#p89474701d9)" style="fill: none; stroke: #ffffff; stroke-width: 2; stroke-linecap: square"/>
   </g>
   <g id="line2d_47">
    <path d="M 625.198017 442.716814 
L 625.198017 430.664774 
" clip-path="url(#p89474701d9)" style="fill: none; stroke: #ffffff; stroke-width: 2; stroke-linecap: square"/>
   </g>
   <g id="line2d_48">
    <path d="M 619.171997 436.690794 
L 631.224037 436.690794 
" clip-path="url(#p89474701d9)" style="fill: none; stroke: #ffffff; stroke-width: 2; stroke-linecap: square"/>
   </g>
   <g id="text_20">
    <g clip-path="url(#p89474701d9)">
     <!-- 0.00546 -->
     <g transform="translate(655.010767 447.937324)scale(0.08 -0.08)">
      <use xlink:href="#DejaVuSans-30"/>
      <use xlink:href="#DejaVuSans-2e" x="63.623047"/>
      <use xlink:href="#DejaVuSans-30" x="95.410156"/>
      <use xlink:href="#DejaVuSans-30" x="159.033203"/>
      <use xlink:href="#DejaVuSans-35" x="222.65625"/>
      <use xlink:href="#DejaVuSans-34" x="286.279297"/>
      <use xlink:href="#DejaVuSans-36" x="349.902344"/>
     </g>
    </g>
   </g>
   <g id="text_21">
    <g clip-path="url(#p89474701d9)">
     <!-- $\mathrm{R_Z}$ -->
     <g transform="translate(663.622017 435.758467)scale(0.13 -0.13)">
      <use xlink:href="#DejaVuSans-52" transform="translate(0 0.09375)"/>
      <use xlink:href="#DejaVuSans-5a" transform="translate(70.439453 -16.3125)scale(0.7)"/>
     </g>
    </g>
   </g>
   <g id="line2d_49">
    <path d="M 717.906016 442.716814 
L 717.906016 430.664774 
" clip-path="url(#p89474701d9)" style="fill: none; stroke: #ffffff; stroke-width: 2; stroke-linecap: square"/>
   </g>
   <g id="line2d_50">
    <path d="M 711.879996 436.690794 
L 723.932036 436.690794 
" clip-path="url(#p89474701d9)" style="fill: none; stroke: #ffffff; stroke-width: 2; stroke-linecap: square"/>
   </g>
   <g id="text_22">
    <g clip-path="url(#p89474701d9)">
     <!-- H -->
     <g transform="translate(759.371812 301.215984)scale(0.13 -0.13)">
      <use xlink:href="#DejaVuSans-48"/>
     </g>
    </g>
   </g>
   <g id="line2d_51">
    <path d="M 810.614015 442.716814 
L 810.614015 430.664774 
" clip-path="url(#p89474701d9)" style="fill: none; stroke: #ffffff; stroke-width: 2; stroke-linecap: square"/>
   </g>
   <g id="line2d_52">
    <path d="M 804.587995 436.690794 
L 816.640035 436.690794 
" clip-path="url(#p89474701d9)" style="fill: none; stroke: #ffffff; stroke-width: 2; stroke-linecap: square"/>
   </g>
   <g id="text_23">
    <g clip-path="url(#p89474701d9)">
     <!-- $\mathrm{S^\dagger}$ -->
     <g transform="translate(848.518014 301.215984)scale(0.13 -0.13)">
      <defs>
       <path id="DejaVuSans-2020" d="M 1325 4666 
L 1875 4666 
L 1875 3353 
L 3022 3353 
L 3022 2875 
L 1875 2875 
L 1875 -616 
L 1325 -616 
L 1325 2875 
L 178 2875 
L 178 3353 
L 1325 3353 
L 1325 4666 
z
" transform="scale(0.015625)"/>
      </defs>
      <use xlink:href="#DejaVuSans-53" transform="translate(0 0.684375)"/>
      <use xlink:href="#DejaVuSans-2020" transform="translate(78.071289 38.965625)scale(0.7)"/>
     </g>
    </g>
   </g>
   <g id="line2d_53">
    <path d="M 903.322014 442.716814 
L 903.322014 430.664774 
" clip-path="url(#p89474701d9)" style="fill: none; stroke: #ffffff; stroke-width: 2; stroke-linecap: square"/>
   </g>
   <g id="line2d_54">
    <path d="M 897.295994 436.690794 
L 909.348034 436.690794 
" clip-path="url(#p89474701d9)" style="fill: none; stroke: #ffffff; stroke-width: 2; stroke-linecap: square"/>
   </g>
   <g id="line2d_55">
    <path d="M 949.676013 442.716814 
L 949.676013 430.664774 
" clip-path="url(#p89474701d9)" style="fill: none; stroke: #ffffff; stroke-width: 2; stroke-linecap: square"/>
   </g>
   <g id="line2d_56">
    <path d="M 943.649993 436.690794 
L 955.702033 436.690794 
" clip-path="url(#p89474701d9)" style="fill: none; stroke: #ffffff; stroke-width: 2; stroke-linecap: square"/>
   </g>
   <g id="line2d_57">
    <path d="M 996.030012 442.716814 
L 996.030012 430.664774 
" clip-path="url(#p89474701d9)" style="fill: none; stroke: #ffffff; stroke-width: 2; stroke-linecap: square"/>
   </g>
   <g id="line2d_58">
    <path d="M 990.003992 436.690794 
L 1002.056032 436.690794 
" clip-path="url(#p89474701d9)" style="fill: none; stroke: #ffffff; stroke-width: 2; stroke-linecap: square"/>
   </g>
   <g id="line2d_59">
    <path d="M 1042.384012 535.424813 
L 1042.384012 523.372773 
" clip-path="url(#p89474701d9)" style="fill: none; stroke: #ffffff; stroke-width: 2; stroke-linecap: square"/>
   </g>
   <g id="line2d_60">
    <path d="M 1036.357992 529.398793 
L 1048.410032 529.398793 
" clip-path="url(#p89474701d9)" style="fill: none; stroke: #ffffff; stroke-width: 2; stroke-linecap: square"/>
   </g>
   <g id="text_24">
    <g clip-path="url(#p89474701d9)">
     <!-- H -->
     <g transform="translate(1037.495809 115.799986)scale(0.13 -0.13)">
      <use xlink:href="#DejaVuSans-48"/>
     </g>
    </g>
   </g>
   <g id="text_25">
    <g clip-path="url(#p89474701d9)">
     <!-- $-$0.00236 -->
     <g transform="translate(1068.818011 540.645323)scale(0.08 -0.08)">
      <defs>
       <path id="DejaVuSans-2212" d="M 678 2272 
L 4684 2272 
L 4684 1741 
L 678 1741 
L 678 2272 
z
" transform="scale(0.015625)"/>
      </defs>
      <use xlink:href="#DejaVuSans-2212" transform="translate(0 0.78125)"/>
      <use xlink:href="#DejaVuSans-30" transform="translate(83.789062 0.78125)"/>
      <use xlink:href="#DejaVuSans-2e" transform="translate(147.412109 0.78125)"/>
      <use xlink:href="#DejaVuSans-30" transform="translate(179.199219 0.78125)"/>
      <use xlink:href="#DejaVuSans-30" transform="translate(242.822266 0.78125)"/>
      <use xlink:href="#DejaVuSans-32" transform="translate(306.445312 0.78125)"/>
      <use xlink:href="#DejaVuSans-33" transform="translate(370.068359 0.78125)"/>
      <use xlink:href="#DejaVuSans-36" transform="translate(433.691406 0.78125)"/>
     </g>
    </g>
   </g>
   <g id="text_26">
    <g clip-path="url(#p89474701d9)">
     <!-- $\mathrm{R_Z}$ -->
     <g transform="translate(1080.808011 528.466466)scale(0.13 -0.13)">
      <use xlink:href="#DejaVuSans-52" transform="translate(0 0.09375)"/>
      <use xlink:href="#DejaVuSans-5a" transform="translate(70.439453 -16.3125)scale(0.7)"/>
     </g>
    </g>
   </g>
   <g id="line2d_61">
    <path d="M 1088.738011 210.946817 
L 1088.738011 198.894777 
" clip-path="url(#p89474701d9)" style="fill: none; stroke: #ffffff; stroke-width: 2; stroke-linecap: square"/>
   </g>
   <g id="line2d_62">
    <path d="M 1082.711991 204.920797 
L 1094.764031 204.920797 
" clip-path="url(#p89474701d9)" style="fill: none; stroke: #ffffff; stroke-width: 2; stroke-linecap: square"/>
   </g>
   <g id="text_27">
    <g clip-path="url(#p89474701d9)">
     <!-- $\mathrm{S^\dagger}$ -->
     <g transform="translate(1080.288011 115.799986)scale(0.13 -0.13)">
      <use xlink:href="#DejaVuSans-53" transform="translate(0 0.684375)"/>
      <use xlink:href="#DejaVuSans-2020" transform="translate(78.071289 38.965625)scale(0.7)"/>
     </g>
    </g>
   </g>
   <g id="line2d_63">
    <path d="M 1135.092011 535.424813 
L 1135.092011 523.372773 
" clip-path="url(#p89474701d9)" style="fill: none; stroke: #ffffff; stroke-width: 2; stroke-linecap: square"/>
   </g>
   <g id="line2d_64">
    <path d="M 1129.065991 529.398793 
L 1141.11803 529.398793 
" clip-path="url(#p89474701d9)" style="fill: none; stroke: #ffffff; stroke-width: 2; stroke-linecap: square"/>
   </g>
   <g id="text_28">
    <g clip-path="url(#p89474701d9)">
     <!-- 0.156 -->
     <g transform="translate(1169.99476 216.167327)scale(0.08 -0.08)">
      <use xlink:href="#DejaVuSans-30"/>
      <use xlink:href="#DejaVuSans-2e" x="63.623047"/>
      <use xlink:href="#DejaVuSans-31" x="95.410156"/>
      <use xlink:href="#DejaVuSans-35" x="159.033203"/>
      <use xlink:href="#DejaVuSans-36" x="222.65625"/>
     </g>
    </g>
   </g>
   <g id="text_29">
    <g clip-path="url(#p89474701d9)">
     <!-- $\mathrm{R_Z}$ -->
     <g transform="translate(1173.51601 203.98847)scale(0.13 -0.13)">
      <use xlink:href="#DejaVuSans-52" transform="translate(0 0.09375)"/>
      <use xlink:href="#DejaVuSans-5a" transform="translate(70.439453 -16.3125)scale(0.7)"/>
     </g>
    </g>
   </g>
   <g id="line2d_65">
    <path d="M 1181.44601 535.424813 
L 1181.44601 523.372773 
" clip-path="url(#p89474701d9)" style="fill: none; stroke: #ffffff; stroke-width: 2; stroke-linecap: square"/>
   </g>
   <g id="line2d_66">
    <path d="M 1175.41999 529.398793 
L 1187.47203 529.398793 
" clip-path="url(#p89474701d9)" style="fill: none; stroke: #ffffff; stroke-width: 2; stroke-linecap: square"/>
   </g>
   <g id="line2d_67">
    <path d="M 1227.800009 210.946817 
L 1227.800009 198.894777 
" clip-path="url(#p89474701d9)" style="fill: none; stroke: #ffffff; stroke-width: 2; stroke-linecap: square"/>
   </g>
   <g id="line2d_68">
    <path d="M 1221.773989 204.920797 
L 1233.826029 204.920797 
" clip-path="url(#p89474701d9)" style="fill: none; stroke: #ffffff; stroke-width: 2; stroke-linecap: square"/>
   </g>
   <g id="text_30">
    <g clip-path="url(#p89474701d9)">
     <!-- H -->
     <g transform="translate(1222.911806 486.631981)scale(0.13 -0.13)">
      <use xlink:href="#DejaVuSans-48"/>
     </g>
    </g>
   </g>
   <g id="line2d_69">
    <path d="M 1274.154009 257.300817 
L 1274.154009 245.248777 
" clip-path="url(#p89474701d9)" style="fill: none; stroke: #ffffff; stroke-width: 2; stroke-linecap: square"/>
   </g>
   <g id="line2d_70">
    <path d="M 1268.127989 251.274797 
L 1280.180029 251.274797 
" clip-path="url(#p89474701d9)" style="fill: none; stroke: #ffffff; stroke-width: 2; stroke-linecap: square"/>
   </g>
   <g id="text_31">
    <g clip-path="url(#p89474701d9)">
     <!-- $\mathrm{S^\dagger}$ -->
     <g transform="translate(1265.704009 486.631981)scale(0.13 -0.13)">
      <use xlink:href="#DejaVuSans-53" transform="translate(0 0.684375)"/>
      <use xlink:href="#DejaVuSans-2020" transform="translate(78.071289 38.965625)scale(0.7)"/>
     </g>
    </g>
   </g>
   <g id="text_32">
    <g clip-path="url(#p89474701d9)">
     <!-- 0.108 -->
     <g transform="translate(1309.056758 262.521327)scale(0.08 -0.08)">
      <use xlink:href="#DejaVuSans-30"/>
      <use xlink:href="#DejaVuSans-2e" x="63.623047"/>
      <use xlink:href="#DejaVuSans-31" x="95.410156"/>
      <use xlink:href="#DejaVuSans-30" x="159.033203"/>
      <use xlink:href="#DejaVuSans-38" x="222.65625"/>
     </g>
    </g>
   </g>
   <g id="text_33">
    <g clip-path="url(#p89474701d9)">
     <!-- $\mathrm{R_Z}$ -->
     <g transform="translate(1312.578008 250.342469)scale(0.13 -0.13)">
      <use xlink:href="#DejaVuSans-52" transform="translate(0 0.09375)"/>
      <use xlink:href="#DejaVuSans-5a" transform="translate(70.439453 -16.3125)scale(0.7)"/>
     </g>
    </g>
   </g>
   <g id="line2d_71">
    <path d="M 1366.862007 257.300817 
L 1366.862007 245.248777 
" clip-path="url(#p89474701d9)" style="fill: none; stroke: #ffffff; stroke-width: 2; stroke-linecap: square"/>
   </g>
   <g id="line2d_72">
    <path d="M 1360.835988 251.274797 
L 1372.888027 251.274797 
" clip-path="url(#p89474701d9)" style="fill: none; stroke: #ffffff; stroke-width: 2; stroke-linecap: square"/>
   </g>
   <g id="line2d_73">
    <path d="M 1413.216007 442.716814 
L 1413.216007 430.664774 
" clip-path="url(#p89474701d9)" style="fill: none; stroke: #ffffff; stroke-width: 2; stroke-linecap: square"/>
   </g>
   <g id="line2d_74">
    <path d="M 1407.189987 436.690794 
L 1419.242027 436.690794 
" clip-path="url(#p89474701d9)" style="fill: none; stroke: #ffffff; stroke-width: 2; stroke-linecap: square"/>
   </g>
   <g id="text_34">
    <g clip-path="url(#p89474701d9)">
     <!-- 0.135 -->
     <g transform="translate(1448.118756 447.937324)scale(0.08 -0.08)">
      <use xlink:href="#DejaVuSans-30"/>
      <use xlink:href="#DejaVuSans-2e" x="63.623047"/>
      <use xlink:href="#DejaVuSans-31" x="95.410156"/>
      <use xlink:href="#DejaVuSans-33" x="159.033203"/>
      <use xlink:href="#DejaVuSans-35" x="222.65625"/>
     </g>
    </g>
   </g>
   <g id="text_35">
    <g clip-path="url(#p89474701d9)">
     <!-- $\mathrm{R_Z}$ -->
     <g transform="translate(1451.640006 435.758467)scale(0.13 -0.13)">
      <use xlink:href="#DejaVuSans-52" transform="translate(0 0.09375)"/>
      <use xlink:href="#DejaVuSans-5a" transform="translate(70.439453 -16.3125)scale(0.7)"/>
     </g>
    </g>
   </g>
   <g id="line2d_75">
    <path d="M 1505.924006 442.716814 
L 1505.924006 430.664774 
" clip-path="url(#p89474701d9)" style="fill: none; stroke: #ffffff; stroke-width: 2; stroke-linecap: square"/>
   </g>
   <g id="line2d_76">
    <path d="M 1499.897986 436.690794 
L 1511.950026 436.690794 
" clip-path="url(#p89474701d9)" style="fill: none; stroke: #ffffff; stroke-width: 2; stroke-linecap: square"/>
   </g>
  </g>
 </g>
 <defs>
  <clipPath id="p89474701d9">
   <rect x="218.279665" y="75.129599" width="1318.23798" height="482.081594"/>
  </clipPath>
 </defs>
</svg>
