<?xml version="1.0" encoding="utf-8" standalone="no"?>
<!DOCTYPE svg PUBLIC "-//W3C//DTD SVG 1.1//EN"
  "http://www.w3.org/Graphics/SVG/1.1/DTD/svg11.dtd">
<svg xmlns:xlink="http://www.w3.org/1999/xlink" width="1711.997376pt" height="626.079992pt" viewBox="0 0 1711.997376 626.079992" xmlns="http://www.w3.org/2000/svg" version="1.1">
 <metadata>
  <rdf:RDF xmlns:dc="http://purl.org/dc/elements/1.1/" xmlns:cc="http://creativecommons.org/ns#" xmlns:rdf="http://www.w3.org/1999/02/22-rdf-syntax-ns#">
   <cc:Work>
    <dc:type rdf:resource="http://purl.org/dc/dcmitype/StillImage"/>
    <dc:date>2022-05-22T14:31:04.496437</dc:date>
    <dc:format>image/svg+xml</dc:format>
    <dc:creator>
     <cc:Agent>
      <dc:title>Matplotlib v3.5.1, https://matplotlib.org/</dc:title>
     </cc:Agent>
    </dc:creator>
   </cc:Work>
  </rdf:RDF>
 </metadata>
 <defs>
  <style type="text/css">*{stroke-linejoin: round; stroke-linecap: butt}</style>
 </defs>
 <g id="figure_1">
  <g id="patch_1">
   <path d="M 0 626.079992 
L 1711.997376 626.079992 
L 1711.997376 0 
L 0 0 
z
" style="fill: #ffffff"/>
  </g>
  <g id="axes_1">
   <g id="line2d_1">
    <path d="M 275.688862 112.212799 
L 1531.882245 112.212799 
" clip-path="url(#p40dafb146e)" style="fill: none; stroke: #000000; stroke-width: 2; stroke-linecap: square"/>
   </g>
   <g id="line2d_2">
    <path d="M 275.688862 158.566798 
L 1531.882245 158.566798 
" clip-path="url(#p40dafb146e)" style="fill: none; stroke: #000000; stroke-width: 2; stroke-linecap: square"/>
   </g>
   <g id="line2d_3">
    <path d="M 275.688862 204.920797 
L 1531.882245 204.920797 
" clip-path="url(#p40dafb146e)" style="fill: none; stroke: #000000; stroke-width: 2; stroke-linecap: square"/>
   </g>
   <g id="line2d_4">
    <path d="M 275.688862 251.274797 
L 1531.882245 251.274797 
" clip-path="url(#p40dafb146e)" style="fill: none; stroke: #000000; stroke-width: 2; stroke-linecap: square"/>
   </g>
   <g id="line2d_5">
    <path d="M 275.688862 297.628796 
L 1531.882245 297.628796 
" clip-path="url(#p40dafb146e)" style="fill: none; stroke: #000000; stroke-width: 2; stroke-linecap: square"/>
   </g>
   <g id="line2d_6">
    <path d="M 275.688862 343.982795 
L 1531.882245 343.982795 
" clip-path="url(#p40dafb146e)" style="fill: none; stroke: #000000; stroke-width: 2; stroke-linecap: square"/>
   </g>
   <g id="line2d_7">
    <path d="M 275.688862 390.336795 
L 1531.882245 390.336795 
" clip-path="url(#p40dafb146e)" style="fill: none; stroke: #000000; stroke-width: 2; stroke-linecap: square"/>
   </g>
   <g id="line2d_8">
    <path d="M 275.688862 436.690794 
L 1531.882245 436.690794 
" clip-path="url(#p40dafb146e)" style="fill: none; stroke: #000000; stroke-width: 2; stroke-linecap: square"/>
   </g>
   <g id="line2d_9">
    <path d="M 275.688862 483.044794 
L 1531.882245 483.044794 
" clip-path="url(#p40dafb146e)" style="fill: none; stroke: #000000; stroke-width: 2; stroke-linecap: square"/>
   </g>
   <g id="line2d_10">
    <path d="M 275.688862 529.398793 
L 1531.882245 529.398793 
" clip-path="url(#p40dafb146e)" style="fill: none; stroke: #000000; stroke-width: 2; stroke-linecap: square"/>
   </g>
   <g id="line2d_11">
    <path d="M 300.720022 158.566798 
L 300.720022 112.212799 
" clip-path="url(#p40dafb146e)" style="fill: none; stroke: #000000; stroke-width: 2; stroke-linecap: square"/>
   </g>
   <g id="line2d_12">
    <path d="M 347.074021 204.920797 
L 347.074021 112.212799 
" clip-path="url(#p40dafb146e)" style="fill: none; stroke: #000000; stroke-width: 2; stroke-linecap: square"/>
   </g>
   <g id="line2d_13">
    <path d="M 347.074021 529.398793 
L 347.074021 436.690794 
" clip-path="url(#p40dafb146e)" style="fill: none; stroke: #000000; stroke-width: 2; stroke-linecap: square"/>
   </g>
   <g id="line2d_14">
    <path d="M 393.42802 251.274797 
L 393.42802 112.212799 
" clip-path="url(#p40dafb146e)" style="fill: none; stroke: #000000; stroke-width: 2; stroke-linecap: square"/>
   </g>
   <g id="line2d_15">
    <path d="M 393.42802 483.044794 
L 393.42802 436.690794 
" clip-path="url(#p40dafb146e)" style="fill: none; stroke: #000000; stroke-width: 2; stroke-linecap: square"/>
   </g>
   <g id="line2d_16">
    <path d="M 439.78202 297.628796 
L 439.78202 112.212799 
" clip-path="url(#p40dafb146e)" style="fill: none; stroke: #000000; stroke-width: 2; stroke-linecap: square"/>
   </g>
   <g id="line2d_17">
    <path d="M 486.136019 529.398793 
L 486.136019 436.690794 
" clip-path="url(#p40dafb146e)" style="fill: none; stroke: #000000; stroke-width: 2; stroke-linecap: square"/>
   </g>
   <g id="line2d_18">
    <path d="M 532.490019 297.628796 
L 532.490019 112.212799 
" clip-path="url(#p40dafb146e)" style="fill: none; stroke: #000000; stroke-width: 2; stroke-linecap: square"/>
   </g>
   <g id="line2d_19">
    <path d="M 532.490019 483.044794 
L 532.490019 436.690794 
" clip-path="url(#p40dafb146e)" style="fill: none; stroke: #000000; stroke-width: 2; stroke-linecap: square"/>
   </g>
   <g id="line2d_20">
    <path d="M 578.844018 251.274797 
L 578.844018 112.212799 
" clip-path="url(#p40dafb146e)" style="fill: none; stroke: #000000; stroke-width: 2; stroke-linecap: square"/>
   </g>
   <g id="line2d_21">
    <path d="M 625.198017 204.920797 
L 625.198017 112.212799 
" clip-path="url(#p40dafb146e)" style="fill: none; stroke: #000000; stroke-width: 2; stroke-linecap: square"/>
   </g>
   <g id="line2d_22">
    <path d="M 625.198017 483.044794 
L 625.198017 436.690794 
" clip-path="url(#p40dafb146e)" style="fill: none; stroke: #000000; stroke-width: 2; stroke-linecap: square"/>
   </g>
   <g id="line2d_23">
    <path d="M 671.552017 158.566798 
L 671.552017 112.212799 
" clip-path="url(#p40dafb146e)" style="fill: none; stroke: #000000; stroke-width: 2; stroke-linecap: square"/>
   </g>
   <g id="line2d_24">
    <path d="M 671.552017 297.628796 
L 671.552017 251.274797 
" clip-path="url(#p40dafb146e)" style="fill: none; stroke: #000000; stroke-width: 2; stroke-linecap: square"/>
   </g>
   <g id="line2d_25">
    <path d="M 717.906016 529.398793 
L 717.906016 436.690794 
" clip-path="url(#p40dafb146e)" style="fill: none; stroke: #000000; stroke-width: 2; stroke-linecap: square"/>
   </g>
   <g id="line2d_26">
    <path d="M 717.906016 297.628796 
L 717.906016 204.920797 
" clip-path="url(#p40dafb146e)" style="fill: none; stroke: #000000; stroke-width: 2; stroke-linecap: square"/>
   </g>
   <g id="line2d_27">
    <path d="M 764.260015 297.628796 
L 764.260015 158.566798 
" clip-path="url(#p40dafb146e)" style="fill: none; stroke: #000000; stroke-width: 2; stroke-linecap: square"/>
   </g>
   <g id="line2d_28">
    <path d="M 810.614015 297.628796 
L 810.614015 112.212799 
" clip-path="url(#p40dafb146e)" style="fill: none; stroke: #000000; stroke-width: 2; stroke-linecap: square"/>
   </g>
   <g id="line2d_29">
    <path d="M 903.322014 297.628796 
L 903.322014 112.212799 
" clip-path="url(#p40dafb146e)" style="fill: none; stroke: #000000; stroke-width: 2; stroke-linecap: square"/>
   </g>
   <g id="line2d_30">
    <path d="M 949.676013 297.628796 
L 949.676013 158.566798 
" clip-path="url(#p40dafb146e)" style="fill: none; stroke: #000000; stroke-width: 2; stroke-linecap: square"/>
   </g>
   <g id="line2d_31">
    <path d="M 996.030012 297.628796 
L 996.030012 204.920797 
" clip-path="url(#p40dafb146e)" style="fill: none; stroke: #000000; stroke-width: 2; stroke-linecap: square"/>
   </g>
   <g id="line2d_32">
    <path d="M 996.030012 158.566798 
L 996.030012 112.212799 
" clip-path="url(#p40dafb146e)" style="fill: none; stroke: #000000; stroke-width: 2; stroke-linecap: square"/>
   </g>
   <g id="line2d_33">
    <path d="M 1042.384012 297.628796 
L 1042.384012 251.274797 
" clip-path="url(#p40dafb146e)" style="fill: none; stroke: #000000; stroke-width: 2; stroke-linecap: square"/>
   </g>
   <g id="line2d_34">
    <path d="M 1042.384012 204.920797 
L 1042.384012 112.212799 
" clip-path="url(#p40dafb146e)" style="fill: none; stroke: #000000; stroke-width: 2; stroke-linecap: square"/>
   </g>
   <g id="line2d_35">
    <path d="M 1181.44601 251.274797 
L 1181.44601 112.212799 
" clip-path="url(#p40dafb146e)" style="fill: none; stroke: #000000; stroke-width: 2; stroke-linecap: square"/>
   </g>
   <g id="line2d_36">
    <path d="M 1227.800009 390.336795 
L 1227.800009 112.212799 
" clip-path="url(#p40dafb146e)" style="fill: none; stroke: #000000; stroke-width: 2; stroke-linecap: square"/>
   </g>
   <g id="line2d_37">
    <path d="M 1366.862007 390.336795 
L 1366.862007 112.212799 
" clip-path="url(#p40dafb146e)" style="fill: none; stroke: #000000; stroke-width: 2; stroke-linecap: square"/>
   </g>
   <g id="line2d_38">
    <path d="M 1413.216007 251.274797 
L 1413.216007 112.212799 
" clip-path="url(#p40dafb146e)" style="fill: none; stroke: #000000; stroke-width: 2; stroke-linecap: square"/>
   </g>
   <g id="line2d_39">
    <path d="M 1459.570006 204.920797 
L 1459.570006 112.212799 
" clip-path="url(#p40dafb146e)" style="fill: none; stroke: #000000; stroke-width: 2; stroke-linecap: square"/>
   </g>
   <g id="line2d_40">
    <path d="M 1505.924006 158.566798 
L 1505.924006 112.212799 
" clip-path="url(#p40dafb146e)" style="fill: none; stroke: #000000; stroke-width: 2; stroke-linecap: square"/>
   </g>
   <g id="text_1">
    <!-- TERMS: 4, DEPTH:26 -->
    <g transform="translate(815.366155 69.129599)scale(0.12 -0.12)">
     <defs>
      <path id="DejaVuSans-54" d="M -19 4666 
L 3928 4666 
L 3928 4134 
L 2272 4134 
L 2272 0 
L 1638 0 
L 1638 4134 
L -19 4134 
L -19 4666 
z
" transform="scale(0.015625)"/>
      <path id="DejaVuSans-45" d="M 628 4666 
L 3578 4666 
L 3578 4134 
L 1259 4134 
L 1259 2753 
L 3481 2753 
L 3481 2222 
L 1259 2222 
L 1259 531 
L 3634 531 
L 3634 0 
L 628 0 
L 628 4666 
z
" transform="scale(0.015625)"/>
      <path id="DejaVuSans-52" d="M 2841 2188 
Q 3044 2119 3236 1894 
Q 3428 1669 3622 1275 
L 4263 0 
L 3584 0 
L 2988 1197 
Q 2756 1666 2539 1819 
Q 2322 1972 1947 1972 
L 1259 1972 
L 1259 0 
L 628 0 
L 628 4666 
L 2053 4666 
Q 2853 4666 3247 4331 
Q 3641 3997 3641 3322 
Q 3641 2881 3436 2590 
Q 3231 2300 2841 2188 
z
M 1259 4147 
L 1259 2491 
L 2053 2491 
Q 2509 2491 2742 2702 
Q 2975 2913 2975 3322 
Q 2975 3731 2742 3939 
Q 2509 4147 2053 4147 
L 1259 4147 
z
" transform="scale(0.015625)"/>
      <path id="DejaVuSans-4d" d="M 628 4666 
L 1569 4666 
L 2759 1491 
L 3956 4666 
L 4897 4666 
L 4897 0 
L 4281 0 
L 4281 4097 
L 3078 897 
L 2444 897 
L 1241 4097 
L 1241 0 
L 628 0 
L 628 4666 
z
" transform="scale(0.015625)"/>
      <path id="DejaVuSans-53" d="M 3425 4513 
L 3425 3897 
Q 3066 4069 2747 4153 
Q 2428 4238 2131 4238 
Q 1616 4238 1336 4038 
Q 1056 3838 1056 3469 
Q 1056 3159 1242 3001 
Q 1428 2844 1947 2747 
L 2328 2669 
Q 3034 2534 3370 2195 
Q 3706 1856 3706 1288 
Q 3706 609 3251 259 
Q 2797 -91 1919 -91 
Q 1588 -91 1214 -16 
Q 841 59 441 206 
L 441 856 
Q 825 641 1194 531 
Q 1563 422 1919 422 
Q 2459 422 2753 634 
Q 3047 847 3047 1241 
Q 3047 1584 2836 1778 
Q 2625 1972 2144 2069 
L 1759 2144 
Q 1053 2284 737 2584 
Q 422 2884 422 3419 
Q 422 4038 858 4394 
Q 1294 4750 2059 4750 
Q 2388 4750 2728 4690 
Q 3069 4631 3425 4513 
z
" transform="scale(0.015625)"/>
      <path id="DejaVuSans-3a" d="M 750 794 
L 1409 794 
L 1409 0 
L 750 0 
L 750 794 
z
M 750 3309 
L 1409 3309 
L 1409 2516 
L 750 2516 
L 750 3309 
z
" transform="scale(0.015625)"/>
      <path id="DejaVuSans-20" transform="scale(0.015625)"/>
      <path id="DejaVuSans-34" d="M 2419 4116 
L 825 1625 
L 2419 1625 
L 2419 4116 
z
M 2253 4666 
L 3047 4666 
L 3047 1625 
L 3713 1625 
L 3713 1100 
L 3047 1100 
L 3047 0 
L 2419 0 
L 2419 1100 
L 313 1100 
L 313 1709 
L 2253 4666 
z
" transform="scale(0.015625)"/>
      <path id="DejaVuSans-2c" d="M 750 794 
L 1409 794 
L 1409 256 
L 897 -744 
L 494 -744 
L 750 256 
L 750 794 
z
" transform="scale(0.015625)"/>
      <path id="DejaVuSans-44" d="M 1259 4147 
L 1259 519 
L 2022 519 
Q 2988 519 3436 956 
Q 3884 1394 3884 2338 
Q 3884 3275 3436 3711 
Q 2988 4147 2022 4147 
L 1259 4147 
z
M 628 4666 
L 1925 4666 
Q 3281 4666 3915 4102 
Q 4550 3538 4550 2338 
Q 4550 1131 3912 565 
Q 3275 0 1925 0 
L 628 0 
L 628 4666 
z
" transform="scale(0.015625)"/>
      <path id="DejaVuSans-50" d="M 1259 4147 
L 1259 2394 
L 2053 2394 
Q 2494 2394 2734 2622 
Q 2975 2850 2975 3272 
Q 2975 3691 2734 3919 
Q 2494 4147 2053 4147 
L 1259 4147 
z
M 628 4666 
L 2053 4666 
Q 2838 4666 3239 4311 
Q 3641 3956 3641 3272 
Q 3641 2581 3239 2228 
Q 2838 1875 2053 1875 
L 1259 1875 
L 1259 0 
L 628 0 
L 628 4666 
z
" transform="scale(0.015625)"/>
      <path id="DejaVuSans-48" d="M 628 4666 
L 1259 4666 
L 1259 2753 
L 3553 2753 
L 3553 4666 
L 4184 4666 
L 4184 0 
L 3553 0 
L 3553 2222 
L 1259 2222 
L 1259 0 
L 628 0 
L 628 4666 
z
" transform="scale(0.015625)"/>
      <path id="DejaVuSans-32" d="M 1228 531 
L 3431 531 
L 3431 0 
L 469 0 
L 469 531 
Q 828 903 1448 1529 
Q 2069 2156 2228 2338 
Q 2531 2678 2651 2914 
Q 2772 3150 2772 3378 
Q 2772 3750 2511 3984 
Q 2250 4219 1831 4219 
Q 1534 4219 1204 4116 
Q 875 4013 500 3803 
L 500 4441 
Q 881 4594 1212 4672 
Q 1544 4750 1819 4750 
Q 2544 4750 2975 4387 
Q 3406 4025 3406 3419 
Q 3406 3131 3298 2873 
Q 3191 2616 2906 2266 
Q 2828 2175 2409 1742 
Q 1991 1309 1228 531 
z
" transform="scale(0.015625)"/>
      <path id="DejaVuSans-36" d="M 2113 2584 
Q 1688 2584 1439 2293 
Q 1191 2003 1191 1497 
Q 1191 994 1439 701 
Q 1688 409 2113 409 
Q 2538 409 2786 701 
Q 3034 994 3034 1497 
Q 3034 2003 2786 2293 
Q 2538 2584 2113 2584 
z
M 3366 4563 
L 3366 3988 
Q 3128 4100 2886 4159 
Q 2644 4219 2406 4219 
Q 1781 4219 1451 3797 
Q 1122 3375 1075 2522 
Q 1259 2794 1537 2939 
Q 1816 3084 2150 3084 
Q 2853 3084 3261 2657 
Q 3669 2231 3669 1497 
Q 3669 778 3244 343 
Q 2819 -91 2113 -91 
Q 1303 -91 875 529 
Q 447 1150 447 2328 
Q 447 3434 972 4092 
Q 1497 4750 2381 4750 
Q 2619 4750 2861 4703 
Q 3103 4656 3366 4563 
z
" transform="scale(0.015625)"/>
     </defs>
     <use xlink:href="#DejaVuSans-54"/>
     <use xlink:href="#DejaVuSans-45" x="61.083984"/>
     <use xlink:href="#DejaVuSans-52" x="124.267578"/>
     <use xlink:href="#DejaVuSans-4d" x="193.75"/>
     <use xlink:href="#DejaVuSans-53" x="280.029297"/>
     <use xlink:href="#DejaVuSans-3a" x="343.505859"/>
     <use xlink:href="#DejaVuSans-20" x="377.197266"/>
     <use xlink:href="#DejaVuSans-34" x="408.984375"/>
     <use xlink:href="#DejaVuSans-2c" x="472.607422"/>
     <use xlink:href="#DejaVuSans-20" x="504.394531"/>
     <use xlink:href="#DejaVuSans-44" x="536.181641"/>
     <use xlink:href="#DejaVuSans-45" x="613.183594"/>
     <use xlink:href="#DejaVuSans-50" x="676.367188"/>
     <use xlink:href="#DejaVuSans-54" x="736.669922"/>
     <use xlink:href="#DejaVuSans-48" x="797.753906"/>
     <use xlink:href="#DejaVuSans-3a" x="872.949219"/>
     <use xlink:href="#DejaVuSans-32" x="906.640625"/>
     <use xlink:href="#DejaVuSans-36" x="970.263672"/>
    </g>
   </g>
   <g id="patch_2">
    <path d="M 285.654972 266.339846 
L 315.785071 266.339846 
L 315.785071 236.209747 
L 285.654972 236.209747 
z
" clip-path="url(#p40dafb146e)" style="fill: #ffffff; stroke: #000000; stroke-width: 1.5; stroke-linejoin: miter"/>
   </g>
   <g id="patch_3">
    <path d="M 300.720022 163.086313 
C 301.918611 163.086313 303.068271 162.610108 303.915801 161.762578 
C 304.763332 160.915047 305.239537 159.765387 305.239537 158.566798 
C 305.239537 157.368209 304.763332 156.218549 303.915801 155.371018 
C 303.068271 154.523488 301.918611 154.047283 300.720022 154.047283 
C 299.521432 154.047283 298.371773 154.523488 297.524242 155.371018 
C 296.676711 156.218549 296.200507 157.368209 296.200507 158.566798 
C 296.200507 159.765387 296.676711 160.915047 297.524242 161.762578 
C 298.371773 162.610108 299.521432 163.086313 300.720022 163.086313 
z
" clip-path="url(#p40dafb146e)" style="stroke: #000000; stroke-width: 1.5; stroke-linejoin: miter"/>
   </g>
   <g id="patch_4">
    <path d="M 300.720022 122.758333 
C 303.51673 122.758333 306.199269 121.647189 308.176841 119.669618 
C 310.154412 117.692046 311.265556 115.009507 311.265556 112.212799 
C 311.265556 109.41609 310.154412 106.733551 308.176841 104.755979 
C 306.199269 102.778408 303.51673 101.667264 300.720022 101.667264 
C 297.923313 101.667264 295.240774 102.778408 293.263202 104.755979 
C 291.285631 106.733551 290.174487 109.41609 290.174487 112.212799 
C 290.174487 115.009507 291.285631 117.692046 293.263202 119.669618 
C 295.240774 121.647189 297.923313 122.758333 300.720022 122.758333 
z
" clip-path="url(#p40dafb146e)" style="stroke: #000000; stroke-width: 2; stroke-linejoin: miter"/>
   </g>
   <g id="patch_5">
    <path d="M 285.654972 312.693846 
L 315.785071 312.693846 
L 315.785071 282.563746 
L 285.654972 282.563746 
z
" clip-path="url(#p40dafb146e)" style="fill: #ffffff; stroke: #000000; stroke-width: 1.5; stroke-linejoin: miter"/>
   </g>
   <g id="patch_6">
    <path d="M 285.654972 544.463843 
L 315.785071 544.463843 
L 315.785071 514.333743 
L 285.654972 514.333743 
z
" clip-path="url(#p40dafb146e)" style="fill: #ffffff; stroke: #000000; stroke-width: 1.5; stroke-linejoin: miter"/>
   </g>
   <g id="patch_7">
    <path d="M 285.654972 498.109843 
L 315.785071 498.109843 
L 315.785071 467.979744 
L 285.654972 467.979744 
z
" clip-path="url(#p40dafb146e)" style="fill: #ffffff; stroke: #000000; stroke-width: 1.5; stroke-linejoin: miter"/>
   </g>
   <g id="patch_8">
    <path d="M 332.008971 266.339846 
L 362.139071 266.339846 
L 362.139071 236.209747 
L 332.008971 236.209747 
z
" clip-path="url(#p40dafb146e)" style="fill: #ffffff; stroke: #000000; stroke-width: 1.5; stroke-linejoin: miter"/>
   </g>
   <g id="patch_9">
    <path d="M 347.074021 209.440312 
C 348.27261 209.440312 349.42227 208.964108 350.269801 208.116577 
C 351.117331 207.269046 351.593536 206.119387 351.593536 204.920797 
C 351.593536 203.722208 351.117331 202.572548 350.269801 201.725018 
C 349.42227 200.877487 348.27261 200.401282 347.074021 200.401282 
C 345.875432 200.401282 344.725772 200.877487 343.878241 201.725018 
C 343.030711 202.572548 342.554506 203.722208 342.554506 204.920797 
C 342.554506 206.119387 343.030711 207.269046 343.878241 208.116577 
C 344.725772 208.964108 345.875432 209.440312 347.074021 209.440312 
z
" clip-path="url(#p40dafb146e)" style="stroke: #000000; stroke-width: 1.5; stroke-linejoin: miter"/>
   </g>
   <g id="patch_10">
    <path d="M 347.074021 122.758333 
C 349.87073 122.758333 352.553269 121.647189 354.53084 119.669618 
C 356.508412 117.692046 357.619556 115.009507 357.619556 112.212799 
C 357.619556 109.41609 356.508412 106.733551 354.53084 104.755979 
C 352.553269 102.778408 349.87073 101.667264 347.074021 101.667264 
C 344.277312 101.667264 341.594773 102.778408 339.617202 104.755979 
C 337.63963 106.733551 336.528486 109.41609 336.528486 112.212799 
C 336.528486 115.009507 337.63963 117.692046 339.617202 119.669618 
C 341.594773 121.647189 344.277312 122.758333 347.074021 122.758333 
z
" clip-path="url(#p40dafb146e)" style="stroke: #000000; stroke-width: 2; stroke-linejoin: miter"/>
   </g>
   <g id="patch_11">
    <path d="M 347.074021 533.918308 
C 348.27261 533.918308 349.42227 533.442103 350.269801 532.594573 
C 351.117331 531.747042 351.593536 530.597382 351.593536 529.398793 
C 351.593536 528.200204 351.117331 527.050544 350.269801 526.203013 
C 349.42227 525.355483 348.27261 524.879278 347.074021 524.879278 
C 345.875432 524.879278 344.725772 525.355483 343.878241 526.203013 
C 343.030711 527.050544 342.554506 528.200204 342.554506 529.398793 
C 342.554506 530.597382 343.030711 531.747042 343.878241 532.594573 
C 344.725772 533.442103 345.875432 533.918308 347.074021 533.918308 
z
" clip-path="url(#p40dafb146e)" style="stroke: #000000; stroke-width: 1.5; stroke-linejoin: miter"/>
   </g>
   <g id="patch_12">
    <path d="M 347.074021 447.236329 
C 349.87073 447.236329 352.553269 446.125185 354.53084 444.147613 
C 356.508412 442.170042 357.619556 439.487503 357.619556 436.690794 
C 357.619556 433.894086 356.508412 431.211547 354.53084 429.233975 
C 352.553269 427.256403 349.87073 426.145259 347.074021 426.145259 
C 344.277312 426.145259 341.594773 427.256403 339.617202 429.233975 
C 337.63963 431.211547 336.528486 433.894086 336.528486 436.690794 
C 336.528486 439.487503 337.63963 442.170042 339.617202 444.147613 
C 341.594773 446.125185 344.277312 447.236329 347.074021 447.236329 
z
" clip-path="url(#p40dafb146e)" style="stroke: #000000; stroke-width: 2; stroke-linejoin: miter"/>
   </g>
   <g id="patch_13">
    <path d="M 393.42802 255.794312 
C 394.62661 255.794312 395.776269 255.318107 396.6238 254.470576 
C 397.471331 253.623046 397.947535 252.473386 397.947535 251.274797 
C 397.947535 250.076207 397.471331 248.926548 396.6238 248.079017 
C 395.776269 247.231486 394.62661 246.755282 393.42802 246.755282 
C 392.229431 246.755282 391.079771 247.231486 390.232241 248.079017 
C 389.38471 248.926548 388.908505 250.076207 388.908505 251.274797 
C 388.908505 252.473386 389.38471 253.623046 390.232241 254.470576 
C 391.079771 255.318107 392.229431 255.794312 393.42802 255.794312 
z
" clip-path="url(#p40dafb146e)" style="stroke: #000000; stroke-width: 1.5; stroke-linejoin: miter"/>
   </g>
   <g id="patch_14">
    <path d="M 393.42802 122.758333 
C 396.224729 122.758333 398.907268 121.647189 400.88484 119.669618 
C 402.862411 117.692046 403.973555 115.009507 403.973555 112.212799 
C 403.973555 109.41609 402.862411 106.733551 400.88484 104.755979 
C 398.907268 102.778408 396.224729 101.667264 393.42802 101.667264 
C 390.631312 101.667264 387.948773 102.778408 385.971201 104.755979 
C 383.99363 106.733551 382.882486 109.41609 382.882486 112.212799 
C 382.882486 115.009507 383.99363 117.692046 385.971201 119.669618 
C 387.948773 121.647189 390.631312 122.758333 393.42802 122.758333 
z
" clip-path="url(#p40dafb146e)" style="stroke: #000000; stroke-width: 2; stroke-linejoin: miter"/>
   </g>
   <g id="patch_15">
    <path d="M 393.42802 487.564309 
C 394.62661 487.564309 395.776269 487.088104 396.6238 486.240573 
C 397.471331 485.393043 397.947535 484.243383 397.947535 483.044794 
C 397.947535 481.846204 397.471331 480.696545 396.6238 479.849014 
C 395.776269 479.001483 394.62661 478.525279 393.42802 478.525279 
C 392.229431 478.525279 391.079771 479.001483 390.232241 479.849014 
C 389.38471 480.696545 388.908505 481.846204 388.908505 483.044794 
C 388.908505 484.243383 389.38471 485.393043 390.232241 486.240573 
C 391.079771 487.088104 392.229431 487.564309 393.42802 487.564309 
z
" clip-path="url(#p40dafb146e)" style="stroke: #000000; stroke-width: 1.5; stroke-linejoin: miter"/>
   </g>
   <g id="patch_16">
    <path d="M 393.42802 447.236329 
C 396.224729 447.236329 398.907268 446.125185 400.88484 444.147613 
C 402.862411 442.170042 403.973555 439.487503 403.973555 436.690794 
C 403.973555 433.894086 402.862411 431.211547 400.88484 429.233975 
C 398.907268 427.256403 396.224729 426.145259 393.42802 426.145259 
C 390.631312 426.145259 387.948773 427.256403 385.971201 429.233975 
C 383.99363 431.211547 382.882486 433.894086 382.882486 436.690794 
C 382.882486 439.487503 383.99363 442.170042 385.971201 444.147613 
C 387.948773 446.125185 390.631312 447.236329 393.42802 447.236329 
z
" clip-path="url(#p40dafb146e)" style="stroke: #000000; stroke-width: 2; stroke-linejoin: miter"/>
   </g>
   <g id="patch_17">
    <path d="M 378.362971 544.463843 
L 408.49307 544.463843 
L 408.49307 514.333743 
L 378.362971 514.333743 
z
" clip-path="url(#p40dafb146e)" style="fill: #ffffff; stroke: #000000; stroke-width: 1.5; stroke-linejoin: miter"/>
   </g>
   <g id="patch_18">
    <path d="M 439.78202 302.148311 
C 440.980609 302.148311 442.130269 301.672106 442.977799 300.824576 
C 443.82533 299.977045 444.301535 298.827385 444.301535 297.628796 
C 444.301535 296.430207 443.82533 295.280547 442.977799 294.433016 
C 442.130269 293.585486 440.980609 293.109281 439.78202 293.109281 
C 438.58343 293.109281 437.433771 293.585486 436.58624 294.433016 
C 435.738709 295.280547 435.262505 296.430207 435.262505 297.628796 
C 435.262505 298.827385 435.738709 299.977045 436.58624 300.824576 
C 437.433771 301.672106 438.58343 302.148311 439.78202 302.148311 
z
" clip-path="url(#p40dafb146e)" style="stroke: #000000; stroke-width: 1.5; stroke-linejoin: miter"/>
   </g>
   <g id="patch_19">
    <path d="M 439.78202 122.758333 
C 442.578728 122.758333 445.261267 121.647189 447.238839 119.669618 
C 449.216411 117.692046 450.327555 115.009507 450.327555 112.212799 
C 450.327555 109.41609 449.216411 106.733551 447.238839 104.755979 
C 445.261267 102.778408 442.578728 101.667264 439.78202 101.667264 
C 436.985311 101.667264 434.302772 102.778408 432.325201 104.755979 
C 430.347629 106.733551 429.236485 109.41609 429.236485 112.212799 
C 429.236485 115.009507 430.347629 117.692046 432.325201 119.669618 
C 434.302772 121.647189 436.985311 122.758333 439.78202 122.758333 
z
" clip-path="url(#p40dafb146e)" style="stroke: #000000; stroke-width: 2; stroke-linejoin: miter"/>
   </g>
   <g id="patch_20">
    <path d="M 422.007579 451.755844 
L 457.556461 451.755844 
L 457.556461 421.625744 
L 422.007579 421.625744 
z
" clip-path="url(#p40dafb146e)" style="fill: #ffffff; stroke: #000000; stroke-width: 1.5; stroke-linejoin: miter"/>
   </g>
   <g id="patch_21">
    <path d="M 424.71697 498.109843 
L 454.84707 498.109843 
L 454.84707 467.979744 
L 424.71697 467.979744 
z
" clip-path="url(#p40dafb146e)" style="fill: #ffffff; stroke: #000000; stroke-width: 1.5; stroke-linejoin: miter"/>
   </g>
   <g id="patch_22">
    <path d="M 467.54343 127.277848 
L 504.728608 127.277848 
L 504.728608 97.147749 
L 467.54343 97.147749 
z
" clip-path="url(#p40dafb146e)" style="fill: #ffffff; stroke: #000000; stroke-width: 1.5; stroke-linejoin: miter"/>
   </g>
   <g id="patch_23">
    <path d="M 486.136019 533.918308 
C 487.334609 533.918308 488.484268 533.442103 489.331799 532.594573 
C 490.179329 531.747042 490.655534 530.597382 490.655534 529.398793 
C 490.655534 528.200204 490.179329 527.050544 489.331799 526.203013 
C 488.484268 525.355483 487.334609 524.879278 486.136019 524.879278 
C 484.93743 524.879278 483.78777 525.355483 482.940239 526.203013 
C 482.092709 527.050544 481.616504 528.200204 481.616504 529.398793 
C 481.616504 530.597382 482.092709 531.747042 482.940239 532.594573 
C 483.78777 533.442103 484.93743 533.918308 486.136019 533.918308 
z
" clip-path="url(#p40dafb146e)" style="stroke: #000000; stroke-width: 1.5; stroke-linejoin: miter"/>
   </g>
   <g id="patch_24">
    <path d="M 486.136019 447.236329 
C 488.932728 447.236329 491.615267 446.125185 493.592838 444.147613 
C 495.57041 442.170042 496.681554 439.487503 496.681554 436.690794 
C 496.681554 433.894086 495.57041 431.211547 493.592838 429.233975 
C 491.615267 427.256403 488.932728 426.145259 486.136019 426.145259 
C 483.339311 426.145259 480.656772 427.256403 478.6792 429.233975 
C 476.701628 431.211547 475.590484 433.894086 475.590484 436.690794 
C 475.590484 439.487503 476.701628 442.170042 478.6792 444.147613 
C 480.656772 446.125185 483.339311 447.236329 486.136019 447.236329 
z
" clip-path="url(#p40dafb146e)" style="stroke: #000000; stroke-width: 2; stroke-linejoin: miter"/>
   </g>
   <g id="patch_25">
    <path d="M 532.490019 302.148311 
C 533.688608 302.148311 534.838268 301.672106 535.685798 300.824576 
C 536.533329 299.977045 537.009533 298.827385 537.009533 297.628796 
C 537.009533 296.430207 536.533329 295.280547 535.685798 294.433016 
C 534.838268 293.585486 533.688608 293.109281 532.490019 293.109281 
C 531.291429 293.109281 530.14177 293.585486 529.294239 294.433016 
C 528.446708 295.280547 527.970504 296.430207 527.970504 297.628796 
C 527.970504 298.827385 528.446708 299.977045 529.294239 300.824576 
C 530.14177 301.672106 531.291429 302.148311 532.490019 302.148311 
z
" clip-path="url(#p40dafb146e)" style="stroke: #000000; stroke-width: 1.5; stroke-linejoin: miter"/>
   </g>
   <g id="patch_26">
    <path d="M 532.490019 122.758333 
C 535.286727 122.758333 537.969266 121.647189 539.946838 119.669618 
C 541.924409 117.692046 543.035553 115.009507 543.035553 112.212799 
C 543.035553 109.41609 541.924409 106.733551 539.946838 104.755979 
C 537.969266 102.778408 535.286727 101.667264 532.490019 101.667264 
C 529.69331 101.667264 527.010771 102.778408 525.033199 104.755979 
C 523.055628 106.733551 521.944484 109.41609 521.944484 112.212799 
C 521.944484 115.009507 523.055628 117.692046 525.033199 119.669618 
C 527.010771 121.647189 529.69331 122.758333 532.490019 122.758333 
z
" clip-path="url(#p40dafb146e)" style="stroke: #000000; stroke-width: 2; stroke-linejoin: miter"/>
   </g>
   <g id="patch_27">
    <path d="M 532.490019 487.564309 
C 533.688608 487.564309 534.838268 487.088104 535.685798 486.240573 
C 536.533329 485.393043 537.009533 484.243383 537.009533 483.044794 
C 537.009533 481.846204 536.533329 480.696545 535.685798 479.849014 
C 534.838268 479.001483 533.688608 478.525279 532.490019 478.525279 
C 531.291429 478.525279 530.14177 479.001483 529.294239 479.849014 
C 528.446708 480.696545 527.970504 481.846204 527.970504 483.044794 
C 527.970504 484.243383 528.446708 485.393043 529.294239 486.240573 
C 530.14177 487.088104 531.291429 487.564309 532.490019 487.564309 
z
" clip-path="url(#p40dafb146e)" style="stroke: #000000; stroke-width: 1.5; stroke-linejoin: miter"/>
   </g>
   <g id="patch_28">
    <path d="M 532.490019 447.236329 
C 535.286727 447.236329 537.969266 446.125185 539.946838 444.147613 
C 541.924409 442.170042 543.035553 439.487503 543.035553 436.690794 
C 543.035553 433.894086 541.924409 431.211547 539.946838 429.233975 
C 537.969266 427.256403 535.286727 426.145259 532.490019 426.145259 
C 529.69331 426.145259 527.010771 427.256403 525.033199 429.233975 
C 523.055628 431.211547 521.944484 433.894086 521.944484 436.690794 
C 521.944484 439.487503 523.055628 442.170042 525.033199 444.147613 
C 527.010771 446.125185 529.69331 447.236329 532.490019 447.236329 
z
" clip-path="url(#p40dafb146e)" style="stroke: #000000; stroke-width: 2; stroke-linejoin: miter"/>
   </g>
   <g id="patch_29">
    <path d="M 578.844018 255.794312 
C 580.042607 255.794312 581.192267 255.318107 582.039798 254.470576 
C 582.887328 253.623046 583.363533 252.473386 583.363533 251.274797 
C 583.363533 250.076207 582.887328 248.926548 582.039798 248.079017 
C 581.192267 247.231486 580.042607 246.755282 578.844018 246.755282 
C 577.645429 246.755282 576.495769 247.231486 575.648238 248.079017 
C 574.800708 248.926548 574.324503 250.076207 574.324503 251.274797 
C 574.324503 252.473386 574.800708 253.623046 575.648238 254.470576 
C 576.495769 255.318107 577.645429 255.794312 578.844018 255.794312 
z
" clip-path="url(#p40dafb146e)" style="stroke: #000000; stroke-width: 1.5; stroke-linejoin: miter"/>
   </g>
   <g id="patch_30">
    <path d="M 578.844018 122.758333 
C 581.640726 122.758333 584.323266 121.647189 586.300837 119.669618 
C 588.278409 117.692046 589.389553 115.009507 589.389553 112.212799 
C 589.389553 109.41609 588.278409 106.733551 586.300837 104.755979 
C 584.323266 102.778408 581.640726 101.667264 578.844018 101.667264 
C 576.047309 101.667264 573.36477 102.778408 571.387199 104.755979 
C 569.409627 106.733551 568.298483 109.41609 568.298483 112.212799 
C 568.298483 115.009507 569.409627 117.692046 571.387199 119.669618 
C 573.36477 121.647189 576.047309 122.758333 578.844018 122.758333 
z
" clip-path="url(#p40dafb146e)" style="stroke: #000000; stroke-width: 2; stroke-linejoin: miter"/>
   </g>
   <g id="patch_31">
    <path d="M 561.069577 451.755844 
L 596.618459 451.755844 
L 596.618459 421.625744 
L 561.069577 421.625744 
z
" clip-path="url(#p40dafb146e)" style="fill: #ffffff; stroke: #000000; stroke-width: 1.5; stroke-linejoin: miter"/>
   </g>
   <g id="patch_32">
    <path d="M 625.198017 209.440312 
C 626.396607 209.440312 627.546266 208.964108 628.393797 208.116577 
C 629.241328 207.269046 629.717532 206.119387 629.717532 204.920797 
C 629.717532 203.722208 629.241328 202.572548 628.393797 201.725018 
C 627.546266 200.877487 626.396607 200.401282 625.198017 200.401282 
C 623.999428 200.401282 622.849768 200.877487 622.002238 201.725018 
C 621.154707 202.572548 620.678502 203.722208 620.678502 204.920797 
C 620.678502 206.119387 621.154707 207.269046 622.002238 208.116577 
C 622.849768 208.964108 623.999428 209.440312 625.198017 209.440312 
z
" clip-path="url(#p40dafb146e)" style="stroke: #000000; stroke-width: 1.5; stroke-linejoin: miter"/>
   </g>
   <g id="patch_33">
    <path d="M 625.198017 122.758333 
C 627.994726 122.758333 630.677265 121.647189 632.654837 119.669618 
C 634.632408 117.692046 635.743552 115.009507 635.743552 112.212799 
C 635.743552 109.41609 634.632408 106.733551 632.654837 104.755979 
C 630.677265 102.778408 627.994726 101.667264 625.198017 101.667264 
C 622.401309 101.667264 619.71877 102.778408 617.741198 104.755979 
C 615.763627 106.733551 614.652482 109.41609 614.652482 112.212799 
C 614.652482 115.009507 615.763627 117.692046 617.741198 119.669618 
C 619.71877 121.647189 622.401309 122.758333 625.198017 122.758333 
z
" clip-path="url(#p40dafb146e)" style="stroke: #000000; stroke-width: 2; stroke-linejoin: miter"/>
   </g>
   <g id="patch_34">
    <path d="M 610.132967 266.339846 
L 640.263067 266.339846 
L 640.263067 236.209747 
L 610.132967 236.209747 
z
" clip-path="url(#p40dafb146e)" style="fill: #ffffff; stroke: #000000; stroke-width: 1.5; stroke-linejoin: miter"/>
   </g>
   <g id="patch_35">
    <path d="M 625.198017 487.564309 
C 626.396607 487.564309 627.546266 487.088104 628.393797 486.240573 
C 629.241328 485.393043 629.717532 484.243383 629.717532 483.044794 
C 629.717532 481.846204 629.241328 480.696545 628.393797 479.849014 
C 627.546266 479.001483 626.396607 478.525279 625.198017 478.525279 
C 623.999428 478.525279 622.849768 479.001483 622.002238 479.849014 
C 621.154707 480.696545 620.678502 481.846204 620.678502 483.044794 
C 620.678502 484.243383 621.154707 485.393043 622.002238 486.240573 
C 622.849768 487.088104 623.999428 487.564309 625.198017 487.564309 
z
" clip-path="url(#p40dafb146e)" style="stroke: #000000; stroke-width: 1.5; stroke-linejoin: miter"/>
   </g>
   <g id="patch_36">
    <path d="M 625.198017 447.236329 
C 627.994726 447.236329 630.677265 446.125185 632.654837 444.147613 
C 634.632408 442.170042 635.743552 439.487503 635.743552 436.690794 
C 635.743552 433.894086 634.632408 431.211547 632.654837 429.233975 
C 630.677265 427.256403 627.994726 426.145259 625.198017 426.145259 
C 622.401309 426.145259 619.71877 427.256403 617.741198 429.233975 
C 615.763627 431.211547 614.652482 433.894086 614.652482 436.690794 
C 614.652482 439.487503 615.763627 442.170042 617.741198 444.147613 
C 619.71877 446.125185 622.401309 447.236329 625.198017 447.236329 
z
" clip-path="url(#p40dafb146e)" style="stroke: #000000; stroke-width: 2; stroke-linejoin: miter"/>
   </g>
   <g id="patch_37">
    <path d="M 671.552017 163.086313 
C 672.750606 163.086313 673.900266 162.610108 674.747796 161.762578 
C 675.595327 160.915047 676.071532 159.765387 676.071532 158.566798 
C 676.071532 157.368209 675.595327 156.218549 674.747796 155.371018 
C 673.900266 154.523488 672.750606 154.047283 671.552017 154.047283 
C 670.353427 154.047283 669.203768 154.523488 668.356237 155.371018 
C 667.508706 156.218549 667.032502 157.368209 667.032502 158.566798 
C 667.032502 159.765387 667.508706 160.915047 668.356237 161.762578 
C 669.203768 162.610108 670.353427 163.086313 671.552017 163.086313 
z
" clip-path="url(#p40dafb146e)" style="stroke: #000000; stroke-width: 1.5; stroke-linejoin: miter"/>
   </g>
   <g id="patch_38">
    <path d="M 671.552017 122.758333 
C 674.348725 122.758333 677.031264 121.647189 679.008836 119.669618 
C 680.986407 117.692046 682.097552 115.009507 682.097552 112.212799 
C 682.097552 109.41609 680.986407 106.733551 679.008836 104.755979 
C 677.031264 102.778408 674.348725 101.667264 671.552017 101.667264 
C 668.755308 101.667264 666.072769 102.778408 664.095197 104.755979 
C 662.117626 106.733551 661.006482 109.41609 661.006482 112.212799 
C 661.006482 115.009507 662.117626 117.692046 664.095197 119.669618 
C 666.072769 121.647189 668.755308 122.758333 671.552017 122.758333 
z
" clip-path="url(#p40dafb146e)" style="stroke: #000000; stroke-width: 2; stroke-linejoin: miter"/>
   </g>
   <g id="patch_39">
    <path d="M 671.552017 255.794312 
C 672.750606 255.794312 673.900266 255.318107 674.747796 254.470576 
C 675.595327 253.623046 676.071532 252.473386 676.071532 251.274797 
C 676.071532 250.076207 675.595327 248.926548 674.747796 248.079017 
C 673.900266 247.231486 672.750606 246.755282 671.552017 246.755282 
C 670.353427 246.755282 669.203768 247.231486 668.356237 248.079017 
C 667.508706 248.926548 667.032502 250.076207 667.032502 251.274797 
C 667.032502 252.473386 667.508706 253.623046 668.356237 254.470576 
C 669.203768 255.318107 670.353427 255.794312 671.552017 255.794312 
z
" clip-path="url(#p40dafb146e)" style="stroke: #000000; stroke-width: 1.5; stroke-linejoin: miter"/>
   </g>
   <g id="patch_40">
    <path d="M 671.552017 308.174331 
C 674.348725 308.174331 677.031264 307.063187 679.008836 305.085615 
C 680.986407 303.108044 682.097552 300.425505 682.097552 297.628796 
C 682.097552 294.832088 680.986407 292.149548 679.008836 290.171977 
C 677.031264 288.194405 674.348725 287.083261 671.552017 287.083261 
C 668.755308 287.083261 666.072769 288.194405 664.095197 290.171977 
C 662.117626 292.149548 661.006482 294.832088 661.006482 297.628796 
C 661.006482 300.425505 662.117626 303.108044 664.095197 305.085615 
C 666.072769 307.063187 668.755308 308.174331 671.552017 308.174331 
z
" clip-path="url(#p40dafb146e)" style="stroke: #000000; stroke-width: 2; stroke-linejoin: miter"/>
   </g>
   <g id="patch_41">
    <path d="M 656.486967 498.109843 
L 686.617066 498.109843 
L 686.617066 467.979744 
L 656.486967 467.979744 
z
" clip-path="url(#p40dafb146e)" style="fill: #ffffff; stroke: #000000; stroke-width: 1.5; stroke-linejoin: miter"/>
   </g>
   <g id="patch_42">
    <path d="M 717.906016 533.918308 
C 719.104605 533.918308 720.254265 533.442103 721.101796 532.594573 
C 721.949326 531.747042 722.425531 530.597382 722.425531 529.398793 
C 722.425531 528.200204 721.949326 527.050544 721.101796 526.203013 
C 720.254265 525.355483 719.104605 524.879278 717.906016 524.879278 
C 716.707427 524.879278 715.557767 525.355483 714.710236 526.203013 
C 713.862706 527.050544 713.386501 528.200204 713.386501 529.398793 
C 713.386501 530.597382 713.862706 531.747042 714.710236 532.594573 
C 715.557767 533.442103 716.707427 533.918308 717.906016 533.918308 
z
" clip-path="url(#p40dafb146e)" style="stroke: #000000; stroke-width: 1.5; stroke-linejoin: miter"/>
   </g>
   <g id="patch_43">
    <path d="M 717.906016 447.236329 
C 720.702725 447.236329 723.385264 446.125185 725.362835 444.147613 
C 727.340407 442.170042 728.451551 439.487503 728.451551 436.690794 
C 728.451551 433.894086 727.340407 431.211547 725.362835 429.233975 
C 723.385264 427.256403 720.702725 426.145259 717.906016 426.145259 
C 715.109308 426.145259 712.426768 427.256403 710.449197 429.233975 
C 708.471625 431.211547 707.360481 433.894086 707.360481 436.690794 
C 707.360481 439.487503 708.471625 442.170042 710.449197 444.147613 
C 712.426768 446.125185 715.109308 447.236329 717.906016 447.236329 
z
" clip-path="url(#p40dafb146e)" style="stroke: #000000; stroke-width: 2; stroke-linejoin: miter"/>
   </g>
   <g id="patch_44">
    <path d="M 717.906016 209.440312 
C 719.104605 209.440312 720.254265 208.964108 721.101796 208.116577 
C 721.949326 207.269046 722.425531 206.119387 722.425531 204.920797 
C 722.425531 203.722208 721.949326 202.572548 721.101796 201.725018 
C 720.254265 200.877487 719.104605 200.401282 717.906016 200.401282 
C 716.707427 200.401282 715.557767 200.877487 714.710236 201.725018 
C 713.862706 202.572548 713.386501 203.722208 713.386501 204.920797 
C 713.386501 206.119387 713.862706 207.269046 714.710236 208.116577 
C 715.557767 208.964108 716.707427 209.440312 717.906016 209.440312 
z
" clip-path="url(#p40dafb146e)" style="stroke: #000000; stroke-width: 1.5; stroke-linejoin: miter"/>
   </g>
   <g id="patch_45">
    <path d="M 717.906016 308.174331 
C 720.702725 308.174331 723.385264 307.063187 725.362835 305.085615 
C 727.340407 303.108044 728.451551 300.425505 728.451551 297.628796 
C 728.451551 294.832088 727.340407 292.149548 725.362835 290.171977 
C 723.385264 288.194405 720.702725 287.083261 717.906016 287.083261 
C 715.109308 287.083261 712.426768 288.194405 710.449197 290.171977 
C 708.471625 292.149548 707.360481 294.832088 707.360481 297.628796 
C 707.360481 300.425505 708.471625 303.108044 710.449197 305.085615 
C 712.426768 307.063187 715.109308 308.174331 717.906016 308.174331 
z
" clip-path="url(#p40dafb146e)" style="stroke: #000000; stroke-width: 2; stroke-linejoin: miter"/>
   </g>
   <g id="patch_46">
    <path d="M 702.840966 127.277848 
L 732.971066 127.277848 
L 732.971066 97.147749 
L 702.840966 97.147749 
z
" clip-path="url(#p40dafb146e)" style="fill: #ffffff; stroke: #000000; stroke-width: 1.5; stroke-linejoin: miter"/>
   </g>
   <g id="patch_47">
    <path d="M 749.194966 544.463843 
L 779.325065 544.463843 
L 779.325065 514.333743 
L 749.194966 514.333743 
z
" clip-path="url(#p40dafb146e)" style="fill: #ffffff; stroke: #000000; stroke-width: 1.5; stroke-linejoin: miter"/>
   </g>
   <g id="patch_48">
    <path d="M 764.260015 163.086313 
C 765.458605 163.086313 766.608264 162.610108 767.455795 161.762578 
C 768.303326 160.915047 768.77953 159.765387 768.77953 158.566798 
C 768.77953 157.368209 768.303326 156.218549 767.455795 155.371018 
C 766.608264 154.523488 765.458605 154.047283 764.260015 154.047283 
C 763.061426 154.047283 761.911766 154.523488 761.064236 155.371018 
C 760.216705 156.218549 759.740501 157.368209 759.740501 158.566798 
C 759.740501 159.765387 760.216705 160.915047 761.064236 161.762578 
C 761.911766 162.610108 763.061426 163.086313 764.260015 163.086313 
z
" clip-path="url(#p40dafb146e)" style="stroke: #000000; stroke-width: 1.5; stroke-linejoin: miter"/>
   </g>
   <g id="patch_49">
    <path d="M 764.260015 308.174331 
C 767.056724 308.174331 769.739263 307.063187 771.716835 305.085615 
C 773.694406 303.108044 774.80555 300.425505 774.80555 297.628796 
C 774.80555 294.832088 773.694406 292.149548 771.716835 290.171977 
C 769.739263 288.194405 767.056724 287.083261 764.260015 287.083261 
C 761.463307 287.083261 758.780768 288.194405 756.803196 290.171977 
C 754.825625 292.149548 753.714481 294.832088 753.714481 297.628796 
C 753.714481 300.425505 754.825625 303.108044 756.803196 305.085615 
C 758.780768 307.063187 761.463307 308.174331 764.260015 308.174331 
z
" clip-path="url(#p40dafb146e)" style="stroke: #000000; stroke-width: 2; stroke-linejoin: miter"/>
   </g>
   <g id="patch_50">
    <path d="M 810.614015 116.732313 
C 811.812604 116.732313 812.962264 116.256109 813.809794 115.408578 
C 814.657325 114.561047 815.13353 113.411388 815.13353 112.212799 
C 815.13353 111.014209 814.657325 109.86455 813.809794 109.017019 
C 812.962264 108.169488 811.812604 107.693284 810.614015 107.693284 
C 809.415425 107.693284 808.265766 108.169488 807.418235 109.017019 
C 806.570704 109.86455 806.0945 111.014209 806.0945 112.212799 
C 806.0945 113.411388 806.570704 114.561047 807.418235 115.408578 
C 808.265766 116.256109 809.415425 116.732313 810.614015 116.732313 
z
" clip-path="url(#p40dafb146e)" style="stroke: #000000; stroke-width: 1.5; stroke-linejoin: miter"/>
   </g>
   <g id="patch_51">
    <path d="M 810.614015 308.174331 
C 813.410723 308.174331 816.093262 307.063187 818.070834 305.085615 
C 820.048406 303.108044 821.15955 300.425505 821.15955 297.628796 
C 821.15955 294.832088 820.048406 292.149548 818.070834 290.171977 
C 816.093262 288.194405 813.410723 287.083261 810.614015 287.083261 
C 807.817306 287.083261 805.134767 288.194405 803.157196 290.171977 
C 801.179624 292.149548 800.06848 294.832088 800.06848 297.628796 
C 800.06848 300.425505 801.179624 303.108044 803.157196 305.085615 
C 805.134767 307.063187 807.817306 308.174331 810.614015 308.174331 
z
" clip-path="url(#p40dafb146e)" style="stroke: #000000; stroke-width: 2; stroke-linejoin: miter"/>
   </g>
   <g id="patch_52">
    <path d="M 838.375425 312.693846 
L 875.560603 312.693846 
L 875.560603 282.563746 
L 838.375425 282.563746 
z
" clip-path="url(#p40dafb146e)" style="fill: #ffffff; stroke: #000000; stroke-width: 1.5; stroke-linejoin: miter"/>
   </g>
   <g id="patch_53">
    <path d="M 903.322014 116.732313 
C 904.520603 116.732313 905.670263 116.256109 906.517793 115.408578 
C 907.365324 114.561047 907.841529 113.411388 907.841529 112.212799 
C 907.841529 111.014209 907.365324 109.86455 906.517793 109.017019 
C 905.670263 108.169488 904.520603 107.693284 903.322014 107.693284 
C 902.123424 107.693284 900.973765 108.169488 900.126234 109.017019 
C 899.278703 109.86455 898.802499 111.014209 898.802499 112.212799 
C 898.802499 113.411388 899.278703 114.561047 900.126234 115.408578 
C 900.973765 116.256109 902.123424 116.732313 903.322014 116.732313 
z
" clip-path="url(#p40dafb146e)" style="stroke: #000000; stroke-width: 1.5; stroke-linejoin: miter"/>
   </g>
   <g id="patch_54">
    <path d="M 903.322014 308.174331 
C 906.118722 308.174331 908.801261 307.063187 910.778833 305.085615 
C 912.756404 303.108044 913.867548 300.425505 913.867548 297.628796 
C 913.867548 294.832088 912.756404 292.149548 910.778833 290.171977 
C 908.801261 288.194405 906.118722 287.083261 903.322014 287.083261 
C 900.525305 287.083261 897.842766 288.194405 895.865194 290.171977 
C 893.887623 292.149548 892.776479 294.832088 892.776479 297.628796 
C 892.776479 300.425505 893.887623 303.108044 895.865194 305.085615 
C 897.842766 307.063187 900.525305 308.174331 903.322014 308.174331 
z
" clip-path="url(#p40dafb146e)" style="stroke: #000000; stroke-width: 2; stroke-linejoin: miter"/>
   </g>
   <g id="patch_55">
    <path d="M 934.610963 127.277848 
L 964.741063 127.277848 
L 964.741063 97.147749 
L 934.610963 97.147749 
z
" clip-path="url(#p40dafb146e)" style="fill: #ffffff; stroke: #000000; stroke-width: 1.5; stroke-linejoin: miter"/>
   </g>
   <g id="patch_56">
    <path d="M 949.676013 163.086313 
C 950.874602 163.086313 952.024262 162.610108 952.871793 161.762578 
C 953.719323 160.915047 954.195528 159.765387 954.195528 158.566798 
C 954.195528 157.368209 953.719323 156.218549 952.871793 155.371018 
C 952.024262 154.523488 950.874602 154.047283 949.676013 154.047283 
C 948.477424 154.047283 947.327764 154.523488 946.480233 155.371018 
C 945.632703 156.218549 945.156498 157.368209 945.156498 158.566798 
C 945.156498 159.765387 945.632703 160.915047 946.480233 161.762578 
C 947.327764 162.610108 948.477424 163.086313 949.676013 163.086313 
z
" clip-path="url(#p40dafb146e)" style="stroke: #000000; stroke-width: 1.5; stroke-linejoin: miter"/>
   </g>
   <g id="patch_57">
    <path d="M 949.676013 308.174331 
C 952.472722 308.174331 955.155261 307.063187 957.132832 305.085615 
C 959.110404 303.108044 960.221548 300.425505 960.221548 297.628796 
C 960.221548 294.832088 959.110404 292.149548 957.132832 290.171977 
C 955.155261 288.194405 952.472722 287.083261 949.676013 287.083261 
C 946.879304 287.083261 944.196765 288.194405 942.219194 290.171977 
C 940.241622 292.149548 939.130478 294.832088 939.130478 297.628796 
C 939.130478 300.425505 940.241622 303.108044 942.219194 305.085615 
C 944.196765 307.063187 946.879304 308.174331 949.676013 308.174331 
z
" clip-path="url(#p40dafb146e)" style="stroke: #000000; stroke-width: 2; stroke-linejoin: miter"/>
   </g>
   <g id="patch_58">
    <path d="M 996.030012 209.440312 
C 997.228602 209.440312 998.378261 208.964108 999.225792 208.116577 
C 1000.073323 207.269046 1000.549527 206.119387 1000.549527 204.920797 
C 1000.549527 203.722208 1000.073323 202.572548 999.225792 201.725018 
C 998.378261 200.877487 997.228602 200.401282 996.030012 200.401282 
C 994.831423 200.401282 993.681763 200.877487 992.834233 201.725018 
C 991.986702 202.572548 991.510497 203.722208 991.510497 204.920797 
C 991.510497 206.119387 991.986702 207.269046 992.834233 208.116577 
C 993.681763 208.964108 994.831423 209.440312 996.030012 209.440312 
z
" clip-path="url(#p40dafb146e)" style="stroke: #000000; stroke-width: 1.5; stroke-linejoin: miter"/>
   </g>
   <g id="patch_59">
    <path d="M 996.030012 308.174331 
C 998.826721 308.174331 1001.50926 307.063187 1003.486832 305.085615 
C 1005.464403 303.108044 1006.575547 300.425505 1006.575547 297.628796 
C 1006.575547 294.832088 1005.464403 292.149548 1003.486832 290.171977 
C 1001.50926 288.194405 998.826721 287.083261 996.030012 287.083261 
C 993.233304 287.083261 990.550765 288.194405 988.573193 290.171977 
C 986.595622 292.149548 985.484478 294.832088 985.484478 297.628796 
C 985.484478 300.425505 986.595622 303.108044 988.573193 305.085615 
C 990.550765 307.063187 993.233304 308.174331 996.030012 308.174331 
z
" clip-path="url(#p40dafb146e)" style="stroke: #000000; stroke-width: 2; stroke-linejoin: miter"/>
   </g>
   <g id="patch_60">
    <path d="M 996.030012 163.086313 
C 997.228602 163.086313 998.378261 162.610108 999.225792 161.762578 
C 1000.073323 160.915047 1000.549527 159.765387 1000.549527 158.566798 
C 1000.549527 157.368209 1000.073323 156.218549 999.225792 155.371018 
C 998.378261 154.523488 997.228602 154.047283 996.030012 154.047283 
C 994.831423 154.047283 993.681763 154.523488 992.834233 155.371018 
C 991.986702 156.218549 991.510497 157.368209 991.510497 158.566798 
C 991.510497 159.765387 991.986702 160.915047 992.834233 161.762578 
C 993.681763 162.610108 994.831423 163.086313 996.030012 163.086313 
z
" clip-path="url(#p40dafb146e)" style="stroke: #000000; stroke-width: 1.5; stroke-linejoin: miter"/>
   </g>
   <g id="patch_61">
    <path d="M 996.030012 122.758333 
C 998.826721 122.758333 1001.50926 121.647189 1003.486832 119.669618 
C 1005.464403 117.692046 1006.575547 115.009507 1006.575547 112.212799 
C 1006.575547 109.41609 1005.464403 106.733551 1003.486832 104.755979 
C 1001.50926 102.778408 998.826721 101.667264 996.030012 101.667264 
C 993.233304 101.667264 990.550765 102.778408 988.573193 104.755979 
C 986.595622 106.733551 985.484478 109.41609 985.484478 112.212799 
C 985.484478 115.009507 986.595622 117.692046 988.573193 119.669618 
C 990.550765 121.647189 993.233304 122.758333 996.030012 122.758333 
z
" clip-path="url(#p40dafb146e)" style="stroke: #000000; stroke-width: 2; stroke-linejoin: miter"/>
   </g>
   <g id="patch_62">
    <path d="M 1042.384012 255.794312 
C 1043.582601 255.794312 1044.732261 255.318107 1045.579791 254.470576 
C 1046.427322 253.623046 1046.903527 252.473386 1046.903527 251.274797 
C 1046.903527 250.076207 1046.427322 248.926548 1045.579791 248.079017 
C 1044.732261 247.231486 1043.582601 246.755282 1042.384012 246.755282 
C 1041.185422 246.755282 1040.035763 247.231486 1039.188232 248.079017 
C 1038.340701 248.926548 1037.864497 250.076207 1037.864497 251.274797 
C 1037.864497 252.473386 1038.340701 253.623046 1039.188232 254.470576 
C 1040.035763 255.318107 1041.185422 255.794312 1042.384012 255.794312 
z
" clip-path="url(#p40dafb146e)" style="stroke: #000000; stroke-width: 1.5; stroke-linejoin: miter"/>
   </g>
   <g id="patch_63">
    <path d="M 1042.384012 308.174331 
C 1045.18072 308.174331 1047.863259 307.063187 1049.840831 305.085615 
C 1051.818403 303.108044 1052.929547 300.425505 1052.929547 297.628796 
C 1052.929547 294.832088 1051.818403 292.149548 1049.840831 290.171977 
C 1047.863259 288.194405 1045.18072 287.083261 1042.384012 287.083261 
C 1039.587303 287.083261 1036.904764 288.194405 1034.927193 290.171977 
C 1032.949621 292.149548 1031.838477 294.832088 1031.838477 297.628796 
C 1031.838477 300.425505 1032.949621 303.108044 1034.927193 305.085615 
C 1036.904764 307.063187 1039.587303 308.174331 1042.384012 308.174331 
z
" clip-path="url(#p40dafb146e)" style="stroke: #000000; stroke-width: 2; stroke-linejoin: miter"/>
   </g>
   <g id="patch_64">
    <path d="M 1042.384012 209.440312 
C 1043.582601 209.440312 1044.732261 208.964108 1045.579791 208.116577 
C 1046.427322 207.269046 1046.903527 206.119387 1046.903527 204.920797 
C 1046.903527 203.722208 1046.427322 202.572548 1045.579791 201.725018 
C 1044.732261 200.877487 1043.582601 200.401282 1042.384012 200.401282 
C 1041.185422 200.401282 1040.035763 200.877487 1039.188232 201.725018 
C 1038.340701 202.572548 1037.864497 203.722208 1037.864497 204.920797 
C 1037.864497 206.119387 1038.340701 207.269046 1039.188232 208.116577 
C 1040.035763 208.964108 1041.185422 209.440312 1042.384012 209.440312 
z
" clip-path="url(#p40dafb146e)" style="stroke: #000000; stroke-width: 1.5; stroke-linejoin: miter"/>
   </g>
   <g id="patch_65">
    <path d="M 1042.384012 122.758333 
C 1045.18072 122.758333 1047.863259 121.647189 1049.840831 119.669618 
C 1051.818403 117.692046 1052.929547 115.009507 1052.929547 112.212799 
C 1052.929547 109.41609 1051.818403 106.733551 1049.840831 104.755979 
C 1047.863259 102.778408 1045.18072 101.667264 1042.384012 101.667264 
C 1039.587303 101.667264 1036.904764 102.778408 1034.927193 104.755979 
C 1032.949621 106.733551 1031.838477 109.41609 1031.838477 112.212799 
C 1031.838477 115.009507 1032.949621 117.692046 1034.927193 119.669618 
C 1036.904764 121.647189 1039.587303 122.758333 1042.384012 122.758333 
z
" clip-path="url(#p40dafb146e)" style="stroke: #000000; stroke-width: 2; stroke-linejoin: miter"/>
   </g>
   <g id="patch_66">
    <path d="M 1073.672961 266.339846 
L 1103.803061 266.339846 
L 1103.803061 236.209747 
L 1073.672961 236.209747 
z
" clip-path="url(#p40dafb146e)" style="fill: #ffffff; stroke: #000000; stroke-width: 1.5; stroke-linejoin: miter"/>
   </g>
   <g id="patch_67">
    <path d="M 1120.026961 266.339846 
L 1150.15706 266.339846 
L 1150.15706 236.209747 
L 1120.026961 236.209747 
z
" clip-path="url(#p40dafb146e)" style="fill: #ffffff; stroke: #000000; stroke-width: 1.5; stroke-linejoin: miter"/>
   </g>
   <g id="patch_68">
    <path d="M 1181.44601 255.794312 
C 1182.644599 255.794312 1183.794259 255.318107 1184.64179 254.470576 
C 1185.48932 253.623046 1185.965525 252.473386 1185.965525 251.274797 
C 1185.965525 250.076207 1185.48932 248.926548 1184.64179 248.079017 
C 1183.794259 247.231486 1182.644599 246.755282 1181.44601 246.755282 
C 1180.247421 246.755282 1179.097761 247.231486 1178.25023 248.079017 
C 1177.4027 248.926548 1176.926495 250.076207 1176.926495 251.274797 
C 1176.926495 252.473386 1177.4027 253.623046 1178.25023 254.470576 
C 1179.097761 255.318107 1180.247421 255.794312 1181.44601 255.794312 
z
" clip-path="url(#p40dafb146e)" style="stroke: #000000; stroke-width: 1.5; stroke-linejoin: miter"/>
   </g>
   <g id="patch_69">
    <path d="M 1181.44601 122.758333 
C 1184.242718 122.758333 1186.925258 121.647189 1188.902829 119.669618 
C 1190.880401 117.692046 1191.991545 115.009507 1191.991545 112.212799 
C 1191.991545 109.41609 1190.880401 106.733551 1188.902829 104.755979 
C 1186.925258 102.778408 1184.242718 101.667264 1181.44601 101.667264 
C 1178.649301 101.667264 1175.966762 102.778408 1173.989191 104.755979 
C 1172.011619 106.733551 1170.900475 109.41609 1170.900475 112.212799 
C 1170.900475 115.009507 1172.011619 117.692046 1173.989191 119.669618 
C 1175.966762 121.647189 1178.649301 122.758333 1181.44601 122.758333 
z
" clip-path="url(#p40dafb146e)" style="stroke: #000000; stroke-width: 2; stroke-linejoin: miter"/>
   </g>
   <g id="patch_70">
    <path d="M 1227.800009 394.85631 
C 1228.998599 394.85631 1230.148258 394.380105 1230.995789 393.532574 
C 1231.84332 392.685044 1232.319524 391.535384 1232.319524 390.336795 
C 1232.319524 389.138205 1231.84332 387.988546 1230.995789 387.141015 
C 1230.148258 386.293484 1228.998599 385.81728 1227.800009 385.81728 
C 1226.60142 385.81728 1225.45176 386.293484 1224.60423 387.141015 
C 1223.756699 387.988546 1223.280494 389.138205 1223.280494 390.336795 
C 1223.280494 391.535384 1223.756699 392.685044 1224.60423 393.532574 
C 1225.45176 394.380105 1226.60142 394.85631 1227.800009 394.85631 
z
" clip-path="url(#p40dafb146e)" style="stroke: #000000; stroke-width: 1.5; stroke-linejoin: miter"/>
   </g>
   <g id="patch_71">
    <path d="M 1227.800009 122.758333 
C 1230.596718 122.758333 1233.279257 121.647189 1235.256828 119.669618 
C 1237.2344 117.692046 1238.345544 115.009507 1238.345544 112.212799 
C 1238.345544 109.41609 1237.2344 106.733551 1235.256828 104.755979 
C 1233.279257 102.778408 1230.596718 101.667264 1227.800009 101.667264 
C 1225.003301 101.667264 1222.320762 102.778408 1220.34319 104.755979 
C 1218.365619 106.733551 1217.254474 109.41609 1217.254474 112.212799 
C 1217.254474 115.009507 1218.365619 117.692046 1220.34319 119.669618 
C 1222.320762 121.647189 1225.003301 122.758333 1227.800009 122.758333 
z
" clip-path="url(#p40dafb146e)" style="stroke: #000000; stroke-width: 2; stroke-linejoin: miter"/>
   </g>
   <g id="patch_72">
    <path d="M 1273.280236 127.277848 
L 1321.381781 127.277848 
L 1321.381781 97.147749 
L 1273.280236 97.147749 
z
" clip-path="url(#p40dafb146e)" style="fill: #ffffff; stroke: #000000; stroke-width: 1.5; stroke-linejoin: miter"/>
   </g>
   <g id="patch_73">
    <path d="M 1366.862007 394.85631 
C 1368.060597 394.85631 1369.210256 394.380105 1370.057787 393.532574 
C 1370.905318 392.685044 1371.381522 391.535384 1371.381522 390.336795 
C 1371.381522 389.138205 1370.905318 387.988546 1370.057787 387.141015 
C 1369.210256 386.293484 1368.060597 385.81728 1366.862007 385.81728 
C 1365.663418 385.81728 1364.513758 386.293484 1363.666228 387.141015 
C 1362.818697 387.988546 1362.342492 389.138205 1362.342492 390.336795 
C 1362.342492 391.535384 1362.818697 392.685044 1363.666228 393.532574 
C 1364.513758 394.380105 1365.663418 394.85631 1366.862007 394.85631 
z
" clip-path="url(#p40dafb146e)" style="stroke: #000000; stroke-width: 1.5; stroke-linejoin: miter"/>
   </g>
   <g id="patch_74">
    <path d="M 1366.862007 122.758333 
C 1369.658716 122.758333 1372.341255 121.647189 1374.318827 119.669618 
C 1376.296398 117.692046 1377.407542 115.009507 1377.407542 112.212799 
C 1377.407542 109.41609 1376.296398 106.733551 1374.318827 104.755979 
C 1372.341255 102.778408 1369.658716 101.667264 1366.862007 101.667264 
C 1364.065299 101.667264 1361.38276 102.778408 1359.405188 104.755979 
C 1357.427617 106.733551 1356.316473 109.41609 1356.316473 112.212799 
C 1356.316473 115.009507 1357.427617 117.692046 1359.405188 119.669618 
C 1361.38276 121.647189 1364.065299 122.758333 1366.862007 122.758333 
z
" clip-path="url(#p40dafb146e)" style="stroke: #000000; stroke-width: 2; stroke-linejoin: miter"/>
   </g>
   <g id="patch_75">
    <path d="M 1413.216007 255.794312 
C 1414.414596 255.794312 1415.564256 255.318107 1416.411786 254.470576 
C 1417.259317 253.623046 1417.735522 252.473386 1417.735522 251.274797 
C 1417.735522 250.076207 1417.259317 248.926548 1416.411786 248.079017 
C 1415.564256 247.231486 1414.414596 246.755282 1413.216007 246.755282 
C 1412.017417 246.755282 1410.867758 247.231486 1410.020227 248.079017 
C 1409.172696 248.926548 1408.696492 250.076207 1408.696492 251.274797 
C 1408.696492 252.473386 1409.172696 253.623046 1410.020227 254.470576 
C 1410.867758 255.318107 1412.017417 255.794312 1413.216007 255.794312 
z
" clip-path="url(#p40dafb146e)" style="stroke: #000000; stroke-width: 1.5; stroke-linejoin: miter"/>
   </g>
   <g id="patch_76">
    <path d="M 1413.216007 122.758333 
C 1416.012715 122.758333 1418.695254 121.647189 1420.672826 119.669618 
C 1422.650398 117.692046 1423.761542 115.009507 1423.761542 112.212799 
C 1423.761542 109.41609 1422.650398 106.733551 1420.672826 104.755979 
C 1418.695254 102.778408 1416.012715 101.667264 1413.216007 101.667264 
C 1410.419298 101.667264 1407.736759 102.778408 1405.759188 104.755979 
C 1403.781616 106.733551 1402.670472 109.41609 1402.670472 112.212799 
C 1402.670472 115.009507 1403.781616 117.692046 1405.759188 119.669618 
C 1407.736759 121.647189 1410.419298 122.758333 1413.216007 122.758333 
z
" clip-path="url(#p40dafb146e)" style="stroke: #000000; stroke-width: 2; stroke-linejoin: miter"/>
   </g>
   <g id="patch_77">
    <path d="M 1444.504956 266.339846 
L 1474.635056 266.339846 
L 1474.635056 236.209747 
L 1444.504956 236.209747 
z
" clip-path="url(#p40dafb146e)" style="fill: #ffffff; stroke: #000000; stroke-width: 1.5; stroke-linejoin: miter"/>
   </g>
   <g id="patch_78">
    <path d="M 1459.570006 209.440312 
C 1460.768596 209.440312 1461.918255 208.964108 1462.765786 208.116577 
C 1463.613317 207.269046 1464.089521 206.119387 1464.089521 204.920797 
C 1464.089521 203.722208 1463.613317 202.572548 1462.765786 201.725018 
C 1461.918255 200.877487 1460.768596 200.401282 1459.570006 200.401282 
C 1458.371417 200.401282 1457.221757 200.877487 1456.374227 201.725018 
C 1455.526696 202.572548 1455.050491 203.722208 1455.050491 204.920797 
C 1455.050491 206.119387 1455.526696 207.269046 1456.374227 208.116577 
C 1457.221757 208.964108 1458.371417 209.440312 1459.570006 209.440312 
z
" clip-path="url(#p40dafb146e)" style="stroke: #000000; stroke-width: 1.5; stroke-linejoin: miter"/>
   </g>
   <g id="patch_79">
    <path d="M 1459.570006 122.758333 
C 1462.366715 122.758333 1465.049254 121.647189 1467.026825 119.669618 
C 1469.004397 117.692046 1470.115541 115.009507 1470.115541 112.212799 
C 1470.115541 109.41609 1469.004397 106.733551 1467.026825 104.755979 
C 1465.049254 102.778408 1462.366715 101.667264 1459.570006 101.667264 
C 1456.773298 101.667264 1454.090759 102.778408 1452.113187 104.755979 
C 1450.135615 106.733551 1449.024471 109.41609 1449.024471 112.212799 
C 1449.024471 115.009507 1450.135615 117.692046 1452.113187 119.669618 
C 1454.090759 121.647189 1456.773298 122.758333 1459.570006 122.758333 
z
" clip-path="url(#p40dafb146e)" style="stroke: #000000; stroke-width: 2; stroke-linejoin: miter"/>
   </g>
   <g id="patch_80">
    <path d="M 1490.858956 266.339846 
L 1520.989055 266.339846 
L 1520.989055 236.209747 
L 1490.858956 236.209747 
z
" clip-path="url(#p40dafb146e)" style="fill: #ffffff; stroke: #000000; stroke-width: 1.5; stroke-linejoin: miter"/>
   </g>
   <g id="patch_81">
    <path d="M 1505.924006 163.086313 
C 1507.122595 163.086313 1508.272255 162.610108 1509.119785 161.762578 
C 1509.967316 160.915047 1510.443521 159.765387 1510.443521 158.566798 
C 1510.443521 157.368209 1509.967316 156.218549 1509.119785 155.371018 
C 1508.272255 154.523488 1507.122595 154.047283 1505.924006 154.047283 
C 1504.725416 154.047283 1503.575757 154.523488 1502.728226 155.371018 
C 1501.880695 156.218549 1501.404491 157.368209 1501.404491 158.566798 
C 1501.404491 159.765387 1501.880695 160.915047 1502.728226 161.762578 
C 1503.575757 162.610108 1504.725416 163.086313 1505.924006 163.086313 
z
" clip-path="url(#p40dafb146e)" style="stroke: #000000; stroke-width: 1.5; stroke-linejoin: miter"/>
   </g>
   <g id="patch_82">
    <path d="M 1505.924006 122.758333 
C 1508.720714 122.758333 1511.403253 121.647189 1513.380825 119.669618 
C 1515.358396 117.692046 1516.46954 115.009507 1516.46954 112.212799 
C 1516.46954 109.41609 1515.358396 106.733551 1513.380825 104.755979 
C 1511.403253 102.778408 1508.720714 101.667264 1505.924006 101.667264 
C 1503.127297 101.667264 1500.444758 102.778408 1498.467186 104.755979 
C 1496.489615 106.733551 1495.378471 109.41609 1495.378471 112.212799 
C 1495.378471 115.009507 1496.489615 117.692046 1498.467186 119.669618 
C 1500.444758 121.647189 1503.127297 122.758333 1505.924006 122.758333 
z
" clip-path="url(#p40dafb146e)" style="stroke: #000000; stroke-width: 2; stroke-linejoin: miter"/>
   </g>
   <g id="text_2">
    <g clip-path="url(#p40dafb146e)">
     <!-- ${q}_{0}$ -->
     <g transform="translate(248.380562 116.663775)scale(0.1625 -0.1625)">
      <defs>
       <path id="DejaVuSans-Oblique-71" d="M 2669 525 
Q 2438 222 2123 65 
Q 1809 -91 1428 -91 
Q 897 -91 595 267 
Q 294 625 294 1253 
Q 294 1759 480 2231 
Q 666 2703 1013 3078 
Q 1238 3322 1530 3453 
Q 1822 3584 2144 3584 
Q 2531 3584 2781 3431 
Q 3031 3278 3144 2969 
L 3244 3494 
L 3822 3494 
L 2888 -1319 
L 2309 -1319 
L 2669 525 
z
M 891 1338 
Q 891 875 1084 633 
Q 1278 391 1644 391 
Q 2188 391 2572 911 
Q 2956 1431 2956 2175 
Q 2956 2625 2757 2864 
Q 2559 3103 2188 3103 
Q 1916 3103 1684 2976 
Q 1453 2850 1281 2606 
Q 1100 2350 995 2006 
Q 891 1663 891 1338 
z
" transform="scale(0.015625)"/>
       <path id="DejaVuSans-30" d="M 2034 4250 
Q 1547 4250 1301 3770 
Q 1056 3291 1056 2328 
Q 1056 1369 1301 889 
Q 1547 409 2034 409 
Q 2525 409 2770 889 
Q 3016 1369 3016 2328 
Q 3016 3291 2770 3770 
Q 2525 4250 2034 4250 
z
M 2034 4750 
Q 2819 4750 3233 4129 
Q 3647 3509 3647 2328 
Q 3647 1150 3233 529 
Q 2819 -91 2034 -91 
Q 1250 -91 836 529 
Q 422 1150 422 2328 
Q 422 3509 836 4129 
Q 1250 4750 2034 4750 
z
" transform="scale(0.015625)"/>
      </defs>
      <use xlink:href="#DejaVuSans-Oblique-71"/>
      <use xlink:href="#DejaVuSans-30" transform="translate(63.476562 -16.40625)scale(0.7)"/>
     </g>
    </g>
   </g>
   <g id="text_3">
    <g clip-path="url(#p40dafb146e)">
     <!-- ${q}_{1}$ -->
     <g transform="translate(248.380562 163.017774)scale(0.1625 -0.1625)">
      <defs>
       <path id="DejaVuSans-31" d="M 794 531 
L 1825 531 
L 1825 4091 
L 703 3866 
L 703 4441 
L 1819 4666 
L 2450 4666 
L 2450 531 
L 3481 531 
L 3481 0 
L 794 0 
L 794 531 
z
" transform="scale(0.015625)"/>
      </defs>
      <use xlink:href="#DejaVuSans-Oblique-71"/>
      <use xlink:href="#DejaVuSans-31" transform="translate(63.476562 -16.40625)scale(0.7)"/>
     </g>
    </g>
   </g>
   <g id="text_4">
    <g clip-path="url(#p40dafb146e)">
     <!-- ${q}_{2}$ -->
     <g transform="translate(248.380562 209.371774)scale(0.1625 -0.1625)">
      <use xlink:href="#DejaVuSans-Oblique-71"/>
      <use xlink:href="#DejaVuSans-32" transform="translate(63.476562 -16.40625)scale(0.7)"/>
     </g>
    </g>
   </g>
   <g id="text_5">
    <g clip-path="url(#p40dafb146e)">
     <!-- ${q}_{3}$ -->
     <g transform="translate(248.380562 255.725773)scale(0.1625 -0.1625)">
      <defs>
       <path id="DejaVuSans-33" d="M 2597 2516 
Q 3050 2419 3304 2112 
Q 3559 1806 3559 1356 
Q 3559 666 3084 287 
Q 2609 -91 1734 -91 
Q 1441 -91 1130 -33 
Q 819 25 488 141 
L 488 750 
Q 750 597 1062 519 
Q 1375 441 1716 441 
Q 2309 441 2620 675 
Q 2931 909 2931 1356 
Q 2931 1769 2642 2001 
Q 2353 2234 1838 2234 
L 1294 2234 
L 1294 2753 
L 1863 2753 
Q 2328 2753 2575 2939 
Q 2822 3125 2822 3475 
Q 2822 3834 2567 4026 
Q 2313 4219 1838 4219 
Q 1578 4219 1281 4162 
Q 984 4106 628 3988 
L 628 4550 
Q 988 4650 1302 4700 
Q 1616 4750 1894 4750 
Q 2613 4750 3031 4423 
Q 3450 4097 3450 3541 
Q 3450 3153 3228 2886 
Q 3006 2619 2597 2516 
z
" transform="scale(0.015625)"/>
      </defs>
      <use xlink:href="#DejaVuSans-Oblique-71"/>
      <use xlink:href="#DejaVuSans-33" transform="translate(63.476562 -16.40625)scale(0.7)"/>
     </g>
    </g>
   </g>
   <g id="text_6">
    <g clip-path="url(#p40dafb146e)">
     <!-- ${q}_{4}$ -->
     <g transform="translate(248.380562 302.079773)scale(0.1625 -0.1625)">
      <use xlink:href="#DejaVuSans-Oblique-71"/>
      <use xlink:href="#DejaVuSans-34" transform="translate(63.476562 -16.40625)scale(0.7)"/>
     </g>
    </g>
   </g>
   <g id="text_7">
    <g clip-path="url(#p40dafb146e)">
     <!-- ${q}_{5}$ -->
     <g transform="translate(248.380562 348.433772)scale(0.1625 -0.1625)">
      <defs>
       <path id="DejaVuSans-35" d="M 691 4666 
L 3169 4666 
L 3169 4134 
L 1269 4134 
L 1269 2991 
Q 1406 3038 1543 3061 
Q 1681 3084 1819 3084 
Q 2600 3084 3056 2656 
Q 3513 2228 3513 1497 
Q 3513 744 3044 326 
Q 2575 -91 1722 -91 
Q 1428 -91 1123 -41 
Q 819 9 494 109 
L 494 744 
Q 775 591 1075 516 
Q 1375 441 1709 441 
Q 2250 441 2565 725 
Q 2881 1009 2881 1497 
Q 2881 1984 2565 2268 
Q 2250 2553 1709 2553 
Q 1456 2553 1204 2497 
Q 953 2441 691 2322 
L 691 4666 
z
" transform="scale(0.015625)"/>
      </defs>
      <use xlink:href="#DejaVuSans-Oblique-71"/>
      <use xlink:href="#DejaVuSans-35" transform="translate(63.476562 -16.40625)scale(0.7)"/>
     </g>
    </g>
   </g>
   <g id="text_8">
    <g clip-path="url(#p40dafb146e)">
     <!-- ${q}_{6}$ -->
     <g transform="translate(248.380562 394.787771)scale(0.1625 -0.1625)">
      <use xlink:href="#DejaVuSans-Oblique-71"/>
      <use xlink:href="#DejaVuSans-36" transform="translate(63.476562 -16.40625)scale(0.7)"/>
     </g>
    </g>
   </g>
   <g id="text_9">
    <g clip-path="url(#p40dafb146e)">
     <!-- ${q}_{7}$ -->
     <g transform="translate(248.380562 441.141771)scale(0.1625 -0.1625)">
      <defs>
       <path id="DejaVuSans-37" d="M 525 4666 
L 3525 4666 
L 3525 4397 
L 1831 0 
L 1172 0 
L 2766 4134 
L 525 4134 
L 525 4666 
z
" transform="scale(0.015625)"/>
      </defs>
      <use xlink:href="#DejaVuSans-Oblique-71"/>
      <use xlink:href="#DejaVuSans-37" transform="translate(63.476562 -16.40625)scale(0.7)"/>
     </g>
    </g>
   </g>
   <g id="text_10">
    <g clip-path="url(#p40dafb146e)">
     <!-- ${q}_{8}$ -->
     <g transform="translate(248.380562 487.49577)scale(0.1625 -0.1625)">
      <defs>
       <path id="DejaVuSans-38" d="M 2034 2216 
Q 1584 2216 1326 1975 
Q 1069 1734 1069 1313 
Q 1069 891 1326 650 
Q 1584 409 2034 409 
Q 2484 409 2743 651 
Q 3003 894 3003 1313 
Q 3003 1734 2745 1975 
Q 2488 2216 2034 2216 
z
M 1403 2484 
Q 997 2584 770 2862 
Q 544 3141 544 3541 
Q 544 4100 942 4425 
Q 1341 4750 2034 4750 
Q 2731 4750 3128 4425 
Q 3525 4100 3525 3541 
Q 3525 3141 3298 2862 
Q 3072 2584 2669 2484 
Q 3125 2378 3379 2068 
Q 3634 1759 3634 1313 
Q 3634 634 3220 271 
Q 2806 -91 2034 -91 
Q 1263 -91 848 271 
Q 434 634 434 1313 
Q 434 1759 690 2068 
Q 947 2378 1403 2484 
z
M 1172 3481 
Q 1172 3119 1398 2916 
Q 1625 2713 2034 2713 
Q 2441 2713 2670 2916 
Q 2900 3119 2900 3481 
Q 2900 3844 2670 4047 
Q 2441 4250 2034 4250 
Q 1625 4250 1398 4047 
Q 1172 3844 1172 3481 
z
" transform="scale(0.015625)"/>
      </defs>
      <use xlink:href="#DejaVuSans-Oblique-71"/>
      <use xlink:href="#DejaVuSans-38" transform="translate(63.476562 -16.40625)scale(0.7)"/>
     </g>
    </g>
   </g>
   <g id="text_11">
    <g clip-path="url(#p40dafb146e)">
     <!-- ${q}_{9}$ -->
     <g transform="translate(248.380562 533.84977)scale(0.1625 -0.1625)">
      <defs>
       <path id="DejaVuSans-39" d="M 703 97 
L 703 672 
Q 941 559 1184 500 
Q 1428 441 1663 441 
Q 2288 441 2617 861 
Q 2947 1281 2994 2138 
Q 2813 1869 2534 1725 
Q 2256 1581 1919 1581 
Q 1219 1581 811 2004 
Q 403 2428 403 3163 
Q 403 3881 828 4315 
Q 1253 4750 1959 4750 
Q 2769 4750 3195 4129 
Q 3622 3509 3622 2328 
Q 3622 1225 3098 567 
Q 2575 -91 1691 -91 
Q 1453 -91 1209 -44 
Q 966 3 703 97 
z
M 1959 2075 
Q 2384 2075 2632 2365 
Q 2881 2656 2881 3163 
Q 2881 3666 2632 3958 
Q 2384 4250 1959 4250 
Q 1534 4250 1286 3958 
Q 1038 3666 1038 3163 
Q 1038 2656 1286 2365 
Q 1534 2075 1959 2075 
z
" transform="scale(0.015625)"/>
      </defs>
      <use xlink:href="#DejaVuSans-Oblique-71"/>
      <use xlink:href="#DejaVuSans-39" transform="translate(63.476562 -16.40625)scale(0.7)"/>
     </g>
    </g>
   </g>
   <g id="text_12">
    <g clip-path="url(#p40dafb146e)">
     <!-- $-$0.78 -->
     <g transform="translate(288.760022 262.521327)scale(0.08 -0.08)">
      <defs>
       <path id="DejaVuSans-2212" d="M 678 2272 
L 4684 2272 
L 4684 1741 
L 678 1741 
L 678 2272 
z
" transform="scale(0.015625)"/>
       <path id="DejaVuSans-2e" d="M 684 794 
L 1344 794 
L 1344 0 
L 684 0 
L 684 794 
z
" transform="scale(0.015625)"/>
      </defs>
      <use xlink:href="#DejaVuSans-2212" transform="translate(0 0.78125)"/>
      <use xlink:href="#DejaVuSans-30" transform="translate(83.789062 0.78125)"/>
      <use xlink:href="#DejaVuSans-2e" transform="translate(147.412109 0.78125)"/>
      <use xlink:href="#DejaVuSans-37" transform="translate(171.449219 0.78125)"/>
      <use xlink:href="#DejaVuSans-38" transform="translate(235.072266 0.78125)"/>
     </g>
    </g>
   </g>
   <g id="text_13">
    <g clip-path="url(#p40dafb146e)">
     <!-- $\mathrm{R_Z}$ -->
     <g transform="translate(292.790022 250.342469)scale(0.13 -0.13)">
      <defs>
       <path id="DejaVuSans-5a" d="M 359 4666 
L 4025 4666 
L 4025 4184 
L 1075 531 
L 4097 531 
L 4097 0 
L 288 0 
L 288 481 
L 3238 4134 
L 359 4134 
L 359 4666 
z
" transform="scale(0.015625)"/>
      </defs>
      <use xlink:href="#DejaVuSans-52" transform="translate(0 0.09375)"/>
      <use xlink:href="#DejaVuSans-5a" transform="translate(70.439453 -16.3125)scale(0.7)"/>
     </g>
    </g>
   </g>
   <g id="line2d_41">
    <path d="M 300.720022 118.238818 
L 300.720022 106.186779 
" clip-path="url(#p40dafb146e)" style="fill: none; stroke: #ffffff; stroke-width: 2; stroke-linecap: square"/>
   </g>
   <g id="line2d_42">
    <path d="M 294.694002 112.212799 
L 306.746042 112.212799 
" clip-path="url(#p40dafb146e)" style="fill: none; stroke: #ffffff; stroke-width: 2; stroke-linecap: square"/>
   </g>
   <g id="text_14">
    <g clip-path="url(#p40dafb146e)">
     <!-- H -->
     <g transform="translate(295.831818 301.215984)scale(0.13 -0.13)">
      <use xlink:href="#DejaVuSans-48"/>
     </g>
    </g>
   </g>
   <g id="text_15">
    <g clip-path="url(#p40dafb146e)">
     <!-- H -->
     <g transform="translate(295.831818 532.98598)scale(0.13 -0.13)">
      <use xlink:href="#DejaVuSans-48"/>
     </g>
    </g>
   </g>
   <g id="text_16">
    <g clip-path="url(#p40dafb146e)">
     <!-- H -->
     <g transform="translate(295.831818 486.631981)scale(0.13 -0.13)">
      <use xlink:href="#DejaVuSans-48"/>
     </g>
    </g>
   </g>
   <g id="text_17">
    <g clip-path="url(#p40dafb146e)">
     <!-- $-$0.78 -->
     <g transform="translate(335.114021 262.521327)scale(0.08 -0.08)">
      <use xlink:href="#DejaVuSans-2212" transform="translate(0 0.78125)"/>
      <use xlink:href="#DejaVuSans-30" transform="translate(83.789062 0.78125)"/>
      <use xlink:href="#DejaVuSans-2e" transform="translate(147.412109 0.78125)"/>
      <use xlink:href="#DejaVuSans-37" transform="translate(171.449219 0.78125)"/>
      <use xlink:href="#DejaVuSans-38" transform="translate(235.072266 0.78125)"/>
     </g>
    </g>
   </g>
   <g id="text_18">
    <g clip-path="url(#p40dafb146e)">
     <!-- $\mathrm{R_Z}$ -->
     <g transform="translate(339.144021 250.342469)scale(0.13 -0.13)">
      <use xlink:href="#DejaVuSans-52" transform="translate(0 0.09375)"/>
      <use xlink:href="#DejaVuSans-5a" transform="translate(70.439453 -16.3125)scale(0.7)"/>
     </g>
    </g>
   </g>
   <g id="line2d_43">
    <path d="M 347.074021 118.238818 
L 347.074021 106.186779 
" clip-path="url(#p40dafb146e)" style="fill: none; stroke: #ffffff; stroke-width: 2; stroke-linecap: square"/>
   </g>
   <g id="line2d_44">
    <path d="M 341.048001 112.212799 
L 353.100041 112.212799 
" clip-path="url(#p40dafb146e)" style="fill: none; stroke: #ffffff; stroke-width: 2; stroke-linecap: square"/>
   </g>
   <g id="line2d_45">
    <path d="M 347.074021 442.716814 
L 347.074021 430.664774 
" clip-path="url(#p40dafb146e)" style="fill: none; stroke: #ffffff; stroke-width: 2; stroke-linecap: square"/>
   </g>
   <g id="line2d_46">
    <path d="M 341.048001 436.690794 
L 353.100041 436.690794 
" clip-path="url(#p40dafb146e)" style="fill: none; stroke: #ffffff; stroke-width: 2; stroke-linecap: square"/>
   </g>
   <g id="line2d_47">
    <path d="M 393.42802 118.238818 
L 393.42802 106.186779 
" clip-path="url(#p40dafb146e)" style="fill: none; stroke: #ffffff; stroke-width: 2; stroke-linecap: square"/>
   </g>
   <g id="line2d_48">
    <path d="M 387.402 112.212799 
L 399.45404 112.212799 
" clip-path="url(#p40dafb146e)" style="fill: none; stroke: #ffffff; stroke-width: 2; stroke-linecap: square"/>
   </g>
   <g id="line2d_49">
    <path d="M 393.42802 442.716814 
L 393.42802 430.664774 
" clip-path="url(#p40dafb146e)" style="fill: none; stroke: #ffffff; stroke-width: 2; stroke-linecap: square"/>
   </g>
   <g id="line2d_50">
    <path d="M 387.402 436.690794 
L 399.45404 436.690794 
" clip-path="url(#p40dafb146e)" style="fill: none; stroke: #ffffff; stroke-width: 2; stroke-linecap: square"/>
   </g>
   <g id="text_19">
    <g clip-path="url(#p40dafb146e)">
     <!-- H -->
     <g transform="translate(388.539817 532.98598)scale(0.13 -0.13)">
      <use xlink:href="#DejaVuSans-48"/>
     </g>
    </g>
   </g>
   <g id="line2d_51">
    <path d="M 439.78202 118.238818 
L 439.78202 106.186779 
" clip-path="url(#p40dafb146e)" style="fill: none; stroke: #ffffff; stroke-width: 2; stroke-linecap: square"/>
   </g>
   <g id="line2d_52">
    <path d="M 433.756 112.212799 
L 445.80804 112.212799 
" clip-path="url(#p40dafb146e)" style="fill: none; stroke: #ffffff; stroke-width: 2; stroke-linecap: square"/>
   </g>
   <g id="text_20">
    <g clip-path="url(#p40dafb146e)">
     <!-- 0.00724 -->
     <g transform="translate(423.24077 447.937324)scale(0.08 -0.08)">
      <use xlink:href="#DejaVuSans-30"/>
      <use xlink:href="#DejaVuSans-2e" x="63.623047"/>
      <use xlink:href="#DejaVuSans-30" x="95.410156"/>
      <use xlink:href="#DejaVuSans-30" x="159.033203"/>
      <use xlink:href="#DejaVuSans-37" x="222.65625"/>
      <use xlink:href="#DejaVuSans-32" x="286.279297"/>
      <use xlink:href="#DejaVuSans-34" x="349.902344"/>
     </g>
    </g>
   </g>
   <g id="text_21">
    <g clip-path="url(#p40dafb146e)">
     <!-- $\mathrm{R_Z}$ -->
     <g transform="translate(431.85202 435.758467)scale(0.13 -0.13)">
      <use xlink:href="#DejaVuSans-52" transform="translate(0 0.09375)"/>
      <use xlink:href="#DejaVuSans-5a" transform="translate(70.439453 -16.3125)scale(0.7)"/>
     </g>
    </g>
   </g>
   <g id="text_22">
    <g clip-path="url(#p40dafb146e)">
     <!-- H -->
     <g transform="translate(434.893817 486.631981)scale(0.13 -0.13)">
      <use xlink:href="#DejaVuSans-48"/>
     </g>
    </g>
   </g>
   <g id="text_23">
    <g clip-path="url(#p40dafb146e)">
     <!-- $-$0.0119 -->
     <g transform="translate(468.776019 123.459328)scale(0.08 -0.08)">
      <use xlink:href="#DejaVuSans-2212" transform="translate(0 0.78125)"/>
      <use xlink:href="#DejaVuSans-30" transform="translate(83.789062 0.78125)"/>
      <use xlink:href="#DejaVuSans-2e" transform="translate(147.412109 0.78125)"/>
      <use xlink:href="#DejaVuSans-30" transform="translate(179.199219 0.78125)"/>
      <use xlink:href="#DejaVuSans-31" transform="translate(242.822266 0.78125)"/>
      <use xlink:href="#DejaVuSans-31" transform="translate(306.445312 0.78125)"/>
      <use xlink:href="#DejaVuSans-39" transform="translate(370.068359 0.78125)"/>
     </g>
    </g>
   </g>
   <g id="text_24">
    <g clip-path="url(#p40dafb146e)">
     <!-- $\mathrm{R_Z}$ -->
     <g transform="translate(478.206019 111.280471)scale(0.13 -0.13)">
      <use xlink:href="#DejaVuSans-52" transform="translate(0 0.09375)"/>
      <use xlink:href="#DejaVuSans-5a" transform="translate(70.439453 -16.3125)scale(0.7)"/>
     </g>
    </g>
   </g>
   <g id="line2d_53">
    <path d="M 486.136019 442.716814 
L 486.136019 430.664774 
" clip-path="url(#p40dafb146e)" style="fill: none; stroke: #ffffff; stroke-width: 2; stroke-linecap: square"/>
   </g>
   <g id="line2d_54">
    <path d="M 480.109999 436.690794 
L 492.162039 436.690794 
" clip-path="url(#p40dafb146e)" style="fill: none; stroke: #ffffff; stroke-width: 2; stroke-linecap: square"/>
   </g>
   <g id="line2d_55">
    <path d="M 532.490019 118.238818 
L 532.490019 106.186779 
" clip-path="url(#p40dafb146e)" style="fill: none; stroke: #ffffff; stroke-width: 2; stroke-linecap: square"/>
   </g>
   <g id="line2d_56">
    <path d="M 526.463999 112.212799 
L 538.516038 112.212799 
" clip-path="url(#p40dafb146e)" style="fill: none; stroke: #ffffff; stroke-width: 2; stroke-linecap: square"/>
   </g>
   <g id="line2d_57">
    <path d="M 532.490019 442.716814 
L 532.490019 430.664774 
" clip-path="url(#p40dafb146e)" style="fill: none; stroke: #ffffff; stroke-width: 2; stroke-linecap: square"/>
   </g>
   <g id="line2d_58">
    <path d="M 526.463999 436.690794 
L 538.516038 436.690794 
" clip-path="url(#p40dafb146e)" style="fill: none; stroke: #ffffff; stroke-width: 2; stroke-linecap: square"/>
   </g>
   <g id="line2d_59">
    <path d="M 578.844018 118.238818 
L 578.844018 106.186779 
" clip-path="url(#p40dafb146e)" style="fill: none; stroke: #ffffff; stroke-width: 2; stroke-linecap: square"/>
   </g>
   <g id="line2d_60">
    <path d="M 572.817998 112.212799 
L 584.870038 112.212799 
" clip-path="url(#p40dafb146e)" style="fill: none; stroke: #ffffff; stroke-width: 2; stroke-linecap: square"/>
   </g>
   <g id="text_25">
    <g clip-path="url(#p40dafb146e)">
     <!-- 0.00724 -->
     <g transform="translate(562.302768 447.937324)scale(0.08 -0.08)">
      <use xlink:href="#DejaVuSans-30"/>
      <use xlink:href="#DejaVuSans-2e" x="63.623047"/>
      <use xlink:href="#DejaVuSans-30" x="95.410156"/>
      <use xlink:href="#DejaVuSans-30" x="159.033203"/>
      <use xlink:href="#DejaVuSans-37" x="222.65625"/>
      <use xlink:href="#DejaVuSans-32" x="286.279297"/>
      <use xlink:href="#DejaVuSans-34" x="349.902344"/>
     </g>
    </g>
   </g>
   <g id="text_26">
    <g clip-path="url(#p40dafb146e)">
     <!-- $\mathrm{R_Z}$ -->
     <g transform="translate(570.914018 435.758467)scale(0.13 -0.13)">
      <use xlink:href="#DejaVuSans-52" transform="translate(0 0.09375)"/>
      <use xlink:href="#DejaVuSans-5a" transform="translate(70.439453 -16.3125)scale(0.7)"/>
     </g>
    </g>
   </g>
   <g id="line2d_61">
    <path d="M 625.198017 118.238818 
L 625.198017 106.186779 
" clip-path="url(#p40dafb146e)" style="fill: none; stroke: #ffffff; stroke-width: 2; stroke-linecap: square"/>
   </g>
   <g id="line2d_62">
    <path d="M 619.171997 112.212799 
L 631.224037 112.212799 
" clip-path="url(#p40dafb146e)" style="fill: none; stroke: #ffffff; stroke-width: 2; stroke-linecap: square"/>
   </g>
   <g id="text_27">
    <g clip-path="url(#p40dafb146e)">
     <!-- $-$0.78 -->
     <g transform="translate(613.238017 262.521327)scale(0.08 -0.08)">
      <use xlink:href="#DejaVuSans-2212" transform="translate(0 0.78125)"/>
      <use xlink:href="#DejaVuSans-30" transform="translate(83.789062 0.78125)"/>
      <use xlink:href="#DejaVuSans-2e" transform="translate(147.412109 0.78125)"/>
      <use xlink:href="#DejaVuSans-37" transform="translate(171.449219 0.78125)"/>
      <use xlink:href="#DejaVuSans-38" transform="translate(235.072266 0.78125)"/>
     </g>
    </g>
   </g>
   <g id="text_28">
    <g clip-path="url(#p40dafb146e)">
     <!-- $\mathrm{R_Z}$ -->
     <g transform="translate(617.268017 250.342469)scale(0.13 -0.13)">
      <use xlink:href="#DejaVuSans-52" transform="translate(0 0.09375)"/>
      <use xlink:href="#DejaVuSans-5a" transform="translate(70.439453 -16.3125)scale(0.7)"/>
     </g>
    </g>
   </g>
   <g id="line2d_63">
    <path d="M 625.198017 442.716814 
L 625.198017 430.664774 
" clip-path="url(#p40dafb146e)" style="fill: none; stroke: #ffffff; stroke-width: 2; stroke-linecap: square"/>
   </g>
   <g id="line2d_64">
    <path d="M 619.171997 436.690794 
L 631.224037 436.690794 
" clip-path="url(#p40dafb146e)" style="fill: none; stroke: #ffffff; stroke-width: 2; stroke-linecap: square"/>
   </g>
   <g id="line2d_65">
    <path d="M 671.552017 118.238818 
L 671.552017 106.186779 
" clip-path="url(#p40dafb146e)" style="fill: none; stroke: #ffffff; stroke-width: 2; stroke-linecap: square"/>
   </g>
   <g id="line2d_66">
    <path d="M 665.525997 112.212799 
L 677.578037 112.212799 
" clip-path="url(#p40dafb146e)" style="fill: none; stroke: #ffffff; stroke-width: 2; stroke-linecap: square"/>
   </g>
   <g id="line2d_67">
    <path d="M 671.552017 303.654816 
L 671.552017 291.602776 
" clip-path="url(#p40dafb146e)" style="fill: none; stroke: #ffffff; stroke-width: 2; stroke-linecap: square"/>
   </g>
   <g id="line2d_68">
    <path d="M 665.525997 297.628796 
L 677.578037 297.628796 
" clip-path="url(#p40dafb146e)" style="fill: none; stroke: #ffffff; stroke-width: 2; stroke-linecap: square"/>
   </g>
   <g id="text_29">
    <g clip-path="url(#p40dafb146e)">
     <!-- H -->
     <g transform="translate(666.663814 486.631981)scale(0.13 -0.13)">
      <use xlink:href="#DejaVuSans-48"/>
     </g>
    </g>
   </g>
   <g id="line2d_69">
    <path d="M 717.906016 442.716814 
L 717.906016 430.664774 
" clip-path="url(#p40dafb146e)" style="fill: none; stroke: #ffffff; stroke-width: 2; stroke-linecap: square"/>
   </g>
   <g id="line2d_70">
    <path d="M 711.879996 436.690794 
L 723.932036 436.690794 
" clip-path="url(#p40dafb146e)" style="fill: none; stroke: #ffffff; stroke-width: 2; stroke-linecap: square"/>
   </g>
   <g id="line2d_71">
    <path d="M 717.906016 303.654816 
L 717.906016 291.602776 
" clip-path="url(#p40dafb146e)" style="fill: none; stroke: #ffffff; stroke-width: 2; stroke-linecap: square"/>
   </g>
   <g id="line2d_72">
    <path d="M 711.879996 297.628796 
L 723.932036 297.628796 
" clip-path="url(#p40dafb146e)" style="fill: none; stroke: #ffffff; stroke-width: 2; stroke-linecap: square"/>
   </g>
   <g id="text_30">
    <g clip-path="url(#p40dafb146e)">
     <!-- H -->
     <g transform="translate(713.017813 115.799986)scale(0.13 -0.13)">
      <use xlink:href="#DejaVuSans-48"/>
     </g>
    </g>
   </g>
   <g id="text_31">
    <g clip-path="url(#p40dafb146e)">
     <!-- H -->
     <g transform="translate(759.371812 532.98598)scale(0.13 -0.13)">
      <use xlink:href="#DejaVuSans-48"/>
     </g>
    </g>
   </g>
   <g id="line2d_73">
    <path d="M 764.260015 303.654816 
L 764.260015 291.602776 
" clip-path="url(#p40dafb146e)" style="fill: none; stroke: #ffffff; stroke-width: 2; stroke-linecap: square"/>
   </g>
   <g id="line2d_74">
    <path d="M 758.233996 297.628796 
L 770.286035 297.628796 
" clip-path="url(#p40dafb146e)" style="fill: none; stroke: #ffffff; stroke-width: 2; stroke-linecap: square"/>
   </g>
   <g id="line2d_75">
    <path d="M 810.614015 303.654816 
L 810.614015 291.602776 
" clip-path="url(#p40dafb146e)" style="fill: none; stroke: #ffffff; stroke-width: 2; stroke-linecap: square"/>
   </g>
   <g id="line2d_76">
    <path d="M 804.587995 297.628796 
L 816.640035 297.628796 
" clip-path="url(#p40dafb146e)" style="fill: none; stroke: #ffffff; stroke-width: 2; stroke-linecap: square"/>
   </g>
   <g id="text_32">
    <g clip-path="url(#p40dafb146e)">
     <!-- $-$0.0119 -->
     <g transform="translate(839.608014 308.875326)scale(0.08 -0.08)">
      <use xlink:href="#DejaVuSans-2212" transform="translate(0 0.78125)"/>
      <use xlink:href="#DejaVuSans-30" transform="translate(83.789062 0.78125)"/>
      <use xlink:href="#DejaVuSans-2e" transform="translate(147.412109 0.78125)"/>
      <use xlink:href="#DejaVuSans-30" transform="translate(179.199219 0.78125)"/>
      <use xlink:href="#DejaVuSans-31" transform="translate(242.822266 0.78125)"/>
      <use xlink:href="#DejaVuSans-31" transform="translate(306.445312 0.78125)"/>
      <use xlink:href="#DejaVuSans-39" transform="translate(370.068359 0.78125)"/>
     </g>
    </g>
   </g>
   <g id="text_33">
    <g clip-path="url(#p40dafb146e)">
     <!-- $\mathrm{R_Z}$ -->
     <g transform="translate(849.038014 296.696469)scale(0.13 -0.13)">
      <use xlink:href="#DejaVuSans-52" transform="translate(0 0.09375)"/>
      <use xlink:href="#DejaVuSans-5a" transform="translate(70.439453 -16.3125)scale(0.7)"/>
     </g>
    </g>
   </g>
   <g id="line2d_77">
    <path d="M 903.322014 303.654816 
L 903.322014 291.602776 
" clip-path="url(#p40dafb146e)" style="fill: none; stroke: #ffffff; stroke-width: 2; stroke-linecap: square"/>
   </g>
   <g id="line2d_78">
    <path d="M 897.295994 297.628796 
L 909.348034 297.628796 
" clip-path="url(#p40dafb146e)" style="fill: none; stroke: #ffffff; stroke-width: 2; stroke-linecap: square"/>
   </g>
   <g id="text_34">
    <g clip-path="url(#p40dafb146e)">
     <!-- H -->
     <g transform="translate(944.78781 115.799986)scale(0.13 -0.13)">
      <use xlink:href="#DejaVuSans-48"/>
     </g>
    </g>
   </g>
   <g id="line2d_79">
    <path d="M 949.676013 303.654816 
L 949.676013 291.602776 
" clip-path="url(#p40dafb146e)" style="fill: none; stroke: #ffffff; stroke-width: 2; stroke-linecap: square"/>
   </g>
   <g id="line2d_80">
    <path d="M 943.649993 297.628796 
L 955.702033 297.628796 
" clip-path="url(#p40dafb146e)" style="fill: none; stroke: #ffffff; stroke-width: 2; stroke-linecap: square"/>
   </g>
   <g id="line2d_81">
    <path d="M 996.030012 303.654816 
L 996.030012 291.602776 
" clip-path="url(#p40dafb146e)" style="fill: none; stroke: #ffffff; stroke-width: 2; stroke-linecap: square"/>
   </g>
   <g id="line2d_82">
    <path d="M 990.003992 297.628796 
L 1002.056032 297.628796 
" clip-path="url(#p40dafb146e)" style="fill: none; stroke: #ffffff; stroke-width: 2; stroke-linecap: square"/>
   </g>
   <g id="line2d_83">
    <path d="M 996.030012 118.238818 
L 996.030012 106.186779 
" clip-path="url(#p40dafb146e)" style="fill: none; stroke: #ffffff; stroke-width: 2; stroke-linecap: square"/>
   </g>
   <g id="line2d_84">
    <path d="M 990.003992 112.212799 
L 1002.056032 112.212799 
" clip-path="url(#p40dafb146e)" style="fill: none; stroke: #ffffff; stroke-width: 2; stroke-linecap: square"/>
   </g>
   <g id="line2d_85">
    <path d="M 1042.384012 303.654816 
L 1042.384012 291.602776 
" clip-path="url(#p40dafb146e)" style="fill: none; stroke: #ffffff; stroke-width: 2; stroke-linecap: square"/>
   </g>
   <g id="line2d_86">
    <path d="M 1036.357992 297.628796 
L 1048.410032 297.628796 
" clip-path="url(#p40dafb146e)" style="fill: none; stroke: #ffffff; stroke-width: 2; stroke-linecap: square"/>
   </g>
   <g id="line2d_87">
    <path d="M 1042.384012 118.238818 
L 1042.384012 106.186779 
" clip-path="url(#p40dafb146e)" style="fill: none; stroke: #ffffff; stroke-width: 2; stroke-linecap: square"/>
   </g>
   <g id="line2d_88">
    <path d="M 1036.357992 112.212799 
L 1048.410032 112.212799 
" clip-path="url(#p40dafb146e)" style="fill: none; stroke: #ffffff; stroke-width: 2; stroke-linecap: square"/>
   </g>
   <g id="text_35">
    <g clip-path="url(#p40dafb146e)">
     <!-- S -->
     <g transform="translate(1084.611527 254.861984)scale(0.13 -0.13)">
      <use xlink:href="#DejaVuSans-53"/>
     </g>
    </g>
   </g>
   <g id="text_36">
    <g clip-path="url(#p40dafb146e)">
     <!-- H -->
     <g transform="translate(1130.203807 254.861984)scale(0.13 -0.13)">
      <use xlink:href="#DejaVuSans-48"/>
     </g>
    </g>
   </g>
   <g id="line2d_89">
    <path d="M 1181.44601 118.238818 
L 1181.44601 106.186779 
" clip-path="url(#p40dafb146e)" style="fill: none; stroke: #ffffff; stroke-width: 2; stroke-linecap: square"/>
   </g>
   <g id="line2d_90">
    <path d="M 1175.41999 112.212799 
L 1187.47203 112.212799 
" clip-path="url(#p40dafb146e)" style="fill: none; stroke: #ffffff; stroke-width: 2; stroke-linecap: square"/>
   </g>
   <g id="line2d_91">
    <path d="M 1227.800009 118.238818 
L 1227.800009 106.186779 
" clip-path="url(#p40dafb146e)" style="fill: none; stroke: #ffffff; stroke-width: 2; stroke-linecap: square"/>
   </g>
   <g id="line2d_92">
    <path d="M 1221.773989 112.212799 
L 1233.826029 112.212799 
" clip-path="url(#p40dafb146e)" style="fill: none; stroke: #ffffff; stroke-width: 2; stroke-linecap: square"/>
   </g>
   <g id="text_37">
    <g clip-path="url(#p40dafb146e)">
     <!-- $-$0.000704 -->
     <g transform="translate(1274.891008 123.459328)scale(0.08 -0.08)">
      <use xlink:href="#DejaVuSans-2212" transform="translate(0 0.78125)"/>
      <use xlink:href="#DejaVuSans-30" transform="translate(83.789062 0.78125)"/>
      <use xlink:href="#DejaVuSans-2e" transform="translate(147.412109 0.78125)"/>
      <use xlink:href="#DejaVuSans-30" transform="translate(179.199219 0.78125)"/>
      <use xlink:href="#DejaVuSans-30" transform="translate(242.822266 0.78125)"/>
      <use xlink:href="#DejaVuSans-30" transform="translate(306.445312 0.78125)"/>
      <use xlink:href="#DejaVuSans-37" transform="translate(370.068359 0.78125)"/>
      <use xlink:href="#DejaVuSans-30" transform="translate(433.691406 0.78125)"/>
      <use xlink:href="#DejaVuSans-34" transform="translate(497.314453 0.78125)"/>
     </g>
    </g>
   </g>
   <g id="text_38">
    <g clip-path="url(#p40dafb146e)">
     <!-- $\mathrm{R_Z}$ -->
     <g transform="translate(1289.401008 111.280471)scale(0.13 -0.13)">
      <use xlink:href="#DejaVuSans-52" transform="translate(0 0.09375)"/>
      <use xlink:href="#DejaVuSans-5a" transform="translate(70.439453 -16.3125)scale(0.7)"/>
     </g>
    </g>
   </g>
   <g id="line2d_93">
    <path d="M 1366.862007 118.238818 
L 1366.862007 106.186779 
" clip-path="url(#p40dafb146e)" style="fill: none; stroke: #ffffff; stroke-width: 2; stroke-linecap: square"/>
   </g>
   <g id="line2d_94">
    <path d="M 1360.835988 112.212799 
L 1372.888027 112.212799 
" clip-path="url(#p40dafb146e)" style="fill: none; stroke: #ffffff; stroke-width: 2; stroke-linecap: square"/>
   </g>
   <g id="line2d_95">
    <path d="M 1413.216007 118.238818 
L 1413.216007 106.186779 
" clip-path="url(#p40dafb146e)" style="fill: none; stroke: #ffffff; stroke-width: 2; stroke-linecap: square"/>
   </g>
   <g id="line2d_96">
    <path d="M 1407.189987 112.212799 
L 1419.242027 112.212799 
" clip-path="url(#p40dafb146e)" style="fill: none; stroke: #ffffff; stroke-width: 2; stroke-linecap: square"/>
   </g>
   <g id="text_39">
    <g clip-path="url(#p40dafb146e)">
     <!-- H -->
     <g transform="translate(1454.681803 254.861984)scale(0.13 -0.13)">
      <use xlink:href="#DejaVuSans-48"/>
     </g>
    </g>
   </g>
   <g id="line2d_97">
    <path d="M 1459.570006 118.238818 
L 1459.570006 106.186779 
" clip-path="url(#p40dafb146e)" style="fill: none; stroke: #ffffff; stroke-width: 2; stroke-linecap: square"/>
   </g>
   <g id="line2d_98">
    <path d="M 1453.543986 112.212799 
L 1465.596026 112.212799 
" clip-path="url(#p40dafb146e)" style="fill: none; stroke: #ffffff; stroke-width: 2; stroke-linecap: square"/>
   </g>
   <g id="text_40">
    <g clip-path="url(#p40dafb146e)">
     <!-- $\mathrm{S^\dagger}$ -->
     <g transform="translate(1497.474006 254.861984)scale(0.13 -0.13)">
      <defs>
       <path id="DejaVuSans-2020" d="M 1325 4666 
L 1875 4666 
L 1875 3353 
L 3022 3353 
L 3022 2875 
L 1875 2875 
L 1875 -616 
L 1325 -616 
L 1325 2875 
L 178 2875 
L 178 3353 
L 1325 3353 
L 1325 4666 
z
" transform="scale(0.015625)"/>
      </defs>
      <use xlink:href="#DejaVuSans-53" transform="translate(0 0.684375)"/>
      <use xlink:href="#DejaVuSans-2020" transform="translate(78.071289 38.965625)scale(0.7)"/>
     </g>
    </g>
   </g>
   <g id="line2d_99">
    <path d="M 1505.924006 118.238818 
L 1505.924006 106.186779 
" clip-path="url(#p40dafb146e)" style="fill: none; stroke: #ffffff; stroke-width: 2; stroke-linecap: square"/>
   </g>
   <g id="line2d_100">
    <path d="M 1499.897986 112.212799 
L 1511.950026 112.212799 
" clip-path="url(#p40dafb146e)" style="fill: none; stroke: #ffffff; stroke-width: 2; stroke-linecap: square"/>
   </g>
  </g>
 </g>
 <defs>
  <clipPath id="p40dafb146e">
   <rect x="218.279665" y="75.129599" width="1318.23798" height="482.081594"/>
  </clipPath>
 </defs>
</svg>
