<?xml version="1.0" encoding="utf-8" standalone="no"?>
<!DOCTYPE svg PUBLIC "-//W3C//DTD SVG 1.1//EN"
  "http://www.w3.org/Graphics/SVG/1.1/DTD/svg11.dtd">
<svg xmlns:xlink="http://www.w3.org/1999/xlink" width="1772.197375pt" height="626.079992pt" viewBox="0 0 1772.197375 626.079992" xmlns="http://www.w3.org/2000/svg" version="1.1">
 <metadata>
  <rdf:RDF xmlns:dc="http://purl.org/dc/elements/1.1/" xmlns:cc="http://creativecommons.org/ns#" xmlns:rdf="http://www.w3.org/1999/02/22-rdf-syntax-ns#">
   <cc:Work>
    <dc:type rdf:resource="http://purl.org/dc/dcmitype/StillImage"/>
    <dc:date>2022-05-22T14:54:37.683850</dc:date>
    <dc:format>image/svg+xml</dc:format>
    <dc:creator>
     <cc:Agent>
      <dc:title>Matplotlib v3.5.1, https://matplotlib.org/</dc:title>
     </cc:Agent>
    </dc:creator>
   </cc:Work>
  </rdf:RDF>
 </metadata>
 <defs>
  <style type="text/css">*{stroke-linejoin: round; stroke-linecap: butt}</style>
 </defs>
 <g id="figure_1">
  <g id="patch_1">
   <path d="M 0 626.079992 
L 1772.197375 626.079992 
L 1772.197375 0 
L 0 0 
z
" style="fill: #ffffff"/>
  </g>
  <g id="axes_1">
   <g id="line2d_1">
    <path d="M 283.364362 112.212799 
L 1585.911745 112.212799 
" clip-path="url(#p882fba48a3)" style="fill: none; stroke: #000000; stroke-width: 2; stroke-linecap: square"/>
   </g>
   <g id="line2d_2">
    <path d="M 283.364362 158.566798 
L 1585.911745 158.566798 
" clip-path="url(#p882fba48a3)" style="fill: none; stroke: #000000; stroke-width: 2; stroke-linecap: square"/>
   </g>
   <g id="line2d_3">
    <path d="M 283.364362 204.920797 
L 1585.911745 204.920797 
" clip-path="url(#p882fba48a3)" style="fill: none; stroke: #000000; stroke-width: 2; stroke-linecap: square"/>
   </g>
   <g id="line2d_4">
    <path d="M 283.364362 251.274797 
L 1585.911745 251.274797 
" clip-path="url(#p882fba48a3)" style="fill: none; stroke: #000000; stroke-width: 2; stroke-linecap: square"/>
   </g>
   <g id="line2d_5">
    <path d="M 283.364362 297.628796 
L 1585.911745 297.628796 
" clip-path="url(#p882fba48a3)" style="fill: none; stroke: #000000; stroke-width: 2; stroke-linecap: square"/>
   </g>
   <g id="line2d_6">
    <path d="M 283.364362 343.982795 
L 1585.911745 343.982795 
" clip-path="url(#p882fba48a3)" style="fill: none; stroke: #000000; stroke-width: 2; stroke-linecap: square"/>
   </g>
   <g id="line2d_7">
    <path d="M 283.364362 390.336795 
L 1585.911745 390.336795 
" clip-path="url(#p882fba48a3)" style="fill: none; stroke: #000000; stroke-width: 2; stroke-linecap: square"/>
   </g>
   <g id="line2d_8">
    <path d="M 283.364362 436.690794 
L 1585.911745 436.690794 
" clip-path="url(#p882fba48a3)" style="fill: none; stroke: #000000; stroke-width: 2; stroke-linecap: square"/>
   </g>
   <g id="line2d_9">
    <path d="M 283.364362 483.044794 
L 1585.911745 483.044794 
" clip-path="url(#p882fba48a3)" style="fill: none; stroke: #000000; stroke-width: 2; stroke-linecap: square"/>
   </g>
   <g id="line2d_10">
    <path d="M 283.364362 529.398793 
L 1585.911745 529.398793 
" clip-path="url(#p882fba48a3)" style="fill: none; stroke: #000000; stroke-width: 2; stroke-linecap: square"/>
   </g>
   <g id="line2d_11">
    <path d="M 308.395522 529.398793 
L 308.395522 483.044794 
" clip-path="url(#p882fba48a3)" style="fill: none; stroke: #000000; stroke-width: 2; stroke-linecap: square"/>
   </g>
   <g id="line2d_12">
    <path d="M 401.10352 529.398793 
L 401.10352 483.044794 
" clip-path="url(#p882fba48a3)" style="fill: none; stroke: #000000; stroke-width: 2; stroke-linecap: square"/>
   </g>
   <g id="line2d_13">
    <path d="M 401.10352 297.628796 
L 401.10352 251.274797 
" clip-path="url(#p882fba48a3)" style="fill: none; stroke: #000000; stroke-width: 2; stroke-linecap: square"/>
   </g>
   <g id="line2d_14">
    <path d="M 447.45752 297.628796 
L 447.45752 112.212799 
" clip-path="url(#p882fba48a3)" style="fill: none; stroke: #000000; stroke-width: 2; stroke-linecap: square"/>
   </g>
   <g id="line2d_15">
    <path d="M 540.165518 297.628796 
L 540.165518 112.212799 
" clip-path="url(#p882fba48a3)" style="fill: none; stroke: #000000; stroke-width: 2; stroke-linecap: square"/>
   </g>
   <g id="line2d_16">
    <path d="M 586.519518 483.044794 
L 586.519518 158.566798 
" clip-path="url(#p882fba48a3)" style="fill: none; stroke: #000000; stroke-width: 2; stroke-linecap: square"/>
   </g>
   <g id="line2d_17">
    <path d="M 632.873517 297.628796 
L 632.873517 251.274797 
" clip-path="url(#p882fba48a3)" style="fill: none; stroke: #000000; stroke-width: 2; stroke-linecap: square"/>
   </g>
   <g id="line2d_18">
    <path d="M 679.227517 529.398793 
L 679.227517 158.566798 
" clip-path="url(#p882fba48a3)" style="fill: none; stroke: #000000; stroke-width: 2; stroke-linecap: square"/>
   </g>
   <g id="line2d_19">
    <path d="M 818.289515 529.398793 
L 818.289515 158.566798 
" clip-path="url(#p882fba48a3)" style="fill: none; stroke: #000000; stroke-width: 2; stroke-linecap: square"/>
   </g>
   <g id="line2d_20">
    <path d="M 864.643514 483.044794 
L 864.643514 158.566798 
" clip-path="url(#p882fba48a3)" style="fill: none; stroke: #000000; stroke-width: 2; stroke-linecap: square"/>
   </g>
   <g id="line2d_21">
    <path d="M 1050.059512 483.044794 
L 1050.059512 112.212799 
" clip-path="url(#p882fba48a3)" style="fill: none; stroke: #000000; stroke-width: 2; stroke-linecap: square"/>
   </g>
   <g id="line2d_22">
    <path d="M 1096.413511 436.690794 
L 1096.413511 112.212799 
" clip-path="url(#p882fba48a3)" style="fill: none; stroke: #000000; stroke-width: 2; stroke-linecap: square"/>
   </g>
   <g id="line2d_23">
    <path d="M 1142.76751 204.920797 
L 1142.76751 112.212799 
" clip-path="url(#p882fba48a3)" style="fill: none; stroke: #000000; stroke-width: 2; stroke-linecap: square"/>
   </g>
   <g id="line2d_24">
    <path d="M 1189.12151 158.566798 
L 1189.12151 112.212799 
" clip-path="url(#p882fba48a3)" style="fill: none; stroke: #000000; stroke-width: 2; stroke-linecap: square"/>
   </g>
   <g id="line2d_25">
    <path d="M 1281.829509 158.566798 
L 1281.829509 112.212799 
" clip-path="url(#p882fba48a3)" style="fill: none; stroke: #000000; stroke-width: 2; stroke-linecap: square"/>
   </g>
   <g id="line2d_26">
    <path d="M 1328.183508 204.920797 
L 1328.183508 112.212799 
" clip-path="url(#p882fba48a3)" style="fill: none; stroke: #000000; stroke-width: 2; stroke-linecap: square"/>
   </g>
   <g id="line2d_27">
    <path d="M 1420.891507 436.690794 
L 1420.891507 112.212799 
" clip-path="url(#p882fba48a3)" style="fill: none; stroke: #000000; stroke-width: 2; stroke-linecap: square"/>
   </g>
   <g id="line2d_28">
    <path d="M 1513.599505 483.044794 
L 1513.599505 112.212799 
" clip-path="url(#p882fba48a3)" style="fill: none; stroke: #000000; stroke-width: 2; stroke-linecap: square"/>
   </g>
   <g id="text_1">
    <!-- TERMS: 4, DEPTH:23 -->
    <g transform="translate(846.218655 69.129599)scale(0.12 -0.12)">
     <defs>
      <path id="DejaVuSans-54" d="M -19 4666 
L 3928 4666 
L 3928 4134 
L 2272 4134 
L 2272 0 
L 1638 0 
L 1638 4134 
L -19 4134 
L -19 4666 
z
" transform="scale(0.015625)"/>
      <path id="DejaVuSans-45" d="M 628 4666 
L 3578 4666 
L 3578 4134 
L 1259 4134 
L 1259 2753 
L 3481 2753 
L 3481 2222 
L 1259 2222 
L 1259 531 
L 3634 531 
L 3634 0 
L 628 0 
L 628 4666 
z
" transform="scale(0.015625)"/>
      <path id="DejaVuSans-52" d="M 2841 2188 
Q 3044 2119 3236 1894 
Q 3428 1669 3622 1275 
L 4263 0 
L 3584 0 
L 2988 1197 
Q 2756 1666 2539 1819 
Q 2322 1972 1947 1972 
L 1259 1972 
L 1259 0 
L 628 0 
L 628 4666 
L 2053 4666 
Q 2853 4666 3247 4331 
Q 3641 3997 3641 3322 
Q 3641 2881 3436 2590 
Q 3231 2300 2841 2188 
z
M 1259 4147 
L 1259 2491 
L 2053 2491 
Q 2509 2491 2742 2702 
Q 2975 2913 2975 3322 
Q 2975 3731 2742 3939 
Q 2509 4147 2053 4147 
L 1259 4147 
z
" transform="scale(0.015625)"/>
      <path id="DejaVuSans-4d" d="M 628 4666 
L 1569 4666 
L 2759 1491 
L 3956 4666 
L 4897 4666 
L 4897 0 
L 4281 0 
L 4281 4097 
L 3078 897 
L 2444 897 
L 1241 4097 
L 1241 0 
L 628 0 
L 628 4666 
z
" transform="scale(0.015625)"/>
      <path id="DejaVuSans-53" d="M 3425 4513 
L 3425 3897 
Q 3066 4069 2747 4153 
Q 2428 4238 2131 4238 
Q 1616 4238 1336 4038 
Q 1056 3838 1056 3469 
Q 1056 3159 1242 3001 
Q 1428 2844 1947 2747 
L 2328 2669 
Q 3034 2534 3370 2195 
Q 3706 1856 3706 1288 
Q 3706 609 3251 259 
Q 2797 -91 1919 -91 
Q 1588 -91 1214 -16 
Q 841 59 441 206 
L 441 856 
Q 825 641 1194 531 
Q 1563 422 1919 422 
Q 2459 422 2753 634 
Q 3047 847 3047 1241 
Q 3047 1584 2836 1778 
Q 2625 1972 2144 2069 
L 1759 2144 
Q 1053 2284 737 2584 
Q 422 2884 422 3419 
Q 422 4038 858 4394 
Q 1294 4750 2059 4750 
Q 2388 4750 2728 4690 
Q 3069 4631 3425 4513 
z
" transform="scale(0.015625)"/>
      <path id="DejaVuSans-3a" d="M 750 794 
L 1409 794 
L 1409 0 
L 750 0 
L 750 794 
z
M 750 3309 
L 1409 3309 
L 1409 2516 
L 750 2516 
L 750 3309 
z
" transform="scale(0.015625)"/>
      <path id="DejaVuSans-20" transform="scale(0.015625)"/>
      <path id="DejaVuSans-34" d="M 2419 4116 
L 825 1625 
L 2419 1625 
L 2419 4116 
z
M 2253 4666 
L 3047 4666 
L 3047 1625 
L 3713 1625 
L 3713 1100 
L 3047 1100 
L 3047 0 
L 2419 0 
L 2419 1100 
L 313 1100 
L 313 1709 
L 2253 4666 
z
" transform="scale(0.015625)"/>
      <path id="DejaVuSans-2c" d="M 750 794 
L 1409 794 
L 1409 256 
L 897 -744 
L 494 -744 
L 750 256 
L 750 794 
z
" transform="scale(0.015625)"/>
      <path id="DejaVuSans-44" d="M 1259 4147 
L 1259 519 
L 2022 519 
Q 2988 519 3436 956 
Q 3884 1394 3884 2338 
Q 3884 3275 3436 3711 
Q 2988 4147 2022 4147 
L 1259 4147 
z
M 628 4666 
L 1925 4666 
Q 3281 4666 3915 4102 
Q 4550 3538 4550 2338 
Q 4550 1131 3912 565 
Q 3275 0 1925 0 
L 628 0 
L 628 4666 
z
" transform="scale(0.015625)"/>
      <path id="DejaVuSans-50" d="M 1259 4147 
L 1259 2394 
L 2053 2394 
Q 2494 2394 2734 2622 
Q 2975 2850 2975 3272 
Q 2975 3691 2734 3919 
Q 2494 4147 2053 4147 
L 1259 4147 
z
M 628 4666 
L 2053 4666 
Q 2838 4666 3239 4311 
Q 3641 3956 3641 3272 
Q 3641 2581 3239 2228 
Q 2838 1875 2053 1875 
L 1259 1875 
L 1259 0 
L 628 0 
L 628 4666 
z
" transform="scale(0.015625)"/>
      <path id="DejaVuSans-48" d="M 628 4666 
L 1259 4666 
L 1259 2753 
L 3553 2753 
L 3553 4666 
L 4184 4666 
L 4184 0 
L 3553 0 
L 3553 2222 
L 1259 2222 
L 1259 0 
L 628 0 
L 628 4666 
z
" transform="scale(0.015625)"/>
      <path id="DejaVuSans-32" d="M 1228 531 
L 3431 531 
L 3431 0 
L 469 0 
L 469 531 
Q 828 903 1448 1529 
Q 2069 2156 2228 2338 
Q 2531 2678 2651 2914 
Q 2772 3150 2772 3378 
Q 2772 3750 2511 3984 
Q 2250 4219 1831 4219 
Q 1534 4219 1204 4116 
Q 875 4013 500 3803 
L 500 4441 
Q 881 4594 1212 4672 
Q 1544 4750 1819 4750 
Q 2544 4750 2975 4387 
Q 3406 4025 3406 3419 
Q 3406 3131 3298 2873 
Q 3191 2616 2906 2266 
Q 2828 2175 2409 1742 
Q 1991 1309 1228 531 
z
" transform="scale(0.015625)"/>
      <path id="DejaVuSans-33" d="M 2597 2516 
Q 3050 2419 3304 2112 
Q 3559 1806 3559 1356 
Q 3559 666 3084 287 
Q 2609 -91 1734 -91 
Q 1441 -91 1130 -33 
Q 819 25 488 141 
L 488 750 
Q 750 597 1062 519 
Q 1375 441 1716 441 
Q 2309 441 2620 675 
Q 2931 909 2931 1356 
Q 2931 1769 2642 2001 
Q 2353 2234 1838 2234 
L 1294 2234 
L 1294 2753 
L 1863 2753 
Q 2328 2753 2575 2939 
Q 2822 3125 2822 3475 
Q 2822 3834 2567 4026 
Q 2313 4219 1838 4219 
Q 1578 4219 1281 4162 
Q 984 4106 628 3988 
L 628 4550 
Q 988 4650 1302 4700 
Q 1616 4750 1894 4750 
Q 2613 4750 3031 4423 
Q 3450 4097 3450 3541 
Q 3450 3153 3228 2886 
Q 3006 2619 2597 2516 
z
" transform="scale(0.015625)"/>
     </defs>
     <use xlink:href="#DejaVuSans-54"/>
     <use xlink:href="#DejaVuSans-45" x="61.083984"/>
     <use xlink:href="#DejaVuSans-52" x="124.267578"/>
     <use xlink:href="#DejaVuSans-4d" x="193.75"/>
     <use xlink:href="#DejaVuSans-53" x="280.029297"/>
     <use xlink:href="#DejaVuSans-3a" x="343.505859"/>
     <use xlink:href="#DejaVuSans-20" x="377.197266"/>
     <use xlink:href="#DejaVuSans-34" x="408.984375"/>
     <use xlink:href="#DejaVuSans-2c" x="472.607422"/>
     <use xlink:href="#DejaVuSans-20" x="504.394531"/>
     <use xlink:href="#DejaVuSans-44" x="536.181641"/>
     <use xlink:href="#DejaVuSans-45" x="613.183594"/>
     <use xlink:href="#DejaVuSans-50" x="676.367188"/>
     <use xlink:href="#DejaVuSans-54" x="736.669922"/>
     <use xlink:href="#DejaVuSans-48" x="797.753906"/>
     <use xlink:href="#DejaVuSans-3a" x="872.949219"/>
     <use xlink:href="#DejaVuSans-32" x="906.640625"/>
     <use xlink:href="#DejaVuSans-33" x="970.263672"/>
    </g>
   </g>
   <g id="patch_2">
    <path d="M 308.395522 487.564309 
C 309.594111 487.564309 310.74377 487.088104 311.591301 486.240573 
C 312.438832 485.393043 312.915036 484.243383 312.915036 483.044794 
C 312.915036 481.846204 312.438832 480.696545 311.591301 479.849014 
C 310.74377 479.001483 309.594111 478.525279 308.395522 478.525279 
C 307.196932 478.525279 306.047273 479.001483 305.199742 479.849014 
C 304.352211 480.696545 303.876007 481.846204 303.876007 483.044794 
C 303.876007 484.243383 304.352211 485.393043 305.199742 486.240573 
C 306.047273 487.088104 307.196932 487.564309 308.395522 487.564309 
z
" clip-path="url(#p882fba48a3)" style="stroke: #000000; stroke-width: 1.5; stroke-linejoin: miter"/>
   </g>
   <g id="patch_3">
    <path d="M 308.395522 539.944328 
C 311.19223 539.944328 313.874769 538.833184 315.852341 536.855612 
C 317.829912 534.878041 318.941056 532.195502 318.941056 529.398793 
C 318.941056 526.602084 317.829912 523.919545 315.852341 521.941974 
C 313.874769 519.964402 311.19223 518.853258 308.395522 518.853258 
C 305.598813 518.853258 302.916274 519.964402 300.938702 521.941974 
C 298.961131 523.919545 297.849987 526.602084 297.849987 529.398793 
C 297.849987 532.195502 298.961131 534.878041 300.938702 536.855612 
C 302.916274 538.833184 305.598813 539.944328 308.395522 539.944328 
z
" clip-path="url(#p882fba48a3)" style="stroke: #000000; stroke-width: 2; stroke-linejoin: miter"/>
   </g>
   <g id="patch_4">
    <path d="M 293.330472 266.339846 
L 323.460571 266.339846 
L 323.460571 236.209747 
L 293.330472 236.209747 
z
" clip-path="url(#p882fba48a3)" style="fill: #ffffff; stroke: #000000; stroke-width: 1.5; stroke-linejoin: miter"/>
   </g>
   <g id="patch_5">
    <path d="M 293.330472 451.755844 
L 323.460571 451.755844 
L 323.460571 421.625744 
L 293.330472 421.625744 
z
" clip-path="url(#p882fba48a3)" style="fill: #ffffff; stroke: #000000; stroke-width: 1.5; stroke-linejoin: miter"/>
   </g>
   <g id="patch_6">
    <path d="M 293.330472 219.985847 
L 323.460571 219.985847 
L 323.460571 189.855747 
L 293.330472 189.855747 
z
" clip-path="url(#p882fba48a3)" style="fill: #ffffff; stroke: #000000; stroke-width: 1.5; stroke-linejoin: miter"/>
   </g>
   <g id="patch_7">
    <path d="M 339.684471 544.463843 
L 369.814571 544.463843 
L 369.814571 514.333743 
L 339.684471 514.333743 
z
" clip-path="url(#p882fba48a3)" style="fill: #ffffff; stroke: #000000; stroke-width: 1.5; stroke-linejoin: miter"/>
   </g>
   <g id="patch_8">
    <path d="M 339.684471 266.339846 
L 369.814571 266.339846 
L 369.814571 236.209747 
L 339.684471 236.209747 
z
" clip-path="url(#p882fba48a3)" style="fill: #ffffff; stroke: #000000; stroke-width: 1.5; stroke-linejoin: miter"/>
   </g>
   <g id="patch_9">
    <path d="M 401.10352 487.564309 
C 402.30211 487.564309 403.451769 487.088104 404.2993 486.240573 
C 405.146831 485.393043 405.623035 484.243383 405.623035 483.044794 
C 405.623035 481.846204 405.146831 480.696545 404.2993 479.849014 
C 403.451769 479.001483 402.30211 478.525279 401.10352 478.525279 
C 399.904931 478.525279 398.755271 479.001483 397.907741 479.849014 
C 397.06021 480.696545 396.584005 481.846204 396.584005 483.044794 
C 396.584005 484.243383 397.06021 485.393043 397.907741 486.240573 
C 398.755271 487.088104 399.904931 487.564309 401.10352 487.564309 
z
" clip-path="url(#p882fba48a3)" style="stroke: #000000; stroke-width: 1.5; stroke-linejoin: miter"/>
   </g>
   <g id="patch_10">
    <path d="M 401.10352 539.944328 
C 403.900229 539.944328 406.582768 538.833184 408.560339 536.855612 
C 410.537911 534.878041 411.649055 532.195502 411.649055 529.398793 
C 411.649055 526.602084 410.537911 523.919545 408.560339 521.941974 
C 406.582768 519.964402 403.900229 518.853258 401.10352 518.853258 
C 398.306812 518.853258 395.624273 519.964402 393.646701 521.941974 
C 391.669129 523.919545 390.557985 526.602084 390.557985 529.398793 
C 390.557985 532.195502 391.669129 534.878041 393.646701 536.855612 
C 395.624273 538.833184 398.306812 539.944328 401.10352 539.944328 
z
" clip-path="url(#p882fba48a3)" style="stroke: #000000; stroke-width: 2; stroke-linejoin: miter"/>
   </g>
   <g id="patch_11">
    <path d="M 401.10352 255.794312 
C 402.30211 255.794312 403.451769 255.318107 404.2993 254.470576 
C 405.146831 253.623046 405.623035 252.473386 405.623035 251.274797 
C 405.623035 250.076207 405.146831 248.926548 404.2993 248.079017 
C 403.451769 247.231486 402.30211 246.755282 401.10352 246.755282 
C 399.904931 246.755282 398.755271 247.231486 397.907741 248.079017 
C 397.06021 248.926548 396.584005 250.076207 396.584005 251.274797 
C 396.584005 252.473386 397.06021 253.623046 397.907741 254.470576 
C 398.755271 255.318107 399.904931 255.794312 401.10352 255.794312 
z
" clip-path="url(#p882fba48a3)" style="stroke: #000000; stroke-width: 1.5; stroke-linejoin: miter"/>
   </g>
   <g id="patch_12">
    <path d="M 401.10352 308.174331 
C 403.900229 308.174331 406.582768 307.063187 408.560339 305.085615 
C 410.537911 303.108044 411.649055 300.425505 411.649055 297.628796 
C 411.649055 294.832088 410.537911 292.149548 408.560339 290.171977 
C 406.582768 288.194405 403.900229 287.083261 401.10352 287.083261 
C 398.306812 287.083261 395.624273 288.194405 393.646701 290.171977 
C 391.669129 292.149548 390.557985 294.832088 390.557985 297.628796 
C 390.557985 300.425505 391.669129 303.108044 393.646701 305.085615 
C 395.624273 307.063187 398.306812 308.174331 401.10352 308.174331 
z
" clip-path="url(#p882fba48a3)" style="stroke: #000000; stroke-width: 2; stroke-linejoin: miter"/>
   </g>
   <g id="patch_13">
    <path d="M 447.45752 116.732313 
C 448.656109 116.732313 449.805769 116.256109 450.653299 115.408578 
C 451.50083 114.561047 451.977035 113.411388 451.977035 112.212799 
C 451.977035 111.014209 451.50083 109.86455 450.653299 109.017019 
C 449.805769 108.169488 448.656109 107.693284 447.45752 107.693284 
C 446.25893 107.693284 445.109271 108.169488 444.26174 109.017019 
C 443.414209 109.86455 442.938005 111.014209 442.938005 112.212799 
C 442.938005 113.411388 443.414209 114.561047 444.26174 115.408578 
C 445.109271 116.256109 446.25893 116.732313 447.45752 116.732313 
z
" clip-path="url(#p882fba48a3)" style="stroke: #000000; stroke-width: 1.5; stroke-linejoin: miter"/>
   </g>
   <g id="patch_14">
    <path d="M 447.45752 308.174331 
C 450.254228 308.174331 452.936767 307.063187 454.914339 305.085615 
C 456.89191 303.108044 458.003055 300.425505 458.003055 297.628796 
C 458.003055 294.832088 456.89191 292.149548 454.914339 290.171977 
C 452.936767 288.194405 450.254228 287.083261 447.45752 287.083261 
C 444.660811 287.083261 441.978272 288.194405 440.0007 290.171977 
C 438.023129 292.149548 436.911985 294.832088 436.911985 297.628796 
C 436.911985 300.425505 438.023129 303.108044 440.0007 305.085615 
C 441.978272 307.063187 444.660811 308.174331 447.45752 308.174331 
z
" clip-path="url(#p882fba48a3)" style="stroke: #000000; stroke-width: 2; stroke-linejoin: miter"/>
   </g>
   <g id="patch_15">
    <path d="M 432.39247 498.109843 
L 462.522569 498.109843 
L 462.522569 467.979744 
L 432.39247 467.979744 
z
" clip-path="url(#p882fba48a3)" style="fill: #ffffff; stroke: #000000; stroke-width: 1.5; stroke-linejoin: miter"/>
   </g>
   <g id="patch_16">
    <path d="M 432.39247 544.463843 
L 462.522569 544.463843 
L 462.522569 514.333743 
L 432.39247 514.333743 
z
" clip-path="url(#p882fba48a3)" style="fill: #ffffff; stroke: #000000; stroke-width: 1.5; stroke-linejoin: miter"/>
   </g>
   <g id="patch_17">
    <path d="M 476.183093 312.693846 
L 511.439945 312.693846 
L 511.439945 282.563746 
L 476.183093 282.563746 
z
" clip-path="url(#p882fba48a3)" style="fill: #ffffff; stroke: #000000; stroke-width: 1.5; stroke-linejoin: miter"/>
   </g>
   <g id="patch_18">
    <path d="M 478.746469 498.109843 
L 508.876569 498.109843 
L 508.876569 467.979744 
L 478.746469 467.979744 
z
" clip-path="url(#p882fba48a3)" style="fill: #ffffff; stroke: #000000; stroke-width: 1.5; stroke-linejoin: miter"/>
   </g>
   <g id="patch_19">
    <path d="M 478.746469 544.463843 
L 508.876569 544.463843 
L 508.876569 514.333743 
L 478.746469 514.333743 
z
" clip-path="url(#p882fba48a3)" style="fill: #ffffff; stroke: #000000; stroke-width: 1.5; stroke-linejoin: miter"/>
   </g>
   <g id="patch_20">
    <path d="M 540.165518 116.732313 
C 541.364108 116.732313 542.513767 116.256109 543.361298 115.408578 
C 544.208829 114.561047 544.685033 113.411388 544.685033 112.212799 
C 544.685033 111.014209 544.208829 109.86455 543.361298 109.017019 
C 542.513767 108.169488 541.364108 107.693284 540.165518 107.693284 
C 538.966929 107.693284 537.817269 108.169488 536.969739 109.017019 
C 536.122208 109.86455 535.646003 111.014209 535.646003 112.212799 
C 535.646003 113.411388 536.122208 114.561047 536.969739 115.408578 
C 537.817269 116.256109 538.966929 116.732313 540.165518 116.732313 
z
" clip-path="url(#p882fba48a3)" style="stroke: #000000; stroke-width: 1.5; stroke-linejoin: miter"/>
   </g>
   <g id="patch_21">
    <path d="M 540.165518 308.174331 
C 542.962227 308.174331 545.644766 307.063187 547.622338 305.085615 
C 549.599909 303.108044 550.711053 300.425505 550.711053 297.628796 
C 550.711053 294.832088 549.599909 292.149548 547.622338 290.171977 
C 545.644766 288.194405 542.962227 287.083261 540.165518 287.083261 
C 537.36881 287.083261 534.686271 288.194405 532.708699 290.171977 
C 530.731128 292.149548 529.619984 294.832088 529.619984 297.628796 
C 529.619984 300.425505 530.731128 303.108044 532.708699 305.085615 
C 534.686271 307.063187 537.36881 308.174331 540.165518 308.174331 
z
" clip-path="url(#p882fba48a3)" style="stroke: #000000; stroke-width: 2; stroke-linejoin: miter"/>
   </g>
   <g id="patch_22">
    <path d="M 586.519518 487.564309 
C 587.718107 487.564309 588.867767 487.088104 589.715297 486.240573 
C 590.562828 485.393043 591.039033 484.243383 591.039033 483.044794 
C 591.039033 481.846204 590.562828 480.696545 589.715297 479.849014 
C 588.867767 479.001483 587.718107 478.525279 586.519518 478.525279 
C 585.320928 478.525279 584.171269 479.001483 583.323738 479.849014 
C 582.476207 480.696545 582.000003 481.846204 582.000003 483.044794 
C 582.000003 484.243383 582.476207 485.393043 583.323738 486.240573 
C 584.171269 487.088104 585.320928 487.564309 586.519518 487.564309 
z
" clip-path="url(#p882fba48a3)" style="stroke: #000000; stroke-width: 1.5; stroke-linejoin: miter"/>
   </g>
   <g id="patch_23">
    <path d="M 586.519518 169.112333 
C 589.316226 169.112333 591.998765 168.001189 593.976337 166.023617 
C 595.953909 164.046046 597.065053 161.363506 597.065053 158.566798 
C 597.065053 155.770089 595.953909 153.08755 593.976337 151.109979 
C 591.998765 149.132407 589.316226 148.021263 586.519518 148.021263 
C 583.722809 148.021263 581.04027 149.132407 579.062699 151.109979 
C 577.085127 153.08755 575.973983 155.770089 575.973983 158.566798 
C 575.973983 161.363506 577.085127 164.046046 579.062699 166.023617 
C 581.04027 168.001189 583.722809 169.112333 586.519518 169.112333 
z
" clip-path="url(#p882fba48a3)" style="stroke: #000000; stroke-width: 2; stroke-linejoin: miter"/>
   </g>
   <g id="patch_24">
    <path d="M 632.873517 255.794312 
C 634.072107 255.794312 635.221766 255.318107 636.069297 254.470576 
C 636.916828 253.623046 637.393032 252.473386 637.393032 251.274797 
C 637.393032 250.076207 636.916828 248.926548 636.069297 248.079017 
C 635.221766 247.231486 634.072107 246.755282 632.873517 246.755282 
C 631.674928 246.755282 630.525268 247.231486 629.677738 248.079017 
C 628.830207 248.926548 628.354002 250.076207 628.354002 251.274797 
C 628.354002 252.473386 628.830207 253.623046 629.677738 254.470576 
C 630.525268 255.318107 631.674928 255.794312 632.873517 255.794312 
z
" clip-path="url(#p882fba48a3)" style="stroke: #000000; stroke-width: 1.5; stroke-linejoin: miter"/>
   </g>
   <g id="patch_25">
    <path d="M 632.873517 308.174331 
C 635.670226 308.174331 638.352765 307.063187 640.330336 305.085615 
C 642.307908 303.108044 643.419052 300.425505 643.419052 297.628796 
C 643.419052 294.832088 642.307908 292.149548 640.330336 290.171977 
C 638.352765 288.194405 635.670226 287.083261 632.873517 287.083261 
C 630.076809 287.083261 627.39427 288.194405 625.416698 290.171977 
C 623.439126 292.149548 622.327982 294.832088 622.327982 297.628796 
C 622.327982 300.425505 623.439126 303.108044 625.416698 305.085615 
C 627.39427 307.063187 630.076809 308.174331 632.873517 308.174331 
z
" clip-path="url(#p882fba48a3)" style="stroke: #000000; stroke-width: 2; stroke-linejoin: miter"/>
   </g>
   <g id="patch_26">
    <path d="M 679.227517 533.918308 
C 680.426106 533.918308 681.575766 533.442103 682.423296 532.594573 
C 683.270827 531.747042 683.747032 530.597382 683.747032 529.398793 
C 683.747032 528.200204 683.270827 527.050544 682.423296 526.203013 
C 681.575766 525.355483 680.426106 524.879278 679.227517 524.879278 
C 678.028927 524.879278 676.879268 525.355483 676.031737 526.203013 
C 675.184206 527.050544 674.708002 528.200204 674.708002 529.398793 
C 674.708002 530.597382 675.184206 531.747042 676.031737 532.594573 
C 676.879268 533.442103 678.028927 533.918308 679.227517 533.918308 
z
" clip-path="url(#p882fba48a3)" style="stroke: #000000; stroke-width: 1.5; stroke-linejoin: miter"/>
   </g>
   <g id="patch_27">
    <path d="M 679.227517 169.112333 
C 682.024225 169.112333 684.706764 168.001189 686.684336 166.023617 
C 688.661907 164.046046 689.773051 161.363506 689.773051 158.566798 
C 689.773051 155.770089 688.661907 153.08755 686.684336 151.109979 
C 684.706764 149.132407 682.024225 148.021263 679.227517 148.021263 
C 676.430808 148.021263 673.748269 149.132407 671.770697 151.109979 
C 669.793126 153.08755 668.681982 155.770089 668.681982 158.566798 
C 668.681982 161.363506 669.793126 164.046046 671.770697 166.023617 
C 673.748269 168.001189 676.430808 169.112333 679.227517 169.112333 
z
" clip-path="url(#p882fba48a3)" style="stroke: #000000; stroke-width: 2; stroke-linejoin: miter"/>
   </g>
   <g id="patch_28">
    <path d="M 710.516466 266.339846 
L 740.646566 266.339846 
L 740.646566 236.209747 
L 710.516466 236.209747 
z
" clip-path="url(#p882fba48a3)" style="fill: #ffffff; stroke: #000000; stroke-width: 1.5; stroke-linejoin: miter"/>
   </g>
   <g id="patch_29">
    <path d="M 704.284171 173.631848 
L 746.878861 173.631848 
L 746.878861 143.501748 
L 704.284171 143.501748 
z
" clip-path="url(#p882fba48a3)" style="fill: #ffffff; stroke: #000000; stroke-width: 1.5; stroke-linejoin: miter"/>
   </g>
   <g id="patch_30">
    <path d="M 756.870466 266.339846 
L 787.000565 266.339846 
L 787.000565 236.209747 
L 756.870466 236.209747 
z
" clip-path="url(#p882fba48a3)" style="fill: #ffffff; stroke: #000000; stroke-width: 1.5; stroke-linejoin: miter"/>
   </g>
   <g id="patch_31">
    <path d="M 818.289515 533.918308 
C 819.488104 533.918308 820.637764 533.442103 821.485294 532.594573 
C 822.332825 531.747042 822.80903 530.597382 822.80903 529.398793 
C 822.80903 528.200204 822.332825 527.050544 821.485294 526.203013 
C 820.637764 525.355483 819.488104 524.879278 818.289515 524.879278 
C 817.090925 524.879278 815.941266 525.355483 815.093735 526.203013 
C 814.246204 527.050544 813.77 528.200204 813.77 529.398793 
C 813.77 530.597382 814.246204 531.747042 815.093735 532.594573 
C 815.941266 533.442103 817.090925 533.918308 818.289515 533.918308 
z
" clip-path="url(#p882fba48a3)" style="stroke: #000000; stroke-width: 1.5; stroke-linejoin: miter"/>
   </g>
   <g id="patch_32">
    <path d="M 818.289515 169.112333 
C 821.086223 169.112333 823.768762 168.001189 825.746334 166.023617 
C 827.723906 164.046046 828.83505 161.363506 828.83505 158.566798 
C 828.83505 155.770089 827.723906 153.08755 825.746334 151.109979 
C 823.768762 149.132407 821.086223 148.021263 818.289515 148.021263 
C 815.492806 148.021263 812.810267 149.132407 810.832696 151.109979 
C 808.855124 153.08755 807.74398 155.770089 807.74398 158.566798 
C 807.74398 161.363506 808.855124 164.046046 810.832696 166.023617 
C 812.810267 168.001189 815.492806 169.112333 818.289515 169.112333 
z
" clip-path="url(#p882fba48a3)" style="stroke: #000000; stroke-width: 2; stroke-linejoin: miter"/>
   </g>
   <g id="patch_33">
    <path d="M 849.578464 544.463843 
L 879.708564 544.463843 
L 879.708564 514.333743 
L 849.578464 514.333743 
z
" clip-path="url(#p882fba48a3)" style="fill: #ffffff; stroke: #000000; stroke-width: 1.5; stroke-linejoin: miter"/>
   </g>
   <g id="patch_34">
    <path d="M 864.643514 487.564309 
C 865.842103 487.564309 866.991763 487.088104 867.839294 486.240573 
C 868.686824 485.393043 869.163029 484.243383 869.163029 483.044794 
C 869.163029 481.846204 868.686824 480.696545 867.839294 479.849014 
C 866.991763 479.001483 865.842103 478.525279 864.643514 478.525279 
C 863.444925 478.525279 862.295265 479.001483 861.447734 479.849014 
C 860.600204 480.696545 860.123999 481.846204 860.123999 483.044794 
C 860.123999 484.243383 860.600204 485.393043 861.447734 486.240573 
C 862.295265 487.088104 863.444925 487.564309 864.643514 487.564309 
z
" clip-path="url(#p882fba48a3)" style="stroke: #000000; stroke-width: 1.5; stroke-linejoin: miter"/>
   </g>
   <g id="patch_35">
    <path d="M 864.643514 169.112333 
C 867.440223 169.112333 870.122762 168.001189 872.100333 166.023617 
C 874.077905 164.046046 875.189049 161.363506 875.189049 158.566798 
C 875.189049 155.770089 874.077905 153.08755 872.100333 151.109979 
C 870.122762 149.132407 867.440223 148.021263 864.643514 148.021263 
C 861.846806 148.021263 859.164266 149.132407 857.186695 151.109979 
C 855.209123 153.08755 854.097979 155.770089 854.097979 158.566798 
C 854.097979 161.363506 855.209123 164.046046 857.186695 166.023617 
C 859.164266 168.001189 861.846806 169.112333 864.643514 169.112333 
z
" clip-path="url(#p882fba48a3)" style="stroke: #000000; stroke-width: 2; stroke-linejoin: miter"/>
   </g>
   <g id="patch_36">
    <path d="M 895.932464 544.463843 
L 926.062563 544.463843 
L 926.062563 514.333743 
L 895.932464 514.333743 
z
" clip-path="url(#p882fba48a3)" style="fill: #ffffff; stroke: #000000; stroke-width: 1.5; stroke-linejoin: miter"/>
   </g>
   <g id="patch_37">
    <path d="M 895.932464 498.109843 
L 926.062563 498.109843 
L 926.062563 467.979744 
L 895.932464 467.979744 
z
" clip-path="url(#p882fba48a3)" style="fill: #ffffff; stroke: #000000; stroke-width: 1.5; stroke-linejoin: miter"/>
   </g>
   <g id="patch_38">
    <path d="M 942.286463 498.109843 
L 972.416563 498.109843 
L 972.416563 467.979744 
L 942.286463 467.979744 
z
" clip-path="url(#p882fba48a3)" style="fill: #ffffff; stroke: #000000; stroke-width: 1.5; stroke-linejoin: miter"/>
   </g>
   <g id="patch_39">
    <path d="M 988.640462 498.109843 
L 1018.770562 498.109843 
L 1018.770562 467.979744 
L 988.640462 467.979744 
z
" clip-path="url(#p882fba48a3)" style="fill: #ffffff; stroke: #000000; stroke-width: 1.5; stroke-linejoin: miter"/>
   </g>
   <g id="patch_40">
    <path d="M 1050.059512 487.564309 
C 1051.258101 487.564309 1052.407761 487.088104 1053.255291 486.240573 
C 1054.102822 485.393043 1054.579027 484.243383 1054.579027 483.044794 
C 1054.579027 481.846204 1054.102822 480.696545 1053.255291 479.849014 
C 1052.407761 479.001483 1051.258101 478.525279 1050.059512 478.525279 
C 1048.860922 478.525279 1047.711263 479.001483 1046.863732 479.849014 
C 1046.016201 480.696545 1045.539997 481.846204 1045.539997 483.044794 
C 1045.539997 484.243383 1046.016201 485.393043 1046.863732 486.240573 
C 1047.711263 487.088104 1048.860922 487.564309 1050.059512 487.564309 
z
" clip-path="url(#p882fba48a3)" style="stroke: #000000; stroke-width: 1.5; stroke-linejoin: miter"/>
   </g>
   <g id="patch_41">
    <path d="M 1050.059512 122.758333 
C 1052.85622 122.758333 1055.538759 121.647189 1057.516331 119.669618 
C 1059.493902 117.692046 1060.605047 115.009507 1060.605047 112.212799 
C 1060.605047 109.41609 1059.493902 106.733551 1057.516331 104.755979 
C 1055.538759 102.778408 1052.85622 101.667264 1050.059512 101.667264 
C 1047.262803 101.667264 1044.580264 102.778408 1042.602692 104.755979 
C 1040.625121 106.733551 1039.513977 109.41609 1039.513977 112.212799 
C 1039.513977 115.009507 1040.625121 117.692046 1042.602692 119.669618 
C 1044.580264 121.647189 1047.262803 122.758333 1050.059512 122.758333 
z
" clip-path="url(#p882fba48a3)" style="stroke: #000000; stroke-width: 2; stroke-linejoin: miter"/>
   </g>
   <g id="patch_42">
    <path d="M 1096.413511 441.210309 
C 1097.6121 441.210309 1098.76176 440.734105 1099.609291 439.886574 
C 1100.456821 439.039043 1100.933026 437.889384 1100.933026 436.690794 
C 1100.933026 435.492205 1100.456821 434.342545 1099.609291 433.495015 
C 1098.76176 432.647484 1097.6121 432.171279 1096.413511 432.171279 
C 1095.214922 432.171279 1094.065262 432.647484 1093.217731 433.495015 
C 1092.370201 434.342545 1091.893996 435.492205 1091.893996 436.690794 
C 1091.893996 437.889384 1092.370201 439.039043 1093.217731 439.886574 
C 1094.065262 440.734105 1095.214922 441.210309 1096.413511 441.210309 
z
" clip-path="url(#p882fba48a3)" style="stroke: #000000; stroke-width: 1.5; stroke-linejoin: miter"/>
   </g>
   <g id="patch_43">
    <path d="M 1096.413511 122.758333 
C 1099.21022 122.758333 1101.892759 121.647189 1103.87033 119.669618 
C 1105.847902 117.692046 1106.959046 115.009507 1106.959046 112.212799 
C 1106.959046 109.41609 1105.847902 106.733551 1103.87033 104.755979 
C 1101.892759 102.778408 1099.21022 101.667264 1096.413511 101.667264 
C 1093.616802 101.667264 1090.934263 102.778408 1088.956692 104.755979 
C 1086.97912 106.733551 1085.867976 109.41609 1085.867976 112.212799 
C 1085.867976 115.009507 1086.97912 117.692046 1088.956692 119.669618 
C 1090.934263 121.647189 1093.616802 122.758333 1096.413511 122.758333 
z
" clip-path="url(#p882fba48a3)" style="stroke: #000000; stroke-width: 2; stroke-linejoin: miter"/>
   </g>
   <g id="patch_44">
    <path d="M 1142.76751 209.440312 
C 1143.9661 209.440312 1145.115759 208.964108 1145.96329 208.116577 
C 1146.810821 207.269046 1147.287025 206.119387 1147.287025 204.920797 
C 1147.287025 203.722208 1146.810821 202.572548 1145.96329 201.725018 
C 1145.115759 200.877487 1143.9661 200.401282 1142.76751 200.401282 
C 1141.568921 200.401282 1140.419261 200.877487 1139.571731 201.725018 
C 1138.7242 202.572548 1138.247995 203.722208 1138.247995 204.920797 
C 1138.247995 206.119387 1138.7242 207.269046 1139.571731 208.116577 
C 1140.419261 208.964108 1141.568921 209.440312 1142.76751 209.440312 
z
" clip-path="url(#p882fba48a3)" style="stroke: #000000; stroke-width: 1.5; stroke-linejoin: miter"/>
   </g>
   <g id="patch_45">
    <path d="M 1142.76751 122.758333 
C 1145.564219 122.758333 1148.246758 121.647189 1150.22433 119.669618 
C 1152.201901 117.692046 1153.313045 115.009507 1153.313045 112.212799 
C 1153.313045 109.41609 1152.201901 106.733551 1150.22433 104.755979 
C 1148.246758 102.778408 1145.564219 101.667264 1142.76751 101.667264 
C 1139.970802 101.667264 1137.288263 102.778408 1135.310691 104.755979 
C 1133.33312 106.733551 1132.221976 109.41609 1132.221976 112.212799 
C 1132.221976 115.009507 1133.33312 117.692046 1135.310691 119.669618 
C 1137.288263 121.647189 1139.970802 122.758333 1142.76751 122.758333 
z
" clip-path="url(#p882fba48a3)" style="stroke: #000000; stroke-width: 2; stroke-linejoin: miter"/>
   </g>
   <g id="patch_46">
    <path d="M 1189.12151 163.086313 
C 1190.320099 163.086313 1191.469759 162.610108 1192.317289 161.762578 
C 1193.16482 160.915047 1193.641025 159.765387 1193.641025 158.566798 
C 1193.641025 157.368209 1193.16482 156.218549 1192.317289 155.371018 
C 1191.469759 154.523488 1190.320099 154.047283 1189.12151 154.047283 
C 1187.92292 154.047283 1186.773261 154.523488 1185.92573 155.371018 
C 1185.078199 156.218549 1184.601995 157.368209 1184.601995 158.566798 
C 1184.601995 159.765387 1185.078199 160.915047 1185.92573 161.762578 
C 1186.773261 162.610108 1187.92292 163.086313 1189.12151 163.086313 
z
" clip-path="url(#p882fba48a3)" style="stroke: #000000; stroke-width: 1.5; stroke-linejoin: miter"/>
   </g>
   <g id="patch_47">
    <path d="M 1189.12151 122.758333 
C 1191.918218 122.758333 1194.600757 121.647189 1196.578329 119.669618 
C 1198.555901 117.692046 1199.667045 115.009507 1199.667045 112.212799 
C 1199.667045 109.41609 1198.555901 106.733551 1196.578329 104.755979 
C 1194.600757 102.778408 1191.918218 101.667264 1189.12151 101.667264 
C 1186.324801 101.667264 1183.642262 102.778408 1181.664691 104.755979 
C 1179.687119 106.733551 1178.575975 109.41609 1178.575975 112.212799 
C 1178.575975 115.009507 1179.687119 117.692046 1181.664691 119.669618 
C 1183.642262 121.647189 1186.324801 122.758333 1189.12151 122.758333 
z
" clip-path="url(#p882fba48a3)" style="stroke: #000000; stroke-width: 2; stroke-linejoin: miter"/>
   </g>
   <g id="patch_48">
    <path d="M 1214.178164 127.277848 
L 1256.772854 127.277848 
L 1256.772854 97.147749 
L 1214.178164 97.147749 
z
" clip-path="url(#p882fba48a3)" style="fill: #ffffff; stroke: #000000; stroke-width: 1.5; stroke-linejoin: miter"/>
   </g>
   <g id="patch_49">
    <path d="M 1281.829509 163.086313 
C 1283.028098 163.086313 1284.177758 162.610108 1285.025288 161.762578 
C 1285.872819 160.915047 1286.349024 159.765387 1286.349024 158.566798 
C 1286.349024 157.368209 1285.872819 156.218549 1285.025288 155.371018 
C 1284.177758 154.523488 1283.028098 154.047283 1281.829509 154.047283 
C 1280.630919 154.047283 1279.48126 154.523488 1278.633729 155.371018 
C 1277.786198 156.218549 1277.309994 157.368209 1277.309994 158.566798 
C 1277.309994 159.765387 1277.786198 160.915047 1278.633729 161.762578 
C 1279.48126 162.610108 1280.630919 163.086313 1281.829509 163.086313 
z
" clip-path="url(#p882fba48a3)" style="stroke: #000000; stroke-width: 1.5; stroke-linejoin: miter"/>
   </g>
   <g id="patch_50">
    <path d="M 1281.829509 122.758333 
C 1284.626217 122.758333 1287.308756 121.647189 1289.286328 119.669618 
C 1291.263899 117.692046 1292.375043 115.009507 1292.375043 112.212799 
C 1292.375043 109.41609 1291.263899 106.733551 1289.286328 104.755979 
C 1287.308756 102.778408 1284.626217 101.667264 1281.829509 101.667264 
C 1279.0328 101.667264 1276.350261 102.778408 1274.372689 104.755979 
C 1272.395118 106.733551 1271.283974 109.41609 1271.283974 112.212799 
C 1271.283974 115.009507 1272.395118 117.692046 1274.372689 119.669618 
C 1276.350261 121.647189 1279.0328 122.758333 1281.829509 122.758333 
z
" clip-path="url(#p882fba48a3)" style="stroke: #000000; stroke-width: 2; stroke-linejoin: miter"/>
   </g>
   <g id="patch_51">
    <path d="M 1328.183508 209.440312 
C 1329.382097 209.440312 1330.531757 208.964108 1331.379288 208.116577 
C 1332.226818 207.269046 1332.703023 206.119387 1332.703023 204.920797 
C 1332.703023 203.722208 1332.226818 202.572548 1331.379288 201.725018 
C 1330.531757 200.877487 1329.382097 200.401282 1328.183508 200.401282 
C 1326.984919 200.401282 1325.835259 200.877487 1324.987728 201.725018 
C 1324.140198 202.572548 1323.663993 203.722208 1323.663993 204.920797 
C 1323.663993 206.119387 1324.140198 207.269046 1324.987728 208.116577 
C 1325.835259 208.964108 1326.984919 209.440312 1328.183508 209.440312 
z
" clip-path="url(#p882fba48a3)" style="stroke: #000000; stroke-width: 1.5; stroke-linejoin: miter"/>
   </g>
   <g id="patch_52">
    <path d="M 1328.183508 122.758333 
C 1330.980216 122.758333 1333.662756 121.647189 1335.640327 119.669618 
C 1337.617899 117.692046 1338.729043 115.009507 1338.729043 112.212799 
C 1338.729043 109.41609 1337.617899 106.733551 1335.640327 104.755979 
C 1333.662756 102.778408 1330.980216 101.667264 1328.183508 101.667264 
C 1325.386799 101.667264 1322.70426 102.778408 1320.726689 104.755979 
C 1318.749117 106.733551 1317.637973 109.41609 1317.637973 112.212799 
C 1317.637973 115.009507 1318.749117 117.692046 1320.726689 119.669618 
C 1322.70426 121.647189 1325.386799 122.758333 1328.183508 122.758333 
z
" clip-path="url(#p882fba48a3)" style="stroke: #000000; stroke-width: 2; stroke-linejoin: miter"/>
   </g>
   <g id="patch_53">
    <path d="M 1359.472458 219.985847 
L 1389.602557 219.985847 
L 1389.602557 189.855747 
L 1359.472458 189.855747 
z
" clip-path="url(#p882fba48a3)" style="fill: #ffffff; stroke: #000000; stroke-width: 1.5; stroke-linejoin: miter"/>
   </g>
   <g id="patch_54">
    <path d="M 1420.891507 441.210309 
C 1422.090096 441.210309 1423.239756 440.734105 1424.087286 439.886574 
C 1424.934817 439.039043 1425.411022 437.889384 1425.411022 436.690794 
C 1425.411022 435.492205 1424.934817 434.342545 1424.087286 433.495015 
C 1423.239756 432.647484 1422.090096 432.171279 1420.891507 432.171279 
C 1419.692917 432.171279 1418.543258 432.647484 1417.695727 433.495015 
C 1416.848196 434.342545 1416.371992 435.492205 1416.371992 436.690794 
C 1416.371992 437.889384 1416.848196 439.039043 1417.695727 439.886574 
C 1418.543258 440.734105 1419.692917 441.210309 1420.891507 441.210309 
z
" clip-path="url(#p882fba48a3)" style="stroke: #000000; stroke-width: 1.5; stroke-linejoin: miter"/>
   </g>
   <g id="patch_55">
    <path d="M 1420.891507 122.758333 
C 1423.688215 122.758333 1426.370754 121.647189 1428.348326 119.669618 
C 1430.325898 117.692046 1431.437042 115.009507 1431.437042 112.212799 
C 1431.437042 109.41609 1430.325898 106.733551 1428.348326 104.755979 
C 1426.370754 102.778408 1423.688215 101.667264 1420.891507 101.667264 
C 1418.094798 101.667264 1415.412259 102.778408 1413.434688 104.755979 
C 1411.457116 106.733551 1410.345972 109.41609 1410.345972 112.212799 
C 1410.345972 115.009507 1411.457116 117.692046 1413.434688 119.669618 
C 1415.412259 121.647189 1418.094798 122.758333 1420.891507 122.758333 
z
" clip-path="url(#p882fba48a3)" style="stroke: #000000; stroke-width: 2; stroke-linejoin: miter"/>
   </g>
   <g id="patch_56">
    <path d="M 1452.180456 451.755844 
L 1482.310556 451.755844 
L 1482.310556 421.625744 
L 1452.180456 421.625744 
z
" clip-path="url(#p882fba48a3)" style="fill: #ffffff; stroke: #000000; stroke-width: 1.5; stroke-linejoin: miter"/>
   </g>
   <g id="patch_57">
    <path d="M 1513.599505 487.564309 
C 1514.798095 487.564309 1515.947754 487.088104 1516.795285 486.240573 
C 1517.642816 485.393043 1518.11902 484.243383 1518.11902 483.044794 
C 1518.11902 481.846204 1517.642816 480.696545 1516.795285 479.849014 
C 1515.947754 479.001483 1514.798095 478.525279 1513.599505 478.525279 
C 1512.400916 478.525279 1511.251256 479.001483 1510.403726 479.849014 
C 1509.556195 480.696545 1509.079991 481.846204 1509.079991 483.044794 
C 1509.079991 484.243383 1509.556195 485.393043 1510.403726 486.240573 
C 1511.251256 487.088104 1512.400916 487.564309 1513.599505 487.564309 
z
" clip-path="url(#p882fba48a3)" style="stroke: #000000; stroke-width: 1.5; stroke-linejoin: miter"/>
   </g>
   <g id="patch_58">
    <path d="M 1513.599505 122.758333 
C 1516.396214 122.758333 1519.078753 121.647189 1521.056325 119.669618 
C 1523.033896 117.692046 1524.14504 115.009507 1524.14504 112.212799 
C 1524.14504 109.41609 1523.033896 106.733551 1521.056325 104.755979 
C 1519.078753 102.778408 1516.396214 101.667264 1513.599505 101.667264 
C 1510.802797 101.667264 1508.120258 102.778408 1506.142686 104.755979 
C 1504.165115 106.733551 1503.053971 109.41609 1503.053971 112.212799 
C 1503.053971 115.009507 1504.165115 117.692046 1506.142686 119.669618 
C 1508.120258 121.647189 1510.802797 122.758333 1513.599505 122.758333 
z
" clip-path="url(#p882fba48a3)" style="stroke: #000000; stroke-width: 2; stroke-linejoin: miter"/>
   </g>
   <g id="patch_59">
    <path d="M 1544.888455 498.109843 
L 1575.018555 498.109843 
L 1575.018555 467.979744 
L 1544.888455 467.979744 
z
" clip-path="url(#p882fba48a3)" style="fill: #ffffff; stroke: #000000; stroke-width: 1.5; stroke-linejoin: miter"/>
   </g>
   <g id="text_2">
    <g clip-path="url(#p882fba48a3)">
     <!-- ${q}_{0}$ -->
     <g transform="translate(256.056062 116.663775)scale(0.1625 -0.1625)">
      <defs>
       <path id="DejaVuSans-Oblique-71" d="M 2669 525 
Q 2438 222 2123 65 
Q 1809 -91 1428 -91 
Q 897 -91 595 267 
Q 294 625 294 1253 
Q 294 1759 480 2231 
Q 666 2703 1013 3078 
Q 1238 3322 1530 3453 
Q 1822 3584 2144 3584 
Q 2531 3584 2781 3431 
Q 3031 3278 3144 2969 
L 3244 3494 
L 3822 3494 
L 2888 -1319 
L 2309 -1319 
L 2669 525 
z
M 891 1338 
Q 891 875 1084 633 
Q 1278 391 1644 391 
Q 2188 391 2572 911 
Q 2956 1431 2956 2175 
Q 2956 2625 2757 2864 
Q 2559 3103 2188 3103 
Q 1916 3103 1684 2976 
Q 1453 2850 1281 2606 
Q 1100 2350 995 2006 
Q 891 1663 891 1338 
z
" transform="scale(0.015625)"/>
       <path id="DejaVuSans-30" d="M 2034 4250 
Q 1547 4250 1301 3770 
Q 1056 3291 1056 2328 
Q 1056 1369 1301 889 
Q 1547 409 2034 409 
Q 2525 409 2770 889 
Q 3016 1369 3016 2328 
Q 3016 3291 2770 3770 
Q 2525 4250 2034 4250 
z
M 2034 4750 
Q 2819 4750 3233 4129 
Q 3647 3509 3647 2328 
Q 3647 1150 3233 529 
Q 2819 -91 2034 -91 
Q 1250 -91 836 529 
Q 422 1150 422 2328 
Q 422 3509 836 4129 
Q 1250 4750 2034 4750 
z
" transform="scale(0.015625)"/>
      </defs>
      <use xlink:href="#DejaVuSans-Oblique-71"/>
      <use xlink:href="#DejaVuSans-30" transform="translate(63.476562 -16.40625)scale(0.7)"/>
     </g>
    </g>
   </g>
   <g id="text_3">
    <g clip-path="url(#p882fba48a3)">
     <!-- ${q}_{1}$ -->
     <g transform="translate(256.056062 163.017774)scale(0.1625 -0.1625)">
      <defs>
       <path id="DejaVuSans-31" d="M 794 531 
L 1825 531 
L 1825 4091 
L 703 3866 
L 703 4441 
L 1819 4666 
L 2450 4666 
L 2450 531 
L 3481 531 
L 3481 0 
L 794 0 
L 794 531 
z
" transform="scale(0.015625)"/>
      </defs>
      <use xlink:href="#DejaVuSans-Oblique-71"/>
      <use xlink:href="#DejaVuSans-31" transform="translate(63.476562 -16.40625)scale(0.7)"/>
     </g>
    </g>
   </g>
   <g id="text_4">
    <g clip-path="url(#p882fba48a3)">
     <!-- ${q}_{2}$ -->
     <g transform="translate(256.056062 209.371774)scale(0.1625 -0.1625)">
      <use xlink:href="#DejaVuSans-Oblique-71"/>
      <use xlink:href="#DejaVuSans-32" transform="translate(63.476562 -16.40625)scale(0.7)"/>
     </g>
    </g>
   </g>
   <g id="text_5">
    <g clip-path="url(#p882fba48a3)">
     <!-- ${q}_{3}$ -->
     <g transform="translate(256.056062 255.725773)scale(0.1625 -0.1625)">
      <use xlink:href="#DejaVuSans-Oblique-71"/>
      <use xlink:href="#DejaVuSans-33" transform="translate(63.476562 -16.40625)scale(0.7)"/>
     </g>
    </g>
   </g>
   <g id="text_6">
    <g clip-path="url(#p882fba48a3)">
     <!-- ${q}_{4}$ -->
     <g transform="translate(256.056062 302.079773)scale(0.1625 -0.1625)">
      <use xlink:href="#DejaVuSans-Oblique-71"/>
      <use xlink:href="#DejaVuSans-34" transform="translate(63.476562 -16.40625)scale(0.7)"/>
     </g>
    </g>
   </g>
   <g id="text_7">
    <g clip-path="url(#p882fba48a3)">
     <!-- ${q}_{5}$ -->
     <g transform="translate(256.056062 348.433772)scale(0.1625 -0.1625)">
      <defs>
       <path id="DejaVuSans-35" d="M 691 4666 
L 3169 4666 
L 3169 4134 
L 1269 4134 
L 1269 2991 
Q 1406 3038 1543 3061 
Q 1681 3084 1819 3084 
Q 2600 3084 3056 2656 
Q 3513 2228 3513 1497 
Q 3513 744 3044 326 
Q 2575 -91 1722 -91 
Q 1428 -91 1123 -41 
Q 819 9 494 109 
L 494 744 
Q 775 591 1075 516 
Q 1375 441 1709 441 
Q 2250 441 2565 725 
Q 2881 1009 2881 1497 
Q 2881 1984 2565 2268 
Q 2250 2553 1709 2553 
Q 1456 2553 1204 2497 
Q 953 2441 691 2322 
L 691 4666 
z
" transform="scale(0.015625)"/>
      </defs>
      <use xlink:href="#DejaVuSans-Oblique-71"/>
      <use xlink:href="#DejaVuSans-35" transform="translate(63.476562 -16.40625)scale(0.7)"/>
     </g>
    </g>
   </g>
   <g id="text_8">
    <g clip-path="url(#p882fba48a3)">
     <!-- ${q}_{6}$ -->
     <g transform="translate(256.056062 394.787771)scale(0.1625 -0.1625)">
      <defs>
       <path id="DejaVuSans-36" d="M 2113 2584 
Q 1688 2584 1439 2293 
Q 1191 2003 1191 1497 
Q 1191 994 1439 701 
Q 1688 409 2113 409 
Q 2538 409 2786 701 
Q 3034 994 3034 1497 
Q 3034 2003 2786 2293 
Q 2538 2584 2113 2584 
z
M 3366 4563 
L 3366 3988 
Q 3128 4100 2886 4159 
Q 2644 4219 2406 4219 
Q 1781 4219 1451 3797 
Q 1122 3375 1075 2522 
Q 1259 2794 1537 2939 
Q 1816 3084 2150 3084 
Q 2853 3084 3261 2657 
Q 3669 2231 3669 1497 
Q 3669 778 3244 343 
Q 2819 -91 2113 -91 
Q 1303 -91 875 529 
Q 447 1150 447 2328 
Q 447 3434 972 4092 
Q 1497 4750 2381 4750 
Q 2619 4750 2861 4703 
Q 3103 4656 3366 4563 
z
" transform="scale(0.015625)"/>
      </defs>
      <use xlink:href="#DejaVuSans-Oblique-71"/>
      <use xlink:href="#DejaVuSans-36" transform="translate(63.476562 -16.40625)scale(0.7)"/>
     </g>
    </g>
   </g>
   <g id="text_9">
    <g clip-path="url(#p882fba48a3)">
     <!-- ${q}_{7}$ -->
     <g transform="translate(256.056062 441.141771)scale(0.1625 -0.1625)">
      <defs>
       <path id="DejaVuSans-37" d="M 525 4666 
L 3525 4666 
L 3525 4397 
L 1831 0 
L 1172 0 
L 2766 4134 
L 525 4134 
L 525 4666 
z
" transform="scale(0.015625)"/>
      </defs>
      <use xlink:href="#DejaVuSans-Oblique-71"/>
      <use xlink:href="#DejaVuSans-37" transform="translate(63.476562 -16.40625)scale(0.7)"/>
     </g>
    </g>
   </g>
   <g id="text_10">
    <g clip-path="url(#p882fba48a3)">
     <!-- ${q}_{8}$ -->
     <g transform="translate(256.056062 487.49577)scale(0.1625 -0.1625)">
      <defs>
       <path id="DejaVuSans-38" d="M 2034 2216 
Q 1584 2216 1326 1975 
Q 1069 1734 1069 1313 
Q 1069 891 1326 650 
Q 1584 409 2034 409 
Q 2484 409 2743 651 
Q 3003 894 3003 1313 
Q 3003 1734 2745 1975 
Q 2488 2216 2034 2216 
z
M 1403 2484 
Q 997 2584 770 2862 
Q 544 3141 544 3541 
Q 544 4100 942 4425 
Q 1341 4750 2034 4750 
Q 2731 4750 3128 4425 
Q 3525 4100 3525 3541 
Q 3525 3141 3298 2862 
Q 3072 2584 2669 2484 
Q 3125 2378 3379 2068 
Q 3634 1759 3634 1313 
Q 3634 634 3220 271 
Q 2806 -91 2034 -91 
Q 1263 -91 848 271 
Q 434 634 434 1313 
Q 434 1759 690 2068 
Q 947 2378 1403 2484 
z
M 1172 3481 
Q 1172 3119 1398 2916 
Q 1625 2713 2034 2713 
Q 2441 2713 2670 2916 
Q 2900 3119 2900 3481 
Q 2900 3844 2670 4047 
Q 2441 4250 2034 4250 
Q 1625 4250 1398 4047 
Q 1172 3844 1172 3481 
z
" transform="scale(0.015625)"/>
      </defs>
      <use xlink:href="#DejaVuSans-Oblique-71"/>
      <use xlink:href="#DejaVuSans-38" transform="translate(63.476562 -16.40625)scale(0.7)"/>
     </g>
    </g>
   </g>
   <g id="text_11">
    <g clip-path="url(#p882fba48a3)">
     <!-- ${q}_{9}$ -->
     <g transform="translate(256.056062 533.84977)scale(0.1625 -0.1625)">
      <defs>
       <path id="DejaVuSans-39" d="M 703 97 
L 703 672 
Q 941 559 1184 500 
Q 1428 441 1663 441 
Q 2288 441 2617 861 
Q 2947 1281 2994 2138 
Q 2813 1869 2534 1725 
Q 2256 1581 1919 1581 
Q 1219 1581 811 2004 
Q 403 2428 403 3163 
Q 403 3881 828 4315 
Q 1253 4750 1959 4750 
Q 2769 4750 3195 4129 
Q 3622 3509 3622 2328 
Q 3622 1225 3098 567 
Q 2575 -91 1691 -91 
Q 1453 -91 1209 -44 
Q 966 3 703 97 
z
M 1959 2075 
Q 2384 2075 2632 2365 
Q 2881 2656 2881 3163 
Q 2881 3666 2632 3958 
Q 2384 4250 1959 4250 
Q 1534 4250 1286 3958 
Q 1038 3666 1038 3163 
Q 1038 2656 1286 2365 
Q 1534 2075 1959 2075 
z
" transform="scale(0.015625)"/>
      </defs>
      <use xlink:href="#DejaVuSans-Oblique-71"/>
      <use xlink:href="#DejaVuSans-39" transform="translate(63.476562 -16.40625)scale(0.7)"/>
     </g>
    </g>
   </g>
   <g id="line2d_29">
    <path d="M 308.395522 535.424813 
L 308.395522 523.372773 
" clip-path="url(#p882fba48a3)" style="fill: none; stroke: #ffffff; stroke-width: 2; stroke-linecap: square"/>
   </g>
   <g id="line2d_30">
    <path d="M 302.369502 529.398793 
L 314.421541 529.398793 
" clip-path="url(#p882fba48a3)" style="fill: none; stroke: #ffffff; stroke-width: 2; stroke-linecap: square"/>
   </g>
   <g id="text_12">
    <g clip-path="url(#p882fba48a3)">
     <!-- S -->
     <g transform="translate(304.269037 254.861984)scale(0.13 -0.13)">
      <use xlink:href="#DejaVuSans-53"/>
     </g>
    </g>
   </g>
   <g id="text_13">
    <g clip-path="url(#p882fba48a3)">
     <!-- H -->
     <g transform="translate(303.507318 440.277982)scale(0.13 -0.13)">
      <use xlink:href="#DejaVuSans-48"/>
     </g>
    </g>
   </g>
   <g id="text_14">
    <g clip-path="url(#p882fba48a3)">
     <!-- H -->
     <g transform="translate(303.507318 208.507985)scale(0.13 -0.13)">
      <use xlink:href="#DejaVuSans-48"/>
     </g>
    </g>
   </g>
   <g id="text_15">
    <g clip-path="url(#p882fba48a3)">
     <!-- 0.107 -->
     <g transform="translate(343.298271 540.645323)scale(0.08 -0.08)">
      <defs>
       <path id="DejaVuSans-2e" d="M 684 794 
L 1344 794 
L 1344 0 
L 684 0 
L 684 794 
z
" transform="scale(0.015625)"/>
      </defs>
      <use xlink:href="#DejaVuSans-30"/>
      <use xlink:href="#DejaVuSans-2e" x="63.623047"/>
      <use xlink:href="#DejaVuSans-31" x="95.410156"/>
      <use xlink:href="#DejaVuSans-30" x="159.033203"/>
      <use xlink:href="#DejaVuSans-37" x="222.65625"/>
     </g>
    </g>
   </g>
   <g id="text_16">
    <g clip-path="url(#p882fba48a3)">
     <!-- $\mathrm{R_Z}$ -->
     <g transform="translate(346.819521 528.466466)scale(0.13 -0.13)">
      <defs>
       <path id="DejaVuSans-5a" d="M 359 4666 
L 4025 4666 
L 4025 4184 
L 1075 531 
L 4097 531 
L 4097 0 
L 288 0 
L 288 481 
L 3238 4134 
L 359 4134 
L 359 4666 
z
" transform="scale(0.015625)"/>
      </defs>
      <use xlink:href="#DejaVuSans-52" transform="translate(0 0.09375)"/>
      <use xlink:href="#DejaVuSans-5a" transform="translate(70.439453 -16.3125)scale(0.7)"/>
     </g>
    </g>
   </g>
   <g id="text_17">
    <g clip-path="url(#p882fba48a3)">
     <!-- H -->
     <g transform="translate(349.861318 254.861984)scale(0.13 -0.13)">
      <use xlink:href="#DejaVuSans-48"/>
     </g>
    </g>
   </g>
   <g id="line2d_31">
    <path d="M 401.10352 535.424813 
L 401.10352 523.372773 
" clip-path="url(#p882fba48a3)" style="fill: none; stroke: #ffffff; stroke-width: 2; stroke-linecap: square"/>
   </g>
   <g id="line2d_32">
    <path d="M 395.0775 529.398793 
L 407.12954 529.398793 
" clip-path="url(#p882fba48a3)" style="fill: none; stroke: #ffffff; stroke-width: 2; stroke-linecap: square"/>
   </g>
   <g id="line2d_33">
    <path d="M 401.10352 303.654816 
L 401.10352 291.602776 
" clip-path="url(#p882fba48a3)" style="fill: none; stroke: #ffffff; stroke-width: 2; stroke-linecap: square"/>
   </g>
   <g id="line2d_34">
    <path d="M 395.0775 297.628796 
L 407.12954 297.628796 
" clip-path="url(#p882fba48a3)" style="fill: none; stroke: #ffffff; stroke-width: 2; stroke-linecap: square"/>
   </g>
   <g id="line2d_35">
    <path d="M 447.45752 303.654816 
L 447.45752 291.602776 
" clip-path="url(#p882fba48a3)" style="fill: none; stroke: #ffffff; stroke-width: 2; stroke-linecap: square"/>
   </g>
   <g id="line2d_36">
    <path d="M 441.4315 297.628796 
L 453.48354 297.628796 
" clip-path="url(#p882fba48a3)" style="fill: none; stroke: #ffffff; stroke-width: 2; stroke-linecap: square"/>
   </g>
   <g id="text_18">
    <g clip-path="url(#p882fba48a3)">
     <!-- S -->
     <g transform="translate(443.331035 486.631981)scale(0.13 -0.13)">
      <use xlink:href="#DejaVuSans-53"/>
     </g>
    </g>
   </g>
   <g id="text_19">
    <g clip-path="url(#p882fba48a3)">
     <!-- S -->
     <g transform="translate(443.331035 532.98598)scale(0.13 -0.13)">
      <use xlink:href="#DejaVuSans-53"/>
     </g>
    </g>
   </g>
   <g id="text_20">
    <g clip-path="url(#p882fba48a3)">
     <!-- 0.00555 -->
     <g transform="translate(477.270269 308.875326)scale(0.08 -0.08)">
      <use xlink:href="#DejaVuSans-30"/>
      <use xlink:href="#DejaVuSans-2e" x="63.623047"/>
      <use xlink:href="#DejaVuSans-30" x="95.410156"/>
      <use xlink:href="#DejaVuSans-30" x="159.033203"/>
      <use xlink:href="#DejaVuSans-35" x="222.65625"/>
      <use xlink:href="#DejaVuSans-35" x="286.279297"/>
      <use xlink:href="#DejaVuSans-35" x="349.902344"/>
     </g>
    </g>
   </g>
   <g id="text_21">
    <g clip-path="url(#p882fba48a3)">
     <!-- $\mathrm{R_Z}$ -->
     <g transform="translate(485.881519 296.696469)scale(0.13 -0.13)">
      <use xlink:href="#DejaVuSans-52" transform="translate(0 0.09375)"/>
      <use xlink:href="#DejaVuSans-5a" transform="translate(70.439453 -16.3125)scale(0.7)"/>
     </g>
    </g>
   </g>
   <g id="text_22">
    <g clip-path="url(#p882fba48a3)">
     <!-- H -->
     <g transform="translate(488.923316 486.631981)scale(0.13 -0.13)">
      <use xlink:href="#DejaVuSans-48"/>
     </g>
    </g>
   </g>
   <g id="text_23">
    <g clip-path="url(#p882fba48a3)">
     <!-- H -->
     <g transform="translate(488.923316 532.98598)scale(0.13 -0.13)">
      <use xlink:href="#DejaVuSans-48"/>
     </g>
    </g>
   </g>
   <g id="line2d_37">
    <path d="M 540.165518 303.654816 
L 540.165518 291.602776 
" clip-path="url(#p882fba48a3)" style="fill: none; stroke: #ffffff; stroke-width: 2; stroke-linecap: square"/>
   </g>
   <g id="line2d_38">
    <path d="M 534.139499 297.628796 
L 546.191538 297.628796 
" clip-path="url(#p882fba48a3)" style="fill: none; stroke: #ffffff; stroke-width: 2; stroke-linecap: square"/>
   </g>
   <g id="line2d_39">
    <path d="M 586.519518 164.592818 
L 586.519518 152.540778 
" clip-path="url(#p882fba48a3)" style="fill: none; stroke: #ffffff; stroke-width: 2; stroke-linecap: square"/>
   </g>
   <g id="line2d_40">
    <path d="M 580.493498 158.566798 
L 592.545538 158.566798 
" clip-path="url(#p882fba48a3)" style="fill: none; stroke: #ffffff; stroke-width: 2; stroke-linecap: square"/>
   </g>
   <g id="line2d_41">
    <path d="M 632.873517 303.654816 
L 632.873517 291.602776 
" clip-path="url(#p882fba48a3)" style="fill: none; stroke: #ffffff; stroke-width: 2; stroke-linecap: square"/>
   </g>
   <g id="line2d_42">
    <path d="M 626.847497 297.628796 
L 638.899537 297.628796 
" clip-path="url(#p882fba48a3)" style="fill: none; stroke: #ffffff; stroke-width: 2; stroke-linecap: square"/>
   </g>
   <g id="line2d_43">
    <path d="M 679.227517 164.592818 
L 679.227517 152.540778 
" clip-path="url(#p882fba48a3)" style="fill: none; stroke: #ffffff; stroke-width: 2; stroke-linecap: square"/>
   </g>
   <g id="line2d_44">
    <path d="M 673.201497 158.566798 
L 685.253536 158.566798 
" clip-path="url(#p882fba48a3)" style="fill: none; stroke: #ffffff; stroke-width: 2; stroke-linecap: square"/>
   </g>
   <g id="text_24">
    <g clip-path="url(#p882fba48a3)">
     <!-- H -->
     <g transform="translate(720.693313 254.861984)scale(0.13 -0.13)">
      <use xlink:href="#DejaVuSans-48"/>
     </g>
    </g>
   </g>
   <g id="text_25">
    <g clip-path="url(#p882fba48a3)">
     <!-- $-$0.00236 -->
     <g transform="translate(705.661516 169.813328)scale(0.08 -0.08)">
      <defs>
       <path id="DejaVuSans-2212" d="M 678 2272 
L 4684 2272 
L 4684 1741 
L 678 1741 
L 678 2272 
z
" transform="scale(0.015625)"/>
      </defs>
      <use xlink:href="#DejaVuSans-2212" transform="translate(0 0.78125)"/>
      <use xlink:href="#DejaVuSans-30" transform="translate(83.789062 0.78125)"/>
      <use xlink:href="#DejaVuSans-2e" transform="translate(147.412109 0.78125)"/>
      <use xlink:href="#DejaVuSans-30" transform="translate(179.199219 0.78125)"/>
      <use xlink:href="#DejaVuSans-30" transform="translate(242.822266 0.78125)"/>
      <use xlink:href="#DejaVuSans-32" transform="translate(306.445312 0.78125)"/>
      <use xlink:href="#DejaVuSans-33" transform="translate(370.068359 0.78125)"/>
      <use xlink:href="#DejaVuSans-36" transform="translate(433.691406 0.78125)"/>
     </g>
    </g>
   </g>
   <g id="text_26">
    <g clip-path="url(#p882fba48a3)">
     <!-- $\mathrm{R_Z}$ -->
     <g transform="translate(717.651516 157.63447)scale(0.13 -0.13)">
      <use xlink:href="#DejaVuSans-52" transform="translate(0 0.09375)"/>
      <use xlink:href="#DejaVuSans-5a" transform="translate(70.439453 -16.3125)scale(0.7)"/>
     </g>
    </g>
   </g>
   <g id="text_27">
    <g clip-path="url(#p882fba48a3)">
     <!-- $\mathrm{S^\dagger}$ -->
     <g transform="translate(763.485515 254.861984)scale(0.13 -0.13)">
      <defs>
       <path id="DejaVuSans-2020" d="M 1325 4666 
L 1875 4666 
L 1875 3353 
L 3022 3353 
L 3022 2875 
L 1875 2875 
L 1875 -616 
L 1325 -616 
L 1325 2875 
L 178 2875 
L 178 3353 
L 1325 3353 
L 1325 4666 
z
" transform="scale(0.015625)"/>
      </defs>
      <use xlink:href="#DejaVuSans-53" transform="translate(0 0.684375)"/>
      <use xlink:href="#DejaVuSans-2020" transform="translate(78.071289 38.965625)scale(0.7)"/>
     </g>
    </g>
   </g>
   <g id="line2d_45">
    <path d="M 818.289515 164.592818 
L 818.289515 152.540778 
" clip-path="url(#p882fba48a3)" style="fill: none; stroke: #ffffff; stroke-width: 2; stroke-linecap: square"/>
   </g>
   <g id="line2d_46">
    <path d="M 812.263495 158.566798 
L 824.315535 158.566798 
" clip-path="url(#p882fba48a3)" style="fill: none; stroke: #ffffff; stroke-width: 2; stroke-linecap: square"/>
   </g>
   <g id="text_28">
    <g clip-path="url(#p882fba48a3)">
     <!-- H -->
     <g transform="translate(859.755311 532.98598)scale(0.13 -0.13)">
      <use xlink:href="#DejaVuSans-48"/>
     </g>
    </g>
   </g>
   <g id="line2d_47">
    <path d="M 864.643514 164.592818 
L 864.643514 152.540778 
" clip-path="url(#p882fba48a3)" style="fill: none; stroke: #ffffff; stroke-width: 2; stroke-linecap: square"/>
   </g>
   <g id="line2d_48">
    <path d="M 858.617494 158.566798 
L 870.669534 158.566798 
" clip-path="url(#p882fba48a3)" style="fill: none; stroke: #ffffff; stroke-width: 2; stroke-linecap: square"/>
   </g>
   <g id="text_29">
    <g clip-path="url(#p882fba48a3)">
     <!-- $\mathrm{S^\dagger}$ -->
     <g transform="translate(902.547513 532.98598)scale(0.13 -0.13)">
      <use xlink:href="#DejaVuSans-53" transform="translate(0 0.684375)"/>
      <use xlink:href="#DejaVuSans-2020" transform="translate(78.071289 38.965625)scale(0.7)"/>
     </g>
    </g>
   </g>
   <g id="text_30">
    <g clip-path="url(#p882fba48a3)">
     <!-- H -->
     <g transform="translate(906.10931 486.631981)scale(0.13 -0.13)">
      <use xlink:href="#DejaVuSans-48"/>
     </g>
    </g>
   </g>
   <g id="text_31">
    <g clip-path="url(#p882fba48a3)">
     <!-- $\mathrm{S^\dagger}$ -->
     <g transform="translate(948.901513 486.631981)scale(0.13 -0.13)">
      <use xlink:href="#DejaVuSans-53" transform="translate(0 0.684375)"/>
      <use xlink:href="#DejaVuSans-2020" transform="translate(78.071289 38.965625)scale(0.7)"/>
     </g>
    </g>
   </g>
   <g id="text_32">
    <g clip-path="url(#p882fba48a3)">
     <!-- H -->
     <g transform="translate(998.817309 486.631981)scale(0.13 -0.13)">
      <use xlink:href="#DejaVuSans-48"/>
     </g>
    </g>
   </g>
   <g id="line2d_49">
    <path d="M 1050.059512 118.238818 
L 1050.059512 106.186779 
" clip-path="url(#p882fba48a3)" style="fill: none; stroke: #ffffff; stroke-width: 2; stroke-linecap: square"/>
   </g>
   <g id="line2d_50">
    <path d="M 1044.033492 112.212799 
L 1056.085532 112.212799 
" clip-path="url(#p882fba48a3)" style="fill: none; stroke: #ffffff; stroke-width: 2; stroke-linecap: square"/>
   </g>
   <g id="line2d_51">
    <path d="M 1096.413511 118.238818 
L 1096.413511 106.186779 
" clip-path="url(#p882fba48a3)" style="fill: none; stroke: #ffffff; stroke-width: 2; stroke-linecap: square"/>
   </g>
   <g id="line2d_52">
    <path d="M 1090.387491 112.212799 
L 1102.439531 112.212799 
" clip-path="url(#p882fba48a3)" style="fill: none; stroke: #ffffff; stroke-width: 2; stroke-linecap: square"/>
   </g>
   <g id="line2d_53">
    <path d="M 1142.76751 118.238818 
L 1142.76751 106.186779 
" clip-path="url(#p882fba48a3)" style="fill: none; stroke: #ffffff; stroke-width: 2; stroke-linecap: square"/>
   </g>
   <g id="line2d_54">
    <path d="M 1136.74149 112.212799 
L 1148.79353 112.212799 
" clip-path="url(#p882fba48a3)" style="fill: none; stroke: #ffffff; stroke-width: 2; stroke-linecap: square"/>
   </g>
   <g id="line2d_55">
    <path d="M 1189.12151 118.238818 
L 1189.12151 106.186779 
" clip-path="url(#p882fba48a3)" style="fill: none; stroke: #ffffff; stroke-width: 2; stroke-linecap: square"/>
   </g>
   <g id="line2d_56">
    <path d="M 1183.09549 112.212799 
L 1195.14753 112.212799 
" clip-path="url(#p882fba48a3)" style="fill: none; stroke: #ffffff; stroke-width: 2; stroke-linecap: square"/>
   </g>
   <g id="text_33">
    <g clip-path="url(#p882fba48a3)">
     <!-- $-$0.00693 -->
     <g transform="translate(1215.555509 123.459328)scale(0.08 -0.08)">
      <use xlink:href="#DejaVuSans-2212" transform="translate(0 0.78125)"/>
      <use xlink:href="#DejaVuSans-30" transform="translate(83.789062 0.78125)"/>
      <use xlink:href="#DejaVuSans-2e" transform="translate(147.412109 0.78125)"/>
      <use xlink:href="#DejaVuSans-30" transform="translate(179.199219 0.78125)"/>
      <use xlink:href="#DejaVuSans-30" transform="translate(242.822266 0.78125)"/>
      <use xlink:href="#DejaVuSans-36" transform="translate(306.445312 0.78125)"/>
      <use xlink:href="#DejaVuSans-39" transform="translate(370.068359 0.78125)"/>
      <use xlink:href="#DejaVuSans-33" transform="translate(433.691406 0.78125)"/>
     </g>
    </g>
   </g>
   <g id="text_34">
    <g clip-path="url(#p882fba48a3)">
     <!-- $\mathrm{R_Z}$ -->
     <g transform="translate(1227.545509 111.280471)scale(0.13 -0.13)">
      <use xlink:href="#DejaVuSans-52" transform="translate(0 0.09375)"/>
      <use xlink:href="#DejaVuSans-5a" transform="translate(70.439453 -16.3125)scale(0.7)"/>
     </g>
    </g>
   </g>
   <g id="line2d_57">
    <path d="M 1281.829509 118.238818 
L 1281.829509 106.186779 
" clip-path="url(#p882fba48a3)" style="fill: none; stroke: #ffffff; stroke-width: 2; stroke-linecap: square"/>
   </g>
   <g id="line2d_58">
    <path d="M 1275.803489 112.212799 
L 1287.855528 112.212799 
" clip-path="url(#p882fba48a3)" style="fill: none; stroke: #ffffff; stroke-width: 2; stroke-linecap: square"/>
   </g>
   <g id="line2d_59">
    <path d="M 1328.183508 118.238818 
L 1328.183508 106.186779 
" clip-path="url(#p882fba48a3)" style="fill: none; stroke: #ffffff; stroke-width: 2; stroke-linecap: square"/>
   </g>
   <g id="line2d_60">
    <path d="M 1322.157488 112.212799 
L 1334.209528 112.212799 
" clip-path="url(#p882fba48a3)" style="fill: none; stroke: #ffffff; stroke-width: 2; stroke-linecap: square"/>
   </g>
   <g id="text_35">
    <g clip-path="url(#p882fba48a3)">
     <!-- H -->
     <g transform="translate(1369.649304 208.507985)scale(0.13 -0.13)">
      <use xlink:href="#DejaVuSans-48"/>
     </g>
    </g>
   </g>
   <g id="line2d_61">
    <path d="M 1420.891507 118.238818 
L 1420.891507 106.186779 
" clip-path="url(#p882fba48a3)" style="fill: none; stroke: #ffffff; stroke-width: 2; stroke-linecap: square"/>
   </g>
   <g id="line2d_62">
    <path d="M 1414.865487 112.212799 
L 1426.917527 112.212799 
" clip-path="url(#p882fba48a3)" style="fill: none; stroke: #ffffff; stroke-width: 2; stroke-linecap: square"/>
   </g>
   <g id="text_36">
    <g clip-path="url(#p882fba48a3)">
     <!-- H -->
     <g transform="translate(1462.357303 440.277982)scale(0.13 -0.13)">
      <use xlink:href="#DejaVuSans-48"/>
     </g>
    </g>
   </g>
   <g id="line2d_63">
    <path d="M 1513.599505 118.238818 
L 1513.599505 106.186779 
" clip-path="url(#p882fba48a3)" style="fill: none; stroke: #ffffff; stroke-width: 2; stroke-linecap: square"/>
   </g>
   <g id="line2d_64">
    <path d="M 1507.573486 112.212799 
L 1519.625525 112.212799 
" clip-path="url(#p882fba48a3)" style="fill: none; stroke: #ffffff; stroke-width: 2; stroke-linecap: square"/>
   </g>
   <g id="text_37">
    <g clip-path="url(#p882fba48a3)">
     <!-- H -->
     <g transform="translate(1555.065302 486.631981)scale(0.13 -0.13)">
      <use xlink:href="#DejaVuSans-48"/>
     </g>
    </g>
   </g>
  </g>
 </g>
 <defs>
  <clipPath id="p882fba48a3">
   <rect x="225.955165" y="75.129599" width="1364.591979" height="482.081594"/>
  </clipPath>
 </defs>
</svg>
