<?xml version="1.0" encoding="utf-8" standalone="no"?>
<!DOCTYPE svg PUBLIC "-//W3C//DTD SVG 1.1//EN"
  "http://www.w3.org/Graphics/SVG/1.1/DTD/svg11.dtd">
<svg xmlns:xlink="http://www.w3.org/1999/xlink" width="1471.197379pt" height="626.079992pt" viewBox="0 0 1471.197379 626.079992" xmlns="http://www.w3.org/2000/svg" version="1.1">
 <metadata>
  <rdf:RDF xmlns:dc="http://purl.org/dc/elements/1.1/" xmlns:cc="http://creativecommons.org/ns#" xmlns:rdf="http://www.w3.org/1999/02/22-rdf-syntax-ns#">
   <cc:Work>
    <dc:type rdf:resource="http://purl.org/dc/dcmitype/StillImage"/>
    <dc:date>2022-05-22T13:28:55.672699</dc:date>
    <dc:format>image/svg+xml</dc:format>
    <dc:creator>
     <cc:Agent>
      <dc:title>Matplotlib v3.5.1, https://matplotlib.org/</dc:title>
     </cc:Agent>
    </dc:creator>
   </cc:Work>
  </rdf:RDF>
 </metadata>
 <defs>
  <style type="text/css">*{stroke-linejoin: round; stroke-linecap: butt}</style>
 </defs>
 <g id="figure_1">
  <g id="patch_1">
   <path d="M 0 626.079992 
L 1471.197379 626.079992 
L 1471.197379 0 
L 0 0 
z
" style="fill: #ffffff"/>
  </g>
  <g id="axes_1">
   <g id="line2d_1">
    <path d="M 244.986862 112.212799 
L 1315.764248 112.212799 
" clip-path="url(#pba8b7b9e1a)" style="fill: none; stroke: #000000; stroke-width: 2; stroke-linecap: square"/>
   </g>
   <g id="line2d_2">
    <path d="M 244.986862 158.566798 
L 1315.764248 158.566798 
" clip-path="url(#pba8b7b9e1a)" style="fill: none; stroke: #000000; stroke-width: 2; stroke-linecap: square"/>
   </g>
   <g id="line2d_3">
    <path d="M 244.986862 204.920797 
L 1315.764248 204.920797 
" clip-path="url(#pba8b7b9e1a)" style="fill: none; stroke: #000000; stroke-width: 2; stroke-linecap: square"/>
   </g>
   <g id="line2d_4">
    <path d="M 244.986862 251.274797 
L 1315.764248 251.274797 
" clip-path="url(#pba8b7b9e1a)" style="fill: none; stroke: #000000; stroke-width: 2; stroke-linecap: square"/>
   </g>
   <g id="line2d_5">
    <path d="M 244.986862 297.628796 
L 1315.764248 297.628796 
" clip-path="url(#pba8b7b9e1a)" style="fill: none; stroke: #000000; stroke-width: 2; stroke-linecap: square"/>
   </g>
   <g id="line2d_6">
    <path d="M 244.986862 343.982795 
L 1315.764248 343.982795 
" clip-path="url(#pba8b7b9e1a)" style="fill: none; stroke: #000000; stroke-width: 2; stroke-linecap: square"/>
   </g>
   <g id="line2d_7">
    <path d="M 244.986862 390.336795 
L 1315.764248 390.336795 
" clip-path="url(#pba8b7b9e1a)" style="fill: none; stroke: #000000; stroke-width: 2; stroke-linecap: square"/>
   </g>
   <g id="line2d_8">
    <path d="M 244.986862 436.690794 
L 1315.764248 436.690794 
" clip-path="url(#pba8b7b9e1a)" style="fill: none; stroke: #000000; stroke-width: 2; stroke-linecap: square"/>
   </g>
   <g id="line2d_9">
    <path d="M 244.986862 483.044794 
L 1315.764248 483.044794 
" clip-path="url(#pba8b7b9e1a)" style="fill: none; stroke: #000000; stroke-width: 2; stroke-linecap: square"/>
   </g>
   <g id="line2d_10">
    <path d="M 244.986862 529.398793 
L 1315.764248 529.398793 
" clip-path="url(#pba8b7b9e1a)" style="fill: none; stroke: #000000; stroke-width: 2; stroke-linecap: square"/>
   </g>
   <g id="line2d_11">
    <path d="M 270.018022 390.336795 
L 270.018022 251.274797 
" clip-path="url(#pba8b7b9e1a)" style="fill: none; stroke: #000000; stroke-width: 2; stroke-linecap: square"/>
   </g>
   <g id="line2d_12">
    <path d="M 270.018022 529.398793 
L 270.018022 483.044794 
" clip-path="url(#pba8b7b9e1a)" style="fill: none; stroke: #000000; stroke-width: 2; stroke-linecap: square"/>
   </g>
   <g id="line2d_13">
    <path d="M 316.372021 529.398793 
L 316.372021 436.690794 
" clip-path="url(#pba8b7b9e1a)" style="fill: none; stroke: #000000; stroke-width: 2; stroke-linecap: square"/>
   </g>
   <g id="line2d_14">
    <path d="M 409.08002 390.336795 
L 409.08002 251.274797 
" clip-path="url(#pba8b7b9e1a)" style="fill: none; stroke: #000000; stroke-width: 2; stroke-linecap: square"/>
   </g>
   <g id="line2d_15">
    <path d="M 455.43402 529.398793 
L 455.43402 343.982795 
" clip-path="url(#pba8b7b9e1a)" style="fill: none; stroke: #000000; stroke-width: 2; stroke-linecap: square"/>
   </g>
   <g id="line2d_16">
    <path d="M 548.142018 529.398793 
L 548.142018 343.982795 
" clip-path="url(#pba8b7b9e1a)" style="fill: none; stroke: #000000; stroke-width: 2; stroke-linecap: square"/>
   </g>
   <g id="line2d_17">
    <path d="M 594.496018 529.398793 
L 594.496018 436.690794 
" clip-path="url(#pba8b7b9e1a)" style="fill: none; stroke: #000000; stroke-width: 2; stroke-linecap: square"/>
   </g>
   <g id="line2d_18">
    <path d="M 640.850017 529.398793 
L 640.850017 483.044794 
" clip-path="url(#pba8b7b9e1a)" style="fill: none; stroke: #000000; stroke-width: 2; stroke-linecap: square"/>
   </g>
   <g id="line2d_19">
    <path d="M 687.204016 436.690794 
L 687.204016 297.628796 
" clip-path="url(#pba8b7b9e1a)" style="fill: none; stroke: #000000; stroke-width: 2; stroke-linecap: square"/>
   </g>
   <g id="line2d_20">
    <path d="M 733.558016 343.982795 
L 733.558016 204.920797 
" clip-path="url(#pba8b7b9e1a)" style="fill: none; stroke: #000000; stroke-width: 2; stroke-linecap: square"/>
   </g>
   <g id="line2d_21">
    <path d="M 779.912015 436.690794 
L 779.912015 297.628796 
" clip-path="url(#pba8b7b9e1a)" style="fill: none; stroke: #000000; stroke-width: 2; stroke-linecap: square"/>
   </g>
   <g id="line2d_22">
    <path d="M 826.266015 343.982795 
L 826.266015 204.920797 
" clip-path="url(#pba8b7b9e1a)" style="fill: none; stroke: #000000; stroke-width: 2; stroke-linecap: square"/>
   </g>
   <g id="line2d_23">
    <path d="M 826.266015 529.398793 
L 826.266015 436.690794 
" clip-path="url(#pba8b7b9e1a)" style="fill: none; stroke: #000000; stroke-width: 2; stroke-linecap: square"/>
   </g>
   <g id="line2d_24">
    <path d="M 872.620014 529.398793 
L 872.620014 390.336795 
" clip-path="url(#pba8b7b9e1a)" style="fill: none; stroke: #000000; stroke-width: 2; stroke-linecap: square"/>
   </g>
   <g id="line2d_25">
    <path d="M 965.328013 529.398793 
L 965.328013 343.982795 
" clip-path="url(#pba8b7b9e1a)" style="fill: none; stroke: #000000; stroke-width: 2; stroke-linecap: square"/>
   </g>
   <g id="line2d_26">
    <path d="M 1011.682012 529.398793 
L 1011.682012 158.566798 
" clip-path="url(#pba8b7b9e1a)" style="fill: none; stroke: #000000; stroke-width: 2; stroke-linecap: square"/>
   </g>
   <g id="line2d_27">
    <path d="M 1104.390011 529.398793 
L 1104.390011 158.566798 
" clip-path="url(#pba8b7b9e1a)" style="fill: none; stroke: #000000; stroke-width: 2; stroke-linecap: square"/>
   </g>
   <g id="line2d_28">
    <path d="M 1150.74401 529.398793 
L 1150.74401 343.982795 
" clip-path="url(#pba8b7b9e1a)" style="fill: none; stroke: #000000; stroke-width: 2; stroke-linecap: square"/>
   </g>
   <g id="line2d_29">
    <path d="M 1197.09801 529.398793 
L 1197.09801 390.336795 
" clip-path="url(#pba8b7b9e1a)" style="fill: none; stroke: #000000; stroke-width: 2; stroke-linecap: square"/>
   </g>
   <g id="line2d_30">
    <path d="M 1243.452009 529.398793 
L 1243.452009 436.690794 
" clip-path="url(#pba8b7b9e1a)" style="fill: none; stroke: #000000; stroke-width: 2; stroke-linecap: square"/>
   </g>
   <g id="line2d_31">
    <path d="M 1289.806008 529.398793 
L 1289.806008 483.044794 
" clip-path="url(#pba8b7b9e1a)" style="fill: none; stroke: #000000; stroke-width: 2; stroke-linecap: square"/>
   </g>
   <g id="text_1">
    <!-- TERMS: 8, DEPTH:20 -->
    <g transform="translate(691.956157 69.129599)scale(0.12 -0.12)">
     <defs>
      <path id="DejaVuSans-54" d="M -19 4666 
L 3928 4666 
L 3928 4134 
L 2272 4134 
L 2272 0 
L 1638 0 
L 1638 4134 
L -19 4134 
L -19 4666 
z
" transform="scale(0.015625)"/>
      <path id="DejaVuSans-45" d="M 628 4666 
L 3578 4666 
L 3578 4134 
L 1259 4134 
L 1259 2753 
L 3481 2753 
L 3481 2222 
L 1259 2222 
L 1259 531 
L 3634 531 
L 3634 0 
L 628 0 
L 628 4666 
z
" transform="scale(0.015625)"/>
      <path id="DejaVuSans-52" d="M 2841 2188 
Q 3044 2119 3236 1894 
Q 3428 1669 3622 1275 
L 4263 0 
L 3584 0 
L 2988 1197 
Q 2756 1666 2539 1819 
Q 2322 1972 1947 1972 
L 1259 1972 
L 1259 0 
L 628 0 
L 628 4666 
L 2053 4666 
Q 2853 4666 3247 4331 
Q 3641 3997 3641 3322 
Q 3641 2881 3436 2590 
Q 3231 2300 2841 2188 
z
M 1259 4147 
L 1259 2491 
L 2053 2491 
Q 2509 2491 2742 2702 
Q 2975 2913 2975 3322 
Q 2975 3731 2742 3939 
Q 2509 4147 2053 4147 
L 1259 4147 
z
" transform="scale(0.015625)"/>
      <path id="DejaVuSans-4d" d="M 628 4666 
L 1569 4666 
L 2759 1491 
L 3956 4666 
L 4897 4666 
L 4897 0 
L 4281 0 
L 4281 4097 
L 3078 897 
L 2444 897 
L 1241 4097 
L 1241 0 
L 628 0 
L 628 4666 
z
" transform="scale(0.015625)"/>
      <path id="DejaVuSans-53" d="M 3425 4513 
L 3425 3897 
Q 3066 4069 2747 4153 
Q 2428 4238 2131 4238 
Q 1616 4238 1336 4038 
Q 1056 3838 1056 3469 
Q 1056 3159 1242 3001 
Q 1428 2844 1947 2747 
L 2328 2669 
Q 3034 2534 3370 2195 
Q 3706 1856 3706 1288 
Q 3706 609 3251 259 
Q 2797 -91 1919 -91 
Q 1588 -91 1214 -16 
Q 841 59 441 206 
L 441 856 
Q 825 641 1194 531 
Q 1563 422 1919 422 
Q 2459 422 2753 634 
Q 3047 847 3047 1241 
Q 3047 1584 2836 1778 
Q 2625 1972 2144 2069 
L 1759 2144 
Q 1053 2284 737 2584 
Q 422 2884 422 3419 
Q 422 4038 858 4394 
Q 1294 4750 2059 4750 
Q 2388 4750 2728 4690 
Q 3069 4631 3425 4513 
z
" transform="scale(0.015625)"/>
      <path id="DejaVuSans-3a" d="M 750 794 
L 1409 794 
L 1409 0 
L 750 0 
L 750 794 
z
M 750 3309 
L 1409 3309 
L 1409 2516 
L 750 2516 
L 750 3309 
z
" transform="scale(0.015625)"/>
      <path id="DejaVuSans-20" transform="scale(0.015625)"/>
      <path id="DejaVuSans-38" d="M 2034 2216 
Q 1584 2216 1326 1975 
Q 1069 1734 1069 1313 
Q 1069 891 1326 650 
Q 1584 409 2034 409 
Q 2484 409 2743 651 
Q 3003 894 3003 1313 
Q 3003 1734 2745 1975 
Q 2488 2216 2034 2216 
z
M 1403 2484 
Q 997 2584 770 2862 
Q 544 3141 544 3541 
Q 544 4100 942 4425 
Q 1341 4750 2034 4750 
Q 2731 4750 3128 4425 
Q 3525 4100 3525 3541 
Q 3525 3141 3298 2862 
Q 3072 2584 2669 2484 
Q 3125 2378 3379 2068 
Q 3634 1759 3634 1313 
Q 3634 634 3220 271 
Q 2806 -91 2034 -91 
Q 1263 -91 848 271 
Q 434 634 434 1313 
Q 434 1759 690 2068 
Q 947 2378 1403 2484 
z
M 1172 3481 
Q 1172 3119 1398 2916 
Q 1625 2713 2034 2713 
Q 2441 2713 2670 2916 
Q 2900 3119 2900 3481 
Q 2900 3844 2670 4047 
Q 2441 4250 2034 4250 
Q 1625 4250 1398 4047 
Q 1172 3844 1172 3481 
z
" transform="scale(0.015625)"/>
      <path id="DejaVuSans-2c" d="M 750 794 
L 1409 794 
L 1409 256 
L 897 -744 
L 494 -744 
L 750 256 
L 750 794 
z
" transform="scale(0.015625)"/>
      <path id="DejaVuSans-44" d="M 1259 4147 
L 1259 519 
L 2022 519 
Q 2988 519 3436 956 
Q 3884 1394 3884 2338 
Q 3884 3275 3436 3711 
Q 2988 4147 2022 4147 
L 1259 4147 
z
M 628 4666 
L 1925 4666 
Q 3281 4666 3915 4102 
Q 4550 3538 4550 2338 
Q 4550 1131 3912 565 
Q 3275 0 1925 0 
L 628 0 
L 628 4666 
z
" transform="scale(0.015625)"/>
      <path id="DejaVuSans-50" d="M 1259 4147 
L 1259 2394 
L 2053 2394 
Q 2494 2394 2734 2622 
Q 2975 2850 2975 3272 
Q 2975 3691 2734 3919 
Q 2494 4147 2053 4147 
L 1259 4147 
z
M 628 4666 
L 2053 4666 
Q 2838 4666 3239 4311 
Q 3641 3956 3641 3272 
Q 3641 2581 3239 2228 
Q 2838 1875 2053 1875 
L 1259 1875 
L 1259 0 
L 628 0 
L 628 4666 
z
" transform="scale(0.015625)"/>
      <path id="DejaVuSans-48" d="M 628 4666 
L 1259 4666 
L 1259 2753 
L 3553 2753 
L 3553 4666 
L 4184 4666 
L 4184 0 
L 3553 0 
L 3553 2222 
L 1259 2222 
L 1259 0 
L 628 0 
L 628 4666 
z
" transform="scale(0.015625)"/>
      <path id="DejaVuSans-32" d="M 1228 531 
L 3431 531 
L 3431 0 
L 469 0 
L 469 531 
Q 828 903 1448 1529 
Q 2069 2156 2228 2338 
Q 2531 2678 2651 2914 
Q 2772 3150 2772 3378 
Q 2772 3750 2511 3984 
Q 2250 4219 1831 4219 
Q 1534 4219 1204 4116 
Q 875 4013 500 3803 
L 500 4441 
Q 881 4594 1212 4672 
Q 1544 4750 1819 4750 
Q 2544 4750 2975 4387 
Q 3406 4025 3406 3419 
Q 3406 3131 3298 2873 
Q 3191 2616 2906 2266 
Q 2828 2175 2409 1742 
Q 1991 1309 1228 531 
z
" transform="scale(0.015625)"/>
      <path id="DejaVuSans-30" d="M 2034 4250 
Q 1547 4250 1301 3770 
Q 1056 3291 1056 2328 
Q 1056 1369 1301 889 
Q 1547 409 2034 409 
Q 2525 409 2770 889 
Q 3016 1369 3016 2328 
Q 3016 3291 2770 3770 
Q 2525 4250 2034 4250 
z
M 2034 4750 
Q 2819 4750 3233 4129 
Q 3647 3509 3647 2328 
Q 3647 1150 3233 529 
Q 2819 -91 2034 -91 
Q 1250 -91 836 529 
Q 422 1150 422 2328 
Q 422 3509 836 4129 
Q 1250 4750 2034 4750 
z
" transform="scale(0.015625)"/>
     </defs>
     <use xlink:href="#DejaVuSans-54"/>
     <use xlink:href="#DejaVuSans-45" x="61.083984"/>
     <use xlink:href="#DejaVuSans-52" x="124.267578"/>
     <use xlink:href="#DejaVuSans-4d" x="193.75"/>
     <use xlink:href="#DejaVuSans-53" x="280.029297"/>
     <use xlink:href="#DejaVuSans-3a" x="343.505859"/>
     <use xlink:href="#DejaVuSans-20" x="377.197266"/>
     <use xlink:href="#DejaVuSans-38" x="408.984375"/>
     <use xlink:href="#DejaVuSans-2c" x="472.607422"/>
     <use xlink:href="#DejaVuSans-20" x="504.394531"/>
     <use xlink:href="#DejaVuSans-44" x="536.181641"/>
     <use xlink:href="#DejaVuSans-45" x="613.183594"/>
     <use xlink:href="#DejaVuSans-50" x="676.367188"/>
     <use xlink:href="#DejaVuSans-54" x="736.669922"/>
     <use xlink:href="#DejaVuSans-48" x="797.753906"/>
     <use xlink:href="#DejaVuSans-3a" x="872.949219"/>
     <use xlink:href="#DejaVuSans-32" x="906.640625"/>
     <use xlink:href="#DejaVuSans-30" x="970.263672"/>
    </g>
   </g>
   <g id="patch_2">
    <path d="M 270.018022 255.794312 
C 271.216611 255.794312 272.366271 255.318107 273.213802 254.470576 
C 274.061332 253.623046 274.537537 252.473386 274.537537 251.274797 
C 274.537537 250.076207 274.061332 248.926548 273.213802 248.079017 
C 272.366271 247.231486 271.216611 246.755282 270.018022 246.755282 
C 268.819433 246.755282 267.669773 247.231486 266.822242 248.079017 
C 265.974712 248.926548 265.498507 250.076207 265.498507 251.274797 
C 265.498507 252.473386 265.974712 253.623046 266.822242 254.470576 
C 267.669773 255.318107 268.819433 255.794312 270.018022 255.794312 
z
" clip-path="url(#pba8b7b9e1a)" style="stroke: #000000; stroke-width: 1.5; stroke-linejoin: miter"/>
   </g>
   <g id="patch_3">
    <path d="M 270.018022 400.88233 
C 272.814731 400.88233 275.49727 399.771186 277.474841 397.793614 
C 279.452413 395.816042 280.563557 393.133503 280.563557 390.336795 
C 280.563557 387.540086 279.452413 384.857547 277.474841 382.879976 
C 275.49727 380.902404 272.814731 379.79126 270.018022 379.79126 
C 267.221313 379.79126 264.538774 380.902404 262.561203 382.879976 
C 260.583631 384.857547 259.472487 387.540086 259.472487 390.336795 
C 259.472487 393.133503 260.583631 395.816042 262.561203 397.793614 
C 264.538774 399.771186 267.221313 400.88233 270.018022 400.88233 
z
" clip-path="url(#pba8b7b9e1a)" style="stroke: #000000; stroke-width: 2; stroke-linejoin: miter"/>
   </g>
   <g id="patch_4">
    <path d="M 270.018022 487.564309 
C 271.216611 487.564309 272.366271 487.088104 273.213802 486.240573 
C 274.061332 485.393043 274.537537 484.243383 274.537537 483.044794 
C 274.537537 481.846204 274.061332 480.696545 273.213802 479.849014 
C 272.366271 479.001483 271.216611 478.525279 270.018022 478.525279 
C 268.819433 478.525279 267.669773 479.001483 266.822242 479.849014 
C 265.974712 480.696545 265.498507 481.846204 265.498507 483.044794 
C 265.498507 484.243383 265.974712 485.393043 266.822242 486.240573 
C 267.669773 487.088104 268.819433 487.564309 270.018022 487.564309 
z
" clip-path="url(#pba8b7b9e1a)" style="stroke: #000000; stroke-width: 1.5; stroke-linejoin: miter"/>
   </g>
   <g id="patch_5">
    <path d="M 270.018022 539.944328 
C 272.814731 539.944328 275.49727 538.833184 277.474841 536.855612 
C 279.452413 534.878041 280.563557 532.195502 280.563557 529.398793 
C 280.563557 526.602084 279.452413 523.919545 277.474841 521.941974 
C 275.49727 519.964402 272.814731 518.853258 270.018022 518.853258 
C 267.221313 518.853258 264.538774 519.964402 262.561203 521.941974 
C 260.583631 523.919545 259.472487 526.602084 259.472487 529.398793 
C 259.472487 532.195502 260.583631 534.878041 262.561203 536.855612 
C 264.538774 538.833184 267.221313 539.944328 270.018022 539.944328 
z
" clip-path="url(#pba8b7b9e1a)" style="stroke: #000000; stroke-width: 2; stroke-linejoin: miter"/>
   </g>
   <g id="patch_6">
    <path d="M 301.306972 359.047845 
L 331.437071 359.047845 
L 331.437071 328.917746 
L 301.306972 328.917746 
z
" clip-path="url(#pba8b7b9e1a)" style="fill: #ffffff; stroke: #000000; stroke-width: 1.5; stroke-linejoin: miter"/>
   </g>
   <g id="patch_7">
    <path d="M 301.306972 405.401845 
L 331.437071 405.401845 
L 331.437071 375.271745 
L 301.306972 375.271745 
z
" clip-path="url(#pba8b7b9e1a)" style="fill: #ffffff; stroke: #000000; stroke-width: 1.5; stroke-linejoin: miter"/>
   </g>
   <g id="patch_8">
    <path d="M 316.372021 441.210309 
C 317.570611 441.210309 318.72027 440.734105 319.567801 439.886574 
C 320.415332 439.039043 320.891536 437.889384 320.891536 436.690794 
C 320.891536 435.492205 320.415332 434.342545 319.567801 433.495015 
C 318.72027 432.647484 317.570611 432.171279 316.372021 432.171279 
C 315.173432 432.171279 314.023772 432.647484 313.176242 433.495015 
C 312.328711 434.342545 311.852506 435.492205 311.852506 436.690794 
C 311.852506 437.889384 312.328711 439.039043 313.176242 439.886574 
C 314.023772 440.734105 315.173432 441.210309 316.372021 441.210309 
z
" clip-path="url(#pba8b7b9e1a)" style="stroke: #000000; stroke-width: 1.5; stroke-linejoin: miter"/>
   </g>
   <g id="patch_9">
    <path d="M 316.372021 539.944328 
C 319.16873 539.944328 321.851269 538.833184 323.828841 536.855612 
C 325.806412 534.878041 326.917556 532.195502 326.917556 529.398793 
C 326.917556 526.602084 325.806412 523.919545 323.828841 521.941974 
C 321.851269 519.964402 319.16873 518.853258 316.372021 518.853258 
C 313.575313 518.853258 310.892774 519.964402 308.915202 521.941974 
C 306.937631 523.919545 305.826487 526.602084 305.826487 529.398793 
C 305.826487 532.195502 306.937631 534.878041 308.915202 536.855612 
C 310.892774 538.833184 313.575313 539.944328 316.372021 539.944328 
z
" clip-path="url(#pba8b7b9e1a)" style="stroke: #000000; stroke-width: 2; stroke-linejoin: miter"/>
   </g>
   <g id="patch_10">
    <path d="M 347.660971 359.047845 
L 377.791071 359.047845 
L 377.791071 328.917746 
L 347.660971 328.917746 
z
" clip-path="url(#pba8b7b9e1a)" style="fill: #ffffff; stroke: #000000; stroke-width: 1.5; stroke-linejoin: miter"/>
   </g>
   <g id="patch_11">
    <path d="M 409.08002 255.794312 
C 410.27861 255.794312 411.428269 255.318107 412.2758 254.470576 
C 413.123331 253.623046 413.599535 252.473386 413.599535 251.274797 
C 413.599535 250.076207 413.123331 248.926548 412.2758 248.079017 
C 411.428269 247.231486 410.27861 246.755282 409.08002 246.755282 
C 407.881431 246.755282 406.731771 247.231486 405.884241 248.079017 
C 405.03671 248.926548 404.560505 250.076207 404.560505 251.274797 
C 404.560505 252.473386 405.03671 253.623046 405.884241 254.470576 
C 406.731771 255.318107 407.881431 255.794312 409.08002 255.794312 
z
" clip-path="url(#pba8b7b9e1a)" style="stroke: #000000; stroke-width: 1.5; stroke-linejoin: miter"/>
   </g>
   <g id="patch_12">
    <path d="M 409.08002 400.88233 
C 411.876729 400.88233 414.559268 399.771186 416.536839 397.793614 
C 418.514411 395.816042 419.625555 393.133503 419.625555 390.336795 
C 419.625555 387.540086 418.514411 384.857547 416.536839 382.879976 
C 414.559268 380.902404 411.876729 379.79126 409.08002 379.79126 
C 406.283312 379.79126 403.600773 380.902404 401.623201 382.879976 
C 399.645629 384.857547 398.534485 387.540086 398.534485 390.336795 
C 398.534485 393.133503 399.645629 395.816042 401.623201 397.793614 
C 403.600773 399.771186 406.283312 400.88233 409.08002 400.88233 
z
" clip-path="url(#pba8b7b9e1a)" style="stroke: #000000; stroke-width: 2; stroke-linejoin: miter"/>
   </g>
   <g id="patch_13">
    <path d="M 455.43402 348.50231 
C 456.632609 348.50231 457.782269 348.026106 458.629799 347.178575 
C 459.47733 346.331044 459.953534 345.181385 459.953534 343.982795 
C 459.953534 342.784206 459.47733 341.634546 458.629799 340.787016 
C 457.782269 339.939485 456.632609 339.46328 455.43402 339.46328 
C 454.23543 339.46328 453.085771 339.939485 452.23824 340.787016 
C 451.390709 341.634546 450.914505 342.784206 450.914505 343.982795 
C 450.914505 345.181385 451.390709 346.331044 452.23824 347.178575 
C 453.085771 348.026106 454.23543 348.50231 455.43402 348.50231 
z
" clip-path="url(#pba8b7b9e1a)" style="stroke: #000000; stroke-width: 1.5; stroke-linejoin: miter"/>
   </g>
   <g id="patch_14">
    <path d="M 455.43402 539.944328 
C 458.230728 539.944328 460.913267 538.833184 462.890839 536.855612 
C 464.86841 534.878041 465.979554 532.195502 465.979554 529.398793 
C 465.979554 526.602084 464.86841 523.919545 462.890839 521.941974 
C 460.913267 519.964402 458.230728 518.853258 455.43402 518.853258 
C 452.637311 518.853258 449.954772 519.964402 447.9772 521.941974 
C 445.999629 523.919545 444.888485 526.602084 444.888485 529.398793 
C 444.888485 532.195502 445.999629 534.878041 447.9772 536.855612 
C 449.954772 538.833184 452.637311 539.944328 455.43402 539.944328 
z
" clip-path="url(#pba8b7b9e1a)" style="stroke: #000000; stroke-width: 2; stroke-linejoin: miter"/>
   </g>
   <g id="patch_15">
    <path d="M 483.19543 544.463843 
L 520.380608 544.463843 
L 520.380608 514.333743 
L 483.19543 514.333743 
z
" clip-path="url(#pba8b7b9e1a)" style="fill: #ffffff; stroke: #000000; stroke-width: 1.5; stroke-linejoin: miter"/>
   </g>
   <g id="patch_16">
    <path d="M 485.802842 405.401845 
L 517.773196 405.401845 
L 517.773196 375.271745 
L 485.802842 375.271745 
z
" clip-path="url(#pba8b7b9e1a)" style="fill: #ffffff; stroke: #000000; stroke-width: 1.5; stroke-linejoin: miter"/>
   </g>
   <g id="patch_17">
    <path d="M 548.142018 348.50231 
C 549.340608 348.50231 550.490267 348.026106 551.337798 347.178575 
C 552.185329 346.331044 552.661533 345.181385 552.661533 343.982795 
C 552.661533 342.784206 552.185329 341.634546 551.337798 340.787016 
C 550.490267 339.939485 549.340608 339.46328 548.142018 339.46328 
C 546.943429 339.46328 545.793769 339.939485 544.946239 340.787016 
C 544.098708 341.634546 543.622503 342.784206 543.622503 343.982795 
C 543.622503 345.181385 544.098708 346.331044 544.946239 347.178575 
C 545.793769 348.026106 546.943429 348.50231 548.142018 348.50231 
z
" clip-path="url(#pba8b7b9e1a)" style="stroke: #000000; stroke-width: 1.5; stroke-linejoin: miter"/>
   </g>
   <g id="patch_18">
    <path d="M 548.142018 539.944328 
C 550.938727 539.944328 553.621266 538.833184 555.598838 536.855612 
C 557.576409 534.878041 558.687553 532.195502 558.687553 529.398793 
C 558.687553 526.602084 557.576409 523.919545 555.598838 521.941974 
C 553.621266 519.964402 550.938727 518.853258 548.142018 518.853258 
C 545.34531 518.853258 542.662771 519.964402 540.685199 521.941974 
C 538.707628 523.919545 537.596483 526.602084 537.596483 529.398793 
C 537.596483 532.195502 538.707628 534.878041 540.685199 536.855612 
C 542.662771 538.833184 545.34531 539.944328 548.142018 539.944328 
z
" clip-path="url(#pba8b7b9e1a)" style="stroke: #000000; stroke-width: 2; stroke-linejoin: miter"/>
   </g>
   <g id="patch_19">
    <path d="M 579.430968 359.047845 
L 609.561068 359.047845 
L 609.561068 328.917746 
L 579.430968 328.917746 
z
" clip-path="url(#pba8b7b9e1a)" style="fill: #ffffff; stroke: #000000; stroke-width: 1.5; stroke-linejoin: miter"/>
   </g>
   <g id="patch_20">
    <path d="M 594.496018 441.210309 
C 595.694607 441.210309 596.844267 440.734105 597.691797 439.886574 
C 598.539328 439.039043 599.015533 437.889384 599.015533 436.690794 
C 599.015533 435.492205 598.539328 434.342545 597.691797 433.495015 
C 596.844267 432.647484 595.694607 432.171279 594.496018 432.171279 
C 593.297428 432.171279 592.147769 432.647484 591.300238 433.495015 
C 590.452707 434.342545 589.976503 435.492205 589.976503 436.690794 
C 589.976503 437.889384 590.452707 439.039043 591.300238 439.886574 
C 592.147769 440.734105 593.297428 441.210309 594.496018 441.210309 
z
" clip-path="url(#pba8b7b9e1a)" style="stroke: #000000; stroke-width: 1.5; stroke-linejoin: miter"/>
   </g>
   <g id="patch_21">
    <path d="M 594.496018 539.944328 
C 597.292726 539.944328 599.975265 538.833184 601.952837 536.855612 
C 603.930408 534.878041 605.041553 532.195502 605.041553 529.398793 
C 605.041553 526.602084 603.930408 523.919545 601.952837 521.941974 
C 599.975265 519.964402 597.292726 518.853258 594.496018 518.853258 
C 591.699309 518.853258 589.01677 519.964402 587.039198 521.941974 
C 585.061627 523.919545 583.950483 526.602084 583.950483 529.398793 
C 583.950483 532.195502 585.061627 534.878041 587.039198 536.855612 
C 589.01677 538.833184 591.699309 539.944328 594.496018 539.944328 
z
" clip-path="url(#pba8b7b9e1a)" style="stroke: #000000; stroke-width: 2; stroke-linejoin: miter"/>
   </g>
   <g id="patch_22">
    <path d="M 625.784967 359.047845 
L 655.915067 359.047845 
L 655.915067 328.917746 
L 625.784967 328.917746 
z
" clip-path="url(#pba8b7b9e1a)" style="fill: #ffffff; stroke: #000000; stroke-width: 1.5; stroke-linejoin: miter"/>
   </g>
   <g id="patch_23">
    <path d="M 640.850017 487.564309 
C 642.048606 487.564309 643.198266 487.088104 644.045797 486.240573 
C 644.893327 485.393043 645.369532 484.243383 645.369532 483.044794 
C 645.369532 481.846204 644.893327 480.696545 644.045797 479.849014 
C 643.198266 479.001483 642.048606 478.525279 640.850017 478.525279 
C 639.651428 478.525279 638.501768 479.001483 637.654237 479.849014 
C 636.806707 480.696545 636.330502 481.846204 636.330502 483.044794 
C 636.330502 484.243383 636.806707 485.393043 637.654237 486.240573 
C 638.501768 487.088104 639.651428 487.564309 640.850017 487.564309 
z
" clip-path="url(#pba8b7b9e1a)" style="stroke: #000000; stroke-width: 1.5; stroke-linejoin: miter"/>
   </g>
   <g id="patch_24">
    <path d="M 640.850017 539.944328 
C 643.646726 539.944328 646.329265 538.833184 648.306836 536.855612 
C 650.284408 534.878041 651.395552 532.195502 651.395552 529.398793 
C 651.395552 526.602084 650.284408 523.919545 648.306836 521.941974 
C 646.329265 519.964402 643.646726 518.853258 640.850017 518.853258 
C 638.053309 518.853258 635.370769 519.964402 633.393198 521.941974 
C 631.415626 523.919545 630.304482 526.602084 630.304482 529.398793 
C 630.304482 532.195502 631.415626 534.878041 633.393198 536.855612 
C 635.370769 538.833184 638.053309 539.944328 640.850017 539.944328 
z
" clip-path="url(#pba8b7b9e1a)" style="stroke: #000000; stroke-width: 2; stroke-linejoin: miter"/>
   </g>
   <g id="patch_25">
    <path d="M 687.204016 302.148311 
C 688.402606 302.148311 689.552265 301.672106 690.399796 300.824576 
C 691.247327 299.977045 691.723531 298.827385 691.723531 297.628796 
C 691.723531 296.430207 691.247327 295.280547 690.399796 294.433016 
C 689.552265 293.585486 688.402606 293.109281 687.204016 293.109281 
C 686.005427 293.109281 684.855767 293.585486 684.008237 294.433016 
C 683.160706 295.280547 682.684502 296.430207 682.684502 297.628796 
C 682.684502 298.827385 683.160706 299.977045 684.008237 300.824576 
C 684.855767 301.672106 686.005427 302.148311 687.204016 302.148311 
z
" clip-path="url(#pba8b7b9e1a)" style="stroke: #000000; stroke-width: 1.5; stroke-linejoin: miter"/>
   </g>
   <g id="patch_26">
    <path d="M 687.204016 447.236329 
C 690.000725 447.236329 692.683264 446.125185 694.660836 444.147613 
C 696.638407 442.170042 697.749551 439.487503 697.749551 436.690794 
C 697.749551 433.894086 696.638407 431.211547 694.660836 429.233975 
C 692.683264 427.256403 690.000725 426.145259 687.204016 426.145259 
C 684.407308 426.145259 681.724769 427.256403 679.747197 429.233975 
C 677.769626 431.211547 676.658482 433.894086 676.658482 436.690794 
C 676.658482 439.487503 677.769626 442.170042 679.747197 444.147613 
C 681.724769 446.125185 684.407308 447.236329 687.204016 447.236329 
z
" clip-path="url(#pba8b7b9e1a)" style="stroke: #000000; stroke-width: 2; stroke-linejoin: miter"/>
   </g>
   <g id="patch_27">
    <path d="M 733.558016 348.50231 
C 734.756605 348.50231 735.906265 348.026106 736.753796 347.178575 
C 737.601326 346.331044 738.077531 345.181385 738.077531 343.982795 
C 738.077531 342.784206 737.601326 341.634546 736.753796 340.787016 
C 735.906265 339.939485 734.756605 339.46328 733.558016 339.46328 
C 732.359426 339.46328 731.209767 339.939485 730.362236 340.787016 
C 729.514706 341.634546 729.038501 342.784206 729.038501 343.982795 
C 729.038501 345.181385 729.514706 346.331044 730.362236 347.178575 
C 731.209767 348.026106 732.359426 348.50231 733.558016 348.50231 
z
" clip-path="url(#pba8b7b9e1a)" style="stroke: #000000; stroke-width: 1.5; stroke-linejoin: miter"/>
   </g>
   <g id="patch_28">
    <path d="M 733.558016 215.466332 
C 736.354724 215.466332 739.037263 214.355188 741.014835 212.377616 
C 742.992407 210.400045 744.103551 207.717506 744.103551 204.920797 
C 744.103551 202.124089 742.992407 199.44155 741.014835 197.463978 
C 739.037263 195.486406 736.354724 194.375262 733.558016 194.375262 
C 730.761307 194.375262 728.078768 195.486406 726.101197 197.463978 
C 724.123625 199.44155 723.012481 202.124089 723.012481 204.920797 
C 723.012481 207.717506 724.123625 210.400045 726.101197 212.377616 
C 728.078768 214.355188 730.761307 215.466332 733.558016 215.466332 
z
" clip-path="url(#pba8b7b9e1a)" style="stroke: #000000; stroke-width: 2; stroke-linejoin: miter"/>
   </g>
   <g id="patch_29">
    <path d="M 718.492966 451.755844 
L 748.623066 451.755844 
L 748.623066 421.625744 
L 718.492966 421.625744 
z
" clip-path="url(#pba8b7b9e1a)" style="fill: #ffffff; stroke: #000000; stroke-width: 1.5; stroke-linejoin: miter"/>
   </g>
   <g id="patch_30">
    <path d="M 764.846965 219.985847 
L 794.977065 219.985847 
L 794.977065 189.855747 
L 764.846965 189.855747 
z
" clip-path="url(#pba8b7b9e1a)" style="fill: #ffffff; stroke: #000000; stroke-width: 1.5; stroke-linejoin: miter"/>
   </g>
   <g id="patch_31">
    <path d="M 779.912015 302.148311 
C 781.110605 302.148311 782.260264 301.672106 783.107795 300.824576 
C 783.955326 299.977045 784.43153 298.827385 784.43153 297.628796 
C 784.43153 296.430207 783.955326 295.280547 783.107795 294.433016 
C 782.260264 293.585486 781.110605 293.109281 779.912015 293.109281 
C 778.713426 293.109281 777.563766 293.585486 776.716236 294.433016 
C 775.868705 295.280547 775.3925 296.430207 775.3925 297.628796 
C 775.3925 298.827385 775.868705 299.977045 776.716236 300.824576 
C 777.563766 301.672106 778.713426 302.148311 779.912015 302.148311 
z
" clip-path="url(#pba8b7b9e1a)" style="stroke: #000000; stroke-width: 1.5; stroke-linejoin: miter"/>
   </g>
   <g id="patch_32">
    <path d="M 779.912015 447.236329 
C 782.708724 447.236329 785.391263 446.125185 787.368834 444.147613 
C 789.346406 442.170042 790.45755 439.487503 790.45755 436.690794 
C 790.45755 433.894086 789.346406 431.211547 787.368834 429.233975 
C 785.391263 427.256403 782.708724 426.145259 779.912015 426.145259 
C 777.115307 426.145259 774.432768 427.256403 772.455196 429.233975 
C 770.477624 431.211547 769.36648 433.894086 769.36648 436.690794 
C 769.36648 439.487503 770.477624 442.170042 772.455196 444.147613 
C 774.432768 446.125185 777.115307 447.236329 779.912015 447.236329 
z
" clip-path="url(#pba8b7b9e1a)" style="stroke: #000000; stroke-width: 2; stroke-linejoin: miter"/>
   </g>
   <g id="patch_33">
    <path d="M 826.266015 348.50231 
C 827.464604 348.50231 828.614264 348.026106 829.461794 347.178575 
C 830.309325 346.331044 830.78553 345.181385 830.78553 343.982795 
C 830.78553 342.784206 830.309325 341.634546 829.461794 340.787016 
C 828.614264 339.939485 827.464604 339.46328 826.266015 339.46328 
C 825.067425 339.46328 823.917766 339.939485 823.070235 340.787016 
C 822.222704 341.634546 821.7465 342.784206 821.7465 343.982795 
C 821.7465 345.181385 822.222704 346.331044 823.070235 347.178575 
C 823.917766 348.026106 825.067425 348.50231 826.266015 348.50231 
z
" clip-path="url(#pba8b7b9e1a)" style="stroke: #000000; stroke-width: 1.5; stroke-linejoin: miter"/>
   </g>
   <g id="patch_34">
    <path d="M 826.266015 215.466332 
C 829.062723 215.466332 831.745262 214.355188 833.722834 212.377616 
C 835.700405 210.400045 836.811549 207.717506 836.811549 204.920797 
C 836.811549 202.124089 835.700405 199.44155 833.722834 197.463978 
C 831.745262 195.486406 829.062723 194.375262 826.266015 194.375262 
C 823.469306 194.375262 820.786767 195.486406 818.809195 197.463978 
C 816.831624 199.44155 815.72048 202.124089 815.72048 204.920797 
C 815.72048 207.717506 816.831624 210.400045 818.809195 212.377616 
C 820.786767 214.355188 823.469306 215.466332 826.266015 215.466332 
z
" clip-path="url(#pba8b7b9e1a)" style="stroke: #000000; stroke-width: 2; stroke-linejoin: miter"/>
   </g>
   <g id="patch_35">
    <path d="M 826.266015 441.210309 
C 827.464604 441.210309 828.614264 440.734105 829.461794 439.886574 
C 830.309325 439.039043 830.78553 437.889384 830.78553 436.690794 
C 830.78553 435.492205 830.309325 434.342545 829.461794 433.495015 
C 828.614264 432.647484 827.464604 432.171279 826.266015 432.171279 
C 825.067425 432.171279 823.917766 432.647484 823.070235 433.495015 
C 822.222704 434.342545 821.7465 435.492205 821.7465 436.690794 
C 821.7465 437.889384 822.222704 439.039043 823.070235 439.886574 
C 823.917766 440.734105 825.067425 441.210309 826.266015 441.210309 
z
" clip-path="url(#pba8b7b9e1a)" style="stroke: #000000; stroke-width: 1.5; stroke-linejoin: miter"/>
   </g>
   <g id="patch_36">
    <path d="M 826.266015 539.944328 
C 829.062723 539.944328 831.745262 538.833184 833.722834 536.855612 
C 835.700405 534.878041 836.811549 532.195502 836.811549 529.398793 
C 836.811549 526.602084 835.700405 523.919545 833.722834 521.941974 
C 831.745262 519.964402 829.062723 518.853258 826.266015 518.853258 
C 823.469306 518.853258 820.786767 519.964402 818.809195 521.941974 
C 816.831624 523.919545 815.72048 526.602084 815.72048 529.398793 
C 815.72048 532.195502 816.831624 534.878041 818.809195 536.855612 
C 820.786767 538.833184 823.469306 539.944328 826.266015 539.944328 
z
" clip-path="url(#pba8b7b9e1a)" style="stroke: #000000; stroke-width: 2; stroke-linejoin: miter"/>
   </g>
   <g id="patch_37">
    <path d="M 872.620014 394.85631 
C 873.818603 394.85631 874.968263 394.380105 875.815794 393.532574 
C 876.663324 392.685044 877.139529 391.535384 877.139529 390.336795 
C 877.139529 389.138205 876.663324 387.988546 875.815794 387.141015 
C 874.968263 386.293484 873.818603 385.81728 872.620014 385.81728 
C 871.421425 385.81728 870.271765 386.293484 869.424234 387.141015 
C 868.576704 387.988546 868.100499 389.138205 868.100499 390.336795 
C 868.100499 391.535384 868.576704 392.685044 869.424234 393.532574 
C 870.271765 394.380105 871.421425 394.85631 872.620014 394.85631 
z
" clip-path="url(#pba8b7b9e1a)" style="stroke: #000000; stroke-width: 1.5; stroke-linejoin: miter"/>
   </g>
   <g id="patch_38">
    <path d="M 872.620014 539.944328 
C 875.416723 539.944328 878.099262 538.833184 880.076833 536.855612 
C 882.054405 534.878041 883.165549 532.195502 883.165549 529.398793 
C 883.165549 526.602084 882.054405 523.919545 880.076833 521.941974 
C 878.099262 519.964402 875.416723 518.853258 872.620014 518.853258 
C 869.823305 518.853258 867.140766 519.964402 865.163195 521.941974 
C 863.185623 523.919545 862.074479 526.602084 862.074479 529.398793 
C 862.074479 532.195502 863.185623 534.878041 865.163195 536.855612 
C 867.140766 538.833184 869.823305 539.944328 872.620014 539.944328 
z
" clip-path="url(#pba8b7b9e1a)" style="stroke: #000000; stroke-width: 2; stroke-linejoin: miter"/>
   </g>
   <g id="patch_39">
    <path d="M 857.554964 359.047845 
L 887.685064 359.047845 
L 887.685064 328.917746 
L 857.554964 328.917746 
z
" clip-path="url(#pba8b7b9e1a)" style="fill: #ffffff; stroke: #000000; stroke-width: 1.5; stroke-linejoin: miter"/>
   </g>
   <g id="patch_40">
    <path d="M 903.908964 359.047845 
L 934.039063 359.047845 
L 934.039063 328.917746 
L 903.908964 328.917746 
z
" clip-path="url(#pba8b7b9e1a)" style="fill: #ffffff; stroke: #000000; stroke-width: 1.5; stroke-linejoin: miter"/>
   </g>
   <g id="patch_41">
    <path d="M 965.328013 348.50231 
C 966.526602 348.50231 967.676262 348.026106 968.523792 347.178575 
C 969.371323 346.331044 969.847528 345.181385 969.847528 343.982795 
C 969.847528 342.784206 969.371323 341.634546 968.523792 340.787016 
C 967.676262 339.939485 966.526602 339.46328 965.328013 339.46328 
C 964.129423 339.46328 962.979764 339.939485 962.132233 340.787016 
C 961.284702 341.634546 960.808498 342.784206 960.808498 343.982795 
C 960.808498 345.181385 961.284702 346.331044 962.132233 347.178575 
C 962.979764 348.026106 964.129423 348.50231 965.328013 348.50231 
z
" clip-path="url(#pba8b7b9e1a)" style="stroke: #000000; stroke-width: 1.5; stroke-linejoin: miter"/>
   </g>
   <g id="patch_42">
    <path d="M 965.328013 539.944328 
C 968.124721 539.944328 970.80726 538.833184 972.784832 536.855612 
C 974.762404 534.878041 975.873548 532.195502 975.873548 529.398793 
C 975.873548 526.602084 974.762404 523.919545 972.784832 521.941974 
C 970.80726 519.964402 968.124721 518.853258 965.328013 518.853258 
C 962.531304 518.853258 959.848765 519.964402 957.871194 521.941974 
C 955.893622 523.919545 954.782478 526.602084 954.782478 529.398793 
C 954.782478 532.195502 955.893622 534.878041 957.871194 536.855612 
C 959.848765 538.833184 962.531304 539.944328 965.328013 539.944328 
z
" clip-path="url(#pba8b7b9e1a)" style="stroke: #000000; stroke-width: 2; stroke-linejoin: miter"/>
   </g>
   <g id="patch_43">
    <path d="M 1011.682012 163.086313 
C 1012.880602 163.086313 1014.030261 162.610108 1014.877792 161.762578 
C 1015.725322 160.915047 1016.201527 159.765387 1016.201527 158.566798 
C 1016.201527 157.368209 1015.725322 156.218549 1014.877792 155.371018 
C 1014.030261 154.523488 1012.880602 154.047283 1011.682012 154.047283 
C 1010.483423 154.047283 1009.333763 154.523488 1008.486232 155.371018 
C 1007.638702 156.218549 1007.162497 157.368209 1007.162497 158.566798 
C 1007.162497 159.765387 1007.638702 160.915047 1008.486232 161.762578 
C 1009.333763 162.610108 1010.483423 163.086313 1011.682012 163.086313 
z
" clip-path="url(#pba8b7b9e1a)" style="stroke: #000000; stroke-width: 1.5; stroke-linejoin: miter"/>
   </g>
   <g id="patch_44">
    <path d="M 1011.682012 539.944328 
C 1014.478721 539.944328 1017.16126 538.833184 1019.138831 536.855612 
C 1021.116403 534.878041 1022.227547 532.195502 1022.227547 529.398793 
C 1022.227547 526.602084 1021.116403 523.919545 1019.138831 521.941974 
C 1017.16126 519.964402 1014.478721 518.853258 1011.682012 518.853258 
C 1008.885304 518.853258 1006.202765 519.964402 1004.225193 521.941974 
C 1002.247621 523.919545 1001.136477 526.602084 1001.136477 529.398793 
C 1001.136477 532.195502 1002.247621 534.878041 1004.225193 536.855612 
C 1006.202765 538.833184 1008.885304 539.944328 1011.682012 539.944328 
z
" clip-path="url(#pba8b7b9e1a)" style="stroke: #000000; stroke-width: 2; stroke-linejoin: miter"/>
   </g>
   <g id="patch_45">
    <path d="M 1040.358914 544.463843 
L 1075.713109 544.463843 
L 1075.713109 514.333743 
L 1040.358914 514.333743 
z
" clip-path="url(#pba8b7b9e1a)" style="fill: #ffffff; stroke: #000000; stroke-width: 1.5; stroke-linejoin: miter"/>
   </g>
   <g id="patch_46">
    <path d="M 1104.390011 163.086313 
C 1105.5886 163.086313 1106.73826 162.610108 1107.585791 161.762578 
C 1108.433321 160.915047 1108.909526 159.765387 1108.909526 158.566798 
C 1108.909526 157.368209 1108.433321 156.218549 1107.585791 155.371018 
C 1106.73826 154.523488 1105.5886 154.047283 1104.390011 154.047283 
C 1103.191422 154.047283 1102.041762 154.523488 1101.194231 155.371018 
C 1100.346701 156.218549 1099.870496 157.368209 1099.870496 158.566798 
C 1099.870496 159.765387 1100.346701 160.915047 1101.194231 161.762578 
C 1102.041762 162.610108 1103.191422 163.086313 1104.390011 163.086313 
z
" clip-path="url(#pba8b7b9e1a)" style="stroke: #000000; stroke-width: 1.5; stroke-linejoin: miter"/>
   </g>
   <g id="patch_47">
    <path d="M 1104.390011 539.944328 
C 1107.186719 539.944328 1109.869259 538.833184 1111.84683 536.855612 
C 1113.824402 534.878041 1114.935546 532.195502 1114.935546 529.398793 
C 1114.935546 526.602084 1113.824402 523.919545 1111.84683 521.941974 
C 1109.869259 519.964402 1107.186719 518.853258 1104.390011 518.853258 
C 1101.593302 518.853258 1098.910763 519.964402 1096.933192 521.941974 
C 1094.95562 523.919545 1093.844476 526.602084 1093.844476 529.398793 
C 1093.844476 532.195502 1094.95562 534.878041 1096.933192 536.855612 
C 1098.910763 538.833184 1101.593302 539.944328 1104.390011 539.944328 
z
" clip-path="url(#pba8b7b9e1a)" style="stroke: #000000; stroke-width: 2; stroke-linejoin: miter"/>
   </g>
   <g id="patch_48">
    <path d="M 1150.74401 348.50231 
C 1151.9426 348.50231 1153.092259 348.026106 1153.93979 347.178575 
C 1154.787321 346.331044 1155.263525 345.181385 1155.263525 343.982795 
C 1155.263525 342.784206 1154.787321 341.634546 1153.93979 340.787016 
C 1153.092259 339.939485 1151.9426 339.46328 1150.74401 339.46328 
C 1149.545421 339.46328 1148.395761 339.939485 1147.548231 340.787016 
C 1146.7007 341.634546 1146.224495 342.784206 1146.224495 343.982795 
C 1146.224495 345.181385 1146.7007 346.331044 1147.548231 347.178575 
C 1148.395761 348.026106 1149.545421 348.50231 1150.74401 348.50231 
z
" clip-path="url(#pba8b7b9e1a)" style="stroke: #000000; stroke-width: 1.5; stroke-linejoin: miter"/>
   </g>
   <g id="patch_49">
    <path d="M 1150.74401 539.944328 
C 1153.540719 539.944328 1156.223258 538.833184 1158.20083 536.855612 
C 1160.178401 534.878041 1161.289545 532.195502 1161.289545 529.398793 
C 1161.289545 526.602084 1160.178401 523.919545 1158.20083 521.941974 
C 1156.223258 519.964402 1153.540719 518.853258 1150.74401 518.853258 
C 1147.947302 518.853258 1145.264763 519.964402 1143.287191 521.941974 
C 1141.30962 523.919545 1140.198475 526.602084 1140.198475 529.398793 
C 1140.198475 532.195502 1141.30962 534.878041 1143.287191 536.855612 
C 1145.264763 538.833184 1147.947302 539.944328 1150.74401 539.944328 
z
" clip-path="url(#pba8b7b9e1a)" style="stroke: #000000; stroke-width: 2; stroke-linejoin: miter"/>
   </g>
   <g id="patch_50">
    <path d="M 1182.03296 359.047845 
L 1212.163059 359.047845 
L 1212.163059 328.917746 
L 1182.03296 328.917746 
z
" clip-path="url(#pba8b7b9e1a)" style="fill: #ffffff; stroke: #000000; stroke-width: 1.5; stroke-linejoin: miter"/>
   </g>
   <g id="patch_51">
    <path d="M 1197.09801 394.85631 
C 1198.296599 394.85631 1199.446259 394.380105 1200.293789 393.532574 
C 1201.14132 392.685044 1201.617525 391.535384 1201.617525 390.336795 
C 1201.617525 389.138205 1201.14132 387.988546 1200.293789 387.141015 
C 1199.446259 386.293484 1198.296599 385.81728 1197.09801 385.81728 
C 1195.89942 385.81728 1194.749761 386.293484 1193.90223 387.141015 
C 1193.054699 387.988546 1192.578495 389.138205 1192.578495 390.336795 
C 1192.578495 391.535384 1193.054699 392.685044 1193.90223 393.532574 
C 1194.749761 394.380105 1195.89942 394.85631 1197.09801 394.85631 
z
" clip-path="url(#pba8b7b9e1a)" style="stroke: #000000; stroke-width: 1.5; stroke-linejoin: miter"/>
   </g>
   <g id="patch_52">
    <path d="M 1197.09801 539.944328 
C 1199.894718 539.944328 1202.577257 538.833184 1204.554829 536.855612 
C 1206.5324 534.878041 1207.643545 532.195502 1207.643545 529.398793 
C 1207.643545 526.602084 1206.5324 523.919545 1204.554829 521.941974 
C 1202.577257 519.964402 1199.894718 518.853258 1197.09801 518.853258 
C 1194.301301 518.853258 1191.618762 519.964402 1189.64119 521.941974 
C 1187.663619 523.919545 1186.552475 526.602084 1186.552475 529.398793 
C 1186.552475 532.195502 1187.663619 534.878041 1189.64119 536.855612 
C 1191.618762 538.833184 1194.301301 539.944328 1197.09801 539.944328 
z
" clip-path="url(#pba8b7b9e1a)" style="stroke: #000000; stroke-width: 2; stroke-linejoin: miter"/>
   </g>
   <g id="patch_53">
    <path d="M 1228.386959 359.047845 
L 1258.517059 359.047845 
L 1258.517059 328.917746 
L 1228.386959 328.917746 
z
" clip-path="url(#pba8b7b9e1a)" style="fill: #ffffff; stroke: #000000; stroke-width: 1.5; stroke-linejoin: miter"/>
   </g>
   <g id="patch_54">
    <path d="M 1243.452009 441.210309 
C 1244.650598 441.210309 1245.800258 440.734105 1246.647789 439.886574 
C 1247.495319 439.039043 1247.971524 437.889384 1247.971524 436.690794 
C 1247.971524 435.492205 1247.495319 434.342545 1246.647789 433.495015 
C 1245.800258 432.647484 1244.650598 432.171279 1243.452009 432.171279 
C 1242.25342 432.171279 1241.10376 432.647484 1240.256229 433.495015 
C 1239.408699 434.342545 1238.932494 435.492205 1238.932494 436.690794 
C 1238.932494 437.889384 1239.408699 439.039043 1240.256229 439.886574 
C 1241.10376 440.734105 1242.25342 441.210309 1243.452009 441.210309 
z
" clip-path="url(#pba8b7b9e1a)" style="stroke: #000000; stroke-width: 1.5; stroke-linejoin: miter"/>
   </g>
   <g id="patch_55">
    <path d="M 1243.452009 539.944328 
C 1246.248718 539.944328 1248.931257 538.833184 1250.908828 536.855612 
C 1252.8864 534.878041 1253.997544 532.195502 1253.997544 529.398793 
C 1253.997544 526.602084 1252.8864 523.919545 1250.908828 521.941974 
C 1248.931257 519.964402 1246.248718 518.853258 1243.452009 518.853258 
C 1240.655301 518.853258 1237.972761 519.964402 1235.99519 521.941974 
C 1234.017618 523.919545 1232.906474 526.602084 1232.906474 529.398793 
C 1232.906474 532.195502 1234.017618 534.878041 1235.99519 536.855612 
C 1237.972761 538.833184 1240.655301 539.944328 1243.452009 539.944328 
z
" clip-path="url(#pba8b7b9e1a)" style="stroke: #000000; stroke-width: 2; stroke-linejoin: miter"/>
   </g>
   <g id="patch_56">
    <path d="M 1289.806008 487.564309 
C 1291.004598 487.564309 1292.154257 487.088104 1293.001788 486.240573 
C 1293.849319 485.393043 1294.325523 484.243383 1294.325523 483.044794 
C 1294.325523 481.846204 1293.849319 480.696545 1293.001788 479.849014 
C 1292.154257 479.001483 1291.004598 478.525279 1289.806008 478.525279 
C 1288.607419 478.525279 1287.457759 479.001483 1286.610229 479.849014 
C 1285.762698 480.696545 1285.286494 481.846204 1285.286494 483.044794 
C 1285.286494 484.243383 1285.762698 485.393043 1286.610229 486.240573 
C 1287.457759 487.088104 1288.607419 487.564309 1289.806008 487.564309 
z
" clip-path="url(#pba8b7b9e1a)" style="stroke: #000000; stroke-width: 1.5; stroke-linejoin: miter"/>
   </g>
   <g id="patch_57">
    <path d="M 1289.806008 539.944328 
C 1292.602717 539.944328 1295.285256 538.833184 1297.262828 536.855612 
C 1299.240399 534.878041 1300.351543 532.195502 1300.351543 529.398793 
C 1300.351543 526.602084 1299.240399 523.919545 1297.262828 521.941974 
C 1295.285256 519.964402 1292.602717 518.853258 1289.806008 518.853258 
C 1287.0093 518.853258 1284.326761 519.964402 1282.349189 521.941974 
C 1280.371618 523.919545 1279.260474 526.602084 1279.260474 529.398793 
C 1279.260474 532.195502 1280.371618 534.878041 1282.349189 536.855612 
C 1284.326761 538.833184 1287.0093 539.944328 1289.806008 539.944328 
z
" clip-path="url(#pba8b7b9e1a)" style="stroke: #000000; stroke-width: 2; stroke-linejoin: miter"/>
   </g>
   <g id="text_2">
    <g clip-path="url(#pba8b7b9e1a)">
     <!-- ${q}_{0}$ -->
     <g transform="translate(217.678562 116.663775)scale(0.1625 -0.1625)">
      <defs>
       <path id="DejaVuSans-Oblique-71" d="M 2669 525 
Q 2438 222 2123 65 
Q 1809 -91 1428 -91 
Q 897 -91 595 267 
Q 294 625 294 1253 
Q 294 1759 480 2231 
Q 666 2703 1013 3078 
Q 1238 3322 1530 3453 
Q 1822 3584 2144 3584 
Q 2531 3584 2781 3431 
Q 3031 3278 3144 2969 
L 3244 3494 
L 3822 3494 
L 2888 -1319 
L 2309 -1319 
L 2669 525 
z
M 891 1338 
Q 891 875 1084 633 
Q 1278 391 1644 391 
Q 2188 391 2572 911 
Q 2956 1431 2956 2175 
Q 2956 2625 2757 2864 
Q 2559 3103 2188 3103 
Q 1916 3103 1684 2976 
Q 1453 2850 1281 2606 
Q 1100 2350 995 2006 
Q 891 1663 891 1338 
z
" transform="scale(0.015625)"/>
      </defs>
      <use xlink:href="#DejaVuSans-Oblique-71"/>
      <use xlink:href="#DejaVuSans-30" transform="translate(63.476562 -16.40625)scale(0.7)"/>
     </g>
    </g>
   </g>
   <g id="text_3">
    <g clip-path="url(#pba8b7b9e1a)">
     <!-- ${q}_{1}$ -->
     <g transform="translate(217.678562 163.017774)scale(0.1625 -0.1625)">
      <defs>
       <path id="DejaVuSans-31" d="M 794 531 
L 1825 531 
L 1825 4091 
L 703 3866 
L 703 4441 
L 1819 4666 
L 2450 4666 
L 2450 531 
L 3481 531 
L 3481 0 
L 794 0 
L 794 531 
z
" transform="scale(0.015625)"/>
      </defs>
      <use xlink:href="#DejaVuSans-Oblique-71"/>
      <use xlink:href="#DejaVuSans-31" transform="translate(63.476562 -16.40625)scale(0.7)"/>
     </g>
    </g>
   </g>
   <g id="text_4">
    <g clip-path="url(#pba8b7b9e1a)">
     <!-- ${q}_{2}$ -->
     <g transform="translate(217.678562 209.371774)scale(0.1625 -0.1625)">
      <use xlink:href="#DejaVuSans-Oblique-71"/>
      <use xlink:href="#DejaVuSans-32" transform="translate(63.476562 -16.40625)scale(0.7)"/>
     </g>
    </g>
   </g>
   <g id="text_5">
    <g clip-path="url(#pba8b7b9e1a)">
     <!-- ${q}_{3}$ -->
     <g transform="translate(217.678562 255.725773)scale(0.1625 -0.1625)">
      <defs>
       <path id="DejaVuSans-33" d="M 2597 2516 
Q 3050 2419 3304 2112 
Q 3559 1806 3559 1356 
Q 3559 666 3084 287 
Q 2609 -91 1734 -91 
Q 1441 -91 1130 -33 
Q 819 25 488 141 
L 488 750 
Q 750 597 1062 519 
Q 1375 441 1716 441 
Q 2309 441 2620 675 
Q 2931 909 2931 1356 
Q 2931 1769 2642 2001 
Q 2353 2234 1838 2234 
L 1294 2234 
L 1294 2753 
L 1863 2753 
Q 2328 2753 2575 2939 
Q 2822 3125 2822 3475 
Q 2822 3834 2567 4026 
Q 2313 4219 1838 4219 
Q 1578 4219 1281 4162 
Q 984 4106 628 3988 
L 628 4550 
Q 988 4650 1302 4700 
Q 1616 4750 1894 4750 
Q 2613 4750 3031 4423 
Q 3450 4097 3450 3541 
Q 3450 3153 3228 2886 
Q 3006 2619 2597 2516 
z
" transform="scale(0.015625)"/>
      </defs>
      <use xlink:href="#DejaVuSans-Oblique-71"/>
      <use xlink:href="#DejaVuSans-33" transform="translate(63.476562 -16.40625)scale(0.7)"/>
     </g>
    </g>
   </g>
   <g id="text_6">
    <g clip-path="url(#pba8b7b9e1a)">
     <!-- ${q}_{4}$ -->
     <g transform="translate(217.678562 302.079773)scale(0.1625 -0.1625)">
      <defs>
       <path id="DejaVuSans-34" d="M 2419 4116 
L 825 1625 
L 2419 1625 
L 2419 4116 
z
M 2253 4666 
L 3047 4666 
L 3047 1625 
L 3713 1625 
L 3713 1100 
L 3047 1100 
L 3047 0 
L 2419 0 
L 2419 1100 
L 313 1100 
L 313 1709 
L 2253 4666 
z
" transform="scale(0.015625)"/>
      </defs>
      <use xlink:href="#DejaVuSans-Oblique-71"/>
      <use xlink:href="#DejaVuSans-34" transform="translate(63.476562 -16.40625)scale(0.7)"/>
     </g>
    </g>
   </g>
   <g id="text_7">
    <g clip-path="url(#pba8b7b9e1a)">
     <!-- ${q}_{5}$ -->
     <g transform="translate(217.678562 348.433772)scale(0.1625 -0.1625)">
      <defs>
       <path id="DejaVuSans-35" d="M 691 4666 
L 3169 4666 
L 3169 4134 
L 1269 4134 
L 1269 2991 
Q 1406 3038 1543 3061 
Q 1681 3084 1819 3084 
Q 2600 3084 3056 2656 
Q 3513 2228 3513 1497 
Q 3513 744 3044 326 
Q 2575 -91 1722 -91 
Q 1428 -91 1123 -41 
Q 819 9 494 109 
L 494 744 
Q 775 591 1075 516 
Q 1375 441 1709 441 
Q 2250 441 2565 725 
Q 2881 1009 2881 1497 
Q 2881 1984 2565 2268 
Q 2250 2553 1709 2553 
Q 1456 2553 1204 2497 
Q 953 2441 691 2322 
L 691 4666 
z
" transform="scale(0.015625)"/>
      </defs>
      <use xlink:href="#DejaVuSans-Oblique-71"/>
      <use xlink:href="#DejaVuSans-35" transform="translate(63.476562 -16.40625)scale(0.7)"/>
     </g>
    </g>
   </g>
   <g id="text_8">
    <g clip-path="url(#pba8b7b9e1a)">
     <!-- ${q}_{6}$ -->
     <g transform="translate(217.678562 394.787771)scale(0.1625 -0.1625)">
      <defs>
       <path id="DejaVuSans-36" d="M 2113 2584 
Q 1688 2584 1439 2293 
Q 1191 2003 1191 1497 
Q 1191 994 1439 701 
Q 1688 409 2113 409 
Q 2538 409 2786 701 
Q 3034 994 3034 1497 
Q 3034 2003 2786 2293 
Q 2538 2584 2113 2584 
z
M 3366 4563 
L 3366 3988 
Q 3128 4100 2886 4159 
Q 2644 4219 2406 4219 
Q 1781 4219 1451 3797 
Q 1122 3375 1075 2522 
Q 1259 2794 1537 2939 
Q 1816 3084 2150 3084 
Q 2853 3084 3261 2657 
Q 3669 2231 3669 1497 
Q 3669 778 3244 343 
Q 2819 -91 2113 -91 
Q 1303 -91 875 529 
Q 447 1150 447 2328 
Q 447 3434 972 4092 
Q 1497 4750 2381 4750 
Q 2619 4750 2861 4703 
Q 3103 4656 3366 4563 
z
" transform="scale(0.015625)"/>
      </defs>
      <use xlink:href="#DejaVuSans-Oblique-71"/>
      <use xlink:href="#DejaVuSans-36" transform="translate(63.476562 -16.40625)scale(0.7)"/>
     </g>
    </g>
   </g>
   <g id="text_9">
    <g clip-path="url(#pba8b7b9e1a)">
     <!-- ${q}_{7}$ -->
     <g transform="translate(217.678562 441.141771)scale(0.1625 -0.1625)">
      <defs>
       <path id="DejaVuSans-37" d="M 525 4666 
L 3525 4666 
L 3525 4397 
L 1831 0 
L 1172 0 
L 2766 4134 
L 525 4134 
L 525 4666 
z
" transform="scale(0.015625)"/>
      </defs>
      <use xlink:href="#DejaVuSans-Oblique-71"/>
      <use xlink:href="#DejaVuSans-37" transform="translate(63.476562 -16.40625)scale(0.7)"/>
     </g>
    </g>
   </g>
   <g id="text_10">
    <g clip-path="url(#pba8b7b9e1a)">
     <!-- ${q}_{8}$ -->
     <g transform="translate(217.678562 487.49577)scale(0.1625 -0.1625)">
      <use xlink:href="#DejaVuSans-Oblique-71"/>
      <use xlink:href="#DejaVuSans-38" transform="translate(63.476562 -16.40625)scale(0.7)"/>
     </g>
    </g>
   </g>
   <g id="text_11">
    <g clip-path="url(#pba8b7b9e1a)">
     <!-- ${q}_{9}$ -->
     <g transform="translate(217.678562 533.84977)scale(0.1625 -0.1625)">
      <defs>
       <path id="DejaVuSans-39" d="M 703 97 
L 703 672 
Q 941 559 1184 500 
Q 1428 441 1663 441 
Q 2288 441 2617 861 
Q 2947 1281 2994 2138 
Q 2813 1869 2534 1725 
Q 2256 1581 1919 1581 
Q 1219 1581 811 2004 
Q 403 2428 403 3163 
Q 403 3881 828 4315 
Q 1253 4750 1959 4750 
Q 2769 4750 3195 4129 
Q 3622 3509 3622 2328 
Q 3622 1225 3098 567 
Q 2575 -91 1691 -91 
Q 1453 -91 1209 -44 
Q 966 3 703 97 
z
M 1959 2075 
Q 2384 2075 2632 2365 
Q 2881 2656 2881 3163 
Q 2881 3666 2632 3958 
Q 2384 4250 1959 4250 
Q 1534 4250 1286 3958 
Q 1038 3666 1038 3163 
Q 1038 2656 1286 2365 
Q 1534 2075 1959 2075 
z
" transform="scale(0.015625)"/>
      </defs>
      <use xlink:href="#DejaVuSans-Oblique-71"/>
      <use xlink:href="#DejaVuSans-39" transform="translate(63.476562 -16.40625)scale(0.7)"/>
     </g>
    </g>
   </g>
   <g id="line2d_32">
    <path d="M 270.018022 396.362815 
L 270.018022 384.310775 
" clip-path="url(#pba8b7b9e1a)" style="fill: none; stroke: #ffffff; stroke-width: 2; stroke-linecap: square"/>
   </g>
   <g id="line2d_33">
    <path d="M 263.992002 390.336795 
L 276.044042 390.336795 
" clip-path="url(#pba8b7b9e1a)" style="fill: none; stroke: #ffffff; stroke-width: 2; stroke-linecap: square"/>
   </g>
   <g id="line2d_34">
    <path d="M 270.018022 535.424813 
L 270.018022 523.372773 
" clip-path="url(#pba8b7b9e1a)" style="fill: none; stroke: #ffffff; stroke-width: 2; stroke-linecap: square"/>
   </g>
   <g id="line2d_35">
    <path d="M 263.992002 529.398793 
L 276.044042 529.398793 
" clip-path="url(#pba8b7b9e1a)" style="fill: none; stroke: #ffffff; stroke-width: 2; stroke-linecap: square"/>
   </g>
   <g id="text_12">
    <g clip-path="url(#pba8b7b9e1a)">
     <!-- S -->
     <g transform="translate(312.245537 347.569983)scale(0.13 -0.13)">
      <use xlink:href="#DejaVuSans-53"/>
     </g>
    </g>
   </g>
   <g id="text_13">
    <g clip-path="url(#pba8b7b9e1a)">
     <!-- 0.141 -->
     <g transform="translate(304.920771 401.583325)scale(0.08 -0.08)">
      <defs>
       <path id="DejaVuSans-2e" d="M 684 794 
L 1344 794 
L 1344 0 
L 684 0 
L 684 794 
z
" transform="scale(0.015625)"/>
      </defs>
      <use xlink:href="#DejaVuSans-30"/>
      <use xlink:href="#DejaVuSans-2e" x="63.623047"/>
      <use xlink:href="#DejaVuSans-31" x="95.410156"/>
      <use xlink:href="#DejaVuSans-34" x="159.033203"/>
      <use xlink:href="#DejaVuSans-31" x="222.65625"/>
     </g>
    </g>
   </g>
   <g id="text_14">
    <g clip-path="url(#pba8b7b9e1a)">
     <!-- $\mathrm{R_Z}$ -->
     <g transform="translate(308.442021 389.404467)scale(0.13 -0.13)">
      <defs>
       <path id="DejaVuSans-5a" d="M 359 4666 
L 4025 4666 
L 4025 4184 
L 1075 531 
L 4097 531 
L 4097 0 
L 288 0 
L 288 481 
L 3238 4134 
L 359 4134 
L 359 4666 
z
" transform="scale(0.015625)"/>
      </defs>
      <use xlink:href="#DejaVuSans-52" transform="translate(0 0.09375)"/>
      <use xlink:href="#DejaVuSans-5a" transform="translate(70.439453 -16.3125)scale(0.7)"/>
     </g>
    </g>
   </g>
   <g id="line2d_36">
    <path d="M 316.372021 535.424813 
L 316.372021 523.372773 
" clip-path="url(#pba8b7b9e1a)" style="fill: none; stroke: #ffffff; stroke-width: 2; stroke-linecap: square"/>
   </g>
   <g id="line2d_37">
    <path d="M 310.346001 529.398793 
L 322.398041 529.398793 
" clip-path="url(#pba8b7b9e1a)" style="fill: none; stroke: #ffffff; stroke-width: 2; stroke-linecap: square"/>
   </g>
   <g id="text_15">
    <g clip-path="url(#pba8b7b9e1a)">
     <!-- H -->
     <g transform="translate(357.837818 347.569983)scale(0.13 -0.13)">
      <use xlink:href="#DejaVuSans-48"/>
     </g>
    </g>
   </g>
   <g id="line2d_38">
    <path d="M 409.08002 396.362815 
L 409.08002 384.310775 
" clip-path="url(#pba8b7b9e1a)" style="fill: none; stroke: #ffffff; stroke-width: 2; stroke-linecap: square"/>
   </g>
   <g id="line2d_39">
    <path d="M 403.054 390.336795 
L 415.10604 390.336795 
" clip-path="url(#pba8b7b9e1a)" style="fill: none; stroke: #ffffff; stroke-width: 2; stroke-linecap: square"/>
   </g>
   <g id="line2d_40">
    <path d="M 455.43402 535.424813 
L 455.43402 523.372773 
" clip-path="url(#pba8b7b9e1a)" style="fill: none; stroke: #ffffff; stroke-width: 2; stroke-linecap: square"/>
   </g>
   <g id="line2d_41">
    <path d="M 449.408 529.398793 
L 461.460039 529.398793 
" clip-path="url(#pba8b7b9e1a)" style="fill: none; stroke: #ffffff; stroke-width: 2; stroke-linecap: square"/>
   </g>
   <g id="text_16">
    <g clip-path="url(#pba8b7b9e1a)">
     <!-- $-$0.0043 -->
     <g transform="translate(484.428019 540.645323)scale(0.08 -0.08)">
      <defs>
       <path id="DejaVuSans-2212" d="M 678 2272 
L 4684 2272 
L 4684 1741 
L 678 1741 
L 678 2272 
z
" transform="scale(0.015625)"/>
      </defs>
      <use xlink:href="#DejaVuSans-2212" transform="translate(0 0.78125)"/>
      <use xlink:href="#DejaVuSans-30" transform="translate(83.789062 0.78125)"/>
      <use xlink:href="#DejaVuSans-2e" transform="translate(147.412109 0.78125)"/>
      <use xlink:href="#DejaVuSans-30" transform="translate(179.199219 0.78125)"/>
      <use xlink:href="#DejaVuSans-30" transform="translate(242.822266 0.78125)"/>
      <use xlink:href="#DejaVuSans-34" transform="translate(306.445312 0.78125)"/>
      <use xlink:href="#DejaVuSans-33" transform="translate(370.068359 0.78125)"/>
     </g>
    </g>
   </g>
   <g id="text_17">
    <g clip-path="url(#pba8b7b9e1a)">
     <!-- $\mathrm{R_Z}$ -->
     <g transform="translate(493.858019 528.466466)scale(0.13 -0.13)">
      <use xlink:href="#DejaVuSans-52" transform="translate(0 0.09375)"/>
      <use xlink:href="#DejaVuSans-5a" transform="translate(70.439453 -16.3125)scale(0.7)"/>
     </g>
    </g>
   </g>
   <g id="text_18">
    <g clip-path="url(#pba8b7b9e1a)">
     <!-- $-$0.849 -->
     <g transform="translate(487.068019 401.583325)scale(0.08 -0.08)">
      <use xlink:href="#DejaVuSans-2212" transform="translate(0 0.78125)"/>
      <use xlink:href="#DejaVuSans-30" transform="translate(83.789062 0.78125)"/>
      <use xlink:href="#DejaVuSans-2e" transform="translate(147.412109 0.78125)"/>
      <use xlink:href="#DejaVuSans-38" transform="translate(176.574219 0.78125)"/>
      <use xlink:href="#DejaVuSans-34" transform="translate(240.197266 0.78125)"/>
      <use xlink:href="#DejaVuSans-39" transform="translate(303.820312 0.78125)"/>
     </g>
    </g>
   </g>
   <g id="text_19">
    <g clip-path="url(#pba8b7b9e1a)">
     <!-- $\mathrm{R_Z}$ -->
     <g transform="translate(493.858019 389.404467)scale(0.13 -0.13)">
      <use xlink:href="#DejaVuSans-52" transform="translate(0 0.09375)"/>
      <use xlink:href="#DejaVuSans-5a" transform="translate(70.439453 -16.3125)scale(0.7)"/>
     </g>
    </g>
   </g>
   <g id="line2d_42">
    <path d="M 548.142018 535.424813 
L 548.142018 523.372773 
" clip-path="url(#pba8b7b9e1a)" style="fill: none; stroke: #ffffff; stroke-width: 2; stroke-linecap: square"/>
   </g>
   <g id="line2d_43">
    <path d="M 542.115998 529.398793 
L 554.168038 529.398793 
" clip-path="url(#pba8b7b9e1a)" style="fill: none; stroke: #ffffff; stroke-width: 2; stroke-linecap: square"/>
   </g>
   <g id="text_20">
    <g clip-path="url(#pba8b7b9e1a)">
     <!-- H -->
     <g transform="translate(589.607815 347.569983)scale(0.13 -0.13)">
      <use xlink:href="#DejaVuSans-48"/>
     </g>
    </g>
   </g>
   <g id="line2d_44">
    <path d="M 594.496018 535.424813 
L 594.496018 523.372773 
" clip-path="url(#pba8b7b9e1a)" style="fill: none; stroke: #ffffff; stroke-width: 2; stroke-linecap: square"/>
   </g>
   <g id="line2d_45">
    <path d="M 588.469998 529.398793 
L 600.522038 529.398793 
" clip-path="url(#pba8b7b9e1a)" style="fill: none; stroke: #ffffff; stroke-width: 2; stroke-linecap: square"/>
   </g>
   <g id="text_21">
    <g clip-path="url(#pba8b7b9e1a)">
     <!-- $\mathrm{S^\dagger}$ -->
     <g transform="translate(632.400017 347.569983)scale(0.13 -0.13)">
      <defs>
       <path id="DejaVuSans-2020" d="M 1325 4666 
L 1875 4666 
L 1875 3353 
L 3022 3353 
L 3022 2875 
L 1875 2875 
L 1875 -616 
L 1325 -616 
L 1325 2875 
L 178 2875 
L 178 3353 
L 1325 3353 
L 1325 4666 
z
" transform="scale(0.015625)"/>
      </defs>
      <use xlink:href="#DejaVuSans-53" transform="translate(0 0.684375)"/>
      <use xlink:href="#DejaVuSans-2020" transform="translate(78.071289 38.965625)scale(0.7)"/>
     </g>
    </g>
   </g>
   <g id="line2d_46">
    <path d="M 640.850017 535.424813 
L 640.850017 523.372773 
" clip-path="url(#pba8b7b9e1a)" style="fill: none; stroke: #ffffff; stroke-width: 2; stroke-linecap: square"/>
   </g>
   <g id="line2d_47">
    <path d="M 634.823997 529.398793 
L 646.876037 529.398793 
" clip-path="url(#pba8b7b9e1a)" style="fill: none; stroke: #ffffff; stroke-width: 2; stroke-linecap: square"/>
   </g>
   <g id="line2d_48">
    <path d="M 687.204016 442.716814 
L 687.204016 430.664774 
" clip-path="url(#pba8b7b9e1a)" style="fill: none; stroke: #ffffff; stroke-width: 2; stroke-linecap: square"/>
   </g>
   <g id="line2d_49">
    <path d="M 681.177997 436.690794 
L 693.230036 436.690794 
" clip-path="url(#pba8b7b9e1a)" style="fill: none; stroke: #ffffff; stroke-width: 2; stroke-linecap: square"/>
   </g>
   <g id="line2d_50">
    <path d="M 733.558016 210.946817 
L 733.558016 198.894777 
" clip-path="url(#pba8b7b9e1a)" style="fill: none; stroke: #ffffff; stroke-width: 2; stroke-linecap: square"/>
   </g>
   <g id="line2d_51">
    <path d="M 727.531996 204.920797 
L 739.584036 204.920797 
" clip-path="url(#pba8b7b9e1a)" style="fill: none; stroke: #ffffff; stroke-width: 2; stroke-linecap: square"/>
   </g>
   <g id="text_22">
    <g clip-path="url(#pba8b7b9e1a)">
     <!-- 0.138 -->
     <g transform="translate(722.106766 447.937324)scale(0.08 -0.08)">
      <use xlink:href="#DejaVuSans-30"/>
      <use xlink:href="#DejaVuSans-2e" x="63.623047"/>
      <use xlink:href="#DejaVuSans-31" x="95.410156"/>
      <use xlink:href="#DejaVuSans-33" x="159.033203"/>
      <use xlink:href="#DejaVuSans-38" x="222.65625"/>
     </g>
    </g>
   </g>
   <g id="text_23">
    <g clip-path="url(#pba8b7b9e1a)">
     <!-- $\mathrm{R_Z}$ -->
     <g transform="translate(725.628016 435.758467)scale(0.13 -0.13)">
      <use xlink:href="#DejaVuSans-52" transform="translate(0 0.09375)"/>
      <use xlink:href="#DejaVuSans-5a" transform="translate(70.439453 -16.3125)scale(0.7)"/>
     </g>
    </g>
   </g>
   <g id="text_24">
    <g clip-path="url(#pba8b7b9e1a)">
     <!-- 0.135 -->
     <g transform="translate(768.460765 216.167327)scale(0.08 -0.08)">
      <use xlink:href="#DejaVuSans-30"/>
      <use xlink:href="#DejaVuSans-2e" x="63.623047"/>
      <use xlink:href="#DejaVuSans-31" x="95.410156"/>
      <use xlink:href="#DejaVuSans-33" x="159.033203"/>
      <use xlink:href="#DejaVuSans-35" x="222.65625"/>
     </g>
    </g>
   </g>
   <g id="text_25">
    <g clip-path="url(#pba8b7b9e1a)">
     <!-- $\mathrm{R_Z}$ -->
     <g transform="translate(771.982015 203.98847)scale(0.13 -0.13)">
      <use xlink:href="#DejaVuSans-52" transform="translate(0 0.09375)"/>
      <use xlink:href="#DejaVuSans-5a" transform="translate(70.439453 -16.3125)scale(0.7)"/>
     </g>
    </g>
   </g>
   <g id="line2d_52">
    <path d="M 779.912015 442.716814 
L 779.912015 430.664774 
" clip-path="url(#pba8b7b9e1a)" style="fill: none; stroke: #ffffff; stroke-width: 2; stroke-linecap: square"/>
   </g>
   <g id="line2d_53">
    <path d="M 773.885995 436.690794 
L 785.938035 436.690794 
" clip-path="url(#pba8b7b9e1a)" style="fill: none; stroke: #ffffff; stroke-width: 2; stroke-linecap: square"/>
   </g>
   <g id="line2d_54">
    <path d="M 826.266015 210.946817 
L 826.266015 198.894777 
" clip-path="url(#pba8b7b9e1a)" style="fill: none; stroke: #ffffff; stroke-width: 2; stroke-linecap: square"/>
   </g>
   <g id="line2d_55">
    <path d="M 820.239995 204.920797 
L 832.292035 204.920797 
" clip-path="url(#pba8b7b9e1a)" style="fill: none; stroke: #ffffff; stroke-width: 2; stroke-linecap: square"/>
   </g>
   <g id="line2d_56">
    <path d="M 826.266015 535.424813 
L 826.266015 523.372773 
" clip-path="url(#pba8b7b9e1a)" style="fill: none; stroke: #ffffff; stroke-width: 2; stroke-linecap: square"/>
   </g>
   <g id="line2d_57">
    <path d="M 820.239995 529.398793 
L 832.292035 529.398793 
" clip-path="url(#pba8b7b9e1a)" style="fill: none; stroke: #ffffff; stroke-width: 2; stroke-linecap: square"/>
   </g>
   <g id="line2d_58">
    <path d="M 872.620014 535.424813 
L 872.620014 523.372773 
" clip-path="url(#pba8b7b9e1a)" style="fill: none; stroke: #ffffff; stroke-width: 2; stroke-linecap: square"/>
   </g>
   <g id="line2d_59">
    <path d="M 866.593994 529.398793 
L 878.646034 529.398793 
" clip-path="url(#pba8b7b9e1a)" style="fill: none; stroke: #ffffff; stroke-width: 2; stroke-linecap: square"/>
   </g>
   <g id="text_26">
    <g clip-path="url(#pba8b7b9e1a)">
     <!-- S -->
     <g transform="translate(868.49353 347.569983)scale(0.13 -0.13)">
      <use xlink:href="#DejaVuSans-53"/>
     </g>
    </g>
   </g>
   <g id="text_27">
    <g clip-path="url(#pba8b7b9e1a)">
     <!-- H -->
     <g transform="translate(914.08581 347.569983)scale(0.13 -0.13)">
      <use xlink:href="#DejaVuSans-48"/>
     </g>
    </g>
   </g>
   <g id="line2d_60">
    <path d="M 965.328013 535.424813 
L 965.328013 523.372773 
" clip-path="url(#pba8b7b9e1a)" style="fill: none; stroke: #ffffff; stroke-width: 2; stroke-linecap: square"/>
   </g>
   <g id="line2d_61">
    <path d="M 959.301993 529.398793 
L 971.354033 529.398793 
" clip-path="url(#pba8b7b9e1a)" style="fill: none; stroke: #ffffff; stroke-width: 2; stroke-linecap: square"/>
   </g>
   <g id="line2d_62">
    <path d="M 1011.682012 535.424813 
L 1011.682012 523.372773 
" clip-path="url(#pba8b7b9e1a)" style="fill: none; stroke: #ffffff; stroke-width: 2; stroke-linecap: square"/>
   </g>
   <g id="line2d_63">
    <path d="M 1005.655992 529.398793 
L 1017.708032 529.398793 
" clip-path="url(#pba8b7b9e1a)" style="fill: none; stroke: #ffffff; stroke-width: 2; stroke-linecap: square"/>
   </g>
   <g id="text_28">
    <g clip-path="url(#pba8b7b9e1a)">
     <!-- 0.00546 -->
     <g transform="translate(1041.494762 540.645323)scale(0.08 -0.08)">
      <use xlink:href="#DejaVuSans-30"/>
      <use xlink:href="#DejaVuSans-2e" x="63.623047"/>
      <use xlink:href="#DejaVuSans-30" x="95.410156"/>
      <use xlink:href="#DejaVuSans-30" x="159.033203"/>
      <use xlink:href="#DejaVuSans-35" x="222.65625"/>
      <use xlink:href="#DejaVuSans-34" x="286.279297"/>
      <use xlink:href="#DejaVuSans-36" x="349.902344"/>
     </g>
    </g>
   </g>
   <g id="text_29">
    <g clip-path="url(#pba8b7b9e1a)">
     <!-- $\mathrm{R_Z}$ -->
     <g transform="translate(1050.106012 528.466466)scale(0.13 -0.13)">
      <use xlink:href="#DejaVuSans-52" transform="translate(0 0.09375)"/>
      <use xlink:href="#DejaVuSans-5a" transform="translate(70.439453 -16.3125)scale(0.7)"/>
     </g>
    </g>
   </g>
   <g id="line2d_64">
    <path d="M 1104.390011 535.424813 
L 1104.390011 523.372773 
" clip-path="url(#pba8b7b9e1a)" style="fill: none; stroke: #ffffff; stroke-width: 2; stroke-linecap: square"/>
   </g>
   <g id="line2d_65">
    <path d="M 1098.363991 529.398793 
L 1110.416031 529.398793 
" clip-path="url(#pba8b7b9e1a)" style="fill: none; stroke: #ffffff; stroke-width: 2; stroke-linecap: square"/>
   </g>
   <g id="line2d_66">
    <path d="M 1150.74401 535.424813 
L 1150.74401 523.372773 
" clip-path="url(#pba8b7b9e1a)" style="fill: none; stroke: #ffffff; stroke-width: 2; stroke-linecap: square"/>
   </g>
   <g id="line2d_67">
    <path d="M 1144.71799 529.398793 
L 1156.77003 529.398793 
" clip-path="url(#pba8b7b9e1a)" style="fill: none; stroke: #ffffff; stroke-width: 2; stroke-linecap: square"/>
   </g>
   <g id="text_30">
    <g clip-path="url(#pba8b7b9e1a)">
     <!-- H -->
     <g transform="translate(1192.209807 347.569983)scale(0.13 -0.13)">
      <use xlink:href="#DejaVuSans-48"/>
     </g>
    </g>
   </g>
   <g id="line2d_68">
    <path d="M 1197.09801 535.424813 
L 1197.09801 523.372773 
" clip-path="url(#pba8b7b9e1a)" style="fill: none; stroke: #ffffff; stroke-width: 2; stroke-linecap: square"/>
   </g>
   <g id="line2d_69">
    <path d="M 1191.07199 529.398793 
L 1203.12403 529.398793 
" clip-path="url(#pba8b7b9e1a)" style="fill: none; stroke: #ffffff; stroke-width: 2; stroke-linecap: square"/>
   </g>
   <g id="text_31">
    <g clip-path="url(#pba8b7b9e1a)">
     <!-- $\mathrm{S^\dagger}$ -->
     <g transform="translate(1235.002009 347.569983)scale(0.13 -0.13)">
      <use xlink:href="#DejaVuSans-53" transform="translate(0 0.684375)"/>
      <use xlink:href="#DejaVuSans-2020" transform="translate(78.071289 38.965625)scale(0.7)"/>
     </g>
    </g>
   </g>
   <g id="line2d_70">
    <path d="M 1243.452009 535.424813 
L 1243.452009 523.372773 
" clip-path="url(#pba8b7b9e1a)" style="fill: none; stroke: #ffffff; stroke-width: 2; stroke-linecap: square"/>
   </g>
   <g id="line2d_71">
    <path d="M 1237.425989 529.398793 
L 1249.478029 529.398793 
" clip-path="url(#pba8b7b9e1a)" style="fill: none; stroke: #ffffff; stroke-width: 2; stroke-linecap: square"/>
   </g>
   <g id="line2d_72">
    <path d="M 1289.806008 535.424813 
L 1289.806008 523.372773 
" clip-path="url(#pba8b7b9e1a)" style="fill: none; stroke: #ffffff; stroke-width: 2; stroke-linecap: square"/>
   </g>
   <g id="line2d_73">
    <path d="M 1283.779989 529.398793 
L 1295.832028 529.398793 
" clip-path="url(#pba8b7b9e1a)" style="fill: none; stroke: #ffffff; stroke-width: 2; stroke-linecap: square"/>
   </g>
  </g>
 </g>
 <defs>
  <clipPath id="pba8b7b9e1a">
   <rect x="187.577666" y="75.129599" width="1132.821982" height="482.081594"/>
  </clipPath>
 </defs>
</svg>
