<?xml version="1.0" encoding="utf-8" standalone="no"?>
<!DOCTYPE svg PUBLIC "-//W3C//DTD SVG 1.1//EN"
  "http://www.w3.org/Graphics/SVG/1.1/DTD/svg11.dtd">
<svg xmlns:xlink="http://www.w3.org/1999/xlink" width="2313.997368pt" height="626.079992pt" viewBox="0 0 2313.997368 626.079992" xmlns="http://www.w3.org/2000/svg" version="1.1">
 <metadata>
  <rdf:RDF xmlns:dc="http://purl.org/dc/elements/1.1/" xmlns:cc="http://creativecommons.org/ns#" xmlns:rdf="http://www.w3.org/1999/02/22-rdf-syntax-ns#">
   <cc:Work>
    <dc:type rdf:resource="http://purl.org/dc/dcmitype/StillImage"/>
    <dc:date>2022-05-22T13:40:46.382014</dc:date>
    <dc:format>image/svg+xml</dc:format>
    <dc:creator>
     <cc:Agent>
      <dc:title>Matplotlib v3.5.1, https://matplotlib.org/</dc:title>
     </cc:Agent>
    </dc:creator>
   </cc:Work>
  </rdf:RDF>
 </metadata>
 <defs>
  <style type="text/css">*{stroke-linejoin: round; stroke-linecap: butt}</style>
 </defs>
 <g id="figure_1">
  <g id="patch_1">
   <path d="M 0 626.079992 
L 2313.997368 626.079992 
L 2313.997368 0 
L 0 0 
z
" style="fill: #ffffff"/>
  </g>
  <g id="axes_1">
   <g id="line2d_1">
    <path d="M 352.443861 112.212799 
L 2072.177238 112.212799 
" clip-path="url(#p29fd01c35d)" style="fill: none; stroke: #000000; stroke-width: 2; stroke-linecap: square"/>
   </g>
   <g id="line2d_2">
    <path d="M 352.443861 158.566798 
L 2072.177238 158.566798 
" clip-path="url(#p29fd01c35d)" style="fill: none; stroke: #000000; stroke-width: 2; stroke-linecap: square"/>
   </g>
   <g id="line2d_3">
    <path d="M 352.443861 204.920797 
L 2072.177238 204.920797 
" clip-path="url(#p29fd01c35d)" style="fill: none; stroke: #000000; stroke-width: 2; stroke-linecap: square"/>
   </g>
   <g id="line2d_4">
    <path d="M 352.443861 251.274797 
L 2072.177238 251.274797 
" clip-path="url(#p29fd01c35d)" style="fill: none; stroke: #000000; stroke-width: 2; stroke-linecap: square"/>
   </g>
   <g id="line2d_5">
    <path d="M 352.443861 297.628796 
L 2072.177238 297.628796 
" clip-path="url(#p29fd01c35d)" style="fill: none; stroke: #000000; stroke-width: 2; stroke-linecap: square"/>
   </g>
   <g id="line2d_6">
    <path d="M 352.443861 343.982795 
L 2072.177238 343.982795 
" clip-path="url(#p29fd01c35d)" style="fill: none; stroke: #000000; stroke-width: 2; stroke-linecap: square"/>
   </g>
   <g id="line2d_7">
    <path d="M 352.443861 390.336795 
L 2072.177238 390.336795 
" clip-path="url(#p29fd01c35d)" style="fill: none; stroke: #000000; stroke-width: 2; stroke-linecap: square"/>
   </g>
   <g id="line2d_8">
    <path d="M 352.443861 436.690794 
L 2072.177238 436.690794 
" clip-path="url(#p29fd01c35d)" style="fill: none; stroke: #000000; stroke-width: 2; stroke-linecap: square"/>
   </g>
   <g id="line2d_9">
    <path d="M 352.443861 483.044794 
L 2072.177238 483.044794 
" clip-path="url(#p29fd01c35d)" style="fill: none; stroke: #000000; stroke-width: 2; stroke-linecap: square"/>
   </g>
   <g id="line2d_10">
    <path d="M 352.443861 529.398793 
L 2072.177238 529.398793 
" clip-path="url(#p29fd01c35d)" style="fill: none; stroke: #000000; stroke-width: 2; stroke-linecap: square"/>
   </g>
   <g id="line2d_11">
    <path d="M 470.183019 529.398793 
L 470.183019 343.982795 
" clip-path="url(#p29fd01c35d)" style="fill: none; stroke: #000000; stroke-width: 2; stroke-linecap: square"/>
   </g>
   <g id="line2d_12">
    <path d="M 516.537019 529.398793 
L 516.537019 390.336795 
" clip-path="url(#p29fd01c35d)" style="fill: none; stroke: #000000; stroke-width: 2; stroke-linecap: square"/>
   </g>
   <g id="line2d_13">
    <path d="M 562.891018 529.398793 
L 562.891018 436.690794 
" clip-path="url(#p29fd01c35d)" style="fill: none; stroke: #000000; stroke-width: 2; stroke-linecap: square"/>
   </g>
   <g id="line2d_14">
    <path d="M 609.245018 529.398793 
L 609.245018 483.044794 
" clip-path="url(#p29fd01c35d)" style="fill: none; stroke: #000000; stroke-width: 2; stroke-linecap: square"/>
   </g>
   <g id="line2d_15">
    <path d="M 609.245018 343.982795 
L 609.245018 158.566798 
" clip-path="url(#p29fd01c35d)" style="fill: none; stroke: #000000; stroke-width: 2; stroke-linecap: square"/>
   </g>
   <g id="line2d_16">
    <path d="M 655.599017 390.336795 
L 655.599017 158.566798 
" clip-path="url(#p29fd01c35d)" style="fill: none; stroke: #000000; stroke-width: 2; stroke-linecap: square"/>
   </g>
   <g id="line2d_17">
    <path d="M 701.953016 436.690794 
L 701.953016 158.566798 
" clip-path="url(#p29fd01c35d)" style="fill: none; stroke: #000000; stroke-width: 2; stroke-linecap: square"/>
   </g>
   <g id="line2d_18">
    <path d="M 748.307016 483.044794 
L 748.307016 158.566798 
" clip-path="url(#p29fd01c35d)" style="fill: none; stroke: #000000; stroke-width: 2; stroke-linecap: square"/>
   </g>
   <g id="line2d_19">
    <path d="M 794.661015 529.398793 
L 794.661015 158.566798 
" clip-path="url(#p29fd01c35d)" style="fill: none; stroke: #000000; stroke-width: 2; stroke-linecap: square"/>
   </g>
   <g id="line2d_20">
    <path d="M 887.369014 483.044794 
L 887.369014 158.566798 
" clip-path="url(#p29fd01c35d)" style="fill: none; stroke: #000000; stroke-width: 2; stroke-linecap: square"/>
   </g>
   <g id="line2d_21">
    <path d="M 933.723013 390.336795 
L 933.723013 158.566798 
" clip-path="url(#p29fd01c35d)" style="fill: none; stroke: #000000; stroke-width: 2; stroke-linecap: square"/>
   </g>
   <g id="line2d_22">
    <path d="M 980.077013 483.044794 
L 980.077013 251.274797 
" clip-path="url(#p29fd01c35d)" style="fill: none; stroke: #000000; stroke-width: 2; stroke-linecap: square"/>
   </g>
   <g id="line2d_23">
    <path d="M 1026.431012 343.982795 
L 1026.431012 158.566798 
" clip-path="url(#p29fd01c35d)" style="fill: none; stroke: #000000; stroke-width: 2; stroke-linecap: square"/>
   </g>
   <g id="line2d_24">
    <path d="M 1072.785011 297.628796 
L 1072.785011 251.274797 
" clip-path="url(#p29fd01c35d)" style="fill: none; stroke: #000000; stroke-width: 2; stroke-linecap: square"/>
   </g>
   <g id="line2d_25">
    <path d="M 1165.49301 297.628796 
L 1165.49301 251.274797 
" clip-path="url(#p29fd01c35d)" style="fill: none; stroke: #000000; stroke-width: 2; stroke-linecap: square"/>
   </g>
   <g id="line2d_26">
    <path d="M 1211.847009 529.398793 
L 1211.847009 158.566798 
" clip-path="url(#p29fd01c35d)" style="fill: none; stroke: #000000; stroke-width: 2; stroke-linecap: square"/>
   </g>
   <g id="line2d_27">
    <path d="M 1304.555008 483.044794 
L 1304.555008 251.274797 
" clip-path="url(#p29fd01c35d)" style="fill: none; stroke: #000000; stroke-width: 2; stroke-linecap: square"/>
   </g>
   <g id="line2d_28">
    <path d="M 1350.909008 529.398793 
L 1350.909008 204.920797 
" clip-path="url(#p29fd01c35d)" style="fill: none; stroke: #000000; stroke-width: 2; stroke-linecap: square"/>
   </g>
   <g id="line2d_29">
    <path d="M 1443.617006 529.398793 
L 1443.617006 251.274797 
" clip-path="url(#p29fd01c35d)" style="fill: none; stroke: #000000; stroke-width: 2; stroke-linecap: square"/>
   </g>
   <g id="line2d_30">
    <path d="M 1489.971006 529.398793 
L 1489.971006 390.336795 
" clip-path="url(#p29fd01c35d)" style="fill: none; stroke: #000000; stroke-width: 2; stroke-linecap: square"/>
   </g>
   <g id="line2d_31">
    <path d="M 1536.325005 529.398793 
L 1536.325005 436.690794 
" clip-path="url(#p29fd01c35d)" style="fill: none; stroke: #000000; stroke-width: 2; stroke-linecap: square"/>
   </g>
   <g id="line2d_32">
    <path d="M 1582.679005 529.398793 
L 1582.679005 483.044794 
" clip-path="url(#p29fd01c35d)" style="fill: none; stroke: #000000; stroke-width: 2; stroke-linecap: square"/>
   </g>
   <g id="line2d_33">
    <path d="M 1675.387003 529.398793 
L 1675.387003 483.044794 
" clip-path="url(#p29fd01c35d)" style="fill: none; stroke: #000000; stroke-width: 2; stroke-linecap: square"/>
   </g>
   <g id="line2d_34">
    <path d="M 1721.741003 529.398793 
L 1721.741003 436.690794 
" clip-path="url(#p29fd01c35d)" style="fill: none; stroke: #000000; stroke-width: 2; stroke-linecap: square"/>
   </g>
   <g id="line2d_35">
    <path d="M 1768.095002 529.398793 
L 1768.095002 390.336795 
" clip-path="url(#p29fd01c35d)" style="fill: none; stroke: #000000; stroke-width: 2; stroke-linecap: square"/>
   </g>
   <g id="line2d_36">
    <path d="M 1860.803001 529.398793 
L 1860.803001 251.274797 
" clip-path="url(#p29fd01c35d)" style="fill: none; stroke: #000000; stroke-width: 2; stroke-linecap: square"/>
   </g>
   <g id="line2d_37">
    <path d="M 1953.511 529.398793 
L 1953.511 204.920797 
" clip-path="url(#p29fd01c35d)" style="fill: none; stroke: #000000; stroke-width: 2; stroke-linecap: square"/>
   </g>
   <g id="line2d_38">
    <path d="M 1999.864999 529.398793 
L 1999.864999 158.566798 
" clip-path="url(#p29fd01c35d)" style="fill: none; stroke: #000000; stroke-width: 2; stroke-linecap: square"/>
   </g>
   <g id="text_1">
    <!-- TERMS: 8, DEPTH:30 -->
    <g transform="translate(1123.891151 69.129599)scale(0.12 -0.12)">
     <defs>
      <path id="DejaVuSans-54" d="M -19 4666 
L 3928 4666 
L 3928 4134 
L 2272 4134 
L 2272 0 
L 1638 0 
L 1638 4134 
L -19 4134 
L -19 4666 
z
" transform="scale(0.015625)"/>
      <path id="DejaVuSans-45" d="M 628 4666 
L 3578 4666 
L 3578 4134 
L 1259 4134 
L 1259 2753 
L 3481 2753 
L 3481 2222 
L 1259 2222 
L 1259 531 
L 3634 531 
L 3634 0 
L 628 0 
L 628 4666 
z
" transform="scale(0.015625)"/>
      <path id="DejaVuSans-52" d="M 2841 2188 
Q 3044 2119 3236 1894 
Q 3428 1669 3622 1275 
L 4263 0 
L 3584 0 
L 2988 1197 
Q 2756 1666 2539 1819 
Q 2322 1972 1947 1972 
L 1259 1972 
L 1259 0 
L 628 0 
L 628 4666 
L 2053 4666 
Q 2853 4666 3247 4331 
Q 3641 3997 3641 3322 
Q 3641 2881 3436 2590 
Q 3231 2300 2841 2188 
z
M 1259 4147 
L 1259 2491 
L 2053 2491 
Q 2509 2491 2742 2702 
Q 2975 2913 2975 3322 
Q 2975 3731 2742 3939 
Q 2509 4147 2053 4147 
L 1259 4147 
z
" transform="scale(0.015625)"/>
      <path id="DejaVuSans-4d" d="M 628 4666 
L 1569 4666 
L 2759 1491 
L 3956 4666 
L 4897 4666 
L 4897 0 
L 4281 0 
L 4281 4097 
L 3078 897 
L 2444 897 
L 1241 4097 
L 1241 0 
L 628 0 
L 628 4666 
z
" transform="scale(0.015625)"/>
      <path id="DejaVuSans-53" d="M 3425 4513 
L 3425 3897 
Q 3066 4069 2747 4153 
Q 2428 4238 2131 4238 
Q 1616 4238 1336 4038 
Q 1056 3838 1056 3469 
Q 1056 3159 1242 3001 
Q 1428 2844 1947 2747 
L 2328 2669 
Q 3034 2534 3370 2195 
Q 3706 1856 3706 1288 
Q 3706 609 3251 259 
Q 2797 -91 1919 -91 
Q 1588 -91 1214 -16 
Q 841 59 441 206 
L 441 856 
Q 825 641 1194 531 
Q 1563 422 1919 422 
Q 2459 422 2753 634 
Q 3047 847 3047 1241 
Q 3047 1584 2836 1778 
Q 2625 1972 2144 2069 
L 1759 2144 
Q 1053 2284 737 2584 
Q 422 2884 422 3419 
Q 422 4038 858 4394 
Q 1294 4750 2059 4750 
Q 2388 4750 2728 4690 
Q 3069 4631 3425 4513 
z
" transform="scale(0.015625)"/>
      <path id="DejaVuSans-3a" d="M 750 794 
L 1409 794 
L 1409 0 
L 750 0 
L 750 794 
z
M 750 3309 
L 1409 3309 
L 1409 2516 
L 750 2516 
L 750 3309 
z
" transform="scale(0.015625)"/>
      <path id="DejaVuSans-20" transform="scale(0.015625)"/>
      <path id="DejaVuSans-38" d="M 2034 2216 
Q 1584 2216 1326 1975 
Q 1069 1734 1069 1313 
Q 1069 891 1326 650 
Q 1584 409 2034 409 
Q 2484 409 2743 651 
Q 3003 894 3003 1313 
Q 3003 1734 2745 1975 
Q 2488 2216 2034 2216 
z
M 1403 2484 
Q 997 2584 770 2862 
Q 544 3141 544 3541 
Q 544 4100 942 4425 
Q 1341 4750 2034 4750 
Q 2731 4750 3128 4425 
Q 3525 4100 3525 3541 
Q 3525 3141 3298 2862 
Q 3072 2584 2669 2484 
Q 3125 2378 3379 2068 
Q 3634 1759 3634 1313 
Q 3634 634 3220 271 
Q 2806 -91 2034 -91 
Q 1263 -91 848 271 
Q 434 634 434 1313 
Q 434 1759 690 2068 
Q 947 2378 1403 2484 
z
M 1172 3481 
Q 1172 3119 1398 2916 
Q 1625 2713 2034 2713 
Q 2441 2713 2670 2916 
Q 2900 3119 2900 3481 
Q 2900 3844 2670 4047 
Q 2441 4250 2034 4250 
Q 1625 4250 1398 4047 
Q 1172 3844 1172 3481 
z
" transform="scale(0.015625)"/>
      <path id="DejaVuSans-2c" d="M 750 794 
L 1409 794 
L 1409 256 
L 897 -744 
L 494 -744 
L 750 256 
L 750 794 
z
" transform="scale(0.015625)"/>
      <path id="DejaVuSans-44" d="M 1259 4147 
L 1259 519 
L 2022 519 
Q 2988 519 3436 956 
Q 3884 1394 3884 2338 
Q 3884 3275 3436 3711 
Q 2988 4147 2022 4147 
L 1259 4147 
z
M 628 4666 
L 1925 4666 
Q 3281 4666 3915 4102 
Q 4550 3538 4550 2338 
Q 4550 1131 3912 565 
Q 3275 0 1925 0 
L 628 0 
L 628 4666 
z
" transform="scale(0.015625)"/>
      <path id="DejaVuSans-50" d="M 1259 4147 
L 1259 2394 
L 2053 2394 
Q 2494 2394 2734 2622 
Q 2975 2850 2975 3272 
Q 2975 3691 2734 3919 
Q 2494 4147 2053 4147 
L 1259 4147 
z
M 628 4666 
L 2053 4666 
Q 2838 4666 3239 4311 
Q 3641 3956 3641 3272 
Q 3641 2581 3239 2228 
Q 2838 1875 2053 1875 
L 1259 1875 
L 1259 0 
L 628 0 
L 628 4666 
z
" transform="scale(0.015625)"/>
      <path id="DejaVuSans-48" d="M 628 4666 
L 1259 4666 
L 1259 2753 
L 3553 2753 
L 3553 4666 
L 4184 4666 
L 4184 0 
L 3553 0 
L 3553 2222 
L 1259 2222 
L 1259 0 
L 628 0 
L 628 4666 
z
" transform="scale(0.015625)"/>
      <path id="DejaVuSans-33" d="M 2597 2516 
Q 3050 2419 3304 2112 
Q 3559 1806 3559 1356 
Q 3559 666 3084 287 
Q 2609 -91 1734 -91 
Q 1441 -91 1130 -33 
Q 819 25 488 141 
L 488 750 
Q 750 597 1062 519 
Q 1375 441 1716 441 
Q 2309 441 2620 675 
Q 2931 909 2931 1356 
Q 2931 1769 2642 2001 
Q 2353 2234 1838 2234 
L 1294 2234 
L 1294 2753 
L 1863 2753 
Q 2328 2753 2575 2939 
Q 2822 3125 2822 3475 
Q 2822 3834 2567 4026 
Q 2313 4219 1838 4219 
Q 1578 4219 1281 4162 
Q 984 4106 628 3988 
L 628 4550 
Q 988 4650 1302 4700 
Q 1616 4750 1894 4750 
Q 2613 4750 3031 4423 
Q 3450 4097 3450 3541 
Q 3450 3153 3228 2886 
Q 3006 2619 2597 2516 
z
" transform="scale(0.015625)"/>
      <path id="DejaVuSans-30" d="M 2034 4250 
Q 1547 4250 1301 3770 
Q 1056 3291 1056 2328 
Q 1056 1369 1301 889 
Q 1547 409 2034 409 
Q 2525 409 2770 889 
Q 3016 1369 3016 2328 
Q 3016 3291 2770 3770 
Q 2525 4250 2034 4250 
z
M 2034 4750 
Q 2819 4750 3233 4129 
Q 3647 3509 3647 2328 
Q 3647 1150 3233 529 
Q 2819 -91 2034 -91 
Q 1250 -91 836 529 
Q 422 1150 422 2328 
Q 422 3509 836 4129 
Q 1250 4750 2034 4750 
z
" transform="scale(0.015625)"/>
     </defs>
     <use xlink:href="#DejaVuSans-54"/>
     <use xlink:href="#DejaVuSans-45" x="61.083984"/>
     <use xlink:href="#DejaVuSans-52" x="124.267578"/>
     <use xlink:href="#DejaVuSans-4d" x="193.75"/>
     <use xlink:href="#DejaVuSans-53" x="280.029297"/>
     <use xlink:href="#DejaVuSans-3a" x="343.505859"/>
     <use xlink:href="#DejaVuSans-20" x="377.197266"/>
     <use xlink:href="#DejaVuSans-38" x="408.984375"/>
     <use xlink:href="#DejaVuSans-2c" x="472.607422"/>
     <use xlink:href="#DejaVuSans-20" x="504.394531"/>
     <use xlink:href="#DejaVuSans-44" x="536.181641"/>
     <use xlink:href="#DejaVuSans-45" x="613.183594"/>
     <use xlink:href="#DejaVuSans-50" x="676.367188"/>
     <use xlink:href="#DejaVuSans-54" x="736.669922"/>
     <use xlink:href="#DejaVuSans-48" x="797.753906"/>
     <use xlink:href="#DejaVuSans-3a" x="872.949219"/>
     <use xlink:href="#DejaVuSans-33" x="906.640625"/>
     <use xlink:href="#DejaVuSans-30" x="970.263672"/>
    </g>
   </g>
   <g id="patch_2">
    <path d="M 362.409971 359.047845 
L 392.54007 359.047845 
L 392.54007 328.917746 
L 362.409971 328.917746 
z
" clip-path="url(#p29fd01c35d)" style="fill: #ffffff; stroke: #000000; stroke-width: 1.5; stroke-linejoin: miter"/>
   </g>
   <g id="patch_3">
    <path d="M 362.409971 127.277848 
L 392.54007 127.277848 
L 392.54007 97.147749 
L 362.409971 97.147749 
z
" clip-path="url(#p29fd01c35d)" style="fill: #ffffff; stroke: #000000; stroke-width: 1.5; stroke-linejoin: miter"/>
   </g>
   <g id="patch_4">
    <path d="M 362.409971 312.693846 
L 392.54007 312.693846 
L 392.54007 282.563746 
L 362.409971 282.563746 
z
" clip-path="url(#p29fd01c35d)" style="fill: #ffffff; stroke: #000000; stroke-width: 1.5; stroke-linejoin: miter"/>
   </g>
   <g id="patch_5">
    <path d="M 408.76397 359.047845 
L 438.89407 359.047845 
L 438.89407 328.917746 
L 408.76397 328.917746 
z
" clip-path="url(#p29fd01c35d)" style="fill: #ffffff; stroke: #000000; stroke-width: 1.5; stroke-linejoin: miter"/>
   </g>
   <g id="patch_6">
    <path d="M 470.183019 348.50231 
C 471.381609 348.50231 472.531268 348.026106 473.378799 347.178575 
C 474.22633 346.331044 474.702534 345.181385 474.702534 343.982795 
C 474.702534 342.784206 474.22633 341.634546 473.378799 340.787016 
C 472.531268 339.939485 471.381609 339.46328 470.183019 339.46328 
C 468.98443 339.46328 467.83477 339.939485 466.98724 340.787016 
C 466.139709 341.634546 465.663504 342.784206 465.663504 343.982795 
C 465.663504 345.181385 466.139709 346.331044 466.98724 347.178575 
C 467.83477 348.026106 468.98443 348.50231 470.183019 348.50231 
z
" clip-path="url(#p29fd01c35d)" style="stroke: #000000; stroke-width: 1.5; stroke-linejoin: miter"/>
   </g>
   <g id="patch_7">
    <path d="M 470.183019 539.944328 
C 472.979728 539.944328 475.662267 538.833184 477.639839 536.855612 
C 479.61741 534.878041 480.728554 532.195502 480.728554 529.398793 
C 480.728554 526.602084 479.61741 523.919545 477.639839 521.941974 
C 475.662267 519.964402 472.979728 518.853258 470.183019 518.853258 
C 467.386311 518.853258 464.703772 519.964402 462.7262 521.941974 
C 460.748629 523.919545 459.637484 526.602084 459.637484 529.398793 
C 459.637484 532.195502 460.748629 534.878041 462.7262 536.855612 
C 464.703772 538.833184 467.386311 539.944328 470.183019 539.944328 
z
" clip-path="url(#p29fd01c35d)" style="stroke: #000000; stroke-width: 2; stroke-linejoin: miter"/>
   </g>
   <g id="patch_8">
    <path d="M 516.537019 394.85631 
C 517.735608 394.85631 518.885268 394.380105 519.732798 393.532574 
C 520.580329 392.685044 521.056534 391.535384 521.056534 390.336795 
C 521.056534 389.138205 520.580329 387.988546 519.732798 387.141015 
C 518.885268 386.293484 517.735608 385.81728 516.537019 385.81728 
C 515.338429 385.81728 514.18877 386.293484 513.341239 387.141015 
C 512.493708 387.988546 512.017504 389.138205 512.017504 390.336795 
C 512.017504 391.535384 512.493708 392.685044 513.341239 393.532574 
C 514.18877 394.380105 515.338429 394.85631 516.537019 394.85631 
z
" clip-path="url(#p29fd01c35d)" style="stroke: #000000; stroke-width: 1.5; stroke-linejoin: miter"/>
   </g>
   <g id="patch_9">
    <path d="M 516.537019 539.944328 
C 519.333727 539.944328 522.016266 538.833184 523.993838 536.855612 
C 525.97141 534.878041 527.082554 532.195502 527.082554 529.398793 
C 527.082554 526.602084 525.97141 523.919545 523.993838 521.941974 
C 522.016266 519.964402 519.333727 518.853258 516.537019 518.853258 
C 513.74031 518.853258 511.057771 519.964402 509.0802 521.941974 
C 507.102628 523.919545 505.991484 526.602084 505.991484 529.398793 
C 505.991484 532.195502 507.102628 534.878041 509.0802 536.855612 
C 511.057771 538.833184 513.74031 539.944328 516.537019 539.944328 
z
" clip-path="url(#p29fd01c35d)" style="stroke: #000000; stroke-width: 2; stroke-linejoin: miter"/>
   </g>
   <g id="patch_10">
    <path d="M 501.471969 359.047845 
L 531.602069 359.047845 
L 531.602069 328.917746 
L 501.471969 328.917746 
z
" clip-path="url(#p29fd01c35d)" style="fill: #ffffff; stroke: #000000; stroke-width: 1.5; stroke-linejoin: miter"/>
   </g>
   <g id="patch_11">
    <path d="M 562.891018 441.210309 
C 564.089607 441.210309 565.239267 440.734105 566.086798 439.886574 
C 566.934328 439.039043 567.410533 437.889384 567.410533 436.690794 
C 567.410533 435.492205 566.934328 434.342545 566.086798 433.495015 
C 565.239267 432.647484 564.089607 432.171279 562.891018 432.171279 
C 561.692429 432.171279 560.542769 432.647484 559.695238 433.495015 
C 558.847708 434.342545 558.371503 435.492205 558.371503 436.690794 
C 558.371503 437.889384 558.847708 439.039043 559.695238 439.886574 
C 560.542769 440.734105 561.692429 441.210309 562.891018 441.210309 
z
" clip-path="url(#p29fd01c35d)" style="stroke: #000000; stroke-width: 1.5; stroke-linejoin: miter"/>
   </g>
   <g id="patch_12">
    <path d="M 562.891018 539.944328 
C 565.687727 539.944328 568.370266 538.833184 570.347837 536.855612 
C 572.325409 534.878041 573.436553 532.195502 573.436553 529.398793 
C 573.436553 526.602084 572.325409 523.919545 570.347837 521.941974 
C 568.370266 519.964402 565.687727 518.853258 562.891018 518.853258 
C 560.09431 518.853258 557.41177 519.964402 555.434199 521.941974 
C 553.456627 523.919545 552.345483 526.602084 552.345483 529.398793 
C 552.345483 532.195502 553.456627 534.878041 555.434199 536.855612 
C 557.41177 538.833184 560.09431 539.944328 562.891018 539.944328 
z
" clip-path="url(#p29fd01c35d)" style="stroke: #000000; stroke-width: 2; stroke-linejoin: miter"/>
   </g>
   <g id="patch_13">
    <path d="M 547.825968 359.047845 
L 577.956068 359.047845 
L 577.956068 328.917746 
L 547.825968 328.917746 
z
" clip-path="url(#p29fd01c35d)" style="fill: #ffffff; stroke: #000000; stroke-width: 1.5; stroke-linejoin: miter"/>
   </g>
   <g id="patch_14">
    <path d="M 609.245018 487.564309 
C 610.443607 487.564309 611.593266 487.088104 612.440797 486.240573 
C 613.288328 485.393043 613.764532 484.243383 613.764532 483.044794 
C 613.764532 481.846204 613.288328 480.696545 612.440797 479.849014 
C 611.593266 479.001483 610.443607 478.525279 609.245018 478.525279 
C 608.046428 478.525279 606.896769 479.001483 606.049238 479.849014 
C 605.201707 480.696545 604.725503 481.846204 604.725503 483.044794 
C 604.725503 484.243383 605.201707 485.393043 606.049238 486.240573 
C 606.896769 487.088104 608.046428 487.564309 609.245018 487.564309 
z
" clip-path="url(#p29fd01c35d)" style="stroke: #000000; stroke-width: 1.5; stroke-linejoin: miter"/>
   </g>
   <g id="patch_15">
    <path d="M 609.245018 539.944328 
C 612.041726 539.944328 614.724265 538.833184 616.701837 536.855612 
C 618.679408 534.878041 619.790552 532.195502 619.790552 529.398793 
C 619.790552 526.602084 618.679408 523.919545 616.701837 521.941974 
C 614.724265 519.964402 612.041726 518.853258 609.245018 518.853258 
C 606.448309 518.853258 603.76577 519.964402 601.788198 521.941974 
C 599.810627 523.919545 598.699483 526.602084 598.699483 529.398793 
C 598.699483 532.195502 599.810627 534.878041 601.788198 536.855612 
C 603.76577 538.833184 606.448309 539.944328 609.245018 539.944328 
z
" clip-path="url(#p29fd01c35d)" style="stroke: #000000; stroke-width: 2; stroke-linejoin: miter"/>
   </g>
   <g id="patch_16">
    <path d="M 609.245018 348.50231 
C 610.443607 348.50231 611.593266 348.026106 612.440797 347.178575 
C 613.288328 346.331044 613.764532 345.181385 613.764532 343.982795 
C 613.764532 342.784206 613.288328 341.634546 612.440797 340.787016 
C 611.593266 339.939485 610.443607 339.46328 609.245018 339.46328 
C 608.046428 339.46328 606.896769 339.939485 606.049238 340.787016 
C 605.201707 341.634546 604.725503 342.784206 604.725503 343.982795 
C 604.725503 345.181385 605.201707 346.331044 606.049238 347.178575 
C 606.896769 348.026106 608.046428 348.50231 609.245018 348.50231 
z
" clip-path="url(#p29fd01c35d)" style="stroke: #000000; stroke-width: 1.5; stroke-linejoin: miter"/>
   </g>
   <g id="patch_17">
    <path d="M 609.245018 169.112333 
C 612.041726 169.112333 614.724265 168.001189 616.701837 166.023617 
C 618.679408 164.046046 619.790552 161.363506 619.790552 158.566798 
C 619.790552 155.770089 618.679408 153.08755 616.701837 151.109979 
C 614.724265 149.132407 612.041726 148.021263 609.245018 148.021263 
C 606.448309 148.021263 603.76577 149.132407 601.788198 151.109979 
C 599.810627 153.08755 598.699483 155.770089 598.699483 158.566798 
C 598.699483 161.363506 599.810627 164.046046 601.788198 166.023617 
C 603.76577 168.001189 606.448309 169.112333 609.245018 169.112333 
z
" clip-path="url(#p29fd01c35d)" style="stroke: #000000; stroke-width: 2; stroke-linejoin: miter"/>
   </g>
   <g id="patch_18">
    <path d="M 637.006428 544.463843 
L 674.191606 544.463843 
L 674.191606 514.333743 
L 637.006428 514.333743 
z
" clip-path="url(#p29fd01c35d)" style="fill: #ffffff; stroke: #000000; stroke-width: 1.5; stroke-linejoin: miter"/>
   </g>
   <g id="patch_19">
    <path d="M 655.599017 394.85631 
C 656.797606 394.85631 657.947266 394.380105 658.794797 393.532574 
C 659.642327 392.685044 660.118532 391.535384 660.118532 390.336795 
C 660.118532 389.138205 659.642327 387.988546 658.794797 387.141015 
C 657.947266 386.293484 656.797606 385.81728 655.599017 385.81728 
C 654.400428 385.81728 653.250768 386.293484 652.403237 387.141015 
C 651.555707 387.988546 651.079502 389.138205 651.079502 390.336795 
C 651.079502 391.535384 651.555707 392.685044 652.403237 393.532574 
C 653.250768 394.380105 654.400428 394.85631 655.599017 394.85631 
z
" clip-path="url(#p29fd01c35d)" style="stroke: #000000; stroke-width: 1.5; stroke-linejoin: miter"/>
   </g>
   <g id="patch_20">
    <path d="M 655.599017 169.112333 
C 658.395725 169.112333 661.078265 168.001189 663.055836 166.023617 
C 665.033408 164.046046 666.144552 161.363506 666.144552 158.566798 
C 666.144552 155.770089 665.033408 153.08755 663.055836 151.109979 
C 661.078265 149.132407 658.395725 148.021263 655.599017 148.021263 
C 652.802308 148.021263 650.119769 149.132407 648.142198 151.109979 
C 646.164626 153.08755 645.053482 155.770089 645.053482 158.566798 
C 645.053482 161.363506 646.164626 164.046046 648.142198 166.023617 
C 650.119769 168.001189 652.802308 169.112333 655.599017 169.112333 
z
" clip-path="url(#p29fd01c35d)" style="stroke: #000000; stroke-width: 2; stroke-linejoin: miter"/>
   </g>
   <g id="patch_21">
    <path d="M 701.953016 441.210309 
C 703.151606 441.210309 704.301265 440.734105 705.148796 439.886574 
C 705.996327 439.039043 706.472531 437.889384 706.472531 436.690794 
C 706.472531 435.492205 705.996327 434.342545 705.148796 433.495015 
C 704.301265 432.647484 703.151606 432.171279 701.953016 432.171279 
C 700.754427 432.171279 699.604767 432.647484 698.757237 433.495015 
C 697.909706 434.342545 697.433501 435.492205 697.433501 436.690794 
C 697.433501 437.889384 697.909706 439.039043 698.757237 439.886574 
C 699.604767 440.734105 700.754427 441.210309 701.953016 441.210309 
z
" clip-path="url(#p29fd01c35d)" style="stroke: #000000; stroke-width: 1.5; stroke-linejoin: miter"/>
   </g>
   <g id="patch_22">
    <path d="M 701.953016 169.112333 
C 704.749725 169.112333 707.432264 168.001189 709.409835 166.023617 
C 711.387407 164.046046 712.498551 161.363506 712.498551 158.566798 
C 712.498551 155.770089 711.387407 153.08755 709.409835 151.109979 
C 707.432264 149.132407 704.749725 148.021263 701.953016 148.021263 
C 699.156308 148.021263 696.473769 149.132407 694.496197 151.109979 
C 692.518625 153.08755 691.407481 155.770089 691.407481 158.566798 
C 691.407481 161.363506 692.518625 164.046046 694.496197 166.023617 
C 696.473769 168.001189 699.156308 169.112333 701.953016 169.112333 
z
" clip-path="url(#p29fd01c35d)" style="stroke: #000000; stroke-width: 2; stroke-linejoin: miter"/>
   </g>
   <g id="patch_23">
    <path d="M 686.887966 544.463843 
L 717.018066 544.463843 
L 717.018066 514.333743 
L 686.887966 514.333743 
z
" clip-path="url(#p29fd01c35d)" style="fill: #ffffff; stroke: #000000; stroke-width: 1.5; stroke-linejoin: miter"/>
   </g>
   <g id="patch_24">
    <path d="M 748.307016 487.564309 
C 749.505605 487.564309 750.655265 487.088104 751.502795 486.240573 
C 752.350326 485.393043 752.826531 484.243383 752.826531 483.044794 
C 752.826531 481.846204 752.350326 480.696545 751.502795 479.849014 
C 750.655265 479.001483 749.505605 478.525279 748.307016 478.525279 
C 747.108426 478.525279 745.958767 479.001483 745.111236 479.849014 
C 744.263705 480.696545 743.787501 481.846204 743.787501 483.044794 
C 743.787501 484.243383 744.263705 485.393043 745.111236 486.240573 
C 745.958767 487.088104 747.108426 487.564309 748.307016 487.564309 
z
" clip-path="url(#p29fd01c35d)" style="stroke: #000000; stroke-width: 1.5; stroke-linejoin: miter"/>
   </g>
   <g id="patch_25">
    <path d="M 748.307016 169.112333 
C 751.103724 169.112333 753.786263 168.001189 755.763835 166.023617 
C 757.741406 164.046046 758.852551 161.363506 758.852551 158.566798 
C 758.852551 155.770089 757.741406 153.08755 755.763835 151.109979 
C 753.786263 149.132407 751.103724 148.021263 748.307016 148.021263 
C 745.510307 148.021263 742.827768 149.132407 740.850196 151.109979 
C 738.872625 153.08755 737.761481 155.770089 737.761481 158.566798 
C 737.761481 161.363506 738.872625 164.046046 740.850196 166.023617 
C 742.827768 168.001189 745.510307 169.112333 748.307016 169.112333 
z
" clip-path="url(#p29fd01c35d)" style="stroke: #000000; stroke-width: 2; stroke-linejoin: miter"/>
   </g>
   <g id="patch_26">
    <path d="M 733.241966 544.463843 
L 763.372065 544.463843 
L 763.372065 514.333743 
L 733.241966 514.333743 
z
" clip-path="url(#p29fd01c35d)" style="fill: #ffffff; stroke: #000000; stroke-width: 1.5; stroke-linejoin: miter"/>
   </g>
   <g id="patch_27">
    <path d="M 794.661015 533.918308 
C 795.859604 533.918308 797.009264 533.442103 797.856795 532.594573 
C 798.704325 531.747042 799.18053 530.597382 799.18053 529.398793 
C 799.18053 528.200204 798.704325 527.050544 797.856795 526.203013 
C 797.009264 525.355483 795.859604 524.879278 794.661015 524.879278 
C 793.462426 524.879278 792.312766 525.355483 791.465235 526.203013 
C 790.617705 527.050544 790.1415 528.200204 790.1415 529.398793 
C 790.1415 530.597382 790.617705 531.747042 791.465235 532.594573 
C 792.312766 533.442103 793.462426 533.918308 794.661015 533.918308 
z
" clip-path="url(#p29fd01c35d)" style="stroke: #000000; stroke-width: 1.5; stroke-linejoin: miter"/>
   </g>
   <g id="patch_28">
    <path d="M 794.661015 169.112333 
C 797.457724 169.112333 800.140263 168.001189 802.117834 166.023617 
C 804.095406 164.046046 805.20655 161.363506 805.20655 158.566798 
C 805.20655 155.770089 804.095406 153.08755 802.117834 151.109979 
C 800.140263 149.132407 797.457724 148.021263 794.661015 148.021263 
C 791.864307 148.021263 789.181767 149.132407 787.204196 151.109979 
C 785.226624 153.08755 784.11548 155.770089 784.11548 158.566798 
C 784.11548 161.363506 785.226624 164.046046 787.204196 166.023617 
C 789.181767 168.001189 791.864307 169.112333 794.661015 169.112333 
z
" clip-path="url(#p29fd01c35d)" style="stroke: #000000; stroke-width: 2; stroke-linejoin: miter"/>
   </g>
   <g id="patch_29">
    <path d="M 823.337917 173.631848 
L 858.692112 173.631848 
L 858.692112 143.501748 
L 823.337917 143.501748 
z
" clip-path="url(#p29fd01c35d)" style="fill: #ffffff; stroke: #000000; stroke-width: 1.5; stroke-linejoin: miter"/>
   </g>
   <g id="patch_30">
    <path d="M 887.369014 487.564309 
C 888.567603 487.564309 889.717263 487.088104 890.564793 486.240573 
C 891.412324 485.393043 891.888529 484.243383 891.888529 483.044794 
C 891.888529 481.846204 891.412324 480.696545 890.564793 479.849014 
C 889.717263 479.001483 888.567603 478.525279 887.369014 478.525279 
C 886.170424 478.525279 885.020765 479.001483 884.173234 479.849014 
C 883.325703 480.696545 882.849499 481.846204 882.849499 483.044794 
C 882.849499 484.243383 883.325703 485.393043 884.173234 486.240573 
C 885.020765 487.088104 886.170424 487.564309 887.369014 487.564309 
z
" clip-path="url(#p29fd01c35d)" style="stroke: #000000; stroke-width: 1.5; stroke-linejoin: miter"/>
   </g>
   <g id="patch_31">
    <path d="M 887.369014 169.112333 
C 890.165722 169.112333 892.848261 168.001189 894.825833 166.023617 
C 896.803405 164.046046 897.914549 161.363506 897.914549 158.566798 
C 897.914549 155.770089 896.803405 153.08755 894.825833 151.109979 
C 892.848261 149.132407 890.165722 148.021263 887.369014 148.021263 
C 884.572305 148.021263 881.889766 149.132407 879.912195 151.109979 
C 877.934623 153.08755 876.823479 155.770089 876.823479 158.566798 
C 876.823479 161.363506 877.934623 164.046046 879.912195 166.023617 
C 881.889766 168.001189 884.572305 169.112333 887.369014 169.112333 
z
" clip-path="url(#p29fd01c35d)" style="stroke: #000000; stroke-width: 2; stroke-linejoin: miter"/>
   </g>
   <g id="patch_32">
    <path d="M 933.723013 394.85631 
C 934.921603 394.85631 936.071262 394.380105 936.918793 393.532574 
C 937.766324 392.685044 938.242528 391.535384 938.242528 390.336795 
C 938.242528 389.138205 937.766324 387.988546 936.918793 387.141015 
C 936.071262 386.293484 934.921603 385.81728 933.723013 385.81728 
C 932.524424 385.81728 931.374764 386.293484 930.527234 387.141015 
C 929.679703 387.988546 929.203498 389.138205 929.203498 390.336795 
C 929.203498 391.535384 929.679703 392.685044 930.527234 393.532574 
C 931.374764 394.380105 932.524424 394.85631 933.723013 394.85631 
z
" clip-path="url(#p29fd01c35d)" style="stroke: #000000; stroke-width: 1.5; stroke-linejoin: miter"/>
   </g>
   <g id="patch_33">
    <path d="M 933.723013 169.112333 
C 936.519722 169.112333 939.202261 168.001189 941.179832 166.023617 
C 943.157404 164.046046 944.268548 161.363506 944.268548 158.566798 
C 944.268548 155.770089 943.157404 153.08755 941.179832 151.109979 
C 939.202261 149.132407 936.519722 148.021263 933.723013 148.021263 
C 930.926305 148.021263 928.243766 149.132407 926.266194 151.109979 
C 924.288622 153.08755 923.177478 155.770089 923.177478 158.566798 
C 923.177478 161.363506 924.288622 164.046046 926.266194 166.023617 
C 928.243766 168.001189 930.926305 169.112333 933.723013 169.112333 
z
" clip-path="url(#p29fd01c35d)" style="stroke: #000000; stroke-width: 2; stroke-linejoin: miter"/>
   </g>
   <g id="patch_34">
    <path d="M 980.077013 487.564309 
C 981.275602 487.564309 982.425262 487.088104 983.272792 486.240573 
C 984.120323 485.393043 984.596528 484.243383 984.596528 483.044794 
C 984.596528 481.846204 984.120323 480.696545 983.272792 479.849014 
C 982.425262 479.001483 981.275602 478.525279 980.077013 478.525279 
C 978.878423 478.525279 977.728764 479.001483 976.881233 479.849014 
C 976.033702 480.696545 975.557498 481.846204 975.557498 483.044794 
C 975.557498 484.243383 976.033702 485.393043 976.881233 486.240573 
C 977.728764 487.088104 978.878423 487.564309 980.077013 487.564309 
z
" clip-path="url(#p29fd01c35d)" style="stroke: #000000; stroke-width: 1.5; stroke-linejoin: miter"/>
   </g>
   <g id="patch_35">
    <path d="M 980.077013 261.820332 
C 982.873721 261.820332 985.55626 260.709187 987.533832 258.731616 
C 989.511403 256.754044 990.622547 254.071505 990.622547 251.274797 
C 990.622547 248.478088 989.511403 245.795549 987.533832 243.817977 
C 985.55626 241.840406 982.873721 240.729262 980.077013 240.729262 
C 977.280304 240.729262 974.597765 241.840406 972.620193 243.817977 
C 970.642622 245.795549 969.531478 248.478088 969.531478 251.274797 
C 969.531478 254.071505 970.642622 256.754044 972.620193 258.731616 
C 974.597765 260.709187 977.280304 261.820332 980.077013 261.820332 
z
" clip-path="url(#p29fd01c35d)" style="stroke: #000000; stroke-width: 2; stroke-linejoin: miter"/>
   </g>
   <g id="patch_36">
    <path d="M 1026.431012 348.50231 
C 1027.629601 348.50231 1028.779261 348.026106 1029.626792 347.178575 
C 1030.474322 346.331044 1030.950527 345.181385 1030.950527 343.982795 
C 1030.950527 342.784206 1030.474322 341.634546 1029.626792 340.787016 
C 1028.779261 339.939485 1027.629601 339.46328 1026.431012 339.46328 
C 1025.232423 339.46328 1024.082763 339.939485 1023.235232 340.787016 
C 1022.387702 341.634546 1021.911497 342.784206 1021.911497 343.982795 
C 1021.911497 345.181385 1022.387702 346.331044 1023.235232 347.178575 
C 1024.082763 348.026106 1025.232423 348.50231 1026.431012 348.50231 
z
" clip-path="url(#p29fd01c35d)" style="stroke: #000000; stroke-width: 1.5; stroke-linejoin: miter"/>
   </g>
   <g id="patch_37">
    <path d="M 1026.431012 169.112333 
C 1029.22772 169.112333 1031.91026 168.001189 1033.887831 166.023617 
C 1035.865403 164.046046 1036.976547 161.363506 1036.976547 158.566798 
C 1036.976547 155.770089 1035.865403 153.08755 1033.887831 151.109979 
C 1031.91026 149.132407 1029.22772 148.021263 1026.431012 148.021263 
C 1023.634303 148.021263 1020.951764 149.132407 1018.974193 151.109979 
C 1016.996621 153.08755 1015.885477 155.770089 1015.885477 158.566798 
C 1015.885477 161.363506 1016.996621 164.046046 1018.974193 166.023617 
C 1020.951764 168.001189 1023.634303 169.112333 1026.431012 169.112333 
z
" clip-path="url(#p29fd01c35d)" style="stroke: #000000; stroke-width: 2; stroke-linejoin: miter"/>
   </g>
   <g id="patch_38">
    <path d="M 1011.365962 405.401845 
L 1041.496062 405.401845 
L 1041.496062 375.271745 
L 1011.365962 375.271745 
z
" clip-path="url(#p29fd01c35d)" style="fill: #ffffff; stroke: #000000; stroke-width: 1.5; stroke-linejoin: miter"/>
   </g>
   <g id="patch_39">
    <path d="M 1072.785011 302.148311 
C 1073.983601 302.148311 1075.13326 301.672106 1075.980791 300.824576 
C 1076.828322 299.977045 1077.304526 298.827385 1077.304526 297.628796 
C 1077.304526 296.430207 1076.828322 295.280547 1075.980791 294.433016 
C 1075.13326 293.585486 1073.983601 293.109281 1072.785011 293.109281 
C 1071.586422 293.109281 1070.436762 293.585486 1069.589232 294.433016 
C 1068.741701 295.280547 1068.265496 296.430207 1068.265496 297.628796 
C 1068.265496 298.827385 1068.741701 299.977045 1069.589232 300.824576 
C 1070.436762 301.672106 1071.586422 302.148311 1072.785011 302.148311 
z
" clip-path="url(#p29fd01c35d)" style="stroke: #000000; stroke-width: 1.5; stroke-linejoin: miter"/>
   </g>
   <g id="patch_40">
    <path d="M 1072.785011 261.820332 
C 1075.58172 261.820332 1078.264259 260.709187 1080.241831 258.731616 
C 1082.219402 256.754044 1083.330546 254.071505 1083.330546 251.274797 
C 1083.330546 248.478088 1082.219402 245.795549 1080.241831 243.817977 
C 1078.264259 241.840406 1075.58172 240.729262 1072.785011 240.729262 
C 1069.988303 240.729262 1067.305764 241.840406 1065.328192 243.817977 
C 1063.350621 245.795549 1062.239476 248.478088 1062.239476 251.274797 
C 1062.239476 254.071505 1063.350621 256.754044 1065.328192 258.731616 
C 1067.305764 260.709187 1069.988303 261.820332 1072.785011 261.820332 
z
" clip-path="url(#p29fd01c35d)" style="stroke: #000000; stroke-width: 2; stroke-linejoin: miter"/>
   </g>
   <g id="patch_41">
    <path d="M 1057.719962 359.047845 
L 1087.850061 359.047845 
L 1087.850061 328.917746 
L 1057.719962 328.917746 
z
" clip-path="url(#p29fd01c35d)" style="fill: #ffffff; stroke: #000000; stroke-width: 1.5; stroke-linejoin: miter"/>
   </g>
   <g id="patch_42">
    <path d="M 1057.719962 173.631848 
L 1087.850061 173.631848 
L 1087.850061 143.501748 
L 1057.719962 143.501748 
z
" clip-path="url(#p29fd01c35d)" style="fill: #ffffff; stroke: #000000; stroke-width: 1.5; stroke-linejoin: miter"/>
   </g>
   <g id="patch_43">
    <path d="M 1057.719962 405.401845 
L 1087.850061 405.401845 
L 1087.850061 375.271745 
L 1057.719962 375.271745 
z
" clip-path="url(#p29fd01c35d)" style="fill: #ffffff; stroke: #000000; stroke-width: 1.5; stroke-linejoin: miter"/>
   </g>
   <g id="patch_44">
    <path d="M 1097.841666 266.339846 
L 1140.436356 266.339846 
L 1140.436356 236.209747 
L 1097.841666 236.209747 
z
" clip-path="url(#p29fd01c35d)" style="fill: #ffffff; stroke: #000000; stroke-width: 1.5; stroke-linejoin: miter"/>
   </g>
   <g id="patch_45">
    <path d="M 1104.073961 359.047845 
L 1134.204061 359.047845 
L 1134.204061 328.917746 
L 1104.073961 328.917746 
z
" clip-path="url(#p29fd01c35d)" style="fill: #ffffff; stroke: #000000; stroke-width: 1.5; stroke-linejoin: miter"/>
   </g>
   <g id="patch_46">
    <path d="M 1165.49301 302.148311 
C 1166.691599 302.148311 1167.841259 301.672106 1168.68879 300.824576 
C 1169.53632 299.977045 1170.012525 298.827385 1170.012525 297.628796 
C 1170.012525 296.430207 1169.53632 295.280547 1168.68879 294.433016 
C 1167.841259 293.585486 1166.691599 293.109281 1165.49301 293.109281 
C 1164.294421 293.109281 1163.144761 293.585486 1162.29723 294.433016 
C 1161.4497 295.280547 1160.973495 296.430207 1160.973495 297.628796 
C 1160.973495 298.827385 1161.4497 299.977045 1162.29723 300.824576 
C 1163.144761 301.672106 1164.294421 302.148311 1165.49301 302.148311 
z
" clip-path="url(#p29fd01c35d)" style="stroke: #000000; stroke-width: 1.5; stroke-linejoin: miter"/>
   </g>
   <g id="patch_47">
    <path d="M 1165.49301 261.820332 
C 1168.289719 261.820332 1170.972258 260.709187 1172.949829 258.731616 
C 1174.927401 256.754044 1176.038545 254.071505 1176.038545 251.274797 
C 1176.038545 248.478088 1174.927401 245.795549 1172.949829 243.817977 
C 1170.972258 241.840406 1168.289719 240.729262 1165.49301 240.729262 
C 1162.696302 240.729262 1160.013762 241.840406 1158.036191 243.817977 
C 1156.058619 245.795549 1154.947475 248.478088 1154.947475 251.274797 
C 1154.947475 254.071505 1156.058619 256.754044 1158.036191 258.731616 
C 1160.013762 260.709187 1162.696302 261.820332 1165.49301 261.820332 
z
" clip-path="url(#p29fd01c35d)" style="stroke: #000000; stroke-width: 2; stroke-linejoin: miter"/>
   </g>
   <g id="patch_48">
    <path d="M 1211.847009 163.086313 
C 1213.045599 163.086313 1214.195258 162.610108 1215.042789 161.762578 
C 1215.89032 160.915047 1216.366524 159.765387 1216.366524 158.566798 
C 1216.366524 157.368209 1215.89032 156.218549 1215.042789 155.371018 
C 1214.195258 154.523488 1213.045599 154.047283 1211.847009 154.047283 
C 1210.64842 154.047283 1209.498761 154.523488 1208.65123 155.371018 
C 1207.803699 156.218549 1207.327495 157.368209 1207.327495 158.566798 
C 1207.327495 159.765387 1207.803699 160.915047 1208.65123 161.762578 
C 1209.498761 162.610108 1210.64842 163.086313 1211.847009 163.086313 
z
" clip-path="url(#p29fd01c35d)" style="stroke: #000000; stroke-width: 1.5; stroke-linejoin: miter"/>
   </g>
   <g id="patch_49">
    <path d="M 1211.847009 539.944328 
C 1214.643718 539.944328 1217.326257 538.833184 1219.303829 536.855612 
C 1221.2814 534.878041 1222.392544 532.195502 1222.392544 529.398793 
C 1222.392544 526.602084 1221.2814 523.919545 1219.303829 521.941974 
C 1217.326257 519.964402 1214.643718 518.853258 1211.847009 518.853258 
C 1209.050301 518.853258 1206.367762 519.964402 1204.39019 521.941974 
C 1202.412619 523.919545 1201.301475 526.602084 1201.301475 529.398793 
C 1201.301475 532.195502 1202.412619 534.878041 1204.39019 536.855612 
C 1206.367762 538.833184 1209.050301 539.944328 1211.847009 539.944328 
z
" clip-path="url(#p29fd01c35d)" style="stroke: #000000; stroke-width: 2; stroke-linejoin: miter"/>
   </g>
   <g id="patch_50">
    <path d="M 1243.135959 312.693846 
L 1273.266059 312.693846 
L 1273.266059 282.563746 
L 1243.135959 282.563746 
z
" clip-path="url(#p29fd01c35d)" style="fill: #ffffff; stroke: #000000; stroke-width: 1.5; stroke-linejoin: miter"/>
   </g>
   <g id="patch_51">
    <path d="M 1304.555008 487.564309 
C 1305.753598 487.564309 1306.903257 487.088104 1307.750788 486.240573 
C 1308.598319 485.393043 1309.074523 484.243383 1309.074523 483.044794 
C 1309.074523 481.846204 1308.598319 480.696545 1307.750788 479.849014 
C 1306.903257 479.001483 1305.753598 478.525279 1304.555008 478.525279 
C 1303.356419 478.525279 1302.206759 479.001483 1301.359229 479.849014 
C 1300.511698 480.696545 1300.035493 481.846204 1300.035493 483.044794 
C 1300.035493 484.243383 1300.511698 485.393043 1301.359229 486.240573 
C 1302.206759 487.088104 1303.356419 487.564309 1304.555008 487.564309 
z
" clip-path="url(#p29fd01c35d)" style="stroke: #000000; stroke-width: 1.5; stroke-linejoin: miter"/>
   </g>
   <g id="patch_52">
    <path d="M 1304.555008 261.820332 
C 1307.351717 261.820332 1310.034256 260.709187 1312.011827 258.731616 
C 1313.989399 256.754044 1315.100543 254.071505 1315.100543 251.274797 
C 1315.100543 248.478088 1313.989399 245.795549 1312.011827 243.817977 
C 1310.034256 241.840406 1307.351717 240.729262 1304.555008 240.729262 
C 1301.7583 240.729262 1299.075761 241.840406 1297.098189 243.817977 
C 1295.120617 245.795549 1294.009473 248.478088 1294.009473 251.274797 
C 1294.009473 254.071505 1295.120617 256.754044 1297.098189 258.731616 
C 1299.075761 260.709187 1301.7583 261.820332 1304.555008 261.820332 
z
" clip-path="url(#p29fd01c35d)" style="stroke: #000000; stroke-width: 2; stroke-linejoin: miter"/>
   </g>
   <g id="patch_53">
    <path d="M 1350.909008 209.440312 
C 1352.107597 209.440312 1353.257257 208.964108 1354.104787 208.116577 
C 1354.952318 207.269046 1355.428523 206.119387 1355.428523 204.920797 
C 1355.428523 203.722208 1354.952318 202.572548 1354.104787 201.725018 
C 1353.257257 200.877487 1352.107597 200.401282 1350.909008 200.401282 
C 1349.710418 200.401282 1348.560759 200.877487 1347.713228 201.725018 
C 1346.865697 202.572548 1346.389493 203.722208 1346.389493 204.920797 
C 1346.389493 206.119387 1346.865697 207.269046 1347.713228 208.116577 
C 1348.560759 208.964108 1349.710418 209.440312 1350.909008 209.440312 
z
" clip-path="url(#p29fd01c35d)" style="stroke: #000000; stroke-width: 1.5; stroke-linejoin: miter"/>
   </g>
   <g id="patch_54">
    <path d="M 1350.909008 539.944328 
C 1353.705716 539.944328 1356.388255 538.833184 1358.365827 536.855612 
C 1360.343398 534.878041 1361.454543 532.195502 1361.454543 529.398793 
C 1361.454543 526.602084 1360.343398 523.919545 1358.365827 521.941974 
C 1356.388255 519.964402 1353.705716 518.853258 1350.909008 518.853258 
C 1348.112299 518.853258 1345.42976 519.964402 1343.452188 521.941974 
C 1341.474617 523.919545 1340.363473 526.602084 1340.363473 529.398793 
C 1340.363473 532.195502 1341.474617 534.878041 1343.452188 536.855612 
C 1345.42976 538.833184 1348.112299 539.944328 1350.909008 539.944328 
z
" clip-path="url(#p29fd01c35d)" style="stroke: #000000; stroke-width: 2; stroke-linejoin: miter"/>
   </g>
   <g id="patch_55">
    <path d="M 1382.197957 266.339846 
L 1412.328057 266.339846 
L 1412.328057 236.209747 
L 1382.197957 236.209747 
z
" clip-path="url(#p29fd01c35d)" style="fill: #ffffff; stroke: #000000; stroke-width: 1.5; stroke-linejoin: miter"/>
   </g>
   <g id="patch_56">
    <path d="M 1443.617006 255.794312 
C 1444.815596 255.794312 1445.965255 255.318107 1446.812786 254.470576 
C 1447.660317 253.623046 1448.136521 252.473386 1448.136521 251.274797 
C 1448.136521 250.076207 1447.660317 248.926548 1446.812786 248.079017 
C 1445.965255 247.231486 1444.815596 246.755282 1443.617006 246.755282 
C 1442.418417 246.755282 1441.268757 247.231486 1440.421227 248.079017 
C 1439.573696 248.926548 1439.097491 250.076207 1439.097491 251.274797 
C 1439.097491 252.473386 1439.573696 253.623046 1440.421227 254.470576 
C 1441.268757 255.318107 1442.418417 255.794312 1443.617006 255.794312 
z
" clip-path="url(#p29fd01c35d)" style="stroke: #000000; stroke-width: 1.5; stroke-linejoin: miter"/>
   </g>
   <g id="patch_57">
    <path d="M 1443.617006 539.944328 
C 1446.413715 539.944328 1449.096254 538.833184 1451.073826 536.855612 
C 1453.051397 534.878041 1454.162541 532.195502 1454.162541 529.398793 
C 1454.162541 526.602084 1453.051397 523.919545 1451.073826 521.941974 
C 1449.096254 519.964402 1446.413715 518.853258 1443.617006 518.853258 
C 1440.820298 518.853258 1438.137759 519.964402 1436.160187 521.941974 
C 1434.182616 523.919545 1433.071472 526.602084 1433.071472 529.398793 
C 1433.071472 532.195502 1434.182616 534.878041 1436.160187 536.855612 
C 1438.137759 538.833184 1440.820298 539.944328 1443.617006 539.944328 
z
" clip-path="url(#p29fd01c35d)" style="stroke: #000000; stroke-width: 2; stroke-linejoin: miter"/>
   </g>
   <g id="patch_58">
    <path d="M 1489.971006 394.85631 
C 1491.169595 394.85631 1492.319255 394.380105 1493.166785 393.532574 
C 1494.014316 392.685044 1494.490521 391.535384 1494.490521 390.336795 
C 1494.490521 389.138205 1494.014316 387.988546 1493.166785 387.141015 
C 1492.319255 386.293484 1491.169595 385.81728 1489.971006 385.81728 
C 1488.772416 385.81728 1487.622757 386.293484 1486.775226 387.141015 
C 1485.927695 387.988546 1485.451491 389.138205 1485.451491 390.336795 
C 1485.451491 391.535384 1485.927695 392.685044 1486.775226 393.532574 
C 1487.622757 394.380105 1488.772416 394.85631 1489.971006 394.85631 
z
" clip-path="url(#p29fd01c35d)" style="stroke: #000000; stroke-width: 1.5; stroke-linejoin: miter"/>
   </g>
   <g id="patch_59">
    <path d="M 1489.971006 539.944328 
C 1492.767714 539.944328 1495.450253 538.833184 1497.427825 536.855612 
C 1499.405397 534.878041 1500.516541 532.195502 1500.516541 529.398793 
C 1500.516541 526.602084 1499.405397 523.919545 1497.427825 521.941974 
C 1495.450253 519.964402 1492.767714 518.853258 1489.971006 518.853258 
C 1487.174297 518.853258 1484.491758 519.964402 1482.514187 521.941974 
C 1480.536615 523.919545 1479.425471 526.602084 1479.425471 529.398793 
C 1479.425471 532.195502 1480.536615 534.878041 1482.514187 536.855612 
C 1484.491758 538.833184 1487.174297 539.944328 1489.971006 539.944328 
z
" clip-path="url(#p29fd01c35d)" style="stroke: #000000; stroke-width: 2; stroke-linejoin: miter"/>
   </g>
   <g id="patch_60">
    <path d="M 1536.325005 441.210309 
C 1537.523595 441.210309 1538.673254 440.734105 1539.520785 439.886574 
C 1540.368316 439.039043 1540.84452 437.889384 1540.84452 436.690794 
C 1540.84452 435.492205 1540.368316 434.342545 1539.520785 433.495015 
C 1538.673254 432.647484 1537.523595 432.171279 1536.325005 432.171279 
C 1535.126416 432.171279 1533.976756 432.647484 1533.129226 433.495015 
C 1532.281695 434.342545 1531.80549 435.492205 1531.80549 436.690794 
C 1531.80549 437.889384 1532.281695 439.039043 1533.129226 439.886574 
C 1533.976756 440.734105 1535.126416 441.210309 1536.325005 441.210309 
z
" clip-path="url(#p29fd01c35d)" style="stroke: #000000; stroke-width: 1.5; stroke-linejoin: miter"/>
   </g>
   <g id="patch_61">
    <path d="M 1536.325005 539.944328 
C 1539.121714 539.944328 1541.804253 538.833184 1543.781824 536.855612 
C 1545.759396 534.878041 1546.87054 532.195502 1546.87054 529.398793 
C 1546.87054 526.602084 1545.759396 523.919545 1543.781824 521.941974 
C 1541.804253 519.964402 1539.121714 518.853258 1536.325005 518.853258 
C 1533.528297 518.853258 1530.845758 519.964402 1528.868186 521.941974 
C 1526.890614 523.919545 1525.77947 526.602084 1525.77947 529.398793 
C 1525.77947 532.195502 1526.890614 534.878041 1528.868186 536.855612 
C 1530.845758 538.833184 1533.528297 539.944328 1536.325005 539.944328 
z
" clip-path="url(#p29fd01c35d)" style="stroke: #000000; stroke-width: 2; stroke-linejoin: miter"/>
   </g>
   <g id="patch_62">
    <path d="M 1582.679005 487.564309 
C 1583.877594 487.564309 1585.027254 487.088104 1585.874784 486.240573 
C 1586.722315 485.393043 1587.19852 484.243383 1587.19852 483.044794 
C 1587.19852 481.846204 1586.722315 480.696545 1585.874784 479.849014 
C 1585.027254 479.001483 1583.877594 478.525279 1582.679005 478.525279 
C 1581.480415 478.525279 1580.330756 479.001483 1579.483225 479.849014 
C 1578.635694 480.696545 1578.15949 481.846204 1578.15949 483.044794 
C 1578.15949 484.243383 1578.635694 485.393043 1579.483225 486.240573 
C 1580.330756 487.088104 1581.480415 487.564309 1582.679005 487.564309 
z
" clip-path="url(#p29fd01c35d)" style="stroke: #000000; stroke-width: 1.5; stroke-linejoin: miter"/>
   </g>
   <g id="patch_63">
    <path d="M 1582.679005 539.944328 
C 1585.475713 539.944328 1588.158252 538.833184 1590.135824 536.855612 
C 1592.113395 534.878041 1593.224539 532.195502 1593.224539 529.398793 
C 1593.224539 526.602084 1592.113395 523.919545 1590.135824 521.941974 
C 1588.158252 519.964402 1585.475713 518.853258 1582.679005 518.853258 
C 1579.882296 518.853258 1577.199757 519.964402 1575.222185 521.941974 
C 1573.244614 523.919545 1572.13347 526.602084 1572.13347 529.398793 
C 1572.13347 532.195502 1573.244614 534.878041 1575.222185 536.855612 
C 1577.199757 538.833184 1579.882296 539.944328 1582.679005 539.944328 
z
" clip-path="url(#p29fd01c35d)" style="stroke: #000000; stroke-width: 2; stroke-linejoin: miter"/>
   </g>
   <g id="patch_64">
    <path d="M 1611.355906 544.463843 
L 1646.710102 544.463843 
L 1646.710102 514.333743 
L 1611.355906 514.333743 
z
" clip-path="url(#p29fd01c35d)" style="fill: #ffffff; stroke: #000000; stroke-width: 1.5; stroke-linejoin: miter"/>
   </g>
   <g id="patch_65">
    <path d="M 1675.387003 487.564309 
C 1676.585593 487.564309 1677.735252 487.088104 1678.582783 486.240573 
C 1679.430314 485.393043 1679.906518 484.243383 1679.906518 483.044794 
C 1679.906518 481.846204 1679.430314 480.696545 1678.582783 479.849014 
C 1677.735252 479.001483 1676.585593 478.525279 1675.387003 478.525279 
C 1674.188414 478.525279 1673.038754 479.001483 1672.191224 479.849014 
C 1671.343693 480.696545 1670.867488 481.846204 1670.867488 483.044794 
C 1670.867488 484.243383 1671.343693 485.393043 1672.191224 486.240573 
C 1673.038754 487.088104 1674.188414 487.564309 1675.387003 487.564309 
z
" clip-path="url(#p29fd01c35d)" style="stroke: #000000; stroke-width: 1.5; stroke-linejoin: miter"/>
   </g>
   <g id="patch_66">
    <path d="M 1675.387003 539.944328 
C 1678.183712 539.944328 1680.866251 538.833184 1682.843823 536.855612 
C 1684.821394 534.878041 1685.932538 532.195502 1685.932538 529.398793 
C 1685.932538 526.602084 1684.821394 523.919545 1682.843823 521.941974 
C 1680.866251 519.964402 1678.183712 518.853258 1675.387003 518.853258 
C 1672.590295 518.853258 1669.907756 519.964402 1667.930184 521.941974 
C 1665.952613 523.919545 1664.841468 526.602084 1664.841468 529.398793 
C 1664.841468 532.195502 1665.952613 534.878041 1667.930184 536.855612 
C 1669.907756 538.833184 1672.590295 539.944328 1675.387003 539.944328 
z
" clip-path="url(#p29fd01c35d)" style="stroke: #000000; stroke-width: 2; stroke-linejoin: miter"/>
   </g>
   <g id="patch_67">
    <path d="M 1721.741003 441.210309 
C 1722.939592 441.210309 1724.089252 440.734105 1724.936782 439.886574 
C 1725.784313 439.039043 1726.260518 437.889384 1726.260518 436.690794 
C 1726.260518 435.492205 1725.784313 434.342545 1724.936782 433.495015 
C 1724.089252 432.647484 1722.939592 432.171279 1721.741003 432.171279 
C 1720.542413 432.171279 1719.392754 432.647484 1718.545223 433.495015 
C 1717.697692 434.342545 1717.221488 435.492205 1717.221488 436.690794 
C 1717.221488 437.889384 1717.697692 439.039043 1718.545223 439.886574 
C 1719.392754 440.734105 1720.542413 441.210309 1721.741003 441.210309 
z
" clip-path="url(#p29fd01c35d)" style="stroke: #000000; stroke-width: 1.5; stroke-linejoin: miter"/>
   </g>
   <g id="patch_68">
    <path d="M 1721.741003 539.944328 
C 1724.537711 539.944328 1727.22025 538.833184 1729.197822 536.855612 
C 1731.175394 534.878041 1732.286538 532.195502 1732.286538 529.398793 
C 1732.286538 526.602084 1731.175394 523.919545 1729.197822 521.941974 
C 1727.22025 519.964402 1724.537711 518.853258 1721.741003 518.853258 
C 1718.944294 518.853258 1716.261755 519.964402 1714.284184 521.941974 
C 1712.306612 523.919545 1711.195468 526.602084 1711.195468 529.398793 
C 1711.195468 532.195502 1712.306612 534.878041 1714.284184 536.855612 
C 1716.261755 538.833184 1718.944294 539.944328 1721.741003 539.944328 
z
" clip-path="url(#p29fd01c35d)" style="stroke: #000000; stroke-width: 2; stroke-linejoin: miter"/>
   </g>
   <g id="patch_69">
    <path d="M 1768.095002 394.85631 
C 1769.293591 394.85631 1770.443251 394.380105 1771.290782 393.532574 
C 1772.138312 392.685044 1772.614517 391.535384 1772.614517 390.336795 
C 1772.614517 389.138205 1772.138312 387.988546 1771.290782 387.141015 
C 1770.443251 386.293484 1769.293591 385.81728 1768.095002 385.81728 
C 1766.896413 385.81728 1765.746753 386.293484 1764.899222 387.141015 
C 1764.051692 387.988546 1763.575487 389.138205 1763.575487 390.336795 
C 1763.575487 391.535384 1764.051692 392.685044 1764.899222 393.532574 
C 1765.746753 394.380105 1766.896413 394.85631 1768.095002 394.85631 
z
" clip-path="url(#p29fd01c35d)" style="stroke: #000000; stroke-width: 1.5; stroke-linejoin: miter"/>
   </g>
   <g id="patch_70">
    <path d="M 1768.095002 539.944328 
C 1770.891711 539.944328 1773.57425 538.833184 1775.551821 536.855612 
C 1777.529393 534.878041 1778.640537 532.195502 1778.640537 529.398793 
C 1778.640537 526.602084 1777.529393 523.919545 1775.551821 521.941974 
C 1773.57425 519.964402 1770.891711 518.853258 1768.095002 518.853258 
C 1765.298294 518.853258 1762.615754 519.964402 1760.638183 521.941974 
C 1758.660611 523.919545 1757.549467 526.602084 1757.549467 529.398793 
C 1757.549467 532.195502 1758.660611 534.878041 1760.638183 536.855612 
C 1762.615754 538.833184 1765.298294 539.944328 1768.095002 539.944328 
z
" clip-path="url(#p29fd01c35d)" style="stroke: #000000; stroke-width: 2; stroke-linejoin: miter"/>
   </g>
   <g id="patch_71">
    <path d="M 1799.383952 405.401845 
L 1829.514051 405.401845 
L 1829.514051 375.271745 
L 1799.383952 375.271745 
z
" clip-path="url(#p29fd01c35d)" style="fill: #ffffff; stroke: #000000; stroke-width: 1.5; stroke-linejoin: miter"/>
   </g>
   <g id="patch_72">
    <path d="M 1860.803001 255.794312 
C 1862.00159 255.794312 1863.15125 255.318107 1863.998781 254.470576 
C 1864.846311 253.623046 1865.322516 252.473386 1865.322516 251.274797 
C 1865.322516 250.076207 1864.846311 248.926548 1863.998781 248.079017 
C 1863.15125 247.231486 1862.00159 246.755282 1860.803001 246.755282 
C 1859.604412 246.755282 1858.454752 247.231486 1857.607221 248.079017 
C 1856.759691 248.926548 1856.283486 250.076207 1856.283486 251.274797 
C 1856.283486 252.473386 1856.759691 253.623046 1857.607221 254.470576 
C 1858.454752 255.318107 1859.604412 255.794312 1860.803001 255.794312 
z
" clip-path="url(#p29fd01c35d)" style="stroke: #000000; stroke-width: 1.5; stroke-linejoin: miter"/>
   </g>
   <g id="patch_73">
    <path d="M 1860.803001 539.944328 
C 1863.599709 539.944328 1866.282249 538.833184 1868.25982 536.855612 
C 1870.237392 534.878041 1871.348536 532.195502 1871.348536 529.398793 
C 1871.348536 526.602084 1870.237392 523.919545 1868.25982 521.941974 
C 1866.282249 519.964402 1863.599709 518.853258 1860.803001 518.853258 
C 1858.006292 518.853258 1855.323753 519.964402 1853.346182 521.941974 
C 1851.36861 523.919545 1850.257466 526.602084 1850.257466 529.398793 
C 1850.257466 532.195502 1851.36861 534.878041 1853.346182 536.855612 
C 1855.323753 538.833184 1858.006292 539.944328 1860.803001 539.944328 
z
" clip-path="url(#p29fd01c35d)" style="stroke: #000000; stroke-width: 2; stroke-linejoin: miter"/>
   </g>
   <g id="patch_74">
    <path d="M 1892.09195 405.401845 
L 1922.22205 405.401845 
L 1922.22205 375.271745 
L 1892.09195 375.271745 
z
" clip-path="url(#p29fd01c35d)" style="fill: #ffffff; stroke: #000000; stroke-width: 1.5; stroke-linejoin: miter"/>
   </g>
   <g id="patch_75">
    <path d="M 1892.09195 266.339846 
L 1922.22205 266.339846 
L 1922.22205 236.209747 
L 1892.09195 236.209747 
z
" clip-path="url(#p29fd01c35d)" style="fill: #ffffff; stroke: #000000; stroke-width: 1.5; stroke-linejoin: miter"/>
   </g>
   <g id="patch_76">
    <path d="M 1953.511 209.440312 
C 1954.709589 209.440312 1955.859249 208.964108 1956.706779 208.116577 
C 1957.55431 207.269046 1958.030515 206.119387 1958.030515 204.920797 
C 1958.030515 203.722208 1957.55431 202.572548 1956.706779 201.725018 
C 1955.859249 200.877487 1954.709589 200.401282 1953.511 200.401282 
C 1952.31241 200.401282 1951.162751 200.877487 1950.31522 201.725018 
C 1949.467689 202.572548 1948.991485 203.722208 1948.991485 204.920797 
C 1948.991485 206.119387 1949.467689 207.269046 1950.31522 208.116577 
C 1951.162751 208.964108 1952.31241 209.440312 1953.511 209.440312 
z
" clip-path="url(#p29fd01c35d)" style="stroke: #000000; stroke-width: 1.5; stroke-linejoin: miter"/>
   </g>
   <g id="patch_77">
    <path d="M 1953.511 539.944328 
C 1956.307708 539.944328 1958.990247 538.833184 1960.967819 536.855612 
C 1962.94539 534.878041 1964.056535 532.195502 1964.056535 529.398793 
C 1964.056535 526.602084 1962.94539 523.919545 1960.967819 521.941974 
C 1958.990247 519.964402 1956.307708 518.853258 1953.511 518.853258 
C 1950.714291 518.853258 1948.031752 519.964402 1946.05418 521.941974 
C 1944.076609 523.919545 1942.965465 526.602084 1942.965465 529.398793 
C 1942.965465 532.195502 1944.076609 534.878041 1946.05418 536.855612 
C 1948.031752 538.833184 1950.714291 539.944328 1953.511 539.944328 
z
" clip-path="url(#p29fd01c35d)" style="stroke: #000000; stroke-width: 2; stroke-linejoin: miter"/>
   </g>
   <g id="patch_78">
    <path d="M 1999.864999 163.086313 
C 2001.063588 163.086313 2002.213248 162.610108 2003.060779 161.762578 
C 2003.908309 160.915047 2004.384514 159.765387 2004.384514 158.566798 
C 2004.384514 157.368209 2003.908309 156.218549 2003.060779 155.371018 
C 2002.213248 154.523488 2001.063588 154.047283 1999.864999 154.047283 
C 1998.66641 154.047283 1997.51675 154.523488 1996.669219 155.371018 
C 1995.821689 156.218549 1995.345484 157.368209 1995.345484 158.566798 
C 1995.345484 159.765387 1995.821689 160.915047 1996.669219 161.762578 
C 1997.51675 162.610108 1998.66641 163.086313 1999.864999 163.086313 
z
" clip-path="url(#p29fd01c35d)" style="stroke: #000000; stroke-width: 1.5; stroke-linejoin: miter"/>
   </g>
   <g id="patch_79">
    <path d="M 1999.864999 539.944328 
C 2002.661708 539.944328 2005.344247 538.833184 2007.321818 536.855612 
C 2009.29939 534.878041 2010.410534 532.195502 2010.410534 529.398793 
C 2010.410534 526.602084 2009.29939 523.919545 2007.321818 521.941974 
C 2005.344247 519.964402 2002.661708 518.853258 1999.864999 518.853258 
C 1997.06829 518.853258 1994.385751 519.964402 1992.40818 521.941974 
C 1990.430608 523.919545 1989.319464 526.602084 1989.319464 529.398793 
C 1989.319464 532.195502 1990.430608 534.878041 1992.40818 536.855612 
C 1994.385751 538.833184 1997.06829 539.944328 1999.864999 539.944328 
z
" clip-path="url(#p29fd01c35d)" style="stroke: #000000; stroke-width: 2; stroke-linejoin: miter"/>
   </g>
   <g id="patch_80">
    <path d="M 2031.153949 173.631848 
L 2061.284048 173.631848 
L 2061.284048 143.501748 
L 2031.153949 143.501748 
z
" clip-path="url(#p29fd01c35d)" style="fill: #ffffff; stroke: #000000; stroke-width: 1.5; stroke-linejoin: miter"/>
   </g>
   <g id="text_2">
    <g clip-path="url(#p29fd01c35d)">
     <!-- ${q}_{0}$ -->
     <g transform="translate(325.135561 116.663775)scale(0.1625 -0.1625)">
      <defs>
       <path id="DejaVuSans-Oblique-71" d="M 2669 525 
Q 2438 222 2123 65 
Q 1809 -91 1428 -91 
Q 897 -91 595 267 
Q 294 625 294 1253 
Q 294 1759 480 2231 
Q 666 2703 1013 3078 
Q 1238 3322 1530 3453 
Q 1822 3584 2144 3584 
Q 2531 3584 2781 3431 
Q 3031 3278 3144 2969 
L 3244 3494 
L 3822 3494 
L 2888 -1319 
L 2309 -1319 
L 2669 525 
z
M 891 1338 
Q 891 875 1084 633 
Q 1278 391 1644 391 
Q 2188 391 2572 911 
Q 2956 1431 2956 2175 
Q 2956 2625 2757 2864 
Q 2559 3103 2188 3103 
Q 1916 3103 1684 2976 
Q 1453 2850 1281 2606 
Q 1100 2350 995 2006 
Q 891 1663 891 1338 
z
" transform="scale(0.015625)"/>
      </defs>
      <use xlink:href="#DejaVuSans-Oblique-71"/>
      <use xlink:href="#DejaVuSans-30" transform="translate(63.476562 -16.40625)scale(0.7)"/>
     </g>
    </g>
   </g>
   <g id="text_3">
    <g clip-path="url(#p29fd01c35d)">
     <!-- ${q}_{1}$ -->
     <g transform="translate(325.135561 163.017774)scale(0.1625 -0.1625)">
      <defs>
       <path id="DejaVuSans-31" d="M 794 531 
L 1825 531 
L 1825 4091 
L 703 3866 
L 703 4441 
L 1819 4666 
L 2450 4666 
L 2450 531 
L 3481 531 
L 3481 0 
L 794 0 
L 794 531 
z
" transform="scale(0.015625)"/>
      </defs>
      <use xlink:href="#DejaVuSans-Oblique-71"/>
      <use xlink:href="#DejaVuSans-31" transform="translate(63.476562 -16.40625)scale(0.7)"/>
     </g>
    </g>
   </g>
   <g id="text_4">
    <g clip-path="url(#p29fd01c35d)">
     <!-- ${q}_{2}$ -->
     <g transform="translate(325.135561 209.371774)scale(0.1625 -0.1625)">
      <defs>
       <path id="DejaVuSans-32" d="M 1228 531 
L 3431 531 
L 3431 0 
L 469 0 
L 469 531 
Q 828 903 1448 1529 
Q 2069 2156 2228 2338 
Q 2531 2678 2651 2914 
Q 2772 3150 2772 3378 
Q 2772 3750 2511 3984 
Q 2250 4219 1831 4219 
Q 1534 4219 1204 4116 
Q 875 4013 500 3803 
L 500 4441 
Q 881 4594 1212 4672 
Q 1544 4750 1819 4750 
Q 2544 4750 2975 4387 
Q 3406 4025 3406 3419 
Q 3406 3131 3298 2873 
Q 3191 2616 2906 2266 
Q 2828 2175 2409 1742 
Q 1991 1309 1228 531 
z
" transform="scale(0.015625)"/>
      </defs>
      <use xlink:href="#DejaVuSans-Oblique-71"/>
      <use xlink:href="#DejaVuSans-32" transform="translate(63.476562 -16.40625)scale(0.7)"/>
     </g>
    </g>
   </g>
   <g id="text_5">
    <g clip-path="url(#p29fd01c35d)">
     <!-- ${q}_{3}$ -->
     <g transform="translate(325.135561 255.725773)scale(0.1625 -0.1625)">
      <use xlink:href="#DejaVuSans-Oblique-71"/>
      <use xlink:href="#DejaVuSans-33" transform="translate(63.476562 -16.40625)scale(0.7)"/>
     </g>
    </g>
   </g>
   <g id="text_6">
    <g clip-path="url(#p29fd01c35d)">
     <!-- ${q}_{4}$ -->
     <g transform="translate(325.135561 302.079773)scale(0.1625 -0.1625)">
      <defs>
       <path id="DejaVuSans-34" d="M 2419 4116 
L 825 1625 
L 2419 1625 
L 2419 4116 
z
M 2253 4666 
L 3047 4666 
L 3047 1625 
L 3713 1625 
L 3713 1100 
L 3047 1100 
L 3047 0 
L 2419 0 
L 2419 1100 
L 313 1100 
L 313 1709 
L 2253 4666 
z
" transform="scale(0.015625)"/>
      </defs>
      <use xlink:href="#DejaVuSans-Oblique-71"/>
      <use xlink:href="#DejaVuSans-34" transform="translate(63.476562 -16.40625)scale(0.7)"/>
     </g>
    </g>
   </g>
   <g id="text_7">
    <g clip-path="url(#p29fd01c35d)">
     <!-- ${q}_{5}$ -->
     <g transform="translate(325.135561 348.433772)scale(0.1625 -0.1625)">
      <defs>
       <path id="DejaVuSans-35" d="M 691 4666 
L 3169 4666 
L 3169 4134 
L 1269 4134 
L 1269 2991 
Q 1406 3038 1543 3061 
Q 1681 3084 1819 3084 
Q 2600 3084 3056 2656 
Q 3513 2228 3513 1497 
Q 3513 744 3044 326 
Q 2575 -91 1722 -91 
Q 1428 -91 1123 -41 
Q 819 9 494 109 
L 494 744 
Q 775 591 1075 516 
Q 1375 441 1709 441 
Q 2250 441 2565 725 
Q 2881 1009 2881 1497 
Q 2881 1984 2565 2268 
Q 2250 2553 1709 2553 
Q 1456 2553 1204 2497 
Q 953 2441 691 2322 
L 691 4666 
z
" transform="scale(0.015625)"/>
      </defs>
      <use xlink:href="#DejaVuSans-Oblique-71"/>
      <use xlink:href="#DejaVuSans-35" transform="translate(63.476562 -16.40625)scale(0.7)"/>
     </g>
    </g>
   </g>
   <g id="text_8">
    <g clip-path="url(#p29fd01c35d)">
     <!-- ${q}_{6}$ -->
     <g transform="translate(325.135561 394.787771)scale(0.1625 -0.1625)">
      <defs>
       <path id="DejaVuSans-36" d="M 2113 2584 
Q 1688 2584 1439 2293 
Q 1191 2003 1191 1497 
Q 1191 994 1439 701 
Q 1688 409 2113 409 
Q 2538 409 2786 701 
Q 3034 994 3034 1497 
Q 3034 2003 2786 2293 
Q 2538 2584 2113 2584 
z
M 3366 4563 
L 3366 3988 
Q 3128 4100 2886 4159 
Q 2644 4219 2406 4219 
Q 1781 4219 1451 3797 
Q 1122 3375 1075 2522 
Q 1259 2794 1537 2939 
Q 1816 3084 2150 3084 
Q 2853 3084 3261 2657 
Q 3669 2231 3669 1497 
Q 3669 778 3244 343 
Q 2819 -91 2113 -91 
Q 1303 -91 875 529 
Q 447 1150 447 2328 
Q 447 3434 972 4092 
Q 1497 4750 2381 4750 
Q 2619 4750 2861 4703 
Q 3103 4656 3366 4563 
z
" transform="scale(0.015625)"/>
      </defs>
      <use xlink:href="#DejaVuSans-Oblique-71"/>
      <use xlink:href="#DejaVuSans-36" transform="translate(63.476562 -16.40625)scale(0.7)"/>
     </g>
    </g>
   </g>
   <g id="text_9">
    <g clip-path="url(#p29fd01c35d)">
     <!-- ${q}_{7}$ -->
     <g transform="translate(325.135561 441.141771)scale(0.1625 -0.1625)">
      <defs>
       <path id="DejaVuSans-37" d="M 525 4666 
L 3525 4666 
L 3525 4397 
L 1831 0 
L 1172 0 
L 2766 4134 
L 525 4134 
L 525 4666 
z
" transform="scale(0.015625)"/>
      </defs>
      <use xlink:href="#DejaVuSans-Oblique-71"/>
      <use xlink:href="#DejaVuSans-37" transform="translate(63.476562 -16.40625)scale(0.7)"/>
     </g>
    </g>
   </g>
   <g id="text_10">
    <g clip-path="url(#p29fd01c35d)">
     <!-- ${q}_{8}$ -->
     <g transform="translate(325.135561 487.49577)scale(0.1625 -0.1625)">
      <use xlink:href="#DejaVuSans-Oblique-71"/>
      <use xlink:href="#DejaVuSans-38" transform="translate(63.476562 -16.40625)scale(0.7)"/>
     </g>
    </g>
   </g>
   <g id="text_11">
    <g clip-path="url(#p29fd01c35d)">
     <!-- ${q}_{9}$ -->
     <g transform="translate(325.135561 533.84977)scale(0.1625 -0.1625)">
      <defs>
       <path id="DejaVuSans-39" d="M 703 97 
L 703 672 
Q 941 559 1184 500 
Q 1428 441 1663 441 
Q 2288 441 2617 861 
Q 2947 1281 2994 2138 
Q 2813 1869 2534 1725 
Q 2256 1581 1919 1581 
Q 1219 1581 811 2004 
Q 403 2428 403 3163 
Q 403 3881 828 4315 
Q 1253 4750 1959 4750 
Q 2769 4750 3195 4129 
Q 3622 3509 3622 2328 
Q 3622 1225 3098 567 
Q 2575 -91 1691 -91 
Q 1453 -91 1209 -44 
Q 966 3 703 97 
z
M 1959 2075 
Q 2384 2075 2632 2365 
Q 2881 2656 2881 3163 
Q 2881 3666 2632 3958 
Q 2384 4250 1959 4250 
Q 1534 4250 1286 3958 
Q 1038 3666 1038 3163 
Q 1038 2656 1286 2365 
Q 1534 2075 1959 2075 
z
" transform="scale(0.015625)"/>
      </defs>
      <use xlink:href="#DejaVuSans-Oblique-71"/>
      <use xlink:href="#DejaVuSans-39" transform="translate(63.476562 -16.40625)scale(0.7)"/>
     </g>
    </g>
   </g>
   <g id="text_12">
    <g clip-path="url(#p29fd01c35d)">
     <!-- S -->
     <g transform="translate(373.348536 347.569983)scale(0.13 -0.13)">
      <use xlink:href="#DejaVuSans-53"/>
     </g>
    </g>
   </g>
   <g id="text_13">
    <g clip-path="url(#p29fd01c35d)">
     <!-- $-$1.15 -->
     <g transform="translate(365.195021 123.459328)scale(0.08 -0.08)">
      <defs>
       <path id="DejaVuSans-2212" d="M 678 2272 
L 4684 2272 
L 4684 1741 
L 678 1741 
L 678 2272 
z
" transform="scale(0.015625)"/>
       <path id="DejaVuSans-2e" d="M 684 794 
L 1344 794 
L 1344 0 
L 684 0 
L 684 794 
z
" transform="scale(0.015625)"/>
      </defs>
      <use xlink:href="#DejaVuSans-2212" transform="translate(0 0.09375)"/>
      <use xlink:href="#DejaVuSans-31" transform="translate(83.789062 0.09375)"/>
      <use xlink:href="#DejaVuSans-2e" transform="translate(147.412109 0.09375)"/>
      <use xlink:href="#DejaVuSans-31" transform="translate(179.199219 0.09375)"/>
      <use xlink:href="#DejaVuSans-35" transform="translate(242.822266 0.09375)"/>
     </g>
    </g>
   </g>
   <g id="text_14">
    <g clip-path="url(#p29fd01c35d)">
     <!-- $\mathrm{R_Z}$ -->
     <g transform="translate(369.545021 111.280471)scale(0.13 -0.13)">
      <defs>
       <path id="DejaVuSans-5a" d="M 359 4666 
L 4025 4666 
L 4025 4184 
L 1075 531 
L 4097 531 
L 4097 0 
L 288 0 
L 288 481 
L 3238 4134 
L 359 4134 
L 359 4666 
z
" transform="scale(0.015625)"/>
      </defs>
      <use xlink:href="#DejaVuSans-52" transform="translate(0 0.09375)"/>
      <use xlink:href="#DejaVuSans-5a" transform="translate(70.439453 -16.3125)scale(0.7)"/>
     </g>
    </g>
   </g>
   <g id="text_15">
    <g clip-path="url(#p29fd01c35d)">
     <!-- H -->
     <g transform="translate(372.586817 301.215984)scale(0.13 -0.13)">
      <use xlink:href="#DejaVuSans-48"/>
     </g>
    </g>
   </g>
   <g id="text_16">
    <g clip-path="url(#p29fd01c35d)">
     <!-- H -->
     <g transform="translate(418.940817 347.569983)scale(0.13 -0.13)">
      <use xlink:href="#DejaVuSans-48"/>
     </g>
    </g>
   </g>
   <g id="line2d_39">
    <path d="M 470.183019 535.424813 
L 470.183019 523.372773 
" clip-path="url(#p29fd01c35d)" style="fill: none; stroke: #ffffff; stroke-width: 2; stroke-linecap: square"/>
   </g>
   <g id="line2d_40">
    <path d="M 464.156999 529.398793 
L 476.209039 529.398793 
" clip-path="url(#p29fd01c35d)" style="fill: none; stroke: #ffffff; stroke-width: 2; stroke-linecap: square"/>
   </g>
   <g id="line2d_41">
    <path d="M 516.537019 535.424813 
L 516.537019 523.372773 
" clip-path="url(#p29fd01c35d)" style="fill: none; stroke: #ffffff; stroke-width: 2; stroke-linecap: square"/>
   </g>
   <g id="line2d_42">
    <path d="M 510.510999 529.398793 
L 522.563039 529.398793 
" clip-path="url(#p29fd01c35d)" style="fill: none; stroke: #ffffff; stroke-width: 2; stroke-linecap: square"/>
   </g>
   <g id="text_17">
    <g clip-path="url(#p29fd01c35d)">
     <!-- S -->
     <g transform="translate(512.410534 347.569983)scale(0.13 -0.13)">
      <use xlink:href="#DejaVuSans-53"/>
     </g>
    </g>
   </g>
   <g id="line2d_43">
    <path d="M 562.891018 535.424813 
L 562.891018 523.372773 
" clip-path="url(#p29fd01c35d)" style="fill: none; stroke: #ffffff; stroke-width: 2; stroke-linecap: square"/>
   </g>
   <g id="line2d_44">
    <path d="M 556.864998 529.398793 
L 568.917038 529.398793 
" clip-path="url(#p29fd01c35d)" style="fill: none; stroke: #ffffff; stroke-width: 2; stroke-linecap: square"/>
   </g>
   <g id="text_18">
    <g clip-path="url(#p29fd01c35d)">
     <!-- H -->
     <g transform="translate(558.002815 347.569983)scale(0.13 -0.13)">
      <use xlink:href="#DejaVuSans-48"/>
     </g>
    </g>
   </g>
   <g id="line2d_45">
    <path d="M 609.245018 535.424813 
L 609.245018 523.372773 
" clip-path="url(#p29fd01c35d)" style="fill: none; stroke: #ffffff; stroke-width: 2; stroke-linecap: square"/>
   </g>
   <g id="line2d_46">
    <path d="M 603.218998 529.398793 
L 615.271037 529.398793 
" clip-path="url(#p29fd01c35d)" style="fill: none; stroke: #ffffff; stroke-width: 2; stroke-linecap: square"/>
   </g>
   <g id="line2d_47">
    <path d="M 609.245018 164.592818 
L 609.245018 152.540778 
" clip-path="url(#p29fd01c35d)" style="fill: none; stroke: #ffffff; stroke-width: 2; stroke-linecap: square"/>
   </g>
   <g id="line2d_48">
    <path d="M 603.218998 158.566798 
L 615.271037 158.566798 
" clip-path="url(#p29fd01c35d)" style="fill: none; stroke: #ffffff; stroke-width: 2; stroke-linecap: square"/>
   </g>
   <g id="text_19">
    <g clip-path="url(#p29fd01c35d)">
     <!-- $-$0.0119 -->
     <g transform="translate(638.239017 540.645323)scale(0.08 -0.08)">
      <use xlink:href="#DejaVuSans-2212" transform="translate(0 0.78125)"/>
      <use xlink:href="#DejaVuSans-30" transform="translate(83.789062 0.78125)"/>
      <use xlink:href="#DejaVuSans-2e" transform="translate(147.412109 0.78125)"/>
      <use xlink:href="#DejaVuSans-30" transform="translate(179.199219 0.78125)"/>
      <use xlink:href="#DejaVuSans-31" transform="translate(242.822266 0.78125)"/>
      <use xlink:href="#DejaVuSans-31" transform="translate(306.445312 0.78125)"/>
      <use xlink:href="#DejaVuSans-39" transform="translate(370.068359 0.78125)"/>
     </g>
    </g>
   </g>
   <g id="text_20">
    <g clip-path="url(#p29fd01c35d)">
     <!-- $\mathrm{R_Z}$ -->
     <g transform="translate(647.669017 528.466466)scale(0.13 -0.13)">
      <use xlink:href="#DejaVuSans-52" transform="translate(0 0.09375)"/>
      <use xlink:href="#DejaVuSans-5a" transform="translate(70.439453 -16.3125)scale(0.7)"/>
     </g>
    </g>
   </g>
   <g id="line2d_49">
    <path d="M 655.599017 164.592818 
L 655.599017 152.540778 
" clip-path="url(#p29fd01c35d)" style="fill: none; stroke: #ffffff; stroke-width: 2; stroke-linecap: square"/>
   </g>
   <g id="line2d_50">
    <path d="M 649.572997 158.566798 
L 661.625037 158.566798 
" clip-path="url(#p29fd01c35d)" style="fill: none; stroke: #ffffff; stroke-width: 2; stroke-linecap: square"/>
   </g>
   <g id="line2d_51">
    <path d="M 701.953016 164.592818 
L 701.953016 152.540778 
" clip-path="url(#p29fd01c35d)" style="fill: none; stroke: #ffffff; stroke-width: 2; stroke-linecap: square"/>
   </g>
   <g id="line2d_52">
    <path d="M 695.926996 158.566798 
L 707.979036 158.566798 
" clip-path="url(#p29fd01c35d)" style="fill: none; stroke: #ffffff; stroke-width: 2; stroke-linecap: square"/>
   </g>
   <g id="text_21">
    <g clip-path="url(#p29fd01c35d)">
     <!-- S -->
     <g transform="translate(697.826532 532.98598)scale(0.13 -0.13)">
      <use xlink:href="#DejaVuSans-53"/>
     </g>
    </g>
   </g>
   <g id="line2d_53">
    <path d="M 748.307016 164.592818 
L 748.307016 152.540778 
" clip-path="url(#p29fd01c35d)" style="fill: none; stroke: #ffffff; stroke-width: 2; stroke-linecap: square"/>
   </g>
   <g id="line2d_54">
    <path d="M 742.280996 158.566798 
L 754.333036 158.566798 
" clip-path="url(#p29fd01c35d)" style="fill: none; stroke: #ffffff; stroke-width: 2; stroke-linecap: square"/>
   </g>
   <g id="text_22">
    <g clip-path="url(#p29fd01c35d)">
     <!-- H -->
     <g transform="translate(743.418813 532.98598)scale(0.13 -0.13)">
      <use xlink:href="#DejaVuSans-48"/>
     </g>
    </g>
   </g>
   <g id="line2d_55">
    <path d="M 794.661015 164.592818 
L 794.661015 152.540778 
" clip-path="url(#p29fd01c35d)" style="fill: none; stroke: #ffffff; stroke-width: 2; stroke-linecap: square"/>
   </g>
   <g id="line2d_56">
    <path d="M 788.634995 158.566798 
L 800.687035 158.566798 
" clip-path="url(#p29fd01c35d)" style="fill: none; stroke: #ffffff; stroke-width: 2; stroke-linecap: square"/>
   </g>
   <g id="text_23">
    <g clip-path="url(#p29fd01c35d)">
     <!-- 0.00546 -->
     <g transform="translate(824.473764 169.813328)scale(0.08 -0.08)">
      <use xlink:href="#DejaVuSans-30"/>
      <use xlink:href="#DejaVuSans-2e" x="63.623047"/>
      <use xlink:href="#DejaVuSans-30" x="95.410156"/>
      <use xlink:href="#DejaVuSans-30" x="159.033203"/>
      <use xlink:href="#DejaVuSans-35" x="222.65625"/>
      <use xlink:href="#DejaVuSans-34" x="286.279297"/>
      <use xlink:href="#DejaVuSans-36" x="349.902344"/>
     </g>
    </g>
   </g>
   <g id="text_24">
    <g clip-path="url(#p29fd01c35d)">
     <!-- $\mathrm{R_Z}$ -->
     <g transform="translate(833.085014 157.63447)scale(0.13 -0.13)">
      <use xlink:href="#DejaVuSans-52" transform="translate(0 0.09375)"/>
      <use xlink:href="#DejaVuSans-5a" transform="translate(70.439453 -16.3125)scale(0.7)"/>
     </g>
    </g>
   </g>
   <g id="line2d_57">
    <path d="M 887.369014 164.592818 
L 887.369014 152.540778 
" clip-path="url(#p29fd01c35d)" style="fill: none; stroke: #ffffff; stroke-width: 2; stroke-linecap: square"/>
   </g>
   <g id="line2d_58">
    <path d="M 881.342994 158.566798 
L 893.395034 158.566798 
" clip-path="url(#p29fd01c35d)" style="fill: none; stroke: #ffffff; stroke-width: 2; stroke-linecap: square"/>
   </g>
   <g id="line2d_59">
    <path d="M 933.723013 164.592818 
L 933.723013 152.540778 
" clip-path="url(#p29fd01c35d)" style="fill: none; stroke: #ffffff; stroke-width: 2; stroke-linecap: square"/>
   </g>
   <g id="line2d_60">
    <path d="M 927.696993 158.566798 
L 939.749033 158.566798 
" clip-path="url(#p29fd01c35d)" style="fill: none; stroke: #ffffff; stroke-width: 2; stroke-linecap: square"/>
   </g>
   <g id="line2d_61">
    <path d="M 980.077013 257.300817 
L 980.077013 245.248777 
" clip-path="url(#p29fd01c35d)" style="fill: none; stroke: #ffffff; stroke-width: 2; stroke-linecap: square"/>
   </g>
   <g id="line2d_62">
    <path d="M 974.050993 251.274797 
L 986.103032 251.274797 
" clip-path="url(#p29fd01c35d)" style="fill: none; stroke: #ffffff; stroke-width: 2; stroke-linecap: square"/>
   </g>
   <g id="line2d_63">
    <path d="M 1026.431012 164.592818 
L 1026.431012 152.540778 
" clip-path="url(#p29fd01c35d)" style="fill: none; stroke: #ffffff; stroke-width: 2; stroke-linecap: square"/>
   </g>
   <g id="line2d_64">
    <path d="M 1020.404992 158.566798 
L 1032.457032 158.566798 
" clip-path="url(#p29fd01c35d)" style="fill: none; stroke: #ffffff; stroke-width: 2; stroke-linecap: square"/>
   </g>
   <g id="text_25">
    <g clip-path="url(#p29fd01c35d)">
     <!-- S -->
     <g transform="translate(1022.304528 393.923982)scale(0.13 -0.13)">
      <use xlink:href="#DejaVuSans-53"/>
     </g>
    </g>
   </g>
   <g id="line2d_65">
    <path d="M 1072.785011 257.300817 
L 1072.785011 245.248777 
" clip-path="url(#p29fd01c35d)" style="fill: none; stroke: #ffffff; stroke-width: 2; stroke-linecap: square"/>
   </g>
   <g id="line2d_66">
    <path d="M 1066.758991 251.274797 
L 1078.811031 251.274797 
" clip-path="url(#p29fd01c35d)" style="fill: none; stroke: #ffffff; stroke-width: 2; stroke-linecap: square"/>
   </g>
   <g id="text_26">
    <g clip-path="url(#p29fd01c35d)">
     <!-- H -->
     <g transform="translate(1067.896808 347.569983)scale(0.13 -0.13)">
      <use xlink:href="#DejaVuSans-48"/>
     </g>
    </g>
   </g>
   <g id="text_27">
    <g clip-path="url(#p29fd01c35d)">
     <!-- H -->
     <g transform="translate(1067.896808 162.153985)scale(0.13 -0.13)">
      <use xlink:href="#DejaVuSans-48"/>
     </g>
    </g>
   </g>
   <g id="text_28">
    <g clip-path="url(#p29fd01c35d)">
     <!-- H -->
     <g transform="translate(1067.896808 393.923982)scale(0.13 -0.13)">
      <use xlink:href="#DejaVuSans-48"/>
     </g>
    </g>
   </g>
   <g id="text_29">
    <g clip-path="url(#p29fd01c35d)">
     <!-- $-$0.00308 -->
     <g transform="translate(1099.219011 262.521327)scale(0.08 -0.08)">
      <use xlink:href="#DejaVuSans-2212" transform="translate(0 0.78125)"/>
      <use xlink:href="#DejaVuSans-30" transform="translate(83.789062 0.78125)"/>
      <use xlink:href="#DejaVuSans-2e" transform="translate(147.412109 0.78125)"/>
      <use xlink:href="#DejaVuSans-30" transform="translate(179.199219 0.78125)"/>
      <use xlink:href="#DejaVuSans-30" transform="translate(242.822266 0.78125)"/>
      <use xlink:href="#DejaVuSans-33" transform="translate(306.445312 0.78125)"/>
      <use xlink:href="#DejaVuSans-30" transform="translate(370.068359 0.78125)"/>
      <use xlink:href="#DejaVuSans-38" transform="translate(433.691406 0.78125)"/>
     </g>
    </g>
   </g>
   <g id="text_30">
    <g clip-path="url(#p29fd01c35d)">
     <!-- $\mathrm{R_Z}$ -->
     <g transform="translate(1111.209011 250.342469)scale(0.13 -0.13)">
      <use xlink:href="#DejaVuSans-52" transform="translate(0 0.09375)"/>
      <use xlink:href="#DejaVuSans-5a" transform="translate(70.439453 -16.3125)scale(0.7)"/>
     </g>
    </g>
   </g>
   <g id="text_31">
    <g clip-path="url(#p29fd01c35d)">
     <!-- $\mathrm{S^\dagger}$ -->
     <g transform="translate(1110.689011 347.569983)scale(0.13 -0.13)">
      <defs>
       <path id="DejaVuSans-2020" d="M 1325 4666 
L 1875 4666 
L 1875 3353 
L 3022 3353 
L 3022 2875 
L 1875 2875 
L 1875 -616 
L 1325 -616 
L 1325 2875 
L 178 2875 
L 178 3353 
L 1325 3353 
L 1325 4666 
z
" transform="scale(0.015625)"/>
      </defs>
      <use xlink:href="#DejaVuSans-53" transform="translate(0 0.684375)"/>
      <use xlink:href="#DejaVuSans-2020" transform="translate(78.071289 38.965625)scale(0.7)"/>
     </g>
    </g>
   </g>
   <g id="line2d_67">
    <path d="M 1165.49301 257.300817 
L 1165.49301 245.248777 
" clip-path="url(#p29fd01c35d)" style="fill: none; stroke: #ffffff; stroke-width: 2; stroke-linecap: square"/>
   </g>
   <g id="line2d_68">
    <path d="M 1159.46699 251.274797 
L 1171.51903 251.274797 
" clip-path="url(#p29fd01c35d)" style="fill: none; stroke: #ffffff; stroke-width: 2; stroke-linecap: square"/>
   </g>
   <g id="line2d_69">
    <path d="M 1211.847009 535.424813 
L 1211.847009 523.372773 
" clip-path="url(#p29fd01c35d)" style="fill: none; stroke: #ffffff; stroke-width: 2; stroke-linecap: square"/>
   </g>
   <g id="line2d_70">
    <path d="M 1205.82099 529.398793 
L 1217.873029 529.398793 
" clip-path="url(#p29fd01c35d)" style="fill: none; stroke: #ffffff; stroke-width: 2; stroke-linecap: square"/>
   </g>
   <g id="text_32">
    <g clip-path="url(#p29fd01c35d)">
     <!-- H -->
     <g transform="translate(1253.312806 301.215984)scale(0.13 -0.13)">
      <use xlink:href="#DejaVuSans-48"/>
     </g>
    </g>
   </g>
   <g id="line2d_71">
    <path d="M 1304.555008 257.300817 
L 1304.555008 245.248777 
" clip-path="url(#p29fd01c35d)" style="fill: none; stroke: #ffffff; stroke-width: 2; stroke-linecap: square"/>
   </g>
   <g id="line2d_72">
    <path d="M 1298.528988 251.274797 
L 1310.581028 251.274797 
" clip-path="url(#p29fd01c35d)" style="fill: none; stroke: #ffffff; stroke-width: 2; stroke-linecap: square"/>
   </g>
   <g id="line2d_73">
    <path d="M 1350.909008 535.424813 
L 1350.909008 523.372773 
" clip-path="url(#p29fd01c35d)" style="fill: none; stroke: #ffffff; stroke-width: 2; stroke-linecap: square"/>
   </g>
   <g id="line2d_74">
    <path d="M 1344.882988 529.398793 
L 1356.935028 529.398793 
" clip-path="url(#p29fd01c35d)" style="fill: none; stroke: #ffffff; stroke-width: 2; stroke-linecap: square"/>
   </g>
   <g id="text_33">
    <g clip-path="url(#p29fd01c35d)">
     <!-- H -->
     <g transform="translate(1392.374804 254.861984)scale(0.13 -0.13)">
      <use xlink:href="#DejaVuSans-48"/>
     </g>
    </g>
   </g>
   <g id="line2d_75">
    <path d="M 1443.617006 535.424813 
L 1443.617006 523.372773 
" clip-path="url(#p29fd01c35d)" style="fill: none; stroke: #ffffff; stroke-width: 2; stroke-linecap: square"/>
   </g>
   <g id="line2d_76">
    <path d="M 1437.590986 529.398793 
L 1449.643026 529.398793 
" clip-path="url(#p29fd01c35d)" style="fill: none; stroke: #ffffff; stroke-width: 2; stroke-linecap: square"/>
   </g>
   <g id="line2d_77">
    <path d="M 1489.971006 535.424813 
L 1489.971006 523.372773 
" clip-path="url(#p29fd01c35d)" style="fill: none; stroke: #ffffff; stroke-width: 2; stroke-linecap: square"/>
   </g>
   <g id="line2d_78">
    <path d="M 1483.944986 529.398793 
L 1495.997026 529.398793 
" clip-path="url(#p29fd01c35d)" style="fill: none; stroke: #ffffff; stroke-width: 2; stroke-linecap: square"/>
   </g>
   <g id="line2d_79">
    <path d="M 1536.325005 535.424813 
L 1536.325005 523.372773 
" clip-path="url(#p29fd01c35d)" style="fill: none; stroke: #ffffff; stroke-width: 2; stroke-linecap: square"/>
   </g>
   <g id="line2d_80">
    <path d="M 1530.298985 529.398793 
L 1542.351025 529.398793 
" clip-path="url(#p29fd01c35d)" style="fill: none; stroke: #ffffff; stroke-width: 2; stroke-linecap: square"/>
   </g>
   <g id="line2d_81">
    <path d="M 1582.679005 535.424813 
L 1582.679005 523.372773 
" clip-path="url(#p29fd01c35d)" style="fill: none; stroke: #ffffff; stroke-width: 2; stroke-linecap: square"/>
   </g>
   <g id="line2d_82">
    <path d="M 1576.652985 529.398793 
L 1588.705024 529.398793 
" clip-path="url(#p29fd01c35d)" style="fill: none; stroke: #ffffff; stroke-width: 2; stroke-linecap: square"/>
   </g>
   <g id="text_34">
    <g clip-path="url(#p29fd01c35d)">
     <!-- 0.00961 -->
     <g transform="translate(1612.491754 540.645323)scale(0.08 -0.08)">
      <use xlink:href="#DejaVuSans-30"/>
      <use xlink:href="#DejaVuSans-2e" x="63.623047"/>
      <use xlink:href="#DejaVuSans-30" x="95.410156"/>
      <use xlink:href="#DejaVuSans-30" x="159.033203"/>
      <use xlink:href="#DejaVuSans-39" x="222.65625"/>
      <use xlink:href="#DejaVuSans-36" x="286.279297"/>
      <use xlink:href="#DejaVuSans-31" x="349.902344"/>
     </g>
    </g>
   </g>
   <g id="text_35">
    <g clip-path="url(#p29fd01c35d)">
     <!-- $\mathrm{R_Z}$ -->
     <g transform="translate(1621.103004 528.466466)scale(0.13 -0.13)">
      <use xlink:href="#DejaVuSans-52" transform="translate(0 0.09375)"/>
      <use xlink:href="#DejaVuSans-5a" transform="translate(70.439453 -16.3125)scale(0.7)"/>
     </g>
    </g>
   </g>
   <g id="line2d_83">
    <path d="M 1675.387003 535.424813 
L 1675.387003 523.372773 
" clip-path="url(#p29fd01c35d)" style="fill: none; stroke: #ffffff; stroke-width: 2; stroke-linecap: square"/>
   </g>
   <g id="line2d_84">
    <path d="M 1669.360983 529.398793 
L 1681.413023 529.398793 
" clip-path="url(#p29fd01c35d)" style="fill: none; stroke: #ffffff; stroke-width: 2; stroke-linecap: square"/>
   </g>
   <g id="line2d_85">
    <path d="M 1721.741003 535.424813 
L 1721.741003 523.372773 
" clip-path="url(#p29fd01c35d)" style="fill: none; stroke: #ffffff; stroke-width: 2; stroke-linecap: square"/>
   </g>
   <g id="line2d_86">
    <path d="M 1715.714983 529.398793 
L 1727.767023 529.398793 
" clip-path="url(#p29fd01c35d)" style="fill: none; stroke: #ffffff; stroke-width: 2; stroke-linecap: square"/>
   </g>
   <g id="line2d_87">
    <path d="M 1768.095002 535.424813 
L 1768.095002 523.372773 
" clip-path="url(#p29fd01c35d)" style="fill: none; stroke: #ffffff; stroke-width: 2; stroke-linecap: square"/>
   </g>
   <g id="line2d_88">
    <path d="M 1762.068982 529.398793 
L 1774.121022 529.398793 
" clip-path="url(#p29fd01c35d)" style="fill: none; stroke: #ffffff; stroke-width: 2; stroke-linecap: square"/>
   </g>
   <g id="text_36">
    <g clip-path="url(#p29fd01c35d)">
     <!-- H -->
     <g transform="translate(1809.560798 393.923982)scale(0.13 -0.13)">
      <use xlink:href="#DejaVuSans-48"/>
     </g>
    </g>
   </g>
   <g id="line2d_89">
    <path d="M 1860.803001 535.424813 
L 1860.803001 523.372773 
" clip-path="url(#p29fd01c35d)" style="fill: none; stroke: #ffffff; stroke-width: 2; stroke-linecap: square"/>
   </g>
   <g id="line2d_90">
    <path d="M 1854.776981 529.398793 
L 1866.829021 529.398793 
" clip-path="url(#p29fd01c35d)" style="fill: none; stroke: #ffffff; stroke-width: 2; stroke-linecap: square"/>
   </g>
   <g id="text_37">
    <g clip-path="url(#p29fd01c35d)">
     <!-- $\mathrm{S^\dagger}$ -->
     <g transform="translate(1898.707 393.923982)scale(0.13 -0.13)">
      <use xlink:href="#DejaVuSans-53" transform="translate(0 0.684375)"/>
      <use xlink:href="#DejaVuSans-2020" transform="translate(78.071289 38.965625)scale(0.7)"/>
     </g>
    </g>
   </g>
   <g id="text_38">
    <g clip-path="url(#p29fd01c35d)">
     <!-- H -->
     <g transform="translate(1902.268797 254.861984)scale(0.13 -0.13)">
      <use xlink:href="#DejaVuSans-48"/>
     </g>
    </g>
   </g>
   <g id="line2d_91">
    <path d="M 1953.511 535.424813 
L 1953.511 523.372773 
" clip-path="url(#p29fd01c35d)" style="fill: none; stroke: #ffffff; stroke-width: 2; stroke-linecap: square"/>
   </g>
   <g id="line2d_92">
    <path d="M 1947.48498 529.398793 
L 1959.53702 529.398793 
" clip-path="url(#p29fd01c35d)" style="fill: none; stroke: #ffffff; stroke-width: 2; stroke-linecap: square"/>
   </g>
   <g id="line2d_93">
    <path d="M 1999.864999 535.424813 
L 1999.864999 523.372773 
" clip-path="url(#p29fd01c35d)" style="fill: none; stroke: #ffffff; stroke-width: 2; stroke-linecap: square"/>
   </g>
   <g id="line2d_94">
    <path d="M 1993.838979 529.398793 
L 2005.891019 529.398793 
" clip-path="url(#p29fd01c35d)" style="fill: none; stroke: #ffffff; stroke-width: 2; stroke-linecap: square"/>
   </g>
   <g id="text_39">
    <g clip-path="url(#p29fd01c35d)">
     <!-- H -->
     <g transform="translate(2041.330795 162.153985)scale(0.13 -0.13)">
      <use xlink:href="#DejaVuSans-48"/>
     </g>
    </g>
   </g>
  </g>
 </g>
 <defs>
  <clipPath id="p29fd01c35d">
   <rect x="295.034664" y="75.129599" width="1781.777974" height="482.081594"/>
  </clipPath>
 </defs>
</svg>
