<?xml version="1.0" encoding="utf-8" standalone="no"?>
<!DOCTYPE svg PUBLIC "-//W3C//DTD SVG 1.1//EN"
  "http://www.w3.org/Graphics/SVG/1.1/DTD/svg11.dtd">
<svg xmlns:xlink="http://www.w3.org/1999/xlink" width="2073.197371pt" height="626.079992pt" viewBox="0 0 2073.197371 626.079992" xmlns="http://www.w3.org/2000/svg" version="1.1">
 <metadata>
  <rdf:RDF xmlns:dc="http://purl.org/dc/elements/1.1/" xmlns:cc="http://creativecommons.org/ns#" xmlns:rdf="http://www.w3.org/1999/02/22-rdf-syntax-ns#">
   <cc:Work>
    <dc:type rdf:resource="http://purl.org/dc/dcmitype/StillImage"/>
    <dc:date>2022-05-22T13:19:36.554278</dc:date>
    <dc:format>image/svg+xml</dc:format>
    <dc:creator>
     <cc:Agent>
      <dc:title>Matplotlib v3.5.1, https://matplotlib.org/</dc:title>
     </cc:Agent>
    </dc:creator>
   </cc:Work>
  </rdf:RDF>
 </metadata>
 <defs>
  <style type="text/css">*{stroke-linejoin: round; stroke-linecap: butt}</style>
 </defs>
 <g id="figure_1">
  <g id="patch_1">
   <path d="M 0 626.079992 
L 2073.197371 626.079992 
L 2073.197371 0 
L 0 0 
z
" style="fill: #ffffff"/>
  </g>
  <g id="axes_1">
   <g id="line2d_1">
    <path d="M 321.741861 112.212799 
L 1856.059241 112.212799 
" clip-path="url(#p260b37098e)" style="fill: none; stroke: #000000; stroke-width: 2; stroke-linecap: square"/>
   </g>
   <g id="line2d_2">
    <path d="M 321.741861 158.566798 
L 1856.059241 158.566798 
" clip-path="url(#p260b37098e)" style="fill: none; stroke: #000000; stroke-width: 2; stroke-linecap: square"/>
   </g>
   <g id="line2d_3">
    <path d="M 321.741861 204.920797 
L 1856.059241 204.920797 
" clip-path="url(#p260b37098e)" style="fill: none; stroke: #000000; stroke-width: 2; stroke-linecap: square"/>
   </g>
   <g id="line2d_4">
    <path d="M 321.741861 251.274797 
L 1856.059241 251.274797 
" clip-path="url(#p260b37098e)" style="fill: none; stroke: #000000; stroke-width: 2; stroke-linecap: square"/>
   </g>
   <g id="line2d_5">
    <path d="M 321.741861 297.628796 
L 1856.059241 297.628796 
" clip-path="url(#p260b37098e)" style="fill: none; stroke: #000000; stroke-width: 2; stroke-linecap: square"/>
   </g>
   <g id="line2d_6">
    <path d="M 321.741861 343.982795 
L 1856.059241 343.982795 
" clip-path="url(#p260b37098e)" style="fill: none; stroke: #000000; stroke-width: 2; stroke-linecap: square"/>
   </g>
   <g id="line2d_7">
    <path d="M 321.741861 390.336795 
L 1856.059241 390.336795 
" clip-path="url(#p260b37098e)" style="fill: none; stroke: #000000; stroke-width: 2; stroke-linecap: square"/>
   </g>
   <g id="line2d_8">
    <path d="M 321.741861 436.690794 
L 1856.059241 436.690794 
" clip-path="url(#p260b37098e)" style="fill: none; stroke: #000000; stroke-width: 2; stroke-linecap: square"/>
   </g>
   <g id="line2d_9">
    <path d="M 321.741861 483.044794 
L 1856.059241 483.044794 
" clip-path="url(#p260b37098e)" style="fill: none; stroke: #000000; stroke-width: 2; stroke-linecap: square"/>
   </g>
   <g id="line2d_10">
    <path d="M 321.741861 529.398793 
L 1856.059241 529.398793 
" clip-path="url(#p260b37098e)" style="fill: none; stroke: #000000; stroke-width: 2; stroke-linecap: square"/>
   </g>
   <g id="line2d_11">
    <path d="M 346.773021 158.566798 
L 346.773021 112.212799 
" clip-path="url(#p260b37098e)" style="fill: none; stroke: #000000; stroke-width: 2; stroke-linecap: square"/>
   </g>
   <g id="line2d_12">
    <path d="M 393.12702 204.920797 
L 393.12702 112.212799 
" clip-path="url(#p260b37098e)" style="fill: none; stroke: #000000; stroke-width: 2; stroke-linecap: square"/>
   </g>
   <g id="line2d_13">
    <path d="M 439.48102 529.398793 
L 439.48102 343.982795 
" clip-path="url(#p260b37098e)" style="fill: none; stroke: #000000; stroke-width: 2; stroke-linecap: square"/>
   </g>
   <g id="line2d_14">
    <path d="M 439.48102 251.274797 
L 439.48102 112.212799 
" clip-path="url(#p260b37098e)" style="fill: none; stroke: #000000; stroke-width: 2; stroke-linecap: square"/>
   </g>
   <g id="line2d_15">
    <path d="M 485.835019 529.398793 
L 485.835019 390.336795 
" clip-path="url(#p260b37098e)" style="fill: none; stroke: #000000; stroke-width: 2; stroke-linecap: square"/>
   </g>
   <g id="line2d_16">
    <path d="M 532.189019 529.398793 
L 532.189019 436.690794 
" clip-path="url(#p260b37098e)" style="fill: none; stroke: #000000; stroke-width: 2; stroke-linecap: square"/>
   </g>
   <g id="line2d_17">
    <path d="M 578.543018 529.398793 
L 578.543018 483.044794 
" clip-path="url(#p260b37098e)" style="fill: none; stroke: #000000; stroke-width: 2; stroke-linecap: square"/>
   </g>
   <g id="line2d_18">
    <path d="M 717.605016 529.398793 
L 717.605016 483.044794 
" clip-path="url(#p260b37098e)" style="fill: none; stroke: #000000; stroke-width: 2; stroke-linecap: square"/>
   </g>
   <g id="line2d_19">
    <path d="M 763.959015 529.398793 
L 763.959015 436.690794 
" clip-path="url(#p260b37098e)" style="fill: none; stroke: #000000; stroke-width: 2; stroke-linecap: square"/>
   </g>
   <g id="line2d_20">
    <path d="M 810.313015 529.398793 
L 810.313015 390.336795 
" clip-path="url(#p260b37098e)" style="fill: none; stroke: #000000; stroke-width: 2; stroke-linecap: square"/>
   </g>
   <g id="line2d_21">
    <path d="M 856.667014 529.398793 
L 856.667014 343.982795 
" clip-path="url(#p260b37098e)" style="fill: none; stroke: #000000; stroke-width: 2; stroke-linecap: square"/>
   </g>
   <g id="line2d_22">
    <path d="M 949.375013 529.398793 
L 949.375013 343.982795 
" clip-path="url(#p260b37098e)" style="fill: none; stroke: #000000; stroke-width: 2; stroke-linecap: square"/>
   </g>
   <g id="line2d_23">
    <path d="M 995.729012 529.398793 
L 995.729012 390.336795 
" clip-path="url(#p260b37098e)" style="fill: none; stroke: #000000; stroke-width: 2; stroke-linecap: square"/>
   </g>
   <g id="line2d_24">
    <path d="M 1042.083012 529.398793 
L 1042.083012 436.690794 
" clip-path="url(#p260b37098e)" style="fill: none; stroke: #000000; stroke-width: 2; stroke-linecap: square"/>
   </g>
   <g id="line2d_25">
    <path d="M 1088.437011 529.398793 
L 1088.437011 483.044794 
" clip-path="url(#p260b37098e)" style="fill: none; stroke: #000000; stroke-width: 2; stroke-linecap: square"/>
   </g>
   <g id="line2d_26">
    <path d="M 1088.437011 343.982795 
L 1088.437011 112.212799 
" clip-path="url(#p260b37098e)" style="fill: none; stroke: #000000; stroke-width: 2; stroke-linecap: square"/>
   </g>
   <g id="line2d_27">
    <path d="M 1134.791011 390.336795 
L 1134.791011 112.212799 
" clip-path="url(#p260b37098e)" style="fill: none; stroke: #000000; stroke-width: 2; stroke-linecap: square"/>
   </g>
   <g id="line2d_28">
    <path d="M 1181.14501 436.690794 
L 1181.14501 112.212799 
" clip-path="url(#p260b37098e)" style="fill: none; stroke: #000000; stroke-width: 2; stroke-linecap: square"/>
   </g>
   <g id="line2d_29">
    <path d="M 1227.499009 483.044794 
L 1227.499009 112.212799 
" clip-path="url(#p260b37098e)" style="fill: none; stroke: #000000; stroke-width: 2; stroke-linecap: square"/>
   </g>
   <g id="line2d_30">
    <path d="M 1320.207008 483.044794 
L 1320.207008 112.212799 
" clip-path="url(#p260b37098e)" style="fill: none; stroke: #000000; stroke-width: 2; stroke-linecap: square"/>
   </g>
   <g id="line2d_31">
    <path d="M 1366.561007 436.690794 
L 1366.561007 112.212799 
" clip-path="url(#p260b37098e)" style="fill: none; stroke: #000000; stroke-width: 2; stroke-linecap: square"/>
   </g>
   <g id="line2d_32">
    <path d="M 1412.915007 390.336795 
L 1412.915007 112.212799 
" clip-path="url(#p260b37098e)" style="fill: none; stroke: #000000; stroke-width: 2; stroke-linecap: square"/>
   </g>
   <g id="line2d_33">
    <path d="M 1459.269006 343.982795 
L 1459.269006 112.212799 
" clip-path="url(#p260b37098e)" style="fill: none; stroke: #000000; stroke-width: 2; stroke-linecap: square"/>
   </g>
   <g id="line2d_34">
    <path d="M 1505.623006 251.274797 
L 1505.623006 112.212799 
" clip-path="url(#p260b37098e)" style="fill: none; stroke: #000000; stroke-width: 2; stroke-linecap: square"/>
   </g>
   <g id="line2d_35">
    <path d="M 1551.977005 204.920797 
L 1551.977005 112.212799 
" clip-path="url(#p260b37098e)" style="fill: none; stroke: #000000; stroke-width: 2; stroke-linecap: square"/>
   </g>
   <g id="line2d_36">
    <path d="M 1598.331004 390.336795 
L 1598.331004 251.274797 
" clip-path="url(#p260b37098e)" style="fill: none; stroke: #000000; stroke-width: 2; stroke-linecap: square"/>
   </g>
   <g id="line2d_37">
    <path d="M 1598.331004 158.566798 
L 1598.331004 112.212799 
" clip-path="url(#p260b37098e)" style="fill: none; stroke: #000000; stroke-width: 2; stroke-linecap: square"/>
   </g>
   <g id="line2d_38">
    <path d="M 1644.685004 297.628796 
L 1644.685004 251.274797 
" clip-path="url(#p260b37098e)" style="fill: none; stroke: #000000; stroke-width: 2; stroke-linecap: square"/>
   </g>
   <g id="line2d_39">
    <path d="M 1737.393003 297.628796 
L 1737.393003 251.274797 
" clip-path="url(#p260b37098e)" style="fill: none; stroke: #000000; stroke-width: 2; stroke-linecap: square"/>
   </g>
   <g id="line2d_40">
    <path d="M 1830.101001 390.336795 
L 1830.101001 251.274797 
" clip-path="url(#p260b37098e)" style="fill: none; stroke: #000000; stroke-width: 2; stroke-linecap: square"/>
   </g>
   <g id="text_1">
    <!-- TERMS: 8, DEPTH:31 -->
    <g transform="translate(1000.481153 69.129599)scale(0.12 -0.12)">
     <defs>
      <path id="DejaVuSans-54" d="M -19 4666 
L 3928 4666 
L 3928 4134 
L 2272 4134 
L 2272 0 
L 1638 0 
L 1638 4134 
L -19 4134 
L -19 4666 
z
" transform="scale(0.015625)"/>
      <path id="DejaVuSans-45" d="M 628 4666 
L 3578 4666 
L 3578 4134 
L 1259 4134 
L 1259 2753 
L 3481 2753 
L 3481 2222 
L 1259 2222 
L 1259 531 
L 3634 531 
L 3634 0 
L 628 0 
L 628 4666 
z
" transform="scale(0.015625)"/>
      <path id="DejaVuSans-52" d="M 2841 2188 
Q 3044 2119 3236 1894 
Q 3428 1669 3622 1275 
L 4263 0 
L 3584 0 
L 2988 1197 
Q 2756 1666 2539 1819 
Q 2322 1972 1947 1972 
L 1259 1972 
L 1259 0 
L 628 0 
L 628 4666 
L 2053 4666 
Q 2853 4666 3247 4331 
Q 3641 3997 3641 3322 
Q 3641 2881 3436 2590 
Q 3231 2300 2841 2188 
z
M 1259 4147 
L 1259 2491 
L 2053 2491 
Q 2509 2491 2742 2702 
Q 2975 2913 2975 3322 
Q 2975 3731 2742 3939 
Q 2509 4147 2053 4147 
L 1259 4147 
z
" transform="scale(0.015625)"/>
      <path id="DejaVuSans-4d" d="M 628 4666 
L 1569 4666 
L 2759 1491 
L 3956 4666 
L 4897 4666 
L 4897 0 
L 4281 0 
L 4281 4097 
L 3078 897 
L 2444 897 
L 1241 4097 
L 1241 0 
L 628 0 
L 628 4666 
z
" transform="scale(0.015625)"/>
      <path id="DejaVuSans-53" d="M 3425 4513 
L 3425 3897 
Q 3066 4069 2747 4153 
Q 2428 4238 2131 4238 
Q 1616 4238 1336 4038 
Q 1056 3838 1056 3469 
Q 1056 3159 1242 3001 
Q 1428 2844 1947 2747 
L 2328 2669 
Q 3034 2534 3370 2195 
Q 3706 1856 3706 1288 
Q 3706 609 3251 259 
Q 2797 -91 1919 -91 
Q 1588 -91 1214 -16 
Q 841 59 441 206 
L 441 856 
Q 825 641 1194 531 
Q 1563 422 1919 422 
Q 2459 422 2753 634 
Q 3047 847 3047 1241 
Q 3047 1584 2836 1778 
Q 2625 1972 2144 2069 
L 1759 2144 
Q 1053 2284 737 2584 
Q 422 2884 422 3419 
Q 422 4038 858 4394 
Q 1294 4750 2059 4750 
Q 2388 4750 2728 4690 
Q 3069 4631 3425 4513 
z
" transform="scale(0.015625)"/>
      <path id="DejaVuSans-3a" d="M 750 794 
L 1409 794 
L 1409 0 
L 750 0 
L 750 794 
z
M 750 3309 
L 1409 3309 
L 1409 2516 
L 750 2516 
L 750 3309 
z
" transform="scale(0.015625)"/>
      <path id="DejaVuSans-20" transform="scale(0.015625)"/>
      <path id="DejaVuSans-38" d="M 2034 2216 
Q 1584 2216 1326 1975 
Q 1069 1734 1069 1313 
Q 1069 891 1326 650 
Q 1584 409 2034 409 
Q 2484 409 2743 651 
Q 3003 894 3003 1313 
Q 3003 1734 2745 1975 
Q 2488 2216 2034 2216 
z
M 1403 2484 
Q 997 2584 770 2862 
Q 544 3141 544 3541 
Q 544 4100 942 4425 
Q 1341 4750 2034 4750 
Q 2731 4750 3128 4425 
Q 3525 4100 3525 3541 
Q 3525 3141 3298 2862 
Q 3072 2584 2669 2484 
Q 3125 2378 3379 2068 
Q 3634 1759 3634 1313 
Q 3634 634 3220 271 
Q 2806 -91 2034 -91 
Q 1263 -91 848 271 
Q 434 634 434 1313 
Q 434 1759 690 2068 
Q 947 2378 1403 2484 
z
M 1172 3481 
Q 1172 3119 1398 2916 
Q 1625 2713 2034 2713 
Q 2441 2713 2670 2916 
Q 2900 3119 2900 3481 
Q 2900 3844 2670 4047 
Q 2441 4250 2034 4250 
Q 1625 4250 1398 4047 
Q 1172 3844 1172 3481 
z
" transform="scale(0.015625)"/>
      <path id="DejaVuSans-2c" d="M 750 794 
L 1409 794 
L 1409 256 
L 897 -744 
L 494 -744 
L 750 256 
L 750 794 
z
" transform="scale(0.015625)"/>
      <path id="DejaVuSans-44" d="M 1259 4147 
L 1259 519 
L 2022 519 
Q 2988 519 3436 956 
Q 3884 1394 3884 2338 
Q 3884 3275 3436 3711 
Q 2988 4147 2022 4147 
L 1259 4147 
z
M 628 4666 
L 1925 4666 
Q 3281 4666 3915 4102 
Q 4550 3538 4550 2338 
Q 4550 1131 3912 565 
Q 3275 0 1925 0 
L 628 0 
L 628 4666 
z
" transform="scale(0.015625)"/>
      <path id="DejaVuSans-50" d="M 1259 4147 
L 1259 2394 
L 2053 2394 
Q 2494 2394 2734 2622 
Q 2975 2850 2975 3272 
Q 2975 3691 2734 3919 
Q 2494 4147 2053 4147 
L 1259 4147 
z
M 628 4666 
L 2053 4666 
Q 2838 4666 3239 4311 
Q 3641 3956 3641 3272 
Q 3641 2581 3239 2228 
Q 2838 1875 2053 1875 
L 1259 1875 
L 1259 0 
L 628 0 
L 628 4666 
z
" transform="scale(0.015625)"/>
      <path id="DejaVuSans-48" d="M 628 4666 
L 1259 4666 
L 1259 2753 
L 3553 2753 
L 3553 4666 
L 4184 4666 
L 4184 0 
L 3553 0 
L 3553 2222 
L 1259 2222 
L 1259 0 
L 628 0 
L 628 4666 
z
" transform="scale(0.015625)"/>
      <path id="DejaVuSans-33" d="M 2597 2516 
Q 3050 2419 3304 2112 
Q 3559 1806 3559 1356 
Q 3559 666 3084 287 
Q 2609 -91 1734 -91 
Q 1441 -91 1130 -33 
Q 819 25 488 141 
L 488 750 
Q 750 597 1062 519 
Q 1375 441 1716 441 
Q 2309 441 2620 675 
Q 2931 909 2931 1356 
Q 2931 1769 2642 2001 
Q 2353 2234 1838 2234 
L 1294 2234 
L 1294 2753 
L 1863 2753 
Q 2328 2753 2575 2939 
Q 2822 3125 2822 3475 
Q 2822 3834 2567 4026 
Q 2313 4219 1838 4219 
Q 1578 4219 1281 4162 
Q 984 4106 628 3988 
L 628 4550 
Q 988 4650 1302 4700 
Q 1616 4750 1894 4750 
Q 2613 4750 3031 4423 
Q 3450 4097 3450 3541 
Q 3450 3153 3228 2886 
Q 3006 2619 2597 2516 
z
" transform="scale(0.015625)"/>
      <path id="DejaVuSans-31" d="M 794 531 
L 1825 531 
L 1825 4091 
L 703 3866 
L 703 4441 
L 1819 4666 
L 2450 4666 
L 2450 531 
L 3481 531 
L 3481 0 
L 794 0 
L 794 531 
z
" transform="scale(0.015625)"/>
     </defs>
     <use xlink:href="#DejaVuSans-54"/>
     <use xlink:href="#DejaVuSans-45" x="61.083984"/>
     <use xlink:href="#DejaVuSans-52" x="124.267578"/>
     <use xlink:href="#DejaVuSans-4d" x="193.75"/>
     <use xlink:href="#DejaVuSans-53" x="280.029297"/>
     <use xlink:href="#DejaVuSans-3a" x="343.505859"/>
     <use xlink:href="#DejaVuSans-20" x="377.197266"/>
     <use xlink:href="#DejaVuSans-38" x="408.984375"/>
     <use xlink:href="#DejaVuSans-2c" x="472.607422"/>
     <use xlink:href="#DejaVuSans-20" x="504.394531"/>
     <use xlink:href="#DejaVuSans-44" x="536.181641"/>
     <use xlink:href="#DejaVuSans-45" x="613.183594"/>
     <use xlink:href="#DejaVuSans-50" x="676.367188"/>
     <use xlink:href="#DejaVuSans-54" x="736.669922"/>
     <use xlink:href="#DejaVuSans-48" x="797.753906"/>
     <use xlink:href="#DejaVuSans-3a" x="872.949219"/>
     <use xlink:href="#DejaVuSans-33" x="906.640625"/>
     <use xlink:href="#DejaVuSans-31" x="970.263672"/>
    </g>
   </g>
   <g id="patch_2">
    <path d="M 331.707971 359.047845 
L 361.838071 359.047845 
L 361.838071 328.917746 
L 331.707971 328.917746 
z
" clip-path="url(#p260b37098e)" style="fill: #ffffff; stroke: #000000; stroke-width: 1.5; stroke-linejoin: miter"/>
   </g>
   <g id="patch_3">
    <path d="M 331.707971 498.109843 
L 361.838071 498.109843 
L 361.838071 467.979744 
L 331.707971 467.979744 
z
" clip-path="url(#p260b37098e)" style="fill: #ffffff; stroke: #000000; stroke-width: 1.5; stroke-linejoin: miter"/>
   </g>
   <g id="patch_4">
    <path d="M 346.773021 163.086313 
C 347.97161 163.086313 349.12127 162.610108 349.968801 161.762578 
C 350.816331 160.915047 351.292536 159.765387 351.292536 158.566798 
C 351.292536 157.368209 350.816331 156.218549 349.968801 155.371018 
C 349.12127 154.523488 347.97161 154.047283 346.773021 154.047283 
C 345.574432 154.047283 344.424772 154.523488 343.577241 155.371018 
C 342.729711 156.218549 342.253506 157.368209 342.253506 158.566798 
C 342.253506 159.765387 342.729711 160.915047 343.577241 161.762578 
C 344.424772 162.610108 345.574432 163.086313 346.773021 163.086313 
z
" clip-path="url(#p260b37098e)" style="stroke: #000000; stroke-width: 1.5; stroke-linejoin: miter"/>
   </g>
   <g id="patch_5">
    <path d="M 346.773021 122.758333 
C 349.56973 122.758333 352.252269 121.647189 354.22984 119.669618 
C 356.207412 117.692046 357.318556 115.009507 357.318556 112.212799 
C 357.318556 109.41609 356.207412 106.733551 354.22984 104.755979 
C 352.252269 102.778408 349.56973 101.667264 346.773021 101.667264 
C 343.976312 101.667264 341.293773 102.778408 339.316202 104.755979 
C 337.33863 106.733551 336.227486 109.41609 336.227486 112.212799 
C 336.227486 115.009507 337.33863 117.692046 339.316202 119.669618 
C 341.293773 121.647189 343.976312 122.758333 346.773021 122.758333 
z
" clip-path="url(#p260b37098e)" style="stroke: #000000; stroke-width: 2; stroke-linejoin: miter"/>
   </g>
   <g id="patch_6">
    <path d="M 331.707971 266.339846 
L 361.838071 266.339846 
L 361.838071 236.209747 
L 331.707971 236.209747 
z
" clip-path="url(#p260b37098e)" style="fill: #ffffff; stroke: #000000; stroke-width: 1.5; stroke-linejoin: miter"/>
   </g>
   <g id="patch_7">
    <path d="M 331.707971 312.693846 
L 361.838071 312.693846 
L 361.838071 282.563746 
L 331.707971 282.563746 
z
" clip-path="url(#p260b37098e)" style="fill: #ffffff; stroke: #000000; stroke-width: 1.5; stroke-linejoin: miter"/>
   </g>
   <g id="patch_8">
    <path d="M 378.061971 359.047845 
L 408.19207 359.047845 
L 408.19207 328.917746 
L 378.061971 328.917746 
z
" clip-path="url(#p260b37098e)" style="fill: #ffffff; stroke: #000000; stroke-width: 1.5; stroke-linejoin: miter"/>
   </g>
   <g id="patch_9">
    <path d="M 378.061971 498.109843 
L 408.19207 498.109843 
L 408.19207 467.979744 
L 378.061971 467.979744 
z
" clip-path="url(#p260b37098e)" style="fill: #ffffff; stroke: #000000; stroke-width: 1.5; stroke-linejoin: miter"/>
   </g>
   <g id="patch_10">
    <path d="M 393.12702 209.440312 
C 394.32561 209.440312 395.475269 208.964108 396.3228 208.116577 
C 397.170331 207.269046 397.646535 206.119387 397.646535 204.920797 
C 397.646535 203.722208 397.170331 202.572548 396.3228 201.725018 
C 395.475269 200.877487 394.32561 200.401282 393.12702 200.401282 
C 391.928431 200.401282 390.778771 200.877487 389.931241 201.725018 
C 389.08371 202.572548 388.607505 203.722208 388.607505 204.920797 
C 388.607505 206.119387 389.08371 207.269046 389.931241 208.116577 
C 390.778771 208.964108 391.928431 209.440312 393.12702 209.440312 
z
" clip-path="url(#p260b37098e)" style="stroke: #000000; stroke-width: 1.5; stroke-linejoin: miter"/>
   </g>
   <g id="patch_11">
    <path d="M 393.12702 122.758333 
C 395.923729 122.758333 398.606268 121.647189 400.58384 119.669618 
C 402.561411 117.692046 403.672555 115.009507 403.672555 112.212799 
C 403.672555 109.41609 402.561411 106.733551 400.58384 104.755979 
C 398.606268 102.778408 395.923729 101.667264 393.12702 101.667264 
C 390.330312 101.667264 387.647773 102.778408 385.670201 104.755979 
C 383.69263 106.733551 382.581486 109.41609 382.581486 112.212799 
C 382.581486 115.009507 383.69263 117.692046 385.670201 119.669618 
C 387.647773 121.647189 390.330312 122.758333 393.12702 122.758333 
z
" clip-path="url(#p260b37098e)" style="stroke: #000000; stroke-width: 2; stroke-linejoin: miter"/>
   </g>
   <g id="patch_12">
    <path d="M 439.48102 348.50231 
C 440.679609 348.50231 441.829269 348.026106 442.676799 347.178575 
C 443.52433 346.331044 444.000535 345.181385 444.000535 343.982795 
C 444.000535 342.784206 443.52433 341.634546 442.676799 340.787016 
C 441.829269 339.939485 440.679609 339.46328 439.48102 339.46328 
C 438.28243 339.46328 437.132771 339.939485 436.28524 340.787016 
C 435.437709 341.634546 434.961505 342.784206 434.961505 343.982795 
C 434.961505 345.181385 435.437709 346.331044 436.28524 347.178575 
C 437.132771 348.026106 438.28243 348.50231 439.48102 348.50231 
z
" clip-path="url(#p260b37098e)" style="stroke: #000000; stroke-width: 1.5; stroke-linejoin: miter"/>
   </g>
   <g id="patch_13">
    <path d="M 439.48102 539.944328 
C 442.277728 539.944328 444.960267 538.833184 446.937839 536.855612 
C 448.915411 534.878041 450.026555 532.195502 450.026555 529.398793 
C 450.026555 526.602084 448.915411 523.919545 446.937839 521.941974 
C 444.960267 519.964402 442.277728 518.853258 439.48102 518.853258 
C 436.684311 518.853258 434.001772 519.964402 432.024201 521.941974 
C 430.046629 523.919545 428.935485 526.602084 428.935485 529.398793 
C 428.935485 532.195502 430.046629 534.878041 432.024201 536.855612 
C 434.001772 538.833184 436.684311 539.944328 439.48102 539.944328 
z
" clip-path="url(#p260b37098e)" style="stroke: #000000; stroke-width: 2; stroke-linejoin: miter"/>
   </g>
   <g id="patch_14">
    <path d="M 439.48102 255.794312 
C 440.679609 255.794312 441.829269 255.318107 442.676799 254.470576 
C 443.52433 253.623046 444.000535 252.473386 444.000535 251.274797 
C 444.000535 250.076207 443.52433 248.926548 442.676799 248.079017 
C 441.829269 247.231486 440.679609 246.755282 439.48102 246.755282 
C 438.28243 246.755282 437.132771 247.231486 436.28524 248.079017 
C 435.437709 248.926548 434.961505 250.076207 434.961505 251.274797 
C 434.961505 252.473386 435.437709 253.623046 436.28524 254.470576 
C 437.132771 255.318107 438.28243 255.794312 439.48102 255.794312 
z
" clip-path="url(#p260b37098e)" style="stroke: #000000; stroke-width: 1.5; stroke-linejoin: miter"/>
   </g>
   <g id="patch_15">
    <path d="M 439.48102 122.758333 
C 442.277728 122.758333 444.960267 121.647189 446.937839 119.669618 
C 448.915411 117.692046 450.026555 115.009507 450.026555 112.212799 
C 450.026555 109.41609 448.915411 106.733551 446.937839 104.755979 
C 444.960267 102.778408 442.277728 101.667264 439.48102 101.667264 
C 436.684311 101.667264 434.001772 102.778408 432.024201 104.755979 
C 430.046629 106.733551 428.935485 109.41609 428.935485 112.212799 
C 428.935485 115.009507 430.046629 117.692046 432.024201 119.669618 
C 434.001772 121.647189 436.684311 122.758333 439.48102 122.758333 
z
" clip-path="url(#p260b37098e)" style="stroke: #000000; stroke-width: 2; stroke-linejoin: miter"/>
   </g>
   <g id="patch_16">
    <path d="M 485.835019 394.85631 
C 487.033609 394.85631 488.183268 394.380105 489.030799 393.532574 
C 489.878329 392.685044 490.354534 391.535384 490.354534 390.336795 
C 490.354534 389.138205 489.878329 387.988546 489.030799 387.141015 
C 488.183268 386.293484 487.033609 385.81728 485.835019 385.81728 
C 484.63643 385.81728 483.48677 386.293484 482.639239 387.141015 
C 481.791709 387.988546 481.315504 389.138205 481.315504 390.336795 
C 481.315504 391.535384 481.791709 392.685044 482.639239 393.532574 
C 483.48677 394.380105 484.63643 394.85631 485.835019 394.85631 
z
" clip-path="url(#p260b37098e)" style="stroke: #000000; stroke-width: 1.5; stroke-linejoin: miter"/>
   </g>
   <g id="patch_17">
    <path d="M 485.835019 539.944328 
C 488.631728 539.944328 491.314267 538.833184 493.291838 536.855612 
C 495.26941 534.878041 496.380554 532.195502 496.380554 529.398793 
C 496.380554 526.602084 495.26941 523.919545 493.291838 521.941974 
C 491.314267 519.964402 488.631728 518.853258 485.835019 518.853258 
C 483.038311 518.853258 480.355772 519.964402 478.3782 521.941974 
C 476.400628 523.919545 475.289484 526.602084 475.289484 529.398793 
C 475.289484 532.195502 476.400628 534.878041 478.3782 536.855612 
C 480.355772 538.833184 483.038311 539.944328 485.835019 539.944328 
z
" clip-path="url(#p260b37098e)" style="stroke: #000000; stroke-width: 2; stroke-linejoin: miter"/>
   </g>
   <g id="patch_18">
    <path d="M 470.769969 359.047845 
L 500.900069 359.047845 
L 500.900069 328.917746 
L 470.769969 328.917746 
z
" clip-path="url(#p260b37098e)" style="fill: #ffffff; stroke: #000000; stroke-width: 1.5; stroke-linejoin: miter"/>
   </g>
   <g id="patch_19">
    <path d="M 532.189019 441.210309 
C 533.387608 441.210309 534.537268 440.734105 535.384798 439.886574 
C 536.232329 439.039043 536.708533 437.889384 536.708533 436.690794 
C 536.708533 435.492205 536.232329 434.342545 535.384798 433.495015 
C 534.537268 432.647484 533.387608 432.171279 532.189019 432.171279 
C 530.990429 432.171279 529.84077 432.647484 528.993239 433.495015 
C 528.145708 434.342545 527.669504 435.492205 527.669504 436.690794 
C 527.669504 437.889384 528.145708 439.039043 528.993239 439.886574 
C 529.84077 440.734105 530.990429 441.210309 532.189019 441.210309 
z
" clip-path="url(#p260b37098e)" style="stroke: #000000; stroke-width: 1.5; stroke-linejoin: miter"/>
   </g>
   <g id="patch_20">
    <path d="M 532.189019 539.944328 
C 534.985727 539.944328 537.668266 538.833184 539.645838 536.855612 
C 541.623409 534.878041 542.734553 532.195502 542.734553 529.398793 
C 542.734553 526.602084 541.623409 523.919545 539.645838 521.941974 
C 537.668266 519.964402 534.985727 518.853258 532.189019 518.853258 
C 529.39231 518.853258 526.709771 519.964402 524.732199 521.941974 
C 522.754628 523.919545 521.643484 526.602084 521.643484 529.398793 
C 521.643484 532.195502 522.754628 534.878041 524.732199 536.855612 
C 526.709771 538.833184 529.39231 539.944328 532.189019 539.944328 
z
" clip-path="url(#p260b37098e)" style="stroke: #000000; stroke-width: 2; stroke-linejoin: miter"/>
   </g>
   <g id="patch_21">
    <path d="M 517.123969 359.047845 
L 547.254068 359.047845 
L 547.254068 328.917746 
L 517.123969 328.917746 
z
" clip-path="url(#p260b37098e)" style="fill: #ffffff; stroke: #000000; stroke-width: 1.5; stroke-linejoin: miter"/>
   </g>
   <g id="patch_22">
    <path d="M 578.543018 487.564309 
C 579.741607 487.564309 580.891267 487.088104 581.738798 486.240573 
C 582.586328 485.393043 583.062533 484.243383 583.062533 483.044794 
C 583.062533 481.846204 582.586328 480.696545 581.738798 479.849014 
C 580.891267 479.001483 579.741607 478.525279 578.543018 478.525279 
C 577.344429 478.525279 576.194769 479.001483 575.347238 479.849014 
C 574.499708 480.696545 574.023503 481.846204 574.023503 483.044794 
C 574.023503 484.243383 574.499708 485.393043 575.347238 486.240573 
C 576.194769 487.088104 577.344429 487.564309 578.543018 487.564309 
z
" clip-path="url(#p260b37098e)" style="stroke: #000000; stroke-width: 1.5; stroke-linejoin: miter"/>
   </g>
   <g id="patch_23">
    <path d="M 578.543018 539.944328 
C 581.339726 539.944328 584.022266 538.833184 585.999837 536.855612 
C 587.977409 534.878041 589.088553 532.195502 589.088553 529.398793 
C 589.088553 526.602084 587.977409 523.919545 585.999837 521.941974 
C 584.022266 519.964402 581.339726 518.853258 578.543018 518.853258 
C 575.746309 518.853258 573.06377 519.964402 571.086199 521.941974 
C 569.108627 523.919545 567.997483 526.602084 567.997483 529.398793 
C 567.997483 532.195502 569.108627 534.878041 571.086199 536.855612 
C 573.06377 538.833184 575.746309 539.944328 578.543018 539.944328 
z
" clip-path="url(#p260b37098e)" style="stroke: #000000; stroke-width: 2; stroke-linejoin: miter"/>
   </g>
   <g id="patch_24">
    <path d="M 607.122576 544.463843 
L 642.671458 544.463843 
L 642.671458 514.333743 
L 607.122576 514.333743 
z
" clip-path="url(#p260b37098e)" style="fill: #ffffff; stroke: #000000; stroke-width: 1.5; stroke-linejoin: miter"/>
   </g>
   <g id="patch_25">
    <path d="M 609.831967 498.109843 
L 639.962067 498.109843 
L 639.962067 467.979744 
L 609.831967 467.979744 
z
" clip-path="url(#p260b37098e)" style="fill: #ffffff; stroke: #000000; stroke-width: 1.5; stroke-linejoin: miter"/>
   </g>
   <g id="patch_26">
    <path d="M 656.185967 498.109843 
L 686.316066 498.109843 
L 686.316066 467.979744 
L 656.185967 467.979744 
z
" clip-path="url(#p260b37098e)" style="fill: #ffffff; stroke: #000000; stroke-width: 1.5; stroke-linejoin: miter"/>
   </g>
   <g id="patch_27">
    <path d="M 717.605016 487.564309 
C 718.803605 487.564309 719.953265 487.088104 720.800796 486.240573 
C 721.648326 485.393043 722.124531 484.243383 722.124531 483.044794 
C 722.124531 481.846204 721.648326 480.696545 720.800796 479.849014 
C 719.953265 479.001483 718.803605 478.525279 717.605016 478.525279 
C 716.406427 478.525279 715.256767 479.001483 714.409236 479.849014 
C 713.561706 480.696545 713.085501 481.846204 713.085501 483.044794 
C 713.085501 484.243383 713.561706 485.393043 714.409236 486.240573 
C 715.256767 487.088104 716.406427 487.564309 717.605016 487.564309 
z
" clip-path="url(#p260b37098e)" style="stroke: #000000; stroke-width: 1.5; stroke-linejoin: miter"/>
   </g>
   <g id="patch_28">
    <path d="M 717.605016 539.944328 
C 720.401725 539.944328 723.084264 538.833184 725.061835 536.855612 
C 727.039407 534.878041 728.150551 532.195502 728.150551 529.398793 
C 728.150551 526.602084 727.039407 523.919545 725.061835 521.941974 
C 723.084264 519.964402 720.401725 518.853258 717.605016 518.853258 
C 714.808308 518.853258 712.125768 519.964402 710.148197 521.941974 
C 708.170625 523.919545 707.059481 526.602084 707.059481 529.398793 
C 707.059481 532.195502 708.170625 534.878041 710.148197 536.855612 
C 712.125768 538.833184 714.808308 539.944328 717.605016 539.944328 
z
" clip-path="url(#p260b37098e)" style="stroke: #000000; stroke-width: 2; stroke-linejoin: miter"/>
   </g>
   <g id="patch_29">
    <path d="M 763.959015 441.210309 
C 765.157605 441.210309 766.307264 440.734105 767.154795 439.886574 
C 768.002326 439.039043 768.47853 437.889384 768.47853 436.690794 
C 768.47853 435.492205 768.002326 434.342545 767.154795 433.495015 
C 766.307264 432.647484 765.157605 432.171279 763.959015 432.171279 
C 762.760426 432.171279 761.610766 432.647484 760.763236 433.495015 
C 759.915705 434.342545 759.439501 435.492205 759.439501 436.690794 
C 759.439501 437.889384 759.915705 439.039043 760.763236 439.886574 
C 761.610766 440.734105 762.760426 441.210309 763.959015 441.210309 
z
" clip-path="url(#p260b37098e)" style="stroke: #000000; stroke-width: 1.5; stroke-linejoin: miter"/>
   </g>
   <g id="patch_30">
    <path d="M 763.959015 539.944328 
C 766.755724 539.944328 769.438263 538.833184 771.415835 536.855612 
C 773.393406 534.878041 774.50455 532.195502 774.50455 529.398793 
C 774.50455 526.602084 773.393406 523.919545 771.415835 521.941974 
C 769.438263 519.964402 766.755724 518.853258 763.959015 518.853258 
C 761.162307 518.853258 758.479768 519.964402 756.502196 521.941974 
C 754.524625 523.919545 753.413481 526.602084 753.413481 529.398793 
C 753.413481 532.195502 754.524625 534.878041 756.502196 536.855612 
C 758.479768 538.833184 761.162307 539.944328 763.959015 539.944328 
z
" clip-path="url(#p260b37098e)" style="stroke: #000000; stroke-width: 2; stroke-linejoin: miter"/>
   </g>
   <g id="patch_31">
    <path d="M 810.313015 394.85631 
C 811.511604 394.85631 812.661264 394.380105 813.508794 393.532574 
C 814.356325 392.685044 814.83253 391.535384 814.83253 390.336795 
C 814.83253 389.138205 814.356325 387.988546 813.508794 387.141015 
C 812.661264 386.293484 811.511604 385.81728 810.313015 385.81728 
C 809.114425 385.81728 807.964766 386.293484 807.117235 387.141015 
C 806.269704 387.988546 805.7935 389.138205 805.7935 390.336795 
C 805.7935 391.535384 806.269704 392.685044 807.117235 393.532574 
C 807.964766 394.380105 809.114425 394.85631 810.313015 394.85631 
z
" clip-path="url(#p260b37098e)" style="stroke: #000000; stroke-width: 1.5; stroke-linejoin: miter"/>
   </g>
   <g id="patch_32">
    <path d="M 810.313015 539.944328 
C 813.109723 539.944328 815.792262 538.833184 817.769834 536.855612 
C 819.747406 534.878041 820.85855 532.195502 820.85855 529.398793 
C 820.85855 526.602084 819.747406 523.919545 817.769834 521.941974 
C 815.792262 519.964402 813.109723 518.853258 810.313015 518.853258 
C 807.516306 518.853258 804.833767 519.964402 802.856196 521.941974 
C 800.878624 523.919545 799.76748 526.602084 799.76748 529.398793 
C 799.76748 532.195502 800.878624 534.878041 802.856196 536.855612 
C 804.833767 538.833184 807.516306 539.944328 810.313015 539.944328 
z
" clip-path="url(#p260b37098e)" style="stroke: #000000; stroke-width: 2; stroke-linejoin: miter"/>
   </g>
   <g id="patch_33">
    <path d="M 856.667014 348.50231 
C 857.865604 348.50231 859.015263 348.026106 859.862794 347.178575 
C 860.710325 346.331044 861.186529 345.181385 861.186529 343.982795 
C 861.186529 342.784206 860.710325 341.634546 859.862794 340.787016 
C 859.015263 339.939485 857.865604 339.46328 856.667014 339.46328 
C 855.468425 339.46328 854.318765 339.939485 853.471235 340.787016 
C 852.623704 341.634546 852.147499 342.784206 852.147499 343.982795 
C 852.147499 345.181385 852.623704 346.331044 853.471235 347.178575 
C 854.318765 348.026106 855.468425 348.50231 856.667014 348.50231 
z
" clip-path="url(#p260b37098e)" style="stroke: #000000; stroke-width: 1.5; stroke-linejoin: miter"/>
   </g>
   <g id="patch_34">
    <path d="M 856.667014 539.944328 
C 859.463723 539.944328 862.146262 538.833184 864.123833 536.855612 
C 866.101405 534.878041 867.212549 532.195502 867.212549 529.398793 
C 867.212549 526.602084 866.101405 523.919545 864.123833 521.941974 
C 862.146262 519.964402 859.463723 518.853258 856.667014 518.853258 
C 853.870306 518.853258 851.187767 519.964402 849.210195 521.941974 
C 847.232623 523.919545 846.121479 526.602084 846.121479 529.398793 
C 846.121479 532.195502 847.232623 534.878041 849.210195 536.855612 
C 851.187767 538.833184 853.870306 539.944328 856.667014 539.944328 
z
" clip-path="url(#p260b37098e)" style="stroke: #000000; stroke-width: 2; stroke-linejoin: miter"/>
   </g>
   <g id="patch_35">
    <path d="M 885.246573 544.463843 
L 920.795455 544.463843 
L 920.795455 514.333743 
L 885.246573 514.333743 
z
" clip-path="url(#p260b37098e)" style="fill: #ffffff; stroke: #000000; stroke-width: 1.5; stroke-linejoin: miter"/>
   </g>
   <g id="patch_36">
    <path d="M 949.375013 348.50231 
C 950.573602 348.50231 951.723262 348.026106 952.570793 347.178575 
C 953.418323 346.331044 953.894528 345.181385 953.894528 343.982795 
C 953.894528 342.784206 953.418323 341.634546 952.570793 340.787016 
C 951.723262 339.939485 950.573602 339.46328 949.375013 339.46328 
C 948.176424 339.46328 947.026764 339.939485 946.179233 340.787016 
C 945.331703 341.634546 944.855498 342.784206 944.855498 343.982795 
C 944.855498 345.181385 945.331703 346.331044 946.179233 347.178575 
C 947.026764 348.026106 948.176424 348.50231 949.375013 348.50231 
z
" clip-path="url(#p260b37098e)" style="stroke: #000000; stroke-width: 1.5; stroke-linejoin: miter"/>
   </g>
   <g id="patch_37">
    <path d="M 949.375013 539.944328 
C 952.171722 539.944328 954.854261 538.833184 956.831832 536.855612 
C 958.809404 534.878041 959.920548 532.195502 959.920548 529.398793 
C 959.920548 526.602084 958.809404 523.919545 956.831832 521.941974 
C 954.854261 519.964402 952.171722 518.853258 949.375013 518.853258 
C 946.578304 518.853258 943.895765 519.964402 941.918194 521.941974 
C 939.940622 523.919545 938.829478 526.602084 938.829478 529.398793 
C 938.829478 532.195502 939.940622 534.878041 941.918194 536.855612 
C 943.895765 538.833184 946.578304 539.944328 949.375013 539.944328 
z
" clip-path="url(#p260b37098e)" style="stroke: #000000; stroke-width: 2; stroke-linejoin: miter"/>
   </g>
   <g id="patch_38">
    <path d="M 995.729012 394.85631 
C 996.927602 394.85631 998.077261 394.380105 998.924792 393.532574 
C 999.772323 392.685044 1000.248527 391.535384 1000.248527 390.336795 
C 1000.248527 389.138205 999.772323 387.988546 998.924792 387.141015 
C 998.077261 386.293484 996.927602 385.81728 995.729012 385.81728 
C 994.530423 385.81728 993.380763 386.293484 992.533233 387.141015 
C 991.685702 387.988546 991.209497 389.138205 991.209497 390.336795 
C 991.209497 391.535384 991.685702 392.685044 992.533233 393.532574 
C 993.380763 394.380105 994.530423 394.85631 995.729012 394.85631 
z
" clip-path="url(#p260b37098e)" style="stroke: #000000; stroke-width: 1.5; stroke-linejoin: miter"/>
   </g>
   <g id="patch_39">
    <path d="M 995.729012 539.944328 
C 998.525721 539.944328 1001.20826 538.833184 1003.185832 536.855612 
C 1005.163403 534.878041 1006.274547 532.195502 1006.274547 529.398793 
C 1006.274547 526.602084 1005.163403 523.919545 1003.185832 521.941974 
C 1001.20826 519.964402 998.525721 518.853258 995.729012 518.853258 
C 992.932304 518.853258 990.249765 519.964402 988.272193 521.941974 
C 986.294622 523.919545 985.183478 526.602084 985.183478 529.398793 
C 985.183478 532.195502 986.294622 534.878041 988.272193 536.855612 
C 990.249765 538.833184 992.932304 539.944328 995.729012 539.944328 
z
" clip-path="url(#p260b37098e)" style="stroke: #000000; stroke-width: 2; stroke-linejoin: miter"/>
   </g>
   <g id="patch_40">
    <path d="M 980.663963 359.047845 
L 1010.794062 359.047845 
L 1010.794062 328.917746 
L 980.663963 328.917746 
z
" clip-path="url(#p260b37098e)" style="fill: #ffffff; stroke: #000000; stroke-width: 1.5; stroke-linejoin: miter"/>
   </g>
   <g id="patch_41">
    <path d="M 1042.083012 441.210309 
C 1043.281601 441.210309 1044.431261 440.734105 1045.278791 439.886574 
C 1046.126322 439.039043 1046.602527 437.889384 1046.602527 436.690794 
C 1046.602527 435.492205 1046.126322 434.342545 1045.278791 433.495015 
C 1044.431261 432.647484 1043.281601 432.171279 1042.083012 432.171279 
C 1040.884422 432.171279 1039.734763 432.647484 1038.887232 433.495015 
C 1038.039701 434.342545 1037.563497 435.492205 1037.563497 436.690794 
C 1037.563497 437.889384 1038.039701 439.039043 1038.887232 439.886574 
C 1039.734763 440.734105 1040.884422 441.210309 1042.083012 441.210309 
z
" clip-path="url(#p260b37098e)" style="stroke: #000000; stroke-width: 1.5; stroke-linejoin: miter"/>
   </g>
   <g id="patch_42">
    <path d="M 1042.083012 539.944328 
C 1044.87972 539.944328 1047.562259 538.833184 1049.539831 536.855612 
C 1051.517403 534.878041 1052.628547 532.195502 1052.628547 529.398793 
C 1052.628547 526.602084 1051.517403 523.919545 1049.539831 521.941974 
C 1047.562259 519.964402 1044.87972 518.853258 1042.083012 518.853258 
C 1039.286303 518.853258 1036.603764 519.964402 1034.626193 521.941974 
C 1032.648621 523.919545 1031.537477 526.602084 1031.537477 529.398793 
C 1031.537477 532.195502 1032.648621 534.878041 1034.626193 536.855612 
C 1036.603764 538.833184 1039.286303 539.944328 1042.083012 539.944328 
z
" clip-path="url(#p260b37098e)" style="stroke: #000000; stroke-width: 2; stroke-linejoin: miter"/>
   </g>
   <g id="patch_43">
    <path d="M 1027.017962 359.047845 
L 1057.148062 359.047845 
L 1057.148062 328.917746 
L 1027.017962 328.917746 
z
" clip-path="url(#p260b37098e)" style="fill: #ffffff; stroke: #000000; stroke-width: 1.5; stroke-linejoin: miter"/>
   </g>
   <g id="patch_44">
    <path d="M 1088.437011 487.564309 
C 1089.635601 487.564309 1090.78526 487.088104 1091.632791 486.240573 
C 1092.480321 485.393043 1092.956526 484.243383 1092.956526 483.044794 
C 1092.956526 481.846204 1092.480321 480.696545 1091.632791 479.849014 
C 1090.78526 479.001483 1089.635601 478.525279 1088.437011 478.525279 
C 1087.238422 478.525279 1086.088762 479.001483 1085.241231 479.849014 
C 1084.393701 480.696545 1083.917496 481.846204 1083.917496 483.044794 
C 1083.917496 484.243383 1084.393701 485.393043 1085.241231 486.240573 
C 1086.088762 487.088104 1087.238422 487.564309 1088.437011 487.564309 
z
" clip-path="url(#p260b37098e)" style="stroke: #000000; stroke-width: 1.5; stroke-linejoin: miter"/>
   </g>
   <g id="patch_45">
    <path d="M 1088.437011 539.944328 
C 1091.23372 539.944328 1093.916259 538.833184 1095.89383 536.855612 
C 1097.871402 534.878041 1098.982546 532.195502 1098.982546 529.398793 
C 1098.982546 526.602084 1097.871402 523.919545 1095.89383 521.941974 
C 1093.916259 519.964402 1091.23372 518.853258 1088.437011 518.853258 
C 1085.640303 518.853258 1082.957763 519.964402 1080.980192 521.941974 
C 1079.00262 523.919545 1077.891476 526.602084 1077.891476 529.398793 
C 1077.891476 532.195502 1079.00262 534.878041 1080.980192 536.855612 
C 1082.957763 538.833184 1085.640303 539.944328 1088.437011 539.944328 
z
" clip-path="url(#p260b37098e)" style="stroke: #000000; stroke-width: 2; stroke-linejoin: miter"/>
   </g>
   <g id="patch_46">
    <path d="M 1088.437011 348.50231 
C 1089.635601 348.50231 1090.78526 348.026106 1091.632791 347.178575 
C 1092.480321 346.331044 1092.956526 345.181385 1092.956526 343.982795 
C 1092.956526 342.784206 1092.480321 341.634546 1091.632791 340.787016 
C 1090.78526 339.939485 1089.635601 339.46328 1088.437011 339.46328 
C 1087.238422 339.46328 1086.088762 339.939485 1085.241231 340.787016 
C 1084.393701 341.634546 1083.917496 342.784206 1083.917496 343.982795 
C 1083.917496 345.181385 1084.393701 346.331044 1085.241231 347.178575 
C 1086.088762 348.026106 1087.238422 348.50231 1088.437011 348.50231 
z
" clip-path="url(#p260b37098e)" style="stroke: #000000; stroke-width: 1.5; stroke-linejoin: miter"/>
   </g>
   <g id="patch_47">
    <path d="M 1088.437011 122.758333 
C 1091.23372 122.758333 1093.916259 121.647189 1095.89383 119.669618 
C 1097.871402 117.692046 1098.982546 115.009507 1098.982546 112.212799 
C 1098.982546 109.41609 1097.871402 106.733551 1095.89383 104.755979 
C 1093.916259 102.778408 1091.23372 101.667264 1088.437011 101.667264 
C 1085.640303 101.667264 1082.957763 102.778408 1080.980192 104.755979 
C 1079.00262 106.733551 1077.891476 109.41609 1077.891476 112.212799 
C 1077.891476 115.009507 1079.00262 117.692046 1080.980192 119.669618 
C 1082.957763 121.647189 1085.640303 122.758333 1088.437011 122.758333 
z
" clip-path="url(#p260b37098e)" style="stroke: #000000; stroke-width: 2; stroke-linejoin: miter"/>
   </g>
   <g id="patch_48">
    <path d="M 1134.791011 394.85631 
C 1135.9896 394.85631 1137.13926 394.380105 1137.98679 393.532574 
C 1138.834321 392.685044 1139.310525 391.535384 1139.310525 390.336795 
C 1139.310525 389.138205 1138.834321 387.988546 1137.98679 387.141015 
C 1137.13926 386.293484 1135.9896 385.81728 1134.791011 385.81728 
C 1133.592421 385.81728 1132.442762 386.293484 1131.595231 387.141015 
C 1130.7477 387.988546 1130.271496 389.138205 1130.271496 390.336795 
C 1130.271496 391.535384 1130.7477 392.685044 1131.595231 393.532574 
C 1132.442762 394.380105 1133.592421 394.85631 1134.791011 394.85631 
z
" clip-path="url(#p260b37098e)" style="stroke: #000000; stroke-width: 1.5; stroke-linejoin: miter"/>
   </g>
   <g id="patch_49">
    <path d="M 1134.791011 122.758333 
C 1137.587719 122.758333 1140.270258 121.647189 1142.24783 119.669618 
C 1144.225401 117.692046 1145.336545 115.009507 1145.336545 112.212799 
C 1145.336545 109.41609 1144.225401 106.733551 1142.24783 104.755979 
C 1140.270258 102.778408 1137.587719 101.667264 1134.791011 101.667264 
C 1131.994302 101.667264 1129.311763 102.778408 1127.334191 104.755979 
C 1125.35662 106.733551 1124.245476 109.41609 1124.245476 112.212799 
C 1124.245476 115.009507 1125.35662 117.692046 1127.334191 119.669618 
C 1129.311763 121.647189 1131.994302 122.758333 1134.791011 122.758333 
z
" clip-path="url(#p260b37098e)" style="stroke: #000000; stroke-width: 2; stroke-linejoin: miter"/>
   </g>
   <g id="patch_50">
    <path d="M 1119.725961 498.109843 
L 1149.85606 498.109843 
L 1149.85606 467.979744 
L 1119.725961 467.979744 
z
" clip-path="url(#p260b37098e)" style="fill: #ffffff; stroke: #000000; stroke-width: 1.5; stroke-linejoin: miter"/>
   </g>
   <g id="patch_51">
    <path d="M 1181.14501 441.210309 
C 1182.343599 441.210309 1183.493259 440.734105 1184.34079 439.886574 
C 1185.18832 439.039043 1185.664525 437.889384 1185.664525 436.690794 
C 1185.664525 435.492205 1185.18832 434.342545 1184.34079 433.495015 
C 1183.493259 432.647484 1182.343599 432.171279 1181.14501 432.171279 
C 1179.946421 432.171279 1178.796761 432.647484 1177.94923 433.495015 
C 1177.1017 434.342545 1176.625495 435.492205 1176.625495 436.690794 
C 1176.625495 437.889384 1177.1017 439.039043 1177.94923 439.886574 
C 1178.796761 440.734105 1179.946421 441.210309 1181.14501 441.210309 
z
" clip-path="url(#p260b37098e)" style="stroke: #000000; stroke-width: 1.5; stroke-linejoin: miter"/>
   </g>
   <g id="patch_52">
    <path d="M 1181.14501 122.758333 
C 1183.941718 122.758333 1186.624258 121.647189 1188.601829 119.669618 
C 1190.579401 117.692046 1191.690545 115.009507 1191.690545 112.212799 
C 1191.690545 109.41609 1190.579401 106.733551 1188.601829 104.755979 
C 1186.624258 102.778408 1183.941718 101.667264 1181.14501 101.667264 
C 1178.348301 101.667264 1175.665762 102.778408 1173.688191 104.755979 
C 1171.710619 106.733551 1170.599475 109.41609 1170.599475 112.212799 
C 1170.599475 115.009507 1171.710619 117.692046 1173.688191 119.669618 
C 1175.665762 121.647189 1178.348301 122.758333 1181.14501 122.758333 
z
" clip-path="url(#p260b37098e)" style="stroke: #000000; stroke-width: 2; stroke-linejoin: miter"/>
   </g>
   <g id="patch_53">
    <path d="M 1166.07996 498.109843 
L 1196.21006 498.109843 
L 1196.21006 467.979744 
L 1166.07996 467.979744 
z
" clip-path="url(#p260b37098e)" style="fill: #ffffff; stroke: #000000; stroke-width: 1.5; stroke-linejoin: miter"/>
   </g>
   <g id="patch_54">
    <path d="M 1227.499009 487.564309 
C 1228.697599 487.564309 1229.847258 487.088104 1230.694789 486.240573 
C 1231.54232 485.393043 1232.018524 484.243383 1232.018524 483.044794 
C 1232.018524 481.846204 1231.54232 480.696545 1230.694789 479.849014 
C 1229.847258 479.001483 1228.697599 478.525279 1227.499009 478.525279 
C 1226.30042 478.525279 1225.15076 479.001483 1224.30323 479.849014 
C 1223.455699 480.696545 1222.979494 481.846204 1222.979494 483.044794 
C 1222.979494 484.243383 1223.455699 485.393043 1224.30323 486.240573 
C 1225.15076 487.088104 1226.30042 487.564309 1227.499009 487.564309 
z
" clip-path="url(#p260b37098e)" style="stroke: #000000; stroke-width: 1.5; stroke-linejoin: miter"/>
   </g>
   <g id="patch_55">
    <path d="M 1227.499009 122.758333 
C 1230.295718 122.758333 1232.978257 121.647189 1234.955829 119.669618 
C 1236.9334 117.692046 1238.044544 115.009507 1238.044544 112.212799 
C 1238.044544 109.41609 1236.9334 106.733551 1234.955829 104.755979 
C 1232.978257 102.778408 1230.295718 101.667264 1227.499009 101.667264 
C 1224.702301 101.667264 1222.019762 102.778408 1220.04219 104.755979 
C 1218.064619 106.733551 1216.953474 109.41609 1216.953474 112.212799 
C 1216.953474 115.009507 1218.064619 117.692046 1220.04219 119.669618 
C 1222.019762 121.647189 1224.702301 122.758333 1227.499009 122.758333 
z
" clip-path="url(#p260b37098e)" style="stroke: #000000; stroke-width: 2; stroke-linejoin: miter"/>
   </g>
   <g id="patch_56">
    <path d="M 1258.787959 127.277848 
L 1288.918058 127.277848 
L 1288.918058 97.147749 
L 1258.787959 97.147749 
z
" clip-path="url(#p260b37098e)" style="fill: #ffffff; stroke: #000000; stroke-width: 1.5; stroke-linejoin: miter"/>
   </g>
   <g id="patch_57">
    <path d="M 1320.207008 487.564309 
C 1321.405597 487.564309 1322.555257 487.088104 1323.402788 486.240573 
C 1324.250318 485.393043 1324.726523 484.243383 1324.726523 483.044794 
C 1324.726523 481.846204 1324.250318 480.696545 1323.402788 479.849014 
C 1322.555257 479.001483 1321.405597 478.525279 1320.207008 478.525279 
C 1319.008419 478.525279 1317.858759 479.001483 1317.011228 479.849014 
C 1316.163698 480.696545 1315.687493 481.846204 1315.687493 483.044794 
C 1315.687493 484.243383 1316.163698 485.393043 1317.011228 486.240573 
C 1317.858759 487.088104 1319.008419 487.564309 1320.207008 487.564309 
z
" clip-path="url(#p260b37098e)" style="stroke: #000000; stroke-width: 1.5; stroke-linejoin: miter"/>
   </g>
   <g id="patch_58">
    <path d="M 1320.207008 122.758333 
C 1323.003717 122.758333 1325.686256 121.647189 1327.663827 119.669618 
C 1329.641399 117.692046 1330.752543 115.009507 1330.752543 112.212799 
C 1330.752543 109.41609 1329.641399 106.733551 1327.663827 104.755979 
C 1325.686256 102.778408 1323.003717 101.667264 1320.207008 101.667264 
C 1317.4103 101.667264 1314.72776 102.778408 1312.750189 104.755979 
C 1310.772617 106.733551 1309.661473 109.41609 1309.661473 112.212799 
C 1309.661473 115.009507 1310.772617 117.692046 1312.750189 119.669618 
C 1314.72776 121.647189 1317.4103 122.758333 1320.207008 122.758333 
z
" clip-path="url(#p260b37098e)" style="stroke: #000000; stroke-width: 2; stroke-linejoin: miter"/>
   </g>
   <g id="patch_59">
    <path d="M 1351.495958 498.109843 
L 1381.626057 498.109843 
L 1381.626057 467.979744 
L 1351.495958 467.979744 
z
" clip-path="url(#p260b37098e)" style="fill: #ffffff; stroke: #000000; stroke-width: 1.5; stroke-linejoin: miter"/>
   </g>
   <g id="patch_60">
    <path d="M 1366.561007 441.210309 
C 1367.759597 441.210309 1368.909256 440.734105 1369.756787 439.886574 
C 1370.604318 439.039043 1371.080522 437.889384 1371.080522 436.690794 
C 1371.080522 435.492205 1370.604318 434.342545 1369.756787 433.495015 
C 1368.909256 432.647484 1367.759597 432.171279 1366.561007 432.171279 
C 1365.362418 432.171279 1364.212758 432.647484 1363.365228 433.495015 
C 1362.517697 434.342545 1362.041493 435.492205 1362.041493 436.690794 
C 1362.041493 437.889384 1362.517697 439.039043 1363.365228 439.886574 
C 1364.212758 440.734105 1365.362418 441.210309 1366.561007 441.210309 
z
" clip-path="url(#p260b37098e)" style="stroke: #000000; stroke-width: 1.5; stroke-linejoin: miter"/>
   </g>
   <g id="patch_61">
    <path d="M 1366.561007 122.758333 
C 1369.357716 122.758333 1372.040255 121.647189 1374.017827 119.669618 
C 1375.995398 117.692046 1377.106542 115.009507 1377.106542 112.212799 
C 1377.106542 109.41609 1375.995398 106.733551 1374.017827 104.755979 
C 1372.040255 102.778408 1369.357716 101.667264 1366.561007 101.667264 
C 1363.764299 101.667264 1361.08176 102.778408 1359.104188 104.755979 
C 1357.126617 106.733551 1356.015473 109.41609 1356.015473 112.212799 
C 1356.015473 115.009507 1357.126617 117.692046 1359.104188 119.669618 
C 1361.08176 121.647189 1363.764299 122.758333 1366.561007 122.758333 
z
" clip-path="url(#p260b37098e)" style="stroke: #000000; stroke-width: 2; stroke-linejoin: miter"/>
   </g>
   <g id="patch_62">
    <path d="M 1397.849957 498.109843 
L 1427.980057 498.109843 
L 1427.980057 467.979744 
L 1397.849957 467.979744 
z
" clip-path="url(#p260b37098e)" style="fill: #ffffff; stroke: #000000; stroke-width: 1.5; stroke-linejoin: miter"/>
   </g>
   <g id="patch_63">
    <path d="M 1412.915007 394.85631 
C 1414.113596 394.85631 1415.263256 394.380105 1416.110786 393.532574 
C 1416.958317 392.685044 1417.434522 391.535384 1417.434522 390.336795 
C 1417.434522 389.138205 1416.958317 387.988546 1416.110786 387.141015 
C 1415.263256 386.293484 1414.113596 385.81728 1412.915007 385.81728 
C 1411.716417 385.81728 1410.566758 386.293484 1409.719227 387.141015 
C 1408.871696 387.988546 1408.395492 389.138205 1408.395492 390.336795 
C 1408.395492 391.535384 1408.871696 392.685044 1409.719227 393.532574 
C 1410.566758 394.380105 1411.716417 394.85631 1412.915007 394.85631 
z
" clip-path="url(#p260b37098e)" style="stroke: #000000; stroke-width: 1.5; stroke-linejoin: miter"/>
   </g>
   <g id="patch_64">
    <path d="M 1412.915007 122.758333 
C 1415.711715 122.758333 1418.394254 121.647189 1420.371826 119.669618 
C 1422.349398 117.692046 1423.460542 115.009507 1423.460542 112.212799 
C 1423.460542 109.41609 1422.349398 106.733551 1420.371826 104.755979 
C 1418.394254 102.778408 1415.711715 101.667264 1412.915007 101.667264 
C 1410.118298 101.667264 1407.435759 102.778408 1405.458188 104.755979 
C 1403.480616 106.733551 1402.369472 109.41609 1402.369472 112.212799 
C 1402.369472 115.009507 1403.480616 117.692046 1405.458188 119.669618 
C 1407.435759 121.647189 1410.118298 122.758333 1412.915007 122.758333 
z
" clip-path="url(#p260b37098e)" style="stroke: #000000; stroke-width: 2; stroke-linejoin: miter"/>
   </g>
   <g id="patch_65">
    <path d="M 1459.269006 348.50231 
C 1460.467596 348.50231 1461.617255 348.026106 1462.464786 347.178575 
C 1463.312317 346.331044 1463.788521 345.181385 1463.788521 343.982795 
C 1463.788521 342.784206 1463.312317 341.634546 1462.464786 340.787016 
C 1461.617255 339.939485 1460.467596 339.46328 1459.269006 339.46328 
C 1458.070417 339.46328 1456.920757 339.939485 1456.073227 340.787016 
C 1455.225696 341.634546 1454.749491 342.784206 1454.749491 343.982795 
C 1454.749491 345.181385 1455.225696 346.331044 1456.073227 347.178575 
C 1456.920757 348.026106 1458.070417 348.50231 1459.269006 348.50231 
z
" clip-path="url(#p260b37098e)" style="stroke: #000000; stroke-width: 1.5; stroke-linejoin: miter"/>
   </g>
   <g id="patch_66">
    <path d="M 1459.269006 122.758333 
C 1462.065715 122.758333 1464.748254 121.647189 1466.725825 119.669618 
C 1468.703397 117.692046 1469.814541 115.009507 1469.814541 112.212799 
C 1469.814541 109.41609 1468.703397 106.733551 1466.725825 104.755979 
C 1464.748254 102.778408 1462.065715 101.667264 1459.269006 101.667264 
C 1456.472298 101.667264 1453.789759 102.778408 1451.812187 104.755979 
C 1449.834615 106.733551 1448.723471 109.41609 1448.723471 112.212799 
C 1448.723471 115.009507 1449.834615 117.692046 1451.812187 119.669618 
C 1453.789759 121.647189 1456.472298 122.758333 1459.269006 122.758333 
z
" clip-path="url(#p260b37098e)" style="stroke: #000000; stroke-width: 2; stroke-linejoin: miter"/>
   </g>
   <g id="patch_67">
    <path d="M 1490.557956 359.047845 
L 1520.688055 359.047845 
L 1520.688055 328.917746 
L 1490.557956 328.917746 
z
" clip-path="url(#p260b37098e)" style="fill: #ffffff; stroke: #000000; stroke-width: 1.5; stroke-linejoin: miter"/>
   </g>
   <g id="patch_68">
    <path d="M 1505.623006 255.794312 
C 1506.821595 255.794312 1507.971255 255.318107 1508.818785 254.470576 
C 1509.666316 253.623046 1510.142521 252.473386 1510.142521 251.274797 
C 1510.142521 250.076207 1509.666316 248.926548 1508.818785 248.079017 
C 1507.971255 247.231486 1506.821595 246.755282 1505.623006 246.755282 
C 1504.424416 246.755282 1503.274757 247.231486 1502.427226 248.079017 
C 1501.579695 248.926548 1501.103491 250.076207 1501.103491 251.274797 
C 1501.103491 252.473386 1501.579695 253.623046 1502.427226 254.470576 
C 1503.274757 255.318107 1504.424416 255.794312 1505.623006 255.794312 
z
" clip-path="url(#p260b37098e)" style="stroke: #000000; stroke-width: 1.5; stroke-linejoin: miter"/>
   </g>
   <g id="patch_69">
    <path d="M 1505.623006 122.758333 
C 1508.419714 122.758333 1511.102253 121.647189 1513.079825 119.669618 
C 1515.057396 117.692046 1516.16854 115.009507 1516.16854 112.212799 
C 1516.16854 109.41609 1515.057396 106.733551 1513.079825 104.755979 
C 1511.102253 102.778408 1508.419714 101.667264 1505.623006 101.667264 
C 1502.826297 101.667264 1500.143758 102.778408 1498.166186 104.755979 
C 1496.188615 106.733551 1495.077471 109.41609 1495.077471 112.212799 
C 1495.077471 115.009507 1496.188615 117.692046 1498.166186 119.669618 
C 1500.143758 121.647189 1502.826297 122.758333 1505.623006 122.758333 
z
" clip-path="url(#p260b37098e)" style="stroke: #000000; stroke-width: 2; stroke-linejoin: miter"/>
   </g>
   <g id="patch_70">
    <path d="M 1536.911955 359.047845 
L 1567.042055 359.047845 
L 1567.042055 328.917746 
L 1536.911955 328.917746 
z
" clip-path="url(#p260b37098e)" style="fill: #ffffff; stroke: #000000; stroke-width: 1.5; stroke-linejoin: miter"/>
   </g>
   <g id="patch_71">
    <path d="M 1551.977005 209.440312 
C 1553.175594 209.440312 1554.325254 208.964108 1555.172785 208.116577 
C 1556.020315 207.269046 1556.49652 206.119387 1556.49652 204.920797 
C 1556.49652 203.722208 1556.020315 202.572548 1555.172785 201.725018 
C 1554.325254 200.877487 1553.175594 200.401282 1551.977005 200.401282 
C 1550.778416 200.401282 1549.628756 200.877487 1548.781225 201.725018 
C 1547.933695 202.572548 1547.45749 203.722208 1547.45749 204.920797 
C 1547.45749 206.119387 1547.933695 207.269046 1548.781225 208.116577 
C 1549.628756 208.964108 1550.778416 209.440312 1551.977005 209.440312 
z
" clip-path="url(#p260b37098e)" style="stroke: #000000; stroke-width: 1.5; stroke-linejoin: miter"/>
   </g>
   <g id="patch_72">
    <path d="M 1551.977005 122.758333 
C 1554.773714 122.758333 1557.456253 121.647189 1559.433824 119.669618 
C 1561.411396 117.692046 1562.52254 115.009507 1562.52254 112.212799 
C 1562.52254 109.41609 1561.411396 106.733551 1559.433824 104.755979 
C 1557.456253 102.778408 1554.773714 101.667264 1551.977005 101.667264 
C 1549.180296 101.667264 1546.497757 102.778408 1544.520186 104.755979 
C 1542.542614 106.733551 1541.43147 109.41609 1541.43147 112.212799 
C 1541.43147 115.009507 1542.542614 117.692046 1544.520186 119.669618 
C 1546.497757 121.647189 1549.180296 122.758333 1551.977005 122.758333 
z
" clip-path="url(#p260b37098e)" style="stroke: #000000; stroke-width: 2; stroke-linejoin: miter"/>
   </g>
   <g id="patch_73">
    <path d="M 1598.331004 394.85631 
C 1599.529594 394.85631 1600.679253 394.380105 1601.526784 393.532574 
C 1602.374315 392.685044 1602.850519 391.535384 1602.850519 390.336795 
C 1602.850519 389.138205 1602.374315 387.988546 1601.526784 387.141015 
C 1600.679253 386.293484 1599.529594 385.81728 1598.331004 385.81728 
C 1597.132415 385.81728 1595.982755 386.293484 1595.135225 387.141015 
C 1594.287694 387.988546 1593.811489 389.138205 1593.811489 390.336795 
C 1593.811489 391.535384 1594.287694 392.685044 1595.135225 393.532574 
C 1595.982755 394.380105 1597.132415 394.85631 1598.331004 394.85631 
z
" clip-path="url(#p260b37098e)" style="stroke: #000000; stroke-width: 1.5; stroke-linejoin: miter"/>
   </g>
   <g id="patch_74">
    <path d="M 1598.331004 261.820332 
C 1601.127713 261.820332 1603.810252 260.709187 1605.787824 258.731616 
C 1607.765395 256.754044 1608.876539 254.071505 1608.876539 251.274797 
C 1608.876539 248.478088 1607.765395 245.795549 1605.787824 243.817977 
C 1603.810252 241.840406 1601.127713 240.729262 1598.331004 240.729262 
C 1595.534296 240.729262 1592.851757 241.840406 1590.874185 243.817977 
C 1588.896614 245.795549 1587.78547 248.478088 1587.78547 251.274797 
C 1587.78547 254.071505 1588.896614 256.754044 1590.874185 258.731616 
C 1592.851757 260.709187 1595.534296 261.820332 1598.331004 261.820332 
z
" clip-path="url(#p260b37098e)" style="stroke: #000000; stroke-width: 2; stroke-linejoin: miter"/>
   </g>
   <g id="patch_75">
    <path d="M 1598.331004 163.086313 
C 1599.529594 163.086313 1600.679253 162.610108 1601.526784 161.762578 
C 1602.374315 160.915047 1602.850519 159.765387 1602.850519 158.566798 
C 1602.850519 157.368209 1602.374315 156.218549 1601.526784 155.371018 
C 1600.679253 154.523488 1599.529594 154.047283 1598.331004 154.047283 
C 1597.132415 154.047283 1595.982755 154.523488 1595.135225 155.371018 
C 1594.287694 156.218549 1593.811489 157.368209 1593.811489 158.566798 
C 1593.811489 159.765387 1594.287694 160.915047 1595.135225 161.762578 
C 1595.982755 162.610108 1597.132415 163.086313 1598.331004 163.086313 
z
" clip-path="url(#p260b37098e)" style="stroke: #000000; stroke-width: 1.5; stroke-linejoin: miter"/>
   </g>
   <g id="patch_76">
    <path d="M 1598.331004 122.758333 
C 1601.127713 122.758333 1603.810252 121.647189 1605.787824 119.669618 
C 1607.765395 117.692046 1608.876539 115.009507 1608.876539 112.212799 
C 1608.876539 109.41609 1607.765395 106.733551 1605.787824 104.755979 
C 1603.810252 102.778408 1601.127713 101.667264 1598.331004 101.667264 
C 1595.534296 101.667264 1592.851757 102.778408 1590.874185 104.755979 
C 1588.896614 106.733551 1587.78547 109.41609 1587.78547 112.212799 
C 1587.78547 115.009507 1588.896614 117.692046 1590.874185 119.669618 
C 1592.851757 121.647189 1595.534296 122.758333 1598.331004 122.758333 
z
" clip-path="url(#p260b37098e)" style="stroke: #000000; stroke-width: 2; stroke-linejoin: miter"/>
   </g>
   <g id="patch_77">
    <path d="M 1644.685004 302.148311 
C 1645.883593 302.148311 1647.033253 301.672106 1647.880783 300.824576 
C 1648.728314 299.977045 1649.204519 298.827385 1649.204519 297.628796 
C 1649.204519 296.430207 1648.728314 295.280547 1647.880783 294.433016 
C 1647.033253 293.585486 1645.883593 293.109281 1644.685004 293.109281 
C 1643.486414 293.109281 1642.336755 293.585486 1641.489224 294.433016 
C 1640.641693 295.280547 1640.165489 296.430207 1640.165489 297.628796 
C 1640.165489 298.827385 1640.641693 299.977045 1641.489224 300.824576 
C 1642.336755 301.672106 1643.486414 302.148311 1644.685004 302.148311 
z
" clip-path="url(#p260b37098e)" style="stroke: #000000; stroke-width: 1.5; stroke-linejoin: miter"/>
   </g>
   <g id="patch_78">
    <path d="M 1644.685004 261.820332 
C 1647.481712 261.820332 1650.164251 260.709187 1652.141823 258.731616 
C 1654.119395 256.754044 1655.230539 254.071505 1655.230539 251.274797 
C 1655.230539 248.478088 1654.119395 245.795549 1652.141823 243.817977 
C 1650.164251 241.840406 1647.481712 240.729262 1644.685004 240.729262 
C 1641.888295 240.729262 1639.205756 241.840406 1637.228185 243.817977 
C 1635.250613 245.795549 1634.139469 248.478088 1634.139469 251.274797 
C 1634.139469 254.071505 1635.250613 256.754044 1637.228185 258.731616 
C 1639.205756 260.709187 1641.888295 261.820332 1644.685004 261.820332 
z
" clip-path="url(#p260b37098e)" style="stroke: #000000; stroke-width: 2; stroke-linejoin: miter"/>
   </g>
   <g id="patch_79">
    <path d="M 1669.741658 266.339846 
L 1712.336348 266.339846 
L 1712.336348 236.209747 
L 1669.741658 236.209747 
z
" clip-path="url(#p260b37098e)" style="fill: #ffffff; stroke: #000000; stroke-width: 1.5; stroke-linejoin: miter"/>
   </g>
   <g id="patch_80">
    <path d="M 1737.393003 302.148311 
C 1738.591592 302.148311 1739.741252 301.672106 1740.588782 300.824576 
C 1741.436313 299.977045 1741.912517 298.827385 1741.912517 297.628796 
C 1741.912517 296.430207 1741.436313 295.280547 1740.588782 294.433016 
C 1739.741252 293.585486 1738.591592 293.109281 1737.393003 293.109281 
C 1736.194413 293.109281 1735.044754 293.585486 1734.197223 294.433016 
C 1733.349692 295.280547 1732.873488 296.430207 1732.873488 297.628796 
C 1732.873488 298.827385 1733.349692 299.977045 1734.197223 300.824576 
C 1735.044754 301.672106 1736.194413 302.148311 1737.393003 302.148311 
z
" clip-path="url(#p260b37098e)" style="stroke: #000000; stroke-width: 1.5; stroke-linejoin: miter"/>
   </g>
   <g id="patch_81">
    <path d="M 1737.393003 261.820332 
C 1740.189711 261.820332 1742.87225 260.709187 1744.849822 258.731616 
C 1746.827393 256.754044 1747.938537 254.071505 1747.938537 251.274797 
C 1747.938537 248.478088 1746.827393 245.795549 1744.849822 243.817977 
C 1742.87225 241.840406 1740.189711 240.729262 1737.393003 240.729262 
C 1734.596294 240.729262 1731.913755 241.840406 1729.936183 243.817977 
C 1727.958612 245.795549 1726.847468 248.478088 1726.847468 251.274797 
C 1726.847468 254.071505 1727.958612 256.754044 1729.936183 258.731616 
C 1731.913755 260.709187 1734.596294 261.820332 1737.393003 261.820332 
z
" clip-path="url(#p260b37098e)" style="stroke: #000000; stroke-width: 2; stroke-linejoin: miter"/>
   </g>
   <g id="patch_82">
    <path d="M 1768.681952 312.693846 
L 1798.812052 312.693846 
L 1798.812052 282.563746 
L 1768.681952 282.563746 
z
" clip-path="url(#p260b37098e)" style="fill: #ffffff; stroke: #000000; stroke-width: 1.5; stroke-linejoin: miter"/>
   </g>
   <g id="patch_83">
    <path d="M 1830.101001 394.85631 
C 1831.299591 394.85631 1832.44925 394.380105 1833.296781 393.532574 
C 1834.144312 392.685044 1834.620516 391.535384 1834.620516 390.336795 
C 1834.620516 389.138205 1834.144312 387.988546 1833.296781 387.141015 
C 1832.44925 386.293484 1831.299591 385.81728 1830.101001 385.81728 
C 1828.902412 385.81728 1827.752752 386.293484 1826.905222 387.141015 
C 1826.057691 387.988546 1825.581486 389.138205 1825.581486 390.336795 
C 1825.581486 391.535384 1826.057691 392.685044 1826.905222 393.532574 
C 1827.752752 394.380105 1828.902412 394.85631 1830.101001 394.85631 
z
" clip-path="url(#p260b37098e)" style="stroke: #000000; stroke-width: 1.5; stroke-linejoin: miter"/>
   </g>
   <g id="patch_84">
    <path d="M 1830.101001 261.820332 
C 1832.89771 261.820332 1835.580249 260.709187 1837.55782 258.731616 
C 1839.535392 256.754044 1840.646536 254.071505 1840.646536 251.274797 
C 1840.646536 248.478088 1839.535392 245.795549 1837.55782 243.817977 
C 1835.580249 241.840406 1832.89771 240.729262 1830.101001 240.729262 
C 1827.304293 240.729262 1824.621754 241.840406 1822.644182 243.817977 
C 1820.666611 245.795549 1819.555466 248.478088 1819.555466 251.274797 
C 1819.555466 254.071505 1820.666611 256.754044 1822.644182 258.731616 
C 1824.621754 260.709187 1827.304293 261.820332 1830.101001 261.820332 
z
" clip-path="url(#p260b37098e)" style="stroke: #000000; stroke-width: 2; stroke-linejoin: miter"/>
   </g>
   <g id="text_2">
    <g clip-path="url(#p260b37098e)">
     <!-- ${q}_{0}$ -->
     <g transform="translate(294.433561 116.663775)scale(0.1625 -0.1625)">
      <defs>
       <path id="DejaVuSans-Oblique-71" d="M 2669 525 
Q 2438 222 2123 65 
Q 1809 -91 1428 -91 
Q 897 -91 595 267 
Q 294 625 294 1253 
Q 294 1759 480 2231 
Q 666 2703 1013 3078 
Q 1238 3322 1530 3453 
Q 1822 3584 2144 3584 
Q 2531 3584 2781 3431 
Q 3031 3278 3144 2969 
L 3244 3494 
L 3822 3494 
L 2888 -1319 
L 2309 -1319 
L 2669 525 
z
M 891 1338 
Q 891 875 1084 633 
Q 1278 391 1644 391 
Q 2188 391 2572 911 
Q 2956 1431 2956 2175 
Q 2956 2625 2757 2864 
Q 2559 3103 2188 3103 
Q 1916 3103 1684 2976 
Q 1453 2850 1281 2606 
Q 1100 2350 995 2006 
Q 891 1663 891 1338 
z
" transform="scale(0.015625)"/>
       <path id="DejaVuSans-30" d="M 2034 4250 
Q 1547 4250 1301 3770 
Q 1056 3291 1056 2328 
Q 1056 1369 1301 889 
Q 1547 409 2034 409 
Q 2525 409 2770 889 
Q 3016 1369 3016 2328 
Q 3016 3291 2770 3770 
Q 2525 4250 2034 4250 
z
M 2034 4750 
Q 2819 4750 3233 4129 
Q 3647 3509 3647 2328 
Q 3647 1150 3233 529 
Q 2819 -91 2034 -91 
Q 1250 -91 836 529 
Q 422 1150 422 2328 
Q 422 3509 836 4129 
Q 1250 4750 2034 4750 
z
" transform="scale(0.015625)"/>
      </defs>
      <use xlink:href="#DejaVuSans-Oblique-71"/>
      <use xlink:href="#DejaVuSans-30" transform="translate(63.476562 -16.40625)scale(0.7)"/>
     </g>
    </g>
   </g>
   <g id="text_3">
    <g clip-path="url(#p260b37098e)">
     <!-- ${q}_{1}$ -->
     <g transform="translate(294.433561 163.017774)scale(0.1625 -0.1625)">
      <use xlink:href="#DejaVuSans-Oblique-71"/>
      <use xlink:href="#DejaVuSans-31" transform="translate(63.476562 -16.40625)scale(0.7)"/>
     </g>
    </g>
   </g>
   <g id="text_4">
    <g clip-path="url(#p260b37098e)">
     <!-- ${q}_{2}$ -->
     <g transform="translate(294.433561 209.371774)scale(0.1625 -0.1625)">
      <defs>
       <path id="DejaVuSans-32" d="M 1228 531 
L 3431 531 
L 3431 0 
L 469 0 
L 469 531 
Q 828 903 1448 1529 
Q 2069 2156 2228 2338 
Q 2531 2678 2651 2914 
Q 2772 3150 2772 3378 
Q 2772 3750 2511 3984 
Q 2250 4219 1831 4219 
Q 1534 4219 1204 4116 
Q 875 4013 500 3803 
L 500 4441 
Q 881 4594 1212 4672 
Q 1544 4750 1819 4750 
Q 2544 4750 2975 4387 
Q 3406 4025 3406 3419 
Q 3406 3131 3298 2873 
Q 3191 2616 2906 2266 
Q 2828 2175 2409 1742 
Q 1991 1309 1228 531 
z
" transform="scale(0.015625)"/>
      </defs>
      <use xlink:href="#DejaVuSans-Oblique-71"/>
      <use xlink:href="#DejaVuSans-32" transform="translate(63.476562 -16.40625)scale(0.7)"/>
     </g>
    </g>
   </g>
   <g id="text_5">
    <g clip-path="url(#p260b37098e)">
     <!-- ${q}_{3}$ -->
     <g transform="translate(294.433561 255.725773)scale(0.1625 -0.1625)">
      <use xlink:href="#DejaVuSans-Oblique-71"/>
      <use xlink:href="#DejaVuSans-33" transform="translate(63.476562 -16.40625)scale(0.7)"/>
     </g>
    </g>
   </g>
   <g id="text_6">
    <g clip-path="url(#p260b37098e)">
     <!-- ${q}_{4}$ -->
     <g transform="translate(294.433561 302.079773)scale(0.1625 -0.1625)">
      <defs>
       <path id="DejaVuSans-34" d="M 2419 4116 
L 825 1625 
L 2419 1625 
L 2419 4116 
z
M 2253 4666 
L 3047 4666 
L 3047 1625 
L 3713 1625 
L 3713 1100 
L 3047 1100 
L 3047 0 
L 2419 0 
L 2419 1100 
L 313 1100 
L 313 1709 
L 2253 4666 
z
" transform="scale(0.015625)"/>
      </defs>
      <use xlink:href="#DejaVuSans-Oblique-71"/>
      <use xlink:href="#DejaVuSans-34" transform="translate(63.476562 -16.40625)scale(0.7)"/>
     </g>
    </g>
   </g>
   <g id="text_7">
    <g clip-path="url(#p260b37098e)">
     <!-- ${q}_{5}$ -->
     <g transform="translate(294.433561 348.433772)scale(0.1625 -0.1625)">
      <defs>
       <path id="DejaVuSans-35" d="M 691 4666 
L 3169 4666 
L 3169 4134 
L 1269 4134 
L 1269 2991 
Q 1406 3038 1543 3061 
Q 1681 3084 1819 3084 
Q 2600 3084 3056 2656 
Q 3513 2228 3513 1497 
Q 3513 744 3044 326 
Q 2575 -91 1722 -91 
Q 1428 -91 1123 -41 
Q 819 9 494 109 
L 494 744 
Q 775 591 1075 516 
Q 1375 441 1709 441 
Q 2250 441 2565 725 
Q 2881 1009 2881 1497 
Q 2881 1984 2565 2268 
Q 2250 2553 1709 2553 
Q 1456 2553 1204 2497 
Q 953 2441 691 2322 
L 691 4666 
z
" transform="scale(0.015625)"/>
      </defs>
      <use xlink:href="#DejaVuSans-Oblique-71"/>
      <use xlink:href="#DejaVuSans-35" transform="translate(63.476562 -16.40625)scale(0.7)"/>
     </g>
    </g>
   </g>
   <g id="text_8">
    <g clip-path="url(#p260b37098e)">
     <!-- ${q}_{6}$ -->
     <g transform="translate(294.433561 394.787771)scale(0.1625 -0.1625)">
      <defs>
       <path id="DejaVuSans-36" d="M 2113 2584 
Q 1688 2584 1439 2293 
Q 1191 2003 1191 1497 
Q 1191 994 1439 701 
Q 1688 409 2113 409 
Q 2538 409 2786 701 
Q 3034 994 3034 1497 
Q 3034 2003 2786 2293 
Q 2538 2584 2113 2584 
z
M 3366 4563 
L 3366 3988 
Q 3128 4100 2886 4159 
Q 2644 4219 2406 4219 
Q 1781 4219 1451 3797 
Q 1122 3375 1075 2522 
Q 1259 2794 1537 2939 
Q 1816 3084 2150 3084 
Q 2853 3084 3261 2657 
Q 3669 2231 3669 1497 
Q 3669 778 3244 343 
Q 2819 -91 2113 -91 
Q 1303 -91 875 529 
Q 447 1150 447 2328 
Q 447 3434 972 4092 
Q 1497 4750 2381 4750 
Q 2619 4750 2861 4703 
Q 3103 4656 3366 4563 
z
" transform="scale(0.015625)"/>
      </defs>
      <use xlink:href="#DejaVuSans-Oblique-71"/>
      <use xlink:href="#DejaVuSans-36" transform="translate(63.476562 -16.40625)scale(0.7)"/>
     </g>
    </g>
   </g>
   <g id="text_9">
    <g clip-path="url(#p260b37098e)">
     <!-- ${q}_{7}$ -->
     <g transform="translate(294.433561 441.141771)scale(0.1625 -0.1625)">
      <defs>
       <path id="DejaVuSans-37" d="M 525 4666 
L 3525 4666 
L 3525 4397 
L 1831 0 
L 1172 0 
L 2766 4134 
L 525 4134 
L 525 4666 
z
" transform="scale(0.015625)"/>
      </defs>
      <use xlink:href="#DejaVuSans-Oblique-71"/>
      <use xlink:href="#DejaVuSans-37" transform="translate(63.476562 -16.40625)scale(0.7)"/>
     </g>
    </g>
   </g>
   <g id="text_10">
    <g clip-path="url(#p260b37098e)">
     <!-- ${q}_{8}$ -->
     <g transform="translate(294.433561 487.49577)scale(0.1625 -0.1625)">
      <use xlink:href="#DejaVuSans-Oblique-71"/>
      <use xlink:href="#DejaVuSans-38" transform="translate(63.476562 -16.40625)scale(0.7)"/>
     </g>
    </g>
   </g>
   <g id="text_11">
    <g clip-path="url(#p260b37098e)">
     <!-- ${q}_{9}$ -->
     <g transform="translate(294.433561 533.84977)scale(0.1625 -0.1625)">
      <defs>
       <path id="DejaVuSans-39" d="M 703 97 
L 703 672 
Q 941 559 1184 500 
Q 1428 441 1663 441 
Q 2288 441 2617 861 
Q 2947 1281 2994 2138 
Q 2813 1869 2534 1725 
Q 2256 1581 1919 1581 
Q 1219 1581 811 2004 
Q 403 2428 403 3163 
Q 403 3881 828 4315 
Q 1253 4750 1959 4750 
Q 2769 4750 3195 4129 
Q 3622 3509 3622 2328 
Q 3622 1225 3098 567 
Q 2575 -91 1691 -91 
Q 1453 -91 1209 -44 
Q 966 3 703 97 
z
M 1959 2075 
Q 2384 2075 2632 2365 
Q 2881 2656 2881 3163 
Q 2881 3666 2632 3958 
Q 2384 4250 1959 4250 
Q 1534 4250 1286 3958 
Q 1038 3666 1038 3163 
Q 1038 2656 1286 2365 
Q 1534 2075 1959 2075 
z
" transform="scale(0.015625)"/>
      </defs>
      <use xlink:href="#DejaVuSans-Oblique-71"/>
      <use xlink:href="#DejaVuSans-39" transform="translate(63.476562 -16.40625)scale(0.7)"/>
     </g>
    </g>
   </g>
   <g id="text_12">
    <g clip-path="url(#p260b37098e)">
     <!-- S -->
     <g transform="translate(342.646537 347.569983)scale(0.13 -0.13)">
      <use xlink:href="#DejaVuSans-53"/>
     </g>
    </g>
   </g>
   <g id="text_13">
    <g clip-path="url(#p260b37098e)">
     <!-- S -->
     <g transform="translate(342.646537 486.631981)scale(0.13 -0.13)">
      <use xlink:href="#DejaVuSans-53"/>
     </g>
    </g>
   </g>
   <g id="line2d_41">
    <path d="M 346.773021 118.238818 
L 346.773021 106.186779 
" clip-path="url(#p260b37098e)" style="fill: none; stroke: #ffffff; stroke-width: 2; stroke-linecap: square"/>
   </g>
   <g id="line2d_42">
    <path d="M 340.747001 112.212799 
L 352.799041 112.212799 
" clip-path="url(#p260b37098e)" style="fill: none; stroke: #ffffff; stroke-width: 2; stroke-linecap: square"/>
   </g>
   <g id="text_14">
    <g clip-path="url(#p260b37098e)">
     <!-- H -->
     <g transform="translate(341.884818 254.861984)scale(0.13 -0.13)">
      <use xlink:href="#DejaVuSans-48"/>
     </g>
    </g>
   </g>
   <g id="text_15">
    <g clip-path="url(#p260b37098e)">
     <!-- H -->
     <g transform="translate(341.884818 301.215984)scale(0.13 -0.13)">
      <use xlink:href="#DejaVuSans-48"/>
     </g>
    </g>
   </g>
   <g id="text_16">
    <g clip-path="url(#p260b37098e)">
     <!-- H -->
     <g transform="translate(388.238817 347.569983)scale(0.13 -0.13)">
      <use xlink:href="#DejaVuSans-48"/>
     </g>
    </g>
   </g>
   <g id="text_17">
    <g clip-path="url(#p260b37098e)">
     <!-- H -->
     <g transform="translate(388.238817 486.631981)scale(0.13 -0.13)">
      <use xlink:href="#DejaVuSans-48"/>
     </g>
    </g>
   </g>
   <g id="line2d_43">
    <path d="M 393.12702 118.238818 
L 393.12702 106.186779 
" clip-path="url(#p260b37098e)" style="fill: none; stroke: #ffffff; stroke-width: 2; stroke-linecap: square"/>
   </g>
   <g id="line2d_44">
    <path d="M 387.101 112.212799 
L 399.15304 112.212799 
" clip-path="url(#p260b37098e)" style="fill: none; stroke: #ffffff; stroke-width: 2; stroke-linecap: square"/>
   </g>
   <g id="line2d_45">
    <path d="M 439.48102 535.424813 
L 439.48102 523.372773 
" clip-path="url(#p260b37098e)" style="fill: none; stroke: #ffffff; stroke-width: 2; stroke-linecap: square"/>
   </g>
   <g id="line2d_46">
    <path d="M 433.455 529.398793 
L 445.50704 529.398793 
" clip-path="url(#p260b37098e)" style="fill: none; stroke: #ffffff; stroke-width: 2; stroke-linecap: square"/>
   </g>
   <g id="line2d_47">
    <path d="M 439.48102 118.238818 
L 439.48102 106.186779 
" clip-path="url(#p260b37098e)" style="fill: none; stroke: #ffffff; stroke-width: 2; stroke-linecap: square"/>
   </g>
   <g id="line2d_48">
    <path d="M 433.455 112.212799 
L 445.50704 112.212799 
" clip-path="url(#p260b37098e)" style="fill: none; stroke: #ffffff; stroke-width: 2; stroke-linecap: square"/>
   </g>
   <g id="line2d_49">
    <path d="M 485.835019 535.424813 
L 485.835019 523.372773 
" clip-path="url(#p260b37098e)" style="fill: none; stroke: #ffffff; stroke-width: 2; stroke-linecap: square"/>
   </g>
   <g id="line2d_50">
    <path d="M 479.808999 529.398793 
L 491.861039 529.398793 
" clip-path="url(#p260b37098e)" style="fill: none; stroke: #ffffff; stroke-width: 2; stroke-linecap: square"/>
   </g>
   <g id="text_18">
    <g clip-path="url(#p260b37098e)">
     <!-- S -->
     <g transform="translate(481.708535 347.569983)scale(0.13 -0.13)">
      <use xlink:href="#DejaVuSans-53"/>
     </g>
    </g>
   </g>
   <g id="line2d_51">
    <path d="M 532.189019 535.424813 
L 532.189019 523.372773 
" clip-path="url(#p260b37098e)" style="fill: none; stroke: #ffffff; stroke-width: 2; stroke-linecap: square"/>
   </g>
   <g id="line2d_52">
    <path d="M 526.162999 529.398793 
L 538.215038 529.398793 
" clip-path="url(#p260b37098e)" style="fill: none; stroke: #ffffff; stroke-width: 2; stroke-linecap: square"/>
   </g>
   <g id="text_19">
    <g clip-path="url(#p260b37098e)">
     <!-- H -->
     <g transform="translate(527.300815 347.569983)scale(0.13 -0.13)">
      <use xlink:href="#DejaVuSans-48"/>
     </g>
    </g>
   </g>
   <g id="line2d_53">
    <path d="M 578.543018 535.424813 
L 578.543018 523.372773 
" clip-path="url(#p260b37098e)" style="fill: none; stroke: #ffffff; stroke-width: 2; stroke-linecap: square"/>
   </g>
   <g id="line2d_54">
    <path d="M 572.516998 529.398793 
L 584.569038 529.398793 
" clip-path="url(#p260b37098e)" style="fill: none; stroke: #ffffff; stroke-width: 2; stroke-linecap: square"/>
   </g>
   <g id="text_20">
    <g clip-path="url(#p260b37098e)">
     <!-- 0.00872 -->
     <g transform="translate(608.355767 540.645323)scale(0.08 -0.08)">
      <defs>
       <path id="DejaVuSans-2e" d="M 684 794 
L 1344 794 
L 1344 0 
L 684 0 
L 684 794 
z
" transform="scale(0.015625)"/>
      </defs>
      <use xlink:href="#DejaVuSans-30"/>
      <use xlink:href="#DejaVuSans-2e" x="63.623047"/>
      <use xlink:href="#DejaVuSans-30" x="95.410156"/>
      <use xlink:href="#DejaVuSans-30" x="159.033203"/>
      <use xlink:href="#DejaVuSans-38" x="222.65625"/>
      <use xlink:href="#DejaVuSans-37" x="286.279297"/>
      <use xlink:href="#DejaVuSans-32" x="349.902344"/>
     </g>
    </g>
   </g>
   <g id="text_21">
    <g clip-path="url(#p260b37098e)">
     <!-- $\mathrm{R_Z}$ -->
     <g transform="translate(616.967017 528.466466)scale(0.13 -0.13)">
      <defs>
       <path id="DejaVuSans-5a" d="M 359 4666 
L 4025 4666 
L 4025 4184 
L 1075 531 
L 4097 531 
L 4097 0 
L 288 0 
L 288 481 
L 3238 4134 
L 359 4134 
L 359 4666 
z
" transform="scale(0.015625)"/>
      </defs>
      <use xlink:href="#DejaVuSans-52" transform="translate(0 0.09375)"/>
      <use xlink:href="#DejaVuSans-5a" transform="translate(70.439453 -16.3125)scale(0.7)"/>
     </g>
    </g>
   </g>
   <g id="text_22">
    <g clip-path="url(#p260b37098e)">
     <!-- S -->
     <g transform="translate(620.770533 486.631981)scale(0.13 -0.13)">
      <use xlink:href="#DejaVuSans-53"/>
     </g>
    </g>
   </g>
   <g id="text_23">
    <g clip-path="url(#p260b37098e)">
     <!-- H -->
     <g transform="translate(666.362814 486.631981)scale(0.13 -0.13)">
      <use xlink:href="#DejaVuSans-48"/>
     </g>
    </g>
   </g>
   <g id="line2d_55">
    <path d="M 717.605016 535.424813 
L 717.605016 523.372773 
" clip-path="url(#p260b37098e)" style="fill: none; stroke: #ffffff; stroke-width: 2; stroke-linecap: square"/>
   </g>
   <g id="line2d_56">
    <path d="M 711.578996 529.398793 
L 723.631036 529.398793 
" clip-path="url(#p260b37098e)" style="fill: none; stroke: #ffffff; stroke-width: 2; stroke-linecap: square"/>
   </g>
   <g id="line2d_57">
    <path d="M 763.959015 535.424813 
L 763.959015 523.372773 
" clip-path="url(#p260b37098e)" style="fill: none; stroke: #ffffff; stroke-width: 2; stroke-linecap: square"/>
   </g>
   <g id="line2d_58">
    <path d="M 757.932996 529.398793 
L 769.985035 529.398793 
" clip-path="url(#p260b37098e)" style="fill: none; stroke: #ffffff; stroke-width: 2; stroke-linecap: square"/>
   </g>
   <g id="line2d_59">
    <path d="M 810.313015 535.424813 
L 810.313015 523.372773 
" clip-path="url(#p260b37098e)" style="fill: none; stroke: #ffffff; stroke-width: 2; stroke-linecap: square"/>
   </g>
   <g id="line2d_60">
    <path d="M 804.286995 529.398793 
L 816.339035 529.398793 
" clip-path="url(#p260b37098e)" style="fill: none; stroke: #ffffff; stroke-width: 2; stroke-linecap: square"/>
   </g>
   <g id="line2d_61">
    <path d="M 856.667014 535.424813 
L 856.667014 523.372773 
" clip-path="url(#p260b37098e)" style="fill: none; stroke: #ffffff; stroke-width: 2; stroke-linecap: square"/>
   </g>
   <g id="line2d_62">
    <path d="M 850.640994 529.398793 
L 862.693034 529.398793 
" clip-path="url(#p260b37098e)" style="fill: none; stroke: #ffffff; stroke-width: 2; stroke-linecap: square"/>
   </g>
   <g id="text_24">
    <g clip-path="url(#p260b37098e)">
     <!-- 0.00872 -->
     <g transform="translate(886.479764 540.645323)scale(0.08 -0.08)">
      <use xlink:href="#DejaVuSans-30"/>
      <use xlink:href="#DejaVuSans-2e" x="63.623047"/>
      <use xlink:href="#DejaVuSans-30" x="95.410156"/>
      <use xlink:href="#DejaVuSans-30" x="159.033203"/>
      <use xlink:href="#DejaVuSans-38" x="222.65625"/>
      <use xlink:href="#DejaVuSans-37" x="286.279297"/>
      <use xlink:href="#DejaVuSans-32" x="349.902344"/>
     </g>
    </g>
   </g>
   <g id="text_25">
    <g clip-path="url(#p260b37098e)">
     <!-- $\mathrm{R_Z}$ -->
     <g transform="translate(895.091014 528.466466)scale(0.13 -0.13)">
      <use xlink:href="#DejaVuSans-52" transform="translate(0 0.09375)"/>
      <use xlink:href="#DejaVuSans-5a" transform="translate(70.439453 -16.3125)scale(0.7)"/>
     </g>
    </g>
   </g>
   <g id="line2d_63">
    <path d="M 949.375013 535.424813 
L 949.375013 523.372773 
" clip-path="url(#p260b37098e)" style="fill: none; stroke: #ffffff; stroke-width: 2; stroke-linecap: square"/>
   </g>
   <g id="line2d_64">
    <path d="M 943.348993 529.398793 
L 955.401033 529.398793 
" clip-path="url(#p260b37098e)" style="fill: none; stroke: #ffffff; stroke-width: 2; stroke-linecap: square"/>
   </g>
   <g id="line2d_65">
    <path d="M 995.729012 535.424813 
L 995.729012 523.372773 
" clip-path="url(#p260b37098e)" style="fill: none; stroke: #ffffff; stroke-width: 2; stroke-linecap: square"/>
   </g>
   <g id="line2d_66">
    <path d="M 989.702992 529.398793 
L 1001.755032 529.398793 
" clip-path="url(#p260b37098e)" style="fill: none; stroke: #ffffff; stroke-width: 2; stroke-linecap: square"/>
   </g>
   <g id="text_26">
    <g clip-path="url(#p260b37098e)">
     <!-- S -->
     <g transform="translate(991.602528 347.569983)scale(0.13 -0.13)">
      <use xlink:href="#DejaVuSans-53"/>
     </g>
    </g>
   </g>
   <g id="line2d_67">
    <path d="M 1042.083012 535.424813 
L 1042.083012 523.372773 
" clip-path="url(#p260b37098e)" style="fill: none; stroke: #ffffff; stroke-width: 2; stroke-linecap: square"/>
   </g>
   <g id="line2d_68">
    <path d="M 1036.056992 529.398793 
L 1048.109032 529.398793 
" clip-path="url(#p260b37098e)" style="fill: none; stroke: #ffffff; stroke-width: 2; stroke-linecap: square"/>
   </g>
   <g id="text_27">
    <g clip-path="url(#p260b37098e)">
     <!-- H -->
     <g transform="translate(1037.194809 347.569983)scale(0.13 -0.13)">
      <use xlink:href="#DejaVuSans-48"/>
     </g>
    </g>
   </g>
   <g id="line2d_69">
    <path d="M 1088.437011 535.424813 
L 1088.437011 523.372773 
" clip-path="url(#p260b37098e)" style="fill: none; stroke: #ffffff; stroke-width: 2; stroke-linecap: square"/>
   </g>
   <g id="line2d_70">
    <path d="M 1082.410991 529.398793 
L 1094.463031 529.398793 
" clip-path="url(#p260b37098e)" style="fill: none; stroke: #ffffff; stroke-width: 2; stroke-linecap: square"/>
   </g>
   <g id="line2d_71">
    <path d="M 1088.437011 118.238818 
L 1088.437011 106.186779 
" clip-path="url(#p260b37098e)" style="fill: none; stroke: #ffffff; stroke-width: 2; stroke-linecap: square"/>
   </g>
   <g id="line2d_72">
    <path d="M 1082.410991 112.212799 
L 1094.463031 112.212799 
" clip-path="url(#p260b37098e)" style="fill: none; stroke: #ffffff; stroke-width: 2; stroke-linecap: square"/>
   </g>
   <g id="line2d_73">
    <path d="M 1134.791011 118.238818 
L 1134.791011 106.186779 
" clip-path="url(#p260b37098e)" style="fill: none; stroke: #ffffff; stroke-width: 2; stroke-linecap: square"/>
   </g>
   <g id="line2d_74">
    <path d="M 1128.764991 112.212799 
L 1140.81703 112.212799 
" clip-path="url(#p260b37098e)" style="fill: none; stroke: #ffffff; stroke-width: 2; stroke-linecap: square"/>
   </g>
   <g id="text_28">
    <g clip-path="url(#p260b37098e)">
     <!-- S -->
     <g transform="translate(1130.664526 486.631981)scale(0.13 -0.13)">
      <use xlink:href="#DejaVuSans-53"/>
     </g>
    </g>
   </g>
   <g id="line2d_75">
    <path d="M 1181.14501 118.238818 
L 1181.14501 106.186779 
" clip-path="url(#p260b37098e)" style="fill: none; stroke: #ffffff; stroke-width: 2; stroke-linecap: square"/>
   </g>
   <g id="line2d_76">
    <path d="M 1175.11899 112.212799 
L 1187.17103 112.212799 
" clip-path="url(#p260b37098e)" style="fill: none; stroke: #ffffff; stroke-width: 2; stroke-linecap: square"/>
   </g>
   <g id="text_29">
    <g clip-path="url(#p260b37098e)">
     <!-- H -->
     <g transform="translate(1176.256807 486.631981)scale(0.13 -0.13)">
      <use xlink:href="#DejaVuSans-48"/>
     </g>
    </g>
   </g>
   <g id="line2d_77">
    <path d="M 1227.499009 118.238818 
L 1227.499009 106.186779 
" clip-path="url(#p260b37098e)" style="fill: none; stroke: #ffffff; stroke-width: 2; stroke-linecap: square"/>
   </g>
   <g id="line2d_78">
    <path d="M 1221.472989 112.212799 
L 1233.525029 112.212799 
" clip-path="url(#p260b37098e)" style="fill: none; stroke: #ffffff; stroke-width: 2; stroke-linecap: square"/>
   </g>
   <g id="text_30">
    <g clip-path="url(#p260b37098e)">
     <!-- 0.0132 -->
     <g transform="translate(1259.856759 123.459328)scale(0.08 -0.08)">
      <use xlink:href="#DejaVuSans-30"/>
      <use xlink:href="#DejaVuSans-2e" x="63.623047"/>
      <use xlink:href="#DejaVuSans-30" x="95.410156"/>
      <use xlink:href="#DejaVuSans-31" x="159.033203"/>
      <use xlink:href="#DejaVuSans-33" x="222.65625"/>
      <use xlink:href="#DejaVuSans-32" x="286.279297"/>
     </g>
    </g>
   </g>
   <g id="text_31">
    <g clip-path="url(#p260b37098e)">
     <!-- $\mathrm{R_Z}$ -->
     <g transform="translate(1265.923009 111.280471)scale(0.13 -0.13)">
      <use xlink:href="#DejaVuSans-52" transform="translate(0 0.09375)"/>
      <use xlink:href="#DejaVuSans-5a" transform="translate(70.439453 -16.3125)scale(0.7)"/>
     </g>
    </g>
   </g>
   <g id="line2d_79">
    <path d="M 1320.207008 118.238818 
L 1320.207008 106.186779 
" clip-path="url(#p260b37098e)" style="fill: none; stroke: #ffffff; stroke-width: 2; stroke-linecap: square"/>
   </g>
   <g id="line2d_80">
    <path d="M 1314.180988 112.212799 
L 1326.233028 112.212799 
" clip-path="url(#p260b37098e)" style="fill: none; stroke: #ffffff; stroke-width: 2; stroke-linecap: square"/>
   </g>
   <g id="text_32">
    <g clip-path="url(#p260b37098e)">
     <!-- H -->
     <g transform="translate(1361.672804 486.631981)scale(0.13 -0.13)">
      <use xlink:href="#DejaVuSans-48"/>
     </g>
    </g>
   </g>
   <g id="line2d_81">
    <path d="M 1366.561007 118.238818 
L 1366.561007 106.186779 
" clip-path="url(#p260b37098e)" style="fill: none; stroke: #ffffff; stroke-width: 2; stroke-linecap: square"/>
   </g>
   <g id="line2d_82">
    <path d="M 1360.534988 112.212799 
L 1372.587027 112.212799 
" clip-path="url(#p260b37098e)" style="fill: none; stroke: #ffffff; stroke-width: 2; stroke-linecap: square"/>
   </g>
   <g id="text_33">
    <g clip-path="url(#p260b37098e)">
     <!-- $\mathrm{S^\dagger}$ -->
     <g transform="translate(1404.465007 486.631981)scale(0.13 -0.13)">
      <defs>
       <path id="DejaVuSans-2020" d="M 1325 4666 
L 1875 4666 
L 1875 3353 
L 3022 3353 
L 3022 2875 
L 1875 2875 
L 1875 -616 
L 1325 -616 
L 1325 2875 
L 178 2875 
L 178 3353 
L 1325 3353 
L 1325 4666 
z
" transform="scale(0.015625)"/>
      </defs>
      <use xlink:href="#DejaVuSans-53" transform="translate(0 0.684375)"/>
      <use xlink:href="#DejaVuSans-2020" transform="translate(78.071289 38.965625)scale(0.7)"/>
     </g>
    </g>
   </g>
   <g id="line2d_83">
    <path d="M 1412.915007 118.238818 
L 1412.915007 106.186779 
" clip-path="url(#p260b37098e)" style="fill: none; stroke: #ffffff; stroke-width: 2; stroke-linecap: square"/>
   </g>
   <g id="line2d_84">
    <path d="M 1406.888987 112.212799 
L 1418.941027 112.212799 
" clip-path="url(#p260b37098e)" style="fill: none; stroke: #ffffff; stroke-width: 2; stroke-linecap: square"/>
   </g>
   <g id="line2d_85">
    <path d="M 1459.269006 118.238818 
L 1459.269006 106.186779 
" clip-path="url(#p260b37098e)" style="fill: none; stroke: #ffffff; stroke-width: 2; stroke-linecap: square"/>
   </g>
   <g id="line2d_86">
    <path d="M 1453.242986 112.212799 
L 1465.295026 112.212799 
" clip-path="url(#p260b37098e)" style="fill: none; stroke: #ffffff; stroke-width: 2; stroke-linecap: square"/>
   </g>
   <g id="text_34">
    <g clip-path="url(#p260b37098e)">
     <!-- H -->
     <g transform="translate(1500.734802 347.569983)scale(0.13 -0.13)">
      <use xlink:href="#DejaVuSans-48"/>
     </g>
    </g>
   </g>
   <g id="line2d_87">
    <path d="M 1505.623006 118.238818 
L 1505.623006 106.186779 
" clip-path="url(#p260b37098e)" style="fill: none; stroke: #ffffff; stroke-width: 2; stroke-linecap: square"/>
   </g>
   <g id="line2d_88">
    <path d="M 1499.596986 112.212799 
L 1511.649026 112.212799 
" clip-path="url(#p260b37098e)" style="fill: none; stroke: #ffffff; stroke-width: 2; stroke-linecap: square"/>
   </g>
   <g id="text_35">
    <g clip-path="url(#p260b37098e)">
     <!-- $\mathrm{S^\dagger}$ -->
     <g transform="translate(1543.527005 347.569983)scale(0.13 -0.13)">
      <use xlink:href="#DejaVuSans-53" transform="translate(0 0.684375)"/>
      <use xlink:href="#DejaVuSans-2020" transform="translate(78.071289 38.965625)scale(0.7)"/>
     </g>
    </g>
   </g>
   <g id="line2d_89">
    <path d="M 1551.977005 118.238818 
L 1551.977005 106.186779 
" clip-path="url(#p260b37098e)" style="fill: none; stroke: #ffffff; stroke-width: 2; stroke-linecap: square"/>
   </g>
   <g id="line2d_90">
    <path d="M 1545.950985 112.212799 
L 1558.003025 112.212799 
" clip-path="url(#p260b37098e)" style="fill: none; stroke: #ffffff; stroke-width: 2; stroke-linecap: square"/>
   </g>
   <g id="line2d_91">
    <path d="M 1598.331004 257.300817 
L 1598.331004 245.248777 
" clip-path="url(#p260b37098e)" style="fill: none; stroke: #ffffff; stroke-width: 2; stroke-linecap: square"/>
   </g>
   <g id="line2d_92">
    <path d="M 1592.304984 251.274797 
L 1604.357024 251.274797 
" clip-path="url(#p260b37098e)" style="fill: none; stroke: #ffffff; stroke-width: 2; stroke-linecap: square"/>
   </g>
   <g id="line2d_93">
    <path d="M 1598.331004 118.238818 
L 1598.331004 106.186779 
" clip-path="url(#p260b37098e)" style="fill: none; stroke: #ffffff; stroke-width: 2; stroke-linecap: square"/>
   </g>
   <g id="line2d_94">
    <path d="M 1592.304984 112.212799 
L 1604.357024 112.212799 
" clip-path="url(#p260b37098e)" style="fill: none; stroke: #ffffff; stroke-width: 2; stroke-linecap: square"/>
   </g>
   <g id="line2d_95">
    <path d="M 1644.685004 257.300817 
L 1644.685004 245.248777 
" clip-path="url(#p260b37098e)" style="fill: none; stroke: #ffffff; stroke-width: 2; stroke-linecap: square"/>
   </g>
   <g id="line2d_96">
    <path d="M 1638.658984 251.274797 
L 1650.711024 251.274797 
" clip-path="url(#p260b37098e)" style="fill: none; stroke: #ffffff; stroke-width: 2; stroke-linecap: square"/>
   </g>
   <g id="text_36">
    <g clip-path="url(#p260b37098e)">
     <!-- $-$0.00236 -->
     <g transform="translate(1671.119003 262.521327)scale(0.08 -0.08)">
      <defs>
       <path id="DejaVuSans-2212" d="M 678 2272 
L 4684 2272 
L 4684 1741 
L 678 1741 
L 678 2272 
z
" transform="scale(0.015625)"/>
      </defs>
      <use xlink:href="#DejaVuSans-2212" transform="translate(0 0.78125)"/>
      <use xlink:href="#DejaVuSans-30" transform="translate(83.789062 0.78125)"/>
      <use xlink:href="#DejaVuSans-2e" transform="translate(147.412109 0.78125)"/>
      <use xlink:href="#DejaVuSans-30" transform="translate(179.199219 0.78125)"/>
      <use xlink:href="#DejaVuSans-30" transform="translate(242.822266 0.78125)"/>
      <use xlink:href="#DejaVuSans-32" transform="translate(306.445312 0.78125)"/>
      <use xlink:href="#DejaVuSans-33" transform="translate(370.068359 0.78125)"/>
      <use xlink:href="#DejaVuSans-36" transform="translate(433.691406 0.78125)"/>
     </g>
    </g>
   </g>
   <g id="text_37">
    <g clip-path="url(#p260b37098e)">
     <!-- $\mathrm{R_Z}$ -->
     <g transform="translate(1683.109003 250.342469)scale(0.13 -0.13)">
      <use xlink:href="#DejaVuSans-52" transform="translate(0 0.09375)"/>
      <use xlink:href="#DejaVuSans-5a" transform="translate(70.439453 -16.3125)scale(0.7)"/>
     </g>
    </g>
   </g>
   <g id="line2d_97">
    <path d="M 1737.393003 257.300817 
L 1737.393003 245.248777 
" clip-path="url(#p260b37098e)" style="fill: none; stroke: #ffffff; stroke-width: 2; stroke-linecap: square"/>
   </g>
   <g id="line2d_98">
    <path d="M 1731.366983 251.274797 
L 1743.419022 251.274797 
" clip-path="url(#p260b37098e)" style="fill: none; stroke: #ffffff; stroke-width: 2; stroke-linecap: square"/>
   </g>
   <g id="text_38">
    <g clip-path="url(#p260b37098e)">
     <!-- H -->
     <g transform="translate(1778.858799 301.215984)scale(0.13 -0.13)">
      <use xlink:href="#DejaVuSans-48"/>
     </g>
    </g>
   </g>
   <g id="line2d_99">
    <path d="M 1830.101001 257.300817 
L 1830.101001 245.248777 
" clip-path="url(#p260b37098e)" style="fill: none; stroke: #ffffff; stroke-width: 2; stroke-linecap: square"/>
   </g>
   <g id="line2d_100">
    <path d="M 1824.074981 251.274797 
L 1836.127021 251.274797 
" clip-path="url(#p260b37098e)" style="fill: none; stroke: #ffffff; stroke-width: 2; stroke-linecap: square"/>
   </g>
  </g>
 </g>
 <defs>
  <clipPath id="p260b37098e">
   <rect x="264.332665" y="75.129599" width="1596.361976" height="482.081594"/>
  </clipPath>
 </defs>
</svg>
