<?xml version="1.0" encoding="utf-8" standalone="no"?>
<!DOCTYPE svg PUBLIC "-//W3C//DTD SVG 1.1//EN"
  "http://www.w3.org/Graphics/SVG/1.1/DTD/svg11.dtd">
<svg xmlns:xlink="http://www.w3.org/1999/xlink" width="2735.397363pt" height="626.079992pt" viewBox="0 0 2735.397363 626.079992" xmlns="http://www.w3.org/2000/svg" version="1.1">
 <metadata>
  <rdf:RDF xmlns:dc="http://purl.org/dc/elements/1.1/" xmlns:cc="http://creativecommons.org/ns#" xmlns:rdf="http://www.w3.org/1999/02/22-rdf-syntax-ns#">
   <cc:Work>
    <dc:type rdf:resource="http://purl.org/dc/dcmitype/StillImage"/>
    <dc:date>2022-05-22T14:36:54.358615</dc:date>
    <dc:format>image/svg+xml</dc:format>
    <dc:creator>
     <cc:Agent>
      <dc:title>Matplotlib v3.5.1, https://matplotlib.org/</dc:title>
     </cc:Agent>
    </dc:creator>
   </cc:Work>
  </rdf:RDF>
 </metadata>
 <defs>
  <style type="text/css">*{stroke-linejoin: round; stroke-linecap: butt}</style>
 </defs>
 <g id="figure_1">
  <g id="patch_1">
   <path d="M 0 626.079992 
L 2735.397363 626.079992 
L 2735.397363 0 
L 0 0 
z
" style="fill: #ffffff"/>
  </g>
  <g id="axes_1">
   <g id="line2d_1">
    <path d="M 406.17236 112.212799 
L 2450.383733 112.212799 
" clip-path="url(#pff5d3648b2)" style="fill: none; stroke: #000000; stroke-width: 2; stroke-linecap: square"/>
   </g>
   <g id="line2d_2">
    <path d="M 406.17236 158.566798 
L 2450.383733 158.566798 
" clip-path="url(#pff5d3648b2)" style="fill: none; stroke: #000000; stroke-width: 2; stroke-linecap: square"/>
   </g>
   <g id="line2d_3">
    <path d="M 406.17236 204.920797 
L 2450.383733 204.920797 
" clip-path="url(#pff5d3648b2)" style="fill: none; stroke: #000000; stroke-width: 2; stroke-linecap: square"/>
   </g>
   <g id="line2d_4">
    <path d="M 406.17236 251.274797 
L 2450.383733 251.274797 
" clip-path="url(#pff5d3648b2)" style="fill: none; stroke: #000000; stroke-width: 2; stroke-linecap: square"/>
   </g>
   <g id="line2d_5">
    <path d="M 406.17236 297.628796 
L 2450.383733 297.628796 
" clip-path="url(#pff5d3648b2)" style="fill: none; stroke: #000000; stroke-width: 2; stroke-linecap: square"/>
   </g>
   <g id="line2d_6">
    <path d="M 406.17236 343.982795 
L 2450.383733 343.982795 
" clip-path="url(#pff5d3648b2)" style="fill: none; stroke: #000000; stroke-width: 2; stroke-linecap: square"/>
   </g>
   <g id="line2d_7">
    <path d="M 406.17236 390.336795 
L 2450.383733 390.336795 
" clip-path="url(#pff5d3648b2)" style="fill: none; stroke: #000000; stroke-width: 2; stroke-linecap: square"/>
   </g>
   <g id="line2d_8">
    <path d="M 406.17236 436.690794 
L 2450.383733 436.690794 
" clip-path="url(#pff5d3648b2)" style="fill: none; stroke: #000000; stroke-width: 2; stroke-linecap: square"/>
   </g>
   <g id="line2d_9">
    <path d="M 406.17236 483.044794 
L 2450.383733 483.044794 
" clip-path="url(#pff5d3648b2)" style="fill: none; stroke: #000000; stroke-width: 2; stroke-linecap: square"/>
   </g>
   <g id="line2d_10">
    <path d="M 406.17236 529.398793 
L 2450.383733 529.398793 
" clip-path="url(#pff5d3648b2)" style="fill: none; stroke: #000000; stroke-width: 2; stroke-linecap: square"/>
   </g>
   <g id="line2d_11">
    <path d="M 477.557519 529.398793 
L 477.557519 343.982795 
" clip-path="url(#pff5d3648b2)" style="fill: none; stroke: #000000; stroke-width: 2; stroke-linecap: square"/>
   </g>
   <g id="line2d_12">
    <path d="M 570.265518 529.398793 
L 570.265518 390.336795 
" clip-path="url(#pff5d3648b2)" style="fill: none; stroke: #000000; stroke-width: 2; stroke-linecap: square"/>
   </g>
   <g id="line2d_13">
    <path d="M 616.619517 529.398793 
L 616.619517 483.044794 
" clip-path="url(#pff5d3648b2)" style="fill: none; stroke: #000000; stroke-width: 2; stroke-linecap: square"/>
   </g>
   <g id="line2d_14">
    <path d="M 709.327516 529.398793 
L 709.327516 483.044794 
" clip-path="url(#pff5d3648b2)" style="fill: none; stroke: #000000; stroke-width: 2; stroke-linecap: square"/>
   </g>
   <g id="line2d_15">
    <path d="M 755.681516 529.398793 
L 755.681516 390.336795 
" clip-path="url(#pff5d3648b2)" style="fill: none; stroke: #000000; stroke-width: 2; stroke-linecap: square"/>
   </g>
   <g id="line2d_16">
    <path d="M 848.389514 529.398793 
L 848.389514 343.982795 
" clip-path="url(#pff5d3648b2)" style="fill: none; stroke: #000000; stroke-width: 2; stroke-linecap: square"/>
   </g>
   <g id="line2d_17">
    <path d="M 894.743514 529.398793 
L 894.743514 483.044794 
" clip-path="url(#pff5d3648b2)" style="fill: none; stroke: #000000; stroke-width: 2; stroke-linecap: square"/>
   </g>
   <g id="line2d_18">
    <path d="M 941.097513 529.398793 
L 941.097513 251.274797 
" clip-path="url(#pff5d3648b2)" style="fill: none; stroke: #000000; stroke-width: 2; stroke-linecap: square"/>
   </g>
   <g id="line2d_19">
    <path d="M 1033.805512 529.398793 
L 1033.805512 204.920797 
" clip-path="url(#pff5d3648b2)" style="fill: none; stroke: #000000; stroke-width: 2; stroke-linecap: square"/>
   </g>
   <g id="line2d_20">
    <path d="M 1126.513511 529.398793 
L 1126.513511 158.566798 
" clip-path="url(#pff5d3648b2)" style="fill: none; stroke: #000000; stroke-width: 2; stroke-linecap: square"/>
   </g>
   <g id="line2d_21">
    <path d="M 1172.86751 529.398793 
L 1172.86751 112.212799 
" clip-path="url(#pff5d3648b2)" style="fill: none; stroke: #000000; stroke-width: 2; stroke-linecap: square"/>
   </g>
   <g id="line2d_22">
    <path d="M 1265.575509 529.398793 
L 1265.575509 112.212799 
" clip-path="url(#pff5d3648b2)" style="fill: none; stroke: #000000; stroke-width: 2; stroke-linecap: square"/>
   </g>
   <g id="line2d_23">
    <path d="M 1311.929508 529.398793 
L 1311.929508 158.566798 
" clip-path="url(#pff5d3648b2)" style="fill: none; stroke: #000000; stroke-width: 2; stroke-linecap: square"/>
   </g>
   <g id="line2d_24">
    <path d="M 1358.283508 529.398793 
L 1358.283508 204.920797 
" clip-path="url(#pff5d3648b2)" style="fill: none; stroke: #000000; stroke-width: 2; stroke-linecap: square"/>
   </g>
   <g id="line2d_25">
    <path d="M 1404.637507 529.398793 
L 1404.637507 251.274797 
" clip-path="url(#pff5d3648b2)" style="fill: none; stroke: #000000; stroke-width: 2; stroke-linecap: square"/>
   </g>
   <g id="line2d_26">
    <path d="M 1450.991506 529.398793 
L 1450.991506 483.044794 
" clip-path="url(#pff5d3648b2)" style="fill: none; stroke: #000000; stroke-width: 2; stroke-linecap: square"/>
   </g>
   <g id="line2d_27">
    <path d="M 1543.699505 251.274797 
L 1543.699505 204.920797 
" clip-path="url(#pff5d3648b2)" style="fill: none; stroke: #000000; stroke-width: 2; stroke-linecap: square"/>
   </g>
   <g id="line2d_28">
    <path d="M 1590.053504 297.628796 
L 1590.053504 204.920797 
" clip-path="url(#pff5d3648b2)" style="fill: none; stroke: #000000; stroke-width: 2; stroke-linecap: square"/>
   </g>
   <g id="line2d_29">
    <path d="M 1636.407504 343.982795 
L 1636.407504 204.920797 
" clip-path="url(#pff5d3648b2)" style="fill: none; stroke: #000000; stroke-width: 2; stroke-linecap: square"/>
   </g>
   <g id="line2d_30">
    <path d="M 1682.761503 390.336795 
L 1682.761503 204.920797 
" clip-path="url(#pff5d3648b2)" style="fill: none; stroke: #000000; stroke-width: 2; stroke-linecap: square"/>
   </g>
   <g id="line2d_31">
    <path d="M 1729.115503 436.690794 
L 1729.115503 204.920797 
" clip-path="url(#pff5d3648b2)" style="fill: none; stroke: #000000; stroke-width: 2; stroke-linecap: square"/>
   </g>
   <g id="line2d_32">
    <path d="M 1868.177501 436.690794 
L 1868.177501 204.920797 
" clip-path="url(#pff5d3648b2)" style="fill: none; stroke: #000000; stroke-width: 2; stroke-linecap: square"/>
   </g>
   <g id="line2d_33">
    <path d="M 1914.5315 390.336795 
L 1914.5315 204.920797 
" clip-path="url(#pff5d3648b2)" style="fill: none; stroke: #000000; stroke-width: 2; stroke-linecap: square"/>
   </g>
   <g id="line2d_34">
    <path d="M 1960.8855 343.982795 
L 1960.8855 204.920797 
" clip-path="url(#pff5d3648b2)" style="fill: none; stroke: #000000; stroke-width: 2; stroke-linecap: square"/>
   </g>
   <g id="line2d_35">
    <path d="M 2007.239499 297.628796 
L 2007.239499 204.920797 
" clip-path="url(#pff5d3648b2)" style="fill: none; stroke: #000000; stroke-width: 2; stroke-linecap: square"/>
   </g>
   <g id="line2d_36">
    <path d="M 2053.593498 251.274797 
L 2053.593498 204.920797 
" clip-path="url(#pff5d3648b2)" style="fill: none; stroke: #000000; stroke-width: 2; stroke-linecap: square"/>
   </g>
   <g id="line2d_37">
    <path d="M 2146.301497 343.982795 
L 2146.301497 251.274797 
" clip-path="url(#pff5d3648b2)" style="fill: none; stroke: #000000; stroke-width: 2; stroke-linecap: square"/>
   </g>
   <g id="line2d_38">
    <path d="M 2239.009496 297.628796 
L 2239.009496 251.274797 
" clip-path="url(#pff5d3648b2)" style="fill: none; stroke: #000000; stroke-width: 2; stroke-linecap: square"/>
   </g>
   <g id="line2d_39">
    <path d="M 2331.717495 297.628796 
L 2331.717495 251.274797 
" clip-path="url(#pff5d3648b2)" style="fill: none; stroke: #000000; stroke-width: 2; stroke-linecap: square"/>
   </g>
   <g id="line2d_40">
    <path d="M 2424.425493 343.982795 
L 2424.425493 251.274797 
" clip-path="url(#pff5d3648b2)" style="fill: none; stroke: #000000; stroke-width: 2; stroke-linecap: square"/>
   </g>
   <g id="text_1">
    <!-- TERMS: 4, DEPTH:37 -->
    <g transform="translate(1339.858648 69.129599)scale(0.12 -0.12)">
     <defs>
      <path id="DejaVuSans-54" d="M -19 4666 
L 3928 4666 
L 3928 4134 
L 2272 4134 
L 2272 0 
L 1638 0 
L 1638 4134 
L -19 4134 
L -19 4666 
z
" transform="scale(0.015625)"/>
      <path id="DejaVuSans-45" d="M 628 4666 
L 3578 4666 
L 3578 4134 
L 1259 4134 
L 1259 2753 
L 3481 2753 
L 3481 2222 
L 1259 2222 
L 1259 531 
L 3634 531 
L 3634 0 
L 628 0 
L 628 4666 
z
" transform="scale(0.015625)"/>
      <path id="DejaVuSans-52" d="M 2841 2188 
Q 3044 2119 3236 1894 
Q 3428 1669 3622 1275 
L 4263 0 
L 3584 0 
L 2988 1197 
Q 2756 1666 2539 1819 
Q 2322 1972 1947 1972 
L 1259 1972 
L 1259 0 
L 628 0 
L 628 4666 
L 2053 4666 
Q 2853 4666 3247 4331 
Q 3641 3997 3641 3322 
Q 3641 2881 3436 2590 
Q 3231 2300 2841 2188 
z
M 1259 4147 
L 1259 2491 
L 2053 2491 
Q 2509 2491 2742 2702 
Q 2975 2913 2975 3322 
Q 2975 3731 2742 3939 
Q 2509 4147 2053 4147 
L 1259 4147 
z
" transform="scale(0.015625)"/>
      <path id="DejaVuSans-4d" d="M 628 4666 
L 1569 4666 
L 2759 1491 
L 3956 4666 
L 4897 4666 
L 4897 0 
L 4281 0 
L 4281 4097 
L 3078 897 
L 2444 897 
L 1241 4097 
L 1241 0 
L 628 0 
L 628 4666 
z
" transform="scale(0.015625)"/>
      <path id="DejaVuSans-53" d="M 3425 4513 
L 3425 3897 
Q 3066 4069 2747 4153 
Q 2428 4238 2131 4238 
Q 1616 4238 1336 4038 
Q 1056 3838 1056 3469 
Q 1056 3159 1242 3001 
Q 1428 2844 1947 2747 
L 2328 2669 
Q 3034 2534 3370 2195 
Q 3706 1856 3706 1288 
Q 3706 609 3251 259 
Q 2797 -91 1919 -91 
Q 1588 -91 1214 -16 
Q 841 59 441 206 
L 441 856 
Q 825 641 1194 531 
Q 1563 422 1919 422 
Q 2459 422 2753 634 
Q 3047 847 3047 1241 
Q 3047 1584 2836 1778 
Q 2625 1972 2144 2069 
L 1759 2144 
Q 1053 2284 737 2584 
Q 422 2884 422 3419 
Q 422 4038 858 4394 
Q 1294 4750 2059 4750 
Q 2388 4750 2728 4690 
Q 3069 4631 3425 4513 
z
" transform="scale(0.015625)"/>
      <path id="DejaVuSans-3a" d="M 750 794 
L 1409 794 
L 1409 0 
L 750 0 
L 750 794 
z
M 750 3309 
L 1409 3309 
L 1409 2516 
L 750 2516 
L 750 3309 
z
" transform="scale(0.015625)"/>
      <path id="DejaVuSans-20" transform="scale(0.015625)"/>
      <path id="DejaVuSans-34" d="M 2419 4116 
L 825 1625 
L 2419 1625 
L 2419 4116 
z
M 2253 4666 
L 3047 4666 
L 3047 1625 
L 3713 1625 
L 3713 1100 
L 3047 1100 
L 3047 0 
L 2419 0 
L 2419 1100 
L 313 1100 
L 313 1709 
L 2253 4666 
z
" transform="scale(0.015625)"/>
      <path id="DejaVuSans-2c" d="M 750 794 
L 1409 794 
L 1409 256 
L 897 -744 
L 494 -744 
L 750 256 
L 750 794 
z
" transform="scale(0.015625)"/>
      <path id="DejaVuSans-44" d="M 1259 4147 
L 1259 519 
L 2022 519 
Q 2988 519 3436 956 
Q 3884 1394 3884 2338 
Q 3884 3275 3436 3711 
Q 2988 4147 2022 4147 
L 1259 4147 
z
M 628 4666 
L 1925 4666 
Q 3281 4666 3915 4102 
Q 4550 3538 4550 2338 
Q 4550 1131 3912 565 
Q 3275 0 1925 0 
L 628 0 
L 628 4666 
z
" transform="scale(0.015625)"/>
      <path id="DejaVuSans-50" d="M 1259 4147 
L 1259 2394 
L 2053 2394 
Q 2494 2394 2734 2622 
Q 2975 2850 2975 3272 
Q 2975 3691 2734 3919 
Q 2494 4147 2053 4147 
L 1259 4147 
z
M 628 4666 
L 2053 4666 
Q 2838 4666 3239 4311 
Q 3641 3956 3641 3272 
Q 3641 2581 3239 2228 
Q 2838 1875 2053 1875 
L 1259 1875 
L 1259 0 
L 628 0 
L 628 4666 
z
" transform="scale(0.015625)"/>
      <path id="DejaVuSans-48" d="M 628 4666 
L 1259 4666 
L 1259 2753 
L 3553 2753 
L 3553 4666 
L 4184 4666 
L 4184 0 
L 3553 0 
L 3553 2222 
L 1259 2222 
L 1259 0 
L 628 0 
L 628 4666 
z
" transform="scale(0.015625)"/>
      <path id="DejaVuSans-33" d="M 2597 2516 
Q 3050 2419 3304 2112 
Q 3559 1806 3559 1356 
Q 3559 666 3084 287 
Q 2609 -91 1734 -91 
Q 1441 -91 1130 -33 
Q 819 25 488 141 
L 488 750 
Q 750 597 1062 519 
Q 1375 441 1716 441 
Q 2309 441 2620 675 
Q 2931 909 2931 1356 
Q 2931 1769 2642 2001 
Q 2353 2234 1838 2234 
L 1294 2234 
L 1294 2753 
L 1863 2753 
Q 2328 2753 2575 2939 
Q 2822 3125 2822 3475 
Q 2822 3834 2567 4026 
Q 2313 4219 1838 4219 
Q 1578 4219 1281 4162 
Q 984 4106 628 3988 
L 628 4550 
Q 988 4650 1302 4700 
Q 1616 4750 1894 4750 
Q 2613 4750 3031 4423 
Q 3450 4097 3450 3541 
Q 3450 3153 3228 2886 
Q 3006 2619 2597 2516 
z
" transform="scale(0.015625)"/>
      <path id="DejaVuSans-37" d="M 525 4666 
L 3525 4666 
L 3525 4397 
L 1831 0 
L 1172 0 
L 2766 4134 
L 525 4134 
L 525 4666 
z
" transform="scale(0.015625)"/>
     </defs>
     <use xlink:href="#DejaVuSans-54"/>
     <use xlink:href="#DejaVuSans-45" x="61.083984"/>
     <use xlink:href="#DejaVuSans-52" x="124.267578"/>
     <use xlink:href="#DejaVuSans-4d" x="193.75"/>
     <use xlink:href="#DejaVuSans-53" x="280.029297"/>
     <use xlink:href="#DejaVuSans-3a" x="343.505859"/>
     <use xlink:href="#DejaVuSans-20" x="377.197266"/>
     <use xlink:href="#DejaVuSans-34" x="408.984375"/>
     <use xlink:href="#DejaVuSans-2c" x="472.607422"/>
     <use xlink:href="#DejaVuSans-20" x="504.394531"/>
     <use xlink:href="#DejaVuSans-44" x="536.181641"/>
     <use xlink:href="#DejaVuSans-45" x="613.183594"/>
     <use xlink:href="#DejaVuSans-50" x="676.367188"/>
     <use xlink:href="#DejaVuSans-54" x="736.669922"/>
     <use xlink:href="#DejaVuSans-48" x="797.753906"/>
     <use xlink:href="#DejaVuSans-3a" x="872.949219"/>
     <use xlink:href="#DejaVuSans-33" x="906.640625"/>
     <use xlink:href="#DejaVuSans-37" x="970.263672"/>
    </g>
   </g>
   <g id="patch_2">
    <path d="M 416.13847 359.047845 
L 446.26857 359.047845 
L 446.26857 328.917746 
L 416.13847 328.917746 
z
" clip-path="url(#pff5d3648b2)" style="fill: #ffffff; stroke: #000000; stroke-width: 1.5; stroke-linejoin: miter"/>
   </g>
   <g id="patch_3">
    <path d="M 416.13847 266.339846 
L 446.26857 266.339846 
L 446.26857 236.209747 
L 416.13847 236.209747 
z
" clip-path="url(#pff5d3648b2)" style="fill: #ffffff; stroke: #000000; stroke-width: 1.5; stroke-linejoin: miter"/>
   </g>
   <g id="patch_4">
    <path d="M 416.13847 127.277848 
L 446.26857 127.277848 
L 446.26857 97.147749 
L 416.13847 97.147749 
z
" clip-path="url(#pff5d3648b2)" style="fill: #ffffff; stroke: #000000; stroke-width: 1.5; stroke-linejoin: miter"/>
   </g>
   <g id="patch_5">
    <path d="M 416.13847 312.693846 
L 446.26857 312.693846 
L 446.26857 282.563746 
L 416.13847 282.563746 
z
" clip-path="url(#pff5d3648b2)" style="fill: #ffffff; stroke: #000000; stroke-width: 1.5; stroke-linejoin: miter"/>
   </g>
   <g id="patch_6">
    <path d="M 416.13847 451.755844 
L 446.26857 451.755844 
L 446.26857 421.625744 
L 416.13847 421.625744 
z
" clip-path="url(#pff5d3648b2)" style="fill: #ffffff; stroke: #000000; stroke-width: 1.5; stroke-linejoin: miter"/>
   </g>
   <g id="patch_7">
    <path d="M 477.557519 348.50231 
C 478.756109 348.50231 479.905768 348.026106 480.753299 347.178575 
C 481.60083 346.331044 482.077034 345.181385 482.077034 343.982795 
C 482.077034 342.784206 481.60083 341.634546 480.753299 340.787016 
C 479.905768 339.939485 478.756109 339.46328 477.557519 339.46328 
C 476.35893 339.46328 475.20927 339.939485 474.36174 340.787016 
C 473.514209 341.634546 473.038004 342.784206 473.038004 343.982795 
C 473.038004 345.181385 473.514209 346.331044 474.36174 347.178575 
C 475.20927 348.026106 476.35893 348.50231 477.557519 348.50231 
z
" clip-path="url(#pff5d3648b2)" style="stroke: #000000; stroke-width: 1.5; stroke-linejoin: miter"/>
   </g>
   <g id="patch_8">
    <path d="M 477.557519 539.944328 
C 480.354228 539.944328 483.036767 538.833184 485.014338 536.855612 
C 486.99191 534.878041 488.103054 532.195502 488.103054 529.398793 
C 488.103054 526.602084 486.99191 523.919545 485.014338 521.941974 
C 483.036767 519.964402 480.354228 518.853258 477.557519 518.853258 
C 474.760811 518.853258 472.078272 519.964402 470.1007 521.941974 
C 468.123128 523.919545 467.011984 526.602084 467.011984 529.398793 
C 467.011984 532.195502 468.123128 534.878041 470.1007 536.855612 
C 472.078272 538.833184 474.760811 539.944328 477.557519 539.944328 
z
" clip-path="url(#pff5d3648b2)" style="stroke: #000000; stroke-width: 2; stroke-linejoin: miter"/>
   </g>
   <g id="patch_9">
    <path d="M 462.492469 266.339846 
L 492.622569 266.339846 
L 492.622569 236.209747 
L 462.492469 236.209747 
z
" clip-path="url(#pff5d3648b2)" style="fill: #ffffff; stroke: #000000; stroke-width: 1.5; stroke-linejoin: miter"/>
   </g>
   <g id="patch_10">
    <path d="M 462.492469 127.277848 
L 492.622569 127.277848 
L 492.622569 97.147749 
L 462.492469 97.147749 
z
" clip-path="url(#pff5d3648b2)" style="fill: #ffffff; stroke: #000000; stroke-width: 1.5; stroke-linejoin: miter"/>
   </g>
   <g id="patch_11">
    <path d="M 462.492469 312.693846 
L 492.622569 312.693846 
L 492.622569 282.563746 
L 462.492469 282.563746 
z
" clip-path="url(#pff5d3648b2)" style="fill: #ffffff; stroke: #000000; stroke-width: 1.5; stroke-linejoin: miter"/>
   </g>
   <g id="patch_12">
    <path d="M 508.846469 451.755844 
L 538.976568 451.755844 
L 538.976568 421.625744 
L 508.846469 421.625744 
z
" clip-path="url(#pff5d3648b2)" style="fill: #ffffff; stroke: #000000; stroke-width: 1.5; stroke-linejoin: miter"/>
   </g>
   <g id="patch_13">
    <path d="M 570.265518 394.85631 
C 571.464107 394.85631 572.613767 394.380105 573.461298 393.532574 
C 574.308828 392.685044 574.785033 391.535384 574.785033 390.336795 
C 574.785033 389.138205 574.308828 387.988546 573.461298 387.141015 
C 572.613767 386.293484 571.464107 385.81728 570.265518 385.81728 
C 569.066929 385.81728 567.917269 386.293484 567.069738 387.141015 
C 566.222208 387.988546 565.746003 389.138205 565.746003 390.336795 
C 565.746003 391.535384 566.222208 392.685044 567.069738 393.532574 
C 567.917269 394.380105 569.066929 394.85631 570.265518 394.85631 
z
" clip-path="url(#pff5d3648b2)" style="stroke: #000000; stroke-width: 1.5; stroke-linejoin: miter"/>
   </g>
   <g id="patch_14">
    <path d="M 570.265518 539.944328 
C 573.062227 539.944328 575.744766 538.833184 577.722337 536.855612 
C 579.699909 534.878041 580.811053 532.195502 580.811053 529.398793 
C 580.811053 526.602084 579.699909 523.919545 577.722337 521.941974 
C 575.744766 519.964402 573.062227 518.853258 570.265518 518.853258 
C 567.468809 518.853258 564.78627 519.964402 562.808699 521.941974 
C 560.831127 523.919545 559.719983 526.602084 559.719983 529.398793 
C 559.719983 532.195502 560.831127 534.878041 562.808699 536.855612 
C 564.78627 538.833184 567.468809 539.944328 570.265518 539.944328 
z
" clip-path="url(#pff5d3648b2)" style="stroke: #000000; stroke-width: 2; stroke-linejoin: miter"/>
   </g>
   <g id="patch_15">
    <path d="M 616.619517 487.564309 
C 617.818107 487.564309 618.967766 487.088104 619.815297 486.240573 
C 620.662828 485.393043 621.139032 484.243383 621.139032 483.044794 
C 621.139032 481.846204 620.662828 480.696545 619.815297 479.849014 
C 618.967766 479.001483 617.818107 478.525279 616.619517 478.525279 
C 615.420928 478.525279 614.271268 479.001483 613.423738 479.849014 
C 612.576207 480.696545 612.100002 481.846204 612.100002 483.044794 
C 612.100002 484.243383 612.576207 485.393043 613.423738 486.240573 
C 614.271268 487.088104 615.420928 487.564309 616.619517 487.564309 
z
" clip-path="url(#pff5d3648b2)" style="stroke: #000000; stroke-width: 1.5; stroke-linejoin: miter"/>
   </g>
   <g id="patch_16">
    <path d="M 616.619517 539.944328 
C 619.416226 539.944328 622.098765 538.833184 624.076337 536.855612 
C 626.053908 534.878041 627.165052 532.195502 627.165052 529.398793 
C 627.165052 526.602084 626.053908 523.919545 624.076337 521.941974 
C 622.098765 519.964402 619.416226 518.853258 616.619517 518.853258 
C 613.822809 518.853258 611.14027 519.964402 609.162698 521.941974 
C 607.185127 523.919545 606.073983 526.602084 606.073983 529.398793 
C 606.073983 532.195502 607.185127 534.878041 609.162698 536.855612 
C 611.14027 538.833184 613.822809 539.944328 616.619517 539.944328 
z
" clip-path="url(#pff5d3648b2)" style="stroke: #000000; stroke-width: 2; stroke-linejoin: miter"/>
   </g>
   <g id="patch_17">
    <path d="M 644.380928 544.463843 
L 681.566106 544.463843 
L 681.566106 514.333743 
L 644.380928 514.333743 
z
" clip-path="url(#pff5d3648b2)" style="fill: #ffffff; stroke: #000000; stroke-width: 1.5; stroke-linejoin: miter"/>
   </g>
   <g id="patch_18">
    <path d="M 709.327516 487.564309 
C 710.526106 487.564309 711.675765 487.088104 712.523296 486.240573 
C 713.370827 485.393043 713.847031 484.243383 713.847031 483.044794 
C 713.847031 481.846204 713.370827 480.696545 712.523296 479.849014 
C 711.675765 479.001483 710.526106 478.525279 709.327516 478.525279 
C 708.128927 478.525279 706.979267 479.001483 706.131737 479.849014 
C 705.284206 480.696545 704.808001 481.846204 704.808001 483.044794 
C 704.808001 484.243383 705.284206 485.393043 706.131737 486.240573 
C 706.979267 487.088104 708.128927 487.564309 709.327516 487.564309 
z
" clip-path="url(#pff5d3648b2)" style="stroke: #000000; stroke-width: 1.5; stroke-linejoin: miter"/>
   </g>
   <g id="patch_19">
    <path d="M 709.327516 539.944328 
C 712.124225 539.944328 714.806764 538.833184 716.784335 536.855612 
C 718.761907 534.878041 719.873051 532.195502 719.873051 529.398793 
C 719.873051 526.602084 718.761907 523.919545 716.784335 521.941974 
C 714.806764 519.964402 712.124225 518.853258 709.327516 518.853258 
C 706.530808 518.853258 703.848269 519.964402 701.870697 521.941974 
C 699.893125 523.919545 698.781981 526.602084 698.781981 529.398793 
C 698.781981 532.195502 699.893125 534.878041 701.870697 536.855612 
C 703.848269 538.833184 706.530808 539.944328 709.327516 539.944328 
z
" clip-path="url(#pff5d3648b2)" style="stroke: #000000; stroke-width: 2; stroke-linejoin: miter"/>
   </g>
   <g id="patch_20">
    <path d="M 755.681516 394.85631 
C 756.880105 394.85631 758.029765 394.380105 758.877295 393.532574 
C 759.724826 392.685044 760.201031 391.535384 760.201031 390.336795 
C 760.201031 389.138205 759.724826 387.988546 758.877295 387.141015 
C 758.029765 386.293484 756.880105 385.81728 755.681516 385.81728 
C 754.482926 385.81728 753.333267 386.293484 752.485736 387.141015 
C 751.638205 387.988546 751.162001 389.138205 751.162001 390.336795 
C 751.162001 391.535384 751.638205 392.685044 752.485736 393.532574 
C 753.333267 394.380105 754.482926 394.85631 755.681516 394.85631 
z
" clip-path="url(#pff5d3648b2)" style="stroke: #000000; stroke-width: 1.5; stroke-linejoin: miter"/>
   </g>
   <g id="patch_21">
    <path d="M 755.681516 539.944328 
C 758.478224 539.944328 761.160763 538.833184 763.138335 536.855612 
C 765.115906 534.878041 766.22705 532.195502 766.22705 529.398793 
C 766.22705 526.602084 765.115906 523.919545 763.138335 521.941974 
C 761.160763 519.964402 758.478224 518.853258 755.681516 518.853258 
C 752.884807 518.853258 750.202268 519.964402 748.224696 521.941974 
C 746.247125 523.919545 745.135981 526.602084 745.135981 529.398793 
C 745.135981 532.195502 746.247125 534.878041 748.224696 536.855612 
C 750.202268 538.833184 752.884807 539.944328 755.681516 539.944328 
z
" clip-path="url(#pff5d3648b2)" style="stroke: #000000; stroke-width: 2; stroke-linejoin: miter"/>
   </g>
   <g id="patch_22">
    <path d="M 786.970465 498.109843 
L 817.100565 498.109843 
L 817.100565 467.979744 
L 786.970465 467.979744 
z
" clip-path="url(#pff5d3648b2)" style="fill: #ffffff; stroke: #000000; stroke-width: 1.5; stroke-linejoin: miter"/>
   </g>
   <g id="patch_23">
    <path d="M 848.389514 348.50231 
C 849.588104 348.50231 850.737763 348.026106 851.585294 347.178575 
C 852.432825 346.331044 852.909029 345.181385 852.909029 343.982795 
C 852.909029 342.784206 852.432825 341.634546 851.585294 340.787016 
C 850.737763 339.939485 849.588104 339.46328 848.389514 339.46328 
C 847.190925 339.46328 846.041265 339.939485 845.193735 340.787016 
C 844.346204 341.634546 843.869999 342.784206 843.869999 343.982795 
C 843.869999 345.181385 844.346204 346.331044 845.193735 347.178575 
C 846.041265 348.026106 847.190925 348.50231 848.389514 348.50231 
z
" clip-path="url(#pff5d3648b2)" style="stroke: #000000; stroke-width: 1.5; stroke-linejoin: miter"/>
   </g>
   <g id="patch_24">
    <path d="M 848.389514 539.944328 
C 851.186223 539.944328 853.868762 538.833184 855.846334 536.855612 
C 857.823905 534.878041 858.935049 532.195502 858.935049 529.398793 
C 858.935049 526.602084 857.823905 523.919545 855.846334 521.941974 
C 853.868762 519.964402 851.186223 518.853258 848.389514 518.853258 
C 845.592806 518.853258 842.910267 519.964402 840.932695 521.941974 
C 838.955124 523.919545 837.843979 526.602084 837.843979 529.398793 
C 837.843979 532.195502 838.955124 534.878041 840.932695 536.855612 
C 842.910267 538.833184 845.592806 539.944328 848.389514 539.944328 
z
" clip-path="url(#pff5d3648b2)" style="stroke: #000000; stroke-width: 2; stroke-linejoin: miter"/>
   </g>
   <g id="patch_25">
    <path d="M 879.678464 359.047845 
L 909.808564 359.047845 
L 909.808564 328.917746 
L 879.678464 328.917746 
z
" clip-path="url(#pff5d3648b2)" style="fill: #ffffff; stroke: #000000; stroke-width: 1.5; stroke-linejoin: miter"/>
   </g>
   <g id="patch_26">
    <path d="M 894.743514 487.564309 
C 895.942103 487.564309 897.091763 487.088104 897.939293 486.240573 
C 898.786824 485.393043 899.263029 484.243383 899.263029 483.044794 
C 899.263029 481.846204 898.786824 480.696545 897.939293 479.849014 
C 897.091763 479.001483 895.942103 478.525279 894.743514 478.525279 
C 893.544924 478.525279 892.395265 479.001483 891.547734 479.849014 
C 890.700203 480.696545 890.223999 481.846204 890.223999 483.044794 
C 890.223999 484.243383 890.700203 485.393043 891.547734 486.240573 
C 892.395265 487.088104 893.544924 487.564309 894.743514 487.564309 
z
" clip-path="url(#pff5d3648b2)" style="stroke: #000000; stroke-width: 1.5; stroke-linejoin: miter"/>
   </g>
   <g id="patch_27">
    <path d="M 894.743514 539.944328 
C 897.540222 539.944328 900.222761 538.833184 902.200333 536.855612 
C 904.177904 534.878041 905.289049 532.195502 905.289049 529.398793 
C 905.289049 526.602084 904.177904 523.919545 902.200333 521.941974 
C 900.222761 519.964402 897.540222 518.853258 894.743514 518.853258 
C 891.946805 518.853258 889.264266 519.964402 887.286695 521.941974 
C 885.309123 523.919545 884.197979 526.602084 884.197979 529.398793 
C 884.197979 532.195502 885.309123 534.878041 887.286695 536.855612 
C 889.264266 538.833184 891.946805 539.944328 894.743514 539.944328 
z
" clip-path="url(#pff5d3648b2)" style="stroke: #000000; stroke-width: 2; stroke-linejoin: miter"/>
   </g>
   <g id="patch_28">
    <path d="M 941.097513 255.794312 
C 942.296102 255.794312 943.445762 255.318107 944.293293 254.470576 
C 945.140823 253.623046 945.617028 252.473386 945.617028 251.274797 
C 945.617028 250.076207 945.140823 248.926548 944.293293 248.079017 
C 943.445762 247.231486 942.296102 246.755282 941.097513 246.755282 
C 939.898924 246.755282 938.749264 247.231486 937.901733 248.079017 
C 937.054203 248.926548 936.577998 250.076207 936.577998 251.274797 
C 936.577998 252.473386 937.054203 253.623046 937.901733 254.470576 
C 938.749264 255.318107 939.898924 255.794312 941.097513 255.794312 
z
" clip-path="url(#pff5d3648b2)" style="stroke: #000000; stroke-width: 1.5; stroke-linejoin: miter"/>
   </g>
   <g id="patch_29">
    <path d="M 941.097513 539.944328 
C 943.894222 539.944328 946.576761 538.833184 948.554332 536.855612 
C 950.531904 534.878041 951.643048 532.195502 951.643048 529.398793 
C 951.643048 526.602084 950.531904 523.919545 948.554332 521.941974 
C 946.576761 519.964402 943.894222 518.853258 941.097513 518.853258 
C 938.300805 518.853258 935.618265 519.964402 933.640694 521.941974 
C 931.663122 523.919545 930.551978 526.602084 930.551978 529.398793 
C 930.551978 532.195502 931.663122 534.878041 933.640694 536.855612 
C 935.618265 538.833184 938.300805 539.944328 941.097513 539.944328 
z
" clip-path="url(#pff5d3648b2)" style="stroke: #000000; stroke-width: 2; stroke-linejoin: miter"/>
   </g>
   <g id="patch_30">
    <path d="M 972.386463 359.047845 
L 1002.516562 359.047845 
L 1002.516562 328.917746 
L 972.386463 328.917746 
z
" clip-path="url(#pff5d3648b2)" style="fill: #ffffff; stroke: #000000; stroke-width: 1.5; stroke-linejoin: miter"/>
   </g>
   <g id="patch_31">
    <path d="M 1033.805512 209.440312 
C 1035.004101 209.440312 1036.153761 208.964108 1037.001292 208.116577 
C 1037.848822 207.269046 1038.325027 206.119387 1038.325027 204.920797 
C 1038.325027 203.722208 1037.848822 202.572548 1037.001292 201.725018 
C 1036.153761 200.877487 1035.004101 200.401282 1033.805512 200.401282 
C 1032.606922 200.401282 1031.457263 200.877487 1030.609732 201.725018 
C 1029.762202 202.572548 1029.285997 203.722208 1029.285997 204.920797 
C 1029.285997 206.119387 1029.762202 207.269046 1030.609732 208.116577 
C 1031.457263 208.964108 1032.606922 209.440312 1033.805512 209.440312 
z
" clip-path="url(#pff5d3648b2)" style="stroke: #000000; stroke-width: 1.5; stroke-linejoin: miter"/>
   </g>
   <g id="patch_32">
    <path d="M 1033.805512 539.944328 
C 1036.60222 539.944328 1039.28476 538.833184 1041.262331 536.855612 
C 1043.239903 534.878041 1044.351047 532.195502 1044.351047 529.398793 
C 1044.351047 526.602084 1043.239903 523.919545 1041.262331 521.941974 
C 1039.28476 519.964402 1036.60222 518.853258 1033.805512 518.853258 
C 1031.008803 518.853258 1028.326264 519.964402 1026.348693 521.941974 
C 1024.371121 523.919545 1023.259977 526.602084 1023.259977 529.398793 
C 1023.259977 532.195502 1024.371121 534.878041 1026.348693 536.855612 
C 1028.326264 538.833184 1031.008803 539.944328 1033.805512 539.944328 
z
" clip-path="url(#pff5d3648b2)" style="stroke: #000000; stroke-width: 2; stroke-linejoin: miter"/>
   </g>
   <g id="patch_33">
    <path d="M 1065.094461 359.047845 
L 1095.224561 359.047845 
L 1095.224561 328.917746 
L 1065.094461 328.917746 
z
" clip-path="url(#pff5d3648b2)" style="fill: #ffffff; stroke: #000000; stroke-width: 1.5; stroke-linejoin: miter"/>
   </g>
   <g id="patch_34">
    <path d="M 1126.513511 163.086313 
C 1127.7121 163.086313 1128.86176 162.610108 1129.70929 161.762578 
C 1130.556821 160.915047 1131.033026 159.765387 1131.033026 158.566798 
C 1131.033026 157.368209 1130.556821 156.218549 1129.70929 155.371018 
C 1128.86176 154.523488 1127.7121 154.047283 1126.513511 154.047283 
C 1125.314921 154.047283 1124.165262 154.523488 1123.317731 155.371018 
C 1122.4702 156.218549 1121.993996 157.368209 1121.993996 158.566798 
C 1121.993996 159.765387 1122.4702 160.915047 1123.317731 161.762578 
C 1124.165262 162.610108 1125.314921 163.086313 1126.513511 163.086313 
z
" clip-path="url(#pff5d3648b2)" style="stroke: #000000; stroke-width: 1.5; stroke-linejoin: miter"/>
   </g>
   <g id="patch_35">
    <path d="M 1126.513511 539.944328 
C 1129.310219 539.944328 1131.992758 538.833184 1133.97033 536.855612 
C 1135.947901 534.878041 1137.059045 532.195502 1137.059045 529.398793 
C 1137.059045 526.602084 1135.947901 523.919545 1133.97033 521.941974 
C 1131.992758 519.964402 1129.310219 518.853258 1126.513511 518.853258 
C 1123.716802 518.853258 1121.034263 519.964402 1119.056691 521.941974 
C 1117.07912 523.919545 1115.967976 526.602084 1115.967976 529.398793 
C 1115.967976 532.195502 1117.07912 534.878041 1119.056691 536.855612 
C 1121.034263 538.833184 1123.716802 539.944328 1126.513511 539.944328 
z
" clip-path="url(#pff5d3648b2)" style="stroke: #000000; stroke-width: 2; stroke-linejoin: miter"/>
   </g>
   <g id="patch_36">
    <path d="M 1172.86751 116.732313 
C 1174.066099 116.732313 1175.215759 116.256109 1176.06329 115.408578 
C 1176.91082 114.561047 1177.387025 113.411388 1177.387025 112.212799 
C 1177.387025 111.014209 1176.91082 109.86455 1176.06329 109.017019 
C 1175.215759 108.169488 1174.066099 107.693284 1172.86751 107.693284 
C 1171.668921 107.693284 1170.519261 108.169488 1169.67173 109.017019 
C 1168.8242 109.86455 1168.347995 111.014209 1168.347995 112.212799 
C 1168.347995 113.411388 1168.8242 114.561047 1169.67173 115.408578 
C 1170.519261 116.256109 1171.668921 116.732313 1172.86751 116.732313 
z
" clip-path="url(#pff5d3648b2)" style="stroke: #000000; stroke-width: 1.5; stroke-linejoin: miter"/>
   </g>
   <g id="patch_37">
    <path d="M 1172.86751 539.944328 
C 1175.664219 539.944328 1178.346758 538.833184 1180.324329 536.855612 
C 1182.301901 534.878041 1183.413045 532.195502 1183.413045 529.398793 
C 1183.413045 526.602084 1182.301901 523.919545 1180.324329 521.941974 
C 1178.346758 519.964402 1175.664219 518.853258 1172.86751 518.853258 
C 1170.070801 518.853258 1167.388262 519.964402 1165.410691 521.941974 
C 1163.433119 523.919545 1162.321975 526.602084 1162.321975 529.398793 
C 1162.321975 532.195502 1163.433119 534.878041 1165.410691 536.855612 
C 1167.388262 538.833184 1170.070801 539.944328 1172.86751 539.944328 
z
" clip-path="url(#pff5d3648b2)" style="stroke: #000000; stroke-width: 2; stroke-linejoin: miter"/>
   </g>
   <g id="patch_38">
    <path d="M 1201.447068 544.463843 
L 1236.99595 544.463843 
L 1236.99595 514.333743 
L 1201.447068 514.333743 
z
" clip-path="url(#pff5d3648b2)" style="fill: #ffffff; stroke: #000000; stroke-width: 1.5; stroke-linejoin: miter"/>
   </g>
   <g id="patch_39">
    <path d="M 1265.575509 116.732313 
C 1266.774098 116.732313 1267.923758 116.256109 1268.771288 115.408578 
C 1269.618819 114.561047 1270.095024 113.411388 1270.095024 112.212799 
C 1270.095024 111.014209 1269.618819 109.86455 1268.771288 109.017019 
C 1267.923758 108.169488 1266.774098 107.693284 1265.575509 107.693284 
C 1264.376919 107.693284 1263.22726 108.169488 1262.379729 109.017019 
C 1261.532198 109.86455 1261.055994 111.014209 1261.055994 112.212799 
C 1261.055994 113.411388 1261.532198 114.561047 1262.379729 115.408578 
C 1263.22726 116.256109 1264.376919 116.732313 1265.575509 116.732313 
z
" clip-path="url(#pff5d3648b2)" style="stroke: #000000; stroke-width: 1.5; stroke-linejoin: miter"/>
   </g>
   <g id="patch_40">
    <path d="M 1265.575509 539.944328 
C 1268.372217 539.944328 1271.054756 538.833184 1273.032328 536.855612 
C 1275.0099 534.878041 1276.121044 532.195502 1276.121044 529.398793 
C 1276.121044 526.602084 1275.0099 523.919545 1273.032328 521.941974 
C 1271.054756 519.964402 1268.372217 518.853258 1265.575509 518.853258 
C 1262.7788 518.853258 1260.096261 519.964402 1258.11869 521.941974 
C 1256.141118 523.919545 1255.029974 526.602084 1255.029974 529.398793 
C 1255.029974 532.195502 1256.141118 534.878041 1258.11869 536.855612 
C 1260.096261 538.833184 1262.7788 539.944328 1265.575509 539.944328 
z
" clip-path="url(#pff5d3648b2)" style="stroke: #000000; stroke-width: 2; stroke-linejoin: miter"/>
   </g>
   <g id="patch_41">
    <path d="M 1296.864458 127.277848 
L 1326.994558 127.277848 
L 1326.994558 97.147749 
L 1296.864458 97.147749 
z
" clip-path="url(#pff5d3648b2)" style="fill: #ffffff; stroke: #000000; stroke-width: 1.5; stroke-linejoin: miter"/>
   </g>
   <g id="patch_42">
    <path d="M 1311.929508 163.086313 
C 1313.128098 163.086313 1314.277757 162.610108 1315.125288 161.762578 
C 1315.972819 160.915047 1316.449023 159.765387 1316.449023 158.566798 
C 1316.449023 157.368209 1315.972819 156.218549 1315.125288 155.371018 
C 1314.277757 154.523488 1313.128098 154.047283 1311.929508 154.047283 
C 1310.730919 154.047283 1309.581259 154.523488 1308.733729 155.371018 
C 1307.886198 156.218549 1307.409993 157.368209 1307.409993 158.566798 
C 1307.409993 159.765387 1307.886198 160.915047 1308.733729 161.762578 
C 1309.581259 162.610108 1310.730919 163.086313 1311.929508 163.086313 
z
" clip-path="url(#pff5d3648b2)" style="stroke: #000000; stroke-width: 1.5; stroke-linejoin: miter"/>
   </g>
   <g id="patch_43">
    <path d="M 1311.929508 539.944328 
C 1314.726217 539.944328 1317.408756 538.833184 1319.386327 536.855612 
C 1321.363899 534.878041 1322.475043 532.195502 1322.475043 529.398793 
C 1322.475043 526.602084 1321.363899 523.919545 1319.386327 521.941974 
C 1317.408756 519.964402 1314.726217 518.853258 1311.929508 518.853258 
C 1309.1328 518.853258 1306.450261 519.964402 1304.472689 521.941974 
C 1302.495117 523.919545 1301.383973 526.602084 1301.383973 529.398793 
C 1301.383973 532.195502 1302.495117 534.878041 1304.472689 536.855612 
C 1306.450261 538.833184 1309.1328 539.944328 1311.929508 539.944328 
z
" clip-path="url(#pff5d3648b2)" style="stroke: #000000; stroke-width: 2; stroke-linejoin: miter"/>
   </g>
   <g id="patch_44">
    <path d="M 1343.218458 127.277848 
L 1373.348557 127.277848 
L 1373.348557 97.147749 
L 1343.218458 97.147749 
z
" clip-path="url(#pff5d3648b2)" style="fill: #ffffff; stroke: #000000; stroke-width: 1.5; stroke-linejoin: miter"/>
   </g>
   <g id="patch_45">
    <path d="M 1358.283508 209.440312 
C 1359.482097 209.440312 1360.631757 208.964108 1361.479287 208.116577 
C 1362.326818 207.269046 1362.803022 206.119387 1362.803022 204.920797 
C 1362.803022 203.722208 1362.326818 202.572548 1361.479287 201.725018 
C 1360.631757 200.877487 1359.482097 200.401282 1358.283508 200.401282 
C 1357.084918 200.401282 1355.935259 200.877487 1355.087728 201.725018 
C 1354.240197 202.572548 1353.763993 203.722208 1353.763993 204.920797 
C 1353.763993 206.119387 1354.240197 207.269046 1355.087728 208.116577 
C 1355.935259 208.964108 1357.084918 209.440312 1358.283508 209.440312 
z
" clip-path="url(#pff5d3648b2)" style="stroke: #000000; stroke-width: 1.5; stroke-linejoin: miter"/>
   </g>
   <g id="patch_46">
    <path d="M 1358.283508 539.944328 
C 1361.080216 539.944328 1363.762755 538.833184 1365.740327 536.855612 
C 1367.717898 534.878041 1368.829042 532.195502 1368.829042 529.398793 
C 1368.829042 526.602084 1367.717898 523.919545 1365.740327 521.941974 
C 1363.762755 519.964402 1361.080216 518.853258 1358.283508 518.853258 
C 1355.486799 518.853258 1352.80426 519.964402 1350.826688 521.941974 
C 1348.849117 523.919545 1347.737973 526.602084 1347.737973 529.398793 
C 1347.737973 532.195502 1348.849117 534.878041 1350.826688 536.855612 
C 1352.80426 538.833184 1355.486799 539.944328 1358.283508 539.944328 
z
" clip-path="url(#pff5d3648b2)" style="stroke: #000000; stroke-width: 2; stroke-linejoin: miter"/>
   </g>
   <g id="patch_47">
    <path d="M 1404.637507 255.794312 
C 1405.836096 255.794312 1406.985756 255.318107 1407.833287 254.470576 
C 1408.680817 253.623046 1409.157022 252.473386 1409.157022 251.274797 
C 1409.157022 250.076207 1408.680817 248.926548 1407.833287 248.079017 
C 1406.985756 247.231486 1405.836096 246.755282 1404.637507 246.755282 
C 1403.438918 246.755282 1402.289258 247.231486 1401.441727 248.079017 
C 1400.594197 248.926548 1400.117992 250.076207 1400.117992 251.274797 
C 1400.117992 252.473386 1400.594197 253.623046 1401.441727 254.470576 
C 1402.289258 255.318107 1403.438918 255.794312 1404.637507 255.794312 
z
" clip-path="url(#pff5d3648b2)" style="stroke: #000000; stroke-width: 1.5; stroke-linejoin: miter"/>
   </g>
   <g id="patch_48">
    <path d="M 1404.637507 539.944328 
C 1407.434215 539.944328 1410.116755 538.833184 1412.094326 536.855612 
C 1414.071898 534.878041 1415.183042 532.195502 1415.183042 529.398793 
C 1415.183042 526.602084 1414.071898 523.919545 1412.094326 521.941974 
C 1410.116755 519.964402 1407.434215 518.853258 1404.637507 518.853258 
C 1401.840798 518.853258 1399.158259 519.964402 1397.180688 521.941974 
C 1395.203116 523.919545 1394.091972 526.602084 1394.091972 529.398793 
C 1394.091972 532.195502 1395.203116 534.878041 1397.180688 536.855612 
C 1399.158259 538.833184 1401.840798 539.944328 1404.637507 539.944328 
z
" clip-path="url(#pff5d3648b2)" style="stroke: #000000; stroke-width: 2; stroke-linejoin: miter"/>
   </g>
   <g id="patch_49">
    <path d="M 1435.926457 266.339846 
L 1466.056556 266.339846 
L 1466.056556 236.209747 
L 1435.926457 236.209747 
z
" clip-path="url(#pff5d3648b2)" style="fill: #ffffff; stroke: #000000; stroke-width: 1.5; stroke-linejoin: miter"/>
   </g>
   <g id="patch_50">
    <path d="M 1450.991506 487.564309 
C 1452.190096 487.564309 1453.339755 487.088104 1454.187286 486.240573 
C 1455.034817 485.393043 1455.511021 484.243383 1455.511021 483.044794 
C 1455.511021 481.846204 1455.034817 480.696545 1454.187286 479.849014 
C 1453.339755 479.001483 1452.190096 478.525279 1450.991506 478.525279 
C 1449.792917 478.525279 1448.643257 479.001483 1447.795727 479.849014 
C 1446.948196 480.696545 1446.471991 481.846204 1446.471991 483.044794 
C 1446.471991 484.243383 1446.948196 485.393043 1447.795727 486.240573 
C 1448.643257 487.088104 1449.792917 487.564309 1450.991506 487.564309 
z
" clip-path="url(#pff5d3648b2)" style="stroke: #000000; stroke-width: 1.5; stroke-linejoin: miter"/>
   </g>
   <g id="patch_51">
    <path d="M 1450.991506 539.944328 
C 1453.788215 539.944328 1456.470754 538.833184 1458.448326 536.855612 
C 1460.425897 534.878041 1461.537041 532.195502 1461.537041 529.398793 
C 1461.537041 526.602084 1460.425897 523.919545 1458.448326 521.941974 
C 1456.470754 519.964402 1453.788215 518.853258 1450.991506 518.853258 
C 1448.194798 518.853258 1445.512259 519.964402 1443.534687 521.941974 
C 1441.557116 523.919545 1440.445971 526.602084 1440.445971 529.398793 
C 1440.445971 532.195502 1441.557116 534.878041 1443.534687 536.855612 
C 1445.512259 538.833184 1448.194798 539.944328 1450.991506 539.944328 
z
" clip-path="url(#pff5d3648b2)" style="stroke: #000000; stroke-width: 2; stroke-linejoin: miter"/>
   </g>
   <g id="patch_52">
    <path d="M 1482.280456 266.339846 
L 1512.410556 266.339846 
L 1512.410556 236.209747 
L 1482.280456 236.209747 
z
" clip-path="url(#pff5d3648b2)" style="fill: #ffffff; stroke: #000000; stroke-width: 1.5; stroke-linejoin: miter"/>
   </g>
   <g id="patch_53">
    <path d="M 1482.280456 498.109843 
L 1512.410556 498.109843 
L 1512.410556 467.979744 
L 1482.280456 467.979744 
z
" clip-path="url(#pff5d3648b2)" style="fill: #ffffff; stroke: #000000; stroke-width: 1.5; stroke-linejoin: miter"/>
   </g>
   <g id="patch_54">
    <path d="M 1543.699505 255.794312 
C 1544.898094 255.794312 1546.047754 255.318107 1546.895285 254.470576 
C 1547.742815 253.623046 1548.21902 252.473386 1548.21902 251.274797 
C 1548.21902 250.076207 1547.742815 248.926548 1546.895285 248.079017 
C 1546.047754 247.231486 1544.898094 246.755282 1543.699505 246.755282 
C 1542.500916 246.755282 1541.351256 247.231486 1540.503725 248.079017 
C 1539.656195 248.926548 1539.17999 250.076207 1539.17999 251.274797 
C 1539.17999 252.473386 1539.656195 253.623046 1540.503725 254.470576 
C 1541.351256 255.318107 1542.500916 255.794312 1543.699505 255.794312 
z
" clip-path="url(#pff5d3648b2)" style="stroke: #000000; stroke-width: 1.5; stroke-linejoin: miter"/>
   </g>
   <g id="patch_55">
    <path d="M 1543.699505 215.466332 
C 1546.496214 215.466332 1549.178753 214.355188 1551.156324 212.377616 
C 1553.133896 210.400045 1554.24504 207.717506 1554.24504 204.920797 
C 1554.24504 202.124089 1553.133896 199.44155 1551.156324 197.463978 
C 1549.178753 195.486406 1546.496214 194.375262 1543.699505 194.375262 
C 1540.902797 194.375262 1538.220257 195.486406 1536.242686 197.463978 
C 1534.265114 199.44155 1533.15397 202.124089 1533.15397 204.920797 
C 1533.15397 207.717506 1534.265114 210.400045 1536.242686 212.377616 
C 1538.220257 214.355188 1540.902797 215.466332 1543.699505 215.466332 
z
" clip-path="url(#pff5d3648b2)" style="stroke: #000000; stroke-width: 2; stroke-linejoin: miter"/>
   </g>
   <g id="patch_56">
    <path d="M 1590.053504 302.148311 
C 1591.252094 302.148311 1592.401753 301.672106 1593.249284 300.824576 
C 1594.096815 299.977045 1594.573019 298.827385 1594.573019 297.628796 
C 1594.573019 296.430207 1594.096815 295.280547 1593.249284 294.433016 
C 1592.401753 293.585486 1591.252094 293.109281 1590.053504 293.109281 
C 1588.854915 293.109281 1587.705255 293.585486 1586.857725 294.433016 
C 1586.010194 295.280547 1585.53399 296.430207 1585.53399 297.628796 
C 1585.53399 298.827385 1586.010194 299.977045 1586.857725 300.824576 
C 1587.705255 301.672106 1588.854915 302.148311 1590.053504 302.148311 
z
" clip-path="url(#pff5d3648b2)" style="stroke: #000000; stroke-width: 1.5; stroke-linejoin: miter"/>
   </g>
   <g id="patch_57">
    <path d="M 1590.053504 215.466332 
C 1592.850213 215.466332 1595.532752 214.355188 1597.510324 212.377616 
C 1599.487895 210.400045 1600.599039 207.717506 1600.599039 204.920797 
C 1600.599039 202.124089 1599.487895 199.44155 1597.510324 197.463978 
C 1595.532752 195.486406 1592.850213 194.375262 1590.053504 194.375262 
C 1587.256796 194.375262 1584.574257 195.486406 1582.596685 197.463978 
C 1580.619114 199.44155 1579.50797 202.124089 1579.50797 204.920797 
C 1579.50797 207.717506 1580.619114 210.400045 1582.596685 212.377616 
C 1584.574257 214.355188 1587.256796 215.466332 1590.053504 215.466332 
z
" clip-path="url(#pff5d3648b2)" style="stroke: #000000; stroke-width: 2; stroke-linejoin: miter"/>
   </g>
   <g id="patch_58">
    <path d="M 1636.407504 348.50231 
C 1637.606093 348.50231 1638.755753 348.026106 1639.603284 347.178575 
C 1640.450814 346.331044 1640.927019 345.181385 1640.927019 343.982795 
C 1640.927019 342.784206 1640.450814 341.634546 1639.603284 340.787016 
C 1638.755753 339.939485 1637.606093 339.46328 1636.407504 339.46328 
C 1635.208914 339.46328 1634.059255 339.939485 1633.211724 340.787016 
C 1632.364194 341.634546 1631.887989 342.784206 1631.887989 343.982795 
C 1631.887989 345.181385 1632.364194 346.331044 1633.211724 347.178575 
C 1634.059255 348.026106 1635.208914 348.50231 1636.407504 348.50231 
z
" clip-path="url(#pff5d3648b2)" style="stroke: #000000; stroke-width: 1.5; stroke-linejoin: miter"/>
   </g>
   <g id="patch_59">
    <path d="M 1636.407504 215.466332 
C 1639.204212 215.466332 1641.886751 214.355188 1643.864323 212.377616 
C 1645.841895 210.400045 1646.953039 207.717506 1646.953039 204.920797 
C 1646.953039 202.124089 1645.841895 199.44155 1643.864323 197.463978 
C 1641.886751 195.486406 1639.204212 194.375262 1636.407504 194.375262 
C 1633.610795 194.375262 1630.928256 195.486406 1628.950685 197.463978 
C 1626.973113 199.44155 1625.861969 202.124089 1625.861969 204.920797 
C 1625.861969 207.717506 1626.973113 210.400045 1628.950685 212.377616 
C 1630.928256 214.355188 1633.610795 215.466332 1636.407504 215.466332 
z
" clip-path="url(#pff5d3648b2)" style="stroke: #000000; stroke-width: 2; stroke-linejoin: miter"/>
   </g>
   <g id="patch_60">
    <path d="M 1682.761503 394.85631 
C 1683.960093 394.85631 1685.109752 394.380105 1685.957283 393.532574 
C 1686.804814 392.685044 1687.281018 391.535384 1687.281018 390.336795 
C 1687.281018 389.138205 1686.804814 387.988546 1685.957283 387.141015 
C 1685.109752 386.293484 1683.960093 385.81728 1682.761503 385.81728 
C 1681.562914 385.81728 1680.413254 386.293484 1679.565724 387.141015 
C 1678.718193 387.988546 1678.241988 389.138205 1678.241988 390.336795 
C 1678.241988 391.535384 1678.718193 392.685044 1679.565724 393.532574 
C 1680.413254 394.380105 1681.562914 394.85631 1682.761503 394.85631 
z
" clip-path="url(#pff5d3648b2)" style="stroke: #000000; stroke-width: 1.5; stroke-linejoin: miter"/>
   </g>
   <g id="patch_61">
    <path d="M 1682.761503 215.466332 
C 1685.558212 215.466332 1688.240751 214.355188 1690.218322 212.377616 
C 1692.195894 210.400045 1693.307038 207.717506 1693.307038 204.920797 
C 1693.307038 202.124089 1692.195894 199.44155 1690.218322 197.463978 
C 1688.240751 195.486406 1685.558212 194.375262 1682.761503 194.375262 
C 1679.964795 194.375262 1677.282256 195.486406 1675.304684 197.463978 
C 1673.327112 199.44155 1672.215968 202.124089 1672.215968 204.920797 
C 1672.215968 207.717506 1673.327112 210.400045 1675.304684 212.377616 
C 1677.282256 214.355188 1679.964795 215.466332 1682.761503 215.466332 
z
" clip-path="url(#pff5d3648b2)" style="stroke: #000000; stroke-width: 2; stroke-linejoin: miter"/>
   </g>
   <g id="patch_62">
    <path d="M 1729.115503 441.210309 
C 1730.314092 441.210309 1731.463752 440.734105 1732.311282 439.886574 
C 1733.158813 439.039043 1733.635018 437.889384 1733.635018 436.690794 
C 1733.635018 435.492205 1733.158813 434.342545 1732.311282 433.495015 
C 1731.463752 432.647484 1730.314092 432.171279 1729.115503 432.171279 
C 1727.916913 432.171279 1726.767254 432.647484 1725.919723 433.495015 
C 1725.072192 434.342545 1724.595988 435.492205 1724.595988 436.690794 
C 1724.595988 437.889384 1725.072192 439.039043 1725.919723 439.886574 
C 1726.767254 440.734105 1727.916913 441.210309 1729.115503 441.210309 
z
" clip-path="url(#pff5d3648b2)" style="stroke: #000000; stroke-width: 1.5; stroke-linejoin: miter"/>
   </g>
   <g id="patch_63">
    <path d="M 1729.115503 215.466332 
C 1731.912211 215.466332 1734.59475 214.355188 1736.572322 212.377616 
C 1738.549893 210.400045 1739.661037 207.717506 1739.661037 204.920797 
C 1739.661037 202.124089 1738.549893 199.44155 1736.572322 197.463978 
C 1734.59475 195.486406 1731.912211 194.375262 1729.115503 194.375262 
C 1726.318794 194.375262 1723.636255 195.486406 1721.658683 197.463978 
C 1719.681112 199.44155 1718.569968 202.124089 1718.569968 204.920797 
C 1718.569968 207.717506 1719.681112 210.400045 1721.658683 212.377616 
C 1723.636255 214.355188 1726.318794 215.466332 1729.115503 215.466332 
z
" clip-path="url(#pff5d3648b2)" style="stroke: #000000; stroke-width: 2; stroke-linejoin: miter"/>
   </g>
   <g id="patch_64">
    <path d="M 1777.300485 219.985847 
L 1819.992518 219.985847 
L 1819.992518 189.855747 
L 1777.300485 189.855747 
z
" clip-path="url(#pff5d3648b2)" style="fill: #ffffff; stroke: #000000; stroke-width: 1.5; stroke-linejoin: miter"/>
   </g>
   <g id="patch_65">
    <path d="M 1868.177501 441.210309 
C 1869.37609 441.210309 1870.52575 440.734105 1871.37328 439.886574 
C 1872.220811 439.039043 1872.697016 437.889384 1872.697016 436.690794 
C 1872.697016 435.492205 1872.220811 434.342545 1871.37328 433.495015 
C 1870.52575 432.647484 1869.37609 432.171279 1868.177501 432.171279 
C 1866.978911 432.171279 1865.829252 432.647484 1864.981721 433.495015 
C 1864.13419 434.342545 1863.657986 435.492205 1863.657986 436.690794 
C 1863.657986 437.889384 1864.13419 439.039043 1864.981721 439.886574 
C 1865.829252 440.734105 1866.978911 441.210309 1868.177501 441.210309 
z
" clip-path="url(#pff5d3648b2)" style="stroke: #000000; stroke-width: 1.5; stroke-linejoin: miter"/>
   </g>
   <g id="patch_66">
    <path d="M 1868.177501 215.466332 
C 1870.974209 215.466332 1873.656748 214.355188 1875.63432 212.377616 
C 1877.611892 210.400045 1878.723036 207.717506 1878.723036 204.920797 
C 1878.723036 202.124089 1877.611892 199.44155 1875.63432 197.463978 
C 1873.656748 195.486406 1870.974209 194.375262 1868.177501 194.375262 
C 1865.380792 194.375262 1862.698253 195.486406 1860.720682 197.463978 
C 1858.74311 199.44155 1857.631966 202.124089 1857.631966 204.920797 
C 1857.631966 207.717506 1858.74311 210.400045 1860.720682 212.377616 
C 1862.698253 214.355188 1865.380792 215.466332 1868.177501 215.466332 
z
" clip-path="url(#pff5d3648b2)" style="stroke: #000000; stroke-width: 2; stroke-linejoin: miter"/>
   </g>
   <g id="patch_67">
    <path d="M 1899.46645 451.755844 
L 1929.59655 451.755844 
L 1929.59655 421.625744 
L 1899.46645 421.625744 
z
" clip-path="url(#pff5d3648b2)" style="fill: #ffffff; stroke: #000000; stroke-width: 1.5; stroke-linejoin: miter"/>
   </g>
   <g id="patch_68">
    <path d="M 1914.5315 394.85631 
C 1915.73009 394.85631 1916.879749 394.380105 1917.72728 393.532574 
C 1918.57481 392.685044 1919.051015 391.535384 1919.051015 390.336795 
C 1919.051015 389.138205 1918.57481 387.988546 1917.72728 387.141015 
C 1916.879749 386.293484 1915.73009 385.81728 1914.5315 385.81728 
C 1913.332911 385.81728 1912.183251 386.293484 1911.33572 387.141015 
C 1910.48819 387.988546 1910.011985 389.138205 1910.011985 390.336795 
C 1910.011985 391.535384 1910.48819 392.685044 1911.33572 393.532574 
C 1912.183251 394.380105 1913.332911 394.85631 1914.5315 394.85631 
z
" clip-path="url(#pff5d3648b2)" style="stroke: #000000; stroke-width: 1.5; stroke-linejoin: miter"/>
   </g>
   <g id="patch_69">
    <path d="M 1914.5315 215.466332 
C 1917.328209 215.466332 1920.010748 214.355188 1921.988319 212.377616 
C 1923.965891 210.400045 1925.077035 207.717506 1925.077035 204.920797 
C 1925.077035 202.124089 1923.965891 199.44155 1921.988319 197.463978 
C 1920.010748 195.486406 1917.328209 194.375262 1914.5315 194.375262 
C 1911.734792 194.375262 1909.052253 195.486406 1907.074681 197.463978 
C 1905.097109 199.44155 1903.985965 202.124089 1903.985965 204.920797 
C 1903.985965 207.717506 1905.097109 210.400045 1907.074681 212.377616 
C 1909.052253 214.355188 1911.734792 215.466332 1914.5315 215.466332 
z
" clip-path="url(#pff5d3648b2)" style="stroke: #000000; stroke-width: 2; stroke-linejoin: miter"/>
   </g>
   <g id="patch_70">
    <path d="M 1945.82045 451.755844 
L 1975.950549 451.755844 
L 1975.950549 421.625744 
L 1945.82045 421.625744 
z
" clip-path="url(#pff5d3648b2)" style="fill: #ffffff; stroke: #000000; stroke-width: 1.5; stroke-linejoin: miter"/>
   </g>
   <g id="patch_71">
    <path d="M 1960.8855 348.50231 
C 1962.084089 348.50231 1963.233749 348.026106 1964.081279 347.178575 
C 1964.92881 346.331044 1965.405014 345.181385 1965.405014 343.982795 
C 1965.405014 342.784206 1964.92881 341.634546 1964.081279 340.787016 
C 1963.233749 339.939485 1962.084089 339.46328 1960.8855 339.46328 
C 1959.68691 339.46328 1958.537251 339.939485 1957.68972 340.787016 
C 1956.842189 341.634546 1956.365985 342.784206 1956.365985 343.982795 
C 1956.365985 345.181385 1956.842189 346.331044 1957.68972 347.178575 
C 1958.537251 348.026106 1959.68691 348.50231 1960.8855 348.50231 
z
" clip-path="url(#pff5d3648b2)" style="stroke: #000000; stroke-width: 1.5; stroke-linejoin: miter"/>
   </g>
   <g id="patch_72">
    <path d="M 1960.8855 215.466332 
C 1963.682208 215.466332 1966.364747 214.355188 1968.342319 212.377616 
C 1970.31989 210.400045 1971.431034 207.717506 1971.431034 204.920797 
C 1971.431034 202.124089 1970.31989 199.44155 1968.342319 197.463978 
C 1966.364747 195.486406 1963.682208 194.375262 1960.8855 194.375262 
C 1958.088791 194.375262 1955.406252 195.486406 1953.42868 197.463978 
C 1951.451109 199.44155 1950.339965 202.124089 1950.339965 204.920797 
C 1950.339965 207.717506 1951.451109 210.400045 1953.42868 212.377616 
C 1955.406252 214.355188 1958.088791 215.466332 1960.8855 215.466332 
z
" clip-path="url(#pff5d3648b2)" style="stroke: #000000; stroke-width: 2; stroke-linejoin: miter"/>
   </g>
   <g id="patch_73">
    <path d="M 1992.174449 359.047845 
L 2022.304549 359.047845 
L 2022.304549 328.917746 
L 1992.174449 328.917746 
z
" clip-path="url(#pff5d3648b2)" style="fill: #ffffff; stroke: #000000; stroke-width: 1.5; stroke-linejoin: miter"/>
   </g>
   <g id="patch_74">
    <path d="M 2007.239499 302.148311 
C 2008.438088 302.148311 2009.587748 301.672106 2010.435279 300.824576 
C 2011.282809 299.977045 2011.759014 298.827385 2011.759014 297.628796 
C 2011.759014 296.430207 2011.282809 295.280547 2010.435279 294.433016 
C 2009.587748 293.585486 2008.438088 293.109281 2007.239499 293.109281 
C 2006.04091 293.109281 2004.89125 293.585486 2004.043719 294.433016 
C 2003.196189 295.280547 2002.719984 296.430207 2002.719984 297.628796 
C 2002.719984 298.827385 2003.196189 299.977045 2004.043719 300.824576 
C 2004.89125 301.672106 2006.04091 302.148311 2007.239499 302.148311 
z
" clip-path="url(#pff5d3648b2)" style="stroke: #000000; stroke-width: 1.5; stroke-linejoin: miter"/>
   </g>
   <g id="patch_75">
    <path d="M 2007.239499 215.466332 
C 2010.036207 215.466332 2012.718747 214.355188 2014.696318 212.377616 
C 2016.67389 210.400045 2017.785034 207.717506 2017.785034 204.920797 
C 2017.785034 202.124089 2016.67389 199.44155 2014.696318 197.463978 
C 2012.718747 195.486406 2010.036207 194.375262 2007.239499 194.375262 
C 2004.44279 194.375262 2001.760251 195.486406 1999.78268 197.463978 
C 1997.805108 199.44155 1996.693964 202.124089 1996.693964 204.920797 
C 1996.693964 207.717506 1997.805108 210.400045 1999.78268 212.377616 
C 2001.760251 214.355188 2004.44279 215.466332 2007.239499 215.466332 
z
" clip-path="url(#pff5d3648b2)" style="stroke: #000000; stroke-width: 2; stroke-linejoin: miter"/>
   </g>
   <g id="patch_76">
    <path d="M 2038.528449 359.047845 
L 2068.658548 359.047845 
L 2068.658548 328.917746 
L 2038.528449 328.917746 
z
" clip-path="url(#pff5d3648b2)" style="fill: #ffffff; stroke: #000000; stroke-width: 1.5; stroke-linejoin: miter"/>
   </g>
   <g id="patch_77">
    <path d="M 2038.528449 312.693846 
L 2068.658548 312.693846 
L 2068.658548 282.563746 
L 2038.528449 282.563746 
z
" clip-path="url(#pff5d3648b2)" style="fill: #ffffff; stroke: #000000; stroke-width: 1.5; stroke-linejoin: miter"/>
   </g>
   <g id="patch_78">
    <path d="M 2053.593498 255.794312 
C 2054.792088 255.794312 2055.941747 255.318107 2056.789278 254.470576 
C 2057.636809 253.623046 2058.113013 252.473386 2058.113013 251.274797 
C 2058.113013 250.076207 2057.636809 248.926548 2056.789278 248.079017 
C 2055.941747 247.231486 2054.792088 246.755282 2053.593498 246.755282 
C 2052.394909 246.755282 2051.245249 247.231486 2050.397719 248.079017 
C 2049.550188 248.926548 2049.073983 250.076207 2049.073983 251.274797 
C 2049.073983 252.473386 2049.550188 253.623046 2050.397719 254.470576 
C 2051.245249 255.318107 2052.394909 255.794312 2053.593498 255.794312 
z
" clip-path="url(#pff5d3648b2)" style="stroke: #000000; stroke-width: 1.5; stroke-linejoin: miter"/>
   </g>
   <g id="patch_79">
    <path d="M 2053.593498 215.466332 
C 2056.390207 215.466332 2059.072746 214.355188 2061.050318 212.377616 
C 2063.027889 210.400045 2064.139033 207.717506 2064.139033 204.920797 
C 2064.139033 202.124089 2063.027889 199.44155 2061.050318 197.463978 
C 2059.072746 195.486406 2056.390207 194.375262 2053.593498 194.375262 
C 2050.79679 194.375262 2048.114251 195.486406 2046.136679 197.463978 
C 2044.159108 199.44155 2043.047963 202.124089 2043.047963 204.920797 
C 2043.047963 207.717506 2044.159108 210.400045 2046.136679 212.377616 
C 2048.114251 214.355188 2050.79679 215.466332 2053.593498 215.466332 
z
" clip-path="url(#pff5d3648b2)" style="stroke: #000000; stroke-width: 2; stroke-linejoin: miter"/>
   </g>
   <g id="patch_80">
    <path d="M 2084.882448 312.693846 
L 2115.012547 312.693846 
L 2115.012547 282.563746 
L 2084.882448 282.563746 
z
" clip-path="url(#pff5d3648b2)" style="fill: #ffffff; stroke: #000000; stroke-width: 1.5; stroke-linejoin: miter"/>
   </g>
   <g id="patch_81">
    <path d="M 2146.301497 348.50231 
C 2147.500086 348.50231 2148.649746 348.026106 2149.497277 347.178575 
C 2150.344807 346.331044 2150.821012 345.181385 2150.821012 343.982795 
C 2150.821012 342.784206 2150.344807 341.634546 2149.497277 340.787016 
C 2148.649746 339.939485 2147.500086 339.46328 2146.301497 339.46328 
C 2145.102908 339.46328 2143.953248 339.939485 2143.105717 340.787016 
C 2142.258187 341.634546 2141.781982 342.784206 2141.781982 343.982795 
C 2141.781982 345.181385 2142.258187 346.331044 2143.105717 347.178575 
C 2143.953248 348.026106 2145.102908 348.50231 2146.301497 348.50231 
z
" clip-path="url(#pff5d3648b2)" style="stroke: #000000; stroke-width: 1.5; stroke-linejoin: miter"/>
   </g>
   <g id="patch_82">
    <path d="M 2146.301497 261.820332 
C 2149.098206 261.820332 2151.780745 260.709187 2153.758316 258.731616 
C 2155.735888 256.754044 2156.847032 254.071505 2156.847032 251.274797 
C 2156.847032 248.478088 2155.735888 245.795549 2153.758316 243.817977 
C 2151.780745 241.840406 2149.098206 240.729262 2146.301497 240.729262 
C 2143.504789 240.729262 2140.822249 241.840406 2138.844678 243.817977 
C 2136.867106 245.795549 2135.755962 248.478088 2135.755962 251.274797 
C 2135.755962 254.071505 2136.867106 256.754044 2138.844678 258.731616 
C 2140.822249 260.709187 2143.504789 261.820332 2146.301497 261.820332 
z
" clip-path="url(#pff5d3648b2)" style="stroke: #000000; stroke-width: 2; stroke-linejoin: miter"/>
   </g>
   <g id="patch_83">
    <path d="M 2177.590447 312.693846 
L 2207.720546 312.693846 
L 2207.720546 282.563746 
L 2177.590447 282.563746 
z
" clip-path="url(#pff5d3648b2)" style="fill: #ffffff; stroke: #000000; stroke-width: 1.5; stroke-linejoin: miter"/>
   </g>
   <g id="patch_84">
    <path d="M 2239.009496 302.148311 
C 2240.208085 302.148311 2241.357745 301.672106 2242.205276 300.824576 
C 2243.052806 299.977045 2243.529011 298.827385 2243.529011 297.628796 
C 2243.529011 296.430207 2243.052806 295.280547 2242.205276 294.433016 
C 2241.357745 293.585486 2240.208085 293.109281 2239.009496 293.109281 
C 2237.810906 293.109281 2236.661247 293.585486 2235.813716 294.433016 
C 2234.966186 295.280547 2234.489981 296.430207 2234.489981 297.628796 
C 2234.489981 298.827385 2234.966186 299.977045 2235.813716 300.824576 
C 2236.661247 301.672106 2237.810906 302.148311 2239.009496 302.148311 
z
" clip-path="url(#pff5d3648b2)" style="stroke: #000000; stroke-width: 1.5; stroke-linejoin: miter"/>
   </g>
   <g id="patch_85">
    <path d="M 2239.009496 261.820332 
C 2241.806204 261.820332 2244.488743 260.709187 2246.466315 258.731616 
C 2248.443887 256.754044 2249.555031 254.071505 2249.555031 251.274797 
C 2249.555031 248.478088 2248.443887 245.795549 2246.466315 243.817977 
C 2244.488743 241.840406 2241.806204 240.729262 2239.009496 240.729262 
C 2236.212787 240.729262 2233.530248 241.840406 2231.552677 243.817977 
C 2229.575105 245.795549 2228.463961 248.478088 2228.463961 251.274797 
C 2228.463961 254.071505 2229.575105 256.754044 2231.552677 258.731616 
C 2233.530248 260.709187 2236.212787 261.820332 2239.009496 261.820332 
z
" clip-path="url(#pff5d3648b2)" style="stroke: #000000; stroke-width: 2; stroke-linejoin: miter"/>
   </g>
   <g id="patch_86">
    <path d="M 2270.298445 266.339846 
L 2300.428545 266.339846 
L 2300.428545 236.209747 
L 2270.298445 236.209747 
z
" clip-path="url(#pff5d3648b2)" style="fill: #ffffff; stroke: #000000; stroke-width: 1.5; stroke-linejoin: miter"/>
   </g>
   <g id="patch_87">
    <path d="M 2331.717495 302.148311 
C 2332.916084 302.148311 2334.065744 301.672106 2334.913274 300.824576 
C 2335.760805 299.977045 2336.23701 298.827385 2336.23701 297.628796 
C 2336.23701 296.430207 2335.760805 295.280547 2334.913274 294.433016 
C 2334.065744 293.585486 2332.916084 293.109281 2331.717495 293.109281 
C 2330.518905 293.109281 2329.369246 293.585486 2328.521715 294.433016 
C 2327.674184 295.280547 2327.19798 296.430207 2327.19798 297.628796 
C 2327.19798 298.827385 2327.674184 299.977045 2328.521715 300.824576 
C 2329.369246 301.672106 2330.518905 302.148311 2331.717495 302.148311 
z
" clip-path="url(#pff5d3648b2)" style="stroke: #000000; stroke-width: 1.5; stroke-linejoin: miter"/>
   </g>
   <g id="patch_88">
    <path d="M 2331.717495 261.820332 
C 2334.514203 261.820332 2337.196742 260.709187 2339.174314 258.731616 
C 2341.151885 256.754044 2342.263029 254.071505 2342.263029 251.274797 
C 2342.263029 248.478088 2341.151885 245.795549 2339.174314 243.817977 
C 2337.196742 241.840406 2334.514203 240.729262 2331.717495 240.729262 
C 2328.920786 240.729262 2326.238247 241.840406 2324.260675 243.817977 
C 2322.283104 245.795549 2321.17196 248.478088 2321.17196 251.274797 
C 2321.17196 254.071505 2322.283104 256.754044 2324.260675 258.731616 
C 2326.238247 260.709187 2328.920786 261.820332 2331.717495 261.820332 
z
" clip-path="url(#pff5d3648b2)" style="stroke: #000000; stroke-width: 2; stroke-linejoin: miter"/>
   </g>
   <g id="patch_89">
    <path d="M 2363.006444 312.693846 
L 2393.136544 312.693846 
L 2393.136544 282.563746 
L 2363.006444 282.563746 
z
" clip-path="url(#pff5d3648b2)" style="fill: #ffffff; stroke: #000000; stroke-width: 1.5; stroke-linejoin: miter"/>
   </g>
   <g id="patch_90">
    <path d="M 2424.425493 348.50231 
C 2425.624083 348.50231 2426.773742 348.026106 2427.621273 347.178575 
C 2428.468804 346.331044 2428.945008 345.181385 2428.945008 343.982795 
C 2428.945008 342.784206 2428.468804 341.634546 2427.621273 340.787016 
C 2426.773742 339.939485 2425.624083 339.46328 2424.425493 339.46328 
C 2423.226904 339.46328 2422.077244 339.939485 2421.229714 340.787016 
C 2420.382183 341.634546 2419.905978 342.784206 2419.905978 343.982795 
C 2419.905978 345.181385 2420.382183 346.331044 2421.229714 347.178575 
C 2422.077244 348.026106 2423.226904 348.50231 2424.425493 348.50231 
z
" clip-path="url(#pff5d3648b2)" style="stroke: #000000; stroke-width: 1.5; stroke-linejoin: miter"/>
   </g>
   <g id="patch_91">
    <path d="M 2424.425493 261.820332 
C 2427.222202 261.820332 2429.904741 260.709187 2431.882313 258.731616 
C 2433.859884 256.754044 2434.971028 254.071505 2434.971028 251.274797 
C 2434.971028 248.478088 2433.859884 245.795549 2431.882313 243.817977 
C 2429.904741 241.840406 2427.222202 240.729262 2424.425493 240.729262 
C 2421.628785 240.729262 2418.946246 241.840406 2416.968674 243.817977 
C 2414.991103 245.795549 2413.879959 248.478088 2413.879959 251.274797 
C 2413.879959 254.071505 2414.991103 256.754044 2416.968674 258.731616 
C 2418.946246 260.709187 2421.628785 261.820332 2424.425493 261.820332 
z
" clip-path="url(#pff5d3648b2)" style="stroke: #000000; stroke-width: 2; stroke-linejoin: miter"/>
   </g>
   <g id="text_2">
    <g clip-path="url(#pff5d3648b2)">
     <!-- ${q}_{0}$ -->
     <g transform="translate(378.86406 116.663775)scale(0.1625 -0.1625)">
      <defs>
       <path id="DejaVuSans-Oblique-71" d="M 2669 525 
Q 2438 222 2123 65 
Q 1809 -91 1428 -91 
Q 897 -91 595 267 
Q 294 625 294 1253 
Q 294 1759 480 2231 
Q 666 2703 1013 3078 
Q 1238 3322 1530 3453 
Q 1822 3584 2144 3584 
Q 2531 3584 2781 3431 
Q 3031 3278 3144 2969 
L 3244 3494 
L 3822 3494 
L 2888 -1319 
L 2309 -1319 
L 2669 525 
z
M 891 1338 
Q 891 875 1084 633 
Q 1278 391 1644 391 
Q 2188 391 2572 911 
Q 2956 1431 2956 2175 
Q 2956 2625 2757 2864 
Q 2559 3103 2188 3103 
Q 1916 3103 1684 2976 
Q 1453 2850 1281 2606 
Q 1100 2350 995 2006 
Q 891 1663 891 1338 
z
" transform="scale(0.015625)"/>
       <path id="DejaVuSans-30" d="M 2034 4250 
Q 1547 4250 1301 3770 
Q 1056 3291 1056 2328 
Q 1056 1369 1301 889 
Q 1547 409 2034 409 
Q 2525 409 2770 889 
Q 3016 1369 3016 2328 
Q 3016 3291 2770 3770 
Q 2525 4250 2034 4250 
z
M 2034 4750 
Q 2819 4750 3233 4129 
Q 3647 3509 3647 2328 
Q 3647 1150 3233 529 
Q 2819 -91 2034 -91 
Q 1250 -91 836 529 
Q 422 1150 422 2328 
Q 422 3509 836 4129 
Q 1250 4750 2034 4750 
z
" transform="scale(0.015625)"/>
      </defs>
      <use xlink:href="#DejaVuSans-Oblique-71"/>
      <use xlink:href="#DejaVuSans-30" transform="translate(63.476562 -16.40625)scale(0.7)"/>
     </g>
    </g>
   </g>
   <g id="text_3">
    <g clip-path="url(#pff5d3648b2)">
     <!-- ${q}_{1}$ -->
     <g transform="translate(378.86406 163.017774)scale(0.1625 -0.1625)">
      <defs>
       <path id="DejaVuSans-31" d="M 794 531 
L 1825 531 
L 1825 4091 
L 703 3866 
L 703 4441 
L 1819 4666 
L 2450 4666 
L 2450 531 
L 3481 531 
L 3481 0 
L 794 0 
L 794 531 
z
" transform="scale(0.015625)"/>
      </defs>
      <use xlink:href="#DejaVuSans-Oblique-71"/>
      <use xlink:href="#DejaVuSans-31" transform="translate(63.476562 -16.40625)scale(0.7)"/>
     </g>
    </g>
   </g>
   <g id="text_4">
    <g clip-path="url(#pff5d3648b2)">
     <!-- ${q}_{2}$ -->
     <g transform="translate(378.86406 209.371774)scale(0.1625 -0.1625)">
      <defs>
       <path id="DejaVuSans-32" d="M 1228 531 
L 3431 531 
L 3431 0 
L 469 0 
L 469 531 
Q 828 903 1448 1529 
Q 2069 2156 2228 2338 
Q 2531 2678 2651 2914 
Q 2772 3150 2772 3378 
Q 2772 3750 2511 3984 
Q 2250 4219 1831 4219 
Q 1534 4219 1204 4116 
Q 875 4013 500 3803 
L 500 4441 
Q 881 4594 1212 4672 
Q 1544 4750 1819 4750 
Q 2544 4750 2975 4387 
Q 3406 4025 3406 3419 
Q 3406 3131 3298 2873 
Q 3191 2616 2906 2266 
Q 2828 2175 2409 1742 
Q 1991 1309 1228 531 
z
" transform="scale(0.015625)"/>
      </defs>
      <use xlink:href="#DejaVuSans-Oblique-71"/>
      <use xlink:href="#DejaVuSans-32" transform="translate(63.476562 -16.40625)scale(0.7)"/>
     </g>
    </g>
   </g>
   <g id="text_5">
    <g clip-path="url(#pff5d3648b2)">
     <!-- ${q}_{3}$ -->
     <g transform="translate(378.86406 255.725773)scale(0.1625 -0.1625)">
      <use xlink:href="#DejaVuSans-Oblique-71"/>
      <use xlink:href="#DejaVuSans-33" transform="translate(63.476562 -16.40625)scale(0.7)"/>
     </g>
    </g>
   </g>
   <g id="text_6">
    <g clip-path="url(#pff5d3648b2)">
     <!-- ${q}_{4}$ -->
     <g transform="translate(378.86406 302.079773)scale(0.1625 -0.1625)">
      <use xlink:href="#DejaVuSans-Oblique-71"/>
      <use xlink:href="#DejaVuSans-34" transform="translate(63.476562 -16.40625)scale(0.7)"/>
     </g>
    </g>
   </g>
   <g id="text_7">
    <g clip-path="url(#pff5d3648b2)">
     <!-- ${q}_{5}$ -->
     <g transform="translate(378.86406 348.433772)scale(0.1625 -0.1625)">
      <defs>
       <path id="DejaVuSans-35" d="M 691 4666 
L 3169 4666 
L 3169 4134 
L 1269 4134 
L 1269 2991 
Q 1406 3038 1543 3061 
Q 1681 3084 1819 3084 
Q 2600 3084 3056 2656 
Q 3513 2228 3513 1497 
Q 3513 744 3044 326 
Q 2575 -91 1722 -91 
Q 1428 -91 1123 -41 
Q 819 9 494 109 
L 494 744 
Q 775 591 1075 516 
Q 1375 441 1709 441 
Q 2250 441 2565 725 
Q 2881 1009 2881 1497 
Q 2881 1984 2565 2268 
Q 2250 2553 1709 2553 
Q 1456 2553 1204 2497 
Q 953 2441 691 2322 
L 691 4666 
z
" transform="scale(0.015625)"/>
      </defs>
      <use xlink:href="#DejaVuSans-Oblique-71"/>
      <use xlink:href="#DejaVuSans-35" transform="translate(63.476562 -16.40625)scale(0.7)"/>
     </g>
    </g>
   </g>
   <g id="text_8">
    <g clip-path="url(#pff5d3648b2)">
     <!-- ${q}_{6}$ -->
     <g transform="translate(378.86406 394.787771)scale(0.1625 -0.1625)">
      <defs>
       <path id="DejaVuSans-36" d="M 2113 2584 
Q 1688 2584 1439 2293 
Q 1191 2003 1191 1497 
Q 1191 994 1439 701 
Q 1688 409 2113 409 
Q 2538 409 2786 701 
Q 3034 994 3034 1497 
Q 3034 2003 2786 2293 
Q 2538 2584 2113 2584 
z
M 3366 4563 
L 3366 3988 
Q 3128 4100 2886 4159 
Q 2644 4219 2406 4219 
Q 1781 4219 1451 3797 
Q 1122 3375 1075 2522 
Q 1259 2794 1537 2939 
Q 1816 3084 2150 3084 
Q 2853 3084 3261 2657 
Q 3669 2231 3669 1497 
Q 3669 778 3244 343 
Q 2819 -91 2113 -91 
Q 1303 -91 875 529 
Q 447 1150 447 2328 
Q 447 3434 972 4092 
Q 1497 4750 2381 4750 
Q 2619 4750 2861 4703 
Q 3103 4656 3366 4563 
z
" transform="scale(0.015625)"/>
      </defs>
      <use xlink:href="#DejaVuSans-Oblique-71"/>
      <use xlink:href="#DejaVuSans-36" transform="translate(63.476562 -16.40625)scale(0.7)"/>
     </g>
    </g>
   </g>
   <g id="text_9">
    <g clip-path="url(#pff5d3648b2)">
     <!-- ${q}_{7}$ -->
     <g transform="translate(378.86406 441.141771)scale(0.1625 -0.1625)">
      <use xlink:href="#DejaVuSans-Oblique-71"/>
      <use xlink:href="#DejaVuSans-37" transform="translate(63.476562 -16.40625)scale(0.7)"/>
     </g>
    </g>
   </g>
   <g id="text_10">
    <g clip-path="url(#pff5d3648b2)">
     <!-- ${q}_{8}$ -->
     <g transform="translate(378.86406 487.49577)scale(0.1625 -0.1625)">
      <defs>
       <path id="DejaVuSans-38" d="M 2034 2216 
Q 1584 2216 1326 1975 
Q 1069 1734 1069 1313 
Q 1069 891 1326 650 
Q 1584 409 2034 409 
Q 2484 409 2743 651 
Q 3003 894 3003 1313 
Q 3003 1734 2745 1975 
Q 2488 2216 2034 2216 
z
M 1403 2484 
Q 997 2584 770 2862 
Q 544 3141 544 3541 
Q 544 4100 942 4425 
Q 1341 4750 2034 4750 
Q 2731 4750 3128 4425 
Q 3525 4100 3525 3541 
Q 3525 3141 3298 2862 
Q 3072 2584 2669 2484 
Q 3125 2378 3379 2068 
Q 3634 1759 3634 1313 
Q 3634 634 3220 271 
Q 2806 -91 2034 -91 
Q 1263 -91 848 271 
Q 434 634 434 1313 
Q 434 1759 690 2068 
Q 947 2378 1403 2484 
z
M 1172 3481 
Q 1172 3119 1398 2916 
Q 1625 2713 2034 2713 
Q 2441 2713 2670 2916 
Q 2900 3119 2900 3481 
Q 2900 3844 2670 4047 
Q 2441 4250 2034 4250 
Q 1625 4250 1398 4047 
Q 1172 3844 1172 3481 
z
" transform="scale(0.015625)"/>
      </defs>
      <use xlink:href="#DejaVuSans-Oblique-71"/>
      <use xlink:href="#DejaVuSans-38" transform="translate(63.476562 -16.40625)scale(0.7)"/>
     </g>
    </g>
   </g>
   <g id="text_11">
    <g clip-path="url(#pff5d3648b2)">
     <!-- ${q}_{9}$ -->
     <g transform="translate(378.86406 533.84977)scale(0.1625 -0.1625)">
      <defs>
       <path id="DejaVuSans-39" d="M 703 97 
L 703 672 
Q 941 559 1184 500 
Q 1428 441 1663 441 
Q 2288 441 2617 861 
Q 2947 1281 2994 2138 
Q 2813 1869 2534 1725 
Q 2256 1581 1919 1581 
Q 1219 1581 811 2004 
Q 403 2428 403 3163 
Q 403 3881 828 4315 
Q 1253 4750 1959 4750 
Q 2769 4750 3195 4129 
Q 3622 3509 3622 2328 
Q 3622 1225 3098 567 
Q 2575 -91 1691 -91 
Q 1453 -91 1209 -44 
Q 966 3 703 97 
z
M 1959 2075 
Q 2384 2075 2632 2365 
Q 2881 2656 2881 3163 
Q 2881 3666 2632 3958 
Q 2384 4250 1959 4250 
Q 1534 4250 1286 3958 
Q 1038 3666 1038 3163 
Q 1038 2656 1286 2365 
Q 1534 2075 1959 2075 
z
" transform="scale(0.015625)"/>
      </defs>
      <use xlink:href="#DejaVuSans-Oblique-71"/>
      <use xlink:href="#DejaVuSans-39" transform="translate(63.476562 -16.40625)scale(0.7)"/>
     </g>
    </g>
   </g>
   <g id="text_12">
    <g clip-path="url(#pff5d3648b2)">
     <!-- H -->
     <g transform="translate(426.315317 347.569983)scale(0.13 -0.13)">
      <use xlink:href="#DejaVuSans-48"/>
     </g>
    </g>
   </g>
   <g id="text_13">
    <g clip-path="url(#pff5d3648b2)">
     <!-- S -->
     <g transform="translate(427.077035 254.861984)scale(0.13 -0.13)">
      <use xlink:href="#DejaVuSans-53"/>
     </g>
    </g>
   </g>
   <g id="text_14">
    <g clip-path="url(#pff5d3648b2)">
     <!-- S -->
     <g transform="translate(427.077035 115.799986)scale(0.13 -0.13)">
      <use xlink:href="#DejaVuSans-53"/>
     </g>
    </g>
   </g>
   <g id="text_15">
    <g clip-path="url(#pff5d3648b2)">
     <!-- S -->
     <g transform="translate(427.077035 301.215984)scale(0.13 -0.13)">
      <use xlink:href="#DejaVuSans-53"/>
     </g>
    </g>
   </g>
   <g id="text_16">
    <g clip-path="url(#pff5d3648b2)">
     <!-- S -->
     <g transform="translate(427.077035 440.277982)scale(0.13 -0.13)">
      <use xlink:href="#DejaVuSans-53"/>
     </g>
    </g>
   </g>
   <g id="line2d_41">
    <path d="M 477.557519 535.424813 
L 477.557519 523.372773 
" clip-path="url(#pff5d3648b2)" style="fill: none; stroke: #ffffff; stroke-width: 2; stroke-linecap: square"/>
   </g>
   <g id="line2d_42">
    <path d="M 471.531499 529.398793 
L 483.583539 529.398793 
" clip-path="url(#pff5d3648b2)" style="fill: none; stroke: #ffffff; stroke-width: 2; stroke-linecap: square"/>
   </g>
   <g id="text_17">
    <g clip-path="url(#pff5d3648b2)">
     <!-- H -->
     <g transform="translate(472.669316 254.861984)scale(0.13 -0.13)">
      <use xlink:href="#DejaVuSans-48"/>
     </g>
    </g>
   </g>
   <g id="text_18">
    <g clip-path="url(#pff5d3648b2)">
     <!-- H -->
     <g transform="translate(472.669316 115.799986)scale(0.13 -0.13)">
      <use xlink:href="#DejaVuSans-48"/>
     </g>
    </g>
   </g>
   <g id="text_19">
    <g clip-path="url(#pff5d3648b2)">
     <!-- H -->
     <g transform="translate(472.669316 301.215984)scale(0.13 -0.13)">
      <use xlink:href="#DejaVuSans-48"/>
     </g>
    </g>
   </g>
   <g id="text_20">
    <g clip-path="url(#pff5d3648b2)">
     <!-- H -->
     <g transform="translate(519.023316 440.277982)scale(0.13 -0.13)">
      <use xlink:href="#DejaVuSans-48"/>
     </g>
    </g>
   </g>
   <g id="line2d_43">
    <path d="M 570.265518 535.424813 
L 570.265518 523.372773 
" clip-path="url(#pff5d3648b2)" style="fill: none; stroke: #ffffff; stroke-width: 2; stroke-linecap: square"/>
   </g>
   <g id="line2d_44">
    <path d="M 564.239498 529.398793 
L 576.291538 529.398793 
" clip-path="url(#pff5d3648b2)" style="fill: none; stroke: #ffffff; stroke-width: 2; stroke-linecap: square"/>
   </g>
   <g id="line2d_45">
    <path d="M 616.619517 535.424813 
L 616.619517 523.372773 
" clip-path="url(#pff5d3648b2)" style="fill: none; stroke: #ffffff; stroke-width: 2; stroke-linecap: square"/>
   </g>
   <g id="line2d_46">
    <path d="M 610.593497 529.398793 
L 622.645537 529.398793 
" clip-path="url(#pff5d3648b2)" style="fill: none; stroke: #ffffff; stroke-width: 2; stroke-linecap: square"/>
   </g>
   <g id="text_21">
    <g clip-path="url(#pff5d3648b2)">
     <!-- $-$0.0043 -->
     <g transform="translate(645.613517 540.645323)scale(0.08 -0.08)">
      <defs>
       <path id="DejaVuSans-2212" d="M 678 2272 
L 4684 2272 
L 4684 1741 
L 678 1741 
L 678 2272 
z
" transform="scale(0.015625)"/>
       <path id="DejaVuSans-2e" d="M 684 794 
L 1344 794 
L 1344 0 
L 684 0 
L 684 794 
z
" transform="scale(0.015625)"/>
      </defs>
      <use xlink:href="#DejaVuSans-2212" transform="translate(0 0.78125)"/>
      <use xlink:href="#DejaVuSans-30" transform="translate(83.789062 0.78125)"/>
      <use xlink:href="#DejaVuSans-2e" transform="translate(147.412109 0.78125)"/>
      <use xlink:href="#DejaVuSans-30" transform="translate(179.199219 0.78125)"/>
      <use xlink:href="#DejaVuSans-30" transform="translate(242.822266 0.78125)"/>
      <use xlink:href="#DejaVuSans-34" transform="translate(306.445312 0.78125)"/>
      <use xlink:href="#DejaVuSans-33" transform="translate(370.068359 0.78125)"/>
     </g>
    </g>
   </g>
   <g id="text_22">
    <g clip-path="url(#pff5d3648b2)">
     <!-- $\mathrm{R_Z}$ -->
     <g transform="translate(655.043517 528.466466)scale(0.13 -0.13)">
      <defs>
       <path id="DejaVuSans-5a" d="M 359 4666 
L 4025 4666 
L 4025 4184 
L 1075 531 
L 4097 531 
L 4097 0 
L 288 0 
L 288 481 
L 3238 4134 
L 359 4134 
L 359 4666 
z
" transform="scale(0.015625)"/>
      </defs>
      <use xlink:href="#DejaVuSans-52" transform="translate(0 0.09375)"/>
      <use xlink:href="#DejaVuSans-5a" transform="translate(70.439453 -16.3125)scale(0.7)"/>
     </g>
    </g>
   </g>
   <g id="line2d_47">
    <path d="M 709.327516 535.424813 
L 709.327516 523.372773 
" clip-path="url(#pff5d3648b2)" style="fill: none; stroke: #ffffff; stroke-width: 2; stroke-linecap: square"/>
   </g>
   <g id="line2d_48">
    <path d="M 703.301496 529.398793 
L 715.353536 529.398793 
" clip-path="url(#pff5d3648b2)" style="fill: none; stroke: #ffffff; stroke-width: 2; stroke-linecap: square"/>
   </g>
   <g id="line2d_49">
    <path d="M 755.681516 535.424813 
L 755.681516 523.372773 
" clip-path="url(#pff5d3648b2)" style="fill: none; stroke: #ffffff; stroke-width: 2; stroke-linecap: square"/>
   </g>
   <g id="line2d_50">
    <path d="M 749.655496 529.398793 
L 761.707535 529.398793 
" clip-path="url(#pff5d3648b2)" style="fill: none; stroke: #ffffff; stroke-width: 2; stroke-linecap: square"/>
   </g>
   <g id="text_23">
    <g clip-path="url(#pff5d3648b2)">
     <!-- H -->
     <g transform="translate(797.147312 486.631981)scale(0.13 -0.13)">
      <use xlink:href="#DejaVuSans-48"/>
     </g>
    </g>
   </g>
   <g id="line2d_51">
    <path d="M 848.389514 535.424813 
L 848.389514 523.372773 
" clip-path="url(#pff5d3648b2)" style="fill: none; stroke: #ffffff; stroke-width: 2; stroke-linecap: square"/>
   </g>
   <g id="line2d_52">
    <path d="M 842.363494 529.398793 
L 854.415534 529.398793 
" clip-path="url(#pff5d3648b2)" style="fill: none; stroke: #ffffff; stroke-width: 2; stroke-linecap: square"/>
   </g>
   <g id="text_24">
    <g clip-path="url(#pff5d3648b2)">
     <!-- H -->
     <g transform="translate(889.855311 347.569983)scale(0.13 -0.13)">
      <use xlink:href="#DejaVuSans-48"/>
     </g>
    </g>
   </g>
   <g id="line2d_53">
    <path d="M 894.743514 535.424813 
L 894.743514 523.372773 
" clip-path="url(#pff5d3648b2)" style="fill: none; stroke: #ffffff; stroke-width: 2; stroke-linecap: square"/>
   </g>
   <g id="line2d_54">
    <path d="M 888.717494 529.398793 
L 900.769534 529.398793 
" clip-path="url(#pff5d3648b2)" style="fill: none; stroke: #ffffff; stroke-width: 2; stroke-linecap: square"/>
   </g>
   <g id="line2d_55">
    <path d="M 941.097513 535.424813 
L 941.097513 523.372773 
" clip-path="url(#pff5d3648b2)" style="fill: none; stroke: #ffffff; stroke-width: 2; stroke-linecap: square"/>
   </g>
   <g id="line2d_56">
    <path d="M 935.071493 529.398793 
L 947.123533 529.398793 
" clip-path="url(#pff5d3648b2)" style="fill: none; stroke: #ffffff; stroke-width: 2; stroke-linecap: square"/>
   </g>
   <g id="text_25">
    <g clip-path="url(#pff5d3648b2)">
     <!-- S -->
     <g transform="translate(983.325028 347.569983)scale(0.13 -0.13)">
      <use xlink:href="#DejaVuSans-53"/>
     </g>
    </g>
   </g>
   <g id="line2d_57">
    <path d="M 1033.805512 535.424813 
L 1033.805512 523.372773 
" clip-path="url(#pff5d3648b2)" style="fill: none; stroke: #ffffff; stroke-width: 2; stroke-linecap: square"/>
   </g>
   <g id="line2d_58">
    <path d="M 1027.779492 529.398793 
L 1039.831532 529.398793 
" clip-path="url(#pff5d3648b2)" style="fill: none; stroke: #ffffff; stroke-width: 2; stroke-linecap: square"/>
   </g>
   <g id="text_26">
    <g clip-path="url(#pff5d3648b2)">
     <!-- H -->
     <g transform="translate(1075.271308 347.569983)scale(0.13 -0.13)">
      <use xlink:href="#DejaVuSans-48"/>
     </g>
    </g>
   </g>
   <g id="line2d_59">
    <path d="M 1126.513511 535.424813 
L 1126.513511 523.372773 
" clip-path="url(#pff5d3648b2)" style="fill: none; stroke: #ffffff; stroke-width: 2; stroke-linecap: square"/>
   </g>
   <g id="line2d_60">
    <path d="M 1120.487491 529.398793 
L 1132.539531 529.398793 
" clip-path="url(#pff5d3648b2)" style="fill: none; stroke: #ffffff; stroke-width: 2; stroke-linecap: square"/>
   </g>
   <g id="line2d_61">
    <path d="M 1172.86751 535.424813 
L 1172.86751 523.372773 
" clip-path="url(#pff5d3648b2)" style="fill: none; stroke: #ffffff; stroke-width: 2; stroke-linecap: square"/>
   </g>
   <g id="line2d_62">
    <path d="M 1166.84149 529.398793 
L 1178.89353 529.398793 
" clip-path="url(#pff5d3648b2)" style="fill: none; stroke: #ffffff; stroke-width: 2; stroke-linecap: square"/>
   </g>
   <g id="text_27">
    <g clip-path="url(#pff5d3648b2)">
     <!-- 0.00422 -->
     <g transform="translate(1202.680259 540.645323)scale(0.08 -0.08)">
      <use xlink:href="#DejaVuSans-30"/>
      <use xlink:href="#DejaVuSans-2e" x="63.623047"/>
      <use xlink:href="#DejaVuSans-30" x="95.410156"/>
      <use xlink:href="#DejaVuSans-30" x="159.033203"/>
      <use xlink:href="#DejaVuSans-34" x="222.65625"/>
      <use xlink:href="#DejaVuSans-32" x="286.279297"/>
      <use xlink:href="#DejaVuSans-32" x="349.902344"/>
     </g>
    </g>
   </g>
   <g id="text_28">
    <g clip-path="url(#pff5d3648b2)">
     <!-- $\mathrm{R_Z}$ -->
     <g transform="translate(1211.291509 528.466466)scale(0.13 -0.13)">
      <use xlink:href="#DejaVuSans-52" transform="translate(0 0.09375)"/>
      <use xlink:href="#DejaVuSans-5a" transform="translate(70.439453 -16.3125)scale(0.7)"/>
     </g>
    </g>
   </g>
   <g id="line2d_63">
    <path d="M 1265.575509 535.424813 
L 1265.575509 523.372773 
" clip-path="url(#pff5d3648b2)" style="fill: none; stroke: #ffffff; stroke-width: 2; stroke-linecap: square"/>
   </g>
   <g id="line2d_64">
    <path d="M 1259.549489 529.398793 
L 1271.601529 529.398793 
" clip-path="url(#pff5d3648b2)" style="fill: none; stroke: #ffffff; stroke-width: 2; stroke-linecap: square"/>
   </g>
   <g id="text_29">
    <g clip-path="url(#pff5d3648b2)">
     <!-- H -->
     <g transform="translate(1307.041305 115.799986)scale(0.13 -0.13)">
      <use xlink:href="#DejaVuSans-48"/>
     </g>
    </g>
   </g>
   <g id="line2d_65">
    <path d="M 1311.929508 535.424813 
L 1311.929508 523.372773 
" clip-path="url(#pff5d3648b2)" style="fill: none; stroke: #ffffff; stroke-width: 2; stroke-linecap: square"/>
   </g>
   <g id="line2d_66">
    <path d="M 1305.903488 529.398793 
L 1317.955528 529.398793 
" clip-path="url(#pff5d3648b2)" style="fill: none; stroke: #ffffff; stroke-width: 2; stroke-linecap: square"/>
   </g>
   <g id="text_30">
    <g clip-path="url(#pff5d3648b2)">
     <!-- $\mathrm{S^\dagger}$ -->
     <g transform="translate(1349.833508 115.799986)scale(0.13 -0.13)">
      <defs>
       <path id="DejaVuSans-2020" d="M 1325 4666 
L 1875 4666 
L 1875 3353 
L 3022 3353 
L 3022 2875 
L 1875 2875 
L 1875 -616 
L 1325 -616 
L 1325 2875 
L 178 2875 
L 178 3353 
L 1325 3353 
L 1325 4666 
z
" transform="scale(0.015625)"/>
      </defs>
      <use xlink:href="#DejaVuSans-53" transform="translate(0 0.684375)"/>
      <use xlink:href="#DejaVuSans-2020" transform="translate(78.071289 38.965625)scale(0.7)"/>
     </g>
    </g>
   </g>
   <g id="line2d_67">
    <path d="M 1358.283508 535.424813 
L 1358.283508 523.372773 
" clip-path="url(#pff5d3648b2)" style="fill: none; stroke: #ffffff; stroke-width: 2; stroke-linecap: square"/>
   </g>
   <g id="line2d_68">
    <path d="M 1352.257488 529.398793 
L 1364.309527 529.398793 
" clip-path="url(#pff5d3648b2)" style="fill: none; stroke: #ffffff; stroke-width: 2; stroke-linecap: square"/>
   </g>
   <g id="line2d_69">
    <path d="M 1404.637507 535.424813 
L 1404.637507 523.372773 
" clip-path="url(#pff5d3648b2)" style="fill: none; stroke: #ffffff; stroke-width: 2; stroke-linecap: square"/>
   </g>
   <g id="line2d_70">
    <path d="M 1398.611487 529.398793 
L 1410.663527 529.398793 
" clip-path="url(#pff5d3648b2)" style="fill: none; stroke: #ffffff; stroke-width: 2; stroke-linecap: square"/>
   </g>
   <g id="text_31">
    <g clip-path="url(#pff5d3648b2)">
     <!-- H -->
     <g transform="translate(1446.103303 254.861984)scale(0.13 -0.13)">
      <use xlink:href="#DejaVuSans-48"/>
     </g>
    </g>
   </g>
   <g id="line2d_71">
    <path d="M 1450.991506 535.424813 
L 1450.991506 523.372773 
" clip-path="url(#pff5d3648b2)" style="fill: none; stroke: #ffffff; stroke-width: 2; stroke-linecap: square"/>
   </g>
   <g id="line2d_72">
    <path d="M 1444.965486 529.398793 
L 1457.017526 529.398793 
" clip-path="url(#pff5d3648b2)" style="fill: none; stroke: #ffffff; stroke-width: 2; stroke-linecap: square"/>
   </g>
   <g id="text_32">
    <g clip-path="url(#pff5d3648b2)">
     <!-- $\mathrm{S^\dagger}$ -->
     <g transform="translate(1488.895506 254.861984)scale(0.13 -0.13)">
      <use xlink:href="#DejaVuSans-53" transform="translate(0 0.684375)"/>
      <use xlink:href="#DejaVuSans-2020" transform="translate(78.071289 38.965625)scale(0.7)"/>
     </g>
    </g>
   </g>
   <g id="text_33">
    <g clip-path="url(#pff5d3648b2)">
     <!-- H -->
     <g transform="translate(1492.457303 486.631981)scale(0.13 -0.13)">
      <use xlink:href="#DejaVuSans-48"/>
     </g>
    </g>
   </g>
   <g id="line2d_73">
    <path d="M 1543.699505 210.946817 
L 1543.699505 198.894777 
" clip-path="url(#pff5d3648b2)" style="fill: none; stroke: #ffffff; stroke-width: 2; stroke-linecap: square"/>
   </g>
   <g id="line2d_74">
    <path d="M 1537.673485 204.920797 
L 1549.725525 204.920797 
" clip-path="url(#pff5d3648b2)" style="fill: none; stroke: #ffffff; stroke-width: 2; stroke-linecap: square"/>
   </g>
   <g id="line2d_75">
    <path d="M 1590.053504 210.946817 
L 1590.053504 198.894777 
" clip-path="url(#pff5d3648b2)" style="fill: none; stroke: #ffffff; stroke-width: 2; stroke-linecap: square"/>
   </g>
   <g id="line2d_76">
    <path d="M 1584.027485 204.920797 
L 1596.079524 204.920797 
" clip-path="url(#pff5d3648b2)" style="fill: none; stroke: #ffffff; stroke-width: 2; stroke-linecap: square"/>
   </g>
   <g id="line2d_77">
    <path d="M 1636.407504 210.946817 
L 1636.407504 198.894777 
" clip-path="url(#pff5d3648b2)" style="fill: none; stroke: #ffffff; stroke-width: 2; stroke-linecap: square"/>
   </g>
   <g id="line2d_78">
    <path d="M 1630.381484 204.920797 
L 1642.433524 204.920797 
" clip-path="url(#pff5d3648b2)" style="fill: none; stroke: #ffffff; stroke-width: 2; stroke-linecap: square"/>
   </g>
   <g id="line2d_79">
    <path d="M 1682.761503 210.946817 
L 1682.761503 198.894777 
" clip-path="url(#pff5d3648b2)" style="fill: none; stroke: #ffffff; stroke-width: 2; stroke-linecap: square"/>
   </g>
   <g id="line2d_80">
    <path d="M 1676.735483 204.920797 
L 1688.787523 204.920797 
" clip-path="url(#pff5d3648b2)" style="fill: none; stroke: #ffffff; stroke-width: 2; stroke-linecap: square"/>
   </g>
   <g id="line2d_81">
    <path d="M 1729.115503 210.946817 
L 1729.115503 198.894777 
" clip-path="url(#pff5d3648b2)" style="fill: none; stroke: #ffffff; stroke-width: 2; stroke-linecap: square"/>
   </g>
   <g id="line2d_82">
    <path d="M 1723.089483 204.920797 
L 1735.141523 204.920797 
" clip-path="url(#pff5d3648b2)" style="fill: none; stroke: #ffffff; stroke-width: 2; stroke-linecap: square"/>
   </g>
   <g id="text_34">
    <g clip-path="url(#pff5d3648b2)">
     <!-- $-$0.00976 -->
     <g transform="translate(1778.726502 216.167327)scale(0.08 -0.08)">
      <use xlink:href="#DejaVuSans-2212" transform="translate(0 0.78125)"/>
      <use xlink:href="#DejaVuSans-30" transform="translate(83.789062 0.78125)"/>
      <use xlink:href="#DejaVuSans-2e" transform="translate(147.412109 0.78125)"/>
      <use xlink:href="#DejaVuSans-30" transform="translate(179.199219 0.78125)"/>
      <use xlink:href="#DejaVuSans-30" transform="translate(242.822266 0.78125)"/>
      <use xlink:href="#DejaVuSans-39" transform="translate(306.445312 0.78125)"/>
      <use xlink:href="#DejaVuSans-37" transform="translate(370.068359 0.78125)"/>
      <use xlink:href="#DejaVuSans-36" transform="translate(433.691406 0.78125)"/>
     </g>
    </g>
   </g>
   <g id="text_35">
    <g clip-path="url(#pff5d3648b2)">
     <!-- $\mathrm{R_Z}$ -->
     <g transform="translate(1790.716502 203.98847)scale(0.13 -0.13)">
      <use xlink:href="#DejaVuSans-52" transform="translate(0 0.09375)"/>
      <use xlink:href="#DejaVuSans-5a" transform="translate(70.439453 -16.3125)scale(0.7)"/>
     </g>
    </g>
   </g>
   <g id="line2d_83">
    <path d="M 1868.177501 210.946817 
L 1868.177501 198.894777 
" clip-path="url(#pff5d3648b2)" style="fill: none; stroke: #ffffff; stroke-width: 2; stroke-linecap: square"/>
   </g>
   <g id="line2d_84">
    <path d="M 1862.151481 204.920797 
L 1874.203521 204.920797 
" clip-path="url(#pff5d3648b2)" style="fill: none; stroke: #ffffff; stroke-width: 2; stroke-linecap: square"/>
   </g>
   <g id="text_36">
    <g clip-path="url(#pff5d3648b2)">
     <!-- H -->
     <g transform="translate(1909.643297 440.277982)scale(0.13 -0.13)">
      <use xlink:href="#DejaVuSans-48"/>
     </g>
    </g>
   </g>
   <g id="line2d_85">
    <path d="M 1914.5315 210.946817 
L 1914.5315 198.894777 
" clip-path="url(#pff5d3648b2)" style="fill: none; stroke: #ffffff; stroke-width: 2; stroke-linecap: square"/>
   </g>
   <g id="line2d_86">
    <path d="M 1908.50548 204.920797 
L 1920.55752 204.920797 
" clip-path="url(#pff5d3648b2)" style="fill: none; stroke: #ffffff; stroke-width: 2; stroke-linecap: square"/>
   </g>
   <g id="text_37">
    <g clip-path="url(#pff5d3648b2)">
     <!-- $\mathrm{S^\dagger}$ -->
     <g transform="translate(1952.4355 440.277982)scale(0.13 -0.13)">
      <use xlink:href="#DejaVuSans-53" transform="translate(0 0.684375)"/>
      <use xlink:href="#DejaVuSans-2020" transform="translate(78.071289 38.965625)scale(0.7)"/>
     </g>
    </g>
   </g>
   <g id="line2d_87">
    <path d="M 1960.8855 210.946817 
L 1960.8855 198.894777 
" clip-path="url(#pff5d3648b2)" style="fill: none; stroke: #ffffff; stroke-width: 2; stroke-linecap: square"/>
   </g>
   <g id="line2d_88">
    <path d="M 1954.85948 204.920797 
L 1966.911519 204.920797 
" clip-path="url(#pff5d3648b2)" style="fill: none; stroke: #ffffff; stroke-width: 2; stroke-linecap: square"/>
   </g>
   <g id="text_38">
    <g clip-path="url(#pff5d3648b2)">
     <!-- H -->
     <g transform="translate(2002.351296 347.569983)scale(0.13 -0.13)">
      <use xlink:href="#DejaVuSans-48"/>
     </g>
    </g>
   </g>
   <g id="line2d_89">
    <path d="M 2007.239499 210.946817 
L 2007.239499 198.894777 
" clip-path="url(#pff5d3648b2)" style="fill: none; stroke: #ffffff; stroke-width: 2; stroke-linecap: square"/>
   </g>
   <g id="line2d_90">
    <path d="M 2001.213479 204.920797 
L 2013.265519 204.920797 
" clip-path="url(#pff5d3648b2)" style="fill: none; stroke: #ffffff; stroke-width: 2; stroke-linecap: square"/>
   </g>
   <g id="text_39">
    <g clip-path="url(#pff5d3648b2)">
     <!-- $\mathrm{S^\dagger}$ -->
     <g transform="translate(2045.143498 347.569983)scale(0.13 -0.13)">
      <use xlink:href="#DejaVuSans-53" transform="translate(0 0.684375)"/>
      <use xlink:href="#DejaVuSans-2020" transform="translate(78.071289 38.965625)scale(0.7)"/>
     </g>
    </g>
   </g>
   <g id="text_40">
    <g clip-path="url(#pff5d3648b2)">
     <!-- H -->
     <g transform="translate(2048.705295 301.215984)scale(0.13 -0.13)">
      <use xlink:href="#DejaVuSans-48"/>
     </g>
    </g>
   </g>
   <g id="line2d_91">
    <path d="M 2053.593498 210.946817 
L 2053.593498 198.894777 
" clip-path="url(#pff5d3648b2)" style="fill: none; stroke: #ffffff; stroke-width: 2; stroke-linecap: square"/>
   </g>
   <g id="line2d_92">
    <path d="M 2047.567478 204.920797 
L 2059.619518 204.920797 
" clip-path="url(#pff5d3648b2)" style="fill: none; stroke: #ffffff; stroke-width: 2; stroke-linecap: square"/>
   </g>
   <g id="text_41">
    <g clip-path="url(#pff5d3648b2)">
     <!-- $\mathrm{S^\dagger}$ -->
     <g transform="translate(2091.497498 301.215984)scale(0.13 -0.13)">
      <use xlink:href="#DejaVuSans-53" transform="translate(0 0.684375)"/>
      <use xlink:href="#DejaVuSans-2020" transform="translate(78.071289 38.965625)scale(0.7)"/>
     </g>
    </g>
   </g>
   <g id="line2d_93">
    <path d="M 2146.301497 257.300817 
L 2146.301497 245.248777 
" clip-path="url(#pff5d3648b2)" style="fill: none; stroke: #ffffff; stroke-width: 2; stroke-linecap: square"/>
   </g>
   <g id="line2d_94">
    <path d="M 2140.275477 251.274797 
L 2152.327517 251.274797 
" clip-path="url(#pff5d3648b2)" style="fill: none; stroke: #ffffff; stroke-width: 2; stroke-linecap: square"/>
   </g>
   <g id="text_42">
    <g clip-path="url(#pff5d3648b2)">
     <!-- H -->
     <g transform="translate(2187.767293 301.215984)scale(0.13 -0.13)">
      <use xlink:href="#DejaVuSans-48"/>
     </g>
    </g>
   </g>
   <g id="line2d_95">
    <path d="M 2239.009496 257.300817 
L 2239.009496 245.248777 
" clip-path="url(#pff5d3648b2)" style="fill: none; stroke: #ffffff; stroke-width: 2; stroke-linecap: square"/>
   </g>
   <g id="line2d_96">
    <path d="M 2232.983476 251.274797 
L 2245.035516 251.274797 
" clip-path="url(#pff5d3648b2)" style="fill: none; stroke: #ffffff; stroke-width: 2; stroke-linecap: square"/>
   </g>
   <g id="text_43">
    <g clip-path="url(#pff5d3648b2)">
     <!-- 0.0211 -->
     <g transform="translate(2271.367245 262.521327)scale(0.08 -0.08)">
      <use xlink:href="#DejaVuSans-30"/>
      <use xlink:href="#DejaVuSans-2e" x="63.623047"/>
      <use xlink:href="#DejaVuSans-30" x="95.410156"/>
      <use xlink:href="#DejaVuSans-32" x="159.033203"/>
      <use xlink:href="#DejaVuSans-31" x="222.65625"/>
      <use xlink:href="#DejaVuSans-31" x="286.279297"/>
     </g>
    </g>
   </g>
   <g id="text_44">
    <g clip-path="url(#pff5d3648b2)">
     <!-- $\mathrm{R_Z}$ -->
     <g transform="translate(2277.433495 250.342469)scale(0.13 -0.13)">
      <use xlink:href="#DejaVuSans-52" transform="translate(0 0.09375)"/>
      <use xlink:href="#DejaVuSans-5a" transform="translate(70.439453 -16.3125)scale(0.7)"/>
     </g>
    </g>
   </g>
   <g id="line2d_97">
    <path d="M 2331.717495 257.300817 
L 2331.717495 245.248777 
" clip-path="url(#pff5d3648b2)" style="fill: none; stroke: #ffffff; stroke-width: 2; stroke-linecap: square"/>
   </g>
   <g id="line2d_98">
    <path d="M 2325.691475 251.274797 
L 2337.743515 251.274797 
" clip-path="url(#pff5d3648b2)" style="fill: none; stroke: #ffffff; stroke-width: 2; stroke-linecap: square"/>
   </g>
   <g id="text_45">
    <g clip-path="url(#pff5d3648b2)">
     <!-- H -->
     <g transform="translate(2373.183291 301.215984)scale(0.13 -0.13)">
      <use xlink:href="#DejaVuSans-48"/>
     </g>
    </g>
   </g>
   <g id="line2d_99">
    <path d="M 2424.425493 257.300817 
L 2424.425493 245.248777 
" clip-path="url(#pff5d3648b2)" style="fill: none; stroke: #ffffff; stroke-width: 2; stroke-linecap: square"/>
   </g>
   <g id="line2d_100">
    <path d="M 2418.399473 251.274797 
L 2430.451513 251.274797 
" clip-path="url(#pff5d3648b2)" style="fill: none; stroke: #ffffff; stroke-width: 2; stroke-linecap: square"/>
   </g>
  </g>
 </g>
 <defs>
  <clipPath id="pff5d3648b2">
   <rect x="348.763164" y="75.129599" width="2106.255969" height="482.081594"/>
  </clipPath>
 </defs>
</svg>
