<?xml version="1.0" encoding="utf-8" standalone="no"?>
<!DOCTYPE svg PUBLIC "-//W3C//DTD SVG 1.1//EN"
  "http://www.w3.org/Graphics/SVG/1.1/DTD/svg11.dtd">
<svg xmlns:xlink="http://www.w3.org/1999/xlink" width="808.997388pt" height="626.079992pt" viewBox="0 0 808.997388 626.079992" xmlns="http://www.w3.org/2000/svg" version="1.1">
 <metadata>
  <rdf:RDF xmlns:dc="http://purl.org/dc/elements/1.1/" xmlns:cc="http://creativecommons.org/ns#" xmlns:rdf="http://www.w3.org/1999/02/22-rdf-syntax-ns#">
   <cc:Work>
    <dc:type rdf:resource="http://purl.org/dc/dcmitype/StillImage"/>
    <dc:date>2022-05-14T14:18:12.070111</dc:date>
    <dc:format>image/svg+xml</dc:format>
    <dc:creator>
     <cc:Agent>
      <dc:title>Matplotlib v3.5.1, https://matplotlib.org/</dc:title>
     </cc:Agent>
    </dc:creator>
   </cc:Work>
  </rdf:RDF>
 </metadata>
 <defs>
  <style type="text/css">*{stroke-linejoin: round; stroke-linecap: butt}</style>
 </defs>
 <g id="figure_1">
  <g id="patch_1">
   <path d="M 0 626.079992 
L 808.997388 626.079992 
L 808.997388 0 
L 0 0 
z
" style="fill: #ffffff"/>
  </g>
  <g id="axes_1">
   <g id="line2d_1">
    <path d="M 160.556363 112.212799 
L 721.439756 112.212799 
" clip-path="url(#p2ffa0173ed)" style="fill: none; stroke: #000000; stroke-width: 2; stroke-linecap: square"/>
   </g>
   <g id="line2d_2">
    <path d="M 160.556363 158.566798 
L 721.439756 158.566798 
" clip-path="url(#p2ffa0173ed)" style="fill: none; stroke: #000000; stroke-width: 2; stroke-linecap: square"/>
   </g>
   <g id="line2d_3">
    <path d="M 160.556363 204.920797 
L 721.439756 204.920797 
" clip-path="url(#p2ffa0173ed)" style="fill: none; stroke: #000000; stroke-width: 2; stroke-linecap: square"/>
   </g>
   <g id="line2d_4">
    <path d="M 160.556363 251.274797 
L 721.439756 251.274797 
" clip-path="url(#p2ffa0173ed)" style="fill: none; stroke: #000000; stroke-width: 2; stroke-linecap: square"/>
   </g>
   <g id="line2d_5">
    <path d="M 160.556363 297.628796 
L 721.439756 297.628796 
" clip-path="url(#p2ffa0173ed)" style="fill: none; stroke: #000000; stroke-width: 2; stroke-linecap: square"/>
   </g>
   <g id="line2d_6">
    <path d="M 160.556363 343.982795 
L 721.439756 343.982795 
" clip-path="url(#p2ffa0173ed)" style="fill: none; stroke: #000000; stroke-width: 2; stroke-linecap: square"/>
   </g>
   <g id="line2d_7">
    <path d="M 160.556363 390.336795 
L 721.439756 390.336795 
" clip-path="url(#p2ffa0173ed)" style="fill: none; stroke: #000000; stroke-width: 2; stroke-linecap: square"/>
   </g>
   <g id="line2d_8">
    <path d="M 160.556363 436.690794 
L 721.439756 436.690794 
" clip-path="url(#p2ffa0173ed)" style="fill: none; stroke: #000000; stroke-width: 2; stroke-linecap: square"/>
   </g>
   <g id="line2d_9">
    <path d="M 160.556363 483.044794 
L 721.439756 483.044794 
" clip-path="url(#p2ffa0173ed)" style="fill: none; stroke: #000000; stroke-width: 2; stroke-linecap: square"/>
   </g>
   <g id="line2d_10">
    <path d="M 160.556363 529.398793 
L 721.439756 529.398793 
" clip-path="url(#p2ffa0173ed)" style="fill: none; stroke: #000000; stroke-width: 2; stroke-linecap: square"/>
   </g>
   <g id="line2d_11">
    <path d="M 231.941523 204.920797 
L 231.941523 112.212799 
" clip-path="url(#p2ffa0173ed)" style="fill: none; stroke: #000000; stroke-width: 2; stroke-linecap: square"/>
   </g>
   <g id="line2d_12">
    <path d="M 278.295522 343.982795 
L 278.295522 112.212799 
" clip-path="url(#p2ffa0173ed)" style="fill: none; stroke: #000000; stroke-width: 2; stroke-linecap: square"/>
   </g>
   <g id="line2d_13">
    <path d="M 371.003521 343.982795 
L 371.003521 112.212799 
" clip-path="url(#p2ffa0173ed)" style="fill: none; stroke: #000000; stroke-width: 2; stroke-linecap: square"/>
   </g>
   <g id="line2d_14">
    <path d="M 417.35752 204.920797 
L 417.35752 112.212799 
" clip-path="url(#p2ffa0173ed)" style="fill: none; stroke: #000000; stroke-width: 2; stroke-linecap: square"/>
   </g>
   <g id="line2d_15">
    <path d="M 463.711519 204.920797 
L 463.711519 112.212799 
" clip-path="url(#p2ffa0173ed)" style="fill: none; stroke: #000000; stroke-width: 2; stroke-linecap: square"/>
   </g>
   <g id="line2d_16">
    <path d="M 510.065519 343.982795 
L 510.065519 112.212799 
" clip-path="url(#p2ffa0173ed)" style="fill: none; stroke: #000000; stroke-width: 2; stroke-linecap: square"/>
   </g>
   <g id="line2d_17">
    <path d="M 602.773518 343.982795 
L 602.773518 112.212799 
" clip-path="url(#p2ffa0173ed)" style="fill: none; stroke: #000000; stroke-width: 2; stroke-linecap: square"/>
   </g>
   <g id="line2d_18">
    <path d="M 649.127517 204.920797 
L 649.127517 112.212799 
" clip-path="url(#p2ffa0173ed)" style="fill: none; stroke: #000000; stroke-width: 2; stroke-linecap: square"/>
   </g>
   <g id="text_1">
    <!-- TERMS: 1, DEPTH:12 -->
    <g transform="translate(352.578661 69.129599)scale(0.12 -0.12)">
     <defs>
      <path id="DejaVuSans-54" d="M -19 4666 
L 3928 4666 
L 3928 4134 
L 2272 4134 
L 2272 0 
L 1638 0 
L 1638 4134 
L -19 4134 
L -19 4666 
z
" transform="scale(0.015625)"/>
      <path id="DejaVuSans-45" d="M 628 4666 
L 3578 4666 
L 3578 4134 
L 1259 4134 
L 1259 2753 
L 3481 2753 
L 3481 2222 
L 1259 2222 
L 1259 531 
L 3634 531 
L 3634 0 
L 628 0 
L 628 4666 
z
" transform="scale(0.015625)"/>
      <path id="DejaVuSans-52" d="M 2841 2188 
Q 3044 2119 3236 1894 
Q 3428 1669 3622 1275 
L 4263 0 
L 3584 0 
L 2988 1197 
Q 2756 1666 2539 1819 
Q 2322 1972 1947 1972 
L 1259 1972 
L 1259 0 
L 628 0 
L 628 4666 
L 2053 4666 
Q 2853 4666 3247 4331 
Q 3641 3997 3641 3322 
Q 3641 2881 3436 2590 
Q 3231 2300 2841 2188 
z
M 1259 4147 
L 1259 2491 
L 2053 2491 
Q 2509 2491 2742 2702 
Q 2975 2913 2975 3322 
Q 2975 3731 2742 3939 
Q 2509 4147 2053 4147 
L 1259 4147 
z
" transform="scale(0.015625)"/>
      <path id="DejaVuSans-4d" d="M 628 4666 
L 1569 4666 
L 2759 1491 
L 3956 4666 
L 4897 4666 
L 4897 0 
L 4281 0 
L 4281 4097 
L 3078 897 
L 2444 897 
L 1241 4097 
L 1241 0 
L 628 0 
L 628 4666 
z
" transform="scale(0.015625)"/>
      <path id="DejaVuSans-53" d="M 3425 4513 
L 3425 3897 
Q 3066 4069 2747 4153 
Q 2428 4238 2131 4238 
Q 1616 4238 1336 4038 
Q 1056 3838 1056 3469 
Q 1056 3159 1242 3001 
Q 1428 2844 1947 2747 
L 2328 2669 
Q 3034 2534 3370 2195 
Q 3706 1856 3706 1288 
Q 3706 609 3251 259 
Q 2797 -91 1919 -91 
Q 1588 -91 1214 -16 
Q 841 59 441 206 
L 441 856 
Q 825 641 1194 531 
Q 1563 422 1919 422 
Q 2459 422 2753 634 
Q 3047 847 3047 1241 
Q 3047 1584 2836 1778 
Q 2625 1972 2144 2069 
L 1759 2144 
Q 1053 2284 737 2584 
Q 422 2884 422 3419 
Q 422 4038 858 4394 
Q 1294 4750 2059 4750 
Q 2388 4750 2728 4690 
Q 3069 4631 3425 4513 
z
" transform="scale(0.015625)"/>
      <path id="DejaVuSans-3a" d="M 750 794 
L 1409 794 
L 1409 0 
L 750 0 
L 750 794 
z
M 750 3309 
L 1409 3309 
L 1409 2516 
L 750 2516 
L 750 3309 
z
" transform="scale(0.015625)"/>
      <path id="DejaVuSans-20" transform="scale(0.015625)"/>
      <path id="DejaVuSans-31" d="M 794 531 
L 1825 531 
L 1825 4091 
L 703 3866 
L 703 4441 
L 1819 4666 
L 2450 4666 
L 2450 531 
L 3481 531 
L 3481 0 
L 794 0 
L 794 531 
z
" transform="scale(0.015625)"/>
      <path id="DejaVuSans-2c" d="M 750 794 
L 1409 794 
L 1409 256 
L 897 -744 
L 494 -744 
L 750 256 
L 750 794 
z
" transform="scale(0.015625)"/>
      <path id="DejaVuSans-44" d="M 1259 4147 
L 1259 519 
L 2022 519 
Q 2988 519 3436 956 
Q 3884 1394 3884 2338 
Q 3884 3275 3436 3711 
Q 2988 4147 2022 4147 
L 1259 4147 
z
M 628 4666 
L 1925 4666 
Q 3281 4666 3915 4102 
Q 4550 3538 4550 2338 
Q 4550 1131 3912 565 
Q 3275 0 1925 0 
L 628 0 
L 628 4666 
z
" transform="scale(0.015625)"/>
      <path id="DejaVuSans-50" d="M 1259 4147 
L 1259 2394 
L 2053 2394 
Q 2494 2394 2734 2622 
Q 2975 2850 2975 3272 
Q 2975 3691 2734 3919 
Q 2494 4147 2053 4147 
L 1259 4147 
z
M 628 4666 
L 2053 4666 
Q 2838 4666 3239 4311 
Q 3641 3956 3641 3272 
Q 3641 2581 3239 2228 
Q 2838 1875 2053 1875 
L 1259 1875 
L 1259 0 
L 628 0 
L 628 4666 
z
" transform="scale(0.015625)"/>
      <path id="DejaVuSans-48" d="M 628 4666 
L 1259 4666 
L 1259 2753 
L 3553 2753 
L 3553 4666 
L 4184 4666 
L 4184 0 
L 3553 0 
L 3553 2222 
L 1259 2222 
L 1259 0 
L 628 0 
L 628 4666 
z
" transform="scale(0.015625)"/>
      <path id="DejaVuSans-32" d="M 1228 531 
L 3431 531 
L 3431 0 
L 469 0 
L 469 531 
Q 828 903 1448 1529 
Q 2069 2156 2228 2338 
Q 2531 2678 2651 2914 
Q 2772 3150 2772 3378 
Q 2772 3750 2511 3984 
Q 2250 4219 1831 4219 
Q 1534 4219 1204 4116 
Q 875 4013 500 3803 
L 500 4441 
Q 881 4594 1212 4672 
Q 1544 4750 1819 4750 
Q 2544 4750 2975 4387 
Q 3406 4025 3406 3419 
Q 3406 3131 3298 2873 
Q 3191 2616 2906 2266 
Q 2828 2175 2409 1742 
Q 1991 1309 1228 531 
z
" transform="scale(0.015625)"/>
     </defs>
     <use xlink:href="#DejaVuSans-54"/>
     <use xlink:href="#DejaVuSans-45" x="61.083984"/>
     <use xlink:href="#DejaVuSans-52" x="124.267578"/>
     <use xlink:href="#DejaVuSans-4d" x="193.75"/>
     <use xlink:href="#DejaVuSans-53" x="280.029297"/>
     <use xlink:href="#DejaVuSans-3a" x="343.505859"/>
     <use xlink:href="#DejaVuSans-20" x="377.197266"/>
     <use xlink:href="#DejaVuSans-31" x="408.984375"/>
     <use xlink:href="#DejaVuSans-2c" x="472.607422"/>
     <use xlink:href="#DejaVuSans-20" x="504.394531"/>
     <use xlink:href="#DejaVuSans-44" x="536.181641"/>
     <use xlink:href="#DejaVuSans-45" x="613.183594"/>
     <use xlink:href="#DejaVuSans-50" x="676.367188"/>
     <use xlink:href="#DejaVuSans-54" x="736.669922"/>
     <use xlink:href="#DejaVuSans-48" x="797.753906"/>
     <use xlink:href="#DejaVuSans-3a" x="872.949219"/>
     <use xlink:href="#DejaVuSans-31" x="906.640625"/>
     <use xlink:href="#DejaVuSans-32" x="970.263672"/>
    </g>
   </g>
   <g id="patch_2">
    <path d="M 170.522473 219.985847 
L 200.652573 219.985847 
L 200.652573 189.855747 
L 170.522473 189.855747 
z
" clip-path="url(#p2ffa0173ed)" style="fill: #ffffff; stroke: #000000; stroke-width: 1.5; stroke-linejoin: miter"/>
   </g>
   <g id="patch_3">
    <path d="M 170.522473 359.047845 
L 200.652573 359.047845 
L 200.652573 328.917746 
L 170.522473 328.917746 
z
" clip-path="url(#p2ffa0173ed)" style="fill: #ffffff; stroke: #000000; stroke-width: 1.5; stroke-linejoin: miter"/>
   </g>
   <g id="patch_4">
    <path d="M 231.941523 209.440312 
C 233.140112 209.440312 234.289772 208.964108 235.137302 208.116577 
C 235.984833 207.269046 236.461037 206.119387 236.461037 204.920797 
C 236.461037 203.722208 235.984833 202.572548 235.137302 201.725018 
C 234.289772 200.877487 233.140112 200.401282 231.941523 200.401282 
C 230.742933 200.401282 229.593274 200.877487 228.745743 201.725018 
C 227.898212 202.572548 227.422008 203.722208 227.422008 204.920797 
C 227.422008 206.119387 227.898212 207.269046 228.745743 208.116577 
C 229.593274 208.964108 230.742933 209.440312 231.941523 209.440312 
z
" clip-path="url(#p2ffa0173ed)" style="stroke: #000000; stroke-width: 1.5; stroke-linejoin: miter"/>
   </g>
   <g id="patch_5">
    <path d="M 231.941523 122.758333 
C 234.738231 122.758333 237.42077 121.647189 239.398342 119.669618 
C 241.375913 117.692046 242.487057 115.009507 242.487057 112.212799 
C 242.487057 109.41609 241.375913 106.733551 239.398342 104.755979 
C 237.42077 102.778408 234.738231 101.667264 231.941523 101.667264 
C 229.144814 101.667264 226.462275 102.778408 224.484703 104.755979 
C 222.507132 106.733551 221.395988 109.41609 221.395988 112.212799 
C 221.395988 115.009507 222.507132 117.692046 224.484703 119.669618 
C 226.462275 121.647189 229.144814 122.758333 231.941523 122.758333 
z
" clip-path="url(#p2ffa0173ed)" style="stroke: #000000; stroke-width: 2; stroke-linejoin: miter"/>
   </g>
   <g id="patch_6">
    <path d="M 278.295522 348.50231 
C 279.494111 348.50231 280.643771 348.026106 281.491302 347.178575 
C 282.338832 346.331044 282.815037 345.181385 282.815037 343.982795 
C 282.815037 342.784206 282.338832 341.634546 281.491302 340.787016 
C 280.643771 339.939485 279.494111 339.46328 278.295522 339.46328 
C 277.096933 339.46328 275.947273 339.939485 275.099742 340.787016 
C 274.252212 341.634546 273.776007 342.784206 273.776007 343.982795 
C 273.776007 345.181385 274.252212 346.331044 275.099742 347.178575 
C 275.947273 348.026106 277.096933 348.50231 278.295522 348.50231 
z
" clip-path="url(#p2ffa0173ed)" style="stroke: #000000; stroke-width: 1.5; stroke-linejoin: miter"/>
   </g>
   <g id="patch_7">
    <path d="M 278.295522 122.758333 
C 281.09223 122.758333 283.77477 121.647189 285.752341 119.669618 
C 287.729913 117.692046 288.841057 115.009507 288.841057 112.212799 
C 288.841057 109.41609 287.729913 106.733551 285.752341 104.755979 
C 283.77477 102.778408 281.09223 101.667264 278.295522 101.667264 
C 275.498813 101.667264 272.816274 102.778408 270.838703 104.755979 
C 268.861131 106.733551 267.749987 109.41609 267.749987 112.212799 
C 267.749987 115.009507 268.861131 117.692046 270.838703 119.669618 
C 272.816274 121.647189 275.498813 122.758333 278.295522 122.758333 
z
" clip-path="url(#p2ffa0173ed)" style="stroke: #000000; stroke-width: 2; stroke-linejoin: miter"/>
   </g>
   <g id="patch_8">
    <path d="M 309.584471 127.277848 
L 339.714571 127.277848 
L 339.714571 97.147749 
L 309.584471 97.147749 
z
" clip-path="url(#p2ffa0173ed)" style="fill: #ffffff; stroke: #000000; stroke-width: 1.5; stroke-linejoin: miter"/>
   </g>
   <g id="patch_9">
    <path d="M 371.003521 348.50231 
C 372.20211 348.50231 373.35177 348.026106 374.1993 347.178575 
C 375.046831 346.331044 375.523036 345.181385 375.523036 343.982795 
C 375.523036 342.784206 375.046831 341.634546 374.1993 340.787016 
C 373.35177 339.939485 372.20211 339.46328 371.003521 339.46328 
C 369.804931 339.46328 368.655272 339.939485 367.807741 340.787016 
C 366.96021 341.634546 366.484006 342.784206 366.484006 343.982795 
C 366.484006 345.181385 366.96021 346.331044 367.807741 347.178575 
C 368.655272 348.026106 369.804931 348.50231 371.003521 348.50231 
z
" clip-path="url(#p2ffa0173ed)" style="stroke: #000000; stroke-width: 1.5; stroke-linejoin: miter"/>
   </g>
   <g id="patch_10">
    <path d="M 371.003521 122.758333 
C 373.800229 122.758333 376.482768 121.647189 378.46034 119.669618 
C 380.437911 117.692046 381.549056 115.009507 381.549056 112.212799 
C 381.549056 109.41609 380.437911 106.733551 378.46034 104.755979 
C 376.482768 102.778408 373.800229 101.667264 371.003521 101.667264 
C 368.206812 101.667264 365.524273 102.778408 363.546701 104.755979 
C 361.56913 106.733551 360.457986 109.41609 360.457986 112.212799 
C 360.457986 115.009507 361.56913 117.692046 363.546701 119.669618 
C 365.524273 121.647189 368.206812 122.758333 371.003521 122.758333 
z
" clip-path="url(#p2ffa0173ed)" style="stroke: #000000; stroke-width: 2; stroke-linejoin: miter"/>
   </g>
   <g id="patch_11">
    <path d="M 417.35752 209.440312 
C 418.556109 209.440312 419.705769 208.964108 420.5533 208.116577 
C 421.40083 207.269046 421.877035 206.119387 421.877035 204.920797 
C 421.877035 203.722208 421.40083 202.572548 420.5533 201.725018 
C 419.705769 200.877487 418.556109 200.401282 417.35752 200.401282 
C 416.158931 200.401282 415.009271 200.877487 414.16174 201.725018 
C 413.31421 202.572548 412.838005 203.722208 412.838005 204.920797 
C 412.838005 206.119387 413.31421 207.269046 414.16174 208.116577 
C 415.009271 208.964108 416.158931 209.440312 417.35752 209.440312 
z
" clip-path="url(#p2ffa0173ed)" style="stroke: #000000; stroke-width: 1.5; stroke-linejoin: miter"/>
   </g>
   <g id="patch_12">
    <path d="M 417.35752 122.758333 
C 420.154229 122.758333 422.836768 121.647189 424.814339 119.669618 
C 426.791911 117.692046 427.903055 115.009507 427.903055 112.212799 
C 427.903055 109.41609 426.791911 106.733551 424.814339 104.755979 
C 422.836768 102.778408 420.154229 101.667264 417.35752 101.667264 
C 414.560812 101.667264 411.878272 102.778408 409.900701 104.755979 
C 407.923129 106.733551 406.811985 109.41609 406.811985 112.212799 
C 406.811985 115.009507 407.923129 117.692046 409.900701 119.669618 
C 411.878272 121.647189 414.560812 122.758333 417.35752 122.758333 
z
" clip-path="url(#p2ffa0173ed)" style="stroke: #000000; stroke-width: 2; stroke-linejoin: miter"/>
   </g>
   <g id="patch_13">
    <path d="M 463.711519 209.440312 
C 464.910109 209.440312 466.059768 208.964108 466.907299 208.116577 
C 467.75483 207.269046 468.231034 206.119387 468.231034 204.920797 
C 468.231034 203.722208 467.75483 202.572548 466.907299 201.725018 
C 466.059768 200.877487 464.910109 200.401282 463.711519 200.401282 
C 462.51293 200.401282 461.36327 200.877487 460.51574 201.725018 
C 459.668209 202.572548 459.192005 203.722208 459.192005 204.920797 
C 459.192005 206.119387 459.668209 207.269046 460.51574 208.116577 
C 461.36327 208.964108 462.51293 209.440312 463.711519 209.440312 
z
" clip-path="url(#p2ffa0173ed)" style="stroke: #000000; stroke-width: 1.5; stroke-linejoin: miter"/>
   </g>
   <g id="patch_14">
    <path d="M 463.711519 122.758333 
C 466.508228 122.758333 469.190767 121.647189 471.168339 119.669618 
C 473.14591 117.692046 474.257054 115.009507 474.257054 112.212799 
C 474.257054 109.41609 473.14591 106.733551 471.168339 104.755979 
C 469.190767 102.778408 466.508228 101.667264 463.711519 101.667264 
C 460.914811 101.667264 458.232272 102.778408 456.2547 104.755979 
C 454.277129 106.733551 453.165985 109.41609 453.165985 112.212799 
C 453.165985 115.009507 454.277129 117.692046 456.2547 119.669618 
C 458.232272 121.647189 460.914811 122.758333 463.711519 122.758333 
z
" clip-path="url(#p2ffa0173ed)" style="stroke: #000000; stroke-width: 2; stroke-linejoin: miter"/>
   </g>
   <g id="patch_15">
    <path d="M 510.065519 348.50231 
C 511.264108 348.50231 512.413768 348.026106 513.261298 347.178575 
C 514.108829 346.331044 514.585034 345.181385 514.585034 343.982795 
C 514.585034 342.784206 514.108829 341.634546 513.261298 340.787016 
C 512.413768 339.939485 511.264108 339.46328 510.065519 339.46328 
C 508.866929 339.46328 507.71727 339.939485 506.869739 340.787016 
C 506.022208 341.634546 505.546004 342.784206 505.546004 343.982795 
C 505.546004 345.181385 506.022208 346.331044 506.869739 347.178575 
C 507.71727 348.026106 508.866929 348.50231 510.065519 348.50231 
z
" clip-path="url(#p2ffa0173ed)" style="stroke: #000000; stroke-width: 1.5; stroke-linejoin: miter"/>
   </g>
   <g id="patch_16">
    <path d="M 510.065519 122.758333 
C 512.862227 122.758333 515.544766 121.647189 517.522338 119.669618 
C 519.49991 117.692046 520.611054 115.009507 520.611054 112.212799 
C 520.611054 109.41609 519.49991 106.733551 517.522338 104.755979 
C 515.544766 102.778408 512.862227 101.667264 510.065519 101.667264 
C 507.26881 101.667264 504.586271 102.778408 502.6087 104.755979 
C 500.631128 106.733551 499.519984 109.41609 499.519984 112.212799 
C 499.519984 115.009507 500.631128 117.692046 502.6087 119.669618 
C 504.586271 121.647189 507.26881 122.758333 510.065519 122.758333 
z
" clip-path="url(#p2ffa0173ed)" style="stroke: #000000; stroke-width: 2; stroke-linejoin: miter"/>
   </g>
   <g id="patch_17">
    <path d="M 541.354468 127.277848 
L 571.484568 127.277848 
L 571.484568 97.147749 
L 541.354468 97.147749 
z
" clip-path="url(#p2ffa0173ed)" style="fill: #ffffff; stroke: #000000; stroke-width: 1.5; stroke-linejoin: miter"/>
   </g>
   <g id="patch_18">
    <path d="M 602.773518 348.50231 
C 603.972107 348.50231 605.121767 348.026106 605.969297 347.178575 
C 606.816828 346.331044 607.293033 345.181385 607.293033 343.982795 
C 607.293033 342.784206 606.816828 341.634546 605.969297 340.787016 
C 605.121767 339.939485 603.972107 339.46328 602.773518 339.46328 
C 601.574928 339.46328 600.425269 339.939485 599.577738 340.787016 
C 598.730207 341.634546 598.254003 342.784206 598.254003 343.982795 
C 598.254003 345.181385 598.730207 346.331044 599.577738 347.178575 
C 600.425269 348.026106 601.574928 348.50231 602.773518 348.50231 
z
" clip-path="url(#p2ffa0173ed)" style="stroke: #000000; stroke-width: 1.5; stroke-linejoin: miter"/>
   </g>
   <g id="patch_19">
    <path d="M 602.773518 122.758333 
C 605.570226 122.758333 608.252765 121.647189 610.230337 119.669618 
C 612.207908 117.692046 613.319052 115.009507 613.319052 112.212799 
C 613.319052 109.41609 612.207908 106.733551 610.230337 104.755979 
C 608.252765 102.778408 605.570226 101.667264 602.773518 101.667264 
C 599.976809 101.667264 597.29427 102.778408 595.316698 104.755979 
C 593.339127 106.733551 592.227983 109.41609 592.227983 112.212799 
C 592.227983 115.009507 593.339127 117.692046 595.316698 119.669618 
C 597.29427 121.647189 599.976809 122.758333 602.773518 122.758333 
z
" clip-path="url(#p2ffa0173ed)" style="stroke: #000000; stroke-width: 2; stroke-linejoin: miter"/>
   </g>
   <g id="patch_20">
    <path d="M 634.062467 359.047845 
L 664.192567 359.047845 
L 664.192567 328.917746 
L 634.062467 328.917746 
z
" clip-path="url(#p2ffa0173ed)" style="fill: #ffffff; stroke: #000000; stroke-width: 1.5; stroke-linejoin: miter"/>
   </g>
   <g id="patch_21">
    <path d="M 649.127517 209.440312 
C 650.326106 209.440312 651.475766 208.964108 652.323297 208.116577 
C 653.170827 207.269046 653.647032 206.119387 653.647032 204.920797 
C 653.647032 203.722208 653.170827 202.572548 652.323297 201.725018 
C 651.475766 200.877487 650.326106 200.401282 649.127517 200.401282 
C 647.928928 200.401282 646.779268 200.877487 645.931737 201.725018 
C 645.084207 202.572548 644.608002 203.722208 644.608002 204.920797 
C 644.608002 206.119387 645.084207 207.269046 645.931737 208.116577 
C 646.779268 208.964108 647.928928 209.440312 649.127517 209.440312 
z
" clip-path="url(#p2ffa0173ed)" style="stroke: #000000; stroke-width: 1.5; stroke-linejoin: miter"/>
   </g>
   <g id="patch_22">
    <path d="M 649.127517 122.758333 
C 651.924226 122.758333 654.606765 121.647189 656.584336 119.669618 
C 658.561908 117.692046 659.673052 115.009507 659.673052 112.212799 
C 659.673052 109.41609 658.561908 106.733551 656.584336 104.755979 
C 654.606765 102.778408 651.924226 101.667264 649.127517 101.667264 
C 646.330808 101.667264 643.648269 102.778408 641.670698 104.755979 
C 639.693126 106.733551 638.581982 109.41609 638.581982 112.212799 
C 638.581982 115.009507 639.693126 117.692046 641.670698 119.669618 
C 643.648269 121.647189 646.330808 122.758333 649.127517 122.758333 
z
" clip-path="url(#p2ffa0173ed)" style="stroke: #000000; stroke-width: 2; stroke-linejoin: miter"/>
   </g>
   <g id="patch_23">
    <path d="M 680.416467 219.985847 
L 710.546566 219.985847 
L 710.546566 189.855747 
L 680.416467 189.855747 
z
" clip-path="url(#p2ffa0173ed)" style="fill: #ffffff; stroke: #000000; stroke-width: 1.5; stroke-linejoin: miter"/>
   </g>
   <g id="text_2">
    <g clip-path="url(#p2ffa0173ed)">
     <!-- ${q}_{0}$ -->
     <g transform="translate(133.248064 116.663775)scale(0.1625 -0.1625)">
      <defs>
       <path id="DejaVuSans-Oblique-71" d="M 2669 525 
Q 2438 222 2123 65 
Q 1809 -91 1428 -91 
Q 897 -91 595 267 
Q 294 625 294 1253 
Q 294 1759 480 2231 
Q 666 2703 1013 3078 
Q 1238 3322 1530 3453 
Q 1822 3584 2144 3584 
Q 2531 3584 2781 3431 
Q 3031 3278 3144 2969 
L 3244 3494 
L 3822 3494 
L 2888 -1319 
L 2309 -1319 
L 2669 525 
z
M 891 1338 
Q 891 875 1084 633 
Q 1278 391 1644 391 
Q 2188 391 2572 911 
Q 2956 1431 2956 2175 
Q 2956 2625 2757 2864 
Q 2559 3103 2188 3103 
Q 1916 3103 1684 2976 
Q 1453 2850 1281 2606 
Q 1100 2350 995 2006 
Q 891 1663 891 1338 
z
" transform="scale(0.015625)"/>
       <path id="DejaVuSans-30" d="M 2034 4250 
Q 1547 4250 1301 3770 
Q 1056 3291 1056 2328 
Q 1056 1369 1301 889 
Q 1547 409 2034 409 
Q 2525 409 2770 889 
Q 3016 1369 3016 2328 
Q 3016 3291 2770 3770 
Q 2525 4250 2034 4250 
z
M 2034 4750 
Q 2819 4750 3233 4129 
Q 3647 3509 3647 2328 
Q 3647 1150 3233 529 
Q 2819 -91 2034 -91 
Q 1250 -91 836 529 
Q 422 1150 422 2328 
Q 422 3509 836 4129 
Q 1250 4750 2034 4750 
z
" transform="scale(0.015625)"/>
      </defs>
      <use xlink:href="#DejaVuSans-Oblique-71"/>
      <use xlink:href="#DejaVuSans-30" transform="translate(63.476562 -16.40625)scale(0.7)"/>
     </g>
    </g>
   </g>
   <g id="text_3">
    <g clip-path="url(#p2ffa0173ed)">
     <!-- ${q}_{1}$ -->
     <g transform="translate(133.248064 163.017774)scale(0.1625 -0.1625)">
      <use xlink:href="#DejaVuSans-Oblique-71"/>
      <use xlink:href="#DejaVuSans-31" transform="translate(63.476562 -16.40625)scale(0.7)"/>
     </g>
    </g>
   </g>
   <g id="text_4">
    <g clip-path="url(#p2ffa0173ed)">
     <!-- ${q}_{2}$ -->
     <g transform="translate(133.248064 209.371774)scale(0.1625 -0.1625)">
      <use xlink:href="#DejaVuSans-Oblique-71"/>
      <use xlink:href="#DejaVuSans-32" transform="translate(63.476562 -16.40625)scale(0.7)"/>
     </g>
    </g>
   </g>
   <g id="text_5">
    <g clip-path="url(#p2ffa0173ed)">
     <!-- ${q}_{3}$ -->
     <g transform="translate(133.248064 255.725773)scale(0.1625 -0.1625)">
      <defs>
       <path id="DejaVuSans-33" d="M 2597 2516 
Q 3050 2419 3304 2112 
Q 3559 1806 3559 1356 
Q 3559 666 3084 287 
Q 2609 -91 1734 -91 
Q 1441 -91 1130 -33 
Q 819 25 488 141 
L 488 750 
Q 750 597 1062 519 
Q 1375 441 1716 441 
Q 2309 441 2620 675 
Q 2931 909 2931 1356 
Q 2931 1769 2642 2001 
Q 2353 2234 1838 2234 
L 1294 2234 
L 1294 2753 
L 1863 2753 
Q 2328 2753 2575 2939 
Q 2822 3125 2822 3475 
Q 2822 3834 2567 4026 
Q 2313 4219 1838 4219 
Q 1578 4219 1281 4162 
Q 984 4106 628 3988 
L 628 4550 
Q 988 4650 1302 4700 
Q 1616 4750 1894 4750 
Q 2613 4750 3031 4423 
Q 3450 4097 3450 3541 
Q 3450 3153 3228 2886 
Q 3006 2619 2597 2516 
z
" transform="scale(0.015625)"/>
      </defs>
      <use xlink:href="#DejaVuSans-Oblique-71"/>
      <use xlink:href="#DejaVuSans-33" transform="translate(63.476562 -16.40625)scale(0.7)"/>
     </g>
    </g>
   </g>
   <g id="text_6">
    <g clip-path="url(#p2ffa0173ed)">
     <!-- ${q}_{4}$ -->
     <g transform="translate(133.248064 302.079773)scale(0.1625 -0.1625)">
      <defs>
       <path id="DejaVuSans-34" d="M 2419 4116 
L 825 1625 
L 2419 1625 
L 2419 4116 
z
M 2253 4666 
L 3047 4666 
L 3047 1625 
L 3713 1625 
L 3713 1100 
L 3047 1100 
L 3047 0 
L 2419 0 
L 2419 1100 
L 313 1100 
L 313 1709 
L 2253 4666 
z
" transform="scale(0.015625)"/>
      </defs>
      <use xlink:href="#DejaVuSans-Oblique-71"/>
      <use xlink:href="#DejaVuSans-34" transform="translate(63.476562 -16.40625)scale(0.7)"/>
     </g>
    </g>
   </g>
   <g id="text_7">
    <g clip-path="url(#p2ffa0173ed)">
     <!-- ${q}_{5}$ -->
     <g transform="translate(133.248064 348.433772)scale(0.1625 -0.1625)">
      <defs>
       <path id="DejaVuSans-35" d="M 691 4666 
L 3169 4666 
L 3169 4134 
L 1269 4134 
L 1269 2991 
Q 1406 3038 1543 3061 
Q 1681 3084 1819 3084 
Q 2600 3084 3056 2656 
Q 3513 2228 3513 1497 
Q 3513 744 3044 326 
Q 2575 -91 1722 -91 
Q 1428 -91 1123 -41 
Q 819 9 494 109 
L 494 744 
Q 775 591 1075 516 
Q 1375 441 1709 441 
Q 2250 441 2565 725 
Q 2881 1009 2881 1497 
Q 2881 1984 2565 2268 
Q 2250 2553 1709 2553 
Q 1456 2553 1204 2497 
Q 953 2441 691 2322 
L 691 4666 
z
" transform="scale(0.015625)"/>
      </defs>
      <use xlink:href="#DejaVuSans-Oblique-71"/>
      <use xlink:href="#DejaVuSans-35" transform="translate(63.476562 -16.40625)scale(0.7)"/>
     </g>
    </g>
   </g>
   <g id="text_8">
    <g clip-path="url(#p2ffa0173ed)">
     <!-- ${q}_{6}$ -->
     <g transform="translate(133.248064 394.787771)scale(0.1625 -0.1625)">
      <defs>
       <path id="DejaVuSans-36" d="M 2113 2584 
Q 1688 2584 1439 2293 
Q 1191 2003 1191 1497 
Q 1191 994 1439 701 
Q 1688 409 2113 409 
Q 2538 409 2786 701 
Q 3034 994 3034 1497 
Q 3034 2003 2786 2293 
Q 2538 2584 2113 2584 
z
M 3366 4563 
L 3366 3988 
Q 3128 4100 2886 4159 
Q 2644 4219 2406 4219 
Q 1781 4219 1451 3797 
Q 1122 3375 1075 2522 
Q 1259 2794 1537 2939 
Q 1816 3084 2150 3084 
Q 2853 3084 3261 2657 
Q 3669 2231 3669 1497 
Q 3669 778 3244 343 
Q 2819 -91 2113 -91 
Q 1303 -91 875 529 
Q 447 1150 447 2328 
Q 447 3434 972 4092 
Q 1497 4750 2381 4750 
Q 2619 4750 2861 4703 
Q 3103 4656 3366 4563 
z
" transform="scale(0.015625)"/>
      </defs>
      <use xlink:href="#DejaVuSans-Oblique-71"/>
      <use xlink:href="#DejaVuSans-36" transform="translate(63.476562 -16.40625)scale(0.7)"/>
     </g>
    </g>
   </g>
   <g id="text_9">
    <g clip-path="url(#p2ffa0173ed)">
     <!-- ${q}_{7}$ -->
     <g transform="translate(133.248064 441.141771)scale(0.1625 -0.1625)">
      <defs>
       <path id="DejaVuSans-37" d="M 525 4666 
L 3525 4666 
L 3525 4397 
L 1831 0 
L 1172 0 
L 2766 4134 
L 525 4134 
L 525 4666 
z
" transform="scale(0.015625)"/>
      </defs>
      <use xlink:href="#DejaVuSans-Oblique-71"/>
      <use xlink:href="#DejaVuSans-37" transform="translate(63.476562 -16.40625)scale(0.7)"/>
     </g>
    </g>
   </g>
   <g id="text_10">
    <g clip-path="url(#p2ffa0173ed)">
     <!-- ${q}_{8}$ -->
     <g transform="translate(133.248064 487.49577)scale(0.1625 -0.1625)">
      <defs>
       <path id="DejaVuSans-38" d="M 2034 2216 
Q 1584 2216 1326 1975 
Q 1069 1734 1069 1313 
Q 1069 891 1326 650 
Q 1584 409 2034 409 
Q 2484 409 2743 651 
Q 3003 894 3003 1313 
Q 3003 1734 2745 1975 
Q 2488 2216 2034 2216 
z
M 1403 2484 
Q 997 2584 770 2862 
Q 544 3141 544 3541 
Q 544 4100 942 4425 
Q 1341 4750 2034 4750 
Q 2731 4750 3128 4425 
Q 3525 4100 3525 3541 
Q 3525 3141 3298 2862 
Q 3072 2584 2669 2484 
Q 3125 2378 3379 2068 
Q 3634 1759 3634 1313 
Q 3634 634 3220 271 
Q 2806 -91 2034 -91 
Q 1263 -91 848 271 
Q 434 634 434 1313 
Q 434 1759 690 2068 
Q 947 2378 1403 2484 
z
M 1172 3481 
Q 1172 3119 1398 2916 
Q 1625 2713 2034 2713 
Q 2441 2713 2670 2916 
Q 2900 3119 2900 3481 
Q 2900 3844 2670 4047 
Q 2441 4250 2034 4250 
Q 1625 4250 1398 4047 
Q 1172 3844 1172 3481 
z
" transform="scale(0.015625)"/>
      </defs>
      <use xlink:href="#DejaVuSans-Oblique-71"/>
      <use xlink:href="#DejaVuSans-38" transform="translate(63.476562 -16.40625)scale(0.7)"/>
     </g>
    </g>
   </g>
   <g id="text_11">
    <g clip-path="url(#p2ffa0173ed)">
     <!-- ${q}_{9}$ -->
     <g transform="translate(133.248064 533.84977)scale(0.1625 -0.1625)">
      <defs>
       <path id="DejaVuSans-39" d="M 703 97 
L 703 672 
Q 941 559 1184 500 
Q 1428 441 1663 441 
Q 2288 441 2617 861 
Q 2947 1281 2994 2138 
Q 2813 1869 2534 1725 
Q 2256 1581 1919 1581 
Q 1219 1581 811 2004 
Q 403 2428 403 3163 
Q 403 3881 828 4315 
Q 1253 4750 1959 4750 
Q 2769 4750 3195 4129 
Q 3622 3509 3622 2328 
Q 3622 1225 3098 567 
Q 2575 -91 1691 -91 
Q 1453 -91 1209 -44 
Q 966 3 703 97 
z
M 1959 2075 
Q 2384 2075 2632 2365 
Q 2881 2656 2881 3163 
Q 2881 3666 2632 3958 
Q 2384 4250 1959 4250 
Q 1534 4250 1286 3958 
Q 1038 3666 1038 3163 
Q 1038 2656 1286 2365 
Q 1534 2075 1959 2075 
z
" transform="scale(0.015625)"/>
      </defs>
      <use xlink:href="#DejaVuSans-Oblique-71"/>
      <use xlink:href="#DejaVuSans-39" transform="translate(63.476562 -16.40625)scale(0.7)"/>
     </g>
    </g>
   </g>
   <g id="text_12">
    <g clip-path="url(#p2ffa0173ed)">
     <!-- H -->
     <g transform="translate(180.69932 208.507985)scale(0.13 -0.13)">
      <use xlink:href="#DejaVuSans-48"/>
     </g>
    </g>
   </g>
   <g id="text_13">
    <g clip-path="url(#p2ffa0173ed)">
     <!-- H -->
     <g transform="translate(180.69932 347.569983)scale(0.13 -0.13)">
      <use xlink:href="#DejaVuSans-48"/>
     </g>
    </g>
   </g>
   <g id="line2d_19">
    <path d="M 231.941523 118.238818 
L 231.941523 106.186779 
" clip-path="url(#p2ffa0173ed)" style="fill: none; stroke: #ffffff; stroke-width: 2; stroke-linecap: square"/>
   </g>
   <g id="line2d_20">
    <path d="M 225.915503 112.212799 
L 237.967542 112.212799 
" clip-path="url(#p2ffa0173ed)" style="fill: none; stroke: #ffffff; stroke-width: 2; stroke-linecap: square"/>
   </g>
   <g id="line2d_21">
    <path d="M 278.295522 118.238818 
L 278.295522 106.186779 
" clip-path="url(#p2ffa0173ed)" style="fill: none; stroke: #ffffff; stroke-width: 2; stroke-linecap: square"/>
   </g>
   <g id="line2d_22">
    <path d="M 272.269502 112.212799 
L 284.321542 112.212799 
" clip-path="url(#p2ffa0173ed)" style="fill: none; stroke: #ffffff; stroke-width: 2; stroke-linecap: square"/>
   </g>
   <g id="text_14">
    <g clip-path="url(#p2ffa0173ed)">
     <!-- 0.0628 -->
     <g transform="translate(310.653271 123.459328)scale(0.08 -0.08)">
      <defs>
       <path id="DejaVuSans-2e" d="M 684 794 
L 1344 794 
L 1344 0 
L 684 0 
L 684 794 
z
" transform="scale(0.015625)"/>
      </defs>
      <use xlink:href="#DejaVuSans-30"/>
      <use xlink:href="#DejaVuSans-2e" x="63.623047"/>
      <use xlink:href="#DejaVuSans-30" x="95.410156"/>
      <use xlink:href="#DejaVuSans-36" x="159.033203"/>
      <use xlink:href="#DejaVuSans-32" x="222.65625"/>
      <use xlink:href="#DejaVuSans-38" x="286.279297"/>
     </g>
    </g>
   </g>
   <g id="text_15">
    <g clip-path="url(#p2ffa0173ed)">
     <!-- $\mathrm{R_Z}$ -->
     <g transform="translate(316.719521 111.280471)scale(0.13 -0.13)">
      <defs>
       <path id="DejaVuSans-5a" d="M 359 4666 
L 4025 4666 
L 4025 4184 
L 1075 531 
L 4097 531 
L 4097 0 
L 288 0 
L 288 481 
L 3238 4134 
L 359 4134 
L 359 4666 
z
" transform="scale(0.015625)"/>
      </defs>
      <use xlink:href="#DejaVuSans-52" transform="translate(0 0.09375)"/>
      <use xlink:href="#DejaVuSans-5a" transform="translate(70.439453 -16.3125)scale(0.7)"/>
     </g>
    </g>
   </g>
   <g id="line2d_23">
    <path d="M 371.003521 118.238818 
L 371.003521 106.186779 
" clip-path="url(#p2ffa0173ed)" style="fill: none; stroke: #ffffff; stroke-width: 2; stroke-linecap: square"/>
   </g>
   <g id="line2d_24">
    <path d="M 364.977501 112.212799 
L 377.029541 112.212799 
" clip-path="url(#p2ffa0173ed)" style="fill: none; stroke: #ffffff; stroke-width: 2; stroke-linecap: square"/>
   </g>
   <g id="line2d_25">
    <path d="M 417.35752 118.238818 
L 417.35752 106.186779 
" clip-path="url(#p2ffa0173ed)" style="fill: none; stroke: #ffffff; stroke-width: 2; stroke-linecap: square"/>
   </g>
   <g id="line2d_26">
    <path d="M 411.3315 112.212799 
L 423.38354 112.212799 
" clip-path="url(#p2ffa0173ed)" style="fill: none; stroke: #ffffff; stroke-width: 2; stroke-linecap: square"/>
   </g>
   <g id="line2d_27">
    <path d="M 463.711519 118.238818 
L 463.711519 106.186779 
" clip-path="url(#p2ffa0173ed)" style="fill: none; stroke: #ffffff; stroke-width: 2; stroke-linecap: square"/>
   </g>
   <g id="line2d_28">
    <path d="M 457.6855 112.212799 
L 469.737539 112.212799 
" clip-path="url(#p2ffa0173ed)" style="fill: none; stroke: #ffffff; stroke-width: 2; stroke-linecap: square"/>
   </g>
   <g id="line2d_29">
    <path d="M 510.065519 118.238818 
L 510.065519 106.186779 
" clip-path="url(#p2ffa0173ed)" style="fill: none; stroke: #ffffff; stroke-width: 2; stroke-linecap: square"/>
   </g>
   <g id="line2d_30">
    <path d="M 504.039499 112.212799 
L 516.091539 112.212799 
" clip-path="url(#p2ffa0173ed)" style="fill: none; stroke: #ffffff; stroke-width: 2; stroke-linecap: square"/>
   </g>
   <g id="text_16">
    <g clip-path="url(#p2ffa0173ed)">
     <!-- 0.0628 -->
     <g transform="translate(542.423268 123.459328)scale(0.08 -0.08)">
      <use xlink:href="#DejaVuSans-30"/>
      <use xlink:href="#DejaVuSans-2e" x="63.623047"/>
      <use xlink:href="#DejaVuSans-30" x="95.410156"/>
      <use xlink:href="#DejaVuSans-36" x="159.033203"/>
      <use xlink:href="#DejaVuSans-32" x="222.65625"/>
      <use xlink:href="#DejaVuSans-38" x="286.279297"/>
     </g>
    </g>
   </g>
   <g id="text_17">
    <g clip-path="url(#p2ffa0173ed)">
     <!-- $\mathrm{R_Z}$ -->
     <g transform="translate(548.489518 111.280471)scale(0.13 -0.13)">
      <use xlink:href="#DejaVuSans-52" transform="translate(0 0.09375)"/>
      <use xlink:href="#DejaVuSans-5a" transform="translate(70.439453 -16.3125)scale(0.7)"/>
     </g>
    </g>
   </g>
   <g id="line2d_31">
    <path d="M 602.773518 118.238818 
L 602.773518 106.186779 
" clip-path="url(#p2ffa0173ed)" style="fill: none; stroke: #ffffff; stroke-width: 2; stroke-linecap: square"/>
   </g>
   <g id="line2d_32">
    <path d="M 596.747498 112.212799 
L 608.799538 112.212799 
" clip-path="url(#p2ffa0173ed)" style="fill: none; stroke: #ffffff; stroke-width: 2; stroke-linecap: square"/>
   </g>
   <g id="text_18">
    <g clip-path="url(#p2ffa0173ed)">
     <!-- H -->
     <g transform="translate(644.239314 347.569983)scale(0.13 -0.13)">
      <use xlink:href="#DejaVuSans-48"/>
     </g>
    </g>
   </g>
   <g id="line2d_33">
    <path d="M 649.127517 118.238818 
L 649.127517 106.186779 
" clip-path="url(#p2ffa0173ed)" style="fill: none; stroke: #ffffff; stroke-width: 2; stroke-linecap: square"/>
   </g>
   <g id="line2d_34">
    <path d="M 643.101497 112.212799 
L 655.153537 112.212799 
" clip-path="url(#p2ffa0173ed)" style="fill: none; stroke: #ffffff; stroke-width: 2; stroke-linecap: square"/>
   </g>
   <g id="text_19">
    <g clip-path="url(#p2ffa0173ed)">
     <!-- H -->
     <g transform="translate(690.593313 208.507985)scale(0.13 -0.13)">
      <use xlink:href="#DejaVuSans-48"/>
     </g>
    </g>
   </g>
  </g>
 </g>
 <defs>
  <clipPath id="p2ffa0173ed">
   <rect x="103.147167" y="75.129599" width="622.927989" height="482.081594"/>
  </clipPath>
 </defs>
</svg>
