<?xml version="1.0" encoding="utf-8" standalone="no"?>
<!DOCTYPE svg PUBLIC "-//W3C//DTD SVG 1.1//EN"
  "http://www.w3.org/Graphics/SVG/1.1/DTD/svg11.dtd">
<svg xmlns:xlink="http://www.w3.org/1999/xlink" width="2313.997368pt" height="626.079992pt" viewBox="0 0 2313.997368 626.079992" xmlns="http://www.w3.org/2000/svg" version="1.1">
 <metadata>
  <rdf:RDF xmlns:dc="http://purl.org/dc/elements/1.1/" xmlns:cc="http://creativecommons.org/ns#" xmlns:rdf="http://www.w3.org/1999/02/22-rdf-syntax-ns#">
   <cc:Work>
    <dc:type rdf:resource="http://purl.org/dc/dcmitype/StillImage"/>
    <dc:date>2022-05-22T13:39:12.477993</dc:date>
    <dc:format>image/svg+xml</dc:format>
    <dc:creator>
     <cc:Agent>
      <dc:title>Matplotlib v3.5.1, https://matplotlib.org/</dc:title>
     </cc:Agent>
    </dc:creator>
   </cc:Work>
  </rdf:RDF>
 </metadata>
 <defs>
  <style type="text/css">*{stroke-linejoin: round; stroke-linecap: butt}</style>
 </defs>
 <g id="figure_1">
  <g id="patch_1">
   <path d="M 0 626.079992 
L 2313.997368 626.079992 
L 2313.997368 0 
L 0 0 
z
" style="fill: #ffffff"/>
  </g>
  <g id="axes_1">
   <g id="line2d_1">
    <path d="M 352.443861 112.212799 
L 2072.177238 112.212799 
" clip-path="url(#pd7ca48b695)" style="fill: none; stroke: #000000; stroke-width: 2; stroke-linecap: square"/>
   </g>
   <g id="line2d_2">
    <path d="M 352.443861 158.566798 
L 2072.177238 158.566798 
" clip-path="url(#pd7ca48b695)" style="fill: none; stroke: #000000; stroke-width: 2; stroke-linecap: square"/>
   </g>
   <g id="line2d_3">
    <path d="M 352.443861 204.920797 
L 2072.177238 204.920797 
" clip-path="url(#pd7ca48b695)" style="fill: none; stroke: #000000; stroke-width: 2; stroke-linecap: square"/>
   </g>
   <g id="line2d_4">
    <path d="M 352.443861 251.274797 
L 2072.177238 251.274797 
" clip-path="url(#pd7ca48b695)" style="fill: none; stroke: #000000; stroke-width: 2; stroke-linecap: square"/>
   </g>
   <g id="line2d_5">
    <path d="M 352.443861 297.628796 
L 2072.177238 297.628796 
" clip-path="url(#pd7ca48b695)" style="fill: none; stroke: #000000; stroke-width: 2; stroke-linecap: square"/>
   </g>
   <g id="line2d_6">
    <path d="M 352.443861 343.982795 
L 2072.177238 343.982795 
" clip-path="url(#pd7ca48b695)" style="fill: none; stroke: #000000; stroke-width: 2; stroke-linecap: square"/>
   </g>
   <g id="line2d_7">
    <path d="M 352.443861 390.336795 
L 2072.177238 390.336795 
" clip-path="url(#pd7ca48b695)" style="fill: none; stroke: #000000; stroke-width: 2; stroke-linecap: square"/>
   </g>
   <g id="line2d_8">
    <path d="M 352.443861 436.690794 
L 2072.177238 436.690794 
" clip-path="url(#pd7ca48b695)" style="fill: none; stroke: #000000; stroke-width: 2; stroke-linecap: square"/>
   </g>
   <g id="line2d_9">
    <path d="M 352.443861 483.044794 
L 2072.177238 483.044794 
" clip-path="url(#pd7ca48b695)" style="fill: none; stroke: #000000; stroke-width: 2; stroke-linecap: square"/>
   </g>
   <g id="line2d_10">
    <path d="M 352.443861 529.398793 
L 2072.177238 529.398793 
" clip-path="url(#pd7ca48b695)" style="fill: none; stroke: #000000; stroke-width: 2; stroke-linecap: square"/>
   </g>
   <g id="line2d_11">
    <path d="M 377.475021 204.920797 
L 377.475021 158.566798 
" clip-path="url(#pd7ca48b695)" style="fill: none; stroke: #000000; stroke-width: 2; stroke-linecap: square"/>
   </g>
   <g id="line2d_12">
    <path d="M 470.183019 483.044794 
L 470.183019 251.274797 
" clip-path="url(#pd7ca48b695)" style="fill: none; stroke: #000000; stroke-width: 2; stroke-linecap: square"/>
   </g>
   <g id="line2d_13">
    <path d="M 470.183019 204.920797 
L 470.183019 158.566798 
" clip-path="url(#pd7ca48b695)" style="fill: none; stroke: #000000; stroke-width: 2; stroke-linecap: square"/>
   </g>
   <g id="line2d_14">
    <path d="M 516.537019 483.044794 
L 516.537019 297.628796 
" clip-path="url(#pd7ca48b695)" style="fill: none; stroke: #000000; stroke-width: 2; stroke-linecap: square"/>
   </g>
   <g id="line2d_15">
    <path d="M 562.891018 483.044794 
L 562.891018 343.982795 
" clip-path="url(#pd7ca48b695)" style="fill: none; stroke: #000000; stroke-width: 2; stroke-linecap: square"/>
   </g>
   <g id="line2d_16">
    <path d="M 609.245018 483.044794 
L 609.245018 390.336795 
" clip-path="url(#pd7ca48b695)" style="fill: none; stroke: #000000; stroke-width: 2; stroke-linecap: square"/>
   </g>
   <g id="line2d_17">
    <path d="M 655.599017 483.044794 
L 655.599017 436.690794 
" clip-path="url(#pd7ca48b695)" style="fill: none; stroke: #000000; stroke-width: 2; stroke-linecap: square"/>
   </g>
   <g id="line2d_18">
    <path d="M 748.307016 483.044794 
L 748.307016 297.628796 
" clip-path="url(#pd7ca48b695)" style="fill: none; stroke: #000000; stroke-width: 2; stroke-linecap: square"/>
   </g>
   <g id="line2d_19">
    <path d="M 841.015014 483.044794 
L 841.015014 251.274797 
" clip-path="url(#pd7ca48b695)" style="fill: none; stroke: #000000; stroke-width: 2; stroke-linecap: square"/>
   </g>
   <g id="line2d_20">
    <path d="M 933.723013 529.398793 
L 933.723013 483.044794 
" clip-path="url(#pd7ca48b695)" style="fill: none; stroke: #000000; stroke-width: 2; stroke-linecap: square"/>
   </g>
   <g id="line2d_21">
    <path d="M 980.077013 529.398793 
L 980.077013 112.212799 
" clip-path="url(#pd7ca48b695)" style="fill: none; stroke: #000000; stroke-width: 2; stroke-linecap: square"/>
   </g>
   <g id="line2d_22">
    <path d="M 1072.785011 529.398793 
L 1072.785011 112.212799 
" clip-path="url(#pd7ca48b695)" style="fill: none; stroke: #000000; stroke-width: 2; stroke-linecap: square"/>
   </g>
   <g id="line2d_23">
    <path d="M 1119.139011 529.398793 
L 1119.139011 483.044794 
" clip-path="url(#pd7ca48b695)" style="fill: none; stroke: #000000; stroke-width: 2; stroke-linecap: square"/>
   </g>
   <g id="line2d_24">
    <path d="M 1119.139011 297.628796 
L 1119.139011 112.212799 
" clip-path="url(#pd7ca48b695)" style="fill: none; stroke: #000000; stroke-width: 2; stroke-linecap: square"/>
   </g>
   <g id="line2d_25">
    <path d="M 1165.49301 204.920797 
L 1165.49301 112.212799 
" clip-path="url(#pd7ca48b695)" style="fill: none; stroke: #000000; stroke-width: 2; stroke-linecap: square"/>
   </g>
   <g id="line2d_26">
    <path d="M 1211.847009 158.566798 
L 1211.847009 112.212799 
" clip-path="url(#pd7ca48b695)" style="fill: none; stroke: #000000; stroke-width: 2; stroke-linecap: square"/>
   </g>
   <g id="line2d_27">
    <path d="M 1304.555008 158.566798 
L 1304.555008 112.212799 
" clip-path="url(#pd7ca48b695)" style="fill: none; stroke: #000000; stroke-width: 2; stroke-linecap: square"/>
   </g>
   <g id="line2d_28">
    <path d="M 1350.909008 204.920797 
L 1350.909008 112.212799 
" clip-path="url(#pd7ca48b695)" style="fill: none; stroke: #000000; stroke-width: 2; stroke-linecap: square"/>
   </g>
   <g id="line2d_29">
    <path d="M 1397.263007 251.274797 
L 1397.263007 158.566798 
" clip-path="url(#pd7ca48b695)" style="fill: none; stroke: #000000; stroke-width: 2; stroke-linecap: square"/>
   </g>
   <g id="line2d_30">
    <path d="M 1443.617006 297.628796 
L 1443.617006 112.212799 
" clip-path="url(#pd7ca48b695)" style="fill: none; stroke: #000000; stroke-width: 2; stroke-linecap: square"/>
   </g>
   <g id="line2d_31">
    <path d="M 1536.325005 251.274797 
L 1536.325005 158.566798 
" clip-path="url(#pd7ca48b695)" style="fill: none; stroke: #000000; stroke-width: 2; stroke-linecap: square"/>
   </g>
   <g id="line2d_32">
    <path d="M 1629.033004 343.982795 
L 1629.033004 251.274797 
" clip-path="url(#pd7ca48b695)" style="fill: none; stroke: #000000; stroke-width: 2; stroke-linecap: square"/>
   </g>
   <g id="line2d_33">
    <path d="M 1675.387003 390.336795 
L 1675.387003 251.274797 
" clip-path="url(#pd7ca48b695)" style="fill: none; stroke: #000000; stroke-width: 2; stroke-linecap: square"/>
   </g>
   <g id="line2d_34">
    <path d="M 1721.741003 436.690794 
L 1721.741003 251.274797 
" clip-path="url(#pd7ca48b695)" style="fill: none; stroke: #000000; stroke-width: 2; stroke-linecap: square"/>
   </g>
   <g id="line2d_35">
    <path d="M 1768.095002 483.044794 
L 1768.095002 251.274797 
" clip-path="url(#pd7ca48b695)" style="fill: none; stroke: #000000; stroke-width: 2; stroke-linecap: square"/>
   </g>
   <g id="line2d_36">
    <path d="M 1860.803001 483.044794 
L 1860.803001 251.274797 
" clip-path="url(#pd7ca48b695)" style="fill: none; stroke: #000000; stroke-width: 2; stroke-linecap: square"/>
   </g>
   <g id="line2d_37">
    <path d="M 1907.157 436.690794 
L 1907.157 251.274797 
" clip-path="url(#pd7ca48b695)" style="fill: none; stroke: #000000; stroke-width: 2; stroke-linecap: square"/>
   </g>
   <g id="line2d_38">
    <path d="M 1953.511 390.336795 
L 1953.511 251.274797 
" clip-path="url(#pd7ca48b695)" style="fill: none; stroke: #000000; stroke-width: 2; stroke-linecap: square"/>
   </g>
   <g id="line2d_39">
    <path d="M 1999.864999 343.982795 
L 1999.864999 251.274797 
" clip-path="url(#pd7ca48b695)" style="fill: none; stroke: #000000; stroke-width: 2; stroke-linecap: square"/>
   </g>
   <g id="text_1">
    <!-- TERMS: 8, DEPTH:34 -->
    <g transform="translate(1123.891151 69.129599)scale(0.12 -0.12)">
     <defs>
      <path id="DejaVuSans-54" d="M -19 4666 
L 3928 4666 
L 3928 4134 
L 2272 4134 
L 2272 0 
L 1638 0 
L 1638 4134 
L -19 4134 
L -19 4666 
z
" transform="scale(0.015625)"/>
      <path id="DejaVuSans-45" d="M 628 4666 
L 3578 4666 
L 3578 4134 
L 1259 4134 
L 1259 2753 
L 3481 2753 
L 3481 2222 
L 1259 2222 
L 1259 531 
L 3634 531 
L 3634 0 
L 628 0 
L 628 4666 
z
" transform="scale(0.015625)"/>
      <path id="DejaVuSans-52" d="M 2841 2188 
Q 3044 2119 3236 1894 
Q 3428 1669 3622 1275 
L 4263 0 
L 3584 0 
L 2988 1197 
Q 2756 1666 2539 1819 
Q 2322 1972 1947 1972 
L 1259 1972 
L 1259 0 
L 628 0 
L 628 4666 
L 2053 4666 
Q 2853 4666 3247 4331 
Q 3641 3997 3641 3322 
Q 3641 2881 3436 2590 
Q 3231 2300 2841 2188 
z
M 1259 4147 
L 1259 2491 
L 2053 2491 
Q 2509 2491 2742 2702 
Q 2975 2913 2975 3322 
Q 2975 3731 2742 3939 
Q 2509 4147 2053 4147 
L 1259 4147 
z
" transform="scale(0.015625)"/>
      <path id="DejaVuSans-4d" d="M 628 4666 
L 1569 4666 
L 2759 1491 
L 3956 4666 
L 4897 4666 
L 4897 0 
L 4281 0 
L 4281 4097 
L 3078 897 
L 2444 897 
L 1241 4097 
L 1241 0 
L 628 0 
L 628 4666 
z
" transform="scale(0.015625)"/>
      <path id="DejaVuSans-53" d="M 3425 4513 
L 3425 3897 
Q 3066 4069 2747 4153 
Q 2428 4238 2131 4238 
Q 1616 4238 1336 4038 
Q 1056 3838 1056 3469 
Q 1056 3159 1242 3001 
Q 1428 2844 1947 2747 
L 2328 2669 
Q 3034 2534 3370 2195 
Q 3706 1856 3706 1288 
Q 3706 609 3251 259 
Q 2797 -91 1919 -91 
Q 1588 -91 1214 -16 
Q 841 59 441 206 
L 441 856 
Q 825 641 1194 531 
Q 1563 422 1919 422 
Q 2459 422 2753 634 
Q 3047 847 3047 1241 
Q 3047 1584 2836 1778 
Q 2625 1972 2144 2069 
L 1759 2144 
Q 1053 2284 737 2584 
Q 422 2884 422 3419 
Q 422 4038 858 4394 
Q 1294 4750 2059 4750 
Q 2388 4750 2728 4690 
Q 3069 4631 3425 4513 
z
" transform="scale(0.015625)"/>
      <path id="DejaVuSans-3a" d="M 750 794 
L 1409 794 
L 1409 0 
L 750 0 
L 750 794 
z
M 750 3309 
L 1409 3309 
L 1409 2516 
L 750 2516 
L 750 3309 
z
" transform="scale(0.015625)"/>
      <path id="DejaVuSans-20" transform="scale(0.015625)"/>
      <path id="DejaVuSans-38" d="M 2034 2216 
Q 1584 2216 1326 1975 
Q 1069 1734 1069 1313 
Q 1069 891 1326 650 
Q 1584 409 2034 409 
Q 2484 409 2743 651 
Q 3003 894 3003 1313 
Q 3003 1734 2745 1975 
Q 2488 2216 2034 2216 
z
M 1403 2484 
Q 997 2584 770 2862 
Q 544 3141 544 3541 
Q 544 4100 942 4425 
Q 1341 4750 2034 4750 
Q 2731 4750 3128 4425 
Q 3525 4100 3525 3541 
Q 3525 3141 3298 2862 
Q 3072 2584 2669 2484 
Q 3125 2378 3379 2068 
Q 3634 1759 3634 1313 
Q 3634 634 3220 271 
Q 2806 -91 2034 -91 
Q 1263 -91 848 271 
Q 434 634 434 1313 
Q 434 1759 690 2068 
Q 947 2378 1403 2484 
z
M 1172 3481 
Q 1172 3119 1398 2916 
Q 1625 2713 2034 2713 
Q 2441 2713 2670 2916 
Q 2900 3119 2900 3481 
Q 2900 3844 2670 4047 
Q 2441 4250 2034 4250 
Q 1625 4250 1398 4047 
Q 1172 3844 1172 3481 
z
" transform="scale(0.015625)"/>
      <path id="DejaVuSans-2c" d="M 750 794 
L 1409 794 
L 1409 256 
L 897 -744 
L 494 -744 
L 750 256 
L 750 794 
z
" transform="scale(0.015625)"/>
      <path id="DejaVuSans-44" d="M 1259 4147 
L 1259 519 
L 2022 519 
Q 2988 519 3436 956 
Q 3884 1394 3884 2338 
Q 3884 3275 3436 3711 
Q 2988 4147 2022 4147 
L 1259 4147 
z
M 628 4666 
L 1925 4666 
Q 3281 4666 3915 4102 
Q 4550 3538 4550 2338 
Q 4550 1131 3912 565 
Q 3275 0 1925 0 
L 628 0 
L 628 4666 
z
" transform="scale(0.015625)"/>
      <path id="DejaVuSans-50" d="M 1259 4147 
L 1259 2394 
L 2053 2394 
Q 2494 2394 2734 2622 
Q 2975 2850 2975 3272 
Q 2975 3691 2734 3919 
Q 2494 4147 2053 4147 
L 1259 4147 
z
M 628 4666 
L 2053 4666 
Q 2838 4666 3239 4311 
Q 3641 3956 3641 3272 
Q 3641 2581 3239 2228 
Q 2838 1875 2053 1875 
L 1259 1875 
L 1259 0 
L 628 0 
L 628 4666 
z
" transform="scale(0.015625)"/>
      <path id="DejaVuSans-48" d="M 628 4666 
L 1259 4666 
L 1259 2753 
L 3553 2753 
L 3553 4666 
L 4184 4666 
L 4184 0 
L 3553 0 
L 3553 2222 
L 1259 2222 
L 1259 0 
L 628 0 
L 628 4666 
z
" transform="scale(0.015625)"/>
      <path id="DejaVuSans-33" d="M 2597 2516 
Q 3050 2419 3304 2112 
Q 3559 1806 3559 1356 
Q 3559 666 3084 287 
Q 2609 -91 1734 -91 
Q 1441 -91 1130 -33 
Q 819 25 488 141 
L 488 750 
Q 750 597 1062 519 
Q 1375 441 1716 441 
Q 2309 441 2620 675 
Q 2931 909 2931 1356 
Q 2931 1769 2642 2001 
Q 2353 2234 1838 2234 
L 1294 2234 
L 1294 2753 
L 1863 2753 
Q 2328 2753 2575 2939 
Q 2822 3125 2822 3475 
Q 2822 3834 2567 4026 
Q 2313 4219 1838 4219 
Q 1578 4219 1281 4162 
Q 984 4106 628 3988 
L 628 4550 
Q 988 4650 1302 4700 
Q 1616 4750 1894 4750 
Q 2613 4750 3031 4423 
Q 3450 4097 3450 3541 
Q 3450 3153 3228 2886 
Q 3006 2619 2597 2516 
z
" transform="scale(0.015625)"/>
      <path id="DejaVuSans-34" d="M 2419 4116 
L 825 1625 
L 2419 1625 
L 2419 4116 
z
M 2253 4666 
L 3047 4666 
L 3047 1625 
L 3713 1625 
L 3713 1100 
L 3047 1100 
L 3047 0 
L 2419 0 
L 2419 1100 
L 313 1100 
L 313 1709 
L 2253 4666 
z
" transform="scale(0.015625)"/>
     </defs>
     <use xlink:href="#DejaVuSans-54"/>
     <use xlink:href="#DejaVuSans-45" x="61.083984"/>
     <use xlink:href="#DejaVuSans-52" x="124.267578"/>
     <use xlink:href="#DejaVuSans-4d" x="193.75"/>
     <use xlink:href="#DejaVuSans-53" x="280.029297"/>
     <use xlink:href="#DejaVuSans-3a" x="343.505859"/>
     <use xlink:href="#DejaVuSans-20" x="377.197266"/>
     <use xlink:href="#DejaVuSans-38" x="408.984375"/>
     <use xlink:href="#DejaVuSans-2c" x="472.607422"/>
     <use xlink:href="#DejaVuSans-20" x="504.394531"/>
     <use xlink:href="#DejaVuSans-44" x="536.181641"/>
     <use xlink:href="#DejaVuSans-45" x="613.183594"/>
     <use xlink:href="#DejaVuSans-50" x="676.367188"/>
     <use xlink:href="#DejaVuSans-54" x="736.669922"/>
     <use xlink:href="#DejaVuSans-48" x="797.753906"/>
     <use xlink:href="#DejaVuSans-3a" x="872.949219"/>
     <use xlink:href="#DejaVuSans-33" x="906.640625"/>
     <use xlink:href="#DejaVuSans-34" x="970.263672"/>
    </g>
   </g>
   <g id="patch_2">
    <path d="M 362.409971 266.339846 
L 392.54007 266.339846 
L 392.54007 236.209747 
L 362.409971 236.209747 
z
" clip-path="url(#pd7ca48b695)" style="fill: #ffffff; stroke: #000000; stroke-width: 1.5; stroke-linejoin: miter"/>
   </g>
   <g id="patch_3">
    <path d="M 362.409971 312.693846 
L 392.54007 312.693846 
L 392.54007 282.563746 
L 362.409971 282.563746 
z
" clip-path="url(#pd7ca48b695)" style="fill: #ffffff; stroke: #000000; stroke-width: 1.5; stroke-linejoin: miter"/>
   </g>
   <g id="patch_4">
    <path d="M 362.409971 359.047845 
L 392.54007 359.047845 
L 392.54007 328.917746 
L 362.409971 328.917746 
z
" clip-path="url(#pd7ca48b695)" style="fill: #ffffff; stroke: #000000; stroke-width: 1.5; stroke-linejoin: miter"/>
   </g>
   <g id="patch_5">
    <path d="M 377.475021 209.440312 
C 378.67361 209.440312 379.82327 208.964108 380.6708 208.116577 
C 381.518331 207.269046 381.994536 206.119387 381.994536 204.920797 
C 381.994536 203.722208 381.518331 202.572548 380.6708 201.725018 
C 379.82327 200.877487 378.67361 200.401282 377.475021 200.401282 
C 376.276431 200.401282 375.126772 200.877487 374.279241 201.725018 
C 373.43171 202.572548 372.955506 203.722208 372.955506 204.920797 
C 372.955506 206.119387 373.43171 207.269046 374.279241 208.116577 
C 375.126772 208.964108 376.276431 209.440312 377.475021 209.440312 
z
" clip-path="url(#pd7ca48b695)" style="stroke: #000000; stroke-width: 1.5; stroke-linejoin: miter"/>
   </g>
   <g id="patch_6">
    <path d="M 377.475021 169.112333 
C 380.271729 169.112333 382.954268 168.001189 384.93184 166.023617 
C 386.909411 164.046046 388.020555 161.363506 388.020555 158.566798 
C 388.020555 155.770089 386.909411 153.08755 384.93184 151.109979 
C 382.954268 149.132407 380.271729 148.021263 377.475021 148.021263 
C 374.678312 148.021263 371.995773 149.132407 370.018201 151.109979 
C 368.04063 153.08755 366.929486 155.770089 366.929486 158.566798 
C 366.929486 161.363506 368.04063 164.046046 370.018201 166.023617 
C 371.995773 168.001189 374.678312 169.112333 377.475021 169.112333 
z
" clip-path="url(#pd7ca48b695)" style="stroke: #000000; stroke-width: 2; stroke-linejoin: miter"/>
   </g>
   <g id="patch_7">
    <path d="M 408.76397 266.339846 
L 438.89407 266.339846 
L 438.89407 236.209747 
L 408.76397 236.209747 
z
" clip-path="url(#pd7ca48b695)" style="fill: #ffffff; stroke: #000000; stroke-width: 1.5; stroke-linejoin: miter"/>
   </g>
   <g id="patch_8">
    <path d="M 408.76397 312.693846 
L 438.89407 312.693846 
L 438.89407 282.563746 
L 408.76397 282.563746 
z
" clip-path="url(#pd7ca48b695)" style="fill: #ffffff; stroke: #000000; stroke-width: 1.5; stroke-linejoin: miter"/>
   </g>
   <g id="patch_9">
    <path d="M 408.76397 173.631848 
L 438.89407 173.631848 
L 438.89407 143.501748 
L 408.76397 143.501748 
z
" clip-path="url(#pd7ca48b695)" style="fill: #ffffff; stroke: #000000; stroke-width: 1.5; stroke-linejoin: miter"/>
   </g>
   <g id="patch_10">
    <path d="M 470.183019 255.794312 
C 471.381609 255.794312 472.531268 255.318107 473.378799 254.470576 
C 474.22633 253.623046 474.702534 252.473386 474.702534 251.274797 
C 474.702534 250.076207 474.22633 248.926548 473.378799 248.079017 
C 472.531268 247.231486 471.381609 246.755282 470.183019 246.755282 
C 468.98443 246.755282 467.83477 247.231486 466.98724 248.079017 
C 466.139709 248.926548 465.663504 250.076207 465.663504 251.274797 
C 465.663504 252.473386 466.139709 253.623046 466.98724 254.470576 
C 467.83477 255.318107 468.98443 255.794312 470.183019 255.794312 
z
" clip-path="url(#pd7ca48b695)" style="stroke: #000000; stroke-width: 1.5; stroke-linejoin: miter"/>
   </g>
   <g id="patch_11">
    <path d="M 470.183019 493.590328 
C 472.979728 493.590328 475.662267 492.479184 477.639839 490.501613 
C 479.61741 488.524041 480.728554 485.841502 480.728554 483.044794 
C 480.728554 480.248085 479.61741 477.565546 477.639839 475.587974 
C 475.662267 473.610403 472.979728 472.499259 470.183019 472.499259 
C 467.386311 472.499259 464.703772 473.610403 462.7262 475.587974 
C 460.748629 477.565546 459.637484 480.248085 459.637484 483.044794 
C 459.637484 485.841502 460.748629 488.524041 462.7262 490.501613 
C 464.703772 492.479184 467.386311 493.590328 470.183019 493.590328 
z
" clip-path="url(#pd7ca48b695)" style="stroke: #000000; stroke-width: 2; stroke-linejoin: miter"/>
   </g>
   <g id="patch_12">
    <path d="M 470.183019 209.440312 
C 471.381609 209.440312 472.531268 208.964108 473.378799 208.116577 
C 474.22633 207.269046 474.702534 206.119387 474.702534 204.920797 
C 474.702534 203.722208 474.22633 202.572548 473.378799 201.725018 
C 472.531268 200.877487 471.381609 200.401282 470.183019 200.401282 
C 468.98443 200.401282 467.83477 200.877487 466.98724 201.725018 
C 466.139709 202.572548 465.663504 203.722208 465.663504 204.920797 
C 465.663504 206.119387 466.139709 207.269046 466.98724 208.116577 
C 467.83477 208.964108 468.98443 209.440312 470.183019 209.440312 
z
" clip-path="url(#pd7ca48b695)" style="stroke: #000000; stroke-width: 1.5; stroke-linejoin: miter"/>
   </g>
   <g id="patch_13">
    <path d="M 470.183019 169.112333 
C 472.979728 169.112333 475.662267 168.001189 477.639839 166.023617 
C 479.61741 164.046046 480.728554 161.363506 480.728554 158.566798 
C 480.728554 155.770089 479.61741 153.08755 477.639839 151.109979 
C 475.662267 149.132407 472.979728 148.021263 470.183019 148.021263 
C 467.386311 148.021263 464.703772 149.132407 462.7262 151.109979 
C 460.748629 153.08755 459.637484 155.770089 459.637484 158.566798 
C 459.637484 161.363506 460.748629 164.046046 462.7262 166.023617 
C 464.703772 168.001189 467.386311 169.112333 470.183019 169.112333 
z
" clip-path="url(#pd7ca48b695)" style="stroke: #000000; stroke-width: 2; stroke-linejoin: miter"/>
   </g>
   <g id="patch_14">
    <path d="M 516.537019 302.148311 
C 517.735608 302.148311 518.885268 301.672106 519.732798 300.824576 
C 520.580329 299.977045 521.056534 298.827385 521.056534 297.628796 
C 521.056534 296.430207 520.580329 295.280547 519.732798 294.433016 
C 518.885268 293.585486 517.735608 293.109281 516.537019 293.109281 
C 515.338429 293.109281 514.18877 293.585486 513.341239 294.433016 
C 512.493708 295.280547 512.017504 296.430207 512.017504 297.628796 
C 512.017504 298.827385 512.493708 299.977045 513.341239 300.824576 
C 514.18877 301.672106 515.338429 302.148311 516.537019 302.148311 
z
" clip-path="url(#pd7ca48b695)" style="stroke: #000000; stroke-width: 1.5; stroke-linejoin: miter"/>
   </g>
   <g id="patch_15">
    <path d="M 516.537019 493.590328 
C 519.333727 493.590328 522.016266 492.479184 523.993838 490.501613 
C 525.97141 488.524041 527.082554 485.841502 527.082554 483.044794 
C 527.082554 480.248085 525.97141 477.565546 523.993838 475.587974 
C 522.016266 473.610403 519.333727 472.499259 516.537019 472.499259 
C 513.74031 472.499259 511.057771 473.610403 509.0802 475.587974 
C 507.102628 477.565546 505.991484 480.248085 505.991484 483.044794 
C 505.991484 485.841502 507.102628 488.524041 509.0802 490.501613 
C 511.057771 492.479184 513.74031 493.590328 516.537019 493.590328 
z
" clip-path="url(#pd7ca48b695)" style="stroke: #000000; stroke-width: 2; stroke-linejoin: miter"/>
   </g>
   <g id="patch_16">
    <path d="M 562.891018 348.50231 
C 564.089607 348.50231 565.239267 348.026106 566.086798 347.178575 
C 566.934328 346.331044 567.410533 345.181385 567.410533 343.982795 
C 567.410533 342.784206 566.934328 341.634546 566.086798 340.787016 
C 565.239267 339.939485 564.089607 339.46328 562.891018 339.46328 
C 561.692429 339.46328 560.542769 339.939485 559.695238 340.787016 
C 558.847708 341.634546 558.371503 342.784206 558.371503 343.982795 
C 558.371503 345.181385 558.847708 346.331044 559.695238 347.178575 
C 560.542769 348.026106 561.692429 348.50231 562.891018 348.50231 
z
" clip-path="url(#pd7ca48b695)" style="stroke: #000000; stroke-width: 1.5; stroke-linejoin: miter"/>
   </g>
   <g id="patch_17">
    <path d="M 562.891018 493.590328 
C 565.687727 493.590328 568.370266 492.479184 570.347837 490.501613 
C 572.325409 488.524041 573.436553 485.841502 573.436553 483.044794 
C 573.436553 480.248085 572.325409 477.565546 570.347837 475.587974 
C 568.370266 473.610403 565.687727 472.499259 562.891018 472.499259 
C 560.09431 472.499259 557.41177 473.610403 555.434199 475.587974 
C 553.456627 477.565546 552.345483 480.248085 552.345483 483.044794 
C 552.345483 485.841502 553.456627 488.524041 555.434199 490.501613 
C 557.41177 492.479184 560.09431 493.590328 562.891018 493.590328 
z
" clip-path="url(#pd7ca48b695)" style="stroke: #000000; stroke-width: 2; stroke-linejoin: miter"/>
   </g>
   <g id="patch_18">
    <path d="M 609.245018 394.85631 
C 610.443607 394.85631 611.593266 394.380105 612.440797 393.532574 
C 613.288328 392.685044 613.764532 391.535384 613.764532 390.336795 
C 613.764532 389.138205 613.288328 387.988546 612.440797 387.141015 
C 611.593266 386.293484 610.443607 385.81728 609.245018 385.81728 
C 608.046428 385.81728 606.896769 386.293484 606.049238 387.141015 
C 605.201707 387.988546 604.725503 389.138205 604.725503 390.336795 
C 604.725503 391.535384 605.201707 392.685044 606.049238 393.532574 
C 606.896769 394.380105 608.046428 394.85631 609.245018 394.85631 
z
" clip-path="url(#pd7ca48b695)" style="stroke: #000000; stroke-width: 1.5; stroke-linejoin: miter"/>
   </g>
   <g id="patch_19">
    <path d="M 609.245018 493.590328 
C 612.041726 493.590328 614.724265 492.479184 616.701837 490.501613 
C 618.679408 488.524041 619.790552 485.841502 619.790552 483.044794 
C 619.790552 480.248085 618.679408 477.565546 616.701837 475.587974 
C 614.724265 473.610403 612.041726 472.499259 609.245018 472.499259 
C 606.448309 472.499259 603.76577 473.610403 601.788198 475.587974 
C 599.810627 477.565546 598.699483 480.248085 598.699483 483.044794 
C 598.699483 485.841502 599.810627 488.524041 601.788198 490.501613 
C 603.76577 492.479184 606.448309 493.590328 609.245018 493.590328 
z
" clip-path="url(#pd7ca48b695)" style="stroke: #000000; stroke-width: 2; stroke-linejoin: miter"/>
   </g>
   <g id="patch_20">
    <path d="M 594.179968 359.047845 
L 624.310067 359.047845 
L 624.310067 328.917746 
L 594.179968 328.917746 
z
" clip-path="url(#pd7ca48b695)" style="fill: #ffffff; stroke: #000000; stroke-width: 1.5; stroke-linejoin: miter"/>
   </g>
   <g id="patch_21">
    <path d="M 655.599017 441.210309 
C 656.797606 441.210309 657.947266 440.734105 658.794797 439.886574 
C 659.642327 439.039043 660.118532 437.889384 660.118532 436.690794 
C 660.118532 435.492205 659.642327 434.342545 658.794797 433.495015 
C 657.947266 432.647484 656.797606 432.171279 655.599017 432.171279 
C 654.400428 432.171279 653.250768 432.647484 652.403237 433.495015 
C 651.555707 434.342545 651.079502 435.492205 651.079502 436.690794 
C 651.079502 437.889384 651.555707 439.039043 652.403237 439.886574 
C 653.250768 440.734105 654.400428 441.210309 655.599017 441.210309 
z
" clip-path="url(#pd7ca48b695)" style="stroke: #000000; stroke-width: 1.5; stroke-linejoin: miter"/>
   </g>
   <g id="patch_22">
    <path d="M 655.599017 493.590328 
C 658.395725 493.590328 661.078265 492.479184 663.055836 490.501613 
C 665.033408 488.524041 666.144552 485.841502 666.144552 483.044794 
C 666.144552 480.248085 665.033408 477.565546 663.055836 475.587974 
C 661.078265 473.610403 658.395725 472.499259 655.599017 472.499259 
C 652.802308 472.499259 650.119769 473.610403 648.142198 475.587974 
C 646.164626 477.565546 645.053482 480.248085 645.053482 483.044794 
C 645.053482 485.841502 646.164626 488.524041 648.142198 490.501613 
C 650.119769 492.479184 652.802308 493.590328 655.599017 493.590328 
z
" clip-path="url(#pd7ca48b695)" style="stroke: #000000; stroke-width: 2; stroke-linejoin: miter"/>
   </g>
   <g id="patch_23">
    <path d="M 684.178575 498.109843 
L 719.727457 498.109843 
L 719.727457 467.979744 
L 684.178575 467.979744 
z
" clip-path="url(#pd7ca48b695)" style="fill: #ffffff; stroke: #000000; stroke-width: 1.5; stroke-linejoin: miter"/>
   </g>
   <g id="patch_24">
    <path d="M 748.307016 302.148311 
C 749.505605 302.148311 750.655265 301.672106 751.502795 300.824576 
C 752.350326 299.977045 752.826531 298.827385 752.826531 297.628796 
C 752.826531 296.430207 752.350326 295.280547 751.502795 294.433016 
C 750.655265 293.585486 749.505605 293.109281 748.307016 293.109281 
C 747.108426 293.109281 745.958767 293.585486 745.111236 294.433016 
C 744.263705 295.280547 743.787501 296.430207 743.787501 297.628796 
C 743.787501 298.827385 744.263705 299.977045 745.111236 300.824576 
C 745.958767 301.672106 747.108426 302.148311 748.307016 302.148311 
z
" clip-path="url(#pd7ca48b695)" style="stroke: #000000; stroke-width: 1.5; stroke-linejoin: miter"/>
   </g>
   <g id="patch_25">
    <path d="M 748.307016 493.590328 
C 751.103724 493.590328 753.786263 492.479184 755.763835 490.501613 
C 757.741406 488.524041 758.852551 485.841502 758.852551 483.044794 
C 758.852551 480.248085 757.741406 477.565546 755.763835 475.587974 
C 753.786263 473.610403 751.103724 472.499259 748.307016 472.499259 
C 745.510307 472.499259 742.827768 473.610403 740.850196 475.587974 
C 738.872625 477.565546 737.761481 480.248085 737.761481 483.044794 
C 737.761481 485.841502 738.872625 488.524041 740.850196 490.501613 
C 742.827768 492.479184 745.510307 493.590328 748.307016 493.590328 
z
" clip-path="url(#pd7ca48b695)" style="stroke: #000000; stroke-width: 2; stroke-linejoin: miter"/>
   </g>
   <g id="patch_26">
    <path d="M 779.595965 312.693846 
L 809.726065 312.693846 
L 809.726065 282.563746 
L 779.595965 282.563746 
z
" clip-path="url(#pd7ca48b695)" style="fill: #ffffff; stroke: #000000; stroke-width: 1.5; stroke-linejoin: miter"/>
   </g>
   <g id="patch_27">
    <path d="M 841.015014 255.794312 
C 842.213604 255.794312 843.363263 255.318107 844.210794 254.470576 
C 845.058325 253.623046 845.534529 252.473386 845.534529 251.274797 
C 845.534529 250.076207 845.058325 248.926548 844.210794 248.079017 
C 843.363263 247.231486 842.213604 246.755282 841.015014 246.755282 
C 839.816425 246.755282 838.666765 247.231486 837.819235 248.079017 
C 836.971704 248.926548 836.495499 250.076207 836.495499 251.274797 
C 836.495499 252.473386 836.971704 253.623046 837.819235 254.470576 
C 838.666765 255.318107 839.816425 255.794312 841.015014 255.794312 
z
" clip-path="url(#pd7ca48b695)" style="stroke: #000000; stroke-width: 1.5; stroke-linejoin: miter"/>
   </g>
   <g id="patch_28">
    <path d="M 841.015014 493.590328 
C 843.811723 493.590328 846.494262 492.479184 848.471834 490.501613 
C 850.449405 488.524041 851.560549 485.841502 851.560549 483.044794 
C 851.560549 480.248085 850.449405 477.565546 848.471834 475.587974 
C 846.494262 473.610403 843.811723 472.499259 841.015014 472.499259 
C 838.218306 472.499259 835.535767 473.610403 833.558195 475.587974 
C 831.580624 477.565546 830.46948 480.248085 830.46948 483.044794 
C 830.46948 485.841502 831.580624 488.524041 833.558195 490.501613 
C 835.535767 492.479184 838.218306 493.590328 841.015014 493.590328 
z
" clip-path="url(#pd7ca48b695)" style="stroke: #000000; stroke-width: 2; stroke-linejoin: miter"/>
   </g>
   <g id="patch_29">
    <path d="M 872.303964 312.693846 
L 902.434064 312.693846 
L 902.434064 282.563746 
L 872.303964 282.563746 
z
" clip-path="url(#pd7ca48b695)" style="fill: #ffffff; stroke: #000000; stroke-width: 1.5; stroke-linejoin: miter"/>
   </g>
   <g id="patch_30">
    <path d="M 872.303964 266.339846 
L 902.434064 266.339846 
L 902.434064 236.209747 
L 872.303964 236.209747 
z
" clip-path="url(#pd7ca48b695)" style="fill: #ffffff; stroke: #000000; stroke-width: 1.5; stroke-linejoin: miter"/>
   </g>
   <g id="patch_31">
    <path d="M 872.303964 498.109843 
L 902.434064 498.109843 
L 902.434064 467.979744 
L 872.303964 467.979744 
z
" clip-path="url(#pd7ca48b695)" style="fill: #ffffff; stroke: #000000; stroke-width: 1.5; stroke-linejoin: miter"/>
   </g>
   <g id="patch_32">
    <path d="M 918.657963 266.339846 
L 948.788063 266.339846 
L 948.788063 236.209747 
L 918.657963 236.209747 
z
" clip-path="url(#pd7ca48b695)" style="fill: #ffffff; stroke: #000000; stroke-width: 1.5; stroke-linejoin: miter"/>
   </g>
   <g id="patch_33">
    <path d="M 933.723013 487.564309 
C 934.921603 487.564309 936.071262 487.088104 936.918793 486.240573 
C 937.766324 485.393043 938.242528 484.243383 938.242528 483.044794 
C 938.242528 481.846204 937.766324 480.696545 936.918793 479.849014 
C 936.071262 479.001483 934.921603 478.525279 933.723013 478.525279 
C 932.524424 478.525279 931.374764 479.001483 930.527234 479.849014 
C 929.679703 480.696545 929.203498 481.846204 929.203498 483.044794 
C 929.203498 484.243383 929.679703 485.393043 930.527234 486.240573 
C 931.374764 487.088104 932.524424 487.564309 933.723013 487.564309 
z
" clip-path="url(#pd7ca48b695)" style="stroke: #000000; stroke-width: 1.5; stroke-linejoin: miter"/>
   </g>
   <g id="patch_34">
    <path d="M 933.723013 539.944328 
C 936.519722 539.944328 939.202261 538.833184 941.179832 536.855612 
C 943.157404 534.878041 944.268548 532.195502 944.268548 529.398793 
C 944.268548 526.602084 943.157404 523.919545 941.179832 521.941974 
C 939.202261 519.964402 936.519722 518.853258 933.723013 518.853258 
C 930.926305 518.853258 928.243766 519.964402 926.266194 521.941974 
C 924.288622 523.919545 923.177478 526.602084 923.177478 529.398793 
C 923.177478 532.195502 924.288622 534.878041 926.266194 536.855612 
C 928.243766 538.833184 930.926305 539.944328 933.723013 539.944328 
z
" clip-path="url(#pd7ca48b695)" style="stroke: #000000; stroke-width: 2; stroke-linejoin: miter"/>
   </g>
   <g id="patch_35">
    <path d="M 918.657963 312.693846 
L 948.788063 312.693846 
L 948.788063 282.563746 
L 918.657963 282.563746 
z
" clip-path="url(#pd7ca48b695)" style="fill: #ffffff; stroke: #000000; stroke-width: 1.5; stroke-linejoin: miter"/>
   </g>
   <g id="patch_36">
    <path d="M 980.077013 116.732313 
C 981.275602 116.732313 982.425262 116.256109 983.272792 115.408578 
C 984.120323 114.561047 984.596528 113.411388 984.596528 112.212799 
C 984.596528 111.014209 984.120323 109.86455 983.272792 109.017019 
C 982.425262 108.169488 981.275602 107.693284 980.077013 107.693284 
C 978.878423 107.693284 977.728764 108.169488 976.881233 109.017019 
C 976.033702 109.86455 975.557498 111.014209 975.557498 112.212799 
C 975.557498 113.411388 976.033702 114.561047 976.881233 115.408578 
C 977.728764 116.256109 978.878423 116.732313 980.077013 116.732313 
z
" clip-path="url(#pd7ca48b695)" style="stroke: #000000; stroke-width: 1.5; stroke-linejoin: miter"/>
   </g>
   <g id="patch_37">
    <path d="M 980.077013 539.944328 
C 982.873721 539.944328 985.55626 538.833184 987.533832 536.855612 
C 989.511403 534.878041 990.622547 532.195502 990.622547 529.398793 
C 990.622547 526.602084 989.511403 523.919545 987.533832 521.941974 
C 985.55626 519.964402 982.873721 518.853258 980.077013 518.853258 
C 977.280304 518.853258 974.597765 519.964402 972.620193 521.941974 
C 970.642622 523.919545 969.531478 526.602084 969.531478 529.398793 
C 969.531478 532.195502 970.642622 534.878041 972.620193 536.855612 
C 974.597765 538.833184 977.280304 539.944328 980.077013 539.944328 
z
" clip-path="url(#pd7ca48b695)" style="stroke: #000000; stroke-width: 2; stroke-linejoin: miter"/>
   </g>
   <g id="patch_38">
    <path d="M 1011.365962 544.463843 
L 1041.496062 544.463843 
L 1041.496062 514.333743 
L 1011.365962 514.333743 
z
" clip-path="url(#pd7ca48b695)" style="fill: #ffffff; stroke: #000000; stroke-width: 1.5; stroke-linejoin: miter"/>
   </g>
   <g id="patch_39">
    <path d="M 1072.785011 116.732313 
C 1073.983601 116.732313 1075.13326 116.256109 1075.980791 115.408578 
C 1076.828322 114.561047 1077.304526 113.411388 1077.304526 112.212799 
C 1077.304526 111.014209 1076.828322 109.86455 1075.980791 109.017019 
C 1075.13326 108.169488 1073.983601 107.693284 1072.785011 107.693284 
C 1071.586422 107.693284 1070.436762 108.169488 1069.589232 109.017019 
C 1068.741701 109.86455 1068.265496 111.014209 1068.265496 112.212799 
C 1068.265496 113.411388 1068.741701 114.561047 1069.589232 115.408578 
C 1070.436762 116.256109 1071.586422 116.732313 1072.785011 116.732313 
z
" clip-path="url(#pd7ca48b695)" style="stroke: #000000; stroke-width: 1.5; stroke-linejoin: miter"/>
   </g>
   <g id="patch_40">
    <path d="M 1072.785011 539.944328 
C 1075.58172 539.944328 1078.264259 538.833184 1080.241831 536.855612 
C 1082.219402 534.878041 1083.330546 532.195502 1083.330546 529.398793 
C 1083.330546 526.602084 1082.219402 523.919545 1080.241831 521.941974 
C 1078.264259 519.964402 1075.58172 518.853258 1072.785011 518.853258 
C 1069.988303 518.853258 1067.305764 519.964402 1065.328192 521.941974 
C 1063.350621 523.919545 1062.239476 526.602084 1062.239476 529.398793 
C 1062.239476 532.195502 1063.350621 534.878041 1065.328192 536.855612 
C 1067.305764 538.833184 1069.988303 539.944328 1072.785011 539.944328 
z
" clip-path="url(#pd7ca48b695)" style="stroke: #000000; stroke-width: 2; stroke-linejoin: miter"/>
   </g>
   <g id="patch_41">
    <path d="M 1119.139011 487.564309 
C 1120.3376 487.564309 1121.48726 487.088104 1122.33479 486.240573 
C 1123.182321 485.393043 1123.658526 484.243383 1123.658526 483.044794 
C 1123.658526 481.846204 1123.182321 480.696545 1122.33479 479.849014 
C 1121.48726 479.001483 1120.3376 478.525279 1119.139011 478.525279 
C 1117.940421 478.525279 1116.790762 479.001483 1115.943231 479.849014 
C 1115.0957 480.696545 1114.619496 481.846204 1114.619496 483.044794 
C 1114.619496 484.243383 1115.0957 485.393043 1115.943231 486.240573 
C 1116.790762 487.088104 1117.940421 487.564309 1119.139011 487.564309 
z
" clip-path="url(#pd7ca48b695)" style="stroke: #000000; stroke-width: 1.5; stroke-linejoin: miter"/>
   </g>
   <g id="patch_42">
    <path d="M 1119.139011 539.944328 
C 1121.935719 539.944328 1124.618258 538.833184 1126.59583 536.855612 
C 1128.573402 534.878041 1129.684546 532.195502 1129.684546 529.398793 
C 1129.684546 526.602084 1128.573402 523.919545 1126.59583 521.941974 
C 1124.618258 519.964402 1121.935719 518.853258 1119.139011 518.853258 
C 1116.342302 518.853258 1113.659763 519.964402 1111.682192 521.941974 
C 1109.70462 523.919545 1108.593476 526.602084 1108.593476 529.398793 
C 1108.593476 532.195502 1109.70462 534.878041 1111.682192 536.855612 
C 1113.659763 538.833184 1116.342302 539.944328 1119.139011 539.944328 
z
" clip-path="url(#pd7ca48b695)" style="stroke: #000000; stroke-width: 2; stroke-linejoin: miter"/>
   </g>
   <g id="patch_43">
    <path d="M 1119.139011 302.148311 
C 1120.3376 302.148311 1121.48726 301.672106 1122.33479 300.824576 
C 1123.182321 299.977045 1123.658526 298.827385 1123.658526 297.628796 
C 1123.658526 296.430207 1123.182321 295.280547 1122.33479 294.433016 
C 1121.48726 293.585486 1120.3376 293.109281 1119.139011 293.109281 
C 1117.940421 293.109281 1116.790762 293.585486 1115.943231 294.433016 
C 1115.0957 295.280547 1114.619496 296.430207 1114.619496 297.628796 
C 1114.619496 298.827385 1115.0957 299.977045 1115.943231 300.824576 
C 1116.790762 301.672106 1117.940421 302.148311 1119.139011 302.148311 
z
" clip-path="url(#pd7ca48b695)" style="stroke: #000000; stroke-width: 1.5; stroke-linejoin: miter"/>
   </g>
   <g id="patch_44">
    <path d="M 1119.139011 122.758333 
C 1121.935719 122.758333 1124.618258 121.647189 1126.59583 119.669618 
C 1128.573402 117.692046 1129.684546 115.009507 1129.684546 112.212799 
C 1129.684546 109.41609 1128.573402 106.733551 1126.59583 104.755979 
C 1124.618258 102.778408 1121.935719 101.667264 1119.139011 101.667264 
C 1116.342302 101.667264 1113.659763 102.778408 1111.682192 104.755979 
C 1109.70462 106.733551 1108.593476 109.41609 1108.593476 112.212799 
C 1108.593476 115.009507 1109.70462 117.692046 1111.682192 119.669618 
C 1113.659763 121.647189 1116.342302 122.758333 1119.139011 122.758333 
z
" clip-path="url(#pd7ca48b695)" style="stroke: #000000; stroke-width: 2; stroke-linejoin: miter"/>
   </g>
   <g id="patch_45">
    <path d="M 1165.49301 209.440312 
C 1166.691599 209.440312 1167.841259 208.964108 1168.68879 208.116577 
C 1169.53632 207.269046 1170.012525 206.119387 1170.012525 204.920797 
C 1170.012525 203.722208 1169.53632 202.572548 1168.68879 201.725018 
C 1167.841259 200.877487 1166.691599 200.401282 1165.49301 200.401282 
C 1164.294421 200.401282 1163.144761 200.877487 1162.29723 201.725018 
C 1161.4497 202.572548 1160.973495 203.722208 1160.973495 204.920797 
C 1160.973495 206.119387 1161.4497 207.269046 1162.29723 208.116577 
C 1163.144761 208.964108 1164.294421 209.440312 1165.49301 209.440312 
z
" clip-path="url(#pd7ca48b695)" style="stroke: #000000; stroke-width: 1.5; stroke-linejoin: miter"/>
   </g>
   <g id="patch_46">
    <path d="M 1165.49301 122.758333 
C 1168.289719 122.758333 1170.972258 121.647189 1172.949829 119.669618 
C 1174.927401 117.692046 1176.038545 115.009507 1176.038545 112.212799 
C 1176.038545 109.41609 1174.927401 106.733551 1172.949829 104.755979 
C 1170.972258 102.778408 1168.289719 101.667264 1165.49301 101.667264 
C 1162.696302 101.667264 1160.013762 102.778408 1158.036191 104.755979 
C 1156.058619 106.733551 1154.947475 109.41609 1154.947475 112.212799 
C 1154.947475 115.009507 1156.058619 117.692046 1158.036191 119.669618 
C 1160.013762 121.647189 1162.696302 122.758333 1165.49301 122.758333 
z
" clip-path="url(#pd7ca48b695)" style="stroke: #000000; stroke-width: 2; stroke-linejoin: miter"/>
   </g>
   <g id="patch_47">
    <path d="M 1150.42796 498.109843 
L 1180.55806 498.109843 
L 1180.55806 467.979744 
L 1150.42796 467.979744 
z
" clip-path="url(#pd7ca48b695)" style="fill: #ffffff; stroke: #000000; stroke-width: 1.5; stroke-linejoin: miter"/>
   </g>
   <g id="patch_48">
    <path d="M 1211.847009 163.086313 
C 1213.045599 163.086313 1214.195258 162.610108 1215.042789 161.762578 
C 1215.89032 160.915047 1216.366524 159.765387 1216.366524 158.566798 
C 1216.366524 157.368209 1215.89032 156.218549 1215.042789 155.371018 
C 1214.195258 154.523488 1213.045599 154.047283 1211.847009 154.047283 
C 1210.64842 154.047283 1209.498761 154.523488 1208.65123 155.371018 
C 1207.803699 156.218549 1207.327495 157.368209 1207.327495 158.566798 
C 1207.327495 159.765387 1207.803699 160.915047 1208.65123 161.762578 
C 1209.498761 162.610108 1210.64842 163.086313 1211.847009 163.086313 
z
" clip-path="url(#pd7ca48b695)" style="stroke: #000000; stroke-width: 1.5; stroke-linejoin: miter"/>
   </g>
   <g id="patch_49">
    <path d="M 1211.847009 122.758333 
C 1214.643718 122.758333 1217.326257 121.647189 1219.303829 119.669618 
C 1221.2814 117.692046 1222.392544 115.009507 1222.392544 112.212799 
C 1222.392544 109.41609 1221.2814 106.733551 1219.303829 104.755979 
C 1217.326257 102.778408 1214.643718 101.667264 1211.847009 101.667264 
C 1209.050301 101.667264 1206.367762 102.778408 1204.39019 104.755979 
C 1202.412619 106.733551 1201.301475 109.41609 1201.301475 112.212799 
C 1201.301475 115.009507 1202.412619 117.692046 1204.39019 119.669618 
C 1206.367762 121.647189 1209.050301 122.758333 1211.847009 122.758333 
z
" clip-path="url(#pd7ca48b695)" style="stroke: #000000; stroke-width: 2; stroke-linejoin: miter"/>
   </g>
   <g id="patch_50">
    <path d="M 1240.47524 127.277848 
L 1275.926778 127.277848 
L 1275.926778 97.147749 
L 1240.47524 97.147749 
z
" clip-path="url(#pd7ca48b695)" style="fill: #ffffff; stroke: #000000; stroke-width: 1.5; stroke-linejoin: miter"/>
   </g>
   <g id="patch_51">
    <path d="M 1304.555008 163.086313 
C 1305.753598 163.086313 1306.903257 162.610108 1307.750788 161.762578 
C 1308.598319 160.915047 1309.074523 159.765387 1309.074523 158.566798 
C 1309.074523 157.368209 1308.598319 156.218549 1307.750788 155.371018 
C 1306.903257 154.523488 1305.753598 154.047283 1304.555008 154.047283 
C 1303.356419 154.047283 1302.206759 154.523488 1301.359229 155.371018 
C 1300.511698 156.218549 1300.035493 157.368209 1300.035493 158.566798 
C 1300.035493 159.765387 1300.511698 160.915047 1301.359229 161.762578 
C 1302.206759 162.610108 1303.356419 163.086313 1304.555008 163.086313 
z
" clip-path="url(#pd7ca48b695)" style="stroke: #000000; stroke-width: 1.5; stroke-linejoin: miter"/>
   </g>
   <g id="patch_52">
    <path d="M 1304.555008 122.758333 
C 1307.351717 122.758333 1310.034256 121.647189 1312.011827 119.669618 
C 1313.989399 117.692046 1315.100543 115.009507 1315.100543 112.212799 
C 1315.100543 109.41609 1313.989399 106.733551 1312.011827 104.755979 
C 1310.034256 102.778408 1307.351717 101.667264 1304.555008 101.667264 
C 1301.7583 101.667264 1299.075761 102.778408 1297.098189 104.755979 
C 1295.120617 106.733551 1294.009473 109.41609 1294.009473 112.212799 
C 1294.009473 115.009507 1295.120617 117.692046 1297.098189 119.669618 
C 1299.075761 121.647189 1301.7583 122.758333 1304.555008 122.758333 
z
" clip-path="url(#pd7ca48b695)" style="stroke: #000000; stroke-width: 2; stroke-linejoin: miter"/>
   </g>
   <g id="patch_53">
    <path d="M 1350.909008 209.440312 
C 1352.107597 209.440312 1353.257257 208.964108 1354.104787 208.116577 
C 1354.952318 207.269046 1355.428523 206.119387 1355.428523 204.920797 
C 1355.428523 203.722208 1354.952318 202.572548 1354.104787 201.725018 
C 1353.257257 200.877487 1352.107597 200.401282 1350.909008 200.401282 
C 1349.710418 200.401282 1348.560759 200.877487 1347.713228 201.725018 
C 1346.865697 202.572548 1346.389493 203.722208 1346.389493 204.920797 
C 1346.389493 206.119387 1346.865697 207.269046 1347.713228 208.116577 
C 1348.560759 208.964108 1349.710418 209.440312 1350.909008 209.440312 
z
" clip-path="url(#pd7ca48b695)" style="stroke: #000000; stroke-width: 1.5; stroke-linejoin: miter"/>
   </g>
   <g id="patch_54">
    <path d="M 1350.909008 122.758333 
C 1353.705716 122.758333 1356.388255 121.647189 1358.365827 119.669618 
C 1360.343398 117.692046 1361.454543 115.009507 1361.454543 112.212799 
C 1361.454543 109.41609 1360.343398 106.733551 1358.365827 104.755979 
C 1356.388255 102.778408 1353.705716 101.667264 1350.909008 101.667264 
C 1348.112299 101.667264 1345.42976 102.778408 1343.452188 104.755979 
C 1341.474617 106.733551 1340.363473 109.41609 1340.363473 112.212799 
C 1340.363473 115.009507 1341.474617 117.692046 1343.452188 119.669618 
C 1345.42976 121.647189 1348.112299 122.758333 1350.909008 122.758333 
z
" clip-path="url(#pd7ca48b695)" style="stroke: #000000; stroke-width: 2; stroke-linejoin: miter"/>
   </g>
   <g id="patch_55">
    <path d="M 1397.263007 163.086313 
C 1398.461596 163.086313 1399.611256 162.610108 1400.458787 161.762578 
C 1401.306317 160.915047 1401.782522 159.765387 1401.782522 158.566798 
C 1401.782522 157.368209 1401.306317 156.218549 1400.458787 155.371018 
C 1399.611256 154.523488 1398.461596 154.047283 1397.263007 154.047283 
C 1396.064418 154.047283 1394.914758 154.523488 1394.067227 155.371018 
C 1393.219697 156.218549 1392.743492 157.368209 1392.743492 158.566798 
C 1392.743492 159.765387 1393.219697 160.915047 1394.067227 161.762578 
C 1394.914758 162.610108 1396.064418 163.086313 1397.263007 163.086313 
z
" clip-path="url(#pd7ca48b695)" style="stroke: #000000; stroke-width: 1.5; stroke-linejoin: miter"/>
   </g>
   <g id="patch_56">
    <path d="M 1397.263007 261.820332 
C 1400.059716 261.820332 1402.742255 260.709187 1404.719826 258.731616 
C 1406.697398 256.754044 1407.808542 254.071505 1407.808542 251.274797 
C 1407.808542 248.478088 1406.697398 245.795549 1404.719826 243.817977 
C 1402.742255 241.840406 1400.059716 240.729262 1397.263007 240.729262 
C 1394.466298 240.729262 1391.783759 241.840406 1389.806188 243.817977 
C 1387.828616 245.795549 1386.717472 248.478088 1386.717472 251.274797 
C 1386.717472 254.071505 1387.828616 256.754044 1389.806188 258.731616 
C 1391.783759 260.709187 1394.466298 261.820332 1397.263007 261.820332 
z
" clip-path="url(#pd7ca48b695)" style="stroke: #000000; stroke-width: 2; stroke-linejoin: miter"/>
   </g>
   <g id="patch_57">
    <path d="M 1443.617006 302.148311 
C 1444.815596 302.148311 1445.965255 301.672106 1446.812786 300.824576 
C 1447.660317 299.977045 1448.136521 298.827385 1448.136521 297.628796 
C 1448.136521 296.430207 1447.660317 295.280547 1446.812786 294.433016 
C 1445.965255 293.585486 1444.815596 293.109281 1443.617006 293.109281 
C 1442.418417 293.109281 1441.268757 293.585486 1440.421227 294.433016 
C 1439.573696 295.280547 1439.097491 296.430207 1439.097491 297.628796 
C 1439.097491 298.827385 1439.573696 299.977045 1440.421227 300.824576 
C 1441.268757 301.672106 1442.418417 302.148311 1443.617006 302.148311 
z
" clip-path="url(#pd7ca48b695)" style="stroke: #000000; stroke-width: 1.5; stroke-linejoin: miter"/>
   </g>
   <g id="patch_58">
    <path d="M 1443.617006 122.758333 
C 1446.413715 122.758333 1449.096254 121.647189 1451.073826 119.669618 
C 1453.051397 117.692046 1454.162541 115.009507 1454.162541 112.212799 
C 1454.162541 109.41609 1453.051397 106.733551 1451.073826 104.755979 
C 1449.096254 102.778408 1446.413715 101.667264 1443.617006 101.667264 
C 1440.820298 101.667264 1438.137759 102.778408 1436.160187 104.755979 
C 1434.182616 106.733551 1433.071472 109.41609 1433.071472 112.212799 
C 1433.071472 115.009507 1434.182616 117.692046 1436.160187 119.669618 
C 1438.137759 121.647189 1440.820298 122.758333 1443.617006 122.758333 
z
" clip-path="url(#pd7ca48b695)" style="stroke: #000000; stroke-width: 2; stroke-linejoin: miter"/>
   </g>
   <g id="patch_59">
    <path d="M 1474.905956 266.339846 
L 1505.036056 266.339846 
L 1505.036056 236.209747 
L 1474.905956 236.209747 
z
" clip-path="url(#pd7ca48b695)" style="fill: #ffffff; stroke: #000000; stroke-width: 1.5; stroke-linejoin: miter"/>
   </g>
   <g id="patch_60">
    <path d="M 1474.905956 312.693846 
L 1505.036056 312.693846 
L 1505.036056 282.563746 
L 1474.905956 282.563746 
z
" clip-path="url(#pd7ca48b695)" style="fill: #ffffff; stroke: #000000; stroke-width: 1.5; stroke-linejoin: miter"/>
   </g>
   <g id="patch_61">
    <path d="M 1536.325005 163.086313 
C 1537.523595 163.086313 1538.673254 162.610108 1539.520785 161.762578 
C 1540.368316 160.915047 1540.84452 159.765387 1540.84452 158.566798 
C 1540.84452 157.368209 1540.368316 156.218549 1539.520785 155.371018 
C 1538.673254 154.523488 1537.523595 154.047283 1536.325005 154.047283 
C 1535.126416 154.047283 1533.976756 154.523488 1533.129226 155.371018 
C 1532.281695 156.218549 1531.80549 157.368209 1531.80549 158.566798 
C 1531.80549 159.765387 1532.281695 160.915047 1533.129226 161.762578 
C 1533.976756 162.610108 1535.126416 163.086313 1536.325005 163.086313 
z
" clip-path="url(#pd7ca48b695)" style="stroke: #000000; stroke-width: 1.5; stroke-linejoin: miter"/>
   </g>
   <g id="patch_62">
    <path d="M 1536.325005 261.820332 
C 1539.121714 261.820332 1541.804253 260.709187 1543.781824 258.731616 
C 1545.759396 256.754044 1546.87054 254.071505 1546.87054 251.274797 
C 1546.87054 248.478088 1545.759396 245.795549 1543.781824 243.817977 
C 1541.804253 241.840406 1539.121714 240.729262 1536.325005 240.729262 
C 1533.528297 240.729262 1530.845758 241.840406 1528.868186 243.817977 
C 1526.890614 245.795549 1525.77947 248.478088 1525.77947 251.274797 
C 1525.77947 254.071505 1526.890614 256.754044 1528.868186 258.731616 
C 1530.845758 260.709187 1533.528297 261.820332 1536.325005 261.820332 
z
" clip-path="url(#pd7ca48b695)" style="stroke: #000000; stroke-width: 2; stroke-linejoin: miter"/>
   </g>
   <g id="patch_63">
    <path d="M 1567.613955 266.339846 
L 1597.744054 266.339846 
L 1597.744054 236.209747 
L 1567.613955 236.209747 
z
" clip-path="url(#pd7ca48b695)" style="fill: #ffffff; stroke: #000000; stroke-width: 1.5; stroke-linejoin: miter"/>
   </g>
   <g id="patch_64">
    <path d="M 1629.033004 348.50231 
C 1630.231593 348.50231 1631.381253 348.026106 1632.228784 347.178575 
C 1633.076314 346.331044 1633.552519 345.181385 1633.552519 343.982795 
C 1633.552519 342.784206 1633.076314 341.634546 1632.228784 340.787016 
C 1631.381253 339.939485 1630.231593 339.46328 1629.033004 339.46328 
C 1627.834415 339.46328 1626.684755 339.939485 1625.837224 340.787016 
C 1624.989694 341.634546 1624.513489 342.784206 1624.513489 343.982795 
C 1624.513489 345.181385 1624.989694 346.331044 1625.837224 347.178575 
C 1626.684755 348.026106 1627.834415 348.50231 1629.033004 348.50231 
z
" clip-path="url(#pd7ca48b695)" style="stroke: #000000; stroke-width: 1.5; stroke-linejoin: miter"/>
   </g>
   <g id="patch_65">
    <path d="M 1629.033004 261.820332 
C 1631.829712 261.820332 1634.512252 260.709187 1636.489823 258.731616 
C 1638.467395 256.754044 1639.578539 254.071505 1639.578539 251.274797 
C 1639.578539 248.478088 1638.467395 245.795549 1636.489823 243.817977 
C 1634.512252 241.840406 1631.829712 240.729262 1629.033004 240.729262 
C 1626.236295 240.729262 1623.553756 241.840406 1621.576185 243.817977 
C 1619.598613 245.795549 1618.487469 248.478088 1618.487469 251.274797 
C 1618.487469 254.071505 1619.598613 256.754044 1621.576185 258.731616 
C 1623.553756 260.709187 1626.236295 261.820332 1629.033004 261.820332 
z
" clip-path="url(#pd7ca48b695)" style="stroke: #000000; stroke-width: 2; stroke-linejoin: miter"/>
   </g>
   <g id="patch_66">
    <path d="M 1675.387003 394.85631 
C 1676.585593 394.85631 1677.735252 394.380105 1678.582783 393.532574 
C 1679.430314 392.685044 1679.906518 391.535384 1679.906518 390.336795 
C 1679.906518 389.138205 1679.430314 387.988546 1678.582783 387.141015 
C 1677.735252 386.293484 1676.585593 385.81728 1675.387003 385.81728 
C 1674.188414 385.81728 1673.038754 386.293484 1672.191224 387.141015 
C 1671.343693 387.988546 1670.867488 389.138205 1670.867488 390.336795 
C 1670.867488 391.535384 1671.343693 392.685044 1672.191224 393.532574 
C 1673.038754 394.380105 1674.188414 394.85631 1675.387003 394.85631 
z
" clip-path="url(#pd7ca48b695)" style="stroke: #000000; stroke-width: 1.5; stroke-linejoin: miter"/>
   </g>
   <g id="patch_67">
    <path d="M 1675.387003 261.820332 
C 1678.183712 261.820332 1680.866251 260.709187 1682.843823 258.731616 
C 1684.821394 256.754044 1685.932538 254.071505 1685.932538 251.274797 
C 1685.932538 248.478088 1684.821394 245.795549 1682.843823 243.817977 
C 1680.866251 241.840406 1678.183712 240.729262 1675.387003 240.729262 
C 1672.590295 240.729262 1669.907756 241.840406 1667.930184 243.817977 
C 1665.952613 245.795549 1664.841468 248.478088 1664.841468 251.274797 
C 1664.841468 254.071505 1665.952613 256.754044 1667.930184 258.731616 
C 1669.907756 260.709187 1672.590295 261.820332 1675.387003 261.820332 
z
" clip-path="url(#pd7ca48b695)" style="stroke: #000000; stroke-width: 2; stroke-linejoin: miter"/>
   </g>
   <g id="patch_68">
    <path d="M 1721.741003 441.210309 
C 1722.939592 441.210309 1724.089252 440.734105 1724.936782 439.886574 
C 1725.784313 439.039043 1726.260518 437.889384 1726.260518 436.690794 
C 1726.260518 435.492205 1725.784313 434.342545 1724.936782 433.495015 
C 1724.089252 432.647484 1722.939592 432.171279 1721.741003 432.171279 
C 1720.542413 432.171279 1719.392754 432.647484 1718.545223 433.495015 
C 1717.697692 434.342545 1717.221488 435.492205 1717.221488 436.690794 
C 1717.221488 437.889384 1717.697692 439.039043 1718.545223 439.886574 
C 1719.392754 440.734105 1720.542413 441.210309 1721.741003 441.210309 
z
" clip-path="url(#pd7ca48b695)" style="stroke: #000000; stroke-width: 1.5; stroke-linejoin: miter"/>
   </g>
   <g id="patch_69">
    <path d="M 1721.741003 261.820332 
C 1724.537711 261.820332 1727.22025 260.709187 1729.197822 258.731616 
C 1731.175394 256.754044 1732.286538 254.071505 1732.286538 251.274797 
C 1732.286538 248.478088 1731.175394 245.795549 1729.197822 243.817977 
C 1727.22025 241.840406 1724.537711 240.729262 1721.741003 240.729262 
C 1718.944294 240.729262 1716.261755 241.840406 1714.284184 243.817977 
C 1712.306612 245.795549 1711.195468 248.478088 1711.195468 251.274797 
C 1711.195468 254.071505 1712.306612 256.754044 1714.284184 258.731616 
C 1716.261755 260.709187 1718.944294 261.820332 1721.741003 261.820332 
z
" clip-path="url(#pd7ca48b695)" style="stroke: #000000; stroke-width: 2; stroke-linejoin: miter"/>
   </g>
   <g id="patch_70">
    <path d="M 1768.095002 487.564309 
C 1769.293591 487.564309 1770.443251 487.088104 1771.290782 486.240573 
C 1772.138312 485.393043 1772.614517 484.243383 1772.614517 483.044794 
C 1772.614517 481.846204 1772.138312 480.696545 1771.290782 479.849014 
C 1770.443251 479.001483 1769.293591 478.525279 1768.095002 478.525279 
C 1766.896413 478.525279 1765.746753 479.001483 1764.899222 479.849014 
C 1764.051692 480.696545 1763.575487 481.846204 1763.575487 483.044794 
C 1763.575487 484.243383 1764.051692 485.393043 1764.899222 486.240573 
C 1765.746753 487.088104 1766.896413 487.564309 1768.095002 487.564309 
z
" clip-path="url(#pd7ca48b695)" style="stroke: #000000; stroke-width: 1.5; stroke-linejoin: miter"/>
   </g>
   <g id="patch_71">
    <path d="M 1768.095002 261.820332 
C 1770.891711 261.820332 1773.57425 260.709187 1775.551821 258.731616 
C 1777.529393 256.754044 1778.640537 254.071505 1778.640537 251.274797 
C 1778.640537 248.478088 1777.529393 245.795549 1775.551821 243.817977 
C 1773.57425 241.840406 1770.891711 240.729262 1768.095002 240.729262 
C 1765.298294 240.729262 1762.615754 241.840406 1760.638183 243.817977 
C 1758.660611 245.795549 1757.549467 248.478088 1757.549467 251.274797 
C 1757.549467 254.071505 1758.660611 256.754044 1760.638183 258.731616 
C 1762.615754 260.709187 1765.298294 261.820332 1768.095002 261.820332 
z
" clip-path="url(#pd7ca48b695)" style="stroke: #000000; stroke-width: 2; stroke-linejoin: miter"/>
   </g>
   <g id="patch_72">
    <path d="M 1798.561168 266.339846 
L 1830.336835 266.339846 
L 1830.336835 236.209747 
L 1798.561168 236.209747 
z
" clip-path="url(#pd7ca48b695)" style="fill: #ffffff; stroke: #000000; stroke-width: 1.5; stroke-linejoin: miter"/>
   </g>
   <g id="patch_73">
    <path d="M 1860.803001 487.564309 
C 1862.00159 487.564309 1863.15125 487.088104 1863.998781 486.240573 
C 1864.846311 485.393043 1865.322516 484.243383 1865.322516 483.044794 
C 1865.322516 481.846204 1864.846311 480.696545 1863.998781 479.849014 
C 1863.15125 479.001483 1862.00159 478.525279 1860.803001 478.525279 
C 1859.604412 478.525279 1858.454752 479.001483 1857.607221 479.849014 
C 1856.759691 480.696545 1856.283486 481.846204 1856.283486 483.044794 
C 1856.283486 484.243383 1856.759691 485.393043 1857.607221 486.240573 
C 1858.454752 487.088104 1859.604412 487.564309 1860.803001 487.564309 
z
" clip-path="url(#pd7ca48b695)" style="stroke: #000000; stroke-width: 1.5; stroke-linejoin: miter"/>
   </g>
   <g id="patch_74">
    <path d="M 1860.803001 261.820332 
C 1863.599709 261.820332 1866.282249 260.709187 1868.25982 258.731616 
C 1870.237392 256.754044 1871.348536 254.071505 1871.348536 251.274797 
C 1871.348536 248.478088 1870.237392 245.795549 1868.25982 243.817977 
C 1866.282249 241.840406 1863.599709 240.729262 1860.803001 240.729262 
C 1858.006292 240.729262 1855.323753 241.840406 1853.346182 243.817977 
C 1851.36861 245.795549 1850.257466 248.478088 1850.257466 251.274797 
C 1850.257466 254.071505 1851.36861 256.754044 1853.346182 258.731616 
C 1855.323753 260.709187 1858.006292 261.820332 1860.803001 261.820332 
z
" clip-path="url(#pd7ca48b695)" style="stroke: #000000; stroke-width: 2; stroke-linejoin: miter"/>
   </g>
   <g id="patch_75">
    <path d="M 1892.09195 498.109843 
L 1922.22205 498.109843 
L 1922.22205 467.979744 
L 1892.09195 467.979744 
z
" clip-path="url(#pd7ca48b695)" style="fill: #ffffff; stroke: #000000; stroke-width: 1.5; stroke-linejoin: miter"/>
   </g>
   <g id="patch_76">
    <path d="M 1907.157 441.210309 
C 1908.35559 441.210309 1909.505249 440.734105 1910.35278 439.886574 
C 1911.200311 439.039043 1911.676515 437.889384 1911.676515 436.690794 
C 1911.676515 435.492205 1911.200311 434.342545 1910.35278 433.495015 
C 1909.505249 432.647484 1908.35559 432.171279 1907.157 432.171279 
C 1905.958411 432.171279 1904.808751 432.647484 1903.961221 433.495015 
C 1903.11369 434.342545 1902.637485 435.492205 1902.637485 436.690794 
C 1902.637485 437.889384 1903.11369 439.039043 1903.961221 439.886574 
C 1904.808751 440.734105 1905.958411 441.210309 1907.157 441.210309 
z
" clip-path="url(#pd7ca48b695)" style="stroke: #000000; stroke-width: 1.5; stroke-linejoin: miter"/>
   </g>
   <g id="patch_77">
    <path d="M 1907.157 261.820332 
C 1909.953709 261.820332 1912.636248 260.709187 1914.613819 258.731616 
C 1916.591391 256.754044 1917.702535 254.071505 1917.702535 251.274797 
C 1917.702535 248.478088 1916.591391 245.795549 1914.613819 243.817977 
C 1912.636248 241.840406 1909.953709 240.729262 1907.157 240.729262 
C 1904.360292 240.729262 1901.677753 241.840406 1899.700181 243.817977 
C 1897.722609 245.795549 1896.611465 248.478088 1896.611465 251.274797 
C 1896.611465 254.071505 1897.722609 256.754044 1899.700181 258.731616 
C 1901.677753 260.709187 1904.360292 261.820332 1907.157 261.820332 
z
" clip-path="url(#pd7ca48b695)" style="stroke: #000000; stroke-width: 2; stroke-linejoin: miter"/>
   </g>
   <g id="patch_78">
    <path d="M 1953.511 394.85631 
C 1954.709589 394.85631 1955.859249 394.380105 1956.706779 393.532574 
C 1957.55431 392.685044 1958.030515 391.535384 1958.030515 390.336795 
C 1958.030515 389.138205 1957.55431 387.988546 1956.706779 387.141015 
C 1955.859249 386.293484 1954.709589 385.81728 1953.511 385.81728 
C 1952.31241 385.81728 1951.162751 386.293484 1950.31522 387.141015 
C 1949.467689 387.988546 1948.991485 389.138205 1948.991485 390.336795 
C 1948.991485 391.535384 1949.467689 392.685044 1950.31522 393.532574 
C 1951.162751 394.380105 1952.31241 394.85631 1953.511 394.85631 
z
" clip-path="url(#pd7ca48b695)" style="stroke: #000000; stroke-width: 1.5; stroke-linejoin: miter"/>
   </g>
   <g id="patch_79">
    <path d="M 1953.511 261.820332 
C 1956.307708 261.820332 1958.990247 260.709187 1960.967819 258.731616 
C 1962.94539 256.754044 1964.056535 254.071505 1964.056535 251.274797 
C 1964.056535 248.478088 1962.94539 245.795549 1960.967819 243.817977 
C 1958.990247 241.840406 1956.307708 240.729262 1953.511 240.729262 
C 1950.714291 240.729262 1948.031752 241.840406 1946.05418 243.817977 
C 1944.076609 245.795549 1942.965465 248.478088 1942.965465 251.274797 
C 1942.965465 254.071505 1944.076609 256.754044 1946.05418 258.731616 
C 1948.031752 260.709187 1950.714291 261.820332 1953.511 261.820332 
z
" clip-path="url(#pd7ca48b695)" style="stroke: #000000; stroke-width: 2; stroke-linejoin: miter"/>
   </g>
   <g id="patch_80">
    <path d="M 1999.864999 348.50231 
C 2001.063588 348.50231 2002.213248 348.026106 2003.060779 347.178575 
C 2003.908309 346.331044 2004.384514 345.181385 2004.384514 343.982795 
C 2004.384514 342.784206 2003.908309 341.634546 2003.060779 340.787016 
C 2002.213248 339.939485 2001.063588 339.46328 1999.864999 339.46328 
C 1998.66641 339.46328 1997.51675 339.939485 1996.669219 340.787016 
C 1995.821689 341.634546 1995.345484 342.784206 1995.345484 343.982795 
C 1995.345484 345.181385 1995.821689 346.331044 1996.669219 347.178575 
C 1997.51675 348.026106 1998.66641 348.50231 1999.864999 348.50231 
z
" clip-path="url(#pd7ca48b695)" style="stroke: #000000; stroke-width: 1.5; stroke-linejoin: miter"/>
   </g>
   <g id="patch_81">
    <path d="M 1999.864999 261.820332 
C 2002.661708 261.820332 2005.344247 260.709187 2007.321818 258.731616 
C 2009.29939 256.754044 2010.410534 254.071505 2010.410534 251.274797 
C 2010.410534 248.478088 2009.29939 245.795549 2007.321818 243.817977 
C 2005.344247 241.840406 2002.661708 240.729262 1999.864999 240.729262 
C 1997.06829 240.729262 1994.385751 241.840406 1992.40818 243.817977 
C 1990.430608 245.795549 1989.319464 248.478088 1989.319464 251.274797 
C 1989.319464 254.071505 1990.430608 256.754044 1992.40818 258.731616 
C 1994.385751 260.709187 1997.06829 261.820332 1999.864999 261.820332 
z
" clip-path="url(#pd7ca48b695)" style="stroke: #000000; stroke-width: 2; stroke-linejoin: miter"/>
   </g>
   <g id="patch_82">
    <path d="M 2031.153949 359.047845 
L 2061.284048 359.047845 
L 2061.284048 328.917746 
L 2031.153949 328.917746 
z
" clip-path="url(#pd7ca48b695)" style="fill: #ffffff; stroke: #000000; stroke-width: 1.5; stroke-linejoin: miter"/>
   </g>
   <g id="text_2">
    <g clip-path="url(#pd7ca48b695)">
     <!-- ${q}_{0}$ -->
     <g transform="translate(325.135561 116.663775)scale(0.1625 -0.1625)">
      <defs>
       <path id="DejaVuSans-Oblique-71" d="M 2669 525 
Q 2438 222 2123 65 
Q 1809 -91 1428 -91 
Q 897 -91 595 267 
Q 294 625 294 1253 
Q 294 1759 480 2231 
Q 666 2703 1013 3078 
Q 1238 3322 1530 3453 
Q 1822 3584 2144 3584 
Q 2531 3584 2781 3431 
Q 3031 3278 3144 2969 
L 3244 3494 
L 3822 3494 
L 2888 -1319 
L 2309 -1319 
L 2669 525 
z
M 891 1338 
Q 891 875 1084 633 
Q 1278 391 1644 391 
Q 2188 391 2572 911 
Q 2956 1431 2956 2175 
Q 2956 2625 2757 2864 
Q 2559 3103 2188 3103 
Q 1916 3103 1684 2976 
Q 1453 2850 1281 2606 
Q 1100 2350 995 2006 
Q 891 1663 891 1338 
z
" transform="scale(0.015625)"/>
       <path id="DejaVuSans-30" d="M 2034 4250 
Q 1547 4250 1301 3770 
Q 1056 3291 1056 2328 
Q 1056 1369 1301 889 
Q 1547 409 2034 409 
Q 2525 409 2770 889 
Q 3016 1369 3016 2328 
Q 3016 3291 2770 3770 
Q 2525 4250 2034 4250 
z
M 2034 4750 
Q 2819 4750 3233 4129 
Q 3647 3509 3647 2328 
Q 3647 1150 3233 529 
Q 2819 -91 2034 -91 
Q 1250 -91 836 529 
Q 422 1150 422 2328 
Q 422 3509 836 4129 
Q 1250 4750 2034 4750 
z
" transform="scale(0.015625)"/>
      </defs>
      <use xlink:href="#DejaVuSans-Oblique-71"/>
      <use xlink:href="#DejaVuSans-30" transform="translate(63.476562 -16.40625)scale(0.7)"/>
     </g>
    </g>
   </g>
   <g id="text_3">
    <g clip-path="url(#pd7ca48b695)">
     <!-- ${q}_{1}$ -->
     <g transform="translate(325.135561 163.017774)scale(0.1625 -0.1625)">
      <defs>
       <path id="DejaVuSans-31" d="M 794 531 
L 1825 531 
L 1825 4091 
L 703 3866 
L 703 4441 
L 1819 4666 
L 2450 4666 
L 2450 531 
L 3481 531 
L 3481 0 
L 794 0 
L 794 531 
z
" transform="scale(0.015625)"/>
      </defs>
      <use xlink:href="#DejaVuSans-Oblique-71"/>
      <use xlink:href="#DejaVuSans-31" transform="translate(63.476562 -16.40625)scale(0.7)"/>
     </g>
    </g>
   </g>
   <g id="text_4">
    <g clip-path="url(#pd7ca48b695)">
     <!-- ${q}_{2}$ -->
     <g transform="translate(325.135561 209.371774)scale(0.1625 -0.1625)">
      <defs>
       <path id="DejaVuSans-32" d="M 1228 531 
L 3431 531 
L 3431 0 
L 469 0 
L 469 531 
Q 828 903 1448 1529 
Q 2069 2156 2228 2338 
Q 2531 2678 2651 2914 
Q 2772 3150 2772 3378 
Q 2772 3750 2511 3984 
Q 2250 4219 1831 4219 
Q 1534 4219 1204 4116 
Q 875 4013 500 3803 
L 500 4441 
Q 881 4594 1212 4672 
Q 1544 4750 1819 4750 
Q 2544 4750 2975 4387 
Q 3406 4025 3406 3419 
Q 3406 3131 3298 2873 
Q 3191 2616 2906 2266 
Q 2828 2175 2409 1742 
Q 1991 1309 1228 531 
z
" transform="scale(0.015625)"/>
      </defs>
      <use xlink:href="#DejaVuSans-Oblique-71"/>
      <use xlink:href="#DejaVuSans-32" transform="translate(63.476562 -16.40625)scale(0.7)"/>
     </g>
    </g>
   </g>
   <g id="text_5">
    <g clip-path="url(#pd7ca48b695)">
     <!-- ${q}_{3}$ -->
     <g transform="translate(325.135561 255.725773)scale(0.1625 -0.1625)">
      <use xlink:href="#DejaVuSans-Oblique-71"/>
      <use xlink:href="#DejaVuSans-33" transform="translate(63.476562 -16.40625)scale(0.7)"/>
     </g>
    </g>
   </g>
   <g id="text_6">
    <g clip-path="url(#pd7ca48b695)">
     <!-- ${q}_{4}$ -->
     <g transform="translate(325.135561 302.079773)scale(0.1625 -0.1625)">
      <use xlink:href="#DejaVuSans-Oblique-71"/>
      <use xlink:href="#DejaVuSans-34" transform="translate(63.476562 -16.40625)scale(0.7)"/>
     </g>
    </g>
   </g>
   <g id="text_7">
    <g clip-path="url(#pd7ca48b695)">
     <!-- ${q}_{5}$ -->
     <g transform="translate(325.135561 348.433772)scale(0.1625 -0.1625)">
      <defs>
       <path id="DejaVuSans-35" d="M 691 4666 
L 3169 4666 
L 3169 4134 
L 1269 4134 
L 1269 2991 
Q 1406 3038 1543 3061 
Q 1681 3084 1819 3084 
Q 2600 3084 3056 2656 
Q 3513 2228 3513 1497 
Q 3513 744 3044 326 
Q 2575 -91 1722 -91 
Q 1428 -91 1123 -41 
Q 819 9 494 109 
L 494 744 
Q 775 591 1075 516 
Q 1375 441 1709 441 
Q 2250 441 2565 725 
Q 2881 1009 2881 1497 
Q 2881 1984 2565 2268 
Q 2250 2553 1709 2553 
Q 1456 2553 1204 2497 
Q 953 2441 691 2322 
L 691 4666 
z
" transform="scale(0.015625)"/>
      </defs>
      <use xlink:href="#DejaVuSans-Oblique-71"/>
      <use xlink:href="#DejaVuSans-35" transform="translate(63.476562 -16.40625)scale(0.7)"/>
     </g>
    </g>
   </g>
   <g id="text_8">
    <g clip-path="url(#pd7ca48b695)">
     <!-- ${q}_{6}$ -->
     <g transform="translate(325.135561 394.787771)scale(0.1625 -0.1625)">
      <defs>
       <path id="DejaVuSans-36" d="M 2113 2584 
Q 1688 2584 1439 2293 
Q 1191 2003 1191 1497 
Q 1191 994 1439 701 
Q 1688 409 2113 409 
Q 2538 409 2786 701 
Q 3034 994 3034 1497 
Q 3034 2003 2786 2293 
Q 2538 2584 2113 2584 
z
M 3366 4563 
L 3366 3988 
Q 3128 4100 2886 4159 
Q 2644 4219 2406 4219 
Q 1781 4219 1451 3797 
Q 1122 3375 1075 2522 
Q 1259 2794 1537 2939 
Q 1816 3084 2150 3084 
Q 2853 3084 3261 2657 
Q 3669 2231 3669 1497 
Q 3669 778 3244 343 
Q 2819 -91 2113 -91 
Q 1303 -91 875 529 
Q 447 1150 447 2328 
Q 447 3434 972 4092 
Q 1497 4750 2381 4750 
Q 2619 4750 2861 4703 
Q 3103 4656 3366 4563 
z
" transform="scale(0.015625)"/>
      </defs>
      <use xlink:href="#DejaVuSans-Oblique-71"/>
      <use xlink:href="#DejaVuSans-36" transform="translate(63.476562 -16.40625)scale(0.7)"/>
     </g>
    </g>
   </g>
   <g id="text_9">
    <g clip-path="url(#pd7ca48b695)">
     <!-- ${q}_{7}$ -->
     <g transform="translate(325.135561 441.141771)scale(0.1625 -0.1625)">
      <defs>
       <path id="DejaVuSans-37" d="M 525 4666 
L 3525 4666 
L 3525 4397 
L 1831 0 
L 1172 0 
L 2766 4134 
L 525 4134 
L 525 4666 
z
" transform="scale(0.015625)"/>
      </defs>
      <use xlink:href="#DejaVuSans-Oblique-71"/>
      <use xlink:href="#DejaVuSans-37" transform="translate(63.476562 -16.40625)scale(0.7)"/>
     </g>
    </g>
   </g>
   <g id="text_10">
    <g clip-path="url(#pd7ca48b695)">
     <!-- ${q}_{8}$ -->
     <g transform="translate(325.135561 487.49577)scale(0.1625 -0.1625)">
      <use xlink:href="#DejaVuSans-Oblique-71"/>
      <use xlink:href="#DejaVuSans-38" transform="translate(63.476562 -16.40625)scale(0.7)"/>
     </g>
    </g>
   </g>
   <g id="text_11">
    <g clip-path="url(#pd7ca48b695)">
     <!-- ${q}_{9}$ -->
     <g transform="translate(325.135561 533.84977)scale(0.1625 -0.1625)">
      <defs>
       <path id="DejaVuSans-39" d="M 703 97 
L 703 672 
Q 941 559 1184 500 
Q 1428 441 1663 441 
Q 2288 441 2617 861 
Q 2947 1281 2994 2138 
Q 2813 1869 2534 1725 
Q 2256 1581 1919 1581 
Q 1219 1581 811 2004 
Q 403 2428 403 3163 
Q 403 3881 828 4315 
Q 1253 4750 1959 4750 
Q 2769 4750 3195 4129 
Q 3622 3509 3622 2328 
Q 3622 1225 3098 567 
Q 2575 -91 1691 -91 
Q 1453 -91 1209 -44 
Q 966 3 703 97 
z
M 1959 2075 
Q 2384 2075 2632 2365 
Q 2881 2656 2881 3163 
Q 2881 3666 2632 3958 
Q 2384 4250 1959 4250 
Q 1534 4250 1286 3958 
Q 1038 3666 1038 3163 
Q 1038 2656 1286 2365 
Q 1534 2075 1959 2075 
z
" transform="scale(0.015625)"/>
      </defs>
      <use xlink:href="#DejaVuSans-Oblique-71"/>
      <use xlink:href="#DejaVuSans-39" transform="translate(63.476562 -16.40625)scale(0.7)"/>
     </g>
    </g>
   </g>
   <g id="text_12">
    <g clip-path="url(#pd7ca48b695)">
     <!-- S -->
     <g transform="translate(373.348536 254.861984)scale(0.13 -0.13)">
      <use xlink:href="#DejaVuSans-53"/>
     </g>
    </g>
   </g>
   <g id="text_13">
    <g clip-path="url(#pd7ca48b695)">
     <!-- S -->
     <g transform="translate(373.348536 301.215984)scale(0.13 -0.13)">
      <use xlink:href="#DejaVuSans-53"/>
     </g>
    </g>
   </g>
   <g id="text_14">
    <g clip-path="url(#pd7ca48b695)">
     <!-- H -->
     <g transform="translate(372.586817 347.569983)scale(0.13 -0.13)">
      <use xlink:href="#DejaVuSans-48"/>
     </g>
    </g>
   </g>
   <g id="line2d_40">
    <path d="M 377.475021 164.592818 
L 377.475021 152.540778 
" clip-path="url(#pd7ca48b695)" style="fill: none; stroke: #ffffff; stroke-width: 2; stroke-linecap: square"/>
   </g>
   <g id="line2d_41">
    <path d="M 371.449001 158.566798 
L 383.501041 158.566798 
" clip-path="url(#pd7ca48b695)" style="fill: none; stroke: #ffffff; stroke-width: 2; stroke-linecap: square"/>
   </g>
   <g id="text_15">
    <g clip-path="url(#pd7ca48b695)">
     <!-- H -->
     <g transform="translate(418.940817 254.861984)scale(0.13 -0.13)">
      <use xlink:href="#DejaVuSans-48"/>
     </g>
    </g>
   </g>
   <g id="text_16">
    <g clip-path="url(#pd7ca48b695)">
     <!-- H -->
     <g transform="translate(418.940817 301.215984)scale(0.13 -0.13)">
      <use xlink:href="#DejaVuSans-48"/>
     </g>
    </g>
   </g>
   <g id="text_17">
    <g clip-path="url(#pd7ca48b695)">
     <!-- 0.131 -->
     <g transform="translate(412.37777 169.813328)scale(0.08 -0.08)">
      <defs>
       <path id="DejaVuSans-2e" d="M 684 794 
L 1344 794 
L 1344 0 
L 684 0 
L 684 794 
z
" transform="scale(0.015625)"/>
      </defs>
      <use xlink:href="#DejaVuSans-30"/>
      <use xlink:href="#DejaVuSans-2e" x="63.623047"/>
      <use xlink:href="#DejaVuSans-31" x="95.410156"/>
      <use xlink:href="#DejaVuSans-33" x="159.033203"/>
      <use xlink:href="#DejaVuSans-31" x="222.65625"/>
     </g>
    </g>
   </g>
   <g id="text_18">
    <g clip-path="url(#pd7ca48b695)">
     <!-- $\mathrm{R_Z}$ -->
     <g transform="translate(415.89902 157.63447)scale(0.13 -0.13)">
      <defs>
       <path id="DejaVuSans-5a" d="M 359 4666 
L 4025 4666 
L 4025 4184 
L 1075 531 
L 4097 531 
L 4097 0 
L 288 0 
L 288 481 
L 3238 4134 
L 359 4134 
L 359 4666 
z
" transform="scale(0.015625)"/>
      </defs>
      <use xlink:href="#DejaVuSans-52" transform="translate(0 0.09375)"/>
      <use xlink:href="#DejaVuSans-5a" transform="translate(70.439453 -16.3125)scale(0.7)"/>
     </g>
    </g>
   </g>
   <g id="line2d_42">
    <path d="M 470.183019 489.070814 
L 470.183019 477.018774 
" clip-path="url(#pd7ca48b695)" style="fill: none; stroke: #ffffff; stroke-width: 2; stroke-linecap: square"/>
   </g>
   <g id="line2d_43">
    <path d="M 464.156999 483.044794 
L 476.209039 483.044794 
" clip-path="url(#pd7ca48b695)" style="fill: none; stroke: #ffffff; stroke-width: 2; stroke-linecap: square"/>
   </g>
   <g id="line2d_44">
    <path d="M 470.183019 164.592818 
L 470.183019 152.540778 
" clip-path="url(#pd7ca48b695)" style="fill: none; stroke: #ffffff; stroke-width: 2; stroke-linecap: square"/>
   </g>
   <g id="line2d_45">
    <path d="M 464.156999 158.566798 
L 476.209039 158.566798 
" clip-path="url(#pd7ca48b695)" style="fill: none; stroke: #ffffff; stroke-width: 2; stroke-linecap: square"/>
   </g>
   <g id="line2d_46">
    <path d="M 516.537019 489.070814 
L 516.537019 477.018774 
" clip-path="url(#pd7ca48b695)" style="fill: none; stroke: #ffffff; stroke-width: 2; stroke-linecap: square"/>
   </g>
   <g id="line2d_47">
    <path d="M 510.510999 483.044794 
L 522.563039 483.044794 
" clip-path="url(#pd7ca48b695)" style="fill: none; stroke: #ffffff; stroke-width: 2; stroke-linecap: square"/>
   </g>
   <g id="line2d_48">
    <path d="M 562.891018 489.070814 
L 562.891018 477.018774 
" clip-path="url(#pd7ca48b695)" style="fill: none; stroke: #ffffff; stroke-width: 2; stroke-linecap: square"/>
   </g>
   <g id="line2d_49">
    <path d="M 556.864998 483.044794 
L 568.917038 483.044794 
" clip-path="url(#pd7ca48b695)" style="fill: none; stroke: #ffffff; stroke-width: 2; stroke-linecap: square"/>
   </g>
   <g id="line2d_50">
    <path d="M 609.245018 489.070814 
L 609.245018 477.018774 
" clip-path="url(#pd7ca48b695)" style="fill: none; stroke: #ffffff; stroke-width: 2; stroke-linecap: square"/>
   </g>
   <g id="line2d_51">
    <path d="M 603.218998 483.044794 
L 615.271037 483.044794 
" clip-path="url(#pd7ca48b695)" style="fill: none; stroke: #ffffff; stroke-width: 2; stroke-linecap: square"/>
   </g>
   <g id="text_19">
    <g clip-path="url(#pd7ca48b695)">
     <!-- H -->
     <g transform="translate(604.356814 347.569983)scale(0.13 -0.13)">
      <use xlink:href="#DejaVuSans-48"/>
     </g>
    </g>
   </g>
   <g id="line2d_52">
    <path d="M 655.599017 489.070814 
L 655.599017 477.018774 
" clip-path="url(#pd7ca48b695)" style="fill: none; stroke: #ffffff; stroke-width: 2; stroke-linecap: square"/>
   </g>
   <g id="line2d_53">
    <path d="M 649.572997 483.044794 
L 661.625037 483.044794 
" clip-path="url(#pd7ca48b695)" style="fill: none; stroke: #ffffff; stroke-width: 2; stroke-linecap: square"/>
   </g>
   <g id="text_20">
    <g clip-path="url(#pd7ca48b695)">
     <!-- 0.00422 -->
     <g transform="translate(685.411766 494.291323)scale(0.08 -0.08)">
      <use xlink:href="#DejaVuSans-30"/>
      <use xlink:href="#DejaVuSans-2e" x="63.623047"/>
      <use xlink:href="#DejaVuSans-30" x="95.410156"/>
      <use xlink:href="#DejaVuSans-30" x="159.033203"/>
      <use xlink:href="#DejaVuSans-34" x="222.65625"/>
      <use xlink:href="#DejaVuSans-32" x="286.279297"/>
      <use xlink:href="#DejaVuSans-32" x="349.902344"/>
     </g>
    </g>
   </g>
   <g id="text_21">
    <g clip-path="url(#pd7ca48b695)">
     <!-- $\mathrm{R_Z}$ -->
     <g transform="translate(694.023016 482.112466)scale(0.13 -0.13)">
      <use xlink:href="#DejaVuSans-52" transform="translate(0 0.09375)"/>
      <use xlink:href="#DejaVuSans-5a" transform="translate(70.439453 -16.3125)scale(0.7)"/>
     </g>
    </g>
   </g>
   <g id="line2d_54">
    <path d="M 748.307016 489.070814 
L 748.307016 477.018774 
" clip-path="url(#pd7ca48b695)" style="fill: none; stroke: #ffffff; stroke-width: 2; stroke-linecap: square"/>
   </g>
   <g id="line2d_55">
    <path d="M 742.280996 483.044794 
L 754.333036 483.044794 
" clip-path="url(#pd7ca48b695)" style="fill: none; stroke: #ffffff; stroke-width: 2; stroke-linecap: square"/>
   </g>
   <g id="text_22">
    <g clip-path="url(#pd7ca48b695)">
     <!-- H -->
     <g transform="translate(789.772812 301.215984)scale(0.13 -0.13)">
      <use xlink:href="#DejaVuSans-48"/>
     </g>
    </g>
   </g>
   <g id="line2d_56">
    <path d="M 841.015014 489.070814 
L 841.015014 477.018774 
" clip-path="url(#pd7ca48b695)" style="fill: none; stroke: #ffffff; stroke-width: 2; stroke-linecap: square"/>
   </g>
   <g id="line2d_57">
    <path d="M 834.988995 483.044794 
L 847.041034 483.044794 
" clip-path="url(#pd7ca48b695)" style="fill: none; stroke: #ffffff; stroke-width: 2; stroke-linecap: square"/>
   </g>
   <g id="text_23">
    <g clip-path="url(#pd7ca48b695)">
     <!-- $\mathrm{S^\dagger}$ -->
     <g transform="translate(878.919014 301.215984)scale(0.13 -0.13)">
      <defs>
       <path id="DejaVuSans-2020" d="M 1325 4666 
L 1875 4666 
L 1875 3353 
L 3022 3353 
L 3022 2875 
L 1875 2875 
L 1875 -616 
L 1325 -616 
L 1325 2875 
L 178 2875 
L 178 3353 
L 1325 3353 
L 1325 4666 
z
" transform="scale(0.015625)"/>
      </defs>
      <use xlink:href="#DejaVuSans-53" transform="translate(0 0.684375)"/>
      <use xlink:href="#DejaVuSans-2020" transform="translate(78.071289 38.965625)scale(0.7)"/>
     </g>
    </g>
   </g>
   <g id="text_24">
    <g clip-path="url(#pd7ca48b695)">
     <!-- H -->
     <g transform="translate(882.480811 254.861984)scale(0.13 -0.13)">
      <use xlink:href="#DejaVuSans-48"/>
     </g>
    </g>
   </g>
   <g id="text_25">
    <g clip-path="url(#pd7ca48b695)">
     <!-- H -->
     <g transform="translate(882.480811 486.631981)scale(0.13 -0.13)">
      <use xlink:href="#DejaVuSans-48"/>
     </g>
    </g>
   </g>
   <g id="text_26">
    <g clip-path="url(#pd7ca48b695)">
     <!-- $\mathrm{S^\dagger}$ -->
     <g transform="translate(925.273013 254.861984)scale(0.13 -0.13)">
      <use xlink:href="#DejaVuSans-53" transform="translate(0 0.684375)"/>
      <use xlink:href="#DejaVuSans-2020" transform="translate(78.071289 38.965625)scale(0.7)"/>
     </g>
    </g>
   </g>
   <g id="line2d_58">
    <path d="M 933.723013 535.424813 
L 933.723013 523.372773 
" clip-path="url(#pd7ca48b695)" style="fill: none; stroke: #ffffff; stroke-width: 2; stroke-linecap: square"/>
   </g>
   <g id="line2d_59">
    <path d="M 927.696993 529.398793 
L 939.749033 529.398793 
" clip-path="url(#pd7ca48b695)" style="fill: none; stroke: #ffffff; stroke-width: 2; stroke-linecap: square"/>
   </g>
   <g id="text_27">
    <g clip-path="url(#pd7ca48b695)">
     <!-- H -->
     <g transform="translate(928.83481 301.215984)scale(0.13 -0.13)">
      <use xlink:href="#DejaVuSans-48"/>
     </g>
    </g>
   </g>
   <g id="line2d_60">
    <path d="M 980.077013 535.424813 
L 980.077013 523.372773 
" clip-path="url(#pd7ca48b695)" style="fill: none; stroke: #ffffff; stroke-width: 2; stroke-linecap: square"/>
   </g>
   <g id="line2d_61">
    <path d="M 974.050993 529.398793 
L 986.103032 529.398793 
" clip-path="url(#pd7ca48b695)" style="fill: none; stroke: #ffffff; stroke-width: 2; stroke-linecap: square"/>
   </g>
   <g id="text_28">
    <g clip-path="url(#pd7ca48b695)">
     <!-- 0.0211 -->
     <g transform="translate(1012.434762 540.645323)scale(0.08 -0.08)">
      <use xlink:href="#DejaVuSans-30"/>
      <use xlink:href="#DejaVuSans-2e" x="63.623047"/>
      <use xlink:href="#DejaVuSans-30" x="95.410156"/>
      <use xlink:href="#DejaVuSans-32" x="159.033203"/>
      <use xlink:href="#DejaVuSans-31" x="222.65625"/>
      <use xlink:href="#DejaVuSans-31" x="286.279297"/>
     </g>
    </g>
   </g>
   <g id="text_29">
    <g clip-path="url(#pd7ca48b695)">
     <!-- $\mathrm{R_Z}$ -->
     <g transform="translate(1018.501012 528.466466)scale(0.13 -0.13)">
      <use xlink:href="#DejaVuSans-52" transform="translate(0 0.09375)"/>
      <use xlink:href="#DejaVuSans-5a" transform="translate(70.439453 -16.3125)scale(0.7)"/>
     </g>
    </g>
   </g>
   <g id="line2d_62">
    <path d="M 1072.785011 535.424813 
L 1072.785011 523.372773 
" clip-path="url(#pd7ca48b695)" style="fill: none; stroke: #ffffff; stroke-width: 2; stroke-linecap: square"/>
   </g>
   <g id="line2d_63">
    <path d="M 1066.758991 529.398793 
L 1078.811031 529.398793 
" clip-path="url(#pd7ca48b695)" style="fill: none; stroke: #ffffff; stroke-width: 2; stroke-linecap: square"/>
   </g>
   <g id="line2d_64">
    <path d="M 1119.139011 535.424813 
L 1119.139011 523.372773 
" clip-path="url(#pd7ca48b695)" style="fill: none; stroke: #ffffff; stroke-width: 2; stroke-linecap: square"/>
   </g>
   <g id="line2d_65">
    <path d="M 1113.112991 529.398793 
L 1125.165031 529.398793 
" clip-path="url(#pd7ca48b695)" style="fill: none; stroke: #ffffff; stroke-width: 2; stroke-linecap: square"/>
   </g>
   <g id="line2d_66">
    <path d="M 1119.139011 118.238818 
L 1119.139011 106.186779 
" clip-path="url(#pd7ca48b695)" style="fill: none; stroke: #ffffff; stroke-width: 2; stroke-linecap: square"/>
   </g>
   <g id="line2d_67">
    <path d="M 1113.112991 112.212799 
L 1125.165031 112.212799 
" clip-path="url(#pd7ca48b695)" style="fill: none; stroke: #ffffff; stroke-width: 2; stroke-linecap: square"/>
   </g>
   <g id="line2d_68">
    <path d="M 1165.49301 118.238818 
L 1165.49301 106.186779 
" clip-path="url(#pd7ca48b695)" style="fill: none; stroke: #ffffff; stroke-width: 2; stroke-linecap: square"/>
   </g>
   <g id="line2d_69">
    <path d="M 1159.46699 112.212799 
L 1171.51903 112.212799 
" clip-path="url(#pd7ca48b695)" style="fill: none; stroke: #ffffff; stroke-width: 2; stroke-linecap: square"/>
   </g>
   <g id="text_30">
    <g clip-path="url(#pd7ca48b695)">
     <!-- H -->
     <g transform="translate(1160.604807 486.631981)scale(0.13 -0.13)">
      <use xlink:href="#DejaVuSans-48"/>
     </g>
    </g>
   </g>
   <g id="line2d_70">
    <path d="M 1211.847009 118.238818 
L 1211.847009 106.186779 
" clip-path="url(#pd7ca48b695)" style="fill: none; stroke: #ffffff; stroke-width: 2; stroke-linecap: square"/>
   </g>
   <g id="line2d_71">
    <path d="M 1205.82099 112.212799 
L 1217.873029 112.212799 
" clip-path="url(#pd7ca48b695)" style="fill: none; stroke: #ffffff; stroke-width: 2; stroke-linecap: square"/>
   </g>
   <g id="text_31">
    <g clip-path="url(#pd7ca48b695)">
     <!-- 0.00896 -->
     <g transform="translate(1241.659759 123.459328)scale(0.08 -0.08)">
      <use xlink:href="#DejaVuSans-30"/>
      <use xlink:href="#DejaVuSans-2e" x="63.623047"/>
      <use xlink:href="#DejaVuSans-30" x="95.410156"/>
      <use xlink:href="#DejaVuSans-30" x="159.033203"/>
      <use xlink:href="#DejaVuSans-38" x="222.65625"/>
      <use xlink:href="#DejaVuSans-39" x="286.279297"/>
      <use xlink:href="#DejaVuSans-36" x="349.902344"/>
     </g>
    </g>
   </g>
   <g id="text_32">
    <g clip-path="url(#pd7ca48b695)">
     <!-- $\mathrm{R_Z}$ -->
     <g transform="translate(1250.271009 111.280471)scale(0.13 -0.13)">
      <use xlink:href="#DejaVuSans-52" transform="translate(0 0.09375)"/>
      <use xlink:href="#DejaVuSans-5a" transform="translate(70.439453 -16.3125)scale(0.7)"/>
     </g>
    </g>
   </g>
   <g id="line2d_72">
    <path d="M 1304.555008 118.238818 
L 1304.555008 106.186779 
" clip-path="url(#pd7ca48b695)" style="fill: none; stroke: #ffffff; stroke-width: 2; stroke-linecap: square"/>
   </g>
   <g id="line2d_73">
    <path d="M 1298.528988 112.212799 
L 1310.581028 112.212799 
" clip-path="url(#pd7ca48b695)" style="fill: none; stroke: #ffffff; stroke-width: 2; stroke-linecap: square"/>
   </g>
   <g id="line2d_74">
    <path d="M 1350.909008 118.238818 
L 1350.909008 106.186779 
" clip-path="url(#pd7ca48b695)" style="fill: none; stroke: #ffffff; stroke-width: 2; stroke-linecap: square"/>
   </g>
   <g id="line2d_75">
    <path d="M 1344.882988 112.212799 
L 1356.935028 112.212799 
" clip-path="url(#pd7ca48b695)" style="fill: none; stroke: #ffffff; stroke-width: 2; stroke-linecap: square"/>
   </g>
   <g id="line2d_76">
    <path d="M 1397.263007 257.300817 
L 1397.263007 245.248777 
" clip-path="url(#pd7ca48b695)" style="fill: none; stroke: #ffffff; stroke-width: 2; stroke-linecap: square"/>
   </g>
   <g id="line2d_77">
    <path d="M 1391.236987 251.274797 
L 1403.289027 251.274797 
" clip-path="url(#pd7ca48b695)" style="fill: none; stroke: #ffffff; stroke-width: 2; stroke-linecap: square"/>
   </g>
   <g id="line2d_78">
    <path d="M 1443.617006 118.238818 
L 1443.617006 106.186779 
" clip-path="url(#pd7ca48b695)" style="fill: none; stroke: #ffffff; stroke-width: 2; stroke-linecap: square"/>
   </g>
   <g id="line2d_79">
    <path d="M 1437.590986 112.212799 
L 1449.643026 112.212799 
" clip-path="url(#pd7ca48b695)" style="fill: none; stroke: #ffffff; stroke-width: 2; stroke-linecap: square"/>
   </g>
   <g id="text_33">
    <g clip-path="url(#pd7ca48b695)">
     <!-- 0.12 -->
     <g transform="translate(1481.064756 262.521327)scale(0.08 -0.08)">
      <use xlink:href="#DejaVuSans-30"/>
      <use xlink:href="#DejaVuSans-2e" x="63.623047"/>
      <use xlink:href="#DejaVuSans-31" x="95.410156"/>
      <use xlink:href="#DejaVuSans-32" x="159.033203"/>
     </g>
    </g>
   </g>
   <g id="text_34">
    <g clip-path="url(#pd7ca48b695)">
     <!-- $\mathrm{R_Z}$ -->
     <g transform="translate(1482.041006 250.342469)scale(0.13 -0.13)">
      <use xlink:href="#DejaVuSans-52" transform="translate(0 0.09375)"/>
      <use xlink:href="#DejaVuSans-5a" transform="translate(70.439453 -16.3125)scale(0.7)"/>
     </g>
    </g>
   </g>
   <g id="text_35">
    <g clip-path="url(#pd7ca48b695)">
     <!-- H -->
     <g transform="translate(1485.082803 301.215984)scale(0.13 -0.13)">
      <use xlink:href="#DejaVuSans-48"/>
     </g>
    </g>
   </g>
   <g id="line2d_80">
    <path d="M 1536.325005 257.300817 
L 1536.325005 245.248777 
" clip-path="url(#pd7ca48b695)" style="fill: none; stroke: #ffffff; stroke-width: 2; stroke-linecap: square"/>
   </g>
   <g id="line2d_81">
    <path d="M 1530.298985 251.274797 
L 1542.351025 251.274797 
" clip-path="url(#pd7ca48b695)" style="fill: none; stroke: #ffffff; stroke-width: 2; stroke-linecap: square"/>
   </g>
   <g id="text_36">
    <g clip-path="url(#pd7ca48b695)">
     <!-- $-$0.78 -->
     <g transform="translate(1570.719005 262.521327)scale(0.08 -0.08)">
      <defs>
       <path id="DejaVuSans-2212" d="M 678 2272 
L 4684 2272 
L 4684 1741 
L 678 1741 
L 678 2272 
z
" transform="scale(0.015625)"/>
      </defs>
      <use xlink:href="#DejaVuSans-2212" transform="translate(0 0.78125)"/>
      <use xlink:href="#DejaVuSans-30" transform="translate(83.789062 0.78125)"/>
      <use xlink:href="#DejaVuSans-2e" transform="translate(147.412109 0.78125)"/>
      <use xlink:href="#DejaVuSans-37" transform="translate(171.449219 0.78125)"/>
      <use xlink:href="#DejaVuSans-38" transform="translate(235.072266 0.78125)"/>
     </g>
    </g>
   </g>
   <g id="text_37">
    <g clip-path="url(#pd7ca48b695)">
     <!-- $\mathrm{R_Z}$ -->
     <g transform="translate(1574.749005 250.342469)scale(0.13 -0.13)">
      <use xlink:href="#DejaVuSans-52" transform="translate(0 0.09375)"/>
      <use xlink:href="#DejaVuSans-5a" transform="translate(70.439453 -16.3125)scale(0.7)"/>
     </g>
    </g>
   </g>
   <g id="line2d_82">
    <path d="M 1629.033004 257.300817 
L 1629.033004 245.248777 
" clip-path="url(#pd7ca48b695)" style="fill: none; stroke: #ffffff; stroke-width: 2; stroke-linecap: square"/>
   </g>
   <g id="line2d_83">
    <path d="M 1623.006984 251.274797 
L 1635.059024 251.274797 
" clip-path="url(#pd7ca48b695)" style="fill: none; stroke: #ffffff; stroke-width: 2; stroke-linecap: square"/>
   </g>
   <g id="line2d_84">
    <path d="M 1675.387003 257.300817 
L 1675.387003 245.248777 
" clip-path="url(#pd7ca48b695)" style="fill: none; stroke: #ffffff; stroke-width: 2; stroke-linecap: square"/>
   </g>
   <g id="line2d_85">
    <path d="M 1669.360983 251.274797 
L 1681.413023 251.274797 
" clip-path="url(#pd7ca48b695)" style="fill: none; stroke: #ffffff; stroke-width: 2; stroke-linecap: square"/>
   </g>
   <g id="line2d_86">
    <path d="M 1721.741003 257.300817 
L 1721.741003 245.248777 
" clip-path="url(#pd7ca48b695)" style="fill: none; stroke: #ffffff; stroke-width: 2; stroke-linecap: square"/>
   </g>
   <g id="line2d_87">
    <path d="M 1715.714983 251.274797 
L 1727.767023 251.274797 
" clip-path="url(#pd7ca48b695)" style="fill: none; stroke: #ffffff; stroke-width: 2; stroke-linecap: square"/>
   </g>
   <g id="line2d_88">
    <path d="M 1768.095002 257.300817 
L 1768.095002 245.248777 
" clip-path="url(#pd7ca48b695)" style="fill: none; stroke: #ffffff; stroke-width: 2; stroke-linecap: square"/>
   </g>
   <g id="line2d_89">
    <path d="M 1762.068982 251.274797 
L 1774.121022 251.274797 
" clip-path="url(#pd7ca48b695)" style="fill: none; stroke: #ffffff; stroke-width: 2; stroke-linecap: square"/>
   </g>
   <g id="text_38">
    <g clip-path="url(#pd7ca48b695)">
     <!-- $-$0.018 -->
     <g transform="translate(1799.609001 262.521327)scale(0.08 -0.08)">
      <use xlink:href="#DejaVuSans-2212" transform="translate(0 0.78125)"/>
      <use xlink:href="#DejaVuSans-30" transform="translate(83.789062 0.78125)"/>
      <use xlink:href="#DejaVuSans-2e" transform="translate(147.412109 0.78125)"/>
      <use xlink:href="#DejaVuSans-30" transform="translate(179.199219 0.78125)"/>
      <use xlink:href="#DejaVuSans-31" transform="translate(242.822266 0.78125)"/>
      <use xlink:href="#DejaVuSans-38" transform="translate(306.445312 0.78125)"/>
     </g>
    </g>
   </g>
   <g id="text_39">
    <g clip-path="url(#pd7ca48b695)">
     <!-- $\mathrm{R_Z}$ -->
     <g transform="translate(1806.519001 250.342469)scale(0.13 -0.13)">
      <use xlink:href="#DejaVuSans-52" transform="translate(0 0.09375)"/>
      <use xlink:href="#DejaVuSans-5a" transform="translate(70.439453 -16.3125)scale(0.7)"/>
     </g>
    </g>
   </g>
   <g id="line2d_90">
    <path d="M 1860.803001 257.300817 
L 1860.803001 245.248777 
" clip-path="url(#pd7ca48b695)" style="fill: none; stroke: #ffffff; stroke-width: 2; stroke-linecap: square"/>
   </g>
   <g id="line2d_91">
    <path d="M 1854.776981 251.274797 
L 1866.829021 251.274797 
" clip-path="url(#pd7ca48b695)" style="fill: none; stroke: #ffffff; stroke-width: 2; stroke-linecap: square"/>
   </g>
   <g id="text_40">
    <g clip-path="url(#pd7ca48b695)">
     <!-- H -->
     <g transform="translate(1902.268797 486.631981)scale(0.13 -0.13)">
      <use xlink:href="#DejaVuSans-48"/>
     </g>
    </g>
   </g>
   <g id="line2d_92">
    <path d="M 1907.157 257.300817 
L 1907.157 245.248777 
" clip-path="url(#pd7ca48b695)" style="fill: none; stroke: #ffffff; stroke-width: 2; stroke-linecap: square"/>
   </g>
   <g id="line2d_93">
    <path d="M 1901.13098 251.274797 
L 1913.18302 251.274797 
" clip-path="url(#pd7ca48b695)" style="fill: none; stroke: #ffffff; stroke-width: 2; stroke-linecap: square"/>
   </g>
   <g id="line2d_94">
    <path d="M 1953.511 257.300817 
L 1953.511 245.248777 
" clip-path="url(#pd7ca48b695)" style="fill: none; stroke: #ffffff; stroke-width: 2; stroke-linecap: square"/>
   </g>
   <g id="line2d_95">
    <path d="M 1947.48498 251.274797 
L 1959.53702 251.274797 
" clip-path="url(#pd7ca48b695)" style="fill: none; stroke: #ffffff; stroke-width: 2; stroke-linecap: square"/>
   </g>
   <g id="line2d_96">
    <path d="M 1999.864999 257.300817 
L 1999.864999 245.248777 
" clip-path="url(#pd7ca48b695)" style="fill: none; stroke: #ffffff; stroke-width: 2; stroke-linecap: square"/>
   </g>
   <g id="line2d_97">
    <path d="M 1993.838979 251.274797 
L 2005.891019 251.274797 
" clip-path="url(#pd7ca48b695)" style="fill: none; stroke: #ffffff; stroke-width: 2; stroke-linecap: square"/>
   </g>
   <g id="text_41">
    <g clip-path="url(#pd7ca48b695)">
     <!-- H -->
     <g transform="translate(2041.330795 347.569983)scale(0.13 -0.13)">
      <use xlink:href="#DejaVuSans-48"/>
     </g>
    </g>
   </g>
  </g>
 </g>
 <defs>
  <clipPath id="pd7ca48b695">
   <rect x="295.034664" y="75.129599" width="1781.777974" height="482.081594"/>
  </clipPath>
 </defs>
</svg>
