<?xml version="1.0" encoding="utf-8" standalone="no"?>
<!DOCTYPE svg PUBLIC "-//W3C//DTD SVG 1.1//EN"
  "http://www.w3.org/Graphics/SVG/1.1/DTD/svg11.dtd">
<svg xmlns:xlink="http://www.w3.org/1999/xlink" width="2253.797369pt" height="626.079992pt" viewBox="0 0 2253.797369 626.079992" xmlns="http://www.w3.org/2000/svg" version="1.1">
 <metadata>
  <rdf:RDF xmlns:dc="http://purl.org/dc/elements/1.1/" xmlns:cc="http://creativecommons.org/ns#" xmlns:rdf="http://www.w3.org/1999/02/22-rdf-syntax-ns#">
   <cc:Work>
    <dc:type rdf:resource="http://purl.org/dc/dcmitype/StillImage"/>
    <dc:date>2022-05-22T13:42:29.661484</dc:date>
    <dc:format>image/svg+xml</dc:format>
    <dc:creator>
     <cc:Agent>
      <dc:title>Matplotlib v3.5.1, https://matplotlib.org/</dc:title>
     </cc:Agent>
    </dc:creator>
   </cc:Work>
  </rdf:RDF>
 </metadata>
 <defs>
  <style type="text/css">*{stroke-linejoin: round; stroke-linecap: butt}</style>
 </defs>
 <g id="figure_1">
  <g id="patch_1">
   <path d="M 0 626.079992 
L 2253.797369 626.079992 
L 2253.797369 0 
L 0 0 
z
" style="fill: #ffffff"/>
  </g>
  <g id="axes_1">
   <g id="line2d_1">
    <path d="M 344.768361 112.212799 
L 2018.147739 112.212799 
" clip-path="url(#p1cba94321a)" style="fill: none; stroke: #000000; stroke-width: 2; stroke-linecap: square"/>
   </g>
   <g id="line2d_2">
    <path d="M 344.768361 158.566798 
L 2018.147739 158.566798 
" clip-path="url(#p1cba94321a)" style="fill: none; stroke: #000000; stroke-width: 2; stroke-linecap: square"/>
   </g>
   <g id="line2d_3">
    <path d="M 344.768361 204.920797 
L 2018.147739 204.920797 
" clip-path="url(#p1cba94321a)" style="fill: none; stroke: #000000; stroke-width: 2; stroke-linecap: square"/>
   </g>
   <g id="line2d_4">
    <path d="M 344.768361 251.274797 
L 2018.147739 251.274797 
" clip-path="url(#p1cba94321a)" style="fill: none; stroke: #000000; stroke-width: 2; stroke-linecap: square"/>
   </g>
   <g id="line2d_5">
    <path d="M 344.768361 297.628796 
L 2018.147739 297.628796 
" clip-path="url(#p1cba94321a)" style="fill: none; stroke: #000000; stroke-width: 2; stroke-linecap: square"/>
   </g>
   <g id="line2d_6">
    <path d="M 344.768361 343.982795 
L 2018.147739 343.982795 
" clip-path="url(#p1cba94321a)" style="fill: none; stroke: #000000; stroke-width: 2; stroke-linecap: square"/>
   </g>
   <g id="line2d_7">
    <path d="M 344.768361 390.336795 
L 2018.147739 390.336795 
" clip-path="url(#p1cba94321a)" style="fill: none; stroke: #000000; stroke-width: 2; stroke-linecap: square"/>
   </g>
   <g id="line2d_8">
    <path d="M 344.768361 436.690794 
L 2018.147739 436.690794 
" clip-path="url(#p1cba94321a)" style="fill: none; stroke: #000000; stroke-width: 2; stroke-linecap: square"/>
   </g>
   <g id="line2d_9">
    <path d="M 344.768361 483.044794 
L 2018.147739 483.044794 
" clip-path="url(#p1cba94321a)" style="fill: none; stroke: #000000; stroke-width: 2; stroke-linecap: square"/>
   </g>
   <g id="line2d_10">
    <path d="M 344.768361 529.398793 
L 2018.147739 529.398793 
" clip-path="url(#p1cba94321a)" style="fill: none; stroke: #000000; stroke-width: 2; stroke-linecap: square"/>
   </g>
   <g id="line2d_11">
    <path d="M 462.507519 529.398793 
L 462.507519 343.982795 
" clip-path="url(#p1cba94321a)" style="fill: none; stroke: #000000; stroke-width: 2; stroke-linecap: square"/>
   </g>
   <g id="line2d_12">
    <path d="M 508.861519 529.398793 
L 508.861519 390.336795 
" clip-path="url(#p1cba94321a)" style="fill: none; stroke: #000000; stroke-width: 2; stroke-linecap: square"/>
   </g>
   <g id="line2d_13">
    <path d="M 555.215518 529.398793 
L 555.215518 483.044794 
" clip-path="url(#p1cba94321a)" style="fill: none; stroke: #000000; stroke-width: 2; stroke-linecap: square"/>
   </g>
   <g id="line2d_14">
    <path d="M 647.923517 529.398793 
L 647.923517 483.044794 
" clip-path="url(#p1cba94321a)" style="fill: none; stroke: #000000; stroke-width: 2; stroke-linecap: square"/>
   </g>
   <g id="line2d_15">
    <path d="M 694.277516 529.398793 
L 694.277516 390.336795 
" clip-path="url(#p1cba94321a)" style="fill: none; stroke: #000000; stroke-width: 2; stroke-linecap: square"/>
   </g>
   <g id="line2d_16">
    <path d="M 740.631516 483.044794 
L 740.631516 297.628796 
" clip-path="url(#p1cba94321a)" style="fill: none; stroke: #000000; stroke-width: 2; stroke-linecap: square"/>
   </g>
   <g id="line2d_17">
    <path d="M 786.985515 529.398793 
L 786.985515 343.982795 
" clip-path="url(#p1cba94321a)" style="fill: none; stroke: #000000; stroke-width: 2; stroke-linecap: square"/>
   </g>
   <g id="line2d_18">
    <path d="M 833.339515 390.336795 
L 833.339515 251.274797 
" clip-path="url(#p1cba94321a)" style="fill: none; stroke: #000000; stroke-width: 2; stroke-linecap: square"/>
   </g>
   <g id="line2d_19">
    <path d="M 926.047513 390.336795 
L 926.047513 204.920797 
" clip-path="url(#p1cba94321a)" style="fill: none; stroke: #000000; stroke-width: 2; stroke-linecap: square"/>
   </g>
   <g id="line2d_20">
    <path d="M 972.401513 483.044794 
L 972.401513 297.628796 
" clip-path="url(#p1cba94321a)" style="fill: none; stroke: #000000; stroke-width: 2; stroke-linecap: square"/>
   </g>
   <g id="line2d_21">
    <path d="M 1065.109511 390.336795 
L 1065.109511 158.566798 
" clip-path="url(#p1cba94321a)" style="fill: none; stroke: #000000; stroke-width: 2; stroke-linecap: square"/>
   </g>
   <g id="line2d_22">
    <path d="M 1111.463511 390.336795 
L 1111.463511 112.212799 
" clip-path="url(#p1cba94321a)" style="fill: none; stroke: #000000; stroke-width: 2; stroke-linecap: square"/>
   </g>
   <g id="line2d_23">
    <path d="M 1157.81751 529.398793 
L 1157.81751 343.982795 
" clip-path="url(#p1cba94321a)" style="fill: none; stroke: #000000; stroke-width: 2; stroke-linecap: square"/>
   </g>
   <g id="line2d_24">
    <path d="M 1296.879508 483.044794 
L 1296.879508 343.982795 
" clip-path="url(#p1cba94321a)" style="fill: none; stroke: #000000; stroke-width: 2; stroke-linecap: square"/>
   </g>
   <g id="line2d_25">
    <path d="M 1343.233508 390.336795 
L 1343.233508 112.212799 
" clip-path="url(#p1cba94321a)" style="fill: none; stroke: #000000; stroke-width: 2; stroke-linecap: square"/>
   </g>
   <g id="line2d_26">
    <path d="M 1389.587507 436.690794 
L 1389.587507 343.982795 
" clip-path="url(#p1cba94321a)" style="fill: none; stroke: #000000; stroke-width: 2; stroke-linecap: square"/>
   </g>
   <g id="line2d_27">
    <path d="M 1435.941507 390.336795 
L 1435.941507 158.566798 
" clip-path="url(#p1cba94321a)" style="fill: none; stroke: #000000; stroke-width: 2; stroke-linecap: square"/>
   </g>
   <g id="line2d_28">
    <path d="M 1482.295506 390.336795 
L 1482.295506 204.920797 
" clip-path="url(#p1cba94321a)" style="fill: none; stroke: #000000; stroke-width: 2; stroke-linecap: square"/>
   </g>
   <g id="line2d_29">
    <path d="M 1528.649505 390.336795 
L 1528.649505 251.274797 
" clip-path="url(#p1cba94321a)" style="fill: none; stroke: #000000; stroke-width: 2; stroke-linecap: square"/>
   </g>
   <g id="line2d_30">
    <path d="M 1575.003505 390.336795 
L 1575.003505 343.982795 
" clip-path="url(#p1cba94321a)" style="fill: none; stroke: #000000; stroke-width: 2; stroke-linecap: square"/>
   </g>
   <g id="line2d_31">
    <path d="M 1621.357504 297.628796 
L 1621.357504 251.274797 
" clip-path="url(#p1cba94321a)" style="fill: none; stroke: #000000; stroke-width: 2; stroke-linecap: square"/>
   </g>
   <g id="line2d_32">
    <path d="M 1667.711503 390.336795 
L 1667.711503 343.982795 
" clip-path="url(#p1cba94321a)" style="fill: none; stroke: #000000; stroke-width: 2; stroke-linecap: square"/>
   </g>
   <g id="line2d_33">
    <path d="M 1714.065503 436.690794 
L 1714.065503 343.982795 
" clip-path="url(#p1cba94321a)" style="fill: none; stroke: #000000; stroke-width: 2; stroke-linecap: square"/>
   </g>
   <g id="line2d_34">
    <path d="M 1714.065503 297.628796 
L 1714.065503 251.274797 
" clip-path="url(#p1cba94321a)" style="fill: none; stroke: #000000; stroke-width: 2; stroke-linecap: square"/>
   </g>
   <g id="line2d_35">
    <path d="M 1760.419502 483.044794 
L 1760.419502 343.982795 
" clip-path="url(#p1cba94321a)" style="fill: none; stroke: #000000; stroke-width: 2; stroke-linecap: square"/>
   </g>
   <g id="line2d_36">
    <path d="M 1806.773502 529.398793 
L 1806.773502 343.982795 
" clip-path="url(#p1cba94321a)" style="fill: none; stroke: #000000; stroke-width: 2; stroke-linecap: square"/>
   </g>
   <g id="line2d_37">
    <path d="M 1899.4815 529.398793 
L 1899.4815 436.690794 
" clip-path="url(#p1cba94321a)" style="fill: none; stroke: #000000; stroke-width: 2; stroke-linecap: square"/>
   </g>
   <g id="line2d_38">
    <path d="M 1992.189499 529.398793 
L 1992.189499 436.690794 
" clip-path="url(#p1cba94321a)" style="fill: none; stroke: #000000; stroke-width: 2; stroke-linecap: square"/>
   </g>
   <g id="text_1">
    <!-- TERMS: 8, DEPTH:27 -->
    <g transform="translate(1093.038652 69.129599)scale(0.12 -0.12)">
     <defs>
      <path id="DejaVuSans-54" d="M -19 4666 
L 3928 4666 
L 3928 4134 
L 2272 4134 
L 2272 0 
L 1638 0 
L 1638 4134 
L -19 4134 
L -19 4666 
z
" transform="scale(0.015625)"/>
      <path id="DejaVuSans-45" d="M 628 4666 
L 3578 4666 
L 3578 4134 
L 1259 4134 
L 1259 2753 
L 3481 2753 
L 3481 2222 
L 1259 2222 
L 1259 531 
L 3634 531 
L 3634 0 
L 628 0 
L 628 4666 
z
" transform="scale(0.015625)"/>
      <path id="DejaVuSans-52" d="M 2841 2188 
Q 3044 2119 3236 1894 
Q 3428 1669 3622 1275 
L 4263 0 
L 3584 0 
L 2988 1197 
Q 2756 1666 2539 1819 
Q 2322 1972 1947 1972 
L 1259 1972 
L 1259 0 
L 628 0 
L 628 4666 
L 2053 4666 
Q 2853 4666 3247 4331 
Q 3641 3997 3641 3322 
Q 3641 2881 3436 2590 
Q 3231 2300 2841 2188 
z
M 1259 4147 
L 1259 2491 
L 2053 2491 
Q 2509 2491 2742 2702 
Q 2975 2913 2975 3322 
Q 2975 3731 2742 3939 
Q 2509 4147 2053 4147 
L 1259 4147 
z
" transform="scale(0.015625)"/>
      <path id="DejaVuSans-4d" d="M 628 4666 
L 1569 4666 
L 2759 1491 
L 3956 4666 
L 4897 4666 
L 4897 0 
L 4281 0 
L 4281 4097 
L 3078 897 
L 2444 897 
L 1241 4097 
L 1241 0 
L 628 0 
L 628 4666 
z
" transform="scale(0.015625)"/>
      <path id="DejaVuSans-53" d="M 3425 4513 
L 3425 3897 
Q 3066 4069 2747 4153 
Q 2428 4238 2131 4238 
Q 1616 4238 1336 4038 
Q 1056 3838 1056 3469 
Q 1056 3159 1242 3001 
Q 1428 2844 1947 2747 
L 2328 2669 
Q 3034 2534 3370 2195 
Q 3706 1856 3706 1288 
Q 3706 609 3251 259 
Q 2797 -91 1919 -91 
Q 1588 -91 1214 -16 
Q 841 59 441 206 
L 441 856 
Q 825 641 1194 531 
Q 1563 422 1919 422 
Q 2459 422 2753 634 
Q 3047 847 3047 1241 
Q 3047 1584 2836 1778 
Q 2625 1972 2144 2069 
L 1759 2144 
Q 1053 2284 737 2584 
Q 422 2884 422 3419 
Q 422 4038 858 4394 
Q 1294 4750 2059 4750 
Q 2388 4750 2728 4690 
Q 3069 4631 3425 4513 
z
" transform="scale(0.015625)"/>
      <path id="DejaVuSans-3a" d="M 750 794 
L 1409 794 
L 1409 0 
L 750 0 
L 750 794 
z
M 750 3309 
L 1409 3309 
L 1409 2516 
L 750 2516 
L 750 3309 
z
" transform="scale(0.015625)"/>
      <path id="DejaVuSans-20" transform="scale(0.015625)"/>
      <path id="DejaVuSans-38" d="M 2034 2216 
Q 1584 2216 1326 1975 
Q 1069 1734 1069 1313 
Q 1069 891 1326 650 
Q 1584 409 2034 409 
Q 2484 409 2743 651 
Q 3003 894 3003 1313 
Q 3003 1734 2745 1975 
Q 2488 2216 2034 2216 
z
M 1403 2484 
Q 997 2584 770 2862 
Q 544 3141 544 3541 
Q 544 4100 942 4425 
Q 1341 4750 2034 4750 
Q 2731 4750 3128 4425 
Q 3525 4100 3525 3541 
Q 3525 3141 3298 2862 
Q 3072 2584 2669 2484 
Q 3125 2378 3379 2068 
Q 3634 1759 3634 1313 
Q 3634 634 3220 271 
Q 2806 -91 2034 -91 
Q 1263 -91 848 271 
Q 434 634 434 1313 
Q 434 1759 690 2068 
Q 947 2378 1403 2484 
z
M 1172 3481 
Q 1172 3119 1398 2916 
Q 1625 2713 2034 2713 
Q 2441 2713 2670 2916 
Q 2900 3119 2900 3481 
Q 2900 3844 2670 4047 
Q 2441 4250 2034 4250 
Q 1625 4250 1398 4047 
Q 1172 3844 1172 3481 
z
" transform="scale(0.015625)"/>
      <path id="DejaVuSans-2c" d="M 750 794 
L 1409 794 
L 1409 256 
L 897 -744 
L 494 -744 
L 750 256 
L 750 794 
z
" transform="scale(0.015625)"/>
      <path id="DejaVuSans-44" d="M 1259 4147 
L 1259 519 
L 2022 519 
Q 2988 519 3436 956 
Q 3884 1394 3884 2338 
Q 3884 3275 3436 3711 
Q 2988 4147 2022 4147 
L 1259 4147 
z
M 628 4666 
L 1925 4666 
Q 3281 4666 3915 4102 
Q 4550 3538 4550 2338 
Q 4550 1131 3912 565 
Q 3275 0 1925 0 
L 628 0 
L 628 4666 
z
" transform="scale(0.015625)"/>
      <path id="DejaVuSans-50" d="M 1259 4147 
L 1259 2394 
L 2053 2394 
Q 2494 2394 2734 2622 
Q 2975 2850 2975 3272 
Q 2975 3691 2734 3919 
Q 2494 4147 2053 4147 
L 1259 4147 
z
M 628 4666 
L 2053 4666 
Q 2838 4666 3239 4311 
Q 3641 3956 3641 3272 
Q 3641 2581 3239 2228 
Q 2838 1875 2053 1875 
L 1259 1875 
L 1259 0 
L 628 0 
L 628 4666 
z
" transform="scale(0.015625)"/>
      <path id="DejaVuSans-48" d="M 628 4666 
L 1259 4666 
L 1259 2753 
L 3553 2753 
L 3553 4666 
L 4184 4666 
L 4184 0 
L 3553 0 
L 3553 2222 
L 1259 2222 
L 1259 0 
L 628 0 
L 628 4666 
z
" transform="scale(0.015625)"/>
      <path id="DejaVuSans-32" d="M 1228 531 
L 3431 531 
L 3431 0 
L 469 0 
L 469 531 
Q 828 903 1448 1529 
Q 2069 2156 2228 2338 
Q 2531 2678 2651 2914 
Q 2772 3150 2772 3378 
Q 2772 3750 2511 3984 
Q 2250 4219 1831 4219 
Q 1534 4219 1204 4116 
Q 875 4013 500 3803 
L 500 4441 
Q 881 4594 1212 4672 
Q 1544 4750 1819 4750 
Q 2544 4750 2975 4387 
Q 3406 4025 3406 3419 
Q 3406 3131 3298 2873 
Q 3191 2616 2906 2266 
Q 2828 2175 2409 1742 
Q 1991 1309 1228 531 
z
" transform="scale(0.015625)"/>
      <path id="DejaVuSans-37" d="M 525 4666 
L 3525 4666 
L 3525 4397 
L 1831 0 
L 1172 0 
L 2766 4134 
L 525 4134 
L 525 4666 
z
" transform="scale(0.015625)"/>
     </defs>
     <use xlink:href="#DejaVuSans-54"/>
     <use xlink:href="#DejaVuSans-45" x="61.083984"/>
     <use xlink:href="#DejaVuSans-52" x="124.267578"/>
     <use xlink:href="#DejaVuSans-4d" x="193.75"/>
     <use xlink:href="#DejaVuSans-53" x="280.029297"/>
     <use xlink:href="#DejaVuSans-3a" x="343.505859"/>
     <use xlink:href="#DejaVuSans-20" x="377.197266"/>
     <use xlink:href="#DejaVuSans-38" x="408.984375"/>
     <use xlink:href="#DejaVuSans-2c" x="472.607422"/>
     <use xlink:href="#DejaVuSans-20" x="504.394531"/>
     <use xlink:href="#DejaVuSans-44" x="536.181641"/>
     <use xlink:href="#DejaVuSans-45" x="613.183594"/>
     <use xlink:href="#DejaVuSans-50" x="676.367188"/>
     <use xlink:href="#DejaVuSans-54" x="736.669922"/>
     <use xlink:href="#DejaVuSans-48" x="797.753906"/>
     <use xlink:href="#DejaVuSans-3a" x="872.949219"/>
     <use xlink:href="#DejaVuSans-32" x="906.640625"/>
     <use xlink:href="#DejaVuSans-37" x="970.263672"/>
    </g>
   </g>
   <g id="patch_2">
    <path d="M 354.734471 359.047845 
L 384.86457 359.047845 
L 384.86457 328.917746 
L 354.734471 328.917746 
z
" clip-path="url(#p1cba94321a)" style="fill: #ffffff; stroke: #000000; stroke-width: 1.5; stroke-linejoin: miter"/>
   </g>
   <g id="patch_3">
    <path d="M 354.734471 266.339846 
L 384.86457 266.339846 
L 384.86457 236.209747 
L 354.734471 236.209747 
z
" clip-path="url(#p1cba94321a)" style="fill: #ffffff; stroke: #000000; stroke-width: 1.5; stroke-linejoin: miter"/>
   </g>
   <g id="patch_4">
    <path d="M 354.734471 127.277848 
L 384.86457 127.277848 
L 384.86457 97.147749 
L 354.734471 97.147749 
z
" clip-path="url(#p1cba94321a)" style="fill: #ffffff; stroke: #000000; stroke-width: 1.5; stroke-linejoin: miter"/>
   </g>
   <g id="patch_5">
    <path d="M 401.08847 359.047845 
L 431.21857 359.047845 
L 431.21857 328.917746 
L 401.08847 328.917746 
z
" clip-path="url(#p1cba94321a)" style="fill: #ffffff; stroke: #000000; stroke-width: 1.5; stroke-linejoin: miter"/>
   </g>
   <g id="patch_6">
    <path d="M 462.507519 348.50231 
C 463.706109 348.50231 464.855768 348.026106 465.703299 347.178575 
C 466.55083 346.331044 467.027034 345.181385 467.027034 343.982795 
C 467.027034 342.784206 466.55083 341.634546 465.703299 340.787016 
C 464.855768 339.939485 463.706109 339.46328 462.507519 339.46328 
C 461.30893 339.46328 460.15927 339.939485 459.31174 340.787016 
C 458.464209 341.634546 457.988005 342.784206 457.988005 343.982795 
C 457.988005 345.181385 458.464209 346.331044 459.31174 347.178575 
C 460.15927 348.026106 461.30893 348.50231 462.507519 348.50231 
z
" clip-path="url(#p1cba94321a)" style="stroke: #000000; stroke-width: 1.5; stroke-linejoin: miter"/>
   </g>
   <g id="patch_7">
    <path d="M 462.507519 539.944328 
C 465.304228 539.944328 467.986767 538.833184 469.964339 536.855612 
C 471.94191 534.878041 473.053054 532.195502 473.053054 529.398793 
C 473.053054 526.602084 471.94191 523.919545 469.964339 521.941974 
C 467.986767 519.964402 465.304228 518.853258 462.507519 518.853258 
C 459.710811 518.853258 457.028272 519.964402 455.0507 521.941974 
C 453.073129 523.919545 451.961985 526.602084 451.961985 529.398793 
C 451.961985 532.195502 453.073129 534.878041 455.0507 536.855612 
C 457.028272 538.833184 459.710811 539.944328 462.507519 539.944328 
z
" clip-path="url(#p1cba94321a)" style="stroke: #000000; stroke-width: 2; stroke-linejoin: miter"/>
   </g>
   <g id="patch_8">
    <path d="M 508.861519 394.85631 
C 510.060108 394.85631 511.209768 394.380105 512.057299 393.532574 
C 512.904829 392.685044 513.381034 391.535384 513.381034 390.336795 
C 513.381034 389.138205 512.904829 387.988546 512.057299 387.141015 
C 511.209768 386.293484 510.060108 385.81728 508.861519 385.81728 
C 507.662929 385.81728 506.51327 386.293484 505.665739 387.141015 
C 504.818209 387.988546 504.342004 389.138205 504.342004 390.336795 
C 504.342004 391.535384 504.818209 392.685044 505.665739 393.532574 
C 506.51327 394.380105 507.662929 394.85631 508.861519 394.85631 
z
" clip-path="url(#p1cba94321a)" style="stroke: #000000; stroke-width: 1.5; stroke-linejoin: miter"/>
   </g>
   <g id="patch_9">
    <path d="M 508.861519 539.944328 
C 511.658227 539.944328 514.340766 538.833184 516.318338 536.855612 
C 518.29591 534.878041 519.407054 532.195502 519.407054 529.398793 
C 519.407054 526.602084 518.29591 523.919545 516.318338 521.941974 
C 514.340766 519.964402 511.658227 518.853258 508.861519 518.853258 
C 506.06481 518.853258 503.382271 519.964402 501.4047 521.941974 
C 499.427128 523.919545 498.315984 526.602084 498.315984 529.398793 
C 498.315984 532.195502 499.427128 534.878041 501.4047 536.855612 
C 503.382271 538.833184 506.06481 539.944328 508.861519 539.944328 
z
" clip-path="url(#p1cba94321a)" style="stroke: #000000; stroke-width: 2; stroke-linejoin: miter"/>
   </g>
   <g id="patch_10">
    <path d="M 555.215518 487.564309 
C 556.414108 487.564309 557.563767 487.088104 558.411298 486.240573 
C 559.258829 485.393043 559.735033 484.243383 559.735033 483.044794 
C 559.735033 481.846204 559.258829 480.696545 558.411298 479.849014 
C 557.563767 479.001483 556.414108 478.525279 555.215518 478.525279 
C 554.016929 478.525279 552.867269 479.001483 552.019739 479.849014 
C 551.172208 480.696545 550.696003 481.846204 550.696003 483.044794 
C 550.696003 484.243383 551.172208 485.393043 552.019739 486.240573 
C 552.867269 487.088104 554.016929 487.564309 555.215518 487.564309 
z
" clip-path="url(#p1cba94321a)" style="stroke: #000000; stroke-width: 1.5; stroke-linejoin: miter"/>
   </g>
   <g id="patch_11">
    <path d="M 555.215518 539.944328 
C 558.012227 539.944328 560.694766 538.833184 562.672337 536.855612 
C 564.649909 534.878041 565.761053 532.195502 565.761053 529.398793 
C 565.761053 526.602084 564.649909 523.919545 562.672337 521.941974 
C 560.694766 519.964402 558.012227 518.853258 555.215518 518.853258 
C 552.41881 518.853258 549.736271 519.964402 547.758699 521.941974 
C 545.781127 523.919545 544.669983 526.602084 544.669983 529.398793 
C 544.669983 532.195502 545.781127 534.878041 547.758699 536.855612 
C 549.736271 538.833184 552.41881 539.944328 555.215518 539.944328 
z
" clip-path="url(#p1cba94321a)" style="stroke: #000000; stroke-width: 2; stroke-linejoin: miter"/>
   </g>
   <g id="patch_12">
    <path d="M 582.976928 544.463843 
L 620.162107 544.463843 
L 620.162107 514.333743 
L 582.976928 514.333743 
z
" clip-path="url(#p1cba94321a)" style="fill: #ffffff; stroke: #000000; stroke-width: 1.5; stroke-linejoin: miter"/>
   </g>
   <g id="patch_13">
    <path d="M 647.923517 487.564309 
C 649.122106 487.564309 650.271766 487.088104 651.119297 486.240573 
C 651.966827 485.393043 652.443032 484.243383 652.443032 483.044794 
C 652.443032 481.846204 651.966827 480.696545 651.119297 479.849014 
C 650.271766 479.001483 649.122106 478.525279 647.923517 478.525279 
C 646.724928 478.525279 645.575268 479.001483 644.727737 479.849014 
C 643.880207 480.696545 643.404002 481.846204 643.404002 483.044794 
C 643.404002 484.243383 643.880207 485.393043 644.727737 486.240573 
C 645.575268 487.088104 646.724928 487.564309 647.923517 487.564309 
z
" clip-path="url(#p1cba94321a)" style="stroke: #000000; stroke-width: 1.5; stroke-linejoin: miter"/>
   </g>
   <g id="patch_14">
    <path d="M 647.923517 539.944328 
C 650.720226 539.944328 653.402765 538.833184 655.380336 536.855612 
C 657.357908 534.878041 658.469052 532.195502 658.469052 529.398793 
C 658.469052 526.602084 657.357908 523.919545 655.380336 521.941974 
C 653.402765 519.964402 650.720226 518.853258 647.923517 518.853258 
C 645.126808 518.853258 642.444269 519.964402 640.466698 521.941974 
C 638.489126 523.919545 637.377982 526.602084 637.377982 529.398793 
C 637.377982 532.195502 638.489126 534.878041 640.466698 536.855612 
C 642.444269 538.833184 645.126808 539.944328 647.923517 539.944328 
z
" clip-path="url(#p1cba94321a)" style="stroke: #000000; stroke-width: 2; stroke-linejoin: miter"/>
   </g>
   <g id="patch_15">
    <path d="M 694.277516 394.85631 
C 695.476106 394.85631 696.625765 394.380105 697.473296 393.532574 
C 698.320827 392.685044 698.797031 391.535384 698.797031 390.336795 
C 698.797031 389.138205 698.320827 387.988546 697.473296 387.141015 
C 696.625765 386.293484 695.476106 385.81728 694.277516 385.81728 
C 693.078927 385.81728 691.929267 386.293484 691.081737 387.141015 
C 690.234206 387.988546 689.758001 389.138205 689.758001 390.336795 
C 689.758001 391.535384 690.234206 392.685044 691.081737 393.532574 
C 691.929267 394.380105 693.078927 394.85631 694.277516 394.85631 
z
" clip-path="url(#p1cba94321a)" style="stroke: #000000; stroke-width: 1.5; stroke-linejoin: miter"/>
   </g>
   <g id="patch_16">
    <path d="M 694.277516 539.944328 
C 697.074225 539.944328 699.756764 538.833184 701.734336 536.855612 
C 703.711907 534.878041 704.823051 532.195502 704.823051 529.398793 
C 704.823051 526.602084 703.711907 523.919545 701.734336 521.941974 
C 699.756764 519.964402 697.074225 518.853258 694.277516 518.853258 
C 691.480808 518.853258 688.798269 519.964402 686.820697 521.941974 
C 684.843126 523.919545 683.731982 526.602084 683.731982 529.398793 
C 683.731982 532.195502 684.843126 534.878041 686.820697 536.855612 
C 688.798269 538.833184 691.480808 539.944328 694.277516 539.944328 
z
" clip-path="url(#p1cba94321a)" style="stroke: #000000; stroke-width: 2; stroke-linejoin: miter"/>
   </g>
   <g id="patch_17">
    <path d="M 740.631516 487.564309 
C 741.830105 487.564309 742.979765 487.088104 743.827295 486.240573 
C 744.674826 485.393043 745.151031 484.243383 745.151031 483.044794 
C 745.151031 481.846204 744.674826 480.696545 743.827295 479.849014 
C 742.979765 479.001483 741.830105 478.525279 740.631516 478.525279 
C 739.432926 478.525279 738.283267 479.001483 737.435736 479.849014 
C 736.588205 480.696545 736.112001 481.846204 736.112001 483.044794 
C 736.112001 484.243383 736.588205 485.393043 737.435736 486.240573 
C 738.283267 487.088104 739.432926 487.564309 740.631516 487.564309 
z
" clip-path="url(#p1cba94321a)" style="stroke: #000000; stroke-width: 1.5; stroke-linejoin: miter"/>
   </g>
   <g id="patch_18">
    <path d="M 740.631516 308.174331 
C 743.428224 308.174331 746.110763 307.063187 748.088335 305.085615 
C 750.065907 303.108044 751.177051 300.425505 751.177051 297.628796 
C 751.177051 294.832088 750.065907 292.149548 748.088335 290.171977 
C 746.110763 288.194405 743.428224 287.083261 740.631516 287.083261 
C 737.834807 287.083261 735.152268 288.194405 733.174697 290.171977 
C 731.197125 292.149548 730.085981 294.832088 730.085981 297.628796 
C 730.085981 300.425505 731.197125 303.108044 733.174697 305.085615 
C 735.152268 307.063187 737.834807 308.174331 740.631516 308.174331 
z
" clip-path="url(#p1cba94321a)" style="stroke: #000000; stroke-width: 2; stroke-linejoin: miter"/>
   </g>
   <g id="patch_19">
    <path d="M 786.985515 348.50231 
C 788.184105 348.50231 789.333764 348.026106 790.181295 347.178575 
C 791.028825 346.331044 791.50503 345.181385 791.50503 343.982795 
C 791.50503 342.784206 791.028825 341.634546 790.181295 340.787016 
C 789.333764 339.939485 788.184105 339.46328 786.985515 339.46328 
C 785.786926 339.46328 784.637266 339.939485 783.789735 340.787016 
C 782.942205 341.634546 782.466 342.784206 782.466 343.982795 
C 782.466 345.181385 782.942205 346.331044 783.789735 347.178575 
C 784.637266 348.026106 785.786926 348.50231 786.985515 348.50231 
z
" clip-path="url(#p1cba94321a)" style="stroke: #000000; stroke-width: 1.5; stroke-linejoin: miter"/>
   </g>
   <g id="patch_20">
    <path d="M 786.985515 539.944328 
C 789.782224 539.944328 792.464763 538.833184 794.442334 536.855612 
C 796.419906 534.878041 797.53105 532.195502 797.53105 529.398793 
C 797.53105 526.602084 796.419906 523.919545 794.442334 521.941974 
C 792.464763 519.964402 789.782224 518.853258 786.985515 518.853258 
C 784.188807 518.853258 781.506268 519.964402 779.528696 521.941974 
C 777.551124 523.919545 776.43998 526.602084 776.43998 529.398793 
C 776.43998 532.195502 777.551124 534.878041 779.528696 536.855612 
C 781.506268 538.833184 784.188807 539.944328 786.985515 539.944328 
z
" clip-path="url(#p1cba94321a)" style="stroke: #000000; stroke-width: 2; stroke-linejoin: miter"/>
   </g>
   <g id="patch_21">
    <path d="M 771.920465 312.693846 
L 802.050565 312.693846 
L 802.050565 282.563746 
L 771.920465 282.563746 
z
" clip-path="url(#p1cba94321a)" style="fill: #ffffff; stroke: #000000; stroke-width: 1.5; stroke-linejoin: miter"/>
   </g>
   <g id="patch_22">
    <path d="M 833.339515 255.794312 
C 834.538104 255.794312 835.687764 255.318107 836.535294 254.470576 
C 837.382825 253.623046 837.859029 252.473386 837.859029 251.274797 
C 837.859029 250.076207 837.382825 248.926548 836.535294 248.079017 
C 835.687764 247.231486 834.538104 246.755282 833.339515 246.755282 
C 832.140925 246.755282 830.991266 247.231486 830.143735 248.079017 
C 829.296204 248.926548 828.82 250.076207 828.82 251.274797 
C 828.82 252.473386 829.296204 253.623046 830.143735 254.470576 
C 830.991266 255.318107 832.140925 255.794312 833.339515 255.794312 
z
" clip-path="url(#p1cba94321a)" style="stroke: #000000; stroke-width: 1.5; stroke-linejoin: miter"/>
   </g>
   <g id="patch_23">
    <path d="M 833.339515 400.88233 
C 836.136223 400.88233 838.818762 399.771186 840.796334 397.793614 
C 842.773905 395.816042 843.885049 393.133503 843.885049 390.336795 
C 843.885049 387.540086 842.773905 384.857547 840.796334 382.879976 
C 838.818762 380.902404 836.136223 379.79126 833.339515 379.79126 
C 830.542806 379.79126 827.860267 380.902404 825.882695 382.879976 
C 823.905124 384.857547 822.79398 387.540086 822.79398 390.336795 
C 822.79398 393.133503 823.905124 395.816042 825.882695 397.793614 
C 827.860267 399.771186 830.542806 400.88233 833.339515 400.88233 
z
" clip-path="url(#p1cba94321a)" style="stroke: #000000; stroke-width: 2; stroke-linejoin: miter"/>
   </g>
   <g id="patch_24">
    <path d="M 818.274465 544.463843 
L 848.404564 544.463843 
L 848.404564 514.333743 
L 818.274465 514.333743 
z
" clip-path="url(#p1cba94321a)" style="fill: #ffffff; stroke: #000000; stroke-width: 1.5; stroke-linejoin: miter"/>
   </g>
   <g id="patch_25">
    <path d="M 864.628464 359.047845 
L 894.758564 359.047845 
L 894.758564 328.917746 
L 864.628464 328.917746 
z
" clip-path="url(#p1cba94321a)" style="fill: #ffffff; stroke: #000000; stroke-width: 1.5; stroke-linejoin: miter"/>
   </g>
   <g id="patch_26">
    <path d="M 926.047513 209.440312 
C 927.246103 209.440312 928.395762 208.964108 929.243293 208.116577 
C 930.090824 207.269046 930.567028 206.119387 930.567028 204.920797 
C 930.567028 203.722208 930.090824 202.572548 929.243293 201.725018 
C 928.395762 200.877487 927.246103 200.401282 926.047513 200.401282 
C 924.848924 200.401282 923.699264 200.877487 922.851734 201.725018 
C 922.004203 202.572548 921.527998 203.722208 921.527998 204.920797 
C 921.527998 206.119387 922.004203 207.269046 922.851734 208.116577 
C 923.699264 208.964108 924.848924 209.440312 926.047513 209.440312 
z
" clip-path="url(#p1cba94321a)" style="stroke: #000000; stroke-width: 1.5; stroke-linejoin: miter"/>
   </g>
   <g id="patch_27">
    <path d="M 926.047513 400.88233 
C 928.844222 400.88233 931.526761 399.771186 933.504333 397.793614 
C 935.481904 395.816042 936.593048 393.133503 936.593048 390.336795 
C 936.593048 387.540086 935.481904 384.857547 933.504333 382.879976 
C 931.526761 380.902404 928.844222 379.79126 926.047513 379.79126 
C 923.250805 379.79126 920.568266 380.902404 918.590694 382.879976 
C 916.613123 384.857547 915.501978 387.540086 915.501978 390.336795 
C 915.501978 393.133503 916.613123 395.816042 918.590694 397.793614 
C 920.568266 399.771186 923.250805 400.88233 926.047513 400.88233 
z
" clip-path="url(#p1cba94321a)" style="stroke: #000000; stroke-width: 2; stroke-linejoin: miter"/>
   </g>
   <g id="patch_28">
    <path d="M 972.401513 487.564309 
C 973.600102 487.564309 974.749762 487.088104 975.597292 486.240573 
C 976.444823 485.393043 976.921028 484.243383 976.921028 483.044794 
C 976.921028 481.846204 976.444823 480.696545 975.597292 479.849014 
C 974.749762 479.001483 973.600102 478.525279 972.401513 478.525279 
C 971.202923 478.525279 970.053264 479.001483 969.205733 479.849014 
C 968.358202 480.696545 967.881998 481.846204 967.881998 483.044794 
C 967.881998 484.243383 968.358202 485.393043 969.205733 486.240573 
C 970.053264 487.088104 971.202923 487.564309 972.401513 487.564309 
z
" clip-path="url(#p1cba94321a)" style="stroke: #000000; stroke-width: 1.5; stroke-linejoin: miter"/>
   </g>
   <g id="patch_29">
    <path d="M 972.401513 308.174331 
C 975.198221 308.174331 977.88076 307.063187 979.858332 305.085615 
C 981.835903 303.108044 982.947048 300.425505 982.947048 297.628796 
C 982.947048 294.832088 981.835903 292.149548 979.858332 290.171977 
C 977.88076 288.194405 975.198221 287.083261 972.401513 287.083261 
C 969.604804 287.083261 966.922265 288.194405 964.944693 290.171977 
C 962.967122 292.149548 961.855978 294.832088 961.855978 297.628796 
C 961.855978 300.425505 962.967122 303.108044 964.944693 305.085615 
C 966.922265 307.063187 969.604804 308.174331 972.401513 308.174331 
z
" clip-path="url(#p1cba94321a)" style="stroke: #000000; stroke-width: 2; stroke-linejoin: miter"/>
   </g>
   <g id="patch_30">
    <path d="M 1003.690462 359.047845 
L 1033.820562 359.047845 
L 1033.820562 328.917746 
L 1003.690462 328.917746 
z
" clip-path="url(#p1cba94321a)" style="fill: #ffffff; stroke: #000000; stroke-width: 1.5; stroke-linejoin: miter"/>
   </g>
   <g id="patch_31">
    <path d="M 1065.109511 163.086313 
C 1066.308101 163.086313 1067.45776 162.610108 1068.305291 161.762578 
C 1069.152822 160.915047 1069.629026 159.765387 1069.629026 158.566798 
C 1069.629026 157.368209 1069.152822 156.218549 1068.305291 155.371018 
C 1067.45776 154.523488 1066.308101 154.047283 1065.109511 154.047283 
C 1063.910922 154.047283 1062.761262 154.523488 1061.913732 155.371018 
C 1061.066201 156.218549 1060.589997 157.368209 1060.589997 158.566798 
C 1060.589997 159.765387 1061.066201 160.915047 1061.913732 161.762578 
C 1062.761262 162.610108 1063.910922 163.086313 1065.109511 163.086313 
z
" clip-path="url(#p1cba94321a)" style="stroke: #000000; stroke-width: 1.5; stroke-linejoin: miter"/>
   </g>
   <g id="patch_32">
    <path d="M 1065.109511 400.88233 
C 1067.90622 400.88233 1070.588759 399.771186 1072.566331 397.793614 
C 1074.543902 395.816042 1075.655046 393.133503 1075.655046 390.336795 
C 1075.655046 387.540086 1074.543902 384.857547 1072.566331 382.879976 
C 1070.588759 380.902404 1067.90622 379.79126 1065.109511 379.79126 
C 1062.312803 379.79126 1059.630264 380.902404 1057.652692 382.879976 
C 1055.675121 384.857547 1054.563977 387.540086 1054.563977 390.336795 
C 1054.563977 393.133503 1055.675121 395.816042 1057.652692 397.793614 
C 1059.630264 399.771186 1062.312803 400.88233 1065.109511 400.88233 
z
" clip-path="url(#p1cba94321a)" style="stroke: #000000; stroke-width: 2; stroke-linejoin: miter"/>
   </g>
   <g id="patch_33">
    <path d="M 1111.463511 116.732313 
C 1112.6621 116.732313 1113.81176 116.256109 1114.65929 115.408578 
C 1115.506821 114.561047 1115.983026 113.411388 1115.983026 112.212799 
C 1115.983026 111.014209 1115.506821 109.86455 1114.65929 109.017019 
C 1113.81176 108.169488 1112.6621 107.693284 1111.463511 107.693284 
C 1110.264921 107.693284 1109.115262 108.169488 1108.267731 109.017019 
C 1107.4202 109.86455 1106.943996 111.014209 1106.943996 112.212799 
C 1106.943996 113.411388 1107.4202 114.561047 1108.267731 115.408578 
C 1109.115262 116.256109 1110.264921 116.732313 1111.463511 116.732313 
z
" clip-path="url(#p1cba94321a)" style="stroke: #000000; stroke-width: 1.5; stroke-linejoin: miter"/>
   </g>
   <g id="patch_34">
    <path d="M 1111.463511 400.88233 
C 1114.260219 400.88233 1116.942758 399.771186 1118.92033 397.793614 
C 1120.897902 395.816042 1122.009046 393.133503 1122.009046 390.336795 
C 1122.009046 387.540086 1120.897902 384.857547 1118.92033 382.879976 
C 1116.942758 380.902404 1114.260219 379.79126 1111.463511 379.79126 
C 1108.666802 379.79126 1105.984263 380.902404 1104.006692 382.879976 
C 1102.02912 384.857547 1100.917976 387.540086 1100.917976 390.336795 
C 1100.917976 393.133503 1102.02912 395.816042 1104.006692 397.793614 
C 1105.984263 399.771186 1108.666802 400.88233 1111.463511 400.88233 
z
" clip-path="url(#p1cba94321a)" style="stroke: #000000; stroke-width: 2; stroke-linejoin: miter"/>
   </g>
   <g id="patch_35">
    <path d="M 1157.81751 533.918308 
C 1159.0161 533.918308 1160.165759 533.442103 1161.01329 532.594573 
C 1161.860821 531.747042 1162.337025 530.597382 1162.337025 529.398793 
C 1162.337025 528.200204 1161.860821 527.050544 1161.01329 526.203013 
C 1160.165759 525.355483 1159.0161 524.879278 1157.81751 524.879278 
C 1156.618921 524.879278 1155.469261 525.355483 1154.621731 526.203013 
C 1153.7742 527.050544 1153.297995 528.200204 1153.297995 529.398793 
C 1153.297995 530.597382 1153.7742 531.747042 1154.621731 532.594573 
C 1155.469261 533.442103 1156.618921 533.918308 1157.81751 533.918308 
z
" clip-path="url(#p1cba94321a)" style="stroke: #000000; stroke-width: 1.5; stroke-linejoin: miter"/>
   </g>
   <g id="patch_36">
    <path d="M 1157.81751 354.52833 
C 1160.614219 354.52833 1163.296758 353.417186 1165.274329 351.439615 
C 1167.251901 349.462043 1168.363045 346.779504 1168.363045 343.982795 
C 1168.363045 341.186087 1167.251901 338.503548 1165.274329 336.525976 
C 1163.296758 334.548405 1160.614219 333.437261 1157.81751 333.437261 
C 1155.020802 333.437261 1152.338263 334.548405 1150.360691 336.525976 
C 1148.383119 338.503548 1147.271975 341.186087 1147.271975 343.982795 
C 1147.271975 346.779504 1148.383119 349.462043 1150.360691 351.439615 
C 1152.338263 353.417186 1155.020802 354.52833 1157.81751 354.52833 
z
" clip-path="url(#p1cba94321a)" style="stroke: #000000; stroke-width: 2; stroke-linejoin: miter"/>
   </g>
   <g id="patch_37">
    <path d="M 1203.297737 405.401845 
L 1251.399282 405.401845 
L 1251.399282 375.271745 
L 1203.297737 375.271745 
z
" clip-path="url(#p1cba94321a)" style="fill: #ffffff; stroke: #000000; stroke-width: 1.5; stroke-linejoin: miter"/>
   </g>
   <g id="patch_38">
    <path d="M 1296.879508 487.564309 
C 1298.078098 487.564309 1299.227757 487.088104 1300.075288 486.240573 
C 1300.922819 485.393043 1301.399023 484.243383 1301.399023 483.044794 
C 1301.399023 481.846204 1300.922819 480.696545 1300.075288 479.849014 
C 1299.227757 479.001483 1298.078098 478.525279 1296.879508 478.525279 
C 1295.680919 478.525279 1294.531259 479.001483 1293.683729 479.849014 
C 1292.836198 480.696545 1292.359993 481.846204 1292.359993 483.044794 
C 1292.359993 484.243383 1292.836198 485.393043 1293.683729 486.240573 
C 1294.531259 487.088104 1295.680919 487.564309 1296.879508 487.564309 
z
" clip-path="url(#p1cba94321a)" style="stroke: #000000; stroke-width: 1.5; stroke-linejoin: miter"/>
   </g>
   <g id="patch_39">
    <path d="M 1296.879508 354.52833 
C 1299.676217 354.52833 1302.358756 353.417186 1304.336328 351.439615 
C 1306.313899 349.462043 1307.425043 346.779504 1307.425043 343.982795 
C 1307.425043 341.186087 1306.313899 338.503548 1304.336328 336.525976 
C 1302.358756 334.548405 1299.676217 333.437261 1296.879508 333.437261 
C 1294.0828 333.437261 1291.400261 334.548405 1289.422689 336.525976 
C 1287.445118 338.503548 1286.333974 341.186087 1286.333974 343.982795 
C 1286.333974 346.779504 1287.445118 349.462043 1289.422689 351.439615 
C 1291.400261 353.417186 1294.0828 354.52833 1296.879508 354.52833 
z
" clip-path="url(#p1cba94321a)" style="stroke: #000000; stroke-width: 2; stroke-linejoin: miter"/>
   </g>
   <g id="patch_40">
    <path d="M 1343.233508 116.732313 
C 1344.432097 116.732313 1345.581757 116.256109 1346.429287 115.408578 
C 1347.276818 114.561047 1347.753023 113.411388 1347.753023 112.212799 
C 1347.753023 111.014209 1347.276818 109.86455 1346.429287 109.017019 
C 1345.581757 108.169488 1344.432097 107.693284 1343.233508 107.693284 
C 1342.034918 107.693284 1340.885259 108.169488 1340.037728 109.017019 
C 1339.190197 109.86455 1338.713993 111.014209 1338.713993 112.212799 
C 1338.713993 113.411388 1339.190197 114.561047 1340.037728 115.408578 
C 1340.885259 116.256109 1342.034918 116.732313 1343.233508 116.732313 
z
" clip-path="url(#p1cba94321a)" style="stroke: #000000; stroke-width: 1.5; stroke-linejoin: miter"/>
   </g>
   <g id="patch_41">
    <path d="M 1343.233508 400.88233 
C 1346.030216 400.88233 1348.712755 399.771186 1350.690327 397.793614 
C 1352.667899 395.816042 1353.779043 393.133503 1353.779043 390.336795 
C 1353.779043 387.540086 1352.667899 384.857547 1350.690327 382.879976 
C 1348.712755 380.902404 1346.030216 379.79126 1343.233508 379.79126 
C 1340.436799 379.79126 1337.75426 380.902404 1335.776689 382.879976 
C 1333.799117 384.857547 1332.687973 387.540086 1332.687973 390.336795 
C 1332.687973 393.133503 1333.799117 395.816042 1335.776689 397.793614 
C 1337.75426 399.771186 1340.436799 400.88233 1343.233508 400.88233 
z
" clip-path="url(#p1cba94321a)" style="stroke: #000000; stroke-width: 2; stroke-linejoin: miter"/>
   </g>
   <g id="patch_42">
    <path d="M 1389.587507 441.210309 
C 1390.786097 441.210309 1391.935756 440.734105 1392.783287 439.886574 
C 1393.630817 439.039043 1394.107022 437.889384 1394.107022 436.690794 
C 1394.107022 435.492205 1393.630817 434.342545 1392.783287 433.495015 
C 1391.935756 432.647484 1390.786097 432.171279 1389.587507 432.171279 
C 1388.388918 432.171279 1387.239258 432.647484 1386.391727 433.495015 
C 1385.544197 434.342545 1385.067992 435.492205 1385.067992 436.690794 
C 1385.067992 437.889384 1385.544197 439.039043 1386.391727 439.886574 
C 1387.239258 440.734105 1388.388918 441.210309 1389.587507 441.210309 
z
" clip-path="url(#p1cba94321a)" style="stroke: #000000; stroke-width: 1.5; stroke-linejoin: miter"/>
   </g>
   <g id="patch_43">
    <path d="M 1389.587507 354.52833 
C 1392.384216 354.52833 1395.066755 353.417186 1397.044326 351.439615 
C 1399.021898 349.462043 1400.133042 346.779504 1400.133042 343.982795 
C 1400.133042 341.186087 1399.021898 338.503548 1397.044326 336.525976 
C 1395.066755 334.548405 1392.384216 333.437261 1389.587507 333.437261 
C 1386.790799 333.437261 1384.108259 334.548405 1382.130688 336.525976 
C 1380.153116 338.503548 1379.041972 341.186087 1379.041972 343.982795 
C 1379.041972 346.779504 1380.153116 349.462043 1382.130688 351.439615 
C 1384.108259 353.417186 1386.790799 354.52833 1389.587507 354.52833 
z
" clip-path="url(#p1cba94321a)" style="stroke: #000000; stroke-width: 2; stroke-linejoin: miter"/>
   </g>
   <g id="patch_44">
    <path d="M 1374.522457 127.277848 
L 1404.652557 127.277848 
L 1404.652557 97.147749 
L 1374.522457 97.147749 
z
" clip-path="url(#p1cba94321a)" style="fill: #ffffff; stroke: #000000; stroke-width: 1.5; stroke-linejoin: miter"/>
   </g>
   <g id="patch_45">
    <path d="M 1435.941507 163.086313 
C 1437.140096 163.086313 1438.289756 162.610108 1439.137286 161.762578 
C 1439.984817 160.915047 1440.461021 159.765387 1440.461021 158.566798 
C 1440.461021 157.368209 1439.984817 156.218549 1439.137286 155.371018 
C 1438.289756 154.523488 1437.140096 154.047283 1435.941507 154.047283 
C 1434.742917 154.047283 1433.593258 154.523488 1432.745727 155.371018 
C 1431.898196 156.218549 1431.421992 157.368209 1431.421992 158.566798 
C 1431.421992 159.765387 1431.898196 160.915047 1432.745727 161.762578 
C 1433.593258 162.610108 1434.742917 163.086313 1435.941507 163.086313 
z
" clip-path="url(#p1cba94321a)" style="stroke: #000000; stroke-width: 1.5; stroke-linejoin: miter"/>
   </g>
   <g id="patch_46">
    <path d="M 1435.941507 400.88233 
C 1438.738215 400.88233 1441.420754 399.771186 1443.398326 397.793614 
C 1445.375897 395.816042 1446.487041 393.133503 1446.487041 390.336795 
C 1446.487041 387.540086 1445.375897 384.857547 1443.398326 382.879976 
C 1441.420754 380.902404 1438.738215 379.79126 1435.941507 379.79126 
C 1433.144798 379.79126 1430.462259 380.902404 1428.484687 382.879976 
C 1426.507116 384.857547 1425.395972 387.540086 1425.395972 390.336795 
C 1425.395972 393.133503 1426.507116 395.816042 1428.484687 397.793614 
C 1430.462259 399.771186 1433.144798 400.88233 1435.941507 400.88233 
z
" clip-path="url(#p1cba94321a)" style="stroke: #000000; stroke-width: 2; stroke-linejoin: miter"/>
   </g>
   <g id="patch_47">
    <path d="M 1482.295506 209.440312 
C 1483.494095 209.440312 1484.643755 208.964108 1485.491286 208.116577 
C 1486.338816 207.269046 1486.815021 206.119387 1486.815021 204.920797 
C 1486.815021 203.722208 1486.338816 202.572548 1485.491286 201.725018 
C 1484.643755 200.877487 1483.494095 200.401282 1482.295506 200.401282 
C 1481.096917 200.401282 1479.947257 200.877487 1479.099726 201.725018 
C 1478.252196 202.572548 1477.775991 203.722208 1477.775991 204.920797 
C 1477.775991 206.119387 1478.252196 207.269046 1479.099726 208.116577 
C 1479.947257 208.964108 1481.096917 209.440312 1482.295506 209.440312 
z
" clip-path="url(#p1cba94321a)" style="stroke: #000000; stroke-width: 1.5; stroke-linejoin: miter"/>
   </g>
   <g id="patch_48">
    <path d="M 1482.295506 400.88233 
C 1485.092214 400.88233 1487.774754 399.771186 1489.752325 397.793614 
C 1491.729897 395.816042 1492.841041 393.133503 1492.841041 390.336795 
C 1492.841041 387.540086 1491.729897 384.857547 1489.752325 382.879976 
C 1487.774754 380.902404 1485.092214 379.79126 1482.295506 379.79126 
C 1479.498797 379.79126 1476.816258 380.902404 1474.838687 382.879976 
C 1472.861115 384.857547 1471.749971 387.540086 1471.749971 390.336795 
C 1471.749971 393.133503 1472.861115 395.816042 1474.838687 397.793614 
C 1476.816258 399.771186 1479.498797 400.88233 1482.295506 400.88233 
z
" clip-path="url(#p1cba94321a)" style="stroke: #000000; stroke-width: 2; stroke-linejoin: miter"/>
   </g>
   <g id="patch_49">
    <path d="M 1528.649505 255.794312 
C 1529.848095 255.794312 1530.997754 255.318107 1531.845285 254.470576 
C 1532.692816 253.623046 1533.16902 252.473386 1533.16902 251.274797 
C 1533.16902 250.076207 1532.692816 248.926548 1531.845285 248.079017 
C 1530.997754 247.231486 1529.848095 246.755282 1528.649505 246.755282 
C 1527.450916 246.755282 1526.301256 247.231486 1525.453726 248.079017 
C 1524.606195 248.926548 1524.12999 250.076207 1524.12999 251.274797 
C 1524.12999 252.473386 1524.606195 253.623046 1525.453726 254.470576 
C 1526.301256 255.318107 1527.450916 255.794312 1528.649505 255.794312 
z
" clip-path="url(#p1cba94321a)" style="stroke: #000000; stroke-width: 1.5; stroke-linejoin: miter"/>
   </g>
   <g id="patch_50">
    <path d="M 1528.649505 400.88233 
C 1531.446214 400.88233 1534.128753 399.771186 1536.106324 397.793614 
C 1538.083896 395.816042 1539.19504 393.133503 1539.19504 390.336795 
C 1539.19504 387.540086 1538.083896 384.857547 1536.106324 382.879976 
C 1534.128753 380.902404 1531.446214 379.79126 1528.649505 379.79126 
C 1525.852797 379.79126 1523.170258 380.902404 1521.192686 382.879976 
C 1519.215115 384.857547 1518.10397 387.540086 1518.10397 390.336795 
C 1518.10397 393.133503 1519.215115 395.816042 1521.192686 397.793614 
C 1523.170258 399.771186 1525.852797 400.88233 1528.649505 400.88233 
z
" clip-path="url(#p1cba94321a)" style="stroke: #000000; stroke-width: 2; stroke-linejoin: miter"/>
   </g>
   <g id="patch_51">
    <path d="M 1559.938455 266.339846 
L 1590.068554 266.339846 
L 1590.068554 236.209747 
L 1559.938455 236.209747 
z
" clip-path="url(#p1cba94321a)" style="fill: #ffffff; stroke: #000000; stroke-width: 1.5; stroke-linejoin: miter"/>
   </g>
   <g id="patch_52">
    <path d="M 1575.003505 394.85631 
C 1576.202094 394.85631 1577.351754 394.380105 1578.199284 393.532574 
C 1579.046815 392.685044 1579.52302 391.535384 1579.52302 390.336795 
C 1579.52302 389.138205 1579.046815 387.988546 1578.199284 387.141015 
C 1577.351754 386.293484 1576.202094 385.81728 1575.003505 385.81728 
C 1573.804915 385.81728 1572.655256 386.293484 1571.807725 387.141015 
C 1570.960194 387.988546 1570.48399 389.138205 1570.48399 390.336795 
C 1570.48399 391.535384 1570.960194 392.685044 1571.807725 393.532574 
C 1572.655256 394.380105 1573.804915 394.85631 1575.003505 394.85631 
z
" clip-path="url(#p1cba94321a)" style="stroke: #000000; stroke-width: 1.5; stroke-linejoin: miter"/>
   </g>
   <g id="patch_53">
    <path d="M 1575.003505 354.52833 
C 1577.800213 354.52833 1580.482752 353.417186 1582.460324 351.439615 
C 1584.437895 349.462043 1585.54904 346.779504 1585.54904 343.982795 
C 1585.54904 341.186087 1584.437895 338.503548 1582.460324 336.525976 
C 1580.482752 334.548405 1577.800213 333.437261 1575.003505 333.437261 
C 1572.206796 333.437261 1569.524257 334.548405 1567.546685 336.525976 
C 1565.569114 338.503548 1564.45797 341.186087 1564.45797 343.982795 
C 1564.45797 346.779504 1565.569114 349.462043 1567.546685 351.439615 
C 1569.524257 353.417186 1572.206796 354.52833 1575.003505 354.52833 
z
" clip-path="url(#p1cba94321a)" style="stroke: #000000; stroke-width: 2; stroke-linejoin: miter"/>
   </g>
   <g id="patch_54">
    <path d="M 1602.764915 359.047845 
L 1639.950093 359.047845 
L 1639.950093 328.917746 
L 1602.764915 328.917746 
z
" clip-path="url(#p1cba94321a)" style="fill: #ffffff; stroke: #000000; stroke-width: 1.5; stroke-linejoin: miter"/>
   </g>
   <g id="patch_55">
    <path d="M 1621.357504 255.794312 
C 1622.556093 255.794312 1623.705753 255.318107 1624.553284 254.470576 
C 1625.400814 253.623046 1625.877019 252.473386 1625.877019 251.274797 
C 1625.877019 250.076207 1625.400814 248.926548 1624.553284 248.079017 
C 1623.705753 247.231486 1622.556093 246.755282 1621.357504 246.755282 
C 1620.158915 246.755282 1619.009255 247.231486 1618.161724 248.079017 
C 1617.314194 248.926548 1616.837989 250.076207 1616.837989 251.274797 
C 1616.837989 252.473386 1617.314194 253.623046 1618.161724 254.470576 
C 1619.009255 255.318107 1620.158915 255.794312 1621.357504 255.794312 
z
" clip-path="url(#p1cba94321a)" style="stroke: #000000; stroke-width: 1.5; stroke-linejoin: miter"/>
   </g>
   <g id="patch_56">
    <path d="M 1621.357504 308.174331 
C 1624.154213 308.174331 1626.836752 307.063187 1628.814323 305.085615 
C 1630.791895 303.108044 1631.903039 300.425505 1631.903039 297.628796 
C 1631.903039 294.832088 1630.791895 292.149548 1628.814323 290.171977 
C 1626.836752 288.194405 1624.154213 287.083261 1621.357504 287.083261 
C 1618.560796 287.083261 1615.878256 288.194405 1613.900685 290.171977 
C 1611.923113 292.149548 1610.811969 294.832088 1610.811969 297.628796 
C 1610.811969 300.425505 1611.923113 303.108044 1613.900685 305.085615 
C 1615.878256 307.063187 1618.560796 308.174331 1621.357504 308.174331 
z
" clip-path="url(#p1cba94321a)" style="stroke: #000000; stroke-width: 2; stroke-linejoin: miter"/>
   </g>
   <g id="patch_57">
    <path d="M 1667.711503 394.85631 
C 1668.910093 394.85631 1670.059752 394.380105 1670.907283 393.532574 
C 1671.754814 392.685044 1672.231018 391.535384 1672.231018 390.336795 
C 1672.231018 389.138205 1671.754814 387.988546 1670.907283 387.141015 
C 1670.059752 386.293484 1668.910093 385.81728 1667.711503 385.81728 
C 1666.512914 385.81728 1665.363254 386.293484 1664.515724 387.141015 
C 1663.668193 387.988546 1663.191989 389.138205 1663.191989 390.336795 
C 1663.191989 391.535384 1663.668193 392.685044 1664.515724 393.532574 
C 1665.363254 394.380105 1666.512914 394.85631 1667.711503 394.85631 
z
" clip-path="url(#p1cba94321a)" style="stroke: #000000; stroke-width: 1.5; stroke-linejoin: miter"/>
   </g>
   <g id="patch_58">
    <path d="M 1667.711503 354.52833 
C 1670.508212 354.52833 1673.190751 353.417186 1675.168323 351.439615 
C 1677.145894 349.462043 1678.257038 346.779504 1678.257038 343.982795 
C 1678.257038 341.186087 1677.145894 338.503548 1675.168323 336.525976 
C 1673.190751 334.548405 1670.508212 333.437261 1667.711503 333.437261 
C 1664.914795 333.437261 1662.232256 334.548405 1660.254684 336.525976 
C 1658.277113 338.503548 1657.165969 341.186087 1657.165969 343.982795 
C 1657.165969 346.779504 1658.277113 349.462043 1660.254684 351.439615 
C 1662.232256 353.417186 1664.914795 354.52833 1667.711503 354.52833 
z
" clip-path="url(#p1cba94321a)" style="stroke: #000000; stroke-width: 2; stroke-linejoin: miter"/>
   </g>
   <g id="patch_59">
    <path d="M 1652.646454 312.693846 
L 1682.776553 312.693846 
L 1682.776553 282.563746 
L 1652.646454 282.563746 
z
" clip-path="url(#p1cba94321a)" style="fill: #ffffff; stroke: #000000; stroke-width: 1.5; stroke-linejoin: miter"/>
   </g>
   <g id="patch_60">
    <path d="M 1714.065503 441.210309 
C 1715.264092 441.210309 1716.413752 440.734105 1717.261282 439.886574 
C 1718.108813 439.039043 1718.585018 437.889384 1718.585018 436.690794 
C 1718.585018 435.492205 1718.108813 434.342545 1717.261282 433.495015 
C 1716.413752 432.647484 1715.264092 432.171279 1714.065503 432.171279 
C 1712.866913 432.171279 1711.717254 432.647484 1710.869723 433.495015 
C 1710.022192 434.342545 1709.545988 435.492205 1709.545988 436.690794 
C 1709.545988 437.889384 1710.022192 439.039043 1710.869723 439.886574 
C 1711.717254 440.734105 1712.866913 441.210309 1714.065503 441.210309 
z
" clip-path="url(#p1cba94321a)" style="stroke: #000000; stroke-width: 1.5; stroke-linejoin: miter"/>
   </g>
   <g id="patch_61">
    <path d="M 1714.065503 354.52833 
C 1716.862211 354.52833 1719.54475 353.417186 1721.522322 351.439615 
C 1723.499894 349.462043 1724.611038 346.779504 1724.611038 343.982795 
C 1724.611038 341.186087 1723.499894 338.503548 1721.522322 336.525976 
C 1719.54475 334.548405 1716.862211 333.437261 1714.065503 333.437261 
C 1711.268794 333.437261 1708.586255 334.548405 1706.608684 336.525976 
C 1704.631112 338.503548 1703.519968 341.186087 1703.519968 343.982795 
C 1703.519968 346.779504 1704.631112 349.462043 1706.608684 351.439615 
C 1708.586255 353.417186 1711.268794 354.52833 1714.065503 354.52833 
z
" clip-path="url(#p1cba94321a)" style="stroke: #000000; stroke-width: 2; stroke-linejoin: miter"/>
   </g>
   <g id="patch_62">
    <path d="M 1714.065503 255.794312 
C 1715.264092 255.794312 1716.413752 255.318107 1717.261282 254.470576 
C 1718.108813 253.623046 1718.585018 252.473386 1718.585018 251.274797 
C 1718.585018 250.076207 1718.108813 248.926548 1717.261282 248.079017 
C 1716.413752 247.231486 1715.264092 246.755282 1714.065503 246.755282 
C 1712.866913 246.755282 1711.717254 247.231486 1710.869723 248.079017 
C 1710.022192 248.926548 1709.545988 250.076207 1709.545988 251.274797 
C 1709.545988 252.473386 1710.022192 253.623046 1710.869723 254.470576 
C 1711.717254 255.318107 1712.866913 255.794312 1714.065503 255.794312 
z
" clip-path="url(#p1cba94321a)" style="stroke: #000000; stroke-width: 1.5; stroke-linejoin: miter"/>
   </g>
   <g id="patch_63">
    <path d="M 1714.065503 308.174331 
C 1716.862211 308.174331 1719.54475 307.063187 1721.522322 305.085615 
C 1723.499894 303.108044 1724.611038 300.425505 1724.611038 297.628796 
C 1724.611038 294.832088 1723.499894 292.149548 1721.522322 290.171977 
C 1719.54475 288.194405 1716.862211 287.083261 1714.065503 287.083261 
C 1711.268794 287.083261 1708.586255 288.194405 1706.608684 290.171977 
C 1704.631112 292.149548 1703.519968 294.832088 1703.519968 297.628796 
C 1703.519968 300.425505 1704.631112 303.108044 1706.608684 305.085615 
C 1708.586255 307.063187 1711.268794 308.174331 1714.065503 308.174331 
z
" clip-path="url(#p1cba94321a)" style="stroke: #000000; stroke-width: 2; stroke-linejoin: miter"/>
   </g>
   <g id="patch_64">
    <path d="M 1760.419502 487.564309 
C 1761.618092 487.564309 1762.767751 487.088104 1763.615282 486.240573 
C 1764.462813 485.393043 1764.939017 484.243383 1764.939017 483.044794 
C 1764.939017 481.846204 1764.462813 480.696545 1763.615282 479.849014 
C 1762.767751 479.001483 1761.618092 478.525279 1760.419502 478.525279 
C 1759.220913 478.525279 1758.071253 479.001483 1757.223723 479.849014 
C 1756.376192 480.696545 1755.899987 481.846204 1755.899987 483.044794 
C 1755.899987 484.243383 1756.376192 485.393043 1757.223723 486.240573 
C 1758.071253 487.088104 1759.220913 487.564309 1760.419502 487.564309 
z
" clip-path="url(#p1cba94321a)" style="stroke: #000000; stroke-width: 1.5; stroke-linejoin: miter"/>
   </g>
   <g id="patch_65">
    <path d="M 1760.419502 354.52833 
C 1763.216211 354.52833 1765.89875 353.417186 1767.876321 351.439615 
C 1769.853893 349.462043 1770.965037 346.779504 1770.965037 343.982795 
C 1770.965037 341.186087 1769.853893 338.503548 1767.876321 336.525976 
C 1765.89875 334.548405 1763.216211 333.437261 1760.419502 333.437261 
C 1757.622794 333.437261 1754.940255 334.548405 1752.962683 336.525976 
C 1750.985111 338.503548 1749.873967 341.186087 1749.873967 343.982795 
C 1749.873967 346.779504 1750.985111 349.462043 1752.962683 351.439615 
C 1754.940255 353.417186 1757.622794 354.52833 1760.419502 354.52833 
z
" clip-path="url(#p1cba94321a)" style="stroke: #000000; stroke-width: 2; stroke-linejoin: miter"/>
   </g>
   <g id="patch_66">
    <path d="M 1806.773502 533.918308 
C 1807.972091 533.918308 1809.121751 533.442103 1809.969281 532.594573 
C 1810.816812 531.747042 1811.293017 530.597382 1811.293017 529.398793 
C 1811.293017 528.200204 1810.816812 527.050544 1809.969281 526.203013 
C 1809.121751 525.355483 1807.972091 524.879278 1806.773502 524.879278 
C 1805.574912 524.879278 1804.425253 525.355483 1803.577722 526.203013 
C 1802.730191 527.050544 1802.253987 528.200204 1802.253987 529.398793 
C 1802.253987 530.597382 1802.730191 531.747042 1803.577722 532.594573 
C 1804.425253 533.442103 1805.574912 533.918308 1806.773502 533.918308 
z
" clip-path="url(#p1cba94321a)" style="stroke: #000000; stroke-width: 1.5; stroke-linejoin: miter"/>
   </g>
   <g id="patch_67">
    <path d="M 1806.773502 354.52833 
C 1809.57021 354.52833 1812.252749 353.417186 1814.230321 351.439615 
C 1816.207892 349.462043 1817.319036 346.779504 1817.319036 343.982795 
C 1817.319036 341.186087 1816.207892 338.503548 1814.230321 336.525976 
C 1812.252749 334.548405 1809.57021 333.437261 1806.773502 333.437261 
C 1803.976793 333.437261 1801.294254 334.548405 1799.316682 336.525976 
C 1797.339111 338.503548 1796.227967 341.186087 1796.227967 343.982795 
C 1796.227967 346.779504 1797.339111 349.462043 1799.316682 351.439615 
C 1801.294254 353.417186 1803.976793 354.52833 1806.773502 354.52833 
z
" clip-path="url(#p1cba94321a)" style="stroke: #000000; stroke-width: 2; stroke-linejoin: miter"/>
   </g>
   <g id="patch_68">
    <path d="M 1838.062451 544.463843 
L 1868.192551 544.463843 
L 1868.192551 514.333743 
L 1838.062451 514.333743 
z
" clip-path="url(#p1cba94321a)" style="fill: #ffffff; stroke: #000000; stroke-width: 1.5; stroke-linejoin: miter"/>
   </g>
   <g id="patch_69">
    <path d="M 1899.4815 441.210309 
C 1900.68009 441.210309 1901.829749 440.734105 1902.67728 439.886574 
C 1903.524811 439.039043 1904.001015 437.889384 1904.001015 436.690794 
C 1904.001015 435.492205 1903.524811 434.342545 1902.67728 433.495015 
C 1901.829749 432.647484 1900.68009 432.171279 1899.4815 432.171279 
C 1898.282911 432.171279 1897.133251 432.647484 1896.285721 433.495015 
C 1895.43819 434.342545 1894.961985 435.492205 1894.961985 436.690794 
C 1894.961985 437.889384 1895.43819 439.039043 1896.285721 439.886574 
C 1897.133251 440.734105 1898.282911 441.210309 1899.4815 441.210309 
z
" clip-path="url(#p1cba94321a)" style="stroke: #000000; stroke-width: 1.5; stroke-linejoin: miter"/>
   </g>
   <g id="patch_70">
    <path d="M 1899.4815 539.944328 
C 1902.278209 539.944328 1904.960748 538.833184 1906.93832 536.855612 
C 1908.915891 534.878041 1910.027035 532.195502 1910.027035 529.398793 
C 1910.027035 526.602084 1908.915891 523.919545 1906.93832 521.941974 
C 1904.960748 519.964402 1902.278209 518.853258 1899.4815 518.853258 
C 1896.684792 518.853258 1894.002253 519.964402 1892.024681 521.941974 
C 1890.04711 523.919545 1888.935966 526.602084 1888.935966 529.398793 
C 1888.935966 532.195502 1890.04711 534.878041 1892.024681 536.855612 
C 1894.002253 538.833184 1896.684792 539.944328 1899.4815 539.944328 
z
" clip-path="url(#p1cba94321a)" style="stroke: #000000; stroke-width: 2; stroke-linejoin: miter"/>
   </g>
   <g id="patch_71">
    <path d="M 1930.77045 544.463843 
L 1960.90055 544.463843 
L 1960.90055 514.333743 
L 1930.77045 514.333743 
z
" clip-path="url(#p1cba94321a)" style="fill: #ffffff; stroke: #000000; stroke-width: 1.5; stroke-linejoin: miter"/>
   </g>
   <g id="patch_72">
    <path d="M 1992.189499 441.210309 
C 1993.388089 441.210309 1994.537748 440.734105 1995.385279 439.886574 
C 1996.232809 439.039043 1996.709014 437.889384 1996.709014 436.690794 
C 1996.709014 435.492205 1996.232809 434.342545 1995.385279 433.495015 
C 1994.537748 432.647484 1993.388089 432.171279 1992.189499 432.171279 
C 1990.99091 432.171279 1989.84125 432.647484 1988.993719 433.495015 
C 1988.146189 434.342545 1987.669984 435.492205 1987.669984 436.690794 
C 1987.669984 437.889384 1988.146189 439.039043 1988.993719 439.886574 
C 1989.84125 440.734105 1990.99091 441.210309 1992.189499 441.210309 
z
" clip-path="url(#p1cba94321a)" style="stroke: #000000; stroke-width: 1.5; stroke-linejoin: miter"/>
   </g>
   <g id="patch_73">
    <path d="M 1992.189499 539.944328 
C 1994.986208 539.944328 1997.668747 538.833184 1999.646318 536.855612 
C 2001.62389 534.878041 2002.735034 532.195502 2002.735034 529.398793 
C 2002.735034 526.602084 2001.62389 523.919545 1999.646318 521.941974 
C 1997.668747 519.964402 1994.986208 518.853258 1992.189499 518.853258 
C 1989.392791 518.853258 1986.710251 519.964402 1984.73268 521.941974 
C 1982.755108 523.919545 1981.643964 526.602084 1981.643964 529.398793 
C 1981.643964 532.195502 1982.755108 534.878041 1984.73268 536.855612 
C 1986.710251 538.833184 1989.392791 539.944328 1992.189499 539.944328 
z
" clip-path="url(#p1cba94321a)" style="stroke: #000000; stroke-width: 2; stroke-linejoin: miter"/>
   </g>
   <g id="text_2">
    <g clip-path="url(#p1cba94321a)">
     <!-- ${q}_{0}$ -->
     <g transform="translate(317.460061 116.663775)scale(0.1625 -0.1625)">
      <defs>
       <path id="DejaVuSans-Oblique-71" d="M 2669 525 
Q 2438 222 2123 65 
Q 1809 -91 1428 -91 
Q 897 -91 595 267 
Q 294 625 294 1253 
Q 294 1759 480 2231 
Q 666 2703 1013 3078 
Q 1238 3322 1530 3453 
Q 1822 3584 2144 3584 
Q 2531 3584 2781 3431 
Q 3031 3278 3144 2969 
L 3244 3494 
L 3822 3494 
L 2888 -1319 
L 2309 -1319 
L 2669 525 
z
M 891 1338 
Q 891 875 1084 633 
Q 1278 391 1644 391 
Q 2188 391 2572 911 
Q 2956 1431 2956 2175 
Q 2956 2625 2757 2864 
Q 2559 3103 2188 3103 
Q 1916 3103 1684 2976 
Q 1453 2850 1281 2606 
Q 1100 2350 995 2006 
Q 891 1663 891 1338 
z
" transform="scale(0.015625)"/>
       <path id="DejaVuSans-30" d="M 2034 4250 
Q 1547 4250 1301 3770 
Q 1056 3291 1056 2328 
Q 1056 1369 1301 889 
Q 1547 409 2034 409 
Q 2525 409 2770 889 
Q 3016 1369 3016 2328 
Q 3016 3291 2770 3770 
Q 2525 4250 2034 4250 
z
M 2034 4750 
Q 2819 4750 3233 4129 
Q 3647 3509 3647 2328 
Q 3647 1150 3233 529 
Q 2819 -91 2034 -91 
Q 1250 -91 836 529 
Q 422 1150 422 2328 
Q 422 3509 836 4129 
Q 1250 4750 2034 4750 
z
" transform="scale(0.015625)"/>
      </defs>
      <use xlink:href="#DejaVuSans-Oblique-71"/>
      <use xlink:href="#DejaVuSans-30" transform="translate(63.476562 -16.40625)scale(0.7)"/>
     </g>
    </g>
   </g>
   <g id="text_3">
    <g clip-path="url(#p1cba94321a)">
     <!-- ${q}_{1}$ -->
     <g transform="translate(317.460061 163.017774)scale(0.1625 -0.1625)">
      <defs>
       <path id="DejaVuSans-31" d="M 794 531 
L 1825 531 
L 1825 4091 
L 703 3866 
L 703 4441 
L 1819 4666 
L 2450 4666 
L 2450 531 
L 3481 531 
L 3481 0 
L 794 0 
L 794 531 
z
" transform="scale(0.015625)"/>
      </defs>
      <use xlink:href="#DejaVuSans-Oblique-71"/>
      <use xlink:href="#DejaVuSans-31" transform="translate(63.476562 -16.40625)scale(0.7)"/>
     </g>
    </g>
   </g>
   <g id="text_4">
    <g clip-path="url(#p1cba94321a)">
     <!-- ${q}_{2}$ -->
     <g transform="translate(317.460061 209.371774)scale(0.1625 -0.1625)">
      <use xlink:href="#DejaVuSans-Oblique-71"/>
      <use xlink:href="#DejaVuSans-32" transform="translate(63.476562 -16.40625)scale(0.7)"/>
     </g>
    </g>
   </g>
   <g id="text_5">
    <g clip-path="url(#p1cba94321a)">
     <!-- ${q}_{3}$ -->
     <g transform="translate(317.460061 255.725773)scale(0.1625 -0.1625)">
      <defs>
       <path id="DejaVuSans-33" d="M 2597 2516 
Q 3050 2419 3304 2112 
Q 3559 1806 3559 1356 
Q 3559 666 3084 287 
Q 2609 -91 1734 -91 
Q 1441 -91 1130 -33 
Q 819 25 488 141 
L 488 750 
Q 750 597 1062 519 
Q 1375 441 1716 441 
Q 2309 441 2620 675 
Q 2931 909 2931 1356 
Q 2931 1769 2642 2001 
Q 2353 2234 1838 2234 
L 1294 2234 
L 1294 2753 
L 1863 2753 
Q 2328 2753 2575 2939 
Q 2822 3125 2822 3475 
Q 2822 3834 2567 4026 
Q 2313 4219 1838 4219 
Q 1578 4219 1281 4162 
Q 984 4106 628 3988 
L 628 4550 
Q 988 4650 1302 4700 
Q 1616 4750 1894 4750 
Q 2613 4750 3031 4423 
Q 3450 4097 3450 3541 
Q 3450 3153 3228 2886 
Q 3006 2619 2597 2516 
z
" transform="scale(0.015625)"/>
      </defs>
      <use xlink:href="#DejaVuSans-Oblique-71"/>
      <use xlink:href="#DejaVuSans-33" transform="translate(63.476562 -16.40625)scale(0.7)"/>
     </g>
    </g>
   </g>
   <g id="text_6">
    <g clip-path="url(#p1cba94321a)">
     <!-- ${q}_{4}$ -->
     <g transform="translate(317.460061 302.079773)scale(0.1625 -0.1625)">
      <defs>
       <path id="DejaVuSans-34" d="M 2419 4116 
L 825 1625 
L 2419 1625 
L 2419 4116 
z
M 2253 4666 
L 3047 4666 
L 3047 1625 
L 3713 1625 
L 3713 1100 
L 3047 1100 
L 3047 0 
L 2419 0 
L 2419 1100 
L 313 1100 
L 313 1709 
L 2253 4666 
z
" transform="scale(0.015625)"/>
      </defs>
      <use xlink:href="#DejaVuSans-Oblique-71"/>
      <use xlink:href="#DejaVuSans-34" transform="translate(63.476562 -16.40625)scale(0.7)"/>
     </g>
    </g>
   </g>
   <g id="text_7">
    <g clip-path="url(#p1cba94321a)">
     <!-- ${q}_{5}$ -->
     <g transform="translate(317.460061 348.433772)scale(0.1625 -0.1625)">
      <defs>
       <path id="DejaVuSans-35" d="M 691 4666 
L 3169 4666 
L 3169 4134 
L 1269 4134 
L 1269 2991 
Q 1406 3038 1543 3061 
Q 1681 3084 1819 3084 
Q 2600 3084 3056 2656 
Q 3513 2228 3513 1497 
Q 3513 744 3044 326 
Q 2575 -91 1722 -91 
Q 1428 -91 1123 -41 
Q 819 9 494 109 
L 494 744 
Q 775 591 1075 516 
Q 1375 441 1709 441 
Q 2250 441 2565 725 
Q 2881 1009 2881 1497 
Q 2881 1984 2565 2268 
Q 2250 2553 1709 2553 
Q 1456 2553 1204 2497 
Q 953 2441 691 2322 
L 691 4666 
z
" transform="scale(0.015625)"/>
      </defs>
      <use xlink:href="#DejaVuSans-Oblique-71"/>
      <use xlink:href="#DejaVuSans-35" transform="translate(63.476562 -16.40625)scale(0.7)"/>
     </g>
    </g>
   </g>
   <g id="text_8">
    <g clip-path="url(#p1cba94321a)">
     <!-- ${q}_{6}$ -->
     <g transform="translate(317.460061 394.787771)scale(0.1625 -0.1625)">
      <defs>
       <path id="DejaVuSans-36" d="M 2113 2584 
Q 1688 2584 1439 2293 
Q 1191 2003 1191 1497 
Q 1191 994 1439 701 
Q 1688 409 2113 409 
Q 2538 409 2786 701 
Q 3034 994 3034 1497 
Q 3034 2003 2786 2293 
Q 2538 2584 2113 2584 
z
M 3366 4563 
L 3366 3988 
Q 3128 4100 2886 4159 
Q 2644 4219 2406 4219 
Q 1781 4219 1451 3797 
Q 1122 3375 1075 2522 
Q 1259 2794 1537 2939 
Q 1816 3084 2150 3084 
Q 2853 3084 3261 2657 
Q 3669 2231 3669 1497 
Q 3669 778 3244 343 
Q 2819 -91 2113 -91 
Q 1303 -91 875 529 
Q 447 1150 447 2328 
Q 447 3434 972 4092 
Q 1497 4750 2381 4750 
Q 2619 4750 2861 4703 
Q 3103 4656 3366 4563 
z
" transform="scale(0.015625)"/>
      </defs>
      <use xlink:href="#DejaVuSans-Oblique-71"/>
      <use xlink:href="#DejaVuSans-36" transform="translate(63.476562 -16.40625)scale(0.7)"/>
     </g>
    </g>
   </g>
   <g id="text_9">
    <g clip-path="url(#p1cba94321a)">
     <!-- ${q}_{7}$ -->
     <g transform="translate(317.460061 441.141771)scale(0.1625 -0.1625)">
      <use xlink:href="#DejaVuSans-Oblique-71"/>
      <use xlink:href="#DejaVuSans-37" transform="translate(63.476562 -16.40625)scale(0.7)"/>
     </g>
    </g>
   </g>
   <g id="text_10">
    <g clip-path="url(#p1cba94321a)">
     <!-- ${q}_{8}$ -->
     <g transform="translate(317.460061 487.49577)scale(0.1625 -0.1625)">
      <use xlink:href="#DejaVuSans-Oblique-71"/>
      <use xlink:href="#DejaVuSans-38" transform="translate(63.476562 -16.40625)scale(0.7)"/>
     </g>
    </g>
   </g>
   <g id="text_11">
    <g clip-path="url(#p1cba94321a)">
     <!-- ${q}_{9}$ -->
     <g transform="translate(317.460061 533.84977)scale(0.1625 -0.1625)">
      <defs>
       <path id="DejaVuSans-39" d="M 703 97 
L 703 672 
Q 941 559 1184 500 
Q 1428 441 1663 441 
Q 2288 441 2617 861 
Q 2947 1281 2994 2138 
Q 2813 1869 2534 1725 
Q 2256 1581 1919 1581 
Q 1219 1581 811 2004 
Q 403 2428 403 3163 
Q 403 3881 828 4315 
Q 1253 4750 1959 4750 
Q 2769 4750 3195 4129 
Q 3622 3509 3622 2328 
Q 3622 1225 3098 567 
Q 2575 -91 1691 -91 
Q 1453 -91 1209 -44 
Q 966 3 703 97 
z
M 1959 2075 
Q 2384 2075 2632 2365 
Q 2881 2656 2881 3163 
Q 2881 3666 2632 3958 
Q 2384 4250 1959 4250 
Q 1534 4250 1286 3958 
Q 1038 3666 1038 3163 
Q 1038 2656 1286 2365 
Q 1534 2075 1959 2075 
z
" transform="scale(0.015625)"/>
      </defs>
      <use xlink:href="#DejaVuSans-Oblique-71"/>
      <use xlink:href="#DejaVuSans-39" transform="translate(63.476562 -16.40625)scale(0.7)"/>
     </g>
    </g>
   </g>
   <g id="text_12">
    <g clip-path="url(#p1cba94321a)">
     <!-- S -->
     <g transform="translate(365.673036 347.569983)scale(0.13 -0.13)">
      <use xlink:href="#DejaVuSans-53"/>
     </g>
    </g>
   </g>
   <g id="text_13">
    <g clip-path="url(#p1cba94321a)">
     <!-- H -->
     <g transform="translate(364.911318 254.861984)scale(0.13 -0.13)">
      <use xlink:href="#DejaVuSans-48"/>
     </g>
    </g>
   </g>
   <g id="text_14">
    <g clip-path="url(#p1cba94321a)">
     <!-- H -->
     <g transform="translate(364.911318 115.799986)scale(0.13 -0.13)">
      <use xlink:href="#DejaVuSans-48"/>
     </g>
    </g>
   </g>
   <g id="text_15">
    <g clip-path="url(#p1cba94321a)">
     <!-- H -->
     <g transform="translate(411.265317 347.569983)scale(0.13 -0.13)">
      <use xlink:href="#DejaVuSans-48"/>
     </g>
    </g>
   </g>
   <g id="line2d_39">
    <path d="M 462.507519 535.424813 
L 462.507519 523.372773 
" clip-path="url(#p1cba94321a)" style="fill: none; stroke: #ffffff; stroke-width: 2; stroke-linecap: square"/>
   </g>
   <g id="line2d_40">
    <path d="M 456.4815 529.398793 
L 468.533539 529.398793 
" clip-path="url(#p1cba94321a)" style="fill: none; stroke: #ffffff; stroke-width: 2; stroke-linecap: square"/>
   </g>
   <g id="line2d_41">
    <path d="M 508.861519 535.424813 
L 508.861519 523.372773 
" clip-path="url(#p1cba94321a)" style="fill: none; stroke: #ffffff; stroke-width: 2; stroke-linecap: square"/>
   </g>
   <g id="line2d_42">
    <path d="M 502.835499 529.398793 
L 514.887539 529.398793 
" clip-path="url(#p1cba94321a)" style="fill: none; stroke: #ffffff; stroke-width: 2; stroke-linecap: square"/>
   </g>
   <g id="line2d_43">
    <path d="M 555.215518 535.424813 
L 555.215518 523.372773 
" clip-path="url(#p1cba94321a)" style="fill: none; stroke: #ffffff; stroke-width: 2; stroke-linecap: square"/>
   </g>
   <g id="line2d_44">
    <path d="M 549.189498 529.398793 
L 561.241538 529.398793 
" clip-path="url(#p1cba94321a)" style="fill: none; stroke: #ffffff; stroke-width: 2; stroke-linecap: square"/>
   </g>
   <g id="text_16">
    <g clip-path="url(#p1cba94321a)">
     <!-- $-$0.0043 -->
     <g transform="translate(584.209518 540.645323)scale(0.08 -0.08)">
      <defs>
       <path id="DejaVuSans-2212" d="M 678 2272 
L 4684 2272 
L 4684 1741 
L 678 1741 
L 678 2272 
z
" transform="scale(0.015625)"/>
       <path id="DejaVuSans-2e" d="M 684 794 
L 1344 794 
L 1344 0 
L 684 0 
L 684 794 
z
" transform="scale(0.015625)"/>
      </defs>
      <use xlink:href="#DejaVuSans-2212" transform="translate(0 0.78125)"/>
      <use xlink:href="#DejaVuSans-30" transform="translate(83.789062 0.78125)"/>
      <use xlink:href="#DejaVuSans-2e" transform="translate(147.412109 0.78125)"/>
      <use xlink:href="#DejaVuSans-30" transform="translate(179.199219 0.78125)"/>
      <use xlink:href="#DejaVuSans-30" transform="translate(242.822266 0.78125)"/>
      <use xlink:href="#DejaVuSans-34" transform="translate(306.445312 0.78125)"/>
      <use xlink:href="#DejaVuSans-33" transform="translate(370.068359 0.78125)"/>
     </g>
    </g>
   </g>
   <g id="text_17">
    <g clip-path="url(#p1cba94321a)">
     <!-- $\mathrm{R_Z}$ -->
     <g transform="translate(593.639518 528.466466)scale(0.13 -0.13)">
      <defs>
       <path id="DejaVuSans-5a" d="M 359 4666 
L 4025 4666 
L 4025 4184 
L 1075 531 
L 4097 531 
L 4097 0 
L 288 0 
L 288 481 
L 3238 4134 
L 359 4134 
L 359 4666 
z
" transform="scale(0.015625)"/>
      </defs>
      <use xlink:href="#DejaVuSans-52" transform="translate(0 0.09375)"/>
      <use xlink:href="#DejaVuSans-5a" transform="translate(70.439453 -16.3125)scale(0.7)"/>
     </g>
    </g>
   </g>
   <g id="line2d_45">
    <path d="M 647.923517 535.424813 
L 647.923517 523.372773 
" clip-path="url(#p1cba94321a)" style="fill: none; stroke: #ffffff; stroke-width: 2; stroke-linecap: square"/>
   </g>
   <g id="line2d_46">
    <path d="M 641.897497 529.398793 
L 653.949537 529.398793 
" clip-path="url(#p1cba94321a)" style="fill: none; stroke: #ffffff; stroke-width: 2; stroke-linecap: square"/>
   </g>
   <g id="line2d_47">
    <path d="M 694.277516 535.424813 
L 694.277516 523.372773 
" clip-path="url(#p1cba94321a)" style="fill: none; stroke: #ffffff; stroke-width: 2; stroke-linecap: square"/>
   </g>
   <g id="line2d_48">
    <path d="M 688.251496 529.398793 
L 700.303536 529.398793 
" clip-path="url(#p1cba94321a)" style="fill: none; stroke: #ffffff; stroke-width: 2; stroke-linecap: square"/>
   </g>
   <g id="line2d_49">
    <path d="M 740.631516 303.654816 
L 740.631516 291.602776 
" clip-path="url(#p1cba94321a)" style="fill: none; stroke: #ffffff; stroke-width: 2; stroke-linecap: square"/>
   </g>
   <g id="line2d_50">
    <path d="M 734.605496 297.628796 
L 746.657536 297.628796 
" clip-path="url(#p1cba94321a)" style="fill: none; stroke: #ffffff; stroke-width: 2; stroke-linecap: square"/>
   </g>
   <g id="line2d_51">
    <path d="M 786.985515 535.424813 
L 786.985515 523.372773 
" clip-path="url(#p1cba94321a)" style="fill: none; stroke: #ffffff; stroke-width: 2; stroke-linecap: square"/>
   </g>
   <g id="line2d_52">
    <path d="M 780.959495 529.398793 
L 793.011535 529.398793 
" clip-path="url(#p1cba94321a)" style="fill: none; stroke: #ffffff; stroke-width: 2; stroke-linecap: square"/>
   </g>
   <g id="text_18">
    <g clip-path="url(#p1cba94321a)">
     <!-- 0.113 -->
     <g transform="translate(775.534265 308.875326)scale(0.08 -0.08)">
      <use xlink:href="#DejaVuSans-30"/>
      <use xlink:href="#DejaVuSans-2e" x="63.623047"/>
      <use xlink:href="#DejaVuSans-31" x="95.410156"/>
      <use xlink:href="#DejaVuSans-31" x="159.033203"/>
      <use xlink:href="#DejaVuSans-33" x="222.65625"/>
     </g>
    </g>
   </g>
   <g id="text_19">
    <g clip-path="url(#p1cba94321a)">
     <!-- $\mathrm{R_Z}$ -->
     <g transform="translate(779.055515 296.696469)scale(0.13 -0.13)">
      <use xlink:href="#DejaVuSans-52" transform="translate(0 0.09375)"/>
      <use xlink:href="#DejaVuSans-5a" transform="translate(70.439453 -16.3125)scale(0.7)"/>
     </g>
    </g>
   </g>
   <g id="line2d_53">
    <path d="M 833.339515 396.362815 
L 833.339515 384.310775 
" clip-path="url(#p1cba94321a)" style="fill: none; stroke: #ffffff; stroke-width: 2; stroke-linecap: square"/>
   </g>
   <g id="line2d_54">
    <path d="M 827.313495 390.336795 
L 839.365534 390.336795 
" clip-path="url(#p1cba94321a)" style="fill: none; stroke: #ffffff; stroke-width: 2; stroke-linecap: square"/>
   </g>
   <g id="text_20">
    <g clip-path="url(#p1cba94321a)">
     <!-- H -->
     <g transform="translate(828.451311 532.98598)scale(0.13 -0.13)">
      <use xlink:href="#DejaVuSans-48"/>
     </g>
    </g>
   </g>
   <g id="text_21">
    <g clip-path="url(#p1cba94321a)">
     <!-- H -->
     <g transform="translate(874.805311 347.569983)scale(0.13 -0.13)">
      <use xlink:href="#DejaVuSans-48"/>
     </g>
    </g>
   </g>
   <g id="line2d_55">
    <path d="M 926.047513 396.362815 
L 926.047513 384.310775 
" clip-path="url(#p1cba94321a)" style="fill: none; stroke: #ffffff; stroke-width: 2; stroke-linecap: square"/>
   </g>
   <g id="line2d_56">
    <path d="M 920.021493 390.336795 
L 932.073533 390.336795 
" clip-path="url(#p1cba94321a)" style="fill: none; stroke: #ffffff; stroke-width: 2; stroke-linecap: square"/>
   </g>
   <g id="line2d_57">
    <path d="M 972.401513 303.654816 
L 972.401513 291.602776 
" clip-path="url(#p1cba94321a)" style="fill: none; stroke: #ffffff; stroke-width: 2; stroke-linecap: square"/>
   </g>
   <g id="line2d_58">
    <path d="M 966.375493 297.628796 
L 978.427533 297.628796 
" clip-path="url(#p1cba94321a)" style="fill: none; stroke: #ffffff; stroke-width: 2; stroke-linecap: square"/>
   </g>
   <g id="text_22">
    <g clip-path="url(#p1cba94321a)">
     <!-- $\mathrm{S^\dagger}$ -->
     <g transform="translate(1010.305512 347.569983)scale(0.13 -0.13)">
      <defs>
       <path id="DejaVuSans-2020" d="M 1325 4666 
L 1875 4666 
L 1875 3353 
L 3022 3353 
L 3022 2875 
L 1875 2875 
L 1875 -616 
L 1325 -616 
L 1325 2875 
L 178 2875 
L 178 3353 
L 1325 3353 
L 1325 4666 
z
" transform="scale(0.015625)"/>
      </defs>
      <use xlink:href="#DejaVuSans-53" transform="translate(0 0.684375)"/>
      <use xlink:href="#DejaVuSans-2020" transform="translate(78.071289 38.965625)scale(0.7)"/>
     </g>
    </g>
   </g>
   <g id="line2d_59">
    <path d="M 1065.109511 396.362815 
L 1065.109511 384.310775 
" clip-path="url(#p1cba94321a)" style="fill: none; stroke: #ffffff; stroke-width: 2; stroke-linecap: square"/>
   </g>
   <g id="line2d_60">
    <path d="M 1059.083492 390.336795 
L 1071.135531 390.336795 
" clip-path="url(#p1cba94321a)" style="fill: none; stroke: #ffffff; stroke-width: 2; stroke-linecap: square"/>
   </g>
   <g id="line2d_61">
    <path d="M 1111.463511 396.362815 
L 1111.463511 384.310775 
" clip-path="url(#p1cba94321a)" style="fill: none; stroke: #ffffff; stroke-width: 2; stroke-linecap: square"/>
   </g>
   <g id="line2d_62">
    <path d="M 1105.437491 390.336795 
L 1117.489531 390.336795 
" clip-path="url(#p1cba94321a)" style="fill: none; stroke: #ffffff; stroke-width: 2; stroke-linecap: square"/>
   </g>
   <g id="line2d_63">
    <path d="M 1157.81751 350.008815 
L 1157.81751 337.956776 
" clip-path="url(#p1cba94321a)" style="fill: none; stroke: #ffffff; stroke-width: 2; stroke-linecap: square"/>
   </g>
   <g id="line2d_64">
    <path d="M 1151.79149 343.982795 
L 1163.84353 343.982795 
" clip-path="url(#p1cba94321a)" style="fill: none; stroke: #ffffff; stroke-width: 2; stroke-linecap: square"/>
   </g>
   <g id="text_23">
    <g clip-path="url(#p1cba94321a)">
     <!-- $-$0.000704 -->
     <g transform="translate(1204.908509 401.583325)scale(0.08 -0.08)">
      <use xlink:href="#DejaVuSans-2212" transform="translate(0 0.78125)"/>
      <use xlink:href="#DejaVuSans-30" transform="translate(83.789062 0.78125)"/>
      <use xlink:href="#DejaVuSans-2e" transform="translate(147.412109 0.78125)"/>
      <use xlink:href="#DejaVuSans-30" transform="translate(179.199219 0.78125)"/>
      <use xlink:href="#DejaVuSans-30" transform="translate(242.822266 0.78125)"/>
      <use xlink:href="#DejaVuSans-30" transform="translate(306.445312 0.78125)"/>
      <use xlink:href="#DejaVuSans-37" transform="translate(370.068359 0.78125)"/>
      <use xlink:href="#DejaVuSans-30" transform="translate(433.691406 0.78125)"/>
      <use xlink:href="#DejaVuSans-34" transform="translate(497.314453 0.78125)"/>
     </g>
    </g>
   </g>
   <g id="text_24">
    <g clip-path="url(#p1cba94321a)">
     <!-- $\mathrm{R_Z}$ -->
     <g transform="translate(1219.418509 389.404467)scale(0.13 -0.13)">
      <use xlink:href="#DejaVuSans-52" transform="translate(0 0.09375)"/>
      <use xlink:href="#DejaVuSans-5a" transform="translate(70.439453 -16.3125)scale(0.7)"/>
     </g>
    </g>
   </g>
   <g id="line2d_65">
    <path d="M 1296.879508 350.008815 
L 1296.879508 337.956776 
" clip-path="url(#p1cba94321a)" style="fill: none; stroke: #ffffff; stroke-width: 2; stroke-linecap: square"/>
   </g>
   <g id="line2d_66">
    <path d="M 1290.853488 343.982795 
L 1302.905528 343.982795 
" clip-path="url(#p1cba94321a)" style="fill: none; stroke: #ffffff; stroke-width: 2; stroke-linecap: square"/>
   </g>
   <g id="line2d_67">
    <path d="M 1343.233508 396.362815 
L 1343.233508 384.310775 
" clip-path="url(#p1cba94321a)" style="fill: none; stroke: #ffffff; stroke-width: 2; stroke-linecap: square"/>
   </g>
   <g id="line2d_68">
    <path d="M 1337.207488 390.336795 
L 1349.259528 390.336795 
" clip-path="url(#p1cba94321a)" style="fill: none; stroke: #ffffff; stroke-width: 2; stroke-linecap: square"/>
   </g>
   <g id="line2d_69">
    <path d="M 1389.587507 350.008815 
L 1389.587507 337.956776 
" clip-path="url(#p1cba94321a)" style="fill: none; stroke: #ffffff; stroke-width: 2; stroke-linecap: square"/>
   </g>
   <g id="line2d_70">
    <path d="M 1383.561487 343.982795 
L 1395.613527 343.982795 
" clip-path="url(#p1cba94321a)" style="fill: none; stroke: #ffffff; stroke-width: 2; stroke-linecap: square"/>
   </g>
   <g id="text_25">
    <g clip-path="url(#p1cba94321a)">
     <!-- H -->
     <g transform="translate(1384.699304 115.799986)scale(0.13 -0.13)">
      <use xlink:href="#DejaVuSans-48"/>
     </g>
    </g>
   </g>
   <g id="line2d_71">
    <path d="M 1435.941507 396.362815 
L 1435.941507 384.310775 
" clip-path="url(#p1cba94321a)" style="fill: none; stroke: #ffffff; stroke-width: 2; stroke-linecap: square"/>
   </g>
   <g id="line2d_72">
    <path d="M 1429.915487 390.336795 
L 1441.967526 390.336795 
" clip-path="url(#p1cba94321a)" style="fill: none; stroke: #ffffff; stroke-width: 2; stroke-linecap: square"/>
   </g>
   <g id="line2d_73">
    <path d="M 1482.295506 396.362815 
L 1482.295506 384.310775 
" clip-path="url(#p1cba94321a)" style="fill: none; stroke: #ffffff; stroke-width: 2; stroke-linecap: square"/>
   </g>
   <g id="line2d_74">
    <path d="M 1476.269486 390.336795 
L 1488.321526 390.336795 
" clip-path="url(#p1cba94321a)" style="fill: none; stroke: #ffffff; stroke-width: 2; stroke-linecap: square"/>
   </g>
   <g id="line2d_75">
    <path d="M 1528.649505 396.362815 
L 1528.649505 384.310775 
" clip-path="url(#p1cba94321a)" style="fill: none; stroke: #ffffff; stroke-width: 2; stroke-linecap: square"/>
   </g>
   <g id="line2d_76">
    <path d="M 1522.623485 390.336795 
L 1534.675525 390.336795 
" clip-path="url(#p1cba94321a)" style="fill: none; stroke: #ffffff; stroke-width: 2; stroke-linecap: square"/>
   </g>
   <g id="text_26">
    <g clip-path="url(#p1cba94321a)">
     <!-- H -->
     <g transform="translate(1570.115302 254.861984)scale(0.13 -0.13)">
      <use xlink:href="#DejaVuSans-48"/>
     </g>
    </g>
   </g>
   <g id="line2d_77">
    <path d="M 1575.003505 350.008815 
L 1575.003505 337.956776 
" clip-path="url(#p1cba94321a)" style="fill: none; stroke: #ffffff; stroke-width: 2; stroke-linecap: square"/>
   </g>
   <g id="line2d_78">
    <path d="M 1568.977485 343.982795 
L 1581.029525 343.982795 
" clip-path="url(#p1cba94321a)" style="fill: none; stroke: #ffffff; stroke-width: 2; stroke-linecap: square"/>
   </g>
   <g id="text_27">
    <g clip-path="url(#p1cba94321a)">
     <!-- $-$0.0119 -->
     <g transform="translate(1603.997504 355.229325)scale(0.08 -0.08)">
      <use xlink:href="#DejaVuSans-2212" transform="translate(0 0.78125)"/>
      <use xlink:href="#DejaVuSans-30" transform="translate(83.789062 0.78125)"/>
      <use xlink:href="#DejaVuSans-2e" transform="translate(147.412109 0.78125)"/>
      <use xlink:href="#DejaVuSans-30" transform="translate(179.199219 0.78125)"/>
      <use xlink:href="#DejaVuSans-31" transform="translate(242.822266 0.78125)"/>
      <use xlink:href="#DejaVuSans-31" transform="translate(306.445312 0.78125)"/>
      <use xlink:href="#DejaVuSans-39" transform="translate(370.068359 0.78125)"/>
     </g>
    </g>
   </g>
   <g id="text_28">
    <g clip-path="url(#p1cba94321a)">
     <!-- $\mathrm{R_Z}$ -->
     <g transform="translate(1613.427504 343.050468)scale(0.13 -0.13)">
      <use xlink:href="#DejaVuSans-52" transform="translate(0 0.09375)"/>
      <use xlink:href="#DejaVuSans-5a" transform="translate(70.439453 -16.3125)scale(0.7)"/>
     </g>
    </g>
   </g>
   <g id="line2d_79">
    <path d="M 1621.357504 303.654816 
L 1621.357504 291.602776 
" clip-path="url(#p1cba94321a)" style="fill: none; stroke: #ffffff; stroke-width: 2; stroke-linecap: square"/>
   </g>
   <g id="line2d_80">
    <path d="M 1615.331484 297.628796 
L 1627.383524 297.628796 
" clip-path="url(#p1cba94321a)" style="fill: none; stroke: #ffffff; stroke-width: 2; stroke-linecap: square"/>
   </g>
   <g id="line2d_81">
    <path d="M 1667.711503 350.008815 
L 1667.711503 337.956776 
" clip-path="url(#p1cba94321a)" style="fill: none; stroke: #ffffff; stroke-width: 2; stroke-linecap: square"/>
   </g>
   <g id="line2d_82">
    <path d="M 1661.685484 343.982795 
L 1673.737523 343.982795 
" clip-path="url(#p1cba94321a)" style="fill: none; stroke: #ffffff; stroke-width: 2; stroke-linecap: square"/>
   </g>
   <g id="text_29">
    <g clip-path="url(#p1cba94321a)">
     <!-- 0.107 -->
     <g transform="translate(1656.260253 308.875326)scale(0.08 -0.08)">
      <use xlink:href="#DejaVuSans-30"/>
      <use xlink:href="#DejaVuSans-2e" x="63.623047"/>
      <use xlink:href="#DejaVuSans-31" x="95.410156"/>
      <use xlink:href="#DejaVuSans-30" x="159.033203"/>
      <use xlink:href="#DejaVuSans-37" x="222.65625"/>
     </g>
    </g>
   </g>
   <g id="text_30">
    <g clip-path="url(#p1cba94321a)">
     <!-- $\mathrm{R_Z}$ -->
     <g transform="translate(1659.781503 296.696469)scale(0.13 -0.13)">
      <use xlink:href="#DejaVuSans-52" transform="translate(0 0.09375)"/>
      <use xlink:href="#DejaVuSans-5a" transform="translate(70.439453 -16.3125)scale(0.7)"/>
     </g>
    </g>
   </g>
   <g id="line2d_83">
    <path d="M 1714.065503 350.008815 
L 1714.065503 337.956776 
" clip-path="url(#p1cba94321a)" style="fill: none; stroke: #ffffff; stroke-width: 2; stroke-linecap: square"/>
   </g>
   <g id="line2d_84">
    <path d="M 1708.039483 343.982795 
L 1720.091523 343.982795 
" clip-path="url(#p1cba94321a)" style="fill: none; stroke: #ffffff; stroke-width: 2; stroke-linecap: square"/>
   </g>
   <g id="line2d_85">
    <path d="M 1714.065503 303.654816 
L 1714.065503 291.602776 
" clip-path="url(#p1cba94321a)" style="fill: none; stroke: #ffffff; stroke-width: 2; stroke-linecap: square"/>
   </g>
   <g id="line2d_86">
    <path d="M 1708.039483 297.628796 
L 1720.091523 297.628796 
" clip-path="url(#p1cba94321a)" style="fill: none; stroke: #ffffff; stroke-width: 2; stroke-linecap: square"/>
   </g>
   <g id="line2d_87">
    <path d="M 1760.419502 350.008815 
L 1760.419502 337.956776 
" clip-path="url(#p1cba94321a)" style="fill: none; stroke: #ffffff; stroke-width: 2; stroke-linecap: square"/>
   </g>
   <g id="line2d_88">
    <path d="M 1754.393482 343.982795 
L 1766.445522 343.982795 
" clip-path="url(#p1cba94321a)" style="fill: none; stroke: #ffffff; stroke-width: 2; stroke-linecap: square"/>
   </g>
   <g id="line2d_89">
    <path d="M 1806.773502 350.008815 
L 1806.773502 337.956776 
" clip-path="url(#p1cba94321a)" style="fill: none; stroke: #ffffff; stroke-width: 2; stroke-linecap: square"/>
   </g>
   <g id="line2d_90">
    <path d="M 1800.747482 343.982795 
L 1812.799522 343.982795 
" clip-path="url(#p1cba94321a)" style="fill: none; stroke: #ffffff; stroke-width: 2; stroke-linecap: square"/>
   </g>
   <g id="text_31">
    <g clip-path="url(#p1cba94321a)">
     <!-- H -->
     <g transform="translate(1848.239298 532.98598)scale(0.13 -0.13)">
      <use xlink:href="#DejaVuSans-48"/>
     </g>
    </g>
   </g>
   <g id="line2d_91">
    <path d="M 1899.4815 535.424813 
L 1899.4815 523.372773 
" clip-path="url(#p1cba94321a)" style="fill: none; stroke: #ffffff; stroke-width: 2; stroke-linecap: square"/>
   </g>
   <g id="line2d_92">
    <path d="M 1893.45548 529.398793 
L 1905.50752 529.398793 
" clip-path="url(#p1cba94321a)" style="fill: none; stroke: #ffffff; stroke-width: 2; stroke-linecap: square"/>
   </g>
   <g id="text_32">
    <g clip-path="url(#p1cba94321a)">
     <!-- 0.126 -->
     <g transform="translate(1934.38425 540.645323)scale(0.08 -0.08)">
      <use xlink:href="#DejaVuSans-30"/>
      <use xlink:href="#DejaVuSans-2e" x="63.623047"/>
      <use xlink:href="#DejaVuSans-31" x="95.410156"/>
      <use xlink:href="#DejaVuSans-32" x="159.033203"/>
      <use xlink:href="#DejaVuSans-36" x="222.65625"/>
     </g>
    </g>
   </g>
   <g id="text_33">
    <g clip-path="url(#p1cba94321a)">
     <!-- $\mathrm{R_Z}$ -->
     <g transform="translate(1937.9055 528.466466)scale(0.13 -0.13)">
      <use xlink:href="#DejaVuSans-52" transform="translate(0 0.09375)"/>
      <use xlink:href="#DejaVuSans-5a" transform="translate(70.439453 -16.3125)scale(0.7)"/>
     </g>
    </g>
   </g>
   <g id="line2d_93">
    <path d="M 1992.189499 535.424813 
L 1992.189499 523.372773 
" clip-path="url(#p1cba94321a)" style="fill: none; stroke: #ffffff; stroke-width: 2; stroke-linecap: square"/>
   </g>
   <g id="line2d_94">
    <path d="M 1986.163479 529.398793 
L 1998.215519 529.398793 
" clip-path="url(#p1cba94321a)" style="fill: none; stroke: #ffffff; stroke-width: 2; stroke-linecap: square"/>
   </g>
  </g>
 </g>
 <defs>
  <clipPath id="p1cba94321a">
   <rect x="287.359165" y="75.129599" width="1735.423974" height="482.081594"/>
  </clipPath>
 </defs>
</svg>
