<?xml version="1.0" encoding="utf-8" standalone="no"?>
<!DOCTYPE svg PUBLIC "-//W3C//DTD SVG 1.1//EN"
  "http://www.w3.org/Graphics/SVG/1.1/DTD/svg11.dtd">
<svg xmlns:xlink="http://www.w3.org/1999/xlink" width="1230.397383pt" height="626.079992pt" viewBox="0 0 1230.397383 626.079992" xmlns="http://www.w3.org/2000/svg" version="1.1">
 <metadata>
  <rdf:RDF xmlns:dc="http://purl.org/dc/elements/1.1/" xmlns:cc="http://creativecommons.org/ns#" xmlns:rdf="http://www.w3.org/1999/02/22-rdf-syntax-ns#">
   <cc:Work>
    <dc:type rdf:resource="http://purl.org/dc/dcmitype/StillImage"/>
    <dc:date>2022-05-14T14:39:20.592502</dc:date>
    <dc:format>image/svg+xml</dc:format>
    <dc:creator>
     <cc:Agent>
      <dc:title>Matplotlib v3.5.1, https://matplotlib.org/</dc:title>
     </cc:Agent>
    </dc:creator>
   </cc:Work>
  </rdf:RDF>
 </metadata>
 <defs>
  <style type="text/css">*{stroke-linejoin: round; stroke-linecap: butt}</style>
 </defs>
 <g id="figure_1">
  <g id="patch_1">
   <path d="M 0 626.079992 
L 1230.397383 626.079992 
L 1230.397383 0 
L 0 0 
z
" style="fill: #ffffff"/>
  </g>
  <g id="axes_1">
   <g id="line2d_1">
    <path d="M 214.284863 112.212799 
L 1099.646251 112.212799 
" clip-path="url(#p0b40ad1881)" style="fill: none; stroke: #000000; stroke-width: 2; stroke-linecap: square"/>
   </g>
   <g id="line2d_2">
    <path d="M 214.284863 158.566798 
L 1099.646251 158.566798 
" clip-path="url(#p0b40ad1881)" style="fill: none; stroke: #000000; stroke-width: 2; stroke-linecap: square"/>
   </g>
   <g id="line2d_3">
    <path d="M 214.284863 204.920797 
L 1099.646251 204.920797 
" clip-path="url(#p0b40ad1881)" style="fill: none; stroke: #000000; stroke-width: 2; stroke-linecap: square"/>
   </g>
   <g id="line2d_4">
    <path d="M 214.284863 251.274797 
L 1099.646251 251.274797 
" clip-path="url(#p0b40ad1881)" style="fill: none; stroke: #000000; stroke-width: 2; stroke-linecap: square"/>
   </g>
   <g id="line2d_5">
    <path d="M 214.284863 297.628796 
L 1099.646251 297.628796 
" clip-path="url(#p0b40ad1881)" style="fill: none; stroke: #000000; stroke-width: 2; stroke-linecap: square"/>
   </g>
   <g id="line2d_6">
    <path d="M 214.284863 343.982795 
L 1099.646251 343.982795 
" clip-path="url(#p0b40ad1881)" style="fill: none; stroke: #000000; stroke-width: 2; stroke-linecap: square"/>
   </g>
   <g id="line2d_7">
    <path d="M 214.284863 390.336795 
L 1099.646251 390.336795 
" clip-path="url(#p0b40ad1881)" style="fill: none; stroke: #000000; stroke-width: 2; stroke-linecap: square"/>
   </g>
   <g id="line2d_8">
    <path d="M 214.284863 436.690794 
L 1099.646251 436.690794 
" clip-path="url(#p0b40ad1881)" style="fill: none; stroke: #000000; stroke-width: 2; stroke-linecap: square"/>
   </g>
   <g id="line2d_9">
    <path d="M 214.284863 483.044794 
L 1099.646251 483.044794 
" clip-path="url(#p0b40ad1881)" style="fill: none; stroke: #000000; stroke-width: 2; stroke-linecap: square"/>
   </g>
   <g id="line2d_10">
    <path d="M 214.284863 529.398793 
L 1099.646251 529.398793 
" clip-path="url(#p0b40ad1881)" style="fill: none; stroke: #000000; stroke-width: 2; stroke-linecap: square"/>
   </g>
   <g id="line2d_11">
    <path d="M 285.670022 251.274797 
L 285.670022 158.566798 
" clip-path="url(#p0b40ad1881)" style="fill: none; stroke: #000000; stroke-width: 2; stroke-linecap: square"/>
   </g>
   <g id="line2d_12">
    <path d="M 332.024021 390.336795 
L 332.024021 158.566798 
" clip-path="url(#p0b40ad1881)" style="fill: none; stroke: #000000; stroke-width: 2; stroke-linecap: square"/>
   </g>
   <g id="line2d_13">
    <path d="M 332.024021 529.398793 
L 332.024021 483.044794 
" clip-path="url(#p0b40ad1881)" style="fill: none; stroke: #000000; stroke-width: 2; stroke-linecap: square"/>
   </g>
   <g id="line2d_14">
    <path d="M 471.086019 390.336795 
L 471.086019 158.566798 
" clip-path="url(#p0b40ad1881)" style="fill: none; stroke: #000000; stroke-width: 2; stroke-linecap: square"/>
   </g>
   <g id="line2d_15">
    <path d="M 471.086019 529.398793 
L 471.086019 483.044794 
" clip-path="url(#p0b40ad1881)" style="fill: none; stroke: #000000; stroke-width: 2; stroke-linecap: square"/>
   </g>
   <g id="line2d_16">
    <path d="M 517.440019 251.274797 
L 517.440019 158.566798 
" clip-path="url(#p0b40ad1881)" style="fill: none; stroke: #000000; stroke-width: 2; stroke-linecap: square"/>
   </g>
   <g id="line2d_17">
    <path d="M 517.440019 483.044794 
L 517.440019 436.690794 
" clip-path="url(#p0b40ad1881)" style="fill: none; stroke: #000000; stroke-width: 2; stroke-linecap: square"/>
   </g>
   <g id="line2d_18">
    <path d="M 586.971018 251.274797 
L 586.971018 158.566798 
" clip-path="url(#p0b40ad1881)" style="fill: none; stroke: #000000; stroke-width: 2; stroke-linecap: square"/>
   </g>
   <g id="line2d_19">
    <path d="M 656.502017 483.044794 
L 656.502017 436.690794 
" clip-path="url(#p0b40ad1881)" style="fill: none; stroke: #000000; stroke-width: 2; stroke-linecap: square"/>
   </g>
   <g id="line2d_20">
    <path d="M 656.502017 390.336795 
L 656.502017 158.566798 
" clip-path="url(#p0b40ad1881)" style="fill: none; stroke: #000000; stroke-width: 2; stroke-linecap: square"/>
   </g>
   <g id="line2d_21">
    <path d="M 702.856016 529.398793 
L 702.856016 483.044794 
" clip-path="url(#p0b40ad1881)" style="fill: none; stroke: #000000; stroke-width: 2; stroke-linecap: square"/>
   </g>
   <g id="line2d_22">
    <path d="M 772.387015 390.336795 
L 772.387015 158.566798 
" clip-path="url(#p0b40ad1881)" style="fill: none; stroke: #000000; stroke-width: 2; stroke-linecap: square"/>
   </g>
   <g id="line2d_23">
    <path d="M 841.918014 251.274797 
L 841.918014 158.566798 
" clip-path="url(#p0b40ad1881)" style="fill: none; stroke: #000000; stroke-width: 2; stroke-linecap: square"/>
   </g>
   <g id="line2d_24">
    <path d="M 841.918014 529.398793 
L 841.918014 483.044794 
" clip-path="url(#p0b40ad1881)" style="fill: none; stroke: #000000; stroke-width: 2; stroke-linecap: square"/>
   </g>
   <g id="line2d_25">
    <path d="M 888.272014 483.044794 
L 888.272014 436.690794 
" clip-path="url(#p0b40ad1881)" style="fill: none; stroke: #000000; stroke-width: 2; stroke-linecap: square"/>
   </g>
   <g id="line2d_26">
    <path d="M 1027.334012 483.044794 
L 1027.334012 436.690794 
" clip-path="url(#p0b40ad1881)" style="fill: none; stroke: #000000; stroke-width: 2; stroke-linecap: square"/>
   </g>
   <g id="text_1">
    <!-- TERMS: 3, DEPTH:15 -->
    <g transform="translate(568.546159 69.129599)scale(0.12 -0.12)">
     <defs>
      <path id="DejaVuSans-54" d="M -19 4666 
L 3928 4666 
L 3928 4134 
L 2272 4134 
L 2272 0 
L 1638 0 
L 1638 4134 
L -19 4134 
L -19 4666 
z
" transform="scale(0.015625)"/>
      <path id="DejaVuSans-45" d="M 628 4666 
L 3578 4666 
L 3578 4134 
L 1259 4134 
L 1259 2753 
L 3481 2753 
L 3481 2222 
L 1259 2222 
L 1259 531 
L 3634 531 
L 3634 0 
L 628 0 
L 628 4666 
z
" transform="scale(0.015625)"/>
      <path id="DejaVuSans-52" d="M 2841 2188 
Q 3044 2119 3236 1894 
Q 3428 1669 3622 1275 
L 4263 0 
L 3584 0 
L 2988 1197 
Q 2756 1666 2539 1819 
Q 2322 1972 1947 1972 
L 1259 1972 
L 1259 0 
L 628 0 
L 628 4666 
L 2053 4666 
Q 2853 4666 3247 4331 
Q 3641 3997 3641 3322 
Q 3641 2881 3436 2590 
Q 3231 2300 2841 2188 
z
M 1259 4147 
L 1259 2491 
L 2053 2491 
Q 2509 2491 2742 2702 
Q 2975 2913 2975 3322 
Q 2975 3731 2742 3939 
Q 2509 4147 2053 4147 
L 1259 4147 
z
" transform="scale(0.015625)"/>
      <path id="DejaVuSans-4d" d="M 628 4666 
L 1569 4666 
L 2759 1491 
L 3956 4666 
L 4897 4666 
L 4897 0 
L 4281 0 
L 4281 4097 
L 3078 897 
L 2444 897 
L 1241 4097 
L 1241 0 
L 628 0 
L 628 4666 
z
" transform="scale(0.015625)"/>
      <path id="DejaVuSans-53" d="M 3425 4513 
L 3425 3897 
Q 3066 4069 2747 4153 
Q 2428 4238 2131 4238 
Q 1616 4238 1336 4038 
Q 1056 3838 1056 3469 
Q 1056 3159 1242 3001 
Q 1428 2844 1947 2747 
L 2328 2669 
Q 3034 2534 3370 2195 
Q 3706 1856 3706 1288 
Q 3706 609 3251 259 
Q 2797 -91 1919 -91 
Q 1588 -91 1214 -16 
Q 841 59 441 206 
L 441 856 
Q 825 641 1194 531 
Q 1563 422 1919 422 
Q 2459 422 2753 634 
Q 3047 847 3047 1241 
Q 3047 1584 2836 1778 
Q 2625 1972 2144 2069 
L 1759 2144 
Q 1053 2284 737 2584 
Q 422 2884 422 3419 
Q 422 4038 858 4394 
Q 1294 4750 2059 4750 
Q 2388 4750 2728 4690 
Q 3069 4631 3425 4513 
z
" transform="scale(0.015625)"/>
      <path id="DejaVuSans-3a" d="M 750 794 
L 1409 794 
L 1409 0 
L 750 0 
L 750 794 
z
M 750 3309 
L 1409 3309 
L 1409 2516 
L 750 2516 
L 750 3309 
z
" transform="scale(0.015625)"/>
      <path id="DejaVuSans-20" transform="scale(0.015625)"/>
      <path id="DejaVuSans-33" d="M 2597 2516 
Q 3050 2419 3304 2112 
Q 3559 1806 3559 1356 
Q 3559 666 3084 287 
Q 2609 -91 1734 -91 
Q 1441 -91 1130 -33 
Q 819 25 488 141 
L 488 750 
Q 750 597 1062 519 
Q 1375 441 1716 441 
Q 2309 441 2620 675 
Q 2931 909 2931 1356 
Q 2931 1769 2642 2001 
Q 2353 2234 1838 2234 
L 1294 2234 
L 1294 2753 
L 1863 2753 
Q 2328 2753 2575 2939 
Q 2822 3125 2822 3475 
Q 2822 3834 2567 4026 
Q 2313 4219 1838 4219 
Q 1578 4219 1281 4162 
Q 984 4106 628 3988 
L 628 4550 
Q 988 4650 1302 4700 
Q 1616 4750 1894 4750 
Q 2613 4750 3031 4423 
Q 3450 4097 3450 3541 
Q 3450 3153 3228 2886 
Q 3006 2619 2597 2516 
z
" transform="scale(0.015625)"/>
      <path id="DejaVuSans-2c" d="M 750 794 
L 1409 794 
L 1409 256 
L 897 -744 
L 494 -744 
L 750 256 
L 750 794 
z
" transform="scale(0.015625)"/>
      <path id="DejaVuSans-44" d="M 1259 4147 
L 1259 519 
L 2022 519 
Q 2988 519 3436 956 
Q 3884 1394 3884 2338 
Q 3884 3275 3436 3711 
Q 2988 4147 2022 4147 
L 1259 4147 
z
M 628 4666 
L 1925 4666 
Q 3281 4666 3915 4102 
Q 4550 3538 4550 2338 
Q 4550 1131 3912 565 
Q 3275 0 1925 0 
L 628 0 
L 628 4666 
z
" transform="scale(0.015625)"/>
      <path id="DejaVuSans-50" d="M 1259 4147 
L 1259 2394 
L 2053 2394 
Q 2494 2394 2734 2622 
Q 2975 2850 2975 3272 
Q 2975 3691 2734 3919 
Q 2494 4147 2053 4147 
L 1259 4147 
z
M 628 4666 
L 2053 4666 
Q 2838 4666 3239 4311 
Q 3641 3956 3641 3272 
Q 3641 2581 3239 2228 
Q 2838 1875 2053 1875 
L 1259 1875 
L 1259 0 
L 628 0 
L 628 4666 
z
" transform="scale(0.015625)"/>
      <path id="DejaVuSans-48" d="M 628 4666 
L 1259 4666 
L 1259 2753 
L 3553 2753 
L 3553 4666 
L 4184 4666 
L 4184 0 
L 3553 0 
L 3553 2222 
L 1259 2222 
L 1259 0 
L 628 0 
L 628 4666 
z
" transform="scale(0.015625)"/>
      <path id="DejaVuSans-31" d="M 794 531 
L 1825 531 
L 1825 4091 
L 703 3866 
L 703 4441 
L 1819 4666 
L 2450 4666 
L 2450 531 
L 3481 531 
L 3481 0 
L 794 0 
L 794 531 
z
" transform="scale(0.015625)"/>
      <path id="DejaVuSans-35" d="M 691 4666 
L 3169 4666 
L 3169 4134 
L 1269 4134 
L 1269 2991 
Q 1406 3038 1543 3061 
Q 1681 3084 1819 3084 
Q 2600 3084 3056 2656 
Q 3513 2228 3513 1497 
Q 3513 744 3044 326 
Q 2575 -91 1722 -91 
Q 1428 -91 1123 -41 
Q 819 9 494 109 
L 494 744 
Q 775 591 1075 516 
Q 1375 441 1709 441 
Q 2250 441 2565 725 
Q 2881 1009 2881 1497 
Q 2881 1984 2565 2268 
Q 2250 2553 1709 2553 
Q 1456 2553 1204 2497 
Q 953 2441 691 2322 
L 691 4666 
z
" transform="scale(0.015625)"/>
     </defs>
     <use xlink:href="#DejaVuSans-54"/>
     <use xlink:href="#DejaVuSans-45" x="61.083984"/>
     <use xlink:href="#DejaVuSans-52" x="124.267578"/>
     <use xlink:href="#DejaVuSans-4d" x="193.75"/>
     <use xlink:href="#DejaVuSans-53" x="280.029297"/>
     <use xlink:href="#DejaVuSans-3a" x="343.505859"/>
     <use xlink:href="#DejaVuSans-20" x="377.197266"/>
     <use xlink:href="#DejaVuSans-33" x="408.984375"/>
     <use xlink:href="#DejaVuSans-2c" x="472.607422"/>
     <use xlink:href="#DejaVuSans-20" x="504.394531"/>
     <use xlink:href="#DejaVuSans-44" x="536.181641"/>
     <use xlink:href="#DejaVuSans-45" x="613.183594"/>
     <use xlink:href="#DejaVuSans-50" x="676.367188"/>
     <use xlink:href="#DejaVuSans-54" x="736.669922"/>
     <use xlink:href="#DejaVuSans-48" x="797.753906"/>
     <use xlink:href="#DejaVuSans-3a" x="872.949219"/>
     <use xlink:href="#DejaVuSans-31" x="906.640625"/>
     <use xlink:href="#DejaVuSans-35" x="970.263672"/>
    </g>
   </g>
   <g id="patch_2">
    <path d="M 224.250973 266.339846 
L 254.381072 266.339846 
L 254.381072 236.209747 
L 224.250973 236.209747 
z
" clip-path="url(#p0b40ad1881)" style="fill: #ffffff; stroke: #000000; stroke-width: 1.5; stroke-linejoin: miter"/>
   </g>
   <g id="patch_3">
    <path d="M 224.250973 405.401845 
L 254.381072 405.401845 
L 254.381072 375.271745 
L 224.250973 375.271745 
z
" clip-path="url(#p0b40ad1881)" style="fill: #ffffff; stroke: #000000; stroke-width: 1.5; stroke-linejoin: miter"/>
   </g>
   <g id="patch_4">
    <path d="M 224.250973 544.463843 
L 254.381072 544.463843 
L 254.381072 514.333743 
L 224.250973 514.333743 
z
" clip-path="url(#p0b40ad1881)" style="fill: #ffffff; stroke: #000000; stroke-width: 1.5; stroke-linejoin: miter"/>
   </g>
   <g id="patch_5">
    <path d="M 224.250973 451.755844 
L 254.381072 451.755844 
L 254.381072 421.625744 
L 224.250973 421.625744 
z
" clip-path="url(#p0b40ad1881)" style="fill: #ffffff; stroke: #000000; stroke-width: 1.5; stroke-linejoin: miter"/>
   </g>
   <g id="patch_6">
    <path d="M 285.670022 255.794312 
C 286.868611 255.794312 288.018271 255.318107 288.865801 254.470576 
C 289.713332 253.623046 290.189537 252.473386 290.189537 251.274797 
C 290.189537 250.076207 289.713332 248.926548 288.865801 248.079017 
C 288.018271 247.231486 286.868611 246.755282 285.670022 246.755282 
C 284.471432 246.755282 283.321773 247.231486 282.474242 248.079017 
C 281.626711 248.926548 281.150507 250.076207 281.150507 251.274797 
C 281.150507 252.473386 281.626711 253.623046 282.474242 254.470576 
C 283.321773 255.318107 284.471432 255.794312 285.670022 255.794312 
z
" clip-path="url(#p0b40ad1881)" style="stroke: #000000; stroke-width: 1.5; stroke-linejoin: miter"/>
   </g>
   <g id="patch_7">
    <path d="M 285.670022 169.112333 
C 288.46673 169.112333 291.149269 168.001189 293.126841 166.023617 
C 295.104413 164.046046 296.215557 161.363506 296.215557 158.566798 
C 296.215557 155.770089 295.104413 153.08755 293.126841 151.109979 
C 291.149269 149.132407 288.46673 148.021263 285.670022 148.021263 
C 282.873313 148.021263 280.190774 149.132407 278.213203 151.109979 
C 276.235631 153.08755 275.124487 155.770089 275.124487 158.566798 
C 275.124487 161.363506 276.235631 164.046046 278.213203 166.023617 
C 280.190774 168.001189 282.873313 169.112333 285.670022 169.112333 
z
" clip-path="url(#p0b40ad1881)" style="stroke: #000000; stroke-width: 2; stroke-linejoin: miter"/>
   </g>
   <g id="patch_8">
    <path d="M 270.604972 544.463843 
L 300.735072 544.463843 
L 300.735072 514.333743 
L 270.604972 514.333743 
z
" clip-path="url(#p0b40ad1881)" style="fill: #ffffff; stroke: #000000; stroke-width: 1.5; stroke-linejoin: miter"/>
   </g>
   <g id="patch_9">
    <path d="M 332.024021 394.85631 
C 333.222611 394.85631 334.37227 394.380105 335.219801 393.532574 
C 336.067332 392.685044 336.543536 391.535384 336.543536 390.336795 
C 336.543536 389.138205 336.067332 387.988546 335.219801 387.141015 
C 334.37227 386.293484 333.222611 385.81728 332.024021 385.81728 
C 330.825432 385.81728 329.675772 386.293484 328.828242 387.141015 
C 327.980711 387.988546 327.504506 389.138205 327.504506 390.336795 
C 327.504506 391.535384 327.980711 392.685044 328.828242 393.532574 
C 329.675772 394.380105 330.825432 394.85631 332.024021 394.85631 
z
" clip-path="url(#p0b40ad1881)" style="stroke: #000000; stroke-width: 1.5; stroke-linejoin: miter"/>
   </g>
   <g id="patch_10">
    <path d="M 332.024021 169.112333 
C 334.82073 169.112333 337.503269 168.001189 339.48084 166.023617 
C 341.458412 164.046046 342.569556 161.363506 342.569556 158.566798 
C 342.569556 155.770089 341.458412 153.08755 339.48084 151.109979 
C 337.503269 149.132407 334.82073 148.021263 332.024021 148.021263 
C 329.227313 148.021263 326.544774 149.132407 324.567202 151.109979 
C 322.58963 153.08755 321.478486 155.770089 321.478486 158.566798 
C 321.478486 161.363506 322.58963 164.046046 324.567202 166.023617 
C 326.544774 168.001189 329.227313 169.112333 332.024021 169.112333 
z
" clip-path="url(#p0b40ad1881)" style="stroke: #000000; stroke-width: 2; stroke-linejoin: miter"/>
   </g>
   <g id="patch_11">
    <path d="M 332.024021 533.918308 
C 333.222611 533.918308 334.37227 533.442103 335.219801 532.594573 
C 336.067332 531.747042 336.543536 530.597382 336.543536 529.398793 
C 336.543536 528.200204 336.067332 527.050544 335.219801 526.203013 
C 334.37227 525.355483 333.222611 524.879278 332.024021 524.879278 
C 330.825432 524.879278 329.675772 525.355483 328.828242 526.203013 
C 327.980711 527.050544 327.504506 528.200204 327.504506 529.398793 
C 327.504506 530.597382 327.980711 531.747042 328.828242 532.594573 
C 329.675772 533.442103 330.825432 533.918308 332.024021 533.918308 
z
" clip-path="url(#p0b40ad1881)" style="stroke: #000000; stroke-width: 1.5; stroke-linejoin: miter"/>
   </g>
   <g id="patch_12">
    <path d="M 332.024021 493.590328 
C 334.82073 493.590328 337.503269 492.479184 339.48084 490.501613 
C 341.458412 488.524041 342.569556 485.841502 342.569556 483.044794 
C 342.569556 480.248085 341.458412 477.565546 339.48084 475.587974 
C 337.503269 473.610403 334.82073 472.499259 332.024021 472.499259 
C 329.227313 472.499259 326.544774 473.610403 324.567202 475.587974 
C 322.58963 477.565546 321.478486 480.248085 321.478486 483.044794 
C 321.478486 485.841502 322.58963 488.524041 324.567202 490.501613 
C 326.544774 492.479184 329.227313 493.590328 332.024021 493.590328 
z
" clip-path="url(#p0b40ad1881)" style="stroke: #000000; stroke-width: 2; stroke-linejoin: miter"/>
   </g>
   <g id="patch_13">
    <path d="M 386.48997 173.631848 
L 416.62007 173.631848 
L 416.62007 143.501748 
L 386.48997 143.501748 
z
" clip-path="url(#p0b40ad1881)" style="fill: #ffffff; stroke: #000000; stroke-width: 1.5; stroke-linejoin: miter"/>
   </g>
   <g id="patch_14">
    <path d="M 380.160332 498.109843 
L 422.949709 498.109843 
L 422.949709 467.979744 
L 380.160332 467.979744 
z
" clip-path="url(#p0b40ad1881)" style="fill: #ffffff; stroke: #000000; stroke-width: 1.5; stroke-linejoin: miter"/>
   </g>
   <g id="patch_15">
    <path d="M 471.086019 394.85631 
C 472.284609 394.85631 473.434268 394.380105 474.281799 393.532574 
C 475.12933 392.685044 475.605534 391.535384 475.605534 390.336795 
C 475.605534 389.138205 475.12933 387.988546 474.281799 387.141015 
C 473.434268 386.293484 472.284609 385.81728 471.086019 385.81728 
C 469.88743 385.81728 468.73777 386.293484 467.89024 387.141015 
C 467.042709 387.988546 466.566504 389.138205 466.566504 390.336795 
C 466.566504 391.535384 467.042709 392.685044 467.89024 393.532574 
C 468.73777 394.380105 469.88743 394.85631 471.086019 394.85631 
z
" clip-path="url(#p0b40ad1881)" style="stroke: #000000; stroke-width: 1.5; stroke-linejoin: miter"/>
   </g>
   <g id="patch_16">
    <path d="M 471.086019 169.112333 
C 473.882728 169.112333 476.565267 168.001189 478.542839 166.023617 
C 480.52041 164.046046 481.631554 161.363506 481.631554 158.566798 
C 481.631554 155.770089 480.52041 153.08755 478.542839 151.109979 
C 476.565267 149.132407 473.882728 148.021263 471.086019 148.021263 
C 468.289311 148.021263 465.606772 149.132407 463.6292 151.109979 
C 461.651629 153.08755 460.540484 155.770089 460.540484 158.566798 
C 460.540484 161.363506 461.651629 164.046046 463.6292 166.023617 
C 465.606772 168.001189 468.289311 169.112333 471.086019 169.112333 
z
" clip-path="url(#p0b40ad1881)" style="stroke: #000000; stroke-width: 2; stroke-linejoin: miter"/>
   </g>
   <g id="patch_17">
    <path d="M 471.086019 533.918308 
C 472.284609 533.918308 473.434268 533.442103 474.281799 532.594573 
C 475.12933 531.747042 475.605534 530.597382 475.605534 529.398793 
C 475.605534 528.200204 475.12933 527.050544 474.281799 526.203013 
C 473.434268 525.355483 472.284609 524.879278 471.086019 524.879278 
C 469.88743 524.879278 468.73777 525.355483 467.89024 526.203013 
C 467.042709 527.050544 466.566504 528.200204 466.566504 529.398793 
C 466.566504 530.597382 467.042709 531.747042 467.89024 532.594573 
C 468.73777 533.442103 469.88743 533.918308 471.086019 533.918308 
z
" clip-path="url(#p0b40ad1881)" style="stroke: #000000; stroke-width: 1.5; stroke-linejoin: miter"/>
   </g>
   <g id="patch_18">
    <path d="M 471.086019 493.590328 
C 473.882728 493.590328 476.565267 492.479184 478.542839 490.501613 
C 480.52041 488.524041 481.631554 485.841502 481.631554 483.044794 
C 481.631554 480.248085 480.52041 477.565546 478.542839 475.587974 
C 476.565267 473.610403 473.882728 472.499259 471.086019 472.499259 
C 468.289311 472.499259 465.606772 473.610403 463.6292 475.587974 
C 461.651629 477.565546 460.540484 480.248085 460.540484 483.044794 
C 460.540484 485.841502 461.651629 488.524041 463.6292 490.501613 
C 465.606772 492.479184 468.289311 493.590328 471.086019 493.590328 
z
" clip-path="url(#p0b40ad1881)" style="stroke: #000000; stroke-width: 2; stroke-linejoin: miter"/>
   </g>
   <g id="patch_19">
    <path d="M 517.440019 255.794312 
C 518.638608 255.794312 519.788268 255.318107 520.635798 254.470576 
C 521.483329 253.623046 521.959534 252.473386 521.959534 251.274797 
C 521.959534 250.076207 521.483329 248.926548 520.635798 248.079017 
C 519.788268 247.231486 518.638608 246.755282 517.440019 246.755282 
C 516.241429 246.755282 515.09177 247.231486 514.244239 248.079017 
C 513.396708 248.926548 512.920504 250.076207 512.920504 251.274797 
C 512.920504 252.473386 513.396708 253.623046 514.244239 254.470576 
C 515.09177 255.318107 516.241429 255.794312 517.440019 255.794312 
z
" clip-path="url(#p0b40ad1881)" style="stroke: #000000; stroke-width: 1.5; stroke-linejoin: miter"/>
   </g>
   <g id="patch_20">
    <path d="M 517.440019 169.112333 
C 520.236727 169.112333 522.919266 168.001189 524.896838 166.023617 
C 526.87441 164.046046 527.985554 161.363506 527.985554 158.566798 
C 527.985554 155.770089 526.87441 153.08755 524.896838 151.109979 
C 522.919266 149.132407 520.236727 148.021263 517.440019 148.021263 
C 514.64331 148.021263 511.960771 149.132407 509.9832 151.109979 
C 508.005628 153.08755 506.894484 155.770089 506.894484 158.566798 
C 506.894484 161.363506 508.005628 164.046046 509.9832 166.023617 
C 511.960771 168.001189 514.64331 169.112333 517.440019 169.112333 
z
" clip-path="url(#p0b40ad1881)" style="stroke: #000000; stroke-width: 2; stroke-linejoin: miter"/>
   </g>
   <g id="patch_21">
    <path d="M 502.374969 544.463843 
L 532.505069 544.463843 
L 532.505069 514.333743 
L 502.374969 514.333743 
z
" clip-path="url(#p0b40ad1881)" style="fill: #ffffff; stroke: #000000; stroke-width: 1.5; stroke-linejoin: miter"/>
   </g>
   <g id="patch_22">
    <path d="M 517.440019 441.210309 
C 518.638608 441.210309 519.788268 440.734105 520.635798 439.886574 
C 521.483329 439.039043 521.959534 437.889384 521.959534 436.690794 
C 521.959534 435.492205 521.483329 434.342545 520.635798 433.495015 
C 519.788268 432.647484 518.638608 432.171279 517.440019 432.171279 
C 516.241429 432.171279 515.09177 432.647484 514.244239 433.495015 
C 513.396708 434.342545 512.920504 435.492205 512.920504 436.690794 
C 512.920504 437.889384 513.396708 439.039043 514.244239 439.886574 
C 515.09177 440.734105 516.241429 441.210309 517.440019 441.210309 
z
" clip-path="url(#p0b40ad1881)" style="stroke: #000000; stroke-width: 1.5; stroke-linejoin: miter"/>
   </g>
   <g id="patch_23">
    <path d="M 517.440019 493.590328 
C 520.236727 493.590328 522.919266 492.479184 524.896838 490.501613 
C 526.87441 488.524041 527.985554 485.841502 527.985554 483.044794 
C 527.985554 480.248085 526.87441 477.565546 524.896838 475.587974 
C 522.919266 473.610403 520.236727 472.499259 517.440019 472.499259 
C 514.64331 472.499259 511.960771 473.610403 509.9832 475.587974 
C 508.005628 477.565546 506.894484 480.248085 506.894484 483.044794 
C 506.894484 485.841502 508.005628 488.524041 509.9832 490.501613 
C 511.960771 492.479184 514.64331 493.590328 517.440019 493.590328 
z
" clip-path="url(#p0b40ad1881)" style="stroke: #000000; stroke-width: 2; stroke-linejoin: miter"/>
   </g>
   <g id="patch_24">
    <path d="M 565.576329 498.109843 
L 608.365706 498.109843 
L 608.365706 467.979744 
L 565.576329 467.979744 
z
" clip-path="url(#p0b40ad1881)" style="fill: #ffffff; stroke: #000000; stroke-width: 1.5; stroke-linejoin: miter"/>
   </g>
   <g id="patch_25">
    <path d="M 586.971018 255.794312 
C 588.169607 255.794312 589.319267 255.318107 590.166797 254.470576 
C 591.014328 253.623046 591.490533 252.473386 591.490533 251.274797 
C 591.490533 250.076207 591.014328 248.926548 590.166797 248.079017 
C 589.319267 247.231486 588.169607 246.755282 586.971018 246.755282 
C 585.772428 246.755282 584.622769 247.231486 583.775238 248.079017 
C 582.927707 248.926548 582.451503 250.076207 582.451503 251.274797 
C 582.451503 252.473386 582.927707 253.623046 583.775238 254.470576 
C 584.622769 255.318107 585.772428 255.794312 586.971018 255.794312 
z
" clip-path="url(#p0b40ad1881)" style="stroke: #000000; stroke-width: 1.5; stroke-linejoin: miter"/>
   </g>
   <g id="patch_26">
    <path d="M 586.971018 169.112333 
C 589.767726 169.112333 592.450265 168.001189 594.427837 166.023617 
C 596.405409 164.046046 597.516553 161.363506 597.516553 158.566798 
C 597.516553 155.770089 596.405409 153.08755 594.427837 151.109979 
C 592.450265 149.132407 589.767726 148.021263 586.971018 148.021263 
C 584.174309 148.021263 581.49177 149.132407 579.514199 151.109979 
C 577.536627 153.08755 576.425483 155.770089 576.425483 158.566798 
C 576.425483 161.363506 577.536627 164.046046 579.514199 166.023617 
C 581.49177 168.001189 584.174309 169.112333 586.971018 169.112333 
z
" clip-path="url(#p0b40ad1881)" style="stroke: #000000; stroke-width: 2; stroke-linejoin: miter"/>
   </g>
   <g id="patch_27">
    <path d="M 571.905968 544.463843 
L 602.036068 544.463843 
L 602.036068 514.333743 
L 571.905968 514.333743 
z
" clip-path="url(#p0b40ad1881)" style="fill: #ffffff; stroke: #000000; stroke-width: 1.5; stroke-linejoin: miter"/>
   </g>
   <g id="patch_28">
    <path d="M 656.502017 441.210309 
C 657.700606 441.210309 658.850266 440.734105 659.697797 439.886574 
C 660.545327 439.039043 661.021532 437.889384 661.021532 436.690794 
C 661.021532 435.492205 660.545327 434.342545 659.697797 433.495015 
C 658.850266 432.647484 657.700606 432.171279 656.502017 432.171279 
C 655.303428 432.171279 654.153768 432.647484 653.306237 433.495015 
C 652.458707 434.342545 651.982502 435.492205 651.982502 436.690794 
C 651.982502 437.889384 652.458707 439.039043 653.306237 439.886574 
C 654.153768 440.734105 655.303428 441.210309 656.502017 441.210309 
z
" clip-path="url(#p0b40ad1881)" style="stroke: #000000; stroke-width: 1.5; stroke-linejoin: miter"/>
   </g>
   <g id="patch_29">
    <path d="M 656.502017 493.590328 
C 659.298725 493.590328 661.981265 492.479184 663.958836 490.501613 
C 665.936408 488.524041 667.047552 485.841502 667.047552 483.044794 
C 667.047552 480.248085 665.936408 477.565546 663.958836 475.587974 
C 661.981265 473.610403 659.298725 472.499259 656.502017 472.499259 
C 653.705308 472.499259 651.022769 473.610403 649.045198 475.587974 
C 647.067626 477.565546 645.956482 480.248085 645.956482 483.044794 
C 645.956482 485.841502 647.067626 488.524041 649.045198 490.501613 
C 651.022769 492.479184 653.705308 493.590328 656.502017 493.590328 
z
" clip-path="url(#p0b40ad1881)" style="stroke: #000000; stroke-width: 2; stroke-linejoin: miter"/>
   </g>
   <g id="patch_30">
    <path d="M 656.502017 394.85631 
C 657.700606 394.85631 658.850266 394.380105 659.697797 393.532574 
C 660.545327 392.685044 661.021532 391.535384 661.021532 390.336795 
C 661.021532 389.138205 660.545327 387.988546 659.697797 387.141015 
C 658.850266 386.293484 657.700606 385.81728 656.502017 385.81728 
C 655.303428 385.81728 654.153768 386.293484 653.306237 387.141015 
C 652.458707 387.988546 651.982502 389.138205 651.982502 390.336795 
C 651.982502 391.535384 652.458707 392.685044 653.306237 393.532574 
C 654.153768 394.380105 655.303428 394.85631 656.502017 394.85631 
z
" clip-path="url(#p0b40ad1881)" style="stroke: #000000; stroke-width: 1.5; stroke-linejoin: miter"/>
   </g>
   <g id="patch_31">
    <path d="M 656.502017 169.112333 
C 659.298725 169.112333 661.981265 168.001189 663.958836 166.023617 
C 665.936408 164.046046 667.047552 161.363506 667.047552 158.566798 
C 667.047552 155.770089 665.936408 153.08755 663.958836 151.109979 
C 661.981265 149.132407 659.298725 148.021263 656.502017 148.021263 
C 653.705308 148.021263 651.022769 149.132407 649.045198 151.109979 
C 647.067626 153.08755 645.956482 155.770089 645.956482 158.566798 
C 645.956482 161.363506 647.067626 164.046046 649.045198 166.023617 
C 651.022769 168.001189 653.705308 169.112333 656.502017 169.112333 
z
" clip-path="url(#p0b40ad1881)" style="stroke: #000000; stroke-width: 2; stroke-linejoin: miter"/>
   </g>
   <g id="patch_32">
    <path d="M 687.790966 173.631848 
L 717.921066 173.631848 
L 717.921066 143.501748 
L 687.790966 143.501748 
z
" clip-path="url(#p0b40ad1881)" style="fill: #ffffff; stroke: #000000; stroke-width: 1.5; stroke-linejoin: miter"/>
   </g>
   <g id="patch_33">
    <path d="M 702.856016 533.918308 
C 704.054606 533.918308 705.204265 533.442103 706.051796 532.594573 
C 706.899327 531.747042 707.375531 530.597382 707.375531 529.398793 
C 707.375531 528.200204 706.899327 527.050544 706.051796 526.203013 
C 705.204265 525.355483 704.054606 524.879278 702.856016 524.879278 
C 701.657427 524.879278 700.507767 525.355483 699.660237 526.203013 
C 698.812706 527.050544 698.336501 528.200204 698.336501 529.398793 
C 698.336501 530.597382 698.812706 531.747042 699.660237 532.594573 
C 700.507767 533.442103 701.657427 533.918308 702.856016 533.918308 
z
" clip-path="url(#p0b40ad1881)" style="stroke: #000000; stroke-width: 1.5; stroke-linejoin: miter"/>
   </g>
   <g id="patch_34">
    <path d="M 702.856016 493.590328 
C 705.652725 493.590328 708.335264 492.479184 710.312835 490.501613 
C 712.290407 488.524041 713.401551 485.841502 713.401551 483.044794 
C 713.401551 480.248085 712.290407 477.565546 710.312835 475.587974 
C 708.335264 473.610403 705.652725 472.499259 702.856016 472.499259 
C 700.059308 472.499259 697.376769 473.610403 695.399197 475.587974 
C 693.421625 477.565546 692.310481 480.248085 692.310481 483.044794 
C 692.310481 485.841502 693.421625 488.524041 695.399197 490.501613 
C 697.376769 492.479184 700.059308 493.590328 702.856016 493.590328 
z
" clip-path="url(#p0b40ad1881)" style="stroke: #000000; stroke-width: 2; stroke-linejoin: miter"/>
   </g>
   <g id="patch_35">
    <path d="M 772.387015 394.85631 
C 773.585605 394.85631 774.735264 394.380105 775.582795 393.532574 
C 776.430326 392.685044 776.90653 391.535384 776.90653 390.336795 
C 776.90653 389.138205 776.430326 387.988546 775.582795 387.141015 
C 774.735264 386.293484 773.585605 385.81728 772.387015 385.81728 
C 771.188426 385.81728 770.038766 386.293484 769.191236 387.141015 
C 768.343705 387.988546 767.8675 389.138205 767.8675 390.336795 
C 767.8675 391.535384 768.343705 392.685044 769.191236 393.532574 
C 770.038766 394.380105 771.188426 394.85631 772.387015 394.85631 
z
" clip-path="url(#p0b40ad1881)" style="stroke: #000000; stroke-width: 1.5; stroke-linejoin: miter"/>
   </g>
   <g id="patch_36">
    <path d="M 772.387015 169.112333 
C 775.183724 169.112333 777.866263 168.001189 779.843835 166.023617 
C 781.821406 164.046046 782.93255 161.363506 782.93255 158.566798 
C 782.93255 155.770089 781.821406 153.08755 779.843835 151.109979 
C 777.866263 149.132407 775.183724 148.021263 772.387015 148.021263 
C 769.590307 148.021263 766.907768 149.132407 764.930196 151.109979 
C 762.952625 153.08755 761.84148 155.770089 761.84148 158.566798 
C 761.84148 161.363506 762.952625 164.046046 764.930196 166.023617 
C 766.907768 168.001189 769.590307 169.112333 772.387015 169.112333 
z
" clip-path="url(#p0b40ad1881)" style="stroke: #000000; stroke-width: 2; stroke-linejoin: miter"/>
   </g>
   <g id="patch_37">
    <path d="M 750.992327 498.109843 
L 793.781704 498.109843 
L 793.781704 467.979744 
L 750.992327 467.979744 
z
" clip-path="url(#p0b40ad1881)" style="fill: #ffffff; stroke: #000000; stroke-width: 1.5; stroke-linejoin: miter"/>
   </g>
   <g id="patch_38">
    <path d="M 826.852965 405.401845 
L 856.983064 405.401845 
L 856.983064 375.271745 
L 826.852965 375.271745 
z
" clip-path="url(#p0b40ad1881)" style="fill: #ffffff; stroke: #000000; stroke-width: 1.5; stroke-linejoin: miter"/>
   </g>
   <g id="patch_39">
    <path d="M 841.918014 255.794312 
C 843.116604 255.794312 844.266263 255.318107 845.113794 254.470576 
C 845.961325 253.623046 846.437529 252.473386 846.437529 251.274797 
C 846.437529 250.076207 845.961325 248.926548 845.113794 248.079017 
C 844.266263 247.231486 843.116604 246.755282 841.918014 246.755282 
C 840.719425 246.755282 839.569765 247.231486 838.722235 248.079017 
C 837.874704 248.926548 837.398499 250.076207 837.398499 251.274797 
C 837.398499 252.473386 837.874704 253.623046 838.722235 254.470576 
C 839.569765 255.318107 840.719425 255.794312 841.918014 255.794312 
z
" clip-path="url(#p0b40ad1881)" style="stroke: #000000; stroke-width: 1.5; stroke-linejoin: miter"/>
   </g>
   <g id="patch_40">
    <path d="M 841.918014 169.112333 
C 844.714723 169.112333 847.397262 168.001189 849.374834 166.023617 
C 851.352405 164.046046 852.463549 161.363506 852.463549 158.566798 
C 852.463549 155.770089 851.352405 153.08755 849.374834 151.109979 
C 847.397262 149.132407 844.714723 148.021263 841.918014 148.021263 
C 839.121306 148.021263 836.438767 149.132407 834.461195 151.109979 
C 832.483624 153.08755 831.37248 155.770089 831.37248 158.566798 
C 831.37248 161.363506 832.483624 164.046046 834.461195 166.023617 
C 836.438767 168.001189 839.121306 169.112333 841.918014 169.112333 
z
" clip-path="url(#p0b40ad1881)" style="stroke: #000000; stroke-width: 2; stroke-linejoin: miter"/>
   </g>
   <g id="patch_41">
    <path d="M 841.918014 533.918308 
C 843.116604 533.918308 844.266263 533.442103 845.113794 532.594573 
C 845.961325 531.747042 846.437529 530.597382 846.437529 529.398793 
C 846.437529 528.200204 845.961325 527.050544 845.113794 526.203013 
C 844.266263 525.355483 843.116604 524.879278 841.918014 524.879278 
C 840.719425 524.879278 839.569765 525.355483 838.722235 526.203013 
C 837.874704 527.050544 837.398499 528.200204 837.398499 529.398793 
C 837.398499 530.597382 837.874704 531.747042 838.722235 532.594573 
C 839.569765 533.442103 840.719425 533.918308 841.918014 533.918308 
z
" clip-path="url(#p0b40ad1881)" style="stroke: #000000; stroke-width: 1.5; stroke-linejoin: miter"/>
   </g>
   <g id="patch_42">
    <path d="M 841.918014 493.590328 
C 844.714723 493.590328 847.397262 492.479184 849.374834 490.501613 
C 851.352405 488.524041 852.463549 485.841502 852.463549 483.044794 
C 852.463549 480.248085 851.352405 477.565546 849.374834 475.587974 
C 847.397262 473.610403 844.714723 472.499259 841.918014 472.499259 
C 839.121306 472.499259 836.438767 473.610403 834.461195 475.587974 
C 832.483624 477.565546 831.37248 480.248085 831.37248 483.044794 
C 831.37248 485.841502 832.483624 488.524041 834.461195 490.501613 
C 836.438767 492.479184 839.121306 493.590328 841.918014 493.590328 
z
" clip-path="url(#p0b40ad1881)" style="stroke: #000000; stroke-width: 2; stroke-linejoin: miter"/>
   </g>
   <g id="patch_43">
    <path d="M 873.206964 266.339846 
L 903.337064 266.339846 
L 903.337064 236.209747 
L 873.206964 236.209747 
z
" clip-path="url(#p0b40ad1881)" style="fill: #ffffff; stroke: #000000; stroke-width: 1.5; stroke-linejoin: miter"/>
   </g>
   <g id="patch_44">
    <path d="M 873.206964 544.463843 
L 903.337064 544.463843 
L 903.337064 514.333743 
L 873.206964 514.333743 
z
" clip-path="url(#p0b40ad1881)" style="fill: #ffffff; stroke: #000000; stroke-width: 1.5; stroke-linejoin: miter"/>
   </g>
   <g id="patch_45">
    <path d="M 888.272014 441.210309 
C 889.470603 441.210309 890.620263 440.734105 891.467793 439.886574 
C 892.315324 439.039043 892.791529 437.889384 892.791529 436.690794 
C 892.791529 435.492205 892.315324 434.342545 891.467793 433.495015 
C 890.620263 432.647484 889.470603 432.171279 888.272014 432.171279 
C 887.073424 432.171279 885.923765 432.647484 885.076234 433.495015 
C 884.228703 434.342545 883.752499 435.492205 883.752499 436.690794 
C 883.752499 437.889384 884.228703 439.039043 885.076234 439.886574 
C 885.923765 440.734105 887.073424 441.210309 888.272014 441.210309 
z
" clip-path="url(#p0b40ad1881)" style="stroke: #000000; stroke-width: 1.5; stroke-linejoin: miter"/>
   </g>
   <g id="patch_46">
    <path d="M 888.272014 493.590328 
C 891.068722 493.590328 893.751261 492.479184 895.728833 490.501613 
C 897.706405 488.524041 898.817549 485.841502 898.817549 483.044794 
C 898.817549 480.248085 897.706405 477.565546 895.728833 475.587974 
C 893.751261 473.610403 891.068722 472.499259 888.272014 472.499259 
C 885.475305 472.499259 882.792766 473.610403 880.815195 475.587974 
C 878.837623 477.565546 877.726479 480.248085 877.726479 483.044794 
C 877.726479 485.841502 878.837623 488.524041 880.815195 490.501613 
C 882.792766 492.479184 885.475305 493.590328 888.272014 493.590328 
z
" clip-path="url(#p0b40ad1881)" style="stroke: #000000; stroke-width: 2; stroke-linejoin: miter"/>
   </g>
   <g id="patch_47">
    <path d="M 942.737963 544.463843 
L 972.868063 544.463843 
L 972.868063 514.333743 
L 942.737963 514.333743 
z
" clip-path="url(#p0b40ad1881)" style="fill: #ffffff; stroke: #000000; stroke-width: 1.5; stroke-linejoin: miter"/>
   </g>
   <g id="patch_48">
    <path d="M 936.408324 498.109843 
L 979.197701 498.109843 
L 979.197701 467.979744 
L 936.408324 467.979744 
z
" clip-path="url(#p0b40ad1881)" style="fill: #ffffff; stroke: #000000; stroke-width: 1.5; stroke-linejoin: miter"/>
   </g>
   <g id="patch_49">
    <path d="M 1027.334012 441.210309 
C 1028.532601 441.210309 1029.682261 440.734105 1030.529792 439.886574 
C 1031.377322 439.039043 1031.853527 437.889384 1031.853527 436.690794 
C 1031.853527 435.492205 1031.377322 434.342545 1030.529792 433.495015 
C 1029.682261 432.647484 1028.532601 432.171279 1027.334012 432.171279 
C 1026.135423 432.171279 1024.985763 432.647484 1024.138232 433.495015 
C 1023.290702 434.342545 1022.814497 435.492205 1022.814497 436.690794 
C 1022.814497 437.889384 1023.290702 439.039043 1024.138232 439.886574 
C 1024.985763 440.734105 1026.135423 441.210309 1027.334012 441.210309 
z
" clip-path="url(#p0b40ad1881)" style="stroke: #000000; stroke-width: 1.5; stroke-linejoin: miter"/>
   </g>
   <g id="patch_50">
    <path d="M 1027.334012 493.590328 
C 1030.13072 493.590328 1032.81326 492.479184 1034.790831 490.501613 
C 1036.768403 488.524041 1037.879547 485.841502 1037.879547 483.044794 
C 1037.879547 480.248085 1036.768403 477.565546 1034.790831 475.587974 
C 1032.81326 473.610403 1030.13072 472.499259 1027.334012 472.499259 
C 1024.537303 472.499259 1021.854764 473.610403 1019.877193 475.587974 
C 1017.899621 477.565546 1016.788477 480.248085 1016.788477 483.044794 
C 1016.788477 485.841502 1017.899621 488.524041 1019.877193 490.501613 
C 1021.854764 492.479184 1024.537303 493.590328 1027.334012 493.590328 
z
" clip-path="url(#p0b40ad1881)" style="stroke: #000000; stroke-width: 2; stroke-linejoin: miter"/>
   </g>
   <g id="patch_51">
    <path d="M 1058.622962 451.755844 
L 1088.753061 451.755844 
L 1088.753061 421.625744 
L 1058.622962 421.625744 
z
" clip-path="url(#p0b40ad1881)" style="fill: #ffffff; stroke: #000000; stroke-width: 1.5; stroke-linejoin: miter"/>
   </g>
   <g id="text_2">
    <g clip-path="url(#p0b40ad1881)">
     <!-- ${q}_{0}$ -->
     <g transform="translate(186.976563 116.663775)scale(0.1625 -0.1625)">
      <defs>
       <path id="DejaVuSans-Oblique-71" d="M 2669 525 
Q 2438 222 2123 65 
Q 1809 -91 1428 -91 
Q 897 -91 595 267 
Q 294 625 294 1253 
Q 294 1759 480 2231 
Q 666 2703 1013 3078 
Q 1238 3322 1530 3453 
Q 1822 3584 2144 3584 
Q 2531 3584 2781 3431 
Q 3031 3278 3144 2969 
L 3244 3494 
L 3822 3494 
L 2888 -1319 
L 2309 -1319 
L 2669 525 
z
M 891 1338 
Q 891 875 1084 633 
Q 1278 391 1644 391 
Q 2188 391 2572 911 
Q 2956 1431 2956 2175 
Q 2956 2625 2757 2864 
Q 2559 3103 2188 3103 
Q 1916 3103 1684 2976 
Q 1453 2850 1281 2606 
Q 1100 2350 995 2006 
Q 891 1663 891 1338 
z
" transform="scale(0.015625)"/>
       <path id="DejaVuSans-30" d="M 2034 4250 
Q 1547 4250 1301 3770 
Q 1056 3291 1056 2328 
Q 1056 1369 1301 889 
Q 1547 409 2034 409 
Q 2525 409 2770 889 
Q 3016 1369 3016 2328 
Q 3016 3291 2770 3770 
Q 2525 4250 2034 4250 
z
M 2034 4750 
Q 2819 4750 3233 4129 
Q 3647 3509 3647 2328 
Q 3647 1150 3233 529 
Q 2819 -91 2034 -91 
Q 1250 -91 836 529 
Q 422 1150 422 2328 
Q 422 3509 836 4129 
Q 1250 4750 2034 4750 
z
" transform="scale(0.015625)"/>
      </defs>
      <use xlink:href="#DejaVuSans-Oblique-71"/>
      <use xlink:href="#DejaVuSans-30" transform="translate(63.476562 -16.40625)scale(0.7)"/>
     </g>
    </g>
   </g>
   <g id="text_3">
    <g clip-path="url(#p0b40ad1881)">
     <!-- ${q}_{1}$ -->
     <g transform="translate(186.976563 163.017774)scale(0.1625 -0.1625)">
      <use xlink:href="#DejaVuSans-Oblique-71"/>
      <use xlink:href="#DejaVuSans-31" transform="translate(63.476562 -16.40625)scale(0.7)"/>
     </g>
    </g>
   </g>
   <g id="text_4">
    <g clip-path="url(#p0b40ad1881)">
     <!-- ${q}_{2}$ -->
     <g transform="translate(186.976563 209.371774)scale(0.1625 -0.1625)">
      <defs>
       <path id="DejaVuSans-32" d="M 1228 531 
L 3431 531 
L 3431 0 
L 469 0 
L 469 531 
Q 828 903 1448 1529 
Q 2069 2156 2228 2338 
Q 2531 2678 2651 2914 
Q 2772 3150 2772 3378 
Q 2772 3750 2511 3984 
Q 2250 4219 1831 4219 
Q 1534 4219 1204 4116 
Q 875 4013 500 3803 
L 500 4441 
Q 881 4594 1212 4672 
Q 1544 4750 1819 4750 
Q 2544 4750 2975 4387 
Q 3406 4025 3406 3419 
Q 3406 3131 3298 2873 
Q 3191 2616 2906 2266 
Q 2828 2175 2409 1742 
Q 1991 1309 1228 531 
z
" transform="scale(0.015625)"/>
      </defs>
      <use xlink:href="#DejaVuSans-Oblique-71"/>
      <use xlink:href="#DejaVuSans-32" transform="translate(63.476562 -16.40625)scale(0.7)"/>
     </g>
    </g>
   </g>
   <g id="text_5">
    <g clip-path="url(#p0b40ad1881)">
     <!-- ${q}_{3}$ -->
     <g transform="translate(186.976563 255.725773)scale(0.1625 -0.1625)">
      <use xlink:href="#DejaVuSans-Oblique-71"/>
      <use xlink:href="#DejaVuSans-33" transform="translate(63.476562 -16.40625)scale(0.7)"/>
     </g>
    </g>
   </g>
   <g id="text_6">
    <g clip-path="url(#p0b40ad1881)">
     <!-- ${q}_{4}$ -->
     <g transform="translate(186.976563 302.079773)scale(0.1625 -0.1625)">
      <defs>
       <path id="DejaVuSans-34" d="M 2419 4116 
L 825 1625 
L 2419 1625 
L 2419 4116 
z
M 2253 4666 
L 3047 4666 
L 3047 1625 
L 3713 1625 
L 3713 1100 
L 3047 1100 
L 3047 0 
L 2419 0 
L 2419 1100 
L 313 1100 
L 313 1709 
L 2253 4666 
z
" transform="scale(0.015625)"/>
      </defs>
      <use xlink:href="#DejaVuSans-Oblique-71"/>
      <use xlink:href="#DejaVuSans-34" transform="translate(63.476562 -16.40625)scale(0.7)"/>
     </g>
    </g>
   </g>
   <g id="text_7">
    <g clip-path="url(#p0b40ad1881)">
     <!-- ${q}_{5}$ -->
     <g transform="translate(186.976563 348.433772)scale(0.1625 -0.1625)">
      <use xlink:href="#DejaVuSans-Oblique-71"/>
      <use xlink:href="#DejaVuSans-35" transform="translate(63.476562 -16.40625)scale(0.7)"/>
     </g>
    </g>
   </g>
   <g id="text_8">
    <g clip-path="url(#p0b40ad1881)">
     <!-- ${q}_{6}$ -->
     <g transform="translate(186.976563 394.787771)scale(0.1625 -0.1625)">
      <defs>
       <path id="DejaVuSans-36" d="M 2113 2584 
Q 1688 2584 1439 2293 
Q 1191 2003 1191 1497 
Q 1191 994 1439 701 
Q 1688 409 2113 409 
Q 2538 409 2786 701 
Q 3034 994 3034 1497 
Q 3034 2003 2786 2293 
Q 2538 2584 2113 2584 
z
M 3366 4563 
L 3366 3988 
Q 3128 4100 2886 4159 
Q 2644 4219 2406 4219 
Q 1781 4219 1451 3797 
Q 1122 3375 1075 2522 
Q 1259 2794 1537 2939 
Q 1816 3084 2150 3084 
Q 2853 3084 3261 2657 
Q 3669 2231 3669 1497 
Q 3669 778 3244 343 
Q 2819 -91 2113 -91 
Q 1303 -91 875 529 
Q 447 1150 447 2328 
Q 447 3434 972 4092 
Q 1497 4750 2381 4750 
Q 2619 4750 2861 4703 
Q 3103 4656 3366 4563 
z
" transform="scale(0.015625)"/>
      </defs>
      <use xlink:href="#DejaVuSans-Oblique-71"/>
      <use xlink:href="#DejaVuSans-36" transform="translate(63.476562 -16.40625)scale(0.7)"/>
     </g>
    </g>
   </g>
   <g id="text_9">
    <g clip-path="url(#p0b40ad1881)">
     <!-- ${q}_{7}$ -->
     <g transform="translate(186.976563 441.141771)scale(0.1625 -0.1625)">
      <defs>
       <path id="DejaVuSans-37" d="M 525 4666 
L 3525 4666 
L 3525 4397 
L 1831 0 
L 1172 0 
L 2766 4134 
L 525 4134 
L 525 4666 
z
" transform="scale(0.015625)"/>
      </defs>
      <use xlink:href="#DejaVuSans-Oblique-71"/>
      <use xlink:href="#DejaVuSans-37" transform="translate(63.476562 -16.40625)scale(0.7)"/>
     </g>
    </g>
   </g>
   <g id="text_10">
    <g clip-path="url(#p0b40ad1881)">
     <!-- ${q}_{8}$ -->
     <g transform="translate(186.976563 487.49577)scale(0.1625 -0.1625)">
      <defs>
       <path id="DejaVuSans-38" d="M 2034 2216 
Q 1584 2216 1326 1975 
Q 1069 1734 1069 1313 
Q 1069 891 1326 650 
Q 1584 409 2034 409 
Q 2484 409 2743 651 
Q 3003 894 3003 1313 
Q 3003 1734 2745 1975 
Q 2488 2216 2034 2216 
z
M 1403 2484 
Q 997 2584 770 2862 
Q 544 3141 544 3541 
Q 544 4100 942 4425 
Q 1341 4750 2034 4750 
Q 2731 4750 3128 4425 
Q 3525 4100 3525 3541 
Q 3525 3141 3298 2862 
Q 3072 2584 2669 2484 
Q 3125 2378 3379 2068 
Q 3634 1759 3634 1313 
Q 3634 634 3220 271 
Q 2806 -91 2034 -91 
Q 1263 -91 848 271 
Q 434 634 434 1313 
Q 434 1759 690 2068 
Q 947 2378 1403 2484 
z
M 1172 3481 
Q 1172 3119 1398 2916 
Q 1625 2713 2034 2713 
Q 2441 2713 2670 2916 
Q 2900 3119 2900 3481 
Q 2900 3844 2670 4047 
Q 2441 4250 2034 4250 
Q 1625 4250 1398 4047 
Q 1172 3844 1172 3481 
z
" transform="scale(0.015625)"/>
      </defs>
      <use xlink:href="#DejaVuSans-Oblique-71"/>
      <use xlink:href="#DejaVuSans-38" transform="translate(63.476562 -16.40625)scale(0.7)"/>
     </g>
    </g>
   </g>
   <g id="text_11">
    <g clip-path="url(#p0b40ad1881)">
     <!-- ${q}_{9}$ -->
     <g transform="translate(186.976563 533.84977)scale(0.1625 -0.1625)">
      <defs>
       <path id="DejaVuSans-39" d="M 703 97 
L 703 672 
Q 941 559 1184 500 
Q 1428 441 1663 441 
Q 2288 441 2617 861 
Q 2947 1281 2994 2138 
Q 2813 1869 2534 1725 
Q 2256 1581 1919 1581 
Q 1219 1581 811 2004 
Q 403 2428 403 3163 
Q 403 3881 828 4315 
Q 1253 4750 1959 4750 
Q 2769 4750 3195 4129 
Q 3622 3509 3622 2328 
Q 3622 1225 3098 567 
Q 2575 -91 1691 -91 
Q 1453 -91 1209 -44 
Q 966 3 703 97 
z
M 1959 2075 
Q 2384 2075 2632 2365 
Q 2881 2656 2881 3163 
Q 2881 3666 2632 3958 
Q 2384 4250 1959 4250 
Q 1534 4250 1286 3958 
Q 1038 3666 1038 3163 
Q 1038 2656 1286 2365 
Q 1534 2075 1959 2075 
z
" transform="scale(0.015625)"/>
      </defs>
      <use xlink:href="#DejaVuSans-Oblique-71"/>
      <use xlink:href="#DejaVuSans-39" transform="translate(63.476562 -16.40625)scale(0.7)"/>
     </g>
    </g>
   </g>
   <g id="text_12">
    <g clip-path="url(#p0b40ad1881)">
     <!-- H -->
     <g transform="translate(234.427819 254.861984)scale(0.13 -0.13)">
      <use xlink:href="#DejaVuSans-48"/>
     </g>
    </g>
   </g>
   <g id="text_13">
    <g clip-path="url(#p0b40ad1881)">
     <!-- H -->
     <g transform="translate(234.427819 393.923982)scale(0.13 -0.13)">
      <use xlink:href="#DejaVuSans-48"/>
     </g>
    </g>
   </g>
   <g id="text_14">
    <g clip-path="url(#p0b40ad1881)">
     <!-- S -->
     <g transform="translate(235.189538 532.98598)scale(0.13 -0.13)">
      <use xlink:href="#DejaVuSans-53"/>
     </g>
    </g>
   </g>
   <g id="text_15">
    <g clip-path="url(#p0b40ad1881)">
     <!-- H -->
     <g transform="translate(234.427819 440.277982)scale(0.13 -0.13)">
      <use xlink:href="#DejaVuSans-48"/>
     </g>
    </g>
   </g>
   <g id="line2d_27">
    <path d="M 285.670022 164.592818 
L 285.670022 152.540778 
" clip-path="url(#p0b40ad1881)" style="fill: none; stroke: #ffffff; stroke-width: 2; stroke-linecap: square"/>
   </g>
   <g id="line2d_28">
    <path d="M 279.644002 158.566798 
L 291.696042 158.566798 
" clip-path="url(#p0b40ad1881)" style="fill: none; stroke: #ffffff; stroke-width: 2; stroke-linecap: square"/>
   </g>
   <g id="text_16">
    <g clip-path="url(#p0b40ad1881)">
     <!-- H -->
     <g transform="translate(280.781819 532.98598)scale(0.13 -0.13)">
      <use xlink:href="#DejaVuSans-48"/>
     </g>
    </g>
   </g>
   <g id="line2d_29">
    <path d="M 332.024021 164.592818 
L 332.024021 152.540778 
" clip-path="url(#p0b40ad1881)" style="fill: none; stroke: #ffffff; stroke-width: 2; stroke-linecap: square"/>
   </g>
   <g id="line2d_30">
    <path d="M 325.998001 158.566798 
L 338.050041 158.566798 
" clip-path="url(#p0b40ad1881)" style="fill: none; stroke: #ffffff; stroke-width: 2; stroke-linecap: square"/>
   </g>
   <g id="line2d_31">
    <path d="M 332.024021 489.070814 
L 332.024021 477.018774 
" clip-path="url(#p0b40ad1881)" style="fill: none; stroke: #ffffff; stroke-width: 2; stroke-linecap: square"/>
   </g>
   <g id="line2d_32">
    <path d="M 325.998001 483.044794 
L 338.050041 483.044794 
" clip-path="url(#p0b40ad1881)" style="fill: none; stroke: #ffffff; stroke-width: 2; stroke-linecap: square"/>
   </g>
   <g id="text_17">
    <g clip-path="url(#p0b40ad1881)">
     <!-- 0.0628 -->
     <g transform="translate(387.55877 169.813328)scale(0.08 -0.08)">
      <defs>
       <path id="DejaVuSans-2e" d="M 684 794 
L 1344 794 
L 1344 0 
L 684 0 
L 684 794 
z
" transform="scale(0.015625)"/>
      </defs>
      <use xlink:href="#DejaVuSans-30"/>
      <use xlink:href="#DejaVuSans-2e" x="63.623047"/>
      <use xlink:href="#DejaVuSans-30" x="95.410156"/>
      <use xlink:href="#DejaVuSans-36" x="159.033203"/>
      <use xlink:href="#DejaVuSans-32" x="222.65625"/>
      <use xlink:href="#DejaVuSans-38" x="286.279297"/>
     </g>
    </g>
   </g>
   <g id="text_18">
    <g clip-path="url(#p0b40ad1881)">
     <!-- $\mathrm{R_Z}$ -->
     <g transform="translate(393.62502 157.63447)scale(0.13 -0.13)">
      <defs>
       <path id="DejaVuSans-5a" d="M 359 4666 
L 4025 4666 
L 4025 4184 
L 1075 531 
L 4097 531 
L 4097 0 
L 288 0 
L 288 481 
L 3238 4134 
L 359 4134 
L 359 4666 
z
" transform="scale(0.015625)"/>
      </defs>
      <use xlink:href="#DejaVuSans-52" transform="translate(0 0.09375)"/>
      <use xlink:href="#DejaVuSans-5a" transform="translate(70.439453 -16.3125)scale(0.7)"/>
     </g>
    </g>
   </g>
   <g id="text_19">
    <g clip-path="url(#p0b40ad1881)">
     <!-- $-$0.00492 -->
     <g transform="translate(381.71502 494.291323)scale(0.08 -0.08)">
      <defs>
       <path id="DejaVuSans-2212" d="M 678 2272 
L 4684 2272 
L 4684 1741 
L 678 1741 
L 678 2272 
z
" transform="scale(0.015625)"/>
      </defs>
      <use xlink:href="#DejaVuSans-2212" transform="translate(0 0.78125)"/>
      <use xlink:href="#DejaVuSans-30" transform="translate(83.789062 0.78125)"/>
      <use xlink:href="#DejaVuSans-2e" transform="translate(147.412109 0.78125)"/>
      <use xlink:href="#DejaVuSans-30" transform="translate(179.199219 0.78125)"/>
      <use xlink:href="#DejaVuSans-30" transform="translate(242.822266 0.78125)"/>
      <use xlink:href="#DejaVuSans-34" transform="translate(306.445312 0.78125)"/>
      <use xlink:href="#DejaVuSans-39" transform="translate(370.068359 0.78125)"/>
      <use xlink:href="#DejaVuSans-32" transform="translate(431.941406 0.78125)"/>
     </g>
    </g>
   </g>
   <g id="text_20">
    <g clip-path="url(#p0b40ad1881)">
     <!-- $\mathrm{R_Z}$ -->
     <g transform="translate(393.62502 482.112466)scale(0.13 -0.13)">
      <use xlink:href="#DejaVuSans-52" transform="translate(0 0.09375)"/>
      <use xlink:href="#DejaVuSans-5a" transform="translate(70.439453 -16.3125)scale(0.7)"/>
     </g>
    </g>
   </g>
   <g id="line2d_33">
    <path d="M 471.086019 164.592818 
L 471.086019 152.540778 
" clip-path="url(#p0b40ad1881)" style="fill: none; stroke: #ffffff; stroke-width: 2; stroke-linecap: square"/>
   </g>
   <g id="line2d_34">
    <path d="M 465.059999 158.566798 
L 477.112039 158.566798 
" clip-path="url(#p0b40ad1881)" style="fill: none; stroke: #ffffff; stroke-width: 2; stroke-linecap: square"/>
   </g>
   <g id="line2d_35">
    <path d="M 471.086019 489.070814 
L 471.086019 477.018774 
" clip-path="url(#p0b40ad1881)" style="fill: none; stroke: #ffffff; stroke-width: 2; stroke-linecap: square"/>
   </g>
   <g id="line2d_36">
    <path d="M 465.059999 483.044794 
L 477.112039 483.044794 
" clip-path="url(#p0b40ad1881)" style="fill: none; stroke: #ffffff; stroke-width: 2; stroke-linecap: square"/>
   </g>
   <g id="line2d_37">
    <path d="M 517.440019 164.592818 
L 517.440019 152.540778 
" clip-path="url(#p0b40ad1881)" style="fill: none; stroke: #ffffff; stroke-width: 2; stroke-linecap: square"/>
   </g>
   <g id="line2d_38">
    <path d="M 511.413999 158.566798 
L 523.466039 158.566798 
" clip-path="url(#p0b40ad1881)" style="fill: none; stroke: #ffffff; stroke-width: 2; stroke-linecap: square"/>
   </g>
   <g id="text_21">
    <g clip-path="url(#p0b40ad1881)">
     <!-- H -->
     <g transform="translate(512.551816 532.98598)scale(0.13 -0.13)">
      <use xlink:href="#DejaVuSans-48"/>
     </g>
    </g>
   </g>
   <g id="line2d_39">
    <path d="M 517.440019 489.070814 
L 517.440019 477.018774 
" clip-path="url(#p0b40ad1881)" style="fill: none; stroke: #ffffff; stroke-width: 2; stroke-linecap: square"/>
   </g>
   <g id="line2d_40">
    <path d="M 511.413999 483.044794 
L 523.466039 483.044794 
" clip-path="url(#p0b40ad1881)" style="fill: none; stroke: #ffffff; stroke-width: 2; stroke-linecap: square"/>
   </g>
   <g id="text_22">
    <g clip-path="url(#p0b40ad1881)">
     <!-- $-$0.00492 -->
     <g transform="translate(567.131018 494.291323)scale(0.08 -0.08)">
      <use xlink:href="#DejaVuSans-2212" transform="translate(0 0.78125)"/>
      <use xlink:href="#DejaVuSans-30" transform="translate(83.789062 0.78125)"/>
      <use xlink:href="#DejaVuSans-2e" transform="translate(147.412109 0.78125)"/>
      <use xlink:href="#DejaVuSans-30" transform="translate(179.199219 0.78125)"/>
      <use xlink:href="#DejaVuSans-30" transform="translate(242.822266 0.78125)"/>
      <use xlink:href="#DejaVuSans-34" transform="translate(306.445312 0.78125)"/>
      <use xlink:href="#DejaVuSans-39" transform="translate(370.068359 0.78125)"/>
      <use xlink:href="#DejaVuSans-32" transform="translate(431.941406 0.78125)"/>
     </g>
    </g>
   </g>
   <g id="text_23">
    <g clip-path="url(#p0b40ad1881)">
     <!-- $\mathrm{R_Z}$ -->
     <g transform="translate(579.041018 482.112466)scale(0.13 -0.13)">
      <use xlink:href="#DejaVuSans-52" transform="translate(0 0.09375)"/>
      <use xlink:href="#DejaVuSans-5a" transform="translate(70.439453 -16.3125)scale(0.7)"/>
     </g>
    </g>
   </g>
   <g id="line2d_41">
    <path d="M 586.971018 164.592818 
L 586.971018 152.540778 
" clip-path="url(#p0b40ad1881)" style="fill: none; stroke: #ffffff; stroke-width: 2; stroke-linecap: square"/>
   </g>
   <g id="line2d_42">
    <path d="M 580.944998 158.566798 
L 592.997038 158.566798 
" clip-path="url(#p0b40ad1881)" style="fill: none; stroke: #ffffff; stroke-width: 2; stroke-linecap: square"/>
   </g>
   <g id="text_24">
    <g clip-path="url(#p0b40ad1881)">
     <!-- H -->
     <g transform="translate(582.082815 532.98598)scale(0.13 -0.13)">
      <use xlink:href="#DejaVuSans-48"/>
     </g>
    </g>
   </g>
   <g id="line2d_43">
    <path d="M 656.502017 489.070814 
L 656.502017 477.018774 
" clip-path="url(#p0b40ad1881)" style="fill: none; stroke: #ffffff; stroke-width: 2; stroke-linecap: square"/>
   </g>
   <g id="line2d_44">
    <path d="M 650.475997 483.044794 
L 662.528037 483.044794 
" clip-path="url(#p0b40ad1881)" style="fill: none; stroke: #ffffff; stroke-width: 2; stroke-linecap: square"/>
   </g>
   <g id="line2d_45">
    <path d="M 656.502017 164.592818 
L 656.502017 152.540778 
" clip-path="url(#p0b40ad1881)" style="fill: none; stroke: #ffffff; stroke-width: 2; stroke-linecap: square"/>
   </g>
   <g id="line2d_46">
    <path d="M 650.475997 158.566798 
L 662.528037 158.566798 
" clip-path="url(#p0b40ad1881)" style="fill: none; stroke: #ffffff; stroke-width: 2; stroke-linecap: square"/>
   </g>
   <g id="text_25">
    <g clip-path="url(#p0b40ad1881)">
     <!-- 0.0628 -->
     <g transform="translate(688.859766 169.813328)scale(0.08 -0.08)">
      <use xlink:href="#DejaVuSans-30"/>
      <use xlink:href="#DejaVuSans-2e" x="63.623047"/>
      <use xlink:href="#DejaVuSans-30" x="95.410156"/>
      <use xlink:href="#DejaVuSans-36" x="159.033203"/>
      <use xlink:href="#DejaVuSans-32" x="222.65625"/>
      <use xlink:href="#DejaVuSans-38" x="286.279297"/>
     </g>
    </g>
   </g>
   <g id="text_26">
    <g clip-path="url(#p0b40ad1881)">
     <!-- $\mathrm{R_Z}$ -->
     <g transform="translate(694.926016 157.63447)scale(0.13 -0.13)">
      <use xlink:href="#DejaVuSans-52" transform="translate(0 0.09375)"/>
      <use xlink:href="#DejaVuSans-5a" transform="translate(70.439453 -16.3125)scale(0.7)"/>
     </g>
    </g>
   </g>
   <g id="line2d_47">
    <path d="M 702.856016 489.070814 
L 702.856016 477.018774 
" clip-path="url(#p0b40ad1881)" style="fill: none; stroke: #ffffff; stroke-width: 2; stroke-linecap: square"/>
   </g>
   <g id="line2d_48">
    <path d="M 696.829996 483.044794 
L 708.882036 483.044794 
" clip-path="url(#p0b40ad1881)" style="fill: none; stroke: #ffffff; stroke-width: 2; stroke-linecap: square"/>
   </g>
   <g id="line2d_49">
    <path d="M 772.387015 164.592818 
L 772.387015 152.540778 
" clip-path="url(#p0b40ad1881)" style="fill: none; stroke: #ffffff; stroke-width: 2; stroke-linecap: square"/>
   </g>
   <g id="line2d_50">
    <path d="M 766.360995 158.566798 
L 778.413035 158.566798 
" clip-path="url(#p0b40ad1881)" style="fill: none; stroke: #ffffff; stroke-width: 2; stroke-linecap: square"/>
   </g>
   <g id="text_27">
    <g clip-path="url(#p0b40ad1881)">
     <!-- $-$0.00492 -->
     <g transform="translate(752.547015 494.291323)scale(0.08 -0.08)">
      <use xlink:href="#DejaVuSans-2212" transform="translate(0 0.78125)"/>
      <use xlink:href="#DejaVuSans-30" transform="translate(83.789062 0.78125)"/>
      <use xlink:href="#DejaVuSans-2e" transform="translate(147.412109 0.78125)"/>
      <use xlink:href="#DejaVuSans-30" transform="translate(179.199219 0.78125)"/>
      <use xlink:href="#DejaVuSans-30" transform="translate(242.822266 0.78125)"/>
      <use xlink:href="#DejaVuSans-34" transform="translate(306.445312 0.78125)"/>
      <use xlink:href="#DejaVuSans-39" transform="translate(370.068359 0.78125)"/>
      <use xlink:href="#DejaVuSans-32" transform="translate(431.941406 0.78125)"/>
     </g>
    </g>
   </g>
   <g id="text_28">
    <g clip-path="url(#p0b40ad1881)">
     <!-- $\mathrm{R_Z}$ -->
     <g transform="translate(764.457015 482.112466)scale(0.13 -0.13)">
      <use xlink:href="#DejaVuSans-52" transform="translate(0 0.09375)"/>
      <use xlink:href="#DejaVuSans-5a" transform="translate(70.439453 -16.3125)scale(0.7)"/>
     </g>
    </g>
   </g>
   <g id="text_29">
    <g clip-path="url(#p0b40ad1881)">
     <!-- H -->
     <g transform="translate(837.029811 393.923982)scale(0.13 -0.13)">
      <use xlink:href="#DejaVuSans-48"/>
     </g>
    </g>
   </g>
   <g id="line2d_51">
    <path d="M 841.918014 164.592818 
L 841.918014 152.540778 
" clip-path="url(#p0b40ad1881)" style="fill: none; stroke: #ffffff; stroke-width: 2; stroke-linecap: square"/>
   </g>
   <g id="line2d_52">
    <path d="M 835.891994 158.566798 
L 847.944034 158.566798 
" clip-path="url(#p0b40ad1881)" style="fill: none; stroke: #ffffff; stroke-width: 2; stroke-linecap: square"/>
   </g>
   <g id="line2d_53">
    <path d="M 841.918014 489.070814 
L 841.918014 477.018774 
" clip-path="url(#p0b40ad1881)" style="fill: none; stroke: #ffffff; stroke-width: 2; stroke-linecap: square"/>
   </g>
   <g id="line2d_54">
    <path d="M 835.891994 483.044794 
L 847.944034 483.044794 
" clip-path="url(#p0b40ad1881)" style="fill: none; stroke: #ffffff; stroke-width: 2; stroke-linecap: square"/>
   </g>
   <g id="text_30">
    <g clip-path="url(#p0b40ad1881)">
     <!-- H -->
     <g transform="translate(883.383811 254.861984)scale(0.13 -0.13)">
      <use xlink:href="#DejaVuSans-48"/>
     </g>
    </g>
   </g>
   <g id="text_31">
    <g clip-path="url(#p0b40ad1881)">
     <!-- H -->
     <g transform="translate(883.383811 532.98598)scale(0.13 -0.13)">
      <use xlink:href="#DejaVuSans-48"/>
     </g>
    </g>
   </g>
   <g id="line2d_55">
    <path d="M 888.272014 489.070814 
L 888.272014 477.018774 
" clip-path="url(#p0b40ad1881)" style="fill: none; stroke: #ffffff; stroke-width: 2; stroke-linecap: square"/>
   </g>
   <g id="line2d_56">
    <path d="M 882.245994 483.044794 
L 894.298034 483.044794 
" clip-path="url(#p0b40ad1881)" style="fill: none; stroke: #ffffff; stroke-width: 2; stroke-linecap: square"/>
   </g>
   <g id="text_32">
    <g clip-path="url(#p0b40ad1881)">
     <!-- $\mathrm{S^\dagger}$ -->
     <g transform="translate(949.353013 532.98598)scale(0.13 -0.13)">
      <defs>
       <path id="DejaVuSans-2020" d="M 1325 4666 
L 1875 4666 
L 1875 3353 
L 3022 3353 
L 3022 2875 
L 1875 2875 
L 1875 -616 
L 1325 -616 
L 1325 2875 
L 178 2875 
L 178 3353 
L 1325 3353 
L 1325 4666 
z
" transform="scale(0.015625)"/>
      </defs>
      <use xlink:href="#DejaVuSans-53" transform="translate(0 0.684375)"/>
      <use xlink:href="#DejaVuSans-2020" transform="translate(78.071289 38.965625)scale(0.7)"/>
     </g>
    </g>
   </g>
   <g id="text_33">
    <g clip-path="url(#p0b40ad1881)">
     <!-- $-$0.00492 -->
     <g transform="translate(937.963013 494.291323)scale(0.08 -0.08)">
      <use xlink:href="#DejaVuSans-2212" transform="translate(0 0.78125)"/>
      <use xlink:href="#DejaVuSans-30" transform="translate(83.789062 0.78125)"/>
      <use xlink:href="#DejaVuSans-2e" transform="translate(147.412109 0.78125)"/>
      <use xlink:href="#DejaVuSans-30" transform="translate(179.199219 0.78125)"/>
      <use xlink:href="#DejaVuSans-30" transform="translate(242.822266 0.78125)"/>
      <use xlink:href="#DejaVuSans-34" transform="translate(306.445312 0.78125)"/>
      <use xlink:href="#DejaVuSans-39" transform="translate(370.068359 0.78125)"/>
      <use xlink:href="#DejaVuSans-32" transform="translate(431.941406 0.78125)"/>
     </g>
    </g>
   </g>
   <g id="text_34">
    <g clip-path="url(#p0b40ad1881)">
     <!-- $\mathrm{R_Z}$ -->
     <g transform="translate(949.873013 482.112466)scale(0.13 -0.13)">
      <use xlink:href="#DejaVuSans-52" transform="translate(0 0.09375)"/>
      <use xlink:href="#DejaVuSans-5a" transform="translate(70.439453 -16.3125)scale(0.7)"/>
     </g>
    </g>
   </g>
   <g id="line2d_57">
    <path d="M 1027.334012 489.070814 
L 1027.334012 477.018774 
" clip-path="url(#p0b40ad1881)" style="fill: none; stroke: #ffffff; stroke-width: 2; stroke-linecap: square"/>
   </g>
   <g id="line2d_58">
    <path d="M 1021.307992 483.044794 
L 1033.360032 483.044794 
" clip-path="url(#p0b40ad1881)" style="fill: none; stroke: #ffffff; stroke-width: 2; stroke-linecap: square"/>
   </g>
   <g id="text_35">
    <g clip-path="url(#p0b40ad1881)">
     <!-- H -->
     <g transform="translate(1068.799808 440.277982)scale(0.13 -0.13)">
      <use xlink:href="#DejaVuSans-48"/>
     </g>
    </g>
   </g>
  </g>
 </g>
 <defs>
  <clipPath id="p0b40ad1881">
   <rect x="156.875666" y="75.129599" width="947.405985" height="482.081594"/>
  </clipPath>
 </defs>
</svg>
