<?xml version="1.0" encoding="utf-8" standalone="no"?>
<!DOCTYPE svg PUBLIC "-//W3C//DTD SVG 1.1//EN"
  "http://www.w3.org/Graphics/SVG/1.1/DTD/svg11.dtd">
<svg xmlns:xlink="http://www.w3.org/1999/xlink" width="1651.797377pt" height="626.079992pt" viewBox="0 0 1651.797377 626.079992" xmlns="http://www.w3.org/2000/svg" version="1.1">
 <metadata>
  <rdf:RDF xmlns:dc="http://purl.org/dc/elements/1.1/" xmlns:cc="http://creativecommons.org/ns#" xmlns:rdf="http://www.w3.org/1999/02/22-rdf-syntax-ns#">
   <cc:Work>
    <dc:type rdf:resource="http://purl.org/dc/dcmitype/StillImage"/>
    <dc:date>2022-05-22T13:38:25.407024</dc:date>
    <dc:format>image/svg+xml</dc:format>
    <dc:creator>
     <cc:Agent>
      <dc:title>Matplotlib v3.5.1, https://matplotlib.org/</dc:title>
     </cc:Agent>
    </dc:creator>
   </cc:Work>
  </rdf:RDF>
 </metadata>
 <defs>
  <style type="text/css">*{stroke-linejoin: round; stroke-linecap: butt}</style>
 </defs>
 <g id="figure_1">
  <g id="patch_1">
   <path d="M 0 626.079992 
L 1651.797377 626.079992 
L 1651.797377 0 
L 0 0 
z
" style="fill: #ffffff"/>
  </g>
  <g id="axes_1">
   <g id="line2d_1">
    <path d="M 268.013362 112.212799 
L 1477.852746 112.212799 
" clip-path="url(#p7291b47436)" style="fill: none; stroke: #000000; stroke-width: 2; stroke-linecap: square"/>
   </g>
   <g id="line2d_2">
    <path d="M 268.013362 158.566798 
L 1477.852746 158.566798 
" clip-path="url(#p7291b47436)" style="fill: none; stroke: #000000; stroke-width: 2; stroke-linecap: square"/>
   </g>
   <g id="line2d_3">
    <path d="M 268.013362 204.920797 
L 1477.852746 204.920797 
" clip-path="url(#p7291b47436)" style="fill: none; stroke: #000000; stroke-width: 2; stroke-linecap: square"/>
   </g>
   <g id="line2d_4">
    <path d="M 268.013362 251.274797 
L 1477.852746 251.274797 
" clip-path="url(#p7291b47436)" style="fill: none; stroke: #000000; stroke-width: 2; stroke-linecap: square"/>
   </g>
   <g id="line2d_5">
    <path d="M 268.013362 297.628796 
L 1477.852746 297.628796 
" clip-path="url(#p7291b47436)" style="fill: none; stroke: #000000; stroke-width: 2; stroke-linecap: square"/>
   </g>
   <g id="line2d_6">
    <path d="M 268.013362 343.982795 
L 1477.852746 343.982795 
" clip-path="url(#p7291b47436)" style="fill: none; stroke: #000000; stroke-width: 2; stroke-linecap: square"/>
   </g>
   <g id="line2d_7">
    <path d="M 268.013362 390.336795 
L 1477.852746 390.336795 
" clip-path="url(#p7291b47436)" style="fill: none; stroke: #000000; stroke-width: 2; stroke-linecap: square"/>
   </g>
   <g id="line2d_8">
    <path d="M 268.013362 436.690794 
L 1477.852746 436.690794 
" clip-path="url(#p7291b47436)" style="fill: none; stroke: #000000; stroke-width: 2; stroke-linecap: square"/>
   </g>
   <g id="line2d_9">
    <path d="M 268.013362 483.044794 
L 1477.852746 483.044794 
" clip-path="url(#p7291b47436)" style="fill: none; stroke: #000000; stroke-width: 2; stroke-linecap: square"/>
   </g>
   <g id="line2d_10">
    <path d="M 268.013362 529.398793 
L 1477.852746 529.398793 
" clip-path="url(#p7291b47436)" style="fill: none; stroke: #000000; stroke-width: 2; stroke-linecap: square"/>
   </g>
   <g id="line2d_11">
    <path d="M 293.044522 483.044794 
L 293.044522 112.212799 
" clip-path="url(#p7291b47436)" style="fill: none; stroke: #000000; stroke-width: 2; stroke-linecap: square"/>
   </g>
   <g id="line2d_12">
    <path d="M 432.10652 483.044794 
L 432.10652 343.982795 
" clip-path="url(#p7291b47436)" style="fill: none; stroke: #000000; stroke-width: 2; stroke-linecap: square"/>
   </g>
   <g id="line2d_13">
    <path d="M 478.460519 483.044794 
L 478.460519 390.336795 
" clip-path="url(#p7291b47436)" style="fill: none; stroke: #000000; stroke-width: 2; stroke-linecap: square"/>
   </g>
   <g id="line2d_14">
    <path d="M 524.814519 483.044794 
L 524.814519 436.690794 
" clip-path="url(#p7291b47436)" style="fill: none; stroke: #000000; stroke-width: 2; stroke-linecap: square"/>
   </g>
   <g id="line2d_15">
    <path d="M 617.522517 483.044794 
L 617.522517 390.336795 
" clip-path="url(#p7291b47436)" style="fill: none; stroke: #000000; stroke-width: 2; stroke-linecap: square"/>
   </g>
   <g id="line2d_16">
    <path d="M 663.876517 483.044794 
L 663.876517 343.982795 
" clip-path="url(#p7291b47436)" style="fill: none; stroke: #000000; stroke-width: 2; stroke-linecap: square"/>
   </g>
   <g id="line2d_17">
    <path d="M 710.230516 390.336795 
L 710.230516 297.628796 
" clip-path="url(#p7291b47436)" style="fill: none; stroke: #000000; stroke-width: 2; stroke-linecap: square"/>
   </g>
   <g id="line2d_18">
    <path d="M 802.938515 483.044794 
L 802.938515 112.212799 
" clip-path="url(#p7291b47436)" style="fill: none; stroke: #000000; stroke-width: 2; stroke-linecap: square"/>
   </g>
   <g id="line2d_19">
    <path d="M 895.646514 390.336795 
L 895.646514 297.628796 
" clip-path="url(#p7291b47436)" style="fill: none; stroke: #000000; stroke-width: 2; stroke-linecap: square"/>
   </g>
   <g id="line2d_20">
    <path d="M 988.354512 343.982795 
L 988.354512 204.920797 
" clip-path="url(#p7291b47436)" style="fill: none; stroke: #000000; stroke-width: 2; stroke-linecap: square"/>
   </g>
   <g id="line2d_21">
    <path d="M 1034.708512 390.336795 
L 1034.708512 204.920797 
" clip-path="url(#p7291b47436)" style="fill: none; stroke: #000000; stroke-width: 2; stroke-linecap: square"/>
   </g>
   <g id="line2d_22">
    <path d="M 1081.062511 436.690794 
L 1081.062511 204.920797 
" clip-path="url(#p7291b47436)" style="fill: none; stroke: #000000; stroke-width: 2; stroke-linecap: square"/>
   </g>
   <g id="line2d_23">
    <path d="M 1127.416511 483.044794 
L 1127.416511 204.920797 
" clip-path="url(#p7291b47436)" style="fill: none; stroke: #000000; stroke-width: 2; stroke-linecap: square"/>
   </g>
   <g id="line2d_24">
    <path d="M 1266.478509 483.044794 
L 1266.478509 204.920797 
" clip-path="url(#p7291b47436)" style="fill: none; stroke: #000000; stroke-width: 2; stroke-linecap: square"/>
   </g>
   <g id="line2d_25">
    <path d="M 1312.832508 436.690794 
L 1312.832508 204.920797 
" clip-path="url(#p7291b47436)" style="fill: none; stroke: #000000; stroke-width: 2; stroke-linecap: square"/>
   </g>
   <g id="line2d_26">
    <path d="M 1359.186508 390.336795 
L 1359.186508 204.920797 
" clip-path="url(#p7291b47436)" style="fill: none; stroke: #000000; stroke-width: 2; stroke-linecap: square"/>
   </g>
   <g id="line2d_27">
    <path d="M 1359.186508 529.398793 
L 1359.186508 483.044794 
" clip-path="url(#p7291b47436)" style="fill: none; stroke: #000000; stroke-width: 2; stroke-linecap: square"/>
   </g>
   <g id="line2d_28">
    <path d="M 1405.540507 343.982795 
L 1405.540507 204.920797 
" clip-path="url(#p7291b47436)" style="fill: none; stroke: #000000; stroke-width: 2; stroke-linecap: square"/>
   </g>
   <g id="line2d_29">
    <path d="M 1451.894506 529.398793 
L 1451.894506 483.044794 
" clip-path="url(#p7291b47436)" style="fill: none; stroke: #000000; stroke-width: 2; stroke-linecap: square"/>
   </g>
   <g id="text_1">
    <!-- TERMS: 8, DEPTH:21 -->
    <g transform="translate(784.513656 69.129599)scale(0.12 -0.12)">
     <defs>
      <path id="DejaVuSans-54" d="M -19 4666 
L 3928 4666 
L 3928 4134 
L 2272 4134 
L 2272 0 
L 1638 0 
L 1638 4134 
L -19 4134 
L -19 4666 
z
" transform="scale(0.015625)"/>
      <path id="DejaVuSans-45" d="M 628 4666 
L 3578 4666 
L 3578 4134 
L 1259 4134 
L 1259 2753 
L 3481 2753 
L 3481 2222 
L 1259 2222 
L 1259 531 
L 3634 531 
L 3634 0 
L 628 0 
L 628 4666 
z
" transform="scale(0.015625)"/>
      <path id="DejaVuSans-52" d="M 2841 2188 
Q 3044 2119 3236 1894 
Q 3428 1669 3622 1275 
L 4263 0 
L 3584 0 
L 2988 1197 
Q 2756 1666 2539 1819 
Q 2322 1972 1947 1972 
L 1259 1972 
L 1259 0 
L 628 0 
L 628 4666 
L 2053 4666 
Q 2853 4666 3247 4331 
Q 3641 3997 3641 3322 
Q 3641 2881 3436 2590 
Q 3231 2300 2841 2188 
z
M 1259 4147 
L 1259 2491 
L 2053 2491 
Q 2509 2491 2742 2702 
Q 2975 2913 2975 3322 
Q 2975 3731 2742 3939 
Q 2509 4147 2053 4147 
L 1259 4147 
z
" transform="scale(0.015625)"/>
      <path id="DejaVuSans-4d" d="M 628 4666 
L 1569 4666 
L 2759 1491 
L 3956 4666 
L 4897 4666 
L 4897 0 
L 4281 0 
L 4281 4097 
L 3078 897 
L 2444 897 
L 1241 4097 
L 1241 0 
L 628 0 
L 628 4666 
z
" transform="scale(0.015625)"/>
      <path id="DejaVuSans-53" d="M 3425 4513 
L 3425 3897 
Q 3066 4069 2747 4153 
Q 2428 4238 2131 4238 
Q 1616 4238 1336 4038 
Q 1056 3838 1056 3469 
Q 1056 3159 1242 3001 
Q 1428 2844 1947 2747 
L 2328 2669 
Q 3034 2534 3370 2195 
Q 3706 1856 3706 1288 
Q 3706 609 3251 259 
Q 2797 -91 1919 -91 
Q 1588 -91 1214 -16 
Q 841 59 441 206 
L 441 856 
Q 825 641 1194 531 
Q 1563 422 1919 422 
Q 2459 422 2753 634 
Q 3047 847 3047 1241 
Q 3047 1584 2836 1778 
Q 2625 1972 2144 2069 
L 1759 2144 
Q 1053 2284 737 2584 
Q 422 2884 422 3419 
Q 422 4038 858 4394 
Q 1294 4750 2059 4750 
Q 2388 4750 2728 4690 
Q 3069 4631 3425 4513 
z
" transform="scale(0.015625)"/>
      <path id="DejaVuSans-3a" d="M 750 794 
L 1409 794 
L 1409 0 
L 750 0 
L 750 794 
z
M 750 3309 
L 1409 3309 
L 1409 2516 
L 750 2516 
L 750 3309 
z
" transform="scale(0.015625)"/>
      <path id="DejaVuSans-20" transform="scale(0.015625)"/>
      <path id="DejaVuSans-38" d="M 2034 2216 
Q 1584 2216 1326 1975 
Q 1069 1734 1069 1313 
Q 1069 891 1326 650 
Q 1584 409 2034 409 
Q 2484 409 2743 651 
Q 3003 894 3003 1313 
Q 3003 1734 2745 1975 
Q 2488 2216 2034 2216 
z
M 1403 2484 
Q 997 2584 770 2862 
Q 544 3141 544 3541 
Q 544 4100 942 4425 
Q 1341 4750 2034 4750 
Q 2731 4750 3128 4425 
Q 3525 4100 3525 3541 
Q 3525 3141 3298 2862 
Q 3072 2584 2669 2484 
Q 3125 2378 3379 2068 
Q 3634 1759 3634 1313 
Q 3634 634 3220 271 
Q 2806 -91 2034 -91 
Q 1263 -91 848 271 
Q 434 634 434 1313 
Q 434 1759 690 2068 
Q 947 2378 1403 2484 
z
M 1172 3481 
Q 1172 3119 1398 2916 
Q 1625 2713 2034 2713 
Q 2441 2713 2670 2916 
Q 2900 3119 2900 3481 
Q 2900 3844 2670 4047 
Q 2441 4250 2034 4250 
Q 1625 4250 1398 4047 
Q 1172 3844 1172 3481 
z
" transform="scale(0.015625)"/>
      <path id="DejaVuSans-2c" d="M 750 794 
L 1409 794 
L 1409 256 
L 897 -744 
L 494 -744 
L 750 256 
L 750 794 
z
" transform="scale(0.015625)"/>
      <path id="DejaVuSans-44" d="M 1259 4147 
L 1259 519 
L 2022 519 
Q 2988 519 3436 956 
Q 3884 1394 3884 2338 
Q 3884 3275 3436 3711 
Q 2988 4147 2022 4147 
L 1259 4147 
z
M 628 4666 
L 1925 4666 
Q 3281 4666 3915 4102 
Q 4550 3538 4550 2338 
Q 4550 1131 3912 565 
Q 3275 0 1925 0 
L 628 0 
L 628 4666 
z
" transform="scale(0.015625)"/>
      <path id="DejaVuSans-50" d="M 1259 4147 
L 1259 2394 
L 2053 2394 
Q 2494 2394 2734 2622 
Q 2975 2850 2975 3272 
Q 2975 3691 2734 3919 
Q 2494 4147 2053 4147 
L 1259 4147 
z
M 628 4666 
L 2053 4666 
Q 2838 4666 3239 4311 
Q 3641 3956 3641 3272 
Q 3641 2581 3239 2228 
Q 2838 1875 2053 1875 
L 1259 1875 
L 1259 0 
L 628 0 
L 628 4666 
z
" transform="scale(0.015625)"/>
      <path id="DejaVuSans-48" d="M 628 4666 
L 1259 4666 
L 1259 2753 
L 3553 2753 
L 3553 4666 
L 4184 4666 
L 4184 0 
L 3553 0 
L 3553 2222 
L 1259 2222 
L 1259 0 
L 628 0 
L 628 4666 
z
" transform="scale(0.015625)"/>
      <path id="DejaVuSans-32" d="M 1228 531 
L 3431 531 
L 3431 0 
L 469 0 
L 469 531 
Q 828 903 1448 1529 
Q 2069 2156 2228 2338 
Q 2531 2678 2651 2914 
Q 2772 3150 2772 3378 
Q 2772 3750 2511 3984 
Q 2250 4219 1831 4219 
Q 1534 4219 1204 4116 
Q 875 4013 500 3803 
L 500 4441 
Q 881 4594 1212 4672 
Q 1544 4750 1819 4750 
Q 2544 4750 2975 4387 
Q 3406 4025 3406 3419 
Q 3406 3131 3298 2873 
Q 3191 2616 2906 2266 
Q 2828 2175 2409 1742 
Q 1991 1309 1228 531 
z
" transform="scale(0.015625)"/>
      <path id="DejaVuSans-31" d="M 794 531 
L 1825 531 
L 1825 4091 
L 703 3866 
L 703 4441 
L 1819 4666 
L 2450 4666 
L 2450 531 
L 3481 531 
L 3481 0 
L 794 0 
L 794 531 
z
" transform="scale(0.015625)"/>
     </defs>
     <use xlink:href="#DejaVuSans-54"/>
     <use xlink:href="#DejaVuSans-45" x="61.083984"/>
     <use xlink:href="#DejaVuSans-52" x="124.267578"/>
     <use xlink:href="#DejaVuSans-4d" x="193.75"/>
     <use xlink:href="#DejaVuSans-53" x="280.029297"/>
     <use xlink:href="#DejaVuSans-3a" x="343.505859"/>
     <use xlink:href="#DejaVuSans-20" x="377.197266"/>
     <use xlink:href="#DejaVuSans-38" x="408.984375"/>
     <use xlink:href="#DejaVuSans-2c" x="472.607422"/>
     <use xlink:href="#DejaVuSans-20" x="504.394531"/>
     <use xlink:href="#DejaVuSans-44" x="536.181641"/>
     <use xlink:href="#DejaVuSans-45" x="613.183594"/>
     <use xlink:href="#DejaVuSans-50" x="676.367188"/>
     <use xlink:href="#DejaVuSans-54" x="736.669922"/>
     <use xlink:href="#DejaVuSans-48" x="797.753906"/>
     <use xlink:href="#DejaVuSans-3a" x="872.949219"/>
     <use xlink:href="#DejaVuSans-32" x="906.640625"/>
     <use xlink:href="#DejaVuSans-31" x="970.263672"/>
    </g>
   </g>
   <g id="patch_2">
    <path d="M 293.044522 116.732313 
C 294.243111 116.732313 295.392771 116.256109 296.240301 115.408578 
C 297.087832 114.561047 297.564037 113.411388 297.564037 112.212799 
C 297.564037 111.014209 297.087832 109.86455 296.240301 109.017019 
C 295.392771 108.169488 294.243111 107.693284 293.044522 107.693284 
C 291.845932 107.693284 290.696273 108.169488 289.848742 109.017019 
C 289.001211 109.86455 288.525007 111.014209 288.525007 112.212799 
C 288.525007 113.411388 289.001211 114.561047 289.848742 115.408578 
C 290.696273 116.256109 291.845932 116.732313 293.044522 116.732313 
z
" clip-path="url(#p7291b47436)" style="stroke: #000000; stroke-width: 1.5; stroke-linejoin: miter"/>
   </g>
   <g id="patch_3">
    <path d="M 293.044522 493.590328 
C 295.84123 493.590328 298.523769 492.479184 300.501341 490.501613 
C 302.478912 488.524041 303.590057 485.841502 303.590057 483.044794 
C 303.590057 480.248085 302.478912 477.565546 300.501341 475.587974 
C 298.523769 473.610403 295.84123 472.499259 293.044522 472.499259 
C 290.247813 472.499259 287.565274 473.610403 285.587702 475.587974 
C 283.610131 477.565546 282.498987 480.248085 282.498987 483.044794 
C 282.498987 485.841502 283.610131 488.524041 285.587702 490.501613 
C 287.565274 492.479184 290.247813 493.590328 293.044522 493.590328 
z
" clip-path="url(#p7291b47436)" style="stroke: #000000; stroke-width: 2; stroke-linejoin: miter"/>
   </g>
   <g id="patch_4">
    <path d="M 324.333471 359.047845 
L 354.463571 359.047845 
L 354.463571 328.917746 
L 324.333471 328.917746 
z
" clip-path="url(#p7291b47436)" style="fill: #ffffff; stroke: #000000; stroke-width: 1.5; stroke-linejoin: miter"/>
   </g>
   <g id="patch_5">
    <path d="M 370.687471 359.047845 
L 400.81757 359.047845 
L 400.81757 328.917746 
L 370.687471 328.917746 
z
" clip-path="url(#p7291b47436)" style="fill: #ffffff; stroke: #000000; stroke-width: 1.5; stroke-linejoin: miter"/>
   </g>
   <g id="patch_6">
    <path d="M 432.10652 348.50231 
C 433.305109 348.50231 434.454769 348.026106 435.3023 347.178575 
C 436.14983 346.331044 436.626035 345.181385 436.626035 343.982795 
C 436.626035 342.784206 436.14983 341.634546 435.3023 340.787016 
C 434.454769 339.939485 433.305109 339.46328 432.10652 339.46328 
C 430.90793 339.46328 429.758271 339.939485 428.91074 340.787016 
C 428.06321 341.634546 427.587005 342.784206 427.587005 343.982795 
C 427.587005 345.181385 428.06321 346.331044 428.91074 347.178575 
C 429.758271 348.026106 430.90793 348.50231 432.10652 348.50231 
z
" clip-path="url(#p7291b47436)" style="stroke: #000000; stroke-width: 1.5; stroke-linejoin: miter"/>
   </g>
   <g id="patch_7">
    <path d="M 432.10652 493.590328 
C 434.903228 493.590328 437.585768 492.479184 439.563339 490.501613 
C 441.540911 488.524041 442.652055 485.841502 442.652055 483.044794 
C 442.652055 480.248085 441.540911 477.565546 439.563339 475.587974 
C 437.585768 473.610403 434.903228 472.499259 432.10652 472.499259 
C 429.309811 472.499259 426.627272 473.610403 424.649701 475.587974 
C 422.672129 477.565546 421.560985 480.248085 421.560985 483.044794 
C 421.560985 485.841502 422.672129 488.524041 424.649701 490.501613 
C 426.627272 492.479184 429.309811 493.590328 432.10652 493.590328 
z
" clip-path="url(#p7291b47436)" style="stroke: #000000; stroke-width: 2; stroke-linejoin: miter"/>
   </g>
   <g id="patch_8">
    <path d="M 478.460519 394.85631 
C 479.659109 394.85631 480.808768 394.380105 481.656299 393.532574 
C 482.50383 392.685044 482.980034 391.535384 482.980034 390.336795 
C 482.980034 389.138205 482.50383 387.988546 481.656299 387.141015 
C 480.808768 386.293484 479.659109 385.81728 478.460519 385.81728 
C 477.26193 385.81728 476.11227 386.293484 475.26474 387.141015 
C 474.417209 387.988546 473.941004 389.138205 473.941004 390.336795 
C 473.941004 391.535384 474.417209 392.685044 475.26474 393.532574 
C 476.11227 394.380105 477.26193 394.85631 478.460519 394.85631 
z
" clip-path="url(#p7291b47436)" style="stroke: #000000; stroke-width: 1.5; stroke-linejoin: miter"/>
   </g>
   <g id="patch_9">
    <path d="M 478.460519 493.590328 
C 481.257228 493.590328 483.939767 492.479184 485.917338 490.501613 
C 487.89491 488.524041 489.006054 485.841502 489.006054 483.044794 
C 489.006054 480.248085 487.89491 477.565546 485.917338 475.587974 
C 483.939767 473.610403 481.257228 472.499259 478.460519 472.499259 
C 475.663811 472.499259 472.981272 473.610403 471.0037 475.587974 
C 469.026128 477.565546 467.914984 480.248085 467.914984 483.044794 
C 467.914984 485.841502 469.026128 488.524041 471.0037 490.501613 
C 472.981272 492.479184 475.663811 493.590328 478.460519 493.590328 
z
" clip-path="url(#p7291b47436)" style="stroke: #000000; stroke-width: 2; stroke-linejoin: miter"/>
   </g>
   <g id="patch_10">
    <path d="M 524.814519 441.210309 
C 526.013108 441.210309 527.162768 440.734105 528.010298 439.886574 
C 528.857829 439.039043 529.334034 437.889384 529.334034 436.690794 
C 529.334034 435.492205 528.857829 434.342545 528.010298 433.495015 
C 527.162768 432.647484 526.013108 432.171279 524.814519 432.171279 
C 523.615929 432.171279 522.46627 432.647484 521.618739 433.495015 
C 520.771208 434.342545 520.295004 435.492205 520.295004 436.690794 
C 520.295004 437.889384 520.771208 439.039043 521.618739 439.886574 
C 522.46627 440.734105 523.615929 441.210309 524.814519 441.210309 
z
" clip-path="url(#p7291b47436)" style="stroke: #000000; stroke-width: 1.5; stroke-linejoin: miter"/>
   </g>
   <g id="patch_11">
    <path d="M 524.814519 493.590328 
C 527.611227 493.590328 530.293766 492.479184 532.271338 490.501613 
C 534.248909 488.524041 535.360053 485.841502 535.360053 483.044794 
C 535.360053 480.248085 534.248909 477.565546 532.271338 475.587974 
C 530.293766 473.610403 527.611227 472.499259 524.814519 472.499259 
C 522.01781 472.499259 519.335271 473.610403 517.357699 475.587974 
C 515.380128 477.565546 514.268984 480.248085 514.268984 483.044794 
C 514.268984 485.841502 515.380128 488.524041 517.357699 490.501613 
C 519.335271 492.479184 522.01781 493.590328 524.814519 493.590328 
z
" clip-path="url(#p7291b47436)" style="stroke: #000000; stroke-width: 2; stroke-linejoin: miter"/>
   </g>
   <g id="patch_12">
    <path d="M 556.103468 498.109843 
L 586.233568 498.109843 
L 586.233568 467.979744 
L 556.103468 467.979744 
z
" clip-path="url(#p7291b47436)" style="fill: #ffffff; stroke: #000000; stroke-width: 1.5; stroke-linejoin: miter"/>
   </g>
   <g id="patch_13">
    <path d="M 617.522517 394.85631 
C 618.721107 394.85631 619.870766 394.380105 620.718297 393.532574 
C 621.565828 392.685044 622.042032 391.535384 622.042032 390.336795 
C 622.042032 389.138205 621.565828 387.988546 620.718297 387.141015 
C 619.870766 386.293484 618.721107 385.81728 617.522517 385.81728 
C 616.323928 385.81728 615.174268 386.293484 614.326738 387.141015 
C 613.479207 387.988546 613.003002 389.138205 613.003002 390.336795 
C 613.003002 391.535384 613.479207 392.685044 614.326738 393.532574 
C 615.174268 394.380105 616.323928 394.85631 617.522517 394.85631 
z
" clip-path="url(#p7291b47436)" style="stroke: #000000; stroke-width: 1.5; stroke-linejoin: miter"/>
   </g>
   <g id="patch_14">
    <path d="M 617.522517 493.590328 
C 620.319226 493.590328 623.001765 492.479184 624.979337 490.501613 
C 626.956908 488.524041 628.068052 485.841502 628.068052 483.044794 
C 628.068052 480.248085 626.956908 477.565546 624.979337 475.587974 
C 623.001765 473.610403 620.319226 472.499259 617.522517 472.499259 
C 614.725809 472.499259 612.04327 473.610403 610.065698 475.587974 
C 608.088127 477.565546 606.976983 480.248085 606.976983 483.044794 
C 606.976983 485.841502 608.088127 488.524041 610.065698 490.501613 
C 612.04327 492.479184 614.725809 493.590328 617.522517 493.590328 
z
" clip-path="url(#p7291b47436)" style="stroke: #000000; stroke-width: 2; stroke-linejoin: miter"/>
   </g>
   <g id="patch_15">
    <path d="M 663.876517 348.50231 
C 665.075106 348.50231 666.224766 348.026106 667.072296 347.178575 
C 667.919827 346.331044 668.396032 345.181385 668.396032 343.982795 
C 668.396032 342.784206 667.919827 341.634546 667.072296 340.787016 
C 666.224766 339.939485 665.075106 339.46328 663.876517 339.46328 
C 662.677927 339.46328 661.528268 339.939485 660.680737 340.787016 
C 659.833206 341.634546 659.357002 342.784206 659.357002 343.982795 
C 659.357002 345.181385 659.833206 346.331044 660.680737 347.178575 
C 661.528268 348.026106 662.677927 348.50231 663.876517 348.50231 
z
" clip-path="url(#p7291b47436)" style="stroke: #000000; stroke-width: 1.5; stroke-linejoin: miter"/>
   </g>
   <g id="patch_16">
    <path d="M 663.876517 493.590328 
C 666.673225 493.590328 669.355764 492.479184 671.333336 490.501613 
C 673.310908 488.524041 674.422052 485.841502 674.422052 483.044794 
C 674.422052 480.248085 673.310908 477.565546 671.333336 475.587974 
C 669.355764 473.610403 666.673225 472.499259 663.876517 472.499259 
C 661.079808 472.499259 658.397269 473.610403 656.419698 475.587974 
C 654.442126 477.565546 653.330982 480.248085 653.330982 483.044794 
C 653.330982 485.841502 654.442126 488.524041 656.419698 490.501613 
C 658.397269 492.479184 661.079808 493.590328 663.876517 493.590328 
z
" clip-path="url(#p7291b47436)" style="stroke: #000000; stroke-width: 2; stroke-linejoin: miter"/>
   </g>
   <g id="patch_17">
    <path d="M 710.230516 302.148311 
C 711.429106 302.148311 712.578765 301.672106 713.426296 300.824576 
C 714.273826 299.977045 714.750031 298.827385 714.750031 297.628796 
C 714.750031 296.430207 714.273826 295.280547 713.426296 294.433016 
C 712.578765 293.585486 711.429106 293.109281 710.230516 293.109281 
C 709.031927 293.109281 707.882267 293.585486 707.034737 294.433016 
C 706.187206 295.280547 705.711001 296.430207 705.711001 297.628796 
C 705.711001 298.827385 706.187206 299.977045 707.034737 300.824576 
C 707.882267 301.672106 709.031927 302.148311 710.230516 302.148311 
z
" clip-path="url(#p7291b47436)" style="stroke: #000000; stroke-width: 1.5; stroke-linejoin: miter"/>
   </g>
   <g id="patch_18">
    <path d="M 710.230516 400.88233 
C 713.027225 400.88233 715.709764 399.771186 717.687335 397.793614 
C 719.664907 395.816042 720.776051 393.133503 720.776051 390.336795 
C 720.776051 387.540086 719.664907 384.857547 717.687335 382.879976 
C 715.709764 380.902404 713.027225 379.79126 710.230516 379.79126 
C 707.433808 379.79126 704.751269 380.902404 702.773697 382.879976 
C 700.796125 384.857547 699.684981 387.540086 699.684981 390.336795 
C 699.684981 393.133503 700.796125 395.816042 702.773697 397.793614 
C 704.751269 399.771186 707.433808 400.88233 710.230516 400.88233 
z
" clip-path="url(#p7291b47436)" style="stroke: #000000; stroke-width: 2; stroke-linejoin: miter"/>
   </g>
   <g id="patch_19">
    <path d="M 741.519466 359.047845 
L 771.649565 359.047845 
L 771.649565 328.917746 
L 741.519466 328.917746 
z
" clip-path="url(#p7291b47436)" style="fill: #ffffff; stroke: #000000; stroke-width: 1.5; stroke-linejoin: miter"/>
   </g>
   <g id="patch_20">
    <path d="M 741.519466 405.401845 
L 771.649565 405.401845 
L 771.649565 375.271745 
L 741.519466 375.271745 
z
" clip-path="url(#p7291b47436)" style="fill: #ffffff; stroke: #000000; stroke-width: 1.5; stroke-linejoin: miter"/>
   </g>
   <g id="patch_21">
    <path d="M 802.938515 116.732313 
C 804.137104 116.732313 805.286764 116.256109 806.134295 115.408578 
C 806.981825 114.561047 807.45803 113.411388 807.45803 112.212799 
C 807.45803 111.014209 806.981825 109.86455 806.134295 109.017019 
C 805.286764 108.169488 804.137104 107.693284 802.938515 107.693284 
C 801.739926 107.693284 800.590266 108.169488 799.742735 109.017019 
C 798.895205 109.86455 798.419 111.014209 798.419 112.212799 
C 798.419 113.411388 798.895205 114.561047 799.742735 115.408578 
C 800.590266 116.256109 801.739926 116.732313 802.938515 116.732313 
z
" clip-path="url(#p7291b47436)" style="stroke: #000000; stroke-width: 1.5; stroke-linejoin: miter"/>
   </g>
   <g id="patch_22">
    <path d="M 802.938515 493.590328 
C 805.735223 493.590328 808.417763 492.479184 810.395334 490.501613 
C 812.372906 488.524041 813.48405 485.841502 813.48405 483.044794 
C 813.48405 480.248085 812.372906 477.565546 810.395334 475.587974 
C 808.417763 473.610403 805.735223 472.499259 802.938515 472.499259 
C 800.141806 472.499259 797.459267 473.610403 795.481696 475.587974 
C 793.504124 477.565546 792.39298 480.248085 792.39298 483.044794 
C 792.39298 485.841502 793.504124 488.524041 795.481696 490.501613 
C 797.459267 492.479184 800.141806 493.590328 802.938515 493.590328 
z
" clip-path="url(#p7291b47436)" style="stroke: #000000; stroke-width: 2; stroke-linejoin: miter"/>
   </g>
   <g id="patch_23">
    <path d="M 834.227465 359.047845 
L 864.357564 359.047845 
L 864.357564 328.917746 
L 834.227465 328.917746 
z
" clip-path="url(#p7291b47436)" style="fill: #ffffff; stroke: #000000; stroke-width: 1.5; stroke-linejoin: miter"/>
   </g>
   <g id="patch_24">
    <path d="M 834.227465 498.109843 
L 864.357564 498.109843 
L 864.357564 467.979744 
L 834.227465 467.979744 
z
" clip-path="url(#p7291b47436)" style="fill: #ffffff; stroke: #000000; stroke-width: 1.5; stroke-linejoin: miter"/>
   </g>
   <g id="patch_25">
    <path d="M 895.646514 302.148311 
C 896.845103 302.148311 897.994763 301.672106 898.842293 300.824576 
C 899.689824 299.977045 900.166029 298.827385 900.166029 297.628796 
C 900.166029 296.430207 899.689824 295.280547 898.842293 294.433016 
C 897.994763 293.585486 896.845103 293.109281 895.646514 293.109281 
C 894.447924 293.109281 893.298265 293.585486 892.450734 294.433016 
C 891.603203 295.280547 891.126999 296.430207 891.126999 297.628796 
C 891.126999 298.827385 891.603203 299.977045 892.450734 300.824576 
C 893.298265 301.672106 894.447924 302.148311 895.646514 302.148311 
z
" clip-path="url(#p7291b47436)" style="stroke: #000000; stroke-width: 1.5; stroke-linejoin: miter"/>
   </g>
   <g id="patch_26">
    <path d="M 895.646514 400.88233 
C 898.443222 400.88233 901.125761 399.771186 903.103333 397.793614 
C 905.080904 395.816042 906.192049 393.133503 906.192049 390.336795 
C 906.192049 387.540086 905.080904 384.857547 903.103333 382.879976 
C 901.125761 380.902404 898.443222 379.79126 895.646514 379.79126 
C 892.849805 379.79126 890.167266 380.902404 888.189694 382.879976 
C 886.212123 384.857547 885.100979 387.540086 885.100979 390.336795 
C 885.100979 393.133503 886.212123 395.816042 888.189694 397.793614 
C 890.167266 399.771186 892.849805 400.88233 895.646514 400.88233 
z
" clip-path="url(#p7291b47436)" style="stroke: #000000; stroke-width: 2; stroke-linejoin: miter"/>
   </g>
   <g id="patch_27">
    <path d="M 926.935463 359.047845 
L 957.065563 359.047845 
L 957.065563 328.917746 
L 926.935463 328.917746 
z
" clip-path="url(#p7291b47436)" style="fill: #ffffff; stroke: #000000; stroke-width: 1.5; stroke-linejoin: miter"/>
   </g>
   <g id="patch_28">
    <path d="M 988.354512 348.50231 
C 989.553102 348.50231 990.702761 348.026106 991.550292 347.178575 
C 992.397823 346.331044 992.874027 345.181385 992.874027 343.982795 
C 992.874027 342.784206 992.397823 341.634546 991.550292 340.787016 
C 990.702761 339.939485 989.553102 339.46328 988.354512 339.46328 
C 987.155923 339.46328 986.006263 339.939485 985.158733 340.787016 
C 984.311202 341.634546 983.834998 342.784206 983.834998 343.982795 
C 983.834998 345.181385 984.311202 346.331044 985.158733 347.178575 
C 986.006263 348.026106 987.155923 348.50231 988.354512 348.50231 
z
" clip-path="url(#p7291b47436)" style="stroke: #000000; stroke-width: 1.5; stroke-linejoin: miter"/>
   </g>
   <g id="patch_29">
    <path d="M 988.354512 215.466332 
C 991.151221 215.466332 993.83376 214.355188 995.811332 212.377616 
C 997.788903 210.400045 998.900047 207.717506 998.900047 204.920797 
C 998.900047 202.124089 997.788903 199.44155 995.811332 197.463978 
C 993.83376 195.486406 991.151221 194.375262 988.354512 194.375262 
C 985.557804 194.375262 982.875265 195.486406 980.897693 197.463978 
C 978.920122 199.44155 977.808978 202.124089 977.808978 204.920797 
C 977.808978 207.717506 978.920122 210.400045 980.897693 212.377616 
C 982.875265 214.355188 985.557804 215.466332 988.354512 215.466332 
z
" clip-path="url(#p7291b47436)" style="stroke: #000000; stroke-width: 2; stroke-linejoin: miter"/>
   </g>
   <g id="patch_30">
    <path d="M 1034.708512 394.85631 
C 1035.907101 394.85631 1037.056761 394.380105 1037.904292 393.532574 
C 1038.751822 392.685044 1039.228027 391.535384 1039.228027 390.336795 
C 1039.228027 389.138205 1038.751822 387.988546 1037.904292 387.141015 
C 1037.056761 386.293484 1035.907101 385.81728 1034.708512 385.81728 
C 1033.509922 385.81728 1032.360263 386.293484 1031.512732 387.141015 
C 1030.665202 387.988546 1030.188997 389.138205 1030.188997 390.336795 
C 1030.188997 391.535384 1030.665202 392.685044 1031.512732 393.532574 
C 1032.360263 394.380105 1033.509922 394.85631 1034.708512 394.85631 
z
" clip-path="url(#p7291b47436)" style="stroke: #000000; stroke-width: 1.5; stroke-linejoin: miter"/>
   </g>
   <g id="patch_31">
    <path d="M 1034.708512 215.466332 
C 1037.50522 215.466332 1040.187759 214.355188 1042.165331 212.377616 
C 1044.142903 210.400045 1045.254047 207.717506 1045.254047 204.920797 
C 1045.254047 202.124089 1044.142903 199.44155 1042.165331 197.463978 
C 1040.187759 195.486406 1037.50522 194.375262 1034.708512 194.375262 
C 1031.911803 194.375262 1029.229264 195.486406 1027.251693 197.463978 
C 1025.274121 199.44155 1024.162977 202.124089 1024.162977 204.920797 
C 1024.162977 207.717506 1025.274121 210.400045 1027.251693 212.377616 
C 1029.229264 214.355188 1031.911803 215.466332 1034.708512 215.466332 
z
" clip-path="url(#p7291b47436)" style="stroke: #000000; stroke-width: 2; stroke-linejoin: miter"/>
   </g>
   <g id="patch_32">
    <path d="M 1081.062511 441.210309 
C 1082.261101 441.210309 1083.41076 440.734105 1084.258291 439.886574 
C 1085.105822 439.039043 1085.582026 437.889384 1085.582026 436.690794 
C 1085.582026 435.492205 1085.105822 434.342545 1084.258291 433.495015 
C 1083.41076 432.647484 1082.261101 432.171279 1081.062511 432.171279 
C 1079.863922 432.171279 1078.714262 432.647484 1077.866732 433.495015 
C 1077.019201 434.342545 1076.542996 435.492205 1076.542996 436.690794 
C 1076.542996 437.889384 1077.019201 439.039043 1077.866732 439.886574 
C 1078.714262 440.734105 1079.863922 441.210309 1081.062511 441.210309 
z
" clip-path="url(#p7291b47436)" style="stroke: #000000; stroke-width: 1.5; stroke-linejoin: miter"/>
   </g>
   <g id="patch_33">
    <path d="M 1081.062511 215.466332 
C 1083.85922 215.466332 1086.541759 214.355188 1088.51933 212.377616 
C 1090.496902 210.400045 1091.608046 207.717506 1091.608046 204.920797 
C 1091.608046 202.124089 1090.496902 199.44155 1088.51933 197.463978 
C 1086.541759 195.486406 1083.85922 194.375262 1081.062511 194.375262 
C 1078.265803 194.375262 1075.583264 195.486406 1073.605692 197.463978 
C 1071.62812 199.44155 1070.516976 202.124089 1070.516976 204.920797 
C 1070.516976 207.717506 1071.62812 210.400045 1073.605692 212.377616 
C 1075.583264 214.355188 1078.265803 215.466332 1081.062511 215.466332 
z
" clip-path="url(#p7291b47436)" style="stroke: #000000; stroke-width: 2; stroke-linejoin: miter"/>
   </g>
   <g id="patch_34">
    <path d="M 1127.416511 487.564309 
C 1128.6151 487.564309 1129.76476 487.088104 1130.61229 486.240573 
C 1131.459821 485.393043 1131.936026 484.243383 1131.936026 483.044794 
C 1131.936026 481.846204 1131.459821 480.696545 1130.61229 479.849014 
C 1129.76476 479.001483 1128.6151 478.525279 1127.416511 478.525279 
C 1126.217921 478.525279 1125.068262 479.001483 1124.220731 479.849014 
C 1123.3732 480.696545 1122.896996 481.846204 1122.896996 483.044794 
C 1122.896996 484.243383 1123.3732 485.393043 1124.220731 486.240573 
C 1125.068262 487.088104 1126.217921 487.564309 1127.416511 487.564309 
z
" clip-path="url(#p7291b47436)" style="stroke: #000000; stroke-width: 1.5; stroke-linejoin: miter"/>
   </g>
   <g id="patch_35">
    <path d="M 1127.416511 215.466332 
C 1130.213219 215.466332 1132.895758 214.355188 1134.87333 212.377616 
C 1136.850901 210.400045 1137.962045 207.717506 1137.962045 204.920797 
C 1137.962045 202.124089 1136.850901 199.44155 1134.87333 197.463978 
C 1132.895758 195.486406 1130.213219 194.375262 1127.416511 194.375262 
C 1124.619802 194.375262 1121.937263 195.486406 1119.959691 197.463978 
C 1117.98212 199.44155 1116.870976 202.124089 1116.870976 204.920797 
C 1116.870976 207.717506 1117.98212 210.400045 1119.959691 212.377616 
C 1121.937263 214.355188 1124.619802 215.466332 1127.416511 215.466332 
z
" clip-path="url(#p7291b47436)" style="stroke: #000000; stroke-width: 2; stroke-linejoin: miter"/>
   </g>
   <g id="patch_36">
    <path d="M 1172.896737 219.985847 
L 1220.998282 219.985847 
L 1220.998282 189.855747 
L 1172.896737 189.855747 
z
" clip-path="url(#p7291b47436)" style="fill: #ffffff; stroke: #000000; stroke-width: 1.5; stroke-linejoin: miter"/>
   </g>
   <g id="patch_37">
    <path d="M 1266.478509 487.564309 
C 1267.677098 487.564309 1268.826758 487.088104 1269.674288 486.240573 
C 1270.521819 485.393043 1270.998024 484.243383 1270.998024 483.044794 
C 1270.998024 481.846204 1270.521819 480.696545 1269.674288 479.849014 
C 1268.826758 479.001483 1267.677098 478.525279 1266.478509 478.525279 
C 1265.279919 478.525279 1264.13026 479.001483 1263.282729 479.849014 
C 1262.435198 480.696545 1261.958994 481.846204 1261.958994 483.044794 
C 1261.958994 484.243383 1262.435198 485.393043 1263.282729 486.240573 
C 1264.13026 487.088104 1265.279919 487.564309 1266.478509 487.564309 
z
" clip-path="url(#p7291b47436)" style="stroke: #000000; stroke-width: 1.5; stroke-linejoin: miter"/>
   </g>
   <g id="patch_38">
    <path d="M 1266.478509 215.466332 
C 1269.275217 215.466332 1271.957756 214.355188 1273.935328 212.377616 
C 1275.9129 210.400045 1277.024044 207.717506 1277.024044 204.920797 
C 1277.024044 202.124089 1275.9129 199.44155 1273.935328 197.463978 
C 1271.957756 195.486406 1269.275217 194.375262 1266.478509 194.375262 
C 1263.6818 194.375262 1260.999261 195.486406 1259.02169 197.463978 
C 1257.044118 199.44155 1255.932974 202.124089 1255.932974 204.920797 
C 1255.932974 207.717506 1257.044118 210.400045 1259.02169 212.377616 
C 1260.999261 214.355188 1263.6818 215.466332 1266.478509 215.466332 
z
" clip-path="url(#p7291b47436)" style="stroke: #000000; stroke-width: 2; stroke-linejoin: miter"/>
   </g>
   <g id="patch_39">
    <path d="M 1297.767458 498.109843 
L 1327.897558 498.109843 
L 1327.897558 467.979744 
L 1297.767458 467.979744 
z
" clip-path="url(#p7291b47436)" style="fill: #ffffff; stroke: #000000; stroke-width: 1.5; stroke-linejoin: miter"/>
   </g>
   <g id="patch_40">
    <path d="M 1312.832508 441.210309 
C 1314.031098 441.210309 1315.180757 440.734105 1316.028288 439.886574 
C 1316.875818 439.039043 1317.352023 437.889384 1317.352023 436.690794 
C 1317.352023 435.492205 1316.875818 434.342545 1316.028288 433.495015 
C 1315.180757 432.647484 1314.031098 432.171279 1312.832508 432.171279 
C 1311.633919 432.171279 1310.484259 432.647484 1309.636728 433.495015 
C 1308.789198 434.342545 1308.312993 435.492205 1308.312993 436.690794 
C 1308.312993 437.889384 1308.789198 439.039043 1309.636728 439.886574 
C 1310.484259 440.734105 1311.633919 441.210309 1312.832508 441.210309 
z
" clip-path="url(#p7291b47436)" style="stroke: #000000; stroke-width: 1.5; stroke-linejoin: miter"/>
   </g>
   <g id="patch_41">
    <path d="M 1312.832508 215.466332 
C 1315.629217 215.466332 1318.311756 214.355188 1320.289327 212.377616 
C 1322.266899 210.400045 1323.378043 207.717506 1323.378043 204.920797 
C 1323.378043 202.124089 1322.266899 199.44155 1320.289327 197.463978 
C 1318.311756 195.486406 1315.629217 194.375262 1312.832508 194.375262 
C 1310.0358 194.375262 1307.353261 195.486406 1305.375689 197.463978 
C 1303.398117 199.44155 1302.286973 202.124089 1302.286973 204.920797 
C 1302.286973 207.717506 1303.398117 210.400045 1305.375689 212.377616 
C 1307.353261 214.355188 1310.0358 215.466332 1312.832508 215.466332 
z
" clip-path="url(#p7291b47436)" style="stroke: #000000; stroke-width: 2; stroke-linejoin: miter"/>
   </g>
   <g id="patch_42">
    <path d="M 1359.186508 394.85631 
C 1360.385097 394.85631 1361.534757 394.380105 1362.382287 393.532574 
C 1363.229818 392.685044 1363.706022 391.535384 1363.706022 390.336795 
C 1363.706022 389.138205 1363.229818 387.988546 1362.382287 387.141015 
C 1361.534757 386.293484 1360.385097 385.81728 1359.186508 385.81728 
C 1357.987918 385.81728 1356.838259 386.293484 1355.990728 387.141015 
C 1355.143197 387.988546 1354.666993 389.138205 1354.666993 390.336795 
C 1354.666993 391.535384 1355.143197 392.685044 1355.990728 393.532574 
C 1356.838259 394.380105 1357.987918 394.85631 1359.186508 394.85631 
z
" clip-path="url(#p7291b47436)" style="stroke: #000000; stroke-width: 1.5; stroke-linejoin: miter"/>
   </g>
   <g id="patch_43">
    <path d="M 1359.186508 215.466332 
C 1361.983216 215.466332 1364.665755 214.355188 1366.643327 212.377616 
C 1368.620898 210.400045 1369.732042 207.717506 1369.732042 204.920797 
C 1369.732042 202.124089 1368.620898 199.44155 1366.643327 197.463978 
C 1364.665755 195.486406 1361.983216 194.375262 1359.186508 194.375262 
C 1356.389799 194.375262 1353.70726 195.486406 1351.729688 197.463978 
C 1349.752117 199.44155 1348.640973 202.124089 1348.640973 204.920797 
C 1348.640973 207.717506 1349.752117 210.400045 1351.729688 212.377616 
C 1353.70726 214.355188 1356.389799 215.466332 1359.186508 215.466332 
z
" clip-path="url(#p7291b47436)" style="stroke: #000000; stroke-width: 2; stroke-linejoin: miter"/>
   </g>
   <g id="patch_44">
    <path d="M 1359.186508 533.918308 
C 1360.385097 533.918308 1361.534757 533.442103 1362.382287 532.594573 
C 1363.229818 531.747042 1363.706022 530.597382 1363.706022 529.398793 
C 1363.706022 528.200204 1363.229818 527.050544 1362.382287 526.203013 
C 1361.534757 525.355483 1360.385097 524.879278 1359.186508 524.879278 
C 1357.987918 524.879278 1356.838259 525.355483 1355.990728 526.203013 
C 1355.143197 527.050544 1354.666993 528.200204 1354.666993 529.398793 
C 1354.666993 530.597382 1355.143197 531.747042 1355.990728 532.594573 
C 1356.838259 533.442103 1357.987918 533.918308 1359.186508 533.918308 
z
" clip-path="url(#p7291b47436)" style="stroke: #000000; stroke-width: 1.5; stroke-linejoin: miter"/>
   </g>
   <g id="patch_45">
    <path d="M 1359.186508 493.590328 
C 1361.983216 493.590328 1364.665755 492.479184 1366.643327 490.501613 
C 1368.620898 488.524041 1369.732042 485.841502 1369.732042 483.044794 
C 1369.732042 480.248085 1368.620898 477.565546 1366.643327 475.587974 
C 1364.665755 473.610403 1361.983216 472.499259 1359.186508 472.499259 
C 1356.389799 472.499259 1353.70726 473.610403 1351.729688 475.587974 
C 1349.752117 477.565546 1348.640973 480.248085 1348.640973 483.044794 
C 1348.640973 485.841502 1349.752117 488.524041 1351.729688 490.501613 
C 1353.70726 492.479184 1356.389799 493.590328 1359.186508 493.590328 
z
" clip-path="url(#p7291b47436)" style="stroke: #000000; stroke-width: 2; stroke-linejoin: miter"/>
   </g>
   <g id="patch_46">
    <path d="M 1405.540507 348.50231 
C 1406.739096 348.50231 1407.888756 348.026106 1408.736287 347.178575 
C 1409.583817 346.331044 1410.060022 345.181385 1410.060022 343.982795 
C 1410.060022 342.784206 1409.583817 341.634546 1408.736287 340.787016 
C 1407.888756 339.939485 1406.739096 339.46328 1405.540507 339.46328 
C 1404.341918 339.46328 1403.192258 339.939485 1402.344727 340.787016 
C 1401.497197 341.634546 1401.020992 342.784206 1401.020992 343.982795 
C 1401.020992 345.181385 1401.497197 346.331044 1402.344727 347.178575 
C 1403.192258 348.026106 1404.341918 348.50231 1405.540507 348.50231 
z
" clip-path="url(#p7291b47436)" style="stroke: #000000; stroke-width: 1.5; stroke-linejoin: miter"/>
   </g>
   <g id="patch_47">
    <path d="M 1405.540507 215.466332 
C 1408.337215 215.466332 1411.019755 214.355188 1412.997326 212.377616 
C 1414.974898 210.400045 1416.086042 207.717506 1416.086042 204.920797 
C 1416.086042 202.124089 1414.974898 199.44155 1412.997326 197.463978 
C 1411.019755 195.486406 1408.337215 194.375262 1405.540507 194.375262 
C 1402.743798 194.375262 1400.061259 195.486406 1398.083688 197.463978 
C 1396.106116 199.44155 1394.994972 202.124089 1394.994972 204.920797 
C 1394.994972 207.717506 1396.106116 210.400045 1398.083688 212.377616 
C 1400.061259 214.355188 1402.743798 215.466332 1405.540507 215.466332 
z
" clip-path="url(#p7291b47436)" style="stroke: #000000; stroke-width: 2; stroke-linejoin: miter"/>
   </g>
   <g id="patch_48">
    <path d="M 1390.475457 498.109843 
L 1420.605557 498.109843 
L 1420.605557 467.979744 
L 1390.475457 467.979744 
z
" clip-path="url(#p7291b47436)" style="fill: #ffffff; stroke: #000000; stroke-width: 1.5; stroke-linejoin: miter"/>
   </g>
   <g id="patch_49">
    <path d="M 1436.829457 359.047845 
L 1466.959556 359.047845 
L 1466.959556 328.917746 
L 1436.829457 328.917746 
z
" clip-path="url(#p7291b47436)" style="fill: #ffffff; stroke: #000000; stroke-width: 1.5; stroke-linejoin: miter"/>
   </g>
   <g id="patch_50">
    <path d="M 1451.894506 533.918308 
C 1453.093096 533.918308 1454.242755 533.442103 1455.090286 532.594573 
C 1455.937817 531.747042 1456.414021 530.597382 1456.414021 529.398793 
C 1456.414021 528.200204 1455.937817 527.050544 1455.090286 526.203013 
C 1454.242755 525.355483 1453.093096 524.879278 1451.894506 524.879278 
C 1450.695917 524.879278 1449.546257 525.355483 1448.698727 526.203013 
C 1447.851196 527.050544 1447.374991 528.200204 1447.374991 529.398793 
C 1447.374991 530.597382 1447.851196 531.747042 1448.698727 532.594573 
C 1449.546257 533.442103 1450.695917 533.918308 1451.894506 533.918308 
z
" clip-path="url(#p7291b47436)" style="stroke: #000000; stroke-width: 1.5; stroke-linejoin: miter"/>
   </g>
   <g id="patch_51">
    <path d="M 1451.894506 493.590328 
C 1454.691215 493.590328 1457.373754 492.479184 1459.351326 490.501613 
C 1461.328897 488.524041 1462.440041 485.841502 1462.440041 483.044794 
C 1462.440041 480.248085 1461.328897 477.565546 1459.351326 475.587974 
C 1457.373754 473.610403 1454.691215 472.499259 1451.894506 472.499259 
C 1449.097798 472.499259 1446.415259 473.610403 1444.437687 475.587974 
C 1442.460116 477.565546 1441.348971 480.248085 1441.348971 483.044794 
C 1441.348971 485.841502 1442.460116 488.524041 1444.437687 490.501613 
C 1446.415259 492.479184 1449.097798 493.590328 1451.894506 493.590328 
z
" clip-path="url(#p7291b47436)" style="stroke: #000000; stroke-width: 2; stroke-linejoin: miter"/>
   </g>
   <g id="text_2">
    <g clip-path="url(#p7291b47436)">
     <!-- ${q}_{0}$ -->
     <g transform="translate(240.705062 116.663775)scale(0.1625 -0.1625)">
      <defs>
       <path id="DejaVuSans-Oblique-71" d="M 2669 525 
Q 2438 222 2123 65 
Q 1809 -91 1428 -91 
Q 897 -91 595 267 
Q 294 625 294 1253 
Q 294 1759 480 2231 
Q 666 2703 1013 3078 
Q 1238 3322 1530 3453 
Q 1822 3584 2144 3584 
Q 2531 3584 2781 3431 
Q 3031 3278 3144 2969 
L 3244 3494 
L 3822 3494 
L 2888 -1319 
L 2309 -1319 
L 2669 525 
z
M 891 1338 
Q 891 875 1084 633 
Q 1278 391 1644 391 
Q 2188 391 2572 911 
Q 2956 1431 2956 2175 
Q 2956 2625 2757 2864 
Q 2559 3103 2188 3103 
Q 1916 3103 1684 2976 
Q 1453 2850 1281 2606 
Q 1100 2350 995 2006 
Q 891 1663 891 1338 
z
" transform="scale(0.015625)"/>
       <path id="DejaVuSans-30" d="M 2034 4250 
Q 1547 4250 1301 3770 
Q 1056 3291 1056 2328 
Q 1056 1369 1301 889 
Q 1547 409 2034 409 
Q 2525 409 2770 889 
Q 3016 1369 3016 2328 
Q 3016 3291 2770 3770 
Q 2525 4250 2034 4250 
z
M 2034 4750 
Q 2819 4750 3233 4129 
Q 3647 3509 3647 2328 
Q 3647 1150 3233 529 
Q 2819 -91 2034 -91 
Q 1250 -91 836 529 
Q 422 1150 422 2328 
Q 422 3509 836 4129 
Q 1250 4750 2034 4750 
z
" transform="scale(0.015625)"/>
      </defs>
      <use xlink:href="#DejaVuSans-Oblique-71"/>
      <use xlink:href="#DejaVuSans-30" transform="translate(63.476562 -16.40625)scale(0.7)"/>
     </g>
    </g>
   </g>
   <g id="text_3">
    <g clip-path="url(#p7291b47436)">
     <!-- ${q}_{1}$ -->
     <g transform="translate(240.705062 163.017774)scale(0.1625 -0.1625)">
      <use xlink:href="#DejaVuSans-Oblique-71"/>
      <use xlink:href="#DejaVuSans-31" transform="translate(63.476562 -16.40625)scale(0.7)"/>
     </g>
    </g>
   </g>
   <g id="text_4">
    <g clip-path="url(#p7291b47436)">
     <!-- ${q}_{2}$ -->
     <g transform="translate(240.705062 209.371774)scale(0.1625 -0.1625)">
      <use xlink:href="#DejaVuSans-Oblique-71"/>
      <use xlink:href="#DejaVuSans-32" transform="translate(63.476562 -16.40625)scale(0.7)"/>
     </g>
    </g>
   </g>
   <g id="text_5">
    <g clip-path="url(#p7291b47436)">
     <!-- ${q}_{3}$ -->
     <g transform="translate(240.705062 255.725773)scale(0.1625 -0.1625)">
      <defs>
       <path id="DejaVuSans-33" d="M 2597 2516 
Q 3050 2419 3304 2112 
Q 3559 1806 3559 1356 
Q 3559 666 3084 287 
Q 2609 -91 1734 -91 
Q 1441 -91 1130 -33 
Q 819 25 488 141 
L 488 750 
Q 750 597 1062 519 
Q 1375 441 1716 441 
Q 2309 441 2620 675 
Q 2931 909 2931 1356 
Q 2931 1769 2642 2001 
Q 2353 2234 1838 2234 
L 1294 2234 
L 1294 2753 
L 1863 2753 
Q 2328 2753 2575 2939 
Q 2822 3125 2822 3475 
Q 2822 3834 2567 4026 
Q 2313 4219 1838 4219 
Q 1578 4219 1281 4162 
Q 984 4106 628 3988 
L 628 4550 
Q 988 4650 1302 4700 
Q 1616 4750 1894 4750 
Q 2613 4750 3031 4423 
Q 3450 4097 3450 3541 
Q 3450 3153 3228 2886 
Q 3006 2619 2597 2516 
z
" transform="scale(0.015625)"/>
      </defs>
      <use xlink:href="#DejaVuSans-Oblique-71"/>
      <use xlink:href="#DejaVuSans-33" transform="translate(63.476562 -16.40625)scale(0.7)"/>
     </g>
    </g>
   </g>
   <g id="text_6">
    <g clip-path="url(#p7291b47436)">
     <!-- ${q}_{4}$ -->
     <g transform="translate(240.705062 302.079773)scale(0.1625 -0.1625)">
      <defs>
       <path id="DejaVuSans-34" d="M 2419 4116 
L 825 1625 
L 2419 1625 
L 2419 4116 
z
M 2253 4666 
L 3047 4666 
L 3047 1625 
L 3713 1625 
L 3713 1100 
L 3047 1100 
L 3047 0 
L 2419 0 
L 2419 1100 
L 313 1100 
L 313 1709 
L 2253 4666 
z
" transform="scale(0.015625)"/>
      </defs>
      <use xlink:href="#DejaVuSans-Oblique-71"/>
      <use xlink:href="#DejaVuSans-34" transform="translate(63.476562 -16.40625)scale(0.7)"/>
     </g>
    </g>
   </g>
   <g id="text_7">
    <g clip-path="url(#p7291b47436)">
     <!-- ${q}_{5}$ -->
     <g transform="translate(240.705062 348.433772)scale(0.1625 -0.1625)">
      <defs>
       <path id="DejaVuSans-35" d="M 691 4666 
L 3169 4666 
L 3169 4134 
L 1269 4134 
L 1269 2991 
Q 1406 3038 1543 3061 
Q 1681 3084 1819 3084 
Q 2600 3084 3056 2656 
Q 3513 2228 3513 1497 
Q 3513 744 3044 326 
Q 2575 -91 1722 -91 
Q 1428 -91 1123 -41 
Q 819 9 494 109 
L 494 744 
Q 775 591 1075 516 
Q 1375 441 1709 441 
Q 2250 441 2565 725 
Q 2881 1009 2881 1497 
Q 2881 1984 2565 2268 
Q 2250 2553 1709 2553 
Q 1456 2553 1204 2497 
Q 953 2441 691 2322 
L 691 4666 
z
" transform="scale(0.015625)"/>
      </defs>
      <use xlink:href="#DejaVuSans-Oblique-71"/>
      <use xlink:href="#DejaVuSans-35" transform="translate(63.476562 -16.40625)scale(0.7)"/>
     </g>
    </g>
   </g>
   <g id="text_8">
    <g clip-path="url(#p7291b47436)">
     <!-- ${q}_{6}$ -->
     <g transform="translate(240.705062 394.787771)scale(0.1625 -0.1625)">
      <defs>
       <path id="DejaVuSans-36" d="M 2113 2584 
Q 1688 2584 1439 2293 
Q 1191 2003 1191 1497 
Q 1191 994 1439 701 
Q 1688 409 2113 409 
Q 2538 409 2786 701 
Q 3034 994 3034 1497 
Q 3034 2003 2786 2293 
Q 2538 2584 2113 2584 
z
M 3366 4563 
L 3366 3988 
Q 3128 4100 2886 4159 
Q 2644 4219 2406 4219 
Q 1781 4219 1451 3797 
Q 1122 3375 1075 2522 
Q 1259 2794 1537 2939 
Q 1816 3084 2150 3084 
Q 2853 3084 3261 2657 
Q 3669 2231 3669 1497 
Q 3669 778 3244 343 
Q 2819 -91 2113 -91 
Q 1303 -91 875 529 
Q 447 1150 447 2328 
Q 447 3434 972 4092 
Q 1497 4750 2381 4750 
Q 2619 4750 2861 4703 
Q 3103 4656 3366 4563 
z
" transform="scale(0.015625)"/>
      </defs>
      <use xlink:href="#DejaVuSans-Oblique-71"/>
      <use xlink:href="#DejaVuSans-36" transform="translate(63.476562 -16.40625)scale(0.7)"/>
     </g>
    </g>
   </g>
   <g id="text_9">
    <g clip-path="url(#p7291b47436)">
     <!-- ${q}_{7}$ -->
     <g transform="translate(240.705062 441.141771)scale(0.1625 -0.1625)">
      <defs>
       <path id="DejaVuSans-37" d="M 525 4666 
L 3525 4666 
L 3525 4397 
L 1831 0 
L 1172 0 
L 2766 4134 
L 525 4134 
L 525 4666 
z
" transform="scale(0.015625)"/>
      </defs>
      <use xlink:href="#DejaVuSans-Oblique-71"/>
      <use xlink:href="#DejaVuSans-37" transform="translate(63.476562 -16.40625)scale(0.7)"/>
     </g>
    </g>
   </g>
   <g id="text_10">
    <g clip-path="url(#p7291b47436)">
     <!-- ${q}_{8}$ -->
     <g transform="translate(240.705062 487.49577)scale(0.1625 -0.1625)">
      <use xlink:href="#DejaVuSans-Oblique-71"/>
      <use xlink:href="#DejaVuSans-38" transform="translate(63.476562 -16.40625)scale(0.7)"/>
     </g>
    </g>
   </g>
   <g id="text_11">
    <g clip-path="url(#p7291b47436)">
     <!-- ${q}_{9}$ -->
     <g transform="translate(240.705062 533.84977)scale(0.1625 -0.1625)">
      <defs>
       <path id="DejaVuSans-39" d="M 703 97 
L 703 672 
Q 941 559 1184 500 
Q 1428 441 1663 441 
Q 2288 441 2617 861 
Q 2947 1281 2994 2138 
Q 2813 1869 2534 1725 
Q 2256 1581 1919 1581 
Q 1219 1581 811 2004 
Q 403 2428 403 3163 
Q 403 3881 828 4315 
Q 1253 4750 1959 4750 
Q 2769 4750 3195 4129 
Q 3622 3509 3622 2328 
Q 3622 1225 3098 567 
Q 2575 -91 1691 -91 
Q 1453 -91 1209 -44 
Q 966 3 703 97 
z
M 1959 2075 
Q 2384 2075 2632 2365 
Q 2881 2656 2881 3163 
Q 2881 3666 2632 3958 
Q 2384 4250 1959 4250 
Q 1534 4250 1286 3958 
Q 1038 3666 1038 3163 
Q 1038 2656 1286 2365 
Q 1534 2075 1959 2075 
z
" transform="scale(0.015625)"/>
      </defs>
      <use xlink:href="#DejaVuSans-Oblique-71"/>
      <use xlink:href="#DejaVuSans-39" transform="translate(63.476562 -16.40625)scale(0.7)"/>
     </g>
    </g>
   </g>
   <g id="line2d_30">
    <path d="M 293.044522 489.070814 
L 293.044522 477.018774 
" clip-path="url(#p7291b47436)" style="fill: none; stroke: #ffffff; stroke-width: 2; stroke-linecap: square"/>
   </g>
   <g id="line2d_31">
    <path d="M 287.018502 483.044794 
L 299.070542 483.044794 
" clip-path="url(#p7291b47436)" style="fill: none; stroke: #ffffff; stroke-width: 2; stroke-linecap: square"/>
   </g>
   <g id="text_12">
    <g clip-path="url(#p7291b47436)">
     <!-- S -->
     <g transform="translate(335.272037 347.569983)scale(0.13 -0.13)">
      <use xlink:href="#DejaVuSans-53"/>
     </g>
    </g>
   </g>
   <g id="text_13">
    <g clip-path="url(#p7291b47436)">
     <!-- H -->
     <g transform="translate(380.864317 347.569983)scale(0.13 -0.13)">
      <use xlink:href="#DejaVuSans-48"/>
     </g>
    </g>
   </g>
   <g id="line2d_32">
    <path d="M 432.10652 489.070814 
L 432.10652 477.018774 
" clip-path="url(#p7291b47436)" style="fill: none; stroke: #ffffff; stroke-width: 2; stroke-linecap: square"/>
   </g>
   <g id="line2d_33">
    <path d="M 426.0805 483.044794 
L 438.13254 483.044794 
" clip-path="url(#p7291b47436)" style="fill: none; stroke: #ffffff; stroke-width: 2; stroke-linecap: square"/>
   </g>
   <g id="line2d_34">
    <path d="M 478.460519 489.070814 
L 478.460519 477.018774 
" clip-path="url(#p7291b47436)" style="fill: none; stroke: #ffffff; stroke-width: 2; stroke-linecap: square"/>
   </g>
   <g id="line2d_35">
    <path d="M 472.434499 483.044794 
L 484.486539 483.044794 
" clip-path="url(#p7291b47436)" style="fill: none; stroke: #ffffff; stroke-width: 2; stroke-linecap: square"/>
   </g>
   <g id="line2d_36">
    <path d="M 524.814519 489.070814 
L 524.814519 477.018774 
" clip-path="url(#p7291b47436)" style="fill: none; stroke: #ffffff; stroke-width: 2; stroke-linecap: square"/>
   </g>
   <g id="line2d_37">
    <path d="M 518.788499 483.044794 
L 530.840539 483.044794 
" clip-path="url(#p7291b47436)" style="fill: none; stroke: #ffffff; stroke-width: 2; stroke-linecap: square"/>
   </g>
   <g id="text_14">
    <g clip-path="url(#p7291b47436)">
     <!-- 0.0218 -->
     <g transform="translate(557.172268 494.291323)scale(0.08 -0.08)">
      <defs>
       <path id="DejaVuSans-2e" d="M 684 794 
L 1344 794 
L 1344 0 
L 684 0 
L 684 794 
z
" transform="scale(0.015625)"/>
      </defs>
      <use xlink:href="#DejaVuSans-30"/>
      <use xlink:href="#DejaVuSans-2e" x="63.623047"/>
      <use xlink:href="#DejaVuSans-30" x="95.410156"/>
      <use xlink:href="#DejaVuSans-32" x="159.033203"/>
      <use xlink:href="#DejaVuSans-31" x="222.65625"/>
      <use xlink:href="#DejaVuSans-38" x="286.279297"/>
     </g>
    </g>
   </g>
   <g id="text_15">
    <g clip-path="url(#p7291b47436)">
     <!-- $\mathrm{R_Z}$ -->
     <g transform="translate(563.238518 482.112466)scale(0.13 -0.13)">
      <defs>
       <path id="DejaVuSans-5a" d="M 359 4666 
L 4025 4666 
L 4025 4184 
L 1075 531 
L 4097 531 
L 4097 0 
L 288 0 
L 288 481 
L 3238 4134 
L 359 4134 
L 359 4666 
z
" transform="scale(0.015625)"/>
      </defs>
      <use xlink:href="#DejaVuSans-52" transform="translate(0 0.09375)"/>
      <use xlink:href="#DejaVuSans-5a" transform="translate(70.439453 -16.3125)scale(0.7)"/>
     </g>
    </g>
   </g>
   <g id="line2d_38">
    <path d="M 617.522517 489.070814 
L 617.522517 477.018774 
" clip-path="url(#p7291b47436)" style="fill: none; stroke: #ffffff; stroke-width: 2; stroke-linecap: square"/>
   </g>
   <g id="line2d_39">
    <path d="M 611.496497 483.044794 
L 623.548537 483.044794 
" clip-path="url(#p7291b47436)" style="fill: none; stroke: #ffffff; stroke-width: 2; stroke-linecap: square"/>
   </g>
   <g id="line2d_40">
    <path d="M 663.876517 489.070814 
L 663.876517 477.018774 
" clip-path="url(#p7291b47436)" style="fill: none; stroke: #ffffff; stroke-width: 2; stroke-linecap: square"/>
   </g>
   <g id="line2d_41">
    <path d="M 657.850497 483.044794 
L 669.902537 483.044794 
" clip-path="url(#p7291b47436)" style="fill: none; stroke: #ffffff; stroke-width: 2; stroke-linecap: square"/>
   </g>
   <g id="line2d_42">
    <path d="M 710.230516 396.362815 
L 710.230516 384.310775 
" clip-path="url(#p7291b47436)" style="fill: none; stroke: #ffffff; stroke-width: 2; stroke-linecap: square"/>
   </g>
   <g id="line2d_43">
    <path d="M 704.204496 390.336795 
L 716.256536 390.336795 
" clip-path="url(#p7291b47436)" style="fill: none; stroke: #ffffff; stroke-width: 2; stroke-linecap: square"/>
   </g>
   <g id="text_16">
    <g clip-path="url(#p7291b47436)">
     <!-- H -->
     <g transform="translate(751.696312 347.569983)scale(0.13 -0.13)">
      <use xlink:href="#DejaVuSans-48"/>
     </g>
    </g>
   </g>
   <g id="text_17">
    <g clip-path="url(#p7291b47436)">
     <!-- 0.138 -->
     <g transform="translate(745.133266 401.583325)scale(0.08 -0.08)">
      <use xlink:href="#DejaVuSans-30"/>
      <use xlink:href="#DejaVuSans-2e" x="63.623047"/>
      <use xlink:href="#DejaVuSans-31" x="95.410156"/>
      <use xlink:href="#DejaVuSans-33" x="159.033203"/>
      <use xlink:href="#DejaVuSans-38" x="222.65625"/>
     </g>
    </g>
   </g>
   <g id="text_18">
    <g clip-path="url(#p7291b47436)">
     <!-- $\mathrm{R_Z}$ -->
     <g transform="translate(748.654516 389.404467)scale(0.13 -0.13)">
      <use xlink:href="#DejaVuSans-52" transform="translate(0 0.09375)"/>
      <use xlink:href="#DejaVuSans-5a" transform="translate(70.439453 -16.3125)scale(0.7)"/>
     </g>
    </g>
   </g>
   <g id="line2d_44">
    <path d="M 802.938515 489.070814 
L 802.938515 477.018774 
" clip-path="url(#p7291b47436)" style="fill: none; stroke: #ffffff; stroke-width: 2; stroke-linecap: square"/>
   </g>
   <g id="line2d_45">
    <path d="M 796.912495 483.044794 
L 808.964535 483.044794 
" clip-path="url(#p7291b47436)" style="fill: none; stroke: #ffffff; stroke-width: 2; stroke-linecap: square"/>
   </g>
   <g id="text_19">
    <g clip-path="url(#p7291b47436)">
     <!-- $\mathrm{S^\dagger}$ -->
     <g transform="translate(840.842514 347.569983)scale(0.13 -0.13)">
      <defs>
       <path id="DejaVuSans-2020" d="M 1325 4666 
L 1875 4666 
L 1875 3353 
L 3022 3353 
L 3022 2875 
L 1875 2875 
L 1875 -616 
L 1325 -616 
L 1325 2875 
L 178 2875 
L 178 3353 
L 1325 3353 
L 1325 4666 
z
" transform="scale(0.015625)"/>
      </defs>
      <use xlink:href="#DejaVuSans-53" transform="translate(0 0.684375)"/>
      <use xlink:href="#DejaVuSans-2020" transform="translate(78.071289 38.965625)scale(0.7)"/>
     </g>
    </g>
   </g>
   <g id="text_20">
    <g clip-path="url(#p7291b47436)">
     <!-- H -->
     <g transform="translate(844.404311 486.631981)scale(0.13 -0.13)">
      <use xlink:href="#DejaVuSans-48"/>
     </g>
    </g>
   </g>
   <g id="line2d_46">
    <path d="M 895.646514 396.362815 
L 895.646514 384.310775 
" clip-path="url(#p7291b47436)" style="fill: none; stroke: #ffffff; stroke-width: 2; stroke-linecap: square"/>
   </g>
   <g id="line2d_47">
    <path d="M 889.620494 390.336795 
L 901.672534 390.336795 
" clip-path="url(#p7291b47436)" style="fill: none; stroke: #ffffff; stroke-width: 2; stroke-linecap: square"/>
   </g>
   <g id="text_21">
    <g clip-path="url(#p7291b47436)">
     <!-- H -->
     <g transform="translate(937.11231 347.569983)scale(0.13 -0.13)">
      <use xlink:href="#DejaVuSans-48"/>
     </g>
    </g>
   </g>
   <g id="line2d_48">
    <path d="M 988.354512 210.946817 
L 988.354512 198.894777 
" clip-path="url(#p7291b47436)" style="fill: none; stroke: #ffffff; stroke-width: 2; stroke-linecap: square"/>
   </g>
   <g id="line2d_49">
    <path d="M 982.328493 204.920797 
L 994.380532 204.920797 
" clip-path="url(#p7291b47436)" style="fill: none; stroke: #ffffff; stroke-width: 2; stroke-linecap: square"/>
   </g>
   <g id="line2d_50">
    <path d="M 1034.708512 210.946817 
L 1034.708512 198.894777 
" clip-path="url(#p7291b47436)" style="fill: none; stroke: #ffffff; stroke-width: 2; stroke-linecap: square"/>
   </g>
   <g id="line2d_51">
    <path d="M 1028.682492 204.920797 
L 1040.734532 204.920797 
" clip-path="url(#p7291b47436)" style="fill: none; stroke: #ffffff; stroke-width: 2; stroke-linecap: square"/>
   </g>
   <g id="line2d_52">
    <path d="M 1081.062511 210.946817 
L 1081.062511 198.894777 
" clip-path="url(#p7291b47436)" style="fill: none; stroke: #ffffff; stroke-width: 2; stroke-linecap: square"/>
   </g>
   <g id="line2d_53">
    <path d="M 1075.036491 204.920797 
L 1087.088531 204.920797 
" clip-path="url(#p7291b47436)" style="fill: none; stroke: #ffffff; stroke-width: 2; stroke-linecap: square"/>
   </g>
   <g id="line2d_54">
    <path d="M 1127.416511 210.946817 
L 1127.416511 198.894777 
" clip-path="url(#p7291b47436)" style="fill: none; stroke: #ffffff; stroke-width: 2; stroke-linecap: square"/>
   </g>
   <g id="line2d_55">
    <path d="M 1121.390491 204.920797 
L 1133.442531 204.920797 
" clip-path="url(#p7291b47436)" style="fill: none; stroke: #ffffff; stroke-width: 2; stroke-linecap: square"/>
   </g>
   <g id="text_22">
    <g clip-path="url(#p7291b47436)">
     <!-- $-$0.000704 -->
     <g transform="translate(1174.50751 216.167327)scale(0.08 -0.08)">
      <defs>
       <path id="DejaVuSans-2212" d="M 678 2272 
L 4684 2272 
L 4684 1741 
L 678 1741 
L 678 2272 
z
" transform="scale(0.015625)"/>
      </defs>
      <use xlink:href="#DejaVuSans-2212" transform="translate(0 0.78125)"/>
      <use xlink:href="#DejaVuSans-30" transform="translate(83.789062 0.78125)"/>
      <use xlink:href="#DejaVuSans-2e" transform="translate(147.412109 0.78125)"/>
      <use xlink:href="#DejaVuSans-30" transform="translate(179.199219 0.78125)"/>
      <use xlink:href="#DejaVuSans-30" transform="translate(242.822266 0.78125)"/>
      <use xlink:href="#DejaVuSans-30" transform="translate(306.445312 0.78125)"/>
      <use xlink:href="#DejaVuSans-37" transform="translate(370.068359 0.78125)"/>
      <use xlink:href="#DejaVuSans-30" transform="translate(433.691406 0.78125)"/>
      <use xlink:href="#DejaVuSans-34" transform="translate(497.314453 0.78125)"/>
     </g>
    </g>
   </g>
   <g id="text_23">
    <g clip-path="url(#p7291b47436)">
     <!-- $\mathrm{R_Z}$ -->
     <g transform="translate(1189.01751 203.98847)scale(0.13 -0.13)">
      <use xlink:href="#DejaVuSans-52" transform="translate(0 0.09375)"/>
      <use xlink:href="#DejaVuSans-5a" transform="translate(70.439453 -16.3125)scale(0.7)"/>
     </g>
    </g>
   </g>
   <g id="line2d_56">
    <path d="M 1266.478509 210.946817 
L 1266.478509 198.894777 
" clip-path="url(#p7291b47436)" style="fill: none; stroke: #ffffff; stroke-width: 2; stroke-linecap: square"/>
   </g>
   <g id="line2d_57">
    <path d="M 1260.452489 204.920797 
L 1272.504529 204.920797 
" clip-path="url(#p7291b47436)" style="fill: none; stroke: #ffffff; stroke-width: 2; stroke-linecap: square"/>
   </g>
   <g id="text_24">
    <g clip-path="url(#p7291b47436)">
     <!-- H -->
     <g transform="translate(1307.944305 486.631981)scale(0.13 -0.13)">
      <use xlink:href="#DejaVuSans-48"/>
     </g>
    </g>
   </g>
   <g id="line2d_58">
    <path d="M 1312.832508 210.946817 
L 1312.832508 198.894777 
" clip-path="url(#p7291b47436)" style="fill: none; stroke: #ffffff; stroke-width: 2; stroke-linecap: square"/>
   </g>
   <g id="line2d_59">
    <path d="M 1306.806488 204.920797 
L 1318.858528 204.920797 
" clip-path="url(#p7291b47436)" style="fill: none; stroke: #ffffff; stroke-width: 2; stroke-linecap: square"/>
   </g>
   <g id="line2d_60">
    <path d="M 1359.186508 210.946817 
L 1359.186508 198.894777 
" clip-path="url(#p7291b47436)" style="fill: none; stroke: #ffffff; stroke-width: 2; stroke-linecap: square"/>
   </g>
   <g id="line2d_61">
    <path d="M 1353.160488 204.920797 
L 1365.212527 204.920797 
" clip-path="url(#p7291b47436)" style="fill: none; stroke: #ffffff; stroke-width: 2; stroke-linecap: square"/>
   </g>
   <g id="line2d_62">
    <path d="M 1359.186508 489.070814 
L 1359.186508 477.018774 
" clip-path="url(#p7291b47436)" style="fill: none; stroke: #ffffff; stroke-width: 2; stroke-linecap: square"/>
   </g>
   <g id="line2d_63">
    <path d="M 1353.160488 483.044794 
L 1365.212527 483.044794 
" clip-path="url(#p7291b47436)" style="fill: none; stroke: #ffffff; stroke-width: 2; stroke-linecap: square"/>
   </g>
   <g id="line2d_64">
    <path d="M 1405.540507 210.946817 
L 1405.540507 198.894777 
" clip-path="url(#p7291b47436)" style="fill: none; stroke: #ffffff; stroke-width: 2; stroke-linecap: square"/>
   </g>
   <g id="line2d_65">
    <path d="M 1399.514487 204.920797 
L 1411.566527 204.920797 
" clip-path="url(#p7291b47436)" style="fill: none; stroke: #ffffff; stroke-width: 2; stroke-linecap: square"/>
   </g>
   <g id="text_25">
    <g clip-path="url(#p7291b47436)">
     <!-- 0.107 -->
     <g transform="translate(1394.089257 494.291323)scale(0.08 -0.08)">
      <use xlink:href="#DejaVuSans-30"/>
      <use xlink:href="#DejaVuSans-2e" x="63.623047"/>
      <use xlink:href="#DejaVuSans-31" x="95.410156"/>
      <use xlink:href="#DejaVuSans-30" x="159.033203"/>
      <use xlink:href="#DejaVuSans-37" x="222.65625"/>
     </g>
    </g>
   </g>
   <g id="text_26">
    <g clip-path="url(#p7291b47436)">
     <!-- $\mathrm{R_Z}$ -->
     <g transform="translate(1397.610507 482.112466)scale(0.13 -0.13)">
      <use xlink:href="#DejaVuSans-52" transform="translate(0 0.09375)"/>
      <use xlink:href="#DejaVuSans-5a" transform="translate(70.439453 -16.3125)scale(0.7)"/>
     </g>
    </g>
   </g>
   <g id="text_27">
    <g clip-path="url(#p7291b47436)">
     <!-- H -->
     <g transform="translate(1447.006303 347.569983)scale(0.13 -0.13)">
      <use xlink:href="#DejaVuSans-48"/>
     </g>
    </g>
   </g>
   <g id="line2d_66">
    <path d="M 1451.894506 489.070814 
L 1451.894506 477.018774 
" clip-path="url(#p7291b47436)" style="fill: none; stroke: #ffffff; stroke-width: 2; stroke-linecap: square"/>
   </g>
   <g id="line2d_67">
    <path d="M 1445.868486 483.044794 
L 1457.920526 483.044794 
" clip-path="url(#p7291b47436)" style="fill: none; stroke: #ffffff; stroke-width: 2; stroke-linecap: square"/>
   </g>
  </g>
 </g>
 <defs>
  <clipPath id="p7291b47436">
   <rect x="210.604166" y="75.129599" width="1271.88398" height="482.081594"/>
  </clipPath>
 </defs>
</svg>
