<?xml version="1.0" encoding="utf-8" standalone="no"?>
<!DOCTYPE svg PUBLIC "-//W3C//DTD SVG 1.1//EN"
  "http://www.w3.org/Graphics/SVG/1.1/DTD/svg11.dtd">
<svg xmlns:xlink="http://www.w3.org/1999/xlink" width="2193.59737pt" height="626.079992pt" viewBox="0 0 2193.59737 626.079992" xmlns="http://www.w3.org/2000/svg" version="1.1">
 <metadata>
  <rdf:RDF xmlns:dc="http://purl.org/dc/elements/1.1/" xmlns:cc="http://creativecommons.org/ns#" xmlns:rdf="http://www.w3.org/1999/02/22-rdf-syntax-ns#">
   <cc:Work>
    <dc:type rdf:resource="http://purl.org/dc/dcmitype/StillImage"/>
    <dc:date>2022-05-22T13:32:44.297134</dc:date>
    <dc:format>image/svg+xml</dc:format>
    <dc:creator>
     <cc:Agent>
      <dc:title>Matplotlib v3.5.1, https://matplotlib.org/</dc:title>
     </cc:Agent>
    </dc:creator>
   </cc:Work>
  </rdf:RDF>
 </metadata>
 <defs>
  <style type="text/css">*{stroke-linejoin: round; stroke-linecap: butt}</style>
 </defs>
 <g id="figure_1">
  <g id="patch_1">
   <path d="M 0 626.079992 
L 2193.59737 626.079992 
L 2193.59737 0 
L 0 0 
z
" style="fill: #ffffff"/>
  </g>
  <g id="axes_1">
   <g id="line2d_1">
    <path d="M 337.092861 112.212799 
L 1964.11824 112.212799 
" clip-path="url(#p2d6e0b18ad)" style="fill: none; stroke: #000000; stroke-width: 2; stroke-linecap: square"/>
   </g>
   <g id="line2d_2">
    <path d="M 337.092861 158.566798 
L 1964.11824 158.566798 
" clip-path="url(#p2d6e0b18ad)" style="fill: none; stroke: #000000; stroke-width: 2; stroke-linecap: square"/>
   </g>
   <g id="line2d_3">
    <path d="M 337.092861 204.920797 
L 1964.11824 204.920797 
" clip-path="url(#p2d6e0b18ad)" style="fill: none; stroke: #000000; stroke-width: 2; stroke-linecap: square"/>
   </g>
   <g id="line2d_4">
    <path d="M 337.092861 251.274797 
L 1964.11824 251.274797 
" clip-path="url(#p2d6e0b18ad)" style="fill: none; stroke: #000000; stroke-width: 2; stroke-linecap: square"/>
   </g>
   <g id="line2d_5">
    <path d="M 337.092861 297.628796 
L 1964.11824 297.628796 
" clip-path="url(#p2d6e0b18ad)" style="fill: none; stroke: #000000; stroke-width: 2; stroke-linecap: square"/>
   </g>
   <g id="line2d_6">
    <path d="M 337.092861 343.982795 
L 1964.11824 343.982795 
" clip-path="url(#p2d6e0b18ad)" style="fill: none; stroke: #000000; stroke-width: 2; stroke-linecap: square"/>
   </g>
   <g id="line2d_7">
    <path d="M 337.092861 390.336795 
L 1964.11824 390.336795 
" clip-path="url(#p2d6e0b18ad)" style="fill: none; stroke: #000000; stroke-width: 2; stroke-linecap: square"/>
   </g>
   <g id="line2d_8">
    <path d="M 337.092861 436.690794 
L 1964.11824 436.690794 
" clip-path="url(#p2d6e0b18ad)" style="fill: none; stroke: #000000; stroke-width: 2; stroke-linecap: square"/>
   </g>
   <g id="line2d_9">
    <path d="M 337.092861 483.044794 
L 1964.11824 483.044794 
" clip-path="url(#p2d6e0b18ad)" style="fill: none; stroke: #000000; stroke-width: 2; stroke-linecap: square"/>
   </g>
   <g id="line2d_10">
    <path d="M 337.092861 529.398793 
L 1964.11824 529.398793 
" clip-path="url(#p2d6e0b18ad)" style="fill: none; stroke: #000000; stroke-width: 2; stroke-linecap: square"/>
   </g>
   <g id="line2d_11">
    <path d="M 408.47802 483.044794 
L 408.47802 204.920797 
" clip-path="url(#p2d6e0b18ad)" style="fill: none; stroke: #000000; stroke-width: 2; stroke-linecap: square"/>
   </g>
   <g id="line2d_12">
    <path d="M 454.83202 483.044794 
L 454.83202 251.274797 
" clip-path="url(#p2d6e0b18ad)" style="fill: none; stroke: #000000; stroke-width: 2; stroke-linecap: square"/>
   </g>
   <g id="line2d_13">
    <path d="M 501.186019 483.044794 
L 501.186019 436.690794 
" clip-path="url(#p2d6e0b18ad)" style="fill: none; stroke: #000000; stroke-width: 2; stroke-linecap: square"/>
   </g>
   <g id="line2d_14">
    <path d="M 593.894018 483.044794 
L 593.894018 436.690794 
" clip-path="url(#p2d6e0b18ad)" style="fill: none; stroke: #000000; stroke-width: 2; stroke-linecap: square"/>
   </g>
   <g id="line2d_15">
    <path d="M 640.248017 483.044794 
L 640.248017 251.274797 
" clip-path="url(#p2d6e0b18ad)" style="fill: none; stroke: #000000; stroke-width: 2; stroke-linecap: square"/>
   </g>
   <g id="line2d_16">
    <path d="M 732.956016 483.044794 
L 732.956016 204.920797 
" clip-path="url(#p2d6e0b18ad)" style="fill: none; stroke: #000000; stroke-width: 2; stroke-linecap: square"/>
   </g>
   <g id="line2d_17">
    <path d="M 825.664015 483.044794 
L 825.664015 390.336795 
" clip-path="url(#p2d6e0b18ad)" style="fill: none; stroke: #000000; stroke-width: 2; stroke-linecap: square"/>
   </g>
   <g id="line2d_18">
    <path d="M 872.018014 436.690794 
L 872.018014 204.920797 
" clip-path="url(#p2d6e0b18ad)" style="fill: none; stroke: #000000; stroke-width: 2; stroke-linecap: square"/>
   </g>
   <g id="line2d_19">
    <path d="M 918.372013 529.398793 
L 918.372013 390.336795 
" clip-path="url(#p2d6e0b18ad)" style="fill: none; stroke: #000000; stroke-width: 2; stroke-linecap: square"/>
   </g>
   <g id="line2d_20">
    <path d="M 1011.080012 529.398793 
L 1011.080012 390.336795 
" clip-path="url(#p2d6e0b18ad)" style="fill: none; stroke: #000000; stroke-width: 2; stroke-linecap: square"/>
   </g>
   <g id="line2d_21">
    <path d="M 1057.434012 483.044794 
L 1057.434012 390.336795 
" clip-path="url(#p2d6e0b18ad)" style="fill: none; stroke: #000000; stroke-width: 2; stroke-linecap: square"/>
   </g>
   <g id="line2d_22">
    <path d="M 1103.788011 390.336795 
L 1103.788011 204.920797 
" clip-path="url(#p2d6e0b18ad)" style="fill: none; stroke: #000000; stroke-width: 2; stroke-linecap: square"/>
   </g>
   <g id="line2d_23">
    <path d="M 1150.14201 343.982795 
L 1150.14201 204.920797 
" clip-path="url(#p2d6e0b18ad)" style="fill: none; stroke: #000000; stroke-width: 2; stroke-linecap: square"/>
   </g>
   <g id="line2d_24">
    <path d="M 1196.49601 483.044794 
L 1196.49601 158.566798 
" clip-path="url(#p2d6e0b18ad)" style="fill: none; stroke: #000000; stroke-width: 2; stroke-linecap: square"/>
   </g>
   <g id="line2d_25">
    <path d="M 1242.850009 251.274797 
L 1242.850009 204.920797 
" clip-path="url(#p2d6e0b18ad)" style="fill: none; stroke: #000000; stroke-width: 2; stroke-linecap: square"/>
   </g>
   <g id="line2d_26">
    <path d="M 1335.558008 483.044794 
L 1335.558008 158.566798 
" clip-path="url(#p2d6e0b18ad)" style="fill: none; stroke: #000000; stroke-width: 2; stroke-linecap: square"/>
   </g>
   <g id="line2d_27">
    <path d="M 1381.912007 251.274797 
L 1381.912007 204.920797 
" clip-path="url(#p2d6e0b18ad)" style="fill: none; stroke: #000000; stroke-width: 2; stroke-linecap: square"/>
   </g>
   <g id="line2d_28">
    <path d="M 1474.620006 343.982795 
L 1474.620006 204.920797 
" clip-path="url(#p2d6e0b18ad)" style="fill: none; stroke: #000000; stroke-width: 2; stroke-linecap: square"/>
   </g>
   <g id="line2d_29">
    <path d="M 1567.328005 390.336795 
L 1567.328005 204.920797 
" clip-path="url(#p2d6e0b18ad)" style="fill: none; stroke: #000000; stroke-width: 2; stroke-linecap: square"/>
   </g>
   <g id="line2d_30">
    <path d="M 1613.682004 436.690794 
L 1613.682004 204.920797 
" clip-path="url(#p2d6e0b18ad)" style="fill: none; stroke: #000000; stroke-width: 2; stroke-linecap: square"/>
   </g>
   <g id="line2d_31">
    <path d="M 1706.390003 297.628796 
L 1706.390003 204.920797 
" clip-path="url(#p2d6e0b18ad)" style="fill: none; stroke: #000000; stroke-width: 2; stroke-linecap: square"/>
   </g>
   <g id="line2d_32">
    <path d="M 1752.744002 297.628796 
L 1752.744002 251.274797 
" clip-path="url(#p2d6e0b18ad)" style="fill: none; stroke: #000000; stroke-width: 2; stroke-linecap: square"/>
   </g>
   <g id="line2d_33">
    <path d="M 1845.452001 297.628796 
L 1845.452001 251.274797 
" clip-path="url(#p2d6e0b18ad)" style="fill: none; stroke: #000000; stroke-width: 2; stroke-linecap: square"/>
   </g>
   <g id="line2d_34">
    <path d="M 1938.16 297.628796 
L 1938.16 204.920797 
" clip-path="url(#p2d6e0b18ad)" style="fill: none; stroke: #000000; stroke-width: 2; stroke-linecap: square"/>
   </g>
   <g id="text_1">
    <!-- TERMS: 8, DEPTH:27 -->
    <g transform="translate(1062.186152 69.129599)scale(0.12 -0.12)">
     <defs>
      <path id="DejaVuSans-54" d="M -19 4666 
L 3928 4666 
L 3928 4134 
L 2272 4134 
L 2272 0 
L 1638 0 
L 1638 4134 
L -19 4134 
L -19 4666 
z
" transform="scale(0.015625)"/>
      <path id="DejaVuSans-45" d="M 628 4666 
L 3578 4666 
L 3578 4134 
L 1259 4134 
L 1259 2753 
L 3481 2753 
L 3481 2222 
L 1259 2222 
L 1259 531 
L 3634 531 
L 3634 0 
L 628 0 
L 628 4666 
z
" transform="scale(0.015625)"/>
      <path id="DejaVuSans-52" d="M 2841 2188 
Q 3044 2119 3236 1894 
Q 3428 1669 3622 1275 
L 4263 0 
L 3584 0 
L 2988 1197 
Q 2756 1666 2539 1819 
Q 2322 1972 1947 1972 
L 1259 1972 
L 1259 0 
L 628 0 
L 628 4666 
L 2053 4666 
Q 2853 4666 3247 4331 
Q 3641 3997 3641 3322 
Q 3641 2881 3436 2590 
Q 3231 2300 2841 2188 
z
M 1259 4147 
L 1259 2491 
L 2053 2491 
Q 2509 2491 2742 2702 
Q 2975 2913 2975 3322 
Q 2975 3731 2742 3939 
Q 2509 4147 2053 4147 
L 1259 4147 
z
" transform="scale(0.015625)"/>
      <path id="DejaVuSans-4d" d="M 628 4666 
L 1569 4666 
L 2759 1491 
L 3956 4666 
L 4897 4666 
L 4897 0 
L 4281 0 
L 4281 4097 
L 3078 897 
L 2444 897 
L 1241 4097 
L 1241 0 
L 628 0 
L 628 4666 
z
" transform="scale(0.015625)"/>
      <path id="DejaVuSans-53" d="M 3425 4513 
L 3425 3897 
Q 3066 4069 2747 4153 
Q 2428 4238 2131 4238 
Q 1616 4238 1336 4038 
Q 1056 3838 1056 3469 
Q 1056 3159 1242 3001 
Q 1428 2844 1947 2747 
L 2328 2669 
Q 3034 2534 3370 2195 
Q 3706 1856 3706 1288 
Q 3706 609 3251 259 
Q 2797 -91 1919 -91 
Q 1588 -91 1214 -16 
Q 841 59 441 206 
L 441 856 
Q 825 641 1194 531 
Q 1563 422 1919 422 
Q 2459 422 2753 634 
Q 3047 847 3047 1241 
Q 3047 1584 2836 1778 
Q 2625 1972 2144 2069 
L 1759 2144 
Q 1053 2284 737 2584 
Q 422 2884 422 3419 
Q 422 4038 858 4394 
Q 1294 4750 2059 4750 
Q 2388 4750 2728 4690 
Q 3069 4631 3425 4513 
z
" transform="scale(0.015625)"/>
      <path id="DejaVuSans-3a" d="M 750 794 
L 1409 794 
L 1409 0 
L 750 0 
L 750 794 
z
M 750 3309 
L 1409 3309 
L 1409 2516 
L 750 2516 
L 750 3309 
z
" transform="scale(0.015625)"/>
      <path id="DejaVuSans-20" transform="scale(0.015625)"/>
      <path id="DejaVuSans-38" d="M 2034 2216 
Q 1584 2216 1326 1975 
Q 1069 1734 1069 1313 
Q 1069 891 1326 650 
Q 1584 409 2034 409 
Q 2484 409 2743 651 
Q 3003 894 3003 1313 
Q 3003 1734 2745 1975 
Q 2488 2216 2034 2216 
z
M 1403 2484 
Q 997 2584 770 2862 
Q 544 3141 544 3541 
Q 544 4100 942 4425 
Q 1341 4750 2034 4750 
Q 2731 4750 3128 4425 
Q 3525 4100 3525 3541 
Q 3525 3141 3298 2862 
Q 3072 2584 2669 2484 
Q 3125 2378 3379 2068 
Q 3634 1759 3634 1313 
Q 3634 634 3220 271 
Q 2806 -91 2034 -91 
Q 1263 -91 848 271 
Q 434 634 434 1313 
Q 434 1759 690 2068 
Q 947 2378 1403 2484 
z
M 1172 3481 
Q 1172 3119 1398 2916 
Q 1625 2713 2034 2713 
Q 2441 2713 2670 2916 
Q 2900 3119 2900 3481 
Q 2900 3844 2670 4047 
Q 2441 4250 2034 4250 
Q 1625 4250 1398 4047 
Q 1172 3844 1172 3481 
z
" transform="scale(0.015625)"/>
      <path id="DejaVuSans-2c" d="M 750 794 
L 1409 794 
L 1409 256 
L 897 -744 
L 494 -744 
L 750 256 
L 750 794 
z
" transform="scale(0.015625)"/>
      <path id="DejaVuSans-44" d="M 1259 4147 
L 1259 519 
L 2022 519 
Q 2988 519 3436 956 
Q 3884 1394 3884 2338 
Q 3884 3275 3436 3711 
Q 2988 4147 2022 4147 
L 1259 4147 
z
M 628 4666 
L 1925 4666 
Q 3281 4666 3915 4102 
Q 4550 3538 4550 2338 
Q 4550 1131 3912 565 
Q 3275 0 1925 0 
L 628 0 
L 628 4666 
z
" transform="scale(0.015625)"/>
      <path id="DejaVuSans-50" d="M 1259 4147 
L 1259 2394 
L 2053 2394 
Q 2494 2394 2734 2622 
Q 2975 2850 2975 3272 
Q 2975 3691 2734 3919 
Q 2494 4147 2053 4147 
L 1259 4147 
z
M 628 4666 
L 2053 4666 
Q 2838 4666 3239 4311 
Q 3641 3956 3641 3272 
Q 3641 2581 3239 2228 
Q 2838 1875 2053 1875 
L 1259 1875 
L 1259 0 
L 628 0 
L 628 4666 
z
" transform="scale(0.015625)"/>
      <path id="DejaVuSans-48" d="M 628 4666 
L 1259 4666 
L 1259 2753 
L 3553 2753 
L 3553 4666 
L 4184 4666 
L 4184 0 
L 3553 0 
L 3553 2222 
L 1259 2222 
L 1259 0 
L 628 0 
L 628 4666 
z
" transform="scale(0.015625)"/>
      <path id="DejaVuSans-32" d="M 1228 531 
L 3431 531 
L 3431 0 
L 469 0 
L 469 531 
Q 828 903 1448 1529 
Q 2069 2156 2228 2338 
Q 2531 2678 2651 2914 
Q 2772 3150 2772 3378 
Q 2772 3750 2511 3984 
Q 2250 4219 1831 4219 
Q 1534 4219 1204 4116 
Q 875 4013 500 3803 
L 500 4441 
Q 881 4594 1212 4672 
Q 1544 4750 1819 4750 
Q 2544 4750 2975 4387 
Q 3406 4025 3406 3419 
Q 3406 3131 3298 2873 
Q 3191 2616 2906 2266 
Q 2828 2175 2409 1742 
Q 1991 1309 1228 531 
z
" transform="scale(0.015625)"/>
      <path id="DejaVuSans-37" d="M 525 4666 
L 3525 4666 
L 3525 4397 
L 1831 0 
L 1172 0 
L 2766 4134 
L 525 4134 
L 525 4666 
z
" transform="scale(0.015625)"/>
     </defs>
     <use xlink:href="#DejaVuSans-54"/>
     <use xlink:href="#DejaVuSans-45" x="61.083984"/>
     <use xlink:href="#DejaVuSans-52" x="124.267578"/>
     <use xlink:href="#DejaVuSans-4d" x="193.75"/>
     <use xlink:href="#DejaVuSans-53" x="280.029297"/>
     <use xlink:href="#DejaVuSans-3a" x="343.505859"/>
     <use xlink:href="#DejaVuSans-20" x="377.197266"/>
     <use xlink:href="#DejaVuSans-38" x="408.984375"/>
     <use xlink:href="#DejaVuSans-2c" x="472.607422"/>
     <use xlink:href="#DejaVuSans-20" x="504.394531"/>
     <use xlink:href="#DejaVuSans-44" x="536.181641"/>
     <use xlink:href="#DejaVuSans-45" x="613.183594"/>
     <use xlink:href="#DejaVuSans-50" x="676.367188"/>
     <use xlink:href="#DejaVuSans-54" x="736.669922"/>
     <use xlink:href="#DejaVuSans-48" x="797.753906"/>
     <use xlink:href="#DejaVuSans-3a" x="872.949219"/>
     <use xlink:href="#DejaVuSans-32" x="906.640625"/>
     <use xlink:href="#DejaVuSans-37" x="970.263672"/>
    </g>
   </g>
   <g id="patch_2">
    <path d="M 347.058971 219.985847 
L 377.189071 219.985847 
L 377.189071 189.855747 
L 347.058971 189.855747 
z
" clip-path="url(#p2d6e0b18ad)" style="fill: #ffffff; stroke: #000000; stroke-width: 1.5; stroke-linejoin: miter"/>
   </g>
   <g id="patch_3">
    <path d="M 347.058971 266.339846 
L 377.189071 266.339846 
L 377.189071 236.209747 
L 347.058971 236.209747 
z
" clip-path="url(#p2d6e0b18ad)" style="fill: #ffffff; stroke: #000000; stroke-width: 1.5; stroke-linejoin: miter"/>
   </g>
   <g id="patch_4">
    <path d="M 347.058971 451.755844 
L 377.189071 451.755844 
L 377.189071 421.625744 
L 347.058971 421.625744 
z
" clip-path="url(#p2d6e0b18ad)" style="fill: #ffffff; stroke: #000000; stroke-width: 1.5; stroke-linejoin: miter"/>
   </g>
   <g id="patch_5">
    <path d="M 346.138844 405.401845 
L 378.109197 405.401845 
L 378.109197 375.271745 
L 346.138844 375.271745 
z
" clip-path="url(#p2d6e0b18ad)" style="fill: #ffffff; stroke: #000000; stroke-width: 1.5; stroke-linejoin: miter"/>
   </g>
   <g id="patch_6">
    <path d="M 347.058971 544.463843 
L 377.189071 544.463843 
L 377.189071 514.333743 
L 347.058971 514.333743 
z
" clip-path="url(#p2d6e0b18ad)" style="fill: #ffffff; stroke: #000000; stroke-width: 1.5; stroke-linejoin: miter"/>
   </g>
   <g id="patch_7">
    <path d="M 347.058971 359.047845 
L 377.189071 359.047845 
L 377.189071 328.917746 
L 347.058971 328.917746 
z
" clip-path="url(#p2d6e0b18ad)" style="fill: #ffffff; stroke: #000000; stroke-width: 1.5; stroke-linejoin: miter"/>
   </g>
   <g id="patch_8">
    <path d="M 408.47802 209.440312 
C 409.67661 209.440312 410.826269 208.964108 411.6738 208.116577 
C 412.521331 207.269046 412.997535 206.119387 412.997535 204.920797 
C 412.997535 203.722208 412.521331 202.572548 411.6738 201.725018 
C 410.826269 200.877487 409.67661 200.401282 408.47802 200.401282 
C 407.279431 200.401282 406.129771 200.877487 405.282241 201.725018 
C 404.43471 202.572548 403.958505 203.722208 403.958505 204.920797 
C 403.958505 206.119387 404.43471 207.269046 405.282241 208.116577 
C 406.129771 208.964108 407.279431 209.440312 408.47802 209.440312 
z
" clip-path="url(#p2d6e0b18ad)" style="stroke: #000000; stroke-width: 1.5; stroke-linejoin: miter"/>
   </g>
   <g id="patch_9">
    <path d="M 408.47802 493.590328 
C 411.274729 493.590328 413.957268 492.479184 415.934839 490.501613 
C 417.912411 488.524041 419.023555 485.841502 419.023555 483.044794 
C 419.023555 480.248085 417.912411 477.565546 415.934839 475.587974 
C 413.957268 473.610403 411.274729 472.499259 408.47802 472.499259 
C 405.681312 472.499259 402.998773 473.610403 401.021201 475.587974 
C 399.043629 477.565546 397.932485 480.248085 397.932485 483.044794 
C 397.932485 485.841502 399.043629 488.524041 401.021201 490.501613 
C 402.998773 492.479184 405.681312 493.590328 408.47802 493.590328 
z
" clip-path="url(#p2d6e0b18ad)" style="stroke: #000000; stroke-width: 2; stroke-linejoin: miter"/>
   </g>
   <g id="patch_10">
    <path d="M 454.83202 255.794312 
C 456.030609 255.794312 457.180269 255.318107 458.027799 254.470576 
C 458.87533 253.623046 459.351534 252.473386 459.351534 251.274797 
C 459.351534 250.076207 458.87533 248.926548 458.027799 248.079017 
C 457.180269 247.231486 456.030609 246.755282 454.83202 246.755282 
C 453.63343 246.755282 452.483771 247.231486 451.63624 248.079017 
C 450.788709 248.926548 450.312505 250.076207 450.312505 251.274797 
C 450.312505 252.473386 450.788709 253.623046 451.63624 254.470576 
C 452.483771 255.318107 453.63343 255.794312 454.83202 255.794312 
z
" clip-path="url(#p2d6e0b18ad)" style="stroke: #000000; stroke-width: 1.5; stroke-linejoin: miter"/>
   </g>
   <g id="patch_11">
    <path d="M 454.83202 493.590328 
C 457.628728 493.590328 460.311267 492.479184 462.288839 490.501613 
C 464.26641 488.524041 465.377554 485.841502 465.377554 483.044794 
C 465.377554 480.248085 464.26641 477.565546 462.288839 475.587974 
C 460.311267 473.610403 457.628728 472.499259 454.83202 472.499259 
C 452.035311 472.499259 449.352772 473.610403 447.3752 475.587974 
C 445.397629 477.565546 444.286485 480.248085 444.286485 483.044794 
C 444.286485 485.841502 445.397629 488.524041 447.3752 490.501613 
C 449.352772 492.479184 452.035311 493.590328 454.83202 493.590328 
z
" clip-path="url(#p2d6e0b18ad)" style="stroke: #000000; stroke-width: 2; stroke-linejoin: miter"/>
   </g>
   <g id="patch_12">
    <path d="M 501.186019 441.210309 
C 502.384608 441.210309 503.534268 440.734105 504.381799 439.886574 
C 505.229329 439.039043 505.705534 437.889384 505.705534 436.690794 
C 505.705534 435.492205 505.229329 434.342545 504.381799 433.495015 
C 503.534268 432.647484 502.384608 432.171279 501.186019 432.171279 
C 499.98743 432.171279 498.83777 432.647484 497.990239 433.495015 
C 497.142709 434.342545 496.666504 435.492205 496.666504 436.690794 
C 496.666504 437.889384 497.142709 439.039043 497.990239 439.886574 
C 498.83777 440.734105 499.98743 441.210309 501.186019 441.210309 
z
" clip-path="url(#p2d6e0b18ad)" style="stroke: #000000; stroke-width: 1.5; stroke-linejoin: miter"/>
   </g>
   <g id="patch_13">
    <path d="M 501.186019 493.590328 
C 503.982727 493.590328 506.665267 492.479184 508.642838 490.501613 
C 510.62041 488.524041 511.731554 485.841502 511.731554 483.044794 
C 511.731554 480.248085 510.62041 477.565546 508.642838 475.587974 
C 506.665267 473.610403 503.982727 472.499259 501.186019 472.499259 
C 498.38931 472.499259 495.706771 473.610403 493.7292 475.587974 
C 491.751628 477.565546 490.640484 480.248085 490.640484 483.044794 
C 490.640484 485.841502 491.751628 488.524041 493.7292 490.501613 
C 495.706771 492.479184 498.38931 493.590328 501.186019 493.590328 
z
" clip-path="url(#p2d6e0b18ad)" style="stroke: #000000; stroke-width: 2; stroke-linejoin: miter"/>
   </g>
   <g id="patch_14">
    <path d="M 532.474969 498.109843 
L 562.605068 498.109843 
L 562.605068 467.979744 
L 532.474969 467.979744 
z
" clip-path="url(#p2d6e0b18ad)" style="fill: #ffffff; stroke: #000000; stroke-width: 1.5; stroke-linejoin: miter"/>
   </g>
   <g id="patch_15">
    <path d="M 593.894018 441.210309 
C 595.092607 441.210309 596.242267 440.734105 597.089797 439.886574 
C 597.937328 439.039043 598.413533 437.889384 598.413533 436.690794 
C 598.413533 435.492205 597.937328 434.342545 597.089797 433.495015 
C 596.242267 432.647484 595.092607 432.171279 593.894018 432.171279 
C 592.695428 432.171279 591.545769 432.647484 590.698238 433.495015 
C 589.850707 434.342545 589.374503 435.492205 589.374503 436.690794 
C 589.374503 437.889384 589.850707 439.039043 590.698238 439.886574 
C 591.545769 440.734105 592.695428 441.210309 593.894018 441.210309 
z
" clip-path="url(#p2d6e0b18ad)" style="stroke: #000000; stroke-width: 1.5; stroke-linejoin: miter"/>
   </g>
   <g id="patch_16">
    <path d="M 593.894018 493.590328 
C 596.690726 493.590328 599.373265 492.479184 601.350837 490.501613 
C 603.328408 488.524041 604.439553 485.841502 604.439553 483.044794 
C 604.439553 480.248085 603.328408 477.565546 601.350837 475.587974 
C 599.373265 473.610403 596.690726 472.499259 593.894018 472.499259 
C 591.097309 472.499259 588.41477 473.610403 586.437198 475.587974 
C 584.459627 477.565546 583.348483 480.248085 583.348483 483.044794 
C 583.348483 485.841502 584.459627 488.524041 586.437198 490.501613 
C 588.41477 492.479184 591.097309 493.590328 593.894018 493.590328 
z
" clip-path="url(#p2d6e0b18ad)" style="stroke: #000000; stroke-width: 2; stroke-linejoin: miter"/>
   </g>
   <g id="patch_17">
    <path d="M 640.248017 255.794312 
C 641.446606 255.794312 642.596266 255.318107 643.443797 254.470576 
C 644.291327 253.623046 644.767532 252.473386 644.767532 251.274797 
C 644.767532 250.076207 644.291327 248.926548 643.443797 248.079017 
C 642.596266 247.231486 641.446606 246.755282 640.248017 246.755282 
C 639.049428 246.755282 637.899768 247.231486 637.052237 248.079017 
C 636.204707 248.926548 635.728502 250.076207 635.728502 251.274797 
C 635.728502 252.473386 636.204707 253.623046 637.052237 254.470576 
C 637.899768 255.318107 639.049428 255.794312 640.248017 255.794312 
z
" clip-path="url(#p2d6e0b18ad)" style="stroke: #000000; stroke-width: 1.5; stroke-linejoin: miter"/>
   </g>
   <g id="patch_18">
    <path d="M 640.248017 493.590328 
C 643.044726 493.590328 645.727265 492.479184 647.704836 490.501613 
C 649.682408 488.524041 650.793552 485.841502 650.793552 483.044794 
C 650.793552 480.248085 649.682408 477.565546 647.704836 475.587974 
C 645.727265 473.610403 643.044726 472.499259 640.248017 472.499259 
C 637.451309 472.499259 634.768769 473.610403 632.791198 475.587974 
C 630.813626 477.565546 629.702482 480.248085 629.702482 483.044794 
C 629.702482 485.841502 630.813626 488.524041 632.791198 490.501613 
C 634.768769 492.479184 637.451309 493.590328 640.248017 493.590328 
z
" clip-path="url(#p2d6e0b18ad)" style="stroke: #000000; stroke-width: 2; stroke-linejoin: miter"/>
   </g>
   <g id="patch_19">
    <path d="M 671.536967 451.755844 
L 701.667066 451.755844 
L 701.667066 421.625744 
L 671.536967 421.625744 
z
" clip-path="url(#p2d6e0b18ad)" style="fill: #ffffff; stroke: #000000; stroke-width: 1.5; stroke-linejoin: miter"/>
   </g>
   <g id="patch_20">
    <path d="M 671.536967 266.339846 
L 701.667066 266.339846 
L 701.667066 236.209747 
L 671.536967 236.209747 
z
" clip-path="url(#p2d6e0b18ad)" style="fill: #ffffff; stroke: #000000; stroke-width: 1.5; stroke-linejoin: miter"/>
   </g>
   <g id="patch_21">
    <path d="M 732.956016 209.440312 
C 734.154605 209.440312 735.304265 208.964108 736.151796 208.116577 
C 736.999326 207.269046 737.475531 206.119387 737.475531 204.920797 
C 737.475531 203.722208 736.999326 202.572548 736.151796 201.725018 
C 735.304265 200.877487 734.154605 200.401282 732.956016 200.401282 
C 731.757426 200.401282 730.607767 200.877487 729.760236 201.725018 
C 728.912706 202.572548 728.436501 203.722208 728.436501 204.920797 
C 728.436501 206.119387 728.912706 207.269046 729.760236 208.116577 
C 730.607767 208.964108 731.757426 209.440312 732.956016 209.440312 
z
" clip-path="url(#p2d6e0b18ad)" style="stroke: #000000; stroke-width: 1.5; stroke-linejoin: miter"/>
   </g>
   <g id="patch_22">
    <path d="M 732.956016 493.590328 
C 735.752724 493.590328 738.435264 492.479184 740.412835 490.501613 
C 742.390407 488.524041 743.501551 485.841502 743.501551 483.044794 
C 743.501551 480.248085 742.390407 477.565546 740.412835 475.587974 
C 738.435264 473.610403 735.752724 472.499259 732.956016 472.499259 
C 730.159307 472.499259 727.476768 473.610403 725.499197 475.587974 
C 723.521625 477.565546 722.410481 480.248085 722.410481 483.044794 
C 722.410481 485.841502 723.521625 488.524041 725.499197 490.501613 
C 727.476768 492.479184 730.159307 493.590328 732.956016 493.590328 
z
" clip-path="url(#p2d6e0b18ad)" style="stroke: #000000; stroke-width: 2; stroke-linejoin: miter"/>
   </g>
   <g id="patch_23">
    <path d="M 764.244965 219.985847 
L 794.375065 219.985847 
L 794.375065 189.855747 
L 764.244965 189.855747 
z
" clip-path="url(#p2d6e0b18ad)" style="fill: #ffffff; stroke: #000000; stroke-width: 1.5; stroke-linejoin: miter"/>
   </g>
   <g id="patch_24">
    <path d="M 764.244965 498.109843 
L 794.375065 498.109843 
L 794.375065 467.979744 
L 764.244965 467.979744 
z
" clip-path="url(#p2d6e0b18ad)" style="fill: #ffffff; stroke: #000000; stroke-width: 1.5; stroke-linejoin: miter"/>
   </g>
   <g id="patch_25">
    <path d="M 764.244965 266.339846 
L 794.375065 266.339846 
L 794.375065 236.209747 
L 764.244965 236.209747 
z
" clip-path="url(#p2d6e0b18ad)" style="fill: #ffffff; stroke: #000000; stroke-width: 1.5; stroke-linejoin: miter"/>
   </g>
   <g id="patch_26">
    <path d="M 825.664015 487.564309 
C 826.862604 487.564309 828.012264 487.088104 828.859794 486.240573 
C 829.707325 485.393043 830.18353 484.243383 830.18353 483.044794 
C 830.18353 481.846204 829.707325 480.696545 828.859794 479.849014 
C 828.012264 479.001483 826.862604 478.525279 825.664015 478.525279 
C 824.465425 478.525279 823.315766 479.001483 822.468235 479.849014 
C 821.620704 480.696545 821.1445 481.846204 821.1445 483.044794 
C 821.1445 484.243383 821.620704 485.393043 822.468235 486.240573 
C 823.315766 487.088104 824.465425 487.564309 825.664015 487.564309 
z
" clip-path="url(#p2d6e0b18ad)" style="stroke: #000000; stroke-width: 1.5; stroke-linejoin: miter"/>
   </g>
   <g id="patch_27">
    <path d="M 825.664015 400.88233 
C 828.460723 400.88233 831.143262 399.771186 833.120834 397.793614 
C 835.098405 395.816042 836.209549 393.133503 836.209549 390.336795 
C 836.209549 387.540086 835.098405 384.857547 833.120834 382.879976 
C 831.143262 380.902404 828.460723 379.79126 825.664015 379.79126 
C 822.867306 379.79126 820.184767 380.902404 818.207195 382.879976 
C 816.229624 384.857547 815.11848 387.540086 815.11848 390.336795 
C 815.11848 393.133503 816.229624 395.816042 818.207195 397.793614 
C 820.184767 399.771186 822.867306 400.88233 825.664015 400.88233 
z
" clip-path="url(#p2d6e0b18ad)" style="stroke: #000000; stroke-width: 2; stroke-linejoin: miter"/>
   </g>
   <g id="patch_28">
    <path d="M 810.598965 266.339846 
L 840.729064 266.339846 
L 840.729064 236.209747 
L 810.598965 236.209747 
z
" clip-path="url(#p2d6e0b18ad)" style="fill: #ffffff; stroke: #000000; stroke-width: 1.5; stroke-linejoin: miter"/>
   </g>
   <g id="patch_29">
    <path d="M 872.018014 441.210309 
C 873.216603 441.210309 874.366263 440.734105 875.213794 439.886574 
C 876.061324 439.039043 876.537529 437.889384 876.537529 436.690794 
C 876.537529 435.492205 876.061324 434.342545 875.213794 433.495015 
C 874.366263 432.647484 873.216603 432.171279 872.018014 432.171279 
C 870.819425 432.171279 869.669765 432.647484 868.822234 433.495015 
C 867.974704 434.342545 867.498499 435.492205 867.498499 436.690794 
C 867.498499 437.889384 867.974704 439.039043 868.822234 439.886574 
C 869.669765 440.734105 870.819425 441.210309 872.018014 441.210309 
z
" clip-path="url(#p2d6e0b18ad)" style="stroke: #000000; stroke-width: 1.5; stroke-linejoin: miter"/>
   </g>
   <g id="patch_30">
    <path d="M 872.018014 215.466332 
C 874.814723 215.466332 877.497262 214.355188 879.474833 212.377616 
C 881.452405 210.400045 882.563549 207.717506 882.563549 204.920797 
C 882.563549 202.124089 881.452405 199.44155 879.474833 197.463978 
C 877.497262 195.486406 874.814723 194.375262 872.018014 194.375262 
C 869.221305 194.375262 866.538766 195.486406 864.561195 197.463978 
C 862.583623 199.44155 861.472479 202.124089 861.472479 204.920797 
C 861.472479 207.717506 862.583623 210.400045 864.561195 212.377616 
C 866.538766 214.355188 869.221305 215.466332 872.018014 215.466332 
z
" clip-path="url(#p2d6e0b18ad)" style="stroke: #000000; stroke-width: 2; stroke-linejoin: miter"/>
   </g>
   <g id="patch_31">
    <path d="M 918.372013 533.918308 
C 919.570603 533.918308 920.720262 533.442103 921.567793 532.594573 
C 922.415324 531.747042 922.891528 530.597382 922.891528 529.398793 
C 922.891528 528.200204 922.415324 527.050544 921.567793 526.203013 
C 920.720262 525.355483 919.570603 524.879278 918.372013 524.879278 
C 917.173424 524.879278 916.023764 525.355483 915.176234 526.203013 
C 914.328703 527.050544 913.852498 528.200204 913.852498 529.398793 
C 913.852498 530.597382 914.328703 531.747042 915.176234 532.594573 
C 916.023764 533.442103 917.173424 533.918308 918.372013 533.918308 
z
" clip-path="url(#p2d6e0b18ad)" style="stroke: #000000; stroke-width: 1.5; stroke-linejoin: miter"/>
   </g>
   <g id="patch_32">
    <path d="M 918.372013 400.88233 
C 921.168722 400.88233 923.851261 399.771186 925.828833 397.793614 
C 927.806404 395.816042 928.917548 393.133503 928.917548 390.336795 
C 928.917548 387.540086 927.806404 384.857547 925.828833 382.879976 
C 923.851261 380.902404 921.168722 379.79126 918.372013 379.79126 
C 915.575305 379.79126 912.892766 380.902404 910.915194 382.879976 
C 908.937623 384.857547 907.826479 387.540086 907.826479 390.336795 
C 907.826479 393.133503 908.937623 395.816042 910.915194 397.793614 
C 912.892766 399.771186 915.575305 400.88233 918.372013 400.88233 
z
" clip-path="url(#p2d6e0b18ad)" style="stroke: #000000; stroke-width: 2; stroke-linejoin: miter"/>
   </g>
   <g id="patch_33">
    <path d="M 946.951572 405.401845 
L 982.500454 405.401845 
L 982.500454 375.271745 
L 946.951572 375.271745 
z
" clip-path="url(#p2d6e0b18ad)" style="fill: #ffffff; stroke: #000000; stroke-width: 1.5; stroke-linejoin: miter"/>
   </g>
   <g id="patch_34">
    <path d="M 1011.080012 533.918308 
C 1012.278602 533.918308 1013.428261 533.442103 1014.275792 532.594573 
C 1015.123323 531.747042 1015.599527 530.597382 1015.599527 529.398793 
C 1015.599527 528.200204 1015.123323 527.050544 1014.275792 526.203013 
C 1013.428261 525.355483 1012.278602 524.879278 1011.080012 524.879278 
C 1009.881423 524.879278 1008.731763 525.355483 1007.884233 526.203013 
C 1007.036702 527.050544 1006.560497 528.200204 1006.560497 529.398793 
C 1006.560497 530.597382 1007.036702 531.747042 1007.884233 532.594573 
C 1008.731763 533.442103 1009.881423 533.918308 1011.080012 533.918308 
z
" clip-path="url(#p2d6e0b18ad)" style="stroke: #000000; stroke-width: 1.5; stroke-linejoin: miter"/>
   </g>
   <g id="patch_35">
    <path d="M 1011.080012 400.88233 
C 1013.876721 400.88233 1016.55926 399.771186 1018.536831 397.793614 
C 1020.514403 395.816042 1021.625547 393.133503 1021.625547 390.336795 
C 1021.625547 387.540086 1020.514403 384.857547 1018.536831 382.879976 
C 1016.55926 380.902404 1013.876721 379.79126 1011.080012 379.79126 
C 1008.283304 379.79126 1005.600765 380.902404 1003.623193 382.879976 
C 1001.645621 384.857547 1000.534477 387.540086 1000.534477 390.336795 
C 1000.534477 393.133503 1001.645621 395.816042 1003.623193 397.793614 
C 1005.600765 399.771186 1008.283304 400.88233 1011.080012 400.88233 
z
" clip-path="url(#p2d6e0b18ad)" style="stroke: #000000; stroke-width: 2; stroke-linejoin: miter"/>
   </g>
   <g id="patch_36">
    <path d="M 1042.368962 544.463843 
L 1072.499061 544.463843 
L 1072.499061 514.333743 
L 1042.368962 514.333743 
z
" clip-path="url(#p2d6e0b18ad)" style="fill: #ffffff; stroke: #000000; stroke-width: 1.5; stroke-linejoin: miter"/>
   </g>
   <g id="patch_37">
    <path d="M 1057.434012 487.564309 
C 1058.632601 487.564309 1059.782261 487.088104 1060.629791 486.240573 
C 1061.477322 485.393043 1061.953526 484.243383 1061.953526 483.044794 
C 1061.953526 481.846204 1061.477322 480.696545 1060.629791 479.849014 
C 1059.782261 479.001483 1058.632601 478.525279 1057.434012 478.525279 
C 1056.235422 478.525279 1055.085763 479.001483 1054.238232 479.849014 
C 1053.390701 480.696545 1052.914497 481.846204 1052.914497 483.044794 
C 1052.914497 484.243383 1053.390701 485.393043 1054.238232 486.240573 
C 1055.085763 487.088104 1056.235422 487.564309 1057.434012 487.564309 
z
" clip-path="url(#p2d6e0b18ad)" style="stroke: #000000; stroke-width: 1.5; stroke-linejoin: miter"/>
   </g>
   <g id="patch_38">
    <path d="M 1057.434012 400.88233 
C 1060.23072 400.88233 1062.913259 399.771186 1064.890831 397.793614 
C 1066.868402 395.816042 1067.979546 393.133503 1067.979546 390.336795 
C 1067.979546 387.540086 1066.868402 384.857547 1064.890831 382.879976 
C 1062.913259 380.902404 1060.23072 379.79126 1057.434012 379.79126 
C 1054.637303 379.79126 1051.954764 380.902404 1049.977192 382.879976 
C 1047.999621 384.857547 1046.888477 387.540086 1046.888477 390.336795 
C 1046.888477 393.133503 1047.999621 395.816042 1049.977192 397.793614 
C 1051.954764 399.771186 1054.637303 400.88233 1057.434012 400.88233 
z
" clip-path="url(#p2d6e0b18ad)" style="stroke: #000000; stroke-width: 2; stroke-linejoin: miter"/>
   </g>
   <g id="patch_39">
    <path d="M 1088.722961 498.109843 
L 1118.853061 498.109843 
L 1118.853061 467.979744 
L 1088.722961 467.979744 
z
" clip-path="url(#p2d6e0b18ad)" style="fill: #ffffff; stroke: #000000; stroke-width: 1.5; stroke-linejoin: miter"/>
   </g>
   <g id="patch_40">
    <path d="M 1103.788011 394.85631 
C 1104.9866 394.85631 1106.13626 394.380105 1106.983791 393.532574 
C 1107.831321 392.685044 1108.307526 391.535384 1108.307526 390.336795 
C 1108.307526 389.138205 1107.831321 387.988546 1106.983791 387.141015 
C 1106.13626 386.293484 1104.9866 385.81728 1103.788011 385.81728 
C 1102.589422 385.81728 1101.439762 386.293484 1100.592231 387.141015 
C 1099.744701 387.988546 1099.268496 389.138205 1099.268496 390.336795 
C 1099.268496 391.535384 1099.744701 392.685044 1100.592231 393.532574 
C 1101.439762 394.380105 1102.589422 394.85631 1103.788011 394.85631 
z
" clip-path="url(#p2d6e0b18ad)" style="stroke: #000000; stroke-width: 1.5; stroke-linejoin: miter"/>
   </g>
   <g id="patch_41">
    <path d="M 1103.788011 215.466332 
C 1106.584719 215.466332 1109.267259 214.355188 1111.24483 212.377616 
C 1113.222402 210.400045 1114.333546 207.717506 1114.333546 204.920797 
C 1114.333546 202.124089 1113.222402 199.44155 1111.24483 197.463978 
C 1109.267259 195.486406 1106.584719 194.375262 1103.788011 194.375262 
C 1100.991302 194.375262 1098.308763 195.486406 1096.331192 197.463978 
C 1094.35362 199.44155 1093.242476 202.124089 1093.242476 204.920797 
C 1093.242476 207.717506 1094.35362 210.400045 1096.331192 212.377616 
C 1098.308763 214.355188 1100.991302 215.466332 1103.788011 215.466332 
z
" clip-path="url(#p2d6e0b18ad)" style="stroke: #000000; stroke-width: 2; stroke-linejoin: miter"/>
   </g>
   <g id="patch_42">
    <path d="M 1150.14201 348.50231 
C 1151.3406 348.50231 1152.490259 348.026106 1153.33779 347.178575 
C 1154.185321 346.331044 1154.661525 345.181385 1154.661525 343.982795 
C 1154.661525 342.784206 1154.185321 341.634546 1153.33779 340.787016 
C 1152.490259 339.939485 1151.3406 339.46328 1150.14201 339.46328 
C 1148.943421 339.46328 1147.793761 339.939485 1146.946231 340.787016 
C 1146.0987 341.634546 1145.622495 342.784206 1145.622495 343.982795 
C 1145.622495 345.181385 1146.0987 346.331044 1146.946231 347.178575 
C 1147.793761 348.026106 1148.943421 348.50231 1150.14201 348.50231 
z
" clip-path="url(#p2d6e0b18ad)" style="stroke: #000000; stroke-width: 1.5; stroke-linejoin: miter"/>
   </g>
   <g id="patch_43">
    <path d="M 1150.14201 215.466332 
C 1152.938719 215.466332 1155.621258 214.355188 1157.59883 212.377616 
C 1159.576401 210.400045 1160.687545 207.717506 1160.687545 204.920797 
C 1160.687545 202.124089 1159.576401 199.44155 1157.59883 197.463978 
C 1155.621258 195.486406 1152.938719 194.375262 1150.14201 194.375262 
C 1147.345302 194.375262 1144.662763 195.486406 1142.685191 197.463978 
C 1140.70762 199.44155 1139.596475 202.124089 1139.596475 204.920797 
C 1139.596475 207.717506 1140.70762 210.400045 1142.685191 212.377616 
C 1144.662763 214.355188 1147.345302 215.466332 1150.14201 215.466332 
z
" clip-path="url(#p2d6e0b18ad)" style="stroke: #000000; stroke-width: 2; stroke-linejoin: miter"/>
   </g>
   <g id="patch_44">
    <path d="M 1196.49601 163.086313 
C 1197.694599 163.086313 1198.844259 162.610108 1199.691789 161.762578 
C 1200.53932 160.915047 1201.015525 159.765387 1201.015525 158.566798 
C 1201.015525 157.368209 1200.53932 156.218549 1199.691789 155.371018 
C 1198.844259 154.523488 1197.694599 154.047283 1196.49601 154.047283 
C 1195.29742 154.047283 1194.147761 154.523488 1193.30023 155.371018 
C 1192.452699 156.218549 1191.976495 157.368209 1191.976495 158.566798 
C 1191.976495 159.765387 1192.452699 160.915047 1193.30023 161.762578 
C 1194.147761 162.610108 1195.29742 163.086313 1196.49601 163.086313 
z
" clip-path="url(#p2d6e0b18ad)" style="stroke: #000000; stroke-width: 1.5; stroke-linejoin: miter"/>
   </g>
   <g id="patch_45">
    <path d="M 1196.49601 493.590328 
C 1199.292718 493.590328 1201.975257 492.479184 1203.952829 490.501613 
C 1205.9304 488.524041 1207.041545 485.841502 1207.041545 483.044794 
C 1207.041545 480.248085 1205.9304 477.565546 1203.952829 475.587974 
C 1201.975257 473.610403 1199.292718 472.499259 1196.49601 472.499259 
C 1193.699301 472.499259 1191.016762 473.610403 1189.03919 475.587974 
C 1187.061619 477.565546 1185.950475 480.248085 1185.950475 483.044794 
C 1185.950475 485.841502 1187.061619 488.524041 1189.03919 490.501613 
C 1191.016762 492.479184 1193.699301 493.590328 1196.49601 493.590328 
z
" clip-path="url(#p2d6e0b18ad)" style="stroke: #000000; stroke-width: 2; stroke-linejoin: miter"/>
   </g>
   <g id="patch_46">
    <path d="M 1242.850009 255.794312 
C 1244.048598 255.794312 1245.198258 255.318107 1246.045789 254.470576 
C 1246.893319 253.623046 1247.369524 252.473386 1247.369524 251.274797 
C 1247.369524 250.076207 1246.893319 248.926548 1246.045789 248.079017 
C 1245.198258 247.231486 1244.048598 246.755282 1242.850009 246.755282 
C 1241.65142 246.755282 1240.50176 247.231486 1239.654229 248.079017 
C 1238.806699 248.926548 1238.330494 250.076207 1238.330494 251.274797 
C 1238.330494 252.473386 1238.806699 253.623046 1239.654229 254.470576 
C 1240.50176 255.318107 1241.65142 255.794312 1242.850009 255.794312 
z
" clip-path="url(#p2d6e0b18ad)" style="stroke: #000000; stroke-width: 1.5; stroke-linejoin: miter"/>
   </g>
   <g id="patch_47">
    <path d="M 1242.850009 215.466332 
C 1245.646718 215.466332 1248.329257 214.355188 1250.306828 212.377616 
C 1252.2844 210.400045 1253.395544 207.717506 1253.395544 204.920797 
C 1253.395544 202.124089 1252.2844 199.44155 1250.306828 197.463978 
C 1248.329257 195.486406 1245.646718 194.375262 1242.850009 194.375262 
C 1240.053301 194.375262 1237.370761 195.486406 1235.39319 197.463978 
C 1233.415618 199.44155 1232.304474 202.124089 1232.304474 204.920797 
C 1232.304474 207.717506 1233.415618 210.400045 1235.39319 212.377616 
C 1237.370761 214.355188 1240.053301 215.466332 1242.850009 215.466332 
z
" clip-path="url(#p2d6e0b18ad)" style="stroke: #000000; stroke-width: 2; stroke-linejoin: miter"/>
   </g>
   <g id="patch_48">
    <path d="M 1227.784959 498.109843 
L 1257.915059 498.109843 
L 1257.915059 467.979744 
L 1227.784959 467.979744 
z
" clip-path="url(#p2d6e0b18ad)" style="fill: #ffffff; stroke: #000000; stroke-width: 1.5; stroke-linejoin: miter"/>
   </g>
   <g id="patch_49">
    <path d="M 1267.906663 219.985847 
L 1310.501353 219.985847 
L 1310.501353 189.855747 
L 1267.906663 189.855747 
z
" clip-path="url(#p2d6e0b18ad)" style="fill: #ffffff; stroke: #000000; stroke-width: 1.5; stroke-linejoin: miter"/>
   </g>
   <g id="patch_50">
    <path d="M 1335.558008 163.086313 
C 1336.756597 163.086313 1337.906257 162.610108 1338.753788 161.762578 
C 1339.601318 160.915047 1340.077523 159.765387 1340.077523 158.566798 
C 1340.077523 157.368209 1339.601318 156.218549 1338.753788 155.371018 
C 1337.906257 154.523488 1336.756597 154.047283 1335.558008 154.047283 
C 1334.359418 154.047283 1333.209759 154.523488 1332.362228 155.371018 
C 1331.514698 156.218549 1331.038493 157.368209 1331.038493 158.566798 
C 1331.038493 159.765387 1331.514698 160.915047 1332.362228 161.762578 
C 1333.209759 162.610108 1334.359418 163.086313 1335.558008 163.086313 
z
" clip-path="url(#p2d6e0b18ad)" style="stroke: #000000; stroke-width: 1.5; stroke-linejoin: miter"/>
   </g>
   <g id="patch_51">
    <path d="M 1335.558008 493.590328 
C 1338.354716 493.590328 1341.037255 492.479184 1343.014827 490.501613 
C 1344.992399 488.524041 1346.103543 485.841502 1346.103543 483.044794 
C 1346.103543 480.248085 1344.992399 477.565546 1343.014827 475.587974 
C 1341.037255 473.610403 1338.354716 472.499259 1335.558008 472.499259 
C 1332.761299 472.499259 1330.07876 473.610403 1328.101189 475.587974 
C 1326.123617 477.565546 1325.012473 480.248085 1325.012473 483.044794 
C 1325.012473 485.841502 1326.123617 488.524041 1328.101189 490.501613 
C 1330.07876 492.479184 1332.761299 493.590328 1335.558008 493.590328 
z
" clip-path="url(#p2d6e0b18ad)" style="stroke: #000000; stroke-width: 2; stroke-linejoin: miter"/>
   </g>
   <g id="patch_52">
    <path d="M 1381.912007 255.794312 
C 1383.110597 255.794312 1384.260256 255.318107 1385.107787 254.470576 
C 1385.955318 253.623046 1386.431522 252.473386 1386.431522 251.274797 
C 1386.431522 250.076207 1385.955318 248.926548 1385.107787 248.079017 
C 1384.260256 247.231486 1383.110597 246.755282 1381.912007 246.755282 
C 1380.713418 246.755282 1379.563758 247.231486 1378.716228 248.079017 
C 1377.868697 248.926548 1377.392492 250.076207 1377.392492 251.274797 
C 1377.392492 252.473386 1377.868697 253.623046 1378.716228 254.470576 
C 1379.563758 255.318107 1380.713418 255.794312 1381.912007 255.794312 
z
" clip-path="url(#p2d6e0b18ad)" style="stroke: #000000; stroke-width: 1.5; stroke-linejoin: miter"/>
   </g>
   <g id="patch_53">
    <path d="M 1381.912007 215.466332 
C 1384.708716 215.466332 1387.391255 214.355188 1389.368826 212.377616 
C 1391.346398 210.400045 1392.457542 207.717506 1392.457542 204.920797 
C 1392.457542 202.124089 1391.346398 199.44155 1389.368826 197.463978 
C 1387.391255 195.486406 1384.708716 194.375262 1381.912007 194.375262 
C 1379.115299 194.375262 1376.43276 195.486406 1374.455188 197.463978 
C 1372.477616 199.44155 1371.366472 202.124089 1371.366472 204.920797 
C 1371.366472 207.717506 1372.477616 210.400045 1374.455188 212.377616 
C 1376.43276 214.355188 1379.115299 215.466332 1381.912007 215.466332 
z
" clip-path="url(#p2d6e0b18ad)" style="stroke: #000000; stroke-width: 2; stroke-linejoin: miter"/>
   </g>
   <g id="patch_54">
    <path d="M 1413.200957 266.339846 
L 1443.331056 266.339846 
L 1443.331056 236.209747 
L 1413.200957 236.209747 
z
" clip-path="url(#p2d6e0b18ad)" style="fill: #ffffff; stroke: #000000; stroke-width: 1.5; stroke-linejoin: miter"/>
   </g>
   <g id="patch_55">
    <path d="M 1474.620006 348.50231 
C 1475.818595 348.50231 1476.968255 348.026106 1477.815786 347.178575 
C 1478.663316 346.331044 1479.139521 345.181385 1479.139521 343.982795 
C 1479.139521 342.784206 1478.663316 341.634546 1477.815786 340.787016 
C 1476.968255 339.939485 1475.818595 339.46328 1474.620006 339.46328 
C 1473.421417 339.46328 1472.271757 339.939485 1471.424226 340.787016 
C 1470.576696 341.634546 1470.100491 342.784206 1470.100491 343.982795 
C 1470.100491 345.181385 1470.576696 346.331044 1471.424226 347.178575 
C 1472.271757 348.026106 1473.421417 348.50231 1474.620006 348.50231 
z
" clip-path="url(#p2d6e0b18ad)" style="stroke: #000000; stroke-width: 1.5; stroke-linejoin: miter"/>
   </g>
   <g id="patch_56">
    <path d="M 1474.620006 215.466332 
C 1477.416715 215.466332 1480.099254 214.355188 1482.076825 212.377616 
C 1484.054397 210.400045 1485.165541 207.717506 1485.165541 204.920797 
C 1485.165541 202.124089 1484.054397 199.44155 1482.076825 197.463978 
C 1480.099254 195.486406 1477.416715 194.375262 1474.620006 194.375262 
C 1471.823297 194.375262 1469.140758 195.486406 1467.163187 197.463978 
C 1465.185615 199.44155 1464.074471 202.124089 1464.074471 204.920797 
C 1464.074471 207.717506 1465.185615 210.400045 1467.163187 212.377616 
C 1469.140758 214.355188 1471.823297 215.466332 1474.620006 215.466332 
z
" clip-path="url(#p2d6e0b18ad)" style="stroke: #000000; stroke-width: 2; stroke-linejoin: miter"/>
   </g>
   <g id="patch_57">
    <path d="M 1505.908956 266.339846 
L 1536.039055 266.339846 
L 1536.039055 236.209747 
L 1505.908956 236.209747 
z
" clip-path="url(#p2d6e0b18ad)" style="fill: #ffffff; stroke: #000000; stroke-width: 1.5; stroke-linejoin: miter"/>
   </g>
   <g id="patch_58">
    <path d="M 1505.908956 359.047845 
L 1536.039055 359.047845 
L 1536.039055 328.917746 
L 1505.908956 328.917746 
z
" clip-path="url(#p2d6e0b18ad)" style="fill: #ffffff; stroke: #000000; stroke-width: 1.5; stroke-linejoin: miter"/>
   </g>
   <g id="patch_59">
    <path d="M 1567.328005 394.85631 
C 1568.526594 394.85631 1569.676254 394.380105 1570.523784 393.532574 
C 1571.371315 392.685044 1571.84752 391.535384 1571.84752 390.336795 
C 1571.84752 389.138205 1571.371315 387.988546 1570.523784 387.141015 
C 1569.676254 386.293484 1568.526594 385.81728 1567.328005 385.81728 
C 1566.129415 385.81728 1564.979756 386.293484 1564.132225 387.141015 
C 1563.284694 387.988546 1562.80849 389.138205 1562.80849 390.336795 
C 1562.80849 391.535384 1563.284694 392.685044 1564.132225 393.532574 
C 1564.979756 394.380105 1566.129415 394.85631 1567.328005 394.85631 
z
" clip-path="url(#p2d6e0b18ad)" style="stroke: #000000; stroke-width: 1.5; stroke-linejoin: miter"/>
   </g>
   <g id="patch_60">
    <path d="M 1567.328005 215.466332 
C 1570.124713 215.466332 1572.807252 214.355188 1574.784824 212.377616 
C 1576.762396 210.400045 1577.87354 207.717506 1577.87354 204.920797 
C 1577.87354 202.124089 1576.762396 199.44155 1574.784824 197.463978 
C 1572.807252 195.486406 1570.124713 194.375262 1567.328005 194.375262 
C 1564.531296 194.375262 1561.848757 195.486406 1559.871186 197.463978 
C 1557.893614 199.44155 1556.78247 202.124089 1556.78247 204.920797 
C 1556.78247 207.717506 1557.893614 210.400045 1559.871186 212.377616 
C 1561.848757 214.355188 1564.531296 215.466332 1567.328005 215.466332 
z
" clip-path="url(#p2d6e0b18ad)" style="stroke: #000000; stroke-width: 2; stroke-linejoin: miter"/>
   </g>
   <g id="patch_61">
    <path d="M 1613.682004 441.210309 
C 1614.880594 441.210309 1616.030253 440.734105 1616.877784 439.886574 
C 1617.725314 439.039043 1618.201519 437.889384 1618.201519 436.690794 
C 1618.201519 435.492205 1617.725314 434.342545 1616.877784 433.495015 
C 1616.030253 432.647484 1614.880594 432.171279 1613.682004 432.171279 
C 1612.483415 432.171279 1611.333755 432.647484 1610.486224 433.495015 
C 1609.638694 434.342545 1609.162489 435.492205 1609.162489 436.690794 
C 1609.162489 437.889384 1609.638694 439.039043 1610.486224 439.886574 
C 1611.333755 440.734105 1612.483415 441.210309 1613.682004 441.210309 
z
" clip-path="url(#p2d6e0b18ad)" style="stroke: #000000; stroke-width: 1.5; stroke-linejoin: miter"/>
   </g>
   <g id="patch_62">
    <path d="M 1613.682004 215.466332 
C 1616.478713 215.466332 1619.161252 214.355188 1621.138823 212.377616 
C 1623.116395 210.400045 1624.227539 207.717506 1624.227539 204.920797 
C 1624.227539 202.124089 1623.116395 199.44155 1621.138823 197.463978 
C 1619.161252 195.486406 1616.478713 194.375262 1613.682004 194.375262 
C 1610.885296 194.375262 1608.202757 195.486406 1606.225185 197.463978 
C 1604.247613 199.44155 1603.136469 202.124089 1603.136469 204.920797 
C 1603.136469 207.717506 1604.247613 210.400045 1606.225185 212.377616 
C 1608.202757 214.355188 1610.885296 215.466332 1613.682004 215.466332 
z
" clip-path="url(#p2d6e0b18ad)" style="stroke: #000000; stroke-width: 2; stroke-linejoin: miter"/>
   </g>
   <g id="patch_63">
    <path d="M 1644.970954 266.339846 
L 1675.101053 266.339846 
L 1675.101053 236.209747 
L 1644.970954 236.209747 
z
" clip-path="url(#p2d6e0b18ad)" style="fill: #ffffff; stroke: #000000; stroke-width: 1.5; stroke-linejoin: miter"/>
   </g>
   <g id="patch_64">
    <path d="M 1644.970954 451.755844 
L 1675.101053 451.755844 
L 1675.101053 421.625744 
L 1644.970954 421.625744 
z
" clip-path="url(#p2d6e0b18ad)" style="fill: #ffffff; stroke: #000000; stroke-width: 1.5; stroke-linejoin: miter"/>
   </g>
   <g id="patch_65">
    <path d="M 1706.390003 209.440312 
C 1707.588592 209.440312 1708.738252 208.964108 1709.585783 208.116577 
C 1710.433313 207.269046 1710.909518 206.119387 1710.909518 204.920797 
C 1710.909518 203.722208 1710.433313 202.572548 1709.585783 201.725018 
C 1708.738252 200.877487 1707.588592 200.401282 1706.390003 200.401282 
C 1705.191414 200.401282 1704.041754 200.877487 1703.194223 201.725018 
C 1702.346693 202.572548 1701.870488 203.722208 1701.870488 204.920797 
C 1701.870488 206.119387 1702.346693 207.269046 1703.194223 208.116577 
C 1704.041754 208.964108 1705.191414 209.440312 1706.390003 209.440312 
z
" clip-path="url(#p2d6e0b18ad)" style="stroke: #000000; stroke-width: 1.5; stroke-linejoin: miter"/>
   </g>
   <g id="patch_66">
    <path d="M 1706.390003 308.174331 
C 1709.186711 308.174331 1711.869251 307.063187 1713.846822 305.085615 
C 1715.824394 303.108044 1716.935538 300.425505 1716.935538 297.628796 
C 1716.935538 294.832088 1715.824394 292.149548 1713.846822 290.171977 
C 1711.869251 288.194405 1709.186711 287.083261 1706.390003 287.083261 
C 1703.593294 287.083261 1700.910755 288.194405 1698.933184 290.171977 
C 1696.955612 292.149548 1695.844468 294.832088 1695.844468 297.628796 
C 1695.844468 300.425505 1696.955612 303.108044 1698.933184 305.085615 
C 1700.910755 307.063187 1703.593294 308.174331 1706.390003 308.174331 
z
" clip-path="url(#p2d6e0b18ad)" style="stroke: #000000; stroke-width: 2; stroke-linejoin: miter"/>
   </g>
   <g id="patch_67">
    <path d="M 1752.744002 255.794312 
C 1753.942592 255.794312 1755.092251 255.318107 1755.939782 254.470576 
C 1756.787313 253.623046 1757.263517 252.473386 1757.263517 251.274797 
C 1757.263517 250.076207 1756.787313 248.926548 1755.939782 248.079017 
C 1755.092251 247.231486 1753.942592 246.755282 1752.744002 246.755282 
C 1751.545413 246.755282 1750.395753 247.231486 1749.548223 248.079017 
C 1748.700692 248.926548 1748.224487 250.076207 1748.224487 251.274797 
C 1748.224487 252.473386 1748.700692 253.623046 1749.548223 254.470576 
C 1750.395753 255.318107 1751.545413 255.794312 1752.744002 255.794312 
z
" clip-path="url(#p2d6e0b18ad)" style="stroke: #000000; stroke-width: 1.5; stroke-linejoin: miter"/>
   </g>
   <g id="patch_68">
    <path d="M 1752.744002 308.174331 
C 1755.540711 308.174331 1758.22325 307.063187 1760.200822 305.085615 
C 1762.178393 303.108044 1763.289537 300.425505 1763.289537 297.628796 
C 1763.289537 294.832088 1762.178393 292.149548 1760.200822 290.171977 
C 1758.22325 288.194405 1755.540711 287.083261 1752.744002 287.083261 
C 1749.947294 287.083261 1747.264755 288.194405 1745.287183 290.171977 
C 1743.309612 292.149548 1742.198467 294.832088 1742.198467 297.628796 
C 1742.198467 300.425505 1743.309612 303.108044 1745.287183 305.085615 
C 1747.264755 307.063187 1749.947294 308.174331 1752.744002 308.174331 
z
" clip-path="url(#p2d6e0b18ad)" style="stroke: #000000; stroke-width: 2; stroke-linejoin: miter"/>
   </g>
   <g id="patch_69">
    <path d="M 1781.323561 312.693846 
L 1816.872443 312.693846 
L 1816.872443 282.563746 
L 1781.323561 282.563746 
z
" clip-path="url(#p2d6e0b18ad)" style="fill: #ffffff; stroke: #000000; stroke-width: 1.5; stroke-linejoin: miter"/>
   </g>
   <g id="patch_70">
    <path d="M 1845.452001 255.794312 
C 1846.65059 255.794312 1847.80025 255.318107 1848.647781 254.470576 
C 1849.495311 253.623046 1849.971516 252.473386 1849.971516 251.274797 
C 1849.971516 250.076207 1849.495311 248.926548 1848.647781 248.079017 
C 1847.80025 247.231486 1846.65059 246.755282 1845.452001 246.755282 
C 1844.253412 246.755282 1843.103752 247.231486 1842.256221 248.079017 
C 1841.408691 248.926548 1840.932486 250.076207 1840.932486 251.274797 
C 1840.932486 252.473386 1841.408691 253.623046 1842.256221 254.470576 
C 1843.103752 255.318107 1844.253412 255.794312 1845.452001 255.794312 
z
" clip-path="url(#p2d6e0b18ad)" style="stroke: #000000; stroke-width: 1.5; stroke-linejoin: miter"/>
   </g>
   <g id="patch_71">
    <path d="M 1845.452001 308.174331 
C 1848.24871 308.174331 1850.931249 307.063187 1852.90882 305.085615 
C 1854.886392 303.108044 1855.997536 300.425505 1855.997536 297.628796 
C 1855.997536 294.832088 1854.886392 292.149548 1852.90882 290.171977 
C 1850.931249 288.194405 1848.24871 287.083261 1845.452001 287.083261 
C 1842.655293 287.083261 1839.972753 288.194405 1837.995182 290.171977 
C 1836.01761 292.149548 1834.906466 294.832088 1834.906466 297.628796 
C 1834.906466 300.425505 1836.01761 303.108044 1837.995182 305.085615 
C 1839.972753 307.063187 1842.655293 308.174331 1845.452001 308.174331 
z
" clip-path="url(#p2d6e0b18ad)" style="stroke: #000000; stroke-width: 2; stroke-linejoin: miter"/>
   </g>
   <g id="patch_72">
    <path d="M 1876.740951 266.339846 
L 1906.87105 266.339846 
L 1906.87105 236.209747 
L 1876.740951 236.209747 
z
" clip-path="url(#p2d6e0b18ad)" style="fill: #ffffff; stroke: #000000; stroke-width: 1.5; stroke-linejoin: miter"/>
   </g>
   <g id="patch_73">
    <path d="M 1938.16 209.440312 
C 1939.358589 209.440312 1940.508249 208.964108 1941.35578 208.116577 
C 1942.20331 207.269046 1942.679515 206.119387 1942.679515 204.920797 
C 1942.679515 203.722208 1942.20331 202.572548 1941.35578 201.725018 
C 1940.508249 200.877487 1939.358589 200.401282 1938.16 200.401282 
C 1936.96141 200.401282 1935.811751 200.877487 1934.96422 201.725018 
C 1934.11669 202.572548 1933.640485 203.722208 1933.640485 204.920797 
C 1933.640485 206.119387 1934.11669 207.269046 1934.96422 208.116577 
C 1935.811751 208.964108 1936.96141 209.440312 1938.16 209.440312 
z
" clip-path="url(#p2d6e0b18ad)" style="stroke: #000000; stroke-width: 1.5; stroke-linejoin: miter"/>
   </g>
   <g id="patch_74">
    <path d="M 1938.16 308.174331 
C 1940.956708 308.174331 1943.639247 307.063187 1945.616819 305.085615 
C 1947.594391 303.108044 1948.705535 300.425505 1948.705535 297.628796 
C 1948.705535 294.832088 1947.594391 292.149548 1945.616819 290.171977 
C 1943.639247 288.194405 1940.956708 287.083261 1938.16 287.083261 
C 1935.363291 287.083261 1932.680752 288.194405 1930.703181 290.171977 
C 1928.725609 292.149548 1927.614465 294.832088 1927.614465 297.628796 
C 1927.614465 300.425505 1928.725609 303.108044 1930.703181 305.085615 
C 1932.680752 307.063187 1935.363291 308.174331 1938.16 308.174331 
z
" clip-path="url(#p2d6e0b18ad)" style="stroke: #000000; stroke-width: 2; stroke-linejoin: miter"/>
   </g>
   <g id="text_2">
    <g clip-path="url(#p2d6e0b18ad)">
     <!-- ${q}_{0}$ -->
     <g transform="translate(309.784561 116.663775)scale(0.1625 -0.1625)">
      <defs>
       <path id="DejaVuSans-Oblique-71" d="M 2669 525 
Q 2438 222 2123 65 
Q 1809 -91 1428 -91 
Q 897 -91 595 267 
Q 294 625 294 1253 
Q 294 1759 480 2231 
Q 666 2703 1013 3078 
Q 1238 3322 1530 3453 
Q 1822 3584 2144 3584 
Q 2531 3584 2781 3431 
Q 3031 3278 3144 2969 
L 3244 3494 
L 3822 3494 
L 2888 -1319 
L 2309 -1319 
L 2669 525 
z
M 891 1338 
Q 891 875 1084 633 
Q 1278 391 1644 391 
Q 2188 391 2572 911 
Q 2956 1431 2956 2175 
Q 2956 2625 2757 2864 
Q 2559 3103 2188 3103 
Q 1916 3103 1684 2976 
Q 1453 2850 1281 2606 
Q 1100 2350 995 2006 
Q 891 1663 891 1338 
z
" transform="scale(0.015625)"/>
       <path id="DejaVuSans-30" d="M 2034 4250 
Q 1547 4250 1301 3770 
Q 1056 3291 1056 2328 
Q 1056 1369 1301 889 
Q 1547 409 2034 409 
Q 2525 409 2770 889 
Q 3016 1369 3016 2328 
Q 3016 3291 2770 3770 
Q 2525 4250 2034 4250 
z
M 2034 4750 
Q 2819 4750 3233 4129 
Q 3647 3509 3647 2328 
Q 3647 1150 3233 529 
Q 2819 -91 2034 -91 
Q 1250 -91 836 529 
Q 422 1150 422 2328 
Q 422 3509 836 4129 
Q 1250 4750 2034 4750 
z
" transform="scale(0.015625)"/>
      </defs>
      <use xlink:href="#DejaVuSans-Oblique-71"/>
      <use xlink:href="#DejaVuSans-30" transform="translate(63.476562 -16.40625)scale(0.7)"/>
     </g>
    </g>
   </g>
   <g id="text_3">
    <g clip-path="url(#p2d6e0b18ad)">
     <!-- ${q}_{1}$ -->
     <g transform="translate(309.784561 163.017774)scale(0.1625 -0.1625)">
      <defs>
       <path id="DejaVuSans-31" d="M 794 531 
L 1825 531 
L 1825 4091 
L 703 3866 
L 703 4441 
L 1819 4666 
L 2450 4666 
L 2450 531 
L 3481 531 
L 3481 0 
L 794 0 
L 794 531 
z
" transform="scale(0.015625)"/>
      </defs>
      <use xlink:href="#DejaVuSans-Oblique-71"/>
      <use xlink:href="#DejaVuSans-31" transform="translate(63.476562 -16.40625)scale(0.7)"/>
     </g>
    </g>
   </g>
   <g id="text_4">
    <g clip-path="url(#p2d6e0b18ad)">
     <!-- ${q}_{2}$ -->
     <g transform="translate(309.784561 209.371774)scale(0.1625 -0.1625)">
      <use xlink:href="#DejaVuSans-Oblique-71"/>
      <use xlink:href="#DejaVuSans-32" transform="translate(63.476562 -16.40625)scale(0.7)"/>
     </g>
    </g>
   </g>
   <g id="text_5">
    <g clip-path="url(#p2d6e0b18ad)">
     <!-- ${q}_{3}$ -->
     <g transform="translate(309.784561 255.725773)scale(0.1625 -0.1625)">
      <defs>
       <path id="DejaVuSans-33" d="M 2597 2516 
Q 3050 2419 3304 2112 
Q 3559 1806 3559 1356 
Q 3559 666 3084 287 
Q 2609 -91 1734 -91 
Q 1441 -91 1130 -33 
Q 819 25 488 141 
L 488 750 
Q 750 597 1062 519 
Q 1375 441 1716 441 
Q 2309 441 2620 675 
Q 2931 909 2931 1356 
Q 2931 1769 2642 2001 
Q 2353 2234 1838 2234 
L 1294 2234 
L 1294 2753 
L 1863 2753 
Q 2328 2753 2575 2939 
Q 2822 3125 2822 3475 
Q 2822 3834 2567 4026 
Q 2313 4219 1838 4219 
Q 1578 4219 1281 4162 
Q 984 4106 628 3988 
L 628 4550 
Q 988 4650 1302 4700 
Q 1616 4750 1894 4750 
Q 2613 4750 3031 4423 
Q 3450 4097 3450 3541 
Q 3450 3153 3228 2886 
Q 3006 2619 2597 2516 
z
" transform="scale(0.015625)"/>
      </defs>
      <use xlink:href="#DejaVuSans-Oblique-71"/>
      <use xlink:href="#DejaVuSans-33" transform="translate(63.476562 -16.40625)scale(0.7)"/>
     </g>
    </g>
   </g>
   <g id="text_6">
    <g clip-path="url(#p2d6e0b18ad)">
     <!-- ${q}_{4}$ -->
     <g transform="translate(309.784561 302.079773)scale(0.1625 -0.1625)">
      <defs>
       <path id="DejaVuSans-34" d="M 2419 4116 
L 825 1625 
L 2419 1625 
L 2419 4116 
z
M 2253 4666 
L 3047 4666 
L 3047 1625 
L 3713 1625 
L 3713 1100 
L 3047 1100 
L 3047 0 
L 2419 0 
L 2419 1100 
L 313 1100 
L 313 1709 
L 2253 4666 
z
" transform="scale(0.015625)"/>
      </defs>
      <use xlink:href="#DejaVuSans-Oblique-71"/>
      <use xlink:href="#DejaVuSans-34" transform="translate(63.476562 -16.40625)scale(0.7)"/>
     </g>
    </g>
   </g>
   <g id="text_7">
    <g clip-path="url(#p2d6e0b18ad)">
     <!-- ${q}_{5}$ -->
     <g transform="translate(309.784561 348.433772)scale(0.1625 -0.1625)">
      <defs>
       <path id="DejaVuSans-35" d="M 691 4666 
L 3169 4666 
L 3169 4134 
L 1269 4134 
L 1269 2991 
Q 1406 3038 1543 3061 
Q 1681 3084 1819 3084 
Q 2600 3084 3056 2656 
Q 3513 2228 3513 1497 
Q 3513 744 3044 326 
Q 2575 -91 1722 -91 
Q 1428 -91 1123 -41 
Q 819 9 494 109 
L 494 744 
Q 775 591 1075 516 
Q 1375 441 1709 441 
Q 2250 441 2565 725 
Q 2881 1009 2881 1497 
Q 2881 1984 2565 2268 
Q 2250 2553 1709 2553 
Q 1456 2553 1204 2497 
Q 953 2441 691 2322 
L 691 4666 
z
" transform="scale(0.015625)"/>
      </defs>
      <use xlink:href="#DejaVuSans-Oblique-71"/>
      <use xlink:href="#DejaVuSans-35" transform="translate(63.476562 -16.40625)scale(0.7)"/>
     </g>
    </g>
   </g>
   <g id="text_8">
    <g clip-path="url(#p2d6e0b18ad)">
     <!-- ${q}_{6}$ -->
     <g transform="translate(309.784561 394.787771)scale(0.1625 -0.1625)">
      <defs>
       <path id="DejaVuSans-36" d="M 2113 2584 
Q 1688 2584 1439 2293 
Q 1191 2003 1191 1497 
Q 1191 994 1439 701 
Q 1688 409 2113 409 
Q 2538 409 2786 701 
Q 3034 994 3034 1497 
Q 3034 2003 2786 2293 
Q 2538 2584 2113 2584 
z
M 3366 4563 
L 3366 3988 
Q 3128 4100 2886 4159 
Q 2644 4219 2406 4219 
Q 1781 4219 1451 3797 
Q 1122 3375 1075 2522 
Q 1259 2794 1537 2939 
Q 1816 3084 2150 3084 
Q 2853 3084 3261 2657 
Q 3669 2231 3669 1497 
Q 3669 778 3244 343 
Q 2819 -91 2113 -91 
Q 1303 -91 875 529 
Q 447 1150 447 2328 
Q 447 3434 972 4092 
Q 1497 4750 2381 4750 
Q 2619 4750 2861 4703 
Q 3103 4656 3366 4563 
z
" transform="scale(0.015625)"/>
      </defs>
      <use xlink:href="#DejaVuSans-Oblique-71"/>
      <use xlink:href="#DejaVuSans-36" transform="translate(63.476562 -16.40625)scale(0.7)"/>
     </g>
    </g>
   </g>
   <g id="text_9">
    <g clip-path="url(#p2d6e0b18ad)">
     <!-- ${q}_{7}$ -->
     <g transform="translate(309.784561 441.141771)scale(0.1625 -0.1625)">
      <use xlink:href="#DejaVuSans-Oblique-71"/>
      <use xlink:href="#DejaVuSans-37" transform="translate(63.476562 -16.40625)scale(0.7)"/>
     </g>
    </g>
   </g>
   <g id="text_10">
    <g clip-path="url(#p2d6e0b18ad)">
     <!-- ${q}_{8}$ -->
     <g transform="translate(309.784561 487.49577)scale(0.1625 -0.1625)">
      <use xlink:href="#DejaVuSans-Oblique-71"/>
      <use xlink:href="#DejaVuSans-38" transform="translate(63.476562 -16.40625)scale(0.7)"/>
     </g>
    </g>
   </g>
   <g id="text_11">
    <g clip-path="url(#p2d6e0b18ad)">
     <!-- ${q}_{9}$ -->
     <g transform="translate(309.784561 533.84977)scale(0.1625 -0.1625)">
      <defs>
       <path id="DejaVuSans-39" d="M 703 97 
L 703 672 
Q 941 559 1184 500 
Q 1428 441 1663 441 
Q 2288 441 2617 861 
Q 2947 1281 2994 2138 
Q 2813 1869 2534 1725 
Q 2256 1581 1919 1581 
Q 1219 1581 811 2004 
Q 403 2428 403 3163 
Q 403 3881 828 4315 
Q 1253 4750 1959 4750 
Q 2769 4750 3195 4129 
Q 3622 3509 3622 2328 
Q 3622 1225 3098 567 
Q 2575 -91 1691 -91 
Q 1453 -91 1209 -44 
Q 966 3 703 97 
z
M 1959 2075 
Q 2384 2075 2632 2365 
Q 2881 2656 2881 3163 
Q 2881 3666 2632 3958 
Q 2384 4250 1959 4250 
Q 1534 4250 1286 3958 
Q 1038 3666 1038 3163 
Q 1038 2656 1286 2365 
Q 1534 2075 1959 2075 
z
" transform="scale(0.015625)"/>
      </defs>
      <use xlink:href="#DejaVuSans-Oblique-71"/>
      <use xlink:href="#DejaVuSans-39" transform="translate(63.476562 -16.40625)scale(0.7)"/>
     </g>
    </g>
   </g>
   <g id="text_12">
    <g clip-path="url(#p2d6e0b18ad)">
     <!-- H -->
     <g transform="translate(357.235818 208.507985)scale(0.13 -0.13)">
      <use xlink:href="#DejaVuSans-48"/>
     </g>
    </g>
   </g>
   <g id="text_13">
    <g clip-path="url(#p2d6e0b18ad)">
     <!-- H -->
     <g transform="translate(357.235818 254.861984)scale(0.13 -0.13)">
      <use xlink:href="#DejaVuSans-48"/>
     </g>
    </g>
   </g>
   <g id="text_14">
    <g clip-path="url(#p2d6e0b18ad)">
     <!-- H -->
     <g transform="translate(357.235818 440.277982)scale(0.13 -0.13)">
      <use xlink:href="#DejaVuSans-48"/>
     </g>
    </g>
   </g>
   <g id="text_15">
    <g clip-path="url(#p2d6e0b18ad)">
     <!-- $-$0.849 -->
     <g transform="translate(347.404021 401.583325)scale(0.08 -0.08)">
      <defs>
       <path id="DejaVuSans-2212" d="M 678 2272 
L 4684 2272 
L 4684 1741 
L 678 1741 
L 678 2272 
z
" transform="scale(0.015625)"/>
       <path id="DejaVuSans-2e" d="M 684 794 
L 1344 794 
L 1344 0 
L 684 0 
L 684 794 
z
" transform="scale(0.015625)"/>
      </defs>
      <use xlink:href="#DejaVuSans-2212" transform="translate(0 0.78125)"/>
      <use xlink:href="#DejaVuSans-30" transform="translate(83.789062 0.78125)"/>
      <use xlink:href="#DejaVuSans-2e" transform="translate(147.412109 0.78125)"/>
      <use xlink:href="#DejaVuSans-38" transform="translate(176.574219 0.78125)"/>
      <use xlink:href="#DejaVuSans-34" transform="translate(240.197266 0.78125)"/>
      <use xlink:href="#DejaVuSans-39" transform="translate(303.820312 0.78125)"/>
     </g>
    </g>
   </g>
   <g id="text_16">
    <g clip-path="url(#p2d6e0b18ad)">
     <!-- $\mathrm{R_Z}$ -->
     <g transform="translate(354.194021 389.404467)scale(0.13 -0.13)">
      <defs>
       <path id="DejaVuSans-5a" d="M 359 4666 
L 4025 4666 
L 4025 4184 
L 1075 531 
L 4097 531 
L 4097 0 
L 288 0 
L 288 481 
L 3238 4134 
L 359 4134 
L 359 4666 
z
" transform="scale(0.015625)"/>
      </defs>
      <use xlink:href="#DejaVuSans-52" transform="translate(0 0.09375)"/>
      <use xlink:href="#DejaVuSans-5a" transform="translate(70.439453 -16.3125)scale(0.7)"/>
     </g>
    </g>
   </g>
   <g id="text_17">
    <g clip-path="url(#p2d6e0b18ad)">
     <!-- H -->
     <g transform="translate(357.235818 532.98598)scale(0.13 -0.13)">
      <use xlink:href="#DejaVuSans-48"/>
     </g>
    </g>
   </g>
   <g id="text_18">
    <g clip-path="url(#p2d6e0b18ad)">
     <!-- H -->
     <g transform="translate(357.235818 347.569983)scale(0.13 -0.13)">
      <use xlink:href="#DejaVuSans-48"/>
     </g>
    </g>
   </g>
   <g id="line2d_35">
    <path d="M 408.47802 489.070814 
L 408.47802 477.018774 
" clip-path="url(#p2d6e0b18ad)" style="fill: none; stroke: #ffffff; stroke-width: 2; stroke-linecap: square"/>
   </g>
   <g id="line2d_36">
    <path d="M 402.452 483.044794 
L 414.50404 483.044794 
" clip-path="url(#p2d6e0b18ad)" style="fill: none; stroke: #ffffff; stroke-width: 2; stroke-linecap: square"/>
   </g>
   <g id="line2d_37">
    <path d="M 454.83202 489.070814 
L 454.83202 477.018774 
" clip-path="url(#p2d6e0b18ad)" style="fill: none; stroke: #ffffff; stroke-width: 2; stroke-linecap: square"/>
   </g>
   <g id="line2d_38">
    <path d="M 448.806 483.044794 
L 460.858039 483.044794 
" clip-path="url(#p2d6e0b18ad)" style="fill: none; stroke: #ffffff; stroke-width: 2; stroke-linecap: square"/>
   </g>
   <g id="line2d_39">
    <path d="M 501.186019 489.070814 
L 501.186019 477.018774 
" clip-path="url(#p2d6e0b18ad)" style="fill: none; stroke: #ffffff; stroke-width: 2; stroke-linecap: square"/>
   </g>
   <g id="line2d_40">
    <path d="M 495.159999 483.044794 
L 507.212039 483.044794 
" clip-path="url(#p2d6e0b18ad)" style="fill: none; stroke: #ffffff; stroke-width: 2; stroke-linecap: square"/>
   </g>
   <g id="text_19">
    <g clip-path="url(#p2d6e0b18ad)">
     <!-- 0.0207 -->
     <g transform="translate(533.543768 494.291323)scale(0.08 -0.08)">
      <use xlink:href="#DejaVuSans-30"/>
      <use xlink:href="#DejaVuSans-2e" x="63.623047"/>
      <use xlink:href="#DejaVuSans-30" x="95.410156"/>
      <use xlink:href="#DejaVuSans-32" x="159.033203"/>
      <use xlink:href="#DejaVuSans-30" x="222.65625"/>
      <use xlink:href="#DejaVuSans-37" x="286.279297"/>
     </g>
    </g>
   </g>
   <g id="text_20">
    <g clip-path="url(#p2d6e0b18ad)">
     <!-- $\mathrm{R_Z}$ -->
     <g transform="translate(539.610018 482.112466)scale(0.13 -0.13)">
      <use xlink:href="#DejaVuSans-52" transform="translate(0 0.09375)"/>
      <use xlink:href="#DejaVuSans-5a" transform="translate(70.439453 -16.3125)scale(0.7)"/>
     </g>
    </g>
   </g>
   <g id="line2d_41">
    <path d="M 593.894018 489.070814 
L 593.894018 477.018774 
" clip-path="url(#p2d6e0b18ad)" style="fill: none; stroke: #ffffff; stroke-width: 2; stroke-linecap: square"/>
   </g>
   <g id="line2d_42">
    <path d="M 587.867998 483.044794 
L 599.920038 483.044794 
" clip-path="url(#p2d6e0b18ad)" style="fill: none; stroke: #ffffff; stroke-width: 2; stroke-linecap: square"/>
   </g>
   <g id="line2d_43">
    <path d="M 640.248017 489.070814 
L 640.248017 477.018774 
" clip-path="url(#p2d6e0b18ad)" style="fill: none; stroke: #ffffff; stroke-width: 2; stroke-linecap: square"/>
   </g>
   <g id="line2d_44">
    <path d="M 634.221997 483.044794 
L 646.274037 483.044794 
" clip-path="url(#p2d6e0b18ad)" style="fill: none; stroke: #ffffff; stroke-width: 2; stroke-linecap: square"/>
   </g>
   <g id="text_21">
    <g clip-path="url(#p2d6e0b18ad)">
     <!-- H -->
     <g transform="translate(681.713813 440.277982)scale(0.13 -0.13)">
      <use xlink:href="#DejaVuSans-48"/>
     </g>
    </g>
   </g>
   <g id="text_22">
    <g clip-path="url(#p2d6e0b18ad)">
     <!-- H -->
     <g transform="translate(681.713813 254.861984)scale(0.13 -0.13)">
      <use xlink:href="#DejaVuSans-48"/>
     </g>
    </g>
   </g>
   <g id="line2d_45">
    <path d="M 732.956016 489.070814 
L 732.956016 477.018774 
" clip-path="url(#p2d6e0b18ad)" style="fill: none; stroke: #ffffff; stroke-width: 2; stroke-linecap: square"/>
   </g>
   <g id="line2d_46">
    <path d="M 726.929996 483.044794 
L 738.982036 483.044794 
" clip-path="url(#p2d6e0b18ad)" style="fill: none; stroke: #ffffff; stroke-width: 2; stroke-linecap: square"/>
   </g>
   <g id="text_23">
    <g clip-path="url(#p2d6e0b18ad)">
     <!-- H -->
     <g transform="translate(774.421812 208.507985)scale(0.13 -0.13)">
      <use xlink:href="#DejaVuSans-48"/>
     </g>
    </g>
   </g>
   <g id="text_24">
    <g clip-path="url(#p2d6e0b18ad)">
     <!-- H -->
     <g transform="translate(774.421812 486.631981)scale(0.13 -0.13)">
      <use xlink:href="#DejaVuSans-48"/>
     </g>
    </g>
   </g>
   <g id="text_25">
    <g clip-path="url(#p2d6e0b18ad)">
     <!-- S -->
     <g transform="translate(775.183531 254.861984)scale(0.13 -0.13)">
      <use xlink:href="#DejaVuSans-53"/>
     </g>
    </g>
   </g>
   <g id="line2d_47">
    <path d="M 825.664015 396.362815 
L 825.664015 384.310775 
" clip-path="url(#p2d6e0b18ad)" style="fill: none; stroke: #ffffff; stroke-width: 2; stroke-linecap: square"/>
   </g>
   <g id="line2d_48">
    <path d="M 819.637995 390.336795 
L 831.690035 390.336795 
" clip-path="url(#p2d6e0b18ad)" style="fill: none; stroke: #ffffff; stroke-width: 2; stroke-linecap: square"/>
   </g>
   <g id="text_26">
    <g clip-path="url(#p2d6e0b18ad)">
     <!-- H -->
     <g transform="translate(820.775812 254.861984)scale(0.13 -0.13)">
      <use xlink:href="#DejaVuSans-48"/>
     </g>
    </g>
   </g>
   <g id="line2d_49">
    <path d="M 872.018014 210.946817 
L 872.018014 198.894777 
" clip-path="url(#p2d6e0b18ad)" style="fill: none; stroke: #ffffff; stroke-width: 2; stroke-linecap: square"/>
   </g>
   <g id="line2d_50">
    <path d="M 865.991994 204.920797 
L 878.044034 204.920797 
" clip-path="url(#p2d6e0b18ad)" style="fill: none; stroke: #ffffff; stroke-width: 2; stroke-linecap: square"/>
   </g>
   <g id="line2d_51">
    <path d="M 918.372013 396.362815 
L 918.372013 384.310775 
" clip-path="url(#p2d6e0b18ad)" style="fill: none; stroke: #ffffff; stroke-width: 2; stroke-linecap: square"/>
   </g>
   <g id="line2d_52">
    <path d="M 912.345993 390.336795 
L 924.398033 390.336795 
" clip-path="url(#p2d6e0b18ad)" style="fill: none; stroke: #ffffff; stroke-width: 2; stroke-linecap: square"/>
   </g>
   <g id="text_27">
    <g clip-path="url(#p2d6e0b18ad)">
     <!-- 0.00724 -->
     <g transform="translate(948.184763 401.583325)scale(0.08 -0.08)">
      <use xlink:href="#DejaVuSans-30"/>
      <use xlink:href="#DejaVuSans-2e" x="63.623047"/>
      <use xlink:href="#DejaVuSans-30" x="95.410156"/>
      <use xlink:href="#DejaVuSans-30" x="159.033203"/>
      <use xlink:href="#DejaVuSans-37" x="222.65625"/>
      <use xlink:href="#DejaVuSans-32" x="286.279297"/>
      <use xlink:href="#DejaVuSans-34" x="349.902344"/>
     </g>
    </g>
   </g>
   <g id="text_28">
    <g clip-path="url(#p2d6e0b18ad)">
     <!-- $\mathrm{R_Z}$ -->
     <g transform="translate(956.796013 389.404467)scale(0.13 -0.13)">
      <use xlink:href="#DejaVuSans-52" transform="translate(0 0.09375)"/>
      <use xlink:href="#DejaVuSans-5a" transform="translate(70.439453 -16.3125)scale(0.7)"/>
     </g>
    </g>
   </g>
   <g id="line2d_53">
    <path d="M 1011.080012 396.362815 
L 1011.080012 384.310775 
" clip-path="url(#p2d6e0b18ad)" style="fill: none; stroke: #ffffff; stroke-width: 2; stroke-linecap: square"/>
   </g>
   <g id="line2d_54">
    <path d="M 1005.053992 390.336795 
L 1017.106032 390.336795 
" clip-path="url(#p2d6e0b18ad)" style="fill: none; stroke: #ffffff; stroke-width: 2; stroke-linecap: square"/>
   </g>
   <g id="text_29">
    <g clip-path="url(#p2d6e0b18ad)">
     <!-- H -->
     <g transform="translate(1052.545808 532.98598)scale(0.13 -0.13)">
      <use xlink:href="#DejaVuSans-48"/>
     </g>
    </g>
   </g>
   <g id="line2d_55">
    <path d="M 1057.434012 396.362815 
L 1057.434012 384.310775 
" clip-path="url(#p2d6e0b18ad)" style="fill: none; stroke: #ffffff; stroke-width: 2; stroke-linecap: square"/>
   </g>
   <g id="line2d_56">
    <path d="M 1051.407992 390.336795 
L 1063.460031 390.336795 
" clip-path="url(#p2d6e0b18ad)" style="fill: none; stroke: #ffffff; stroke-width: 2; stroke-linecap: square"/>
   </g>
   <g id="text_30">
    <g clip-path="url(#p2d6e0b18ad)">
     <!-- H -->
     <g transform="translate(1098.899808 486.631981)scale(0.13 -0.13)">
      <use xlink:href="#DejaVuSans-48"/>
     </g>
    </g>
   </g>
   <g id="line2d_57">
    <path d="M 1103.788011 210.946817 
L 1103.788011 198.894777 
" clip-path="url(#p2d6e0b18ad)" style="fill: none; stroke: #ffffff; stroke-width: 2; stroke-linecap: square"/>
   </g>
   <g id="line2d_58">
    <path d="M 1097.761991 204.920797 
L 1109.814031 204.920797 
" clip-path="url(#p2d6e0b18ad)" style="fill: none; stroke: #ffffff; stroke-width: 2; stroke-linecap: square"/>
   </g>
   <g id="line2d_59">
    <path d="M 1150.14201 210.946817 
L 1150.14201 198.894777 
" clip-path="url(#p2d6e0b18ad)" style="fill: none; stroke: #ffffff; stroke-width: 2; stroke-linecap: square"/>
   </g>
   <g id="line2d_60">
    <path d="M 1144.11599 204.920797 
L 1156.16803 204.920797 
" clip-path="url(#p2d6e0b18ad)" style="fill: none; stroke: #ffffff; stroke-width: 2; stroke-linecap: square"/>
   </g>
   <g id="line2d_61">
    <path d="M 1196.49601 489.070814 
L 1196.49601 477.018774 
" clip-path="url(#p2d6e0b18ad)" style="fill: none; stroke: #ffffff; stroke-width: 2; stroke-linecap: square"/>
   </g>
   <g id="line2d_62">
    <path d="M 1190.46999 483.044794 
L 1202.52203 483.044794 
" clip-path="url(#p2d6e0b18ad)" style="fill: none; stroke: #ffffff; stroke-width: 2; stroke-linecap: square"/>
   </g>
   <g id="line2d_63">
    <path d="M 1242.850009 210.946817 
L 1242.850009 198.894777 
" clip-path="url(#p2d6e0b18ad)" style="fill: none; stroke: #ffffff; stroke-width: 2; stroke-linecap: square"/>
   </g>
   <g id="line2d_64">
    <path d="M 1236.823989 204.920797 
L 1248.876029 204.920797 
" clip-path="url(#p2d6e0b18ad)" style="fill: none; stroke: #ffffff; stroke-width: 2; stroke-linecap: square"/>
   </g>
   <g id="text_31">
    <g clip-path="url(#p2d6e0b18ad)">
     <!-- 0.141 -->
     <g transform="translate(1231.398759 494.291323)scale(0.08 -0.08)">
      <use xlink:href="#DejaVuSans-30"/>
      <use xlink:href="#DejaVuSans-2e" x="63.623047"/>
      <use xlink:href="#DejaVuSans-31" x="95.410156"/>
      <use xlink:href="#DejaVuSans-34" x="159.033203"/>
      <use xlink:href="#DejaVuSans-31" x="222.65625"/>
     </g>
    </g>
   </g>
   <g id="text_32">
    <g clip-path="url(#p2d6e0b18ad)">
     <!-- $\mathrm{R_Z}$ -->
     <g transform="translate(1234.920009 482.112466)scale(0.13 -0.13)">
      <use xlink:href="#DejaVuSans-52" transform="translate(0 0.09375)"/>
      <use xlink:href="#DejaVuSans-5a" transform="translate(70.439453 -16.3125)scale(0.7)"/>
     </g>
    </g>
   </g>
   <g id="text_33">
    <g clip-path="url(#p2d6e0b18ad)">
     <!-- $-$0.00693 -->
     <g transform="translate(1269.284008 216.167327)scale(0.08 -0.08)">
      <use xlink:href="#DejaVuSans-2212" transform="translate(0 0.78125)"/>
      <use xlink:href="#DejaVuSans-30" transform="translate(83.789062 0.78125)"/>
      <use xlink:href="#DejaVuSans-2e" transform="translate(147.412109 0.78125)"/>
      <use xlink:href="#DejaVuSans-30" transform="translate(179.199219 0.78125)"/>
      <use xlink:href="#DejaVuSans-30" transform="translate(242.822266 0.78125)"/>
      <use xlink:href="#DejaVuSans-36" transform="translate(306.445312 0.78125)"/>
      <use xlink:href="#DejaVuSans-39" transform="translate(370.068359 0.78125)"/>
      <use xlink:href="#DejaVuSans-33" transform="translate(433.691406 0.78125)"/>
     </g>
    </g>
   </g>
   <g id="text_34">
    <g clip-path="url(#p2d6e0b18ad)">
     <!-- $\mathrm{R_Z}$ -->
     <g transform="translate(1281.274008 203.98847)scale(0.13 -0.13)">
      <use xlink:href="#DejaVuSans-52" transform="translate(0 0.09375)"/>
      <use xlink:href="#DejaVuSans-5a" transform="translate(70.439453 -16.3125)scale(0.7)"/>
     </g>
    </g>
   </g>
   <g id="line2d_65">
    <path d="M 1335.558008 489.070814 
L 1335.558008 477.018774 
" clip-path="url(#p2d6e0b18ad)" style="fill: none; stroke: #ffffff; stroke-width: 2; stroke-linecap: square"/>
   </g>
   <g id="line2d_66">
    <path d="M 1329.531988 483.044794 
L 1341.584028 483.044794 
" clip-path="url(#p2d6e0b18ad)" style="fill: none; stroke: #ffffff; stroke-width: 2; stroke-linecap: square"/>
   </g>
   <g id="line2d_67">
    <path d="M 1381.912007 210.946817 
L 1381.912007 198.894777 
" clip-path="url(#p2d6e0b18ad)" style="fill: none; stroke: #ffffff; stroke-width: 2; stroke-linecap: square"/>
   </g>
   <g id="line2d_68">
    <path d="M 1375.885987 204.920797 
L 1387.938027 204.920797 
" clip-path="url(#p2d6e0b18ad)" style="fill: none; stroke: #ffffff; stroke-width: 2; stroke-linecap: square"/>
   </g>
   <g id="text_35">
    <g clip-path="url(#p2d6e0b18ad)">
     <!-- H -->
     <g transform="translate(1423.377803 254.861984)scale(0.13 -0.13)">
      <use xlink:href="#DejaVuSans-48"/>
     </g>
    </g>
   </g>
   <g id="line2d_69">
    <path d="M 1474.620006 210.946817 
L 1474.620006 198.894777 
" clip-path="url(#p2d6e0b18ad)" style="fill: none; stroke: #ffffff; stroke-width: 2; stroke-linecap: square"/>
   </g>
   <g id="line2d_70">
    <path d="M 1468.593986 204.920797 
L 1480.646026 204.920797 
" clip-path="url(#p2d6e0b18ad)" style="fill: none; stroke: #ffffff; stroke-width: 2; stroke-linecap: square"/>
   </g>
   <g id="text_36">
    <g clip-path="url(#p2d6e0b18ad)">
     <!-- $\mathrm{S^\dagger}$ -->
     <g transform="translate(1512.524005 254.861984)scale(0.13 -0.13)">
      <defs>
       <path id="DejaVuSans-2020" d="M 1325 4666 
L 1875 4666 
L 1875 3353 
L 3022 3353 
L 3022 2875 
L 1875 2875 
L 1875 -616 
L 1325 -616 
L 1325 2875 
L 178 2875 
L 178 3353 
L 1325 3353 
L 1325 4666 
z
" transform="scale(0.015625)"/>
      </defs>
      <use xlink:href="#DejaVuSans-53" transform="translate(0 0.684375)"/>
      <use xlink:href="#DejaVuSans-2020" transform="translate(78.071289 38.965625)scale(0.7)"/>
     </g>
    </g>
   </g>
   <g id="text_37">
    <g clip-path="url(#p2d6e0b18ad)">
     <!-- H -->
     <g transform="translate(1516.085802 347.569983)scale(0.13 -0.13)">
      <use xlink:href="#DejaVuSans-48"/>
     </g>
    </g>
   </g>
   <g id="line2d_71">
    <path d="M 1567.328005 210.946817 
L 1567.328005 198.894777 
" clip-path="url(#p2d6e0b18ad)" style="fill: none; stroke: #ffffff; stroke-width: 2; stroke-linecap: square"/>
   </g>
   <g id="line2d_72">
    <path d="M 1561.301985 204.920797 
L 1573.354025 204.920797 
" clip-path="url(#p2d6e0b18ad)" style="fill: none; stroke: #ffffff; stroke-width: 2; stroke-linecap: square"/>
   </g>
   <g id="line2d_73">
    <path d="M 1613.682004 210.946817 
L 1613.682004 198.894777 
" clip-path="url(#p2d6e0b18ad)" style="fill: none; stroke: #ffffff; stroke-width: 2; stroke-linecap: square"/>
   </g>
   <g id="line2d_74">
    <path d="M 1607.655984 204.920797 
L 1619.708024 204.920797 
" clip-path="url(#p2d6e0b18ad)" style="fill: none; stroke: #ffffff; stroke-width: 2; stroke-linecap: square"/>
   </g>
   <g id="text_38">
    <g clip-path="url(#p2d6e0b18ad)">
     <!-- H -->
     <g transform="translate(1655.1478 254.861984)scale(0.13 -0.13)">
      <use xlink:href="#DejaVuSans-48"/>
     </g>
    </g>
   </g>
   <g id="text_39">
    <g clip-path="url(#p2d6e0b18ad)">
     <!-- H -->
     <g transform="translate(1655.1478 440.277982)scale(0.13 -0.13)">
      <use xlink:href="#DejaVuSans-48"/>
     </g>
    </g>
   </g>
   <g id="line2d_75">
    <path d="M 1706.390003 303.654816 
L 1706.390003 291.602776 
" clip-path="url(#p2d6e0b18ad)" style="fill: none; stroke: #ffffff; stroke-width: 2; stroke-linecap: square"/>
   </g>
   <g id="line2d_76">
    <path d="M 1700.363983 297.628796 
L 1712.416023 297.628796 
" clip-path="url(#p2d6e0b18ad)" style="fill: none; stroke: #ffffff; stroke-width: 2; stroke-linecap: square"/>
   </g>
   <g id="line2d_77">
    <path d="M 1752.744002 303.654816 
L 1752.744002 291.602776 
" clip-path="url(#p2d6e0b18ad)" style="fill: none; stroke: #ffffff; stroke-width: 2; stroke-linecap: square"/>
   </g>
   <g id="line2d_78">
    <path d="M 1746.717982 297.628796 
L 1758.770022 297.628796 
" clip-path="url(#p2d6e0b18ad)" style="fill: none; stroke: #ffffff; stroke-width: 2; stroke-linecap: square"/>
   </g>
   <g id="text_40">
    <g clip-path="url(#p2d6e0b18ad)">
     <!-- 0.00724 -->
     <g transform="translate(1782.556752 308.875326)scale(0.08 -0.08)">
      <use xlink:href="#DejaVuSans-30"/>
      <use xlink:href="#DejaVuSans-2e" x="63.623047"/>
      <use xlink:href="#DejaVuSans-30" x="95.410156"/>
      <use xlink:href="#DejaVuSans-30" x="159.033203"/>
      <use xlink:href="#DejaVuSans-37" x="222.65625"/>
      <use xlink:href="#DejaVuSans-32" x="286.279297"/>
      <use xlink:href="#DejaVuSans-34" x="349.902344"/>
     </g>
    </g>
   </g>
   <g id="text_41">
    <g clip-path="url(#p2d6e0b18ad)">
     <!-- $\mathrm{R_Z}$ -->
     <g transform="translate(1791.168002 296.696469)scale(0.13 -0.13)">
      <use xlink:href="#DejaVuSans-52" transform="translate(0 0.09375)"/>
      <use xlink:href="#DejaVuSans-5a" transform="translate(70.439453 -16.3125)scale(0.7)"/>
     </g>
    </g>
   </g>
   <g id="line2d_79">
    <path d="M 1845.452001 303.654816 
L 1845.452001 291.602776 
" clip-path="url(#p2d6e0b18ad)" style="fill: none; stroke: #ffffff; stroke-width: 2; stroke-linecap: square"/>
   </g>
   <g id="line2d_80">
    <path d="M 1839.425981 297.628796 
L 1851.478021 297.628796 
" clip-path="url(#p2d6e0b18ad)" style="fill: none; stroke: #ffffff; stroke-width: 2; stroke-linecap: square"/>
   </g>
   <g id="text_42">
    <g clip-path="url(#p2d6e0b18ad)">
     <!-- H -->
     <g transform="translate(1886.917797 254.861984)scale(0.13 -0.13)">
      <use xlink:href="#DejaVuSans-48"/>
     </g>
    </g>
   </g>
   <g id="line2d_81">
    <path d="M 1938.16 303.654816 
L 1938.16 291.602776 
" clip-path="url(#p2d6e0b18ad)" style="fill: none; stroke: #ffffff; stroke-width: 2; stroke-linecap: square"/>
   </g>
   <g id="line2d_82">
    <path d="M 1932.13398 297.628796 
L 1944.18602 297.628796 
" clip-path="url(#p2d6e0b18ad)" style="fill: none; stroke: #ffffff; stroke-width: 2; stroke-linecap: square"/>
   </g>
  </g>
 </g>
 <defs>
  <clipPath id="p2d6e0b18ad">
   <rect x="279.683665" y="75.129599" width="1689.069975" height="482.081594"/>
  </clipPath>
 </defs>
</svg>
