<?xml version="1.0" encoding="utf-8" standalone="no"?>
<!DOCTYPE svg PUBLIC "-//W3C//DTD SVG 1.1//EN"
  "http://www.w3.org/Graphics/SVG/1.1/DTD/svg11.dtd">
<svg xmlns:xlink="http://www.w3.org/1999/xlink" width="1290.597382pt" height="626.079992pt" viewBox="0 0 1290.597382 626.079992" xmlns="http://www.w3.org/2000/svg" version="1.1">
 <metadata>
  <rdf:RDF xmlns:dc="http://purl.org/dc/elements/1.1/" xmlns:cc="http://creativecommons.org/ns#" xmlns:rdf="http://www.w3.org/1999/02/22-rdf-syntax-ns#">
   <cc:Work>
    <dc:type rdf:resource="http://purl.org/dc/dcmitype/StillImage"/>
    <dc:date>2022-05-14T14:44:38.187873</dc:date>
    <dc:format>image/svg+xml</dc:format>
    <dc:creator>
     <cc:Agent>
      <dc:title>Matplotlib v3.5.1, https://matplotlib.org/</dc:title>
     </cc:Agent>
    </dc:creator>
   </cc:Work>
  </rdf:RDF>
 </metadata>
 <defs>
  <style type="text/css">*{stroke-linejoin: round; stroke-linecap: butt}</style>
 </defs>
 <g id="figure_1">
  <g id="patch_1">
   <path d="M 0 626.079992 
L 1290.597382 626.079992 
L 1290.597382 0 
L 0 0 
z
" style="fill: #ffffff"/>
  </g>
  <g id="axes_1">
   <g id="line2d_1">
    <path d="M 221.960363 112.212799 
L 1153.67575 112.212799 
" clip-path="url(#p03321b558f)" style="fill: none; stroke: #000000; stroke-width: 2; stroke-linecap: square"/>
   </g>
   <g id="line2d_2">
    <path d="M 221.960363 158.566798 
L 1153.67575 158.566798 
" clip-path="url(#p03321b558f)" style="fill: none; stroke: #000000; stroke-width: 2; stroke-linecap: square"/>
   </g>
   <g id="line2d_3">
    <path d="M 221.960363 204.920797 
L 1153.67575 204.920797 
" clip-path="url(#p03321b558f)" style="fill: none; stroke: #000000; stroke-width: 2; stroke-linecap: square"/>
   </g>
   <g id="line2d_4">
    <path d="M 221.960363 251.274797 
L 1153.67575 251.274797 
" clip-path="url(#p03321b558f)" style="fill: none; stroke: #000000; stroke-width: 2; stroke-linecap: square"/>
   </g>
   <g id="line2d_5">
    <path d="M 221.960363 297.628796 
L 1153.67575 297.628796 
" clip-path="url(#p03321b558f)" style="fill: none; stroke: #000000; stroke-width: 2; stroke-linecap: square"/>
   </g>
   <g id="line2d_6">
    <path d="M 221.960363 343.982795 
L 1153.67575 343.982795 
" clip-path="url(#p03321b558f)" style="fill: none; stroke: #000000; stroke-width: 2; stroke-linecap: square"/>
   </g>
   <g id="line2d_7">
    <path d="M 221.960363 390.336795 
L 1153.67575 390.336795 
" clip-path="url(#p03321b558f)" style="fill: none; stroke: #000000; stroke-width: 2; stroke-linecap: square"/>
   </g>
   <g id="line2d_8">
    <path d="M 221.960363 436.690794 
L 1153.67575 436.690794 
" clip-path="url(#p03321b558f)" style="fill: none; stroke: #000000; stroke-width: 2; stroke-linecap: square"/>
   </g>
   <g id="line2d_9">
    <path d="M 221.960363 483.044794 
L 1153.67575 483.044794 
" clip-path="url(#p03321b558f)" style="fill: none; stroke: #000000; stroke-width: 2; stroke-linecap: square"/>
   </g>
   <g id="line2d_10">
    <path d="M 221.960363 529.398793 
L 1153.67575 529.398793 
" clip-path="url(#p03321b558f)" style="fill: none; stroke: #000000; stroke-width: 2; stroke-linecap: square"/>
   </g>
   <g id="line2d_11">
    <path d="M 293.345522 251.274797 
L 293.345522 158.566798 
" clip-path="url(#p03321b558f)" style="fill: none; stroke: #000000; stroke-width: 2; stroke-linecap: square"/>
   </g>
   <g id="line2d_12">
    <path d="M 339.699521 529.398793 
L 339.699521 112.212799 
" clip-path="url(#p03321b558f)" style="fill: none; stroke: #000000; stroke-width: 2; stroke-linecap: square"/>
   </g>
   <g id="line2d_13">
    <path d="M 409.23052 390.336795 
L 409.23052 158.566798 
" clip-path="url(#p03321b558f)" style="fill: none; stroke: #000000; stroke-width: 2; stroke-linecap: square"/>
   </g>
   <g id="line2d_14">
    <path d="M 409.23052 483.044794 
L 409.23052 436.690794 
" clip-path="url(#p03321b558f)" style="fill: none; stroke: #000000; stroke-width: 2; stroke-linecap: square"/>
   </g>
   <g id="line2d_15">
    <path d="M 571.469518 529.398793 
L 571.469518 112.212799 
" clip-path="url(#p03321b558f)" style="fill: none; stroke: #000000; stroke-width: 2; stroke-linecap: square"/>
   </g>
   <g id="line2d_16">
    <path d="M 617.823517 390.336795 
L 617.823517 158.566798 
" clip-path="url(#p03321b558f)" style="fill: none; stroke: #000000; stroke-width: 2; stroke-linecap: square"/>
   </g>
   <g id="line2d_17">
    <path d="M 617.823517 483.044794 
L 617.823517 436.690794 
" clip-path="url(#p03321b558f)" style="fill: none; stroke: #000000; stroke-width: 2; stroke-linecap: square"/>
   </g>
   <g id="line2d_18">
    <path d="M 664.177517 529.398793 
L 664.177517 112.212799 
" clip-path="url(#p03321b558f)" style="fill: none; stroke: #000000; stroke-width: 2; stroke-linecap: square"/>
   </g>
   <g id="line2d_19">
    <path d="M 733.708516 251.274797 
L 733.708516 158.566798 
" clip-path="url(#p03321b558f)" style="fill: none; stroke: #000000; stroke-width: 2; stroke-linecap: square"/>
   </g>
   <g id="line2d_20">
    <path d="M 803.239515 251.274797 
L 803.239515 158.566798 
" clip-path="url(#p03321b558f)" style="fill: none; stroke: #000000; stroke-width: 2; stroke-linecap: square"/>
   </g>
   <g id="line2d_21">
    <path d="M 849.593514 529.398793 
L 849.593514 112.212799 
" clip-path="url(#p03321b558f)" style="fill: none; stroke: #000000; stroke-width: 2; stroke-linecap: square"/>
   </g>
   <g id="line2d_22">
    <path d="M 895.947514 390.336795 
L 895.947514 158.566798 
" clip-path="url(#p03321b558f)" style="fill: none; stroke: #000000; stroke-width: 2; stroke-linecap: square"/>
   </g>
   <g id="line2d_23">
    <path d="M 895.947514 483.044794 
L 895.947514 436.690794 
" clip-path="url(#p03321b558f)" style="fill: none; stroke: #000000; stroke-width: 2; stroke-linecap: square"/>
   </g>
   <g id="line2d_24">
    <path d="M 1035.009512 390.336795 
L 1035.009512 158.566798 
" clip-path="url(#p03321b558f)" style="fill: none; stroke: #000000; stroke-width: 2; stroke-linecap: square"/>
   </g>
   <g id="line2d_25">
    <path d="M 1035.009512 483.044794 
L 1035.009512 436.690794 
" clip-path="url(#p03321b558f)" style="fill: none; stroke: #000000; stroke-width: 2; stroke-linecap: square"/>
   </g>
   <g id="line2d_26">
    <path d="M 1081.363511 251.274797 
L 1081.363511 158.566798 
" clip-path="url(#p03321b558f)" style="fill: none; stroke: #000000; stroke-width: 2; stroke-linecap: square"/>
   </g>
   <g id="text_1">
    <!-- TERMS: 3, DEPTH:12 -->
    <g transform="translate(599.398658 69.129599)scale(0.12 -0.12)">
     <defs>
      <path id="DejaVuSans-54" d="M -19 4666 
L 3928 4666 
L 3928 4134 
L 2272 4134 
L 2272 0 
L 1638 0 
L 1638 4134 
L -19 4134 
L -19 4666 
z
" transform="scale(0.015625)"/>
      <path id="DejaVuSans-45" d="M 628 4666 
L 3578 4666 
L 3578 4134 
L 1259 4134 
L 1259 2753 
L 3481 2753 
L 3481 2222 
L 1259 2222 
L 1259 531 
L 3634 531 
L 3634 0 
L 628 0 
L 628 4666 
z
" transform="scale(0.015625)"/>
      <path id="DejaVuSans-52" d="M 2841 2188 
Q 3044 2119 3236 1894 
Q 3428 1669 3622 1275 
L 4263 0 
L 3584 0 
L 2988 1197 
Q 2756 1666 2539 1819 
Q 2322 1972 1947 1972 
L 1259 1972 
L 1259 0 
L 628 0 
L 628 4666 
L 2053 4666 
Q 2853 4666 3247 4331 
Q 3641 3997 3641 3322 
Q 3641 2881 3436 2590 
Q 3231 2300 2841 2188 
z
M 1259 4147 
L 1259 2491 
L 2053 2491 
Q 2509 2491 2742 2702 
Q 2975 2913 2975 3322 
Q 2975 3731 2742 3939 
Q 2509 4147 2053 4147 
L 1259 4147 
z
" transform="scale(0.015625)"/>
      <path id="DejaVuSans-4d" d="M 628 4666 
L 1569 4666 
L 2759 1491 
L 3956 4666 
L 4897 4666 
L 4897 0 
L 4281 0 
L 4281 4097 
L 3078 897 
L 2444 897 
L 1241 4097 
L 1241 0 
L 628 0 
L 628 4666 
z
" transform="scale(0.015625)"/>
      <path id="DejaVuSans-53" d="M 3425 4513 
L 3425 3897 
Q 3066 4069 2747 4153 
Q 2428 4238 2131 4238 
Q 1616 4238 1336 4038 
Q 1056 3838 1056 3469 
Q 1056 3159 1242 3001 
Q 1428 2844 1947 2747 
L 2328 2669 
Q 3034 2534 3370 2195 
Q 3706 1856 3706 1288 
Q 3706 609 3251 259 
Q 2797 -91 1919 -91 
Q 1588 -91 1214 -16 
Q 841 59 441 206 
L 441 856 
Q 825 641 1194 531 
Q 1563 422 1919 422 
Q 2459 422 2753 634 
Q 3047 847 3047 1241 
Q 3047 1584 2836 1778 
Q 2625 1972 2144 2069 
L 1759 2144 
Q 1053 2284 737 2584 
Q 422 2884 422 3419 
Q 422 4038 858 4394 
Q 1294 4750 2059 4750 
Q 2388 4750 2728 4690 
Q 3069 4631 3425 4513 
z
" transform="scale(0.015625)"/>
      <path id="DejaVuSans-3a" d="M 750 794 
L 1409 794 
L 1409 0 
L 750 0 
L 750 794 
z
M 750 3309 
L 1409 3309 
L 1409 2516 
L 750 2516 
L 750 3309 
z
" transform="scale(0.015625)"/>
      <path id="DejaVuSans-20" transform="scale(0.015625)"/>
      <path id="DejaVuSans-33" d="M 2597 2516 
Q 3050 2419 3304 2112 
Q 3559 1806 3559 1356 
Q 3559 666 3084 287 
Q 2609 -91 1734 -91 
Q 1441 -91 1130 -33 
Q 819 25 488 141 
L 488 750 
Q 750 597 1062 519 
Q 1375 441 1716 441 
Q 2309 441 2620 675 
Q 2931 909 2931 1356 
Q 2931 1769 2642 2001 
Q 2353 2234 1838 2234 
L 1294 2234 
L 1294 2753 
L 1863 2753 
Q 2328 2753 2575 2939 
Q 2822 3125 2822 3475 
Q 2822 3834 2567 4026 
Q 2313 4219 1838 4219 
Q 1578 4219 1281 4162 
Q 984 4106 628 3988 
L 628 4550 
Q 988 4650 1302 4700 
Q 1616 4750 1894 4750 
Q 2613 4750 3031 4423 
Q 3450 4097 3450 3541 
Q 3450 3153 3228 2886 
Q 3006 2619 2597 2516 
z
" transform="scale(0.015625)"/>
      <path id="DejaVuSans-2c" d="M 750 794 
L 1409 794 
L 1409 256 
L 897 -744 
L 494 -744 
L 750 256 
L 750 794 
z
" transform="scale(0.015625)"/>
      <path id="DejaVuSans-44" d="M 1259 4147 
L 1259 519 
L 2022 519 
Q 2988 519 3436 956 
Q 3884 1394 3884 2338 
Q 3884 3275 3436 3711 
Q 2988 4147 2022 4147 
L 1259 4147 
z
M 628 4666 
L 1925 4666 
Q 3281 4666 3915 4102 
Q 4550 3538 4550 2338 
Q 4550 1131 3912 565 
Q 3275 0 1925 0 
L 628 0 
L 628 4666 
z
" transform="scale(0.015625)"/>
      <path id="DejaVuSans-50" d="M 1259 4147 
L 1259 2394 
L 2053 2394 
Q 2494 2394 2734 2622 
Q 2975 2850 2975 3272 
Q 2975 3691 2734 3919 
Q 2494 4147 2053 4147 
L 1259 4147 
z
M 628 4666 
L 2053 4666 
Q 2838 4666 3239 4311 
Q 3641 3956 3641 3272 
Q 3641 2581 3239 2228 
Q 2838 1875 2053 1875 
L 1259 1875 
L 1259 0 
L 628 0 
L 628 4666 
z
" transform="scale(0.015625)"/>
      <path id="DejaVuSans-48" d="M 628 4666 
L 1259 4666 
L 1259 2753 
L 3553 2753 
L 3553 4666 
L 4184 4666 
L 4184 0 
L 3553 0 
L 3553 2222 
L 1259 2222 
L 1259 0 
L 628 0 
L 628 4666 
z
" transform="scale(0.015625)"/>
      <path id="DejaVuSans-31" d="M 794 531 
L 1825 531 
L 1825 4091 
L 703 3866 
L 703 4441 
L 1819 4666 
L 2450 4666 
L 2450 531 
L 3481 531 
L 3481 0 
L 794 0 
L 794 531 
z
" transform="scale(0.015625)"/>
      <path id="DejaVuSans-32" d="M 1228 531 
L 3431 531 
L 3431 0 
L 469 0 
L 469 531 
Q 828 903 1448 1529 
Q 2069 2156 2228 2338 
Q 2531 2678 2651 2914 
Q 2772 3150 2772 3378 
Q 2772 3750 2511 3984 
Q 2250 4219 1831 4219 
Q 1534 4219 1204 4116 
Q 875 4013 500 3803 
L 500 4441 
Q 881 4594 1212 4672 
Q 1544 4750 1819 4750 
Q 2544 4750 2975 4387 
Q 3406 4025 3406 3419 
Q 3406 3131 3298 2873 
Q 3191 2616 2906 2266 
Q 2828 2175 2409 1742 
Q 1991 1309 1228 531 
z
" transform="scale(0.015625)"/>
     </defs>
     <use xlink:href="#DejaVuSans-54"/>
     <use xlink:href="#DejaVuSans-45" x="61.083984"/>
     <use xlink:href="#DejaVuSans-52" x="124.267578"/>
     <use xlink:href="#DejaVuSans-4d" x="193.75"/>
     <use xlink:href="#DejaVuSans-53" x="280.029297"/>
     <use xlink:href="#DejaVuSans-3a" x="343.505859"/>
     <use xlink:href="#DejaVuSans-20" x="377.197266"/>
     <use xlink:href="#DejaVuSans-33" x="408.984375"/>
     <use xlink:href="#DejaVuSans-2c" x="472.607422"/>
     <use xlink:href="#DejaVuSans-20" x="504.394531"/>
     <use xlink:href="#DejaVuSans-44" x="536.181641"/>
     <use xlink:href="#DejaVuSans-45" x="613.183594"/>
     <use xlink:href="#DejaVuSans-50" x="676.367188"/>
     <use xlink:href="#DejaVuSans-54" x="736.669922"/>
     <use xlink:href="#DejaVuSans-48" x="797.753906"/>
     <use xlink:href="#DejaVuSans-3a" x="872.949219"/>
     <use xlink:href="#DejaVuSans-31" x="906.640625"/>
     <use xlink:href="#DejaVuSans-32" x="970.263672"/>
    </g>
   </g>
   <g id="patch_2">
    <path d="M 231.926473 266.339846 
L 262.056572 266.339846 
L 262.056572 236.209747 
L 231.926473 236.209747 
z
" clip-path="url(#p03321b558f)" style="fill: #ffffff; stroke: #000000; stroke-width: 1.5; stroke-linejoin: miter"/>
   </g>
   <g id="patch_3">
    <path d="M 231.926473 405.401845 
L 262.056572 405.401845 
L 262.056572 375.271745 
L 231.926473 375.271745 
z
" clip-path="url(#p03321b558f)" style="fill: #ffffff; stroke: #000000; stroke-width: 1.5; stroke-linejoin: miter"/>
   </g>
   <g id="patch_4">
    <path d="M 231.926473 451.755844 
L 262.056572 451.755844 
L 262.056572 421.625744 
L 231.926473 421.625744 
z
" clip-path="url(#p03321b558f)" style="fill: #ffffff; stroke: #000000; stroke-width: 1.5; stroke-linejoin: miter"/>
   </g>
   <g id="patch_5">
    <path d="M 231.926473 127.277848 
L 262.056572 127.277848 
L 262.056572 97.147749 
L 231.926473 97.147749 
z
" clip-path="url(#p03321b558f)" style="fill: #ffffff; stroke: #000000; stroke-width: 1.5; stroke-linejoin: miter"/>
   </g>
   <g id="patch_6">
    <path d="M 293.345522 255.794312 
C 294.544111 255.794312 295.693771 255.318107 296.541301 254.470576 
C 297.388832 253.623046 297.865037 252.473386 297.865037 251.274797 
C 297.865037 250.076207 297.388832 248.926548 296.541301 248.079017 
C 295.693771 247.231486 294.544111 246.755282 293.345522 246.755282 
C 292.146932 246.755282 290.997273 247.231486 290.149742 248.079017 
C 289.302211 248.926548 288.826007 250.076207 288.826007 251.274797 
C 288.826007 252.473386 289.302211 253.623046 290.149742 254.470576 
C 290.997273 255.318107 292.146932 255.794312 293.345522 255.794312 
z
" clip-path="url(#p03321b558f)" style="stroke: #000000; stroke-width: 1.5; stroke-linejoin: miter"/>
   </g>
   <g id="patch_7">
    <path d="M 293.345522 169.112333 
C 296.14223 169.112333 298.824769 168.001189 300.802341 166.023617 
C 302.779912 164.046046 303.891057 161.363506 303.891057 158.566798 
C 303.891057 155.770089 302.779912 153.08755 300.802341 151.109979 
C 298.824769 149.132407 296.14223 148.021263 293.345522 148.021263 
C 290.548813 148.021263 287.866274 149.132407 285.888702 151.109979 
C 283.911131 153.08755 282.799987 155.770089 282.799987 158.566798 
C 282.799987 161.363506 283.911131 164.046046 285.888702 166.023617 
C 287.866274 168.001189 290.548813 169.112333 293.345522 169.112333 
z
" clip-path="url(#p03321b558f)" style="stroke: #000000; stroke-width: 2; stroke-linejoin: miter"/>
   </g>
   <g id="patch_8">
    <path d="M 278.280472 451.755844 
L 308.410572 451.755844 
L 308.410572 421.625744 
L 278.280472 421.625744 
z
" clip-path="url(#p03321b558f)" style="fill: #ffffff; stroke: #000000; stroke-width: 1.5; stroke-linejoin: miter"/>
   </g>
   <g id="patch_9">
    <path d="M 339.699521 116.732313 
C 340.89811 116.732313 342.04777 116.256109 342.895301 115.408578 
C 343.742831 114.561047 344.219036 113.411388 344.219036 112.212799 
C 344.219036 111.014209 343.742831 109.86455 342.895301 109.017019 
C 342.04777 108.169488 340.89811 107.693284 339.699521 107.693284 
C 338.500932 107.693284 337.351272 108.169488 336.503741 109.017019 
C 335.656211 109.86455 335.180006 111.014209 335.180006 112.212799 
C 335.180006 113.411388 335.656211 114.561047 336.503741 115.408578 
C 337.351272 116.256109 338.500932 116.732313 339.699521 116.732313 
z
" clip-path="url(#p03321b558f)" style="stroke: #000000; stroke-width: 1.5; stroke-linejoin: miter"/>
   </g>
   <g id="patch_10">
    <path d="M 339.699521 539.944328 
C 342.49623 539.944328 345.178769 538.833184 347.15634 536.855612 
C 349.133912 534.878041 350.245056 532.195502 350.245056 529.398793 
C 350.245056 526.602084 349.133912 523.919545 347.15634 521.941974 
C 345.178769 519.964402 342.49623 518.853258 339.699521 518.853258 
C 336.902813 518.853258 334.220273 519.964402 332.242702 521.941974 
C 330.26513 523.919545 329.153986 526.602084 329.153986 529.398793 
C 329.153986 532.195502 330.26513 534.878041 332.242702 536.855612 
C 334.220273 538.833184 336.902813 539.944328 339.699521 539.944328 
z
" clip-path="url(#p03321b558f)" style="stroke: #000000; stroke-width: 2; stroke-linejoin: miter"/>
   </g>
   <g id="patch_11">
    <path d="M 409.23052 394.85631 
C 410.42911 394.85631 411.578769 394.380105 412.4263 393.532574 
C 413.27383 392.685044 413.750035 391.535384 413.750035 390.336795 
C 413.750035 389.138205 413.27383 387.988546 412.4263 387.141015 
C 411.578769 386.293484 410.42911 385.81728 409.23052 385.81728 
C 408.031931 385.81728 406.882271 386.293484 406.034741 387.141015 
C 405.18721 387.988546 404.711005 389.138205 404.711005 390.336795 
C 404.711005 391.535384 405.18721 392.685044 406.034741 393.532574 
C 406.882271 394.380105 408.031931 394.85631 409.23052 394.85631 
z
" clip-path="url(#p03321b558f)" style="stroke: #000000; stroke-width: 1.5; stroke-linejoin: miter"/>
   </g>
   <g id="patch_12">
    <path d="M 409.23052 169.112333 
C 412.027229 169.112333 414.709768 168.001189 416.687339 166.023617 
C 418.664911 164.046046 419.776055 161.363506 419.776055 158.566798 
C 419.776055 155.770089 418.664911 153.08755 416.687339 151.109979 
C 414.709768 149.132407 412.027229 148.021263 409.23052 148.021263 
C 406.433812 148.021263 403.751273 149.132407 401.773701 151.109979 
C 399.796129 153.08755 398.684985 155.770089 398.684985 158.566798 
C 398.684985 161.363506 399.796129 164.046046 401.773701 166.023617 
C 403.751273 168.001189 406.433812 169.112333 409.23052 169.112333 
z
" clip-path="url(#p03321b558f)" style="stroke: #000000; stroke-width: 2; stroke-linejoin: miter"/>
   </g>
   <g id="patch_13">
    <path d="M 409.23052 441.210309 
C 410.42911 441.210309 411.578769 440.734105 412.4263 439.886574 
C 413.27383 439.039043 413.750035 437.889384 413.750035 436.690794 
C 413.750035 435.492205 413.27383 434.342545 412.4263 433.495015 
C 411.578769 432.647484 410.42911 432.171279 409.23052 432.171279 
C 408.031931 432.171279 406.882271 432.647484 406.034741 433.495015 
C 405.18721 434.342545 404.711005 435.492205 404.711005 436.690794 
C 404.711005 437.889384 405.18721 439.039043 406.034741 439.886574 
C 406.882271 440.734105 408.031931 441.210309 409.23052 441.210309 
z
" clip-path="url(#p03321b558f)" style="stroke: #000000; stroke-width: 1.5; stroke-linejoin: miter"/>
   </g>
   <g id="patch_14">
    <path d="M 409.23052 493.590328 
C 412.027229 493.590328 414.709768 492.479184 416.687339 490.501613 
C 418.664911 488.524041 419.776055 485.841502 419.776055 483.044794 
C 419.776055 480.248085 418.664911 477.565546 416.687339 475.587974 
C 414.709768 473.610403 412.027229 472.499259 409.23052 472.499259 
C 406.433812 472.499259 403.751273 473.610403 401.773701 475.587974 
C 399.796129 477.565546 398.684985 480.248085 398.684985 483.044794 
C 398.684985 485.841502 399.796129 488.524041 401.773701 490.501613 
C 403.751273 492.479184 406.433812 493.590328 409.23052 493.590328 
z
" clip-path="url(#p03321b558f)" style="stroke: #000000; stroke-width: 2; stroke-linejoin: miter"/>
   </g>
   <g id="patch_15">
    <path d="M 387.835832 544.463843 
L 430.625209 544.463843 
L 430.625209 514.333743 
L 387.835832 514.333743 
z
" clip-path="url(#p03321b558f)" style="fill: #ffffff; stroke: #000000; stroke-width: 1.5; stroke-linejoin: miter"/>
   </g>
   <g id="patch_16">
    <path d="M 486.873469 173.631848 
L 517.003569 173.631848 
L 517.003569 143.501748 
L 486.873469 143.501748 
z
" clip-path="url(#p03321b558f)" style="fill: #ffffff; stroke: #000000; stroke-width: 1.5; stroke-linejoin: miter"/>
   </g>
   <g id="patch_17">
    <path d="M 480.543831 498.109843 
L 523.333207 498.109843 
L 523.333207 467.979744 
L 480.543831 467.979744 
z
" clip-path="url(#p03321b558f)" style="fill: #ffffff; stroke: #000000; stroke-width: 1.5; stroke-linejoin: miter"/>
   </g>
   <g id="patch_18">
    <path d="M 571.469518 116.732313 
C 572.668107 116.732313 573.817767 116.256109 574.665298 115.408578 
C 575.512828 114.561047 575.989033 113.411388 575.989033 112.212799 
C 575.989033 111.014209 575.512828 109.86455 574.665298 109.017019 
C 573.817767 108.169488 572.668107 107.693284 571.469518 107.693284 
C 570.270929 107.693284 569.121269 108.169488 568.273738 109.017019 
C 567.426208 109.86455 566.950003 111.014209 566.950003 112.212799 
C 566.950003 113.411388 567.426208 114.561047 568.273738 115.408578 
C 569.121269 116.256109 570.270929 116.732313 571.469518 116.732313 
z
" clip-path="url(#p03321b558f)" style="stroke: #000000; stroke-width: 1.5; stroke-linejoin: miter"/>
   </g>
   <g id="patch_19">
    <path d="M 571.469518 539.944328 
C 574.266227 539.944328 576.948766 538.833184 578.926337 536.855612 
C 580.903909 534.878041 582.015053 532.195502 582.015053 529.398793 
C 582.015053 526.602084 580.903909 523.919545 578.926337 521.941974 
C 576.948766 519.964402 574.266227 518.853258 571.469518 518.853258 
C 568.672809 518.853258 565.99027 519.964402 564.012699 521.941974 
C 562.035127 523.919545 560.923983 526.602084 560.923983 529.398793 
C 560.923983 532.195502 562.035127 534.878041 564.012699 536.855612 
C 565.99027 538.833184 568.672809 539.944328 571.469518 539.944328 
z
" clip-path="url(#p03321b558f)" style="stroke: #000000; stroke-width: 2; stroke-linejoin: miter"/>
   </g>
   <g id="patch_20">
    <path d="M 617.823517 394.85631 
C 619.022107 394.85631 620.171766 394.380105 621.019297 393.532574 
C 621.866828 392.685044 622.343032 391.535384 622.343032 390.336795 
C 622.343032 389.138205 621.866828 387.988546 621.019297 387.141015 
C 620.171766 386.293484 619.022107 385.81728 617.823517 385.81728 
C 616.624928 385.81728 615.475268 386.293484 614.627738 387.141015 
C 613.780207 387.988546 613.304002 389.138205 613.304002 390.336795 
C 613.304002 391.535384 613.780207 392.685044 614.627738 393.532574 
C 615.475268 394.380105 616.624928 394.85631 617.823517 394.85631 
z
" clip-path="url(#p03321b558f)" style="stroke: #000000; stroke-width: 1.5; stroke-linejoin: miter"/>
   </g>
   <g id="patch_21">
    <path d="M 617.823517 169.112333 
C 620.620226 169.112333 623.302765 168.001189 625.280337 166.023617 
C 627.257908 164.046046 628.369052 161.363506 628.369052 158.566798 
C 628.369052 155.770089 627.257908 153.08755 625.280337 151.109979 
C 623.302765 149.132407 620.620226 148.021263 617.823517 148.021263 
C 615.026809 148.021263 612.34427 149.132407 610.366698 151.109979 
C 608.389127 153.08755 607.277983 155.770089 607.277983 158.566798 
C 607.277983 161.363506 608.389127 164.046046 610.366698 166.023617 
C 612.34427 168.001189 615.026809 169.112333 617.823517 169.112333 
z
" clip-path="url(#p03321b558f)" style="stroke: #000000; stroke-width: 2; stroke-linejoin: miter"/>
   </g>
   <g id="patch_22">
    <path d="M 617.823517 441.210309 
C 619.022107 441.210309 620.171766 440.734105 621.019297 439.886574 
C 621.866828 439.039043 622.343032 437.889384 622.343032 436.690794 
C 622.343032 435.492205 621.866828 434.342545 621.019297 433.495015 
C 620.171766 432.647484 619.022107 432.171279 617.823517 432.171279 
C 616.624928 432.171279 615.475268 432.647484 614.627738 433.495015 
C 613.780207 434.342545 613.304002 435.492205 613.304002 436.690794 
C 613.304002 437.889384 613.780207 439.039043 614.627738 439.886574 
C 615.475268 440.734105 616.624928 441.210309 617.823517 441.210309 
z
" clip-path="url(#p03321b558f)" style="stroke: #000000; stroke-width: 1.5; stroke-linejoin: miter"/>
   </g>
   <g id="patch_23">
    <path d="M 617.823517 493.590328 
C 620.620226 493.590328 623.302765 492.479184 625.280337 490.501613 
C 627.257908 488.524041 628.369052 485.841502 628.369052 483.044794 
C 628.369052 480.248085 627.257908 477.565546 625.280337 475.587974 
C 623.302765 473.610403 620.620226 472.499259 617.823517 472.499259 
C 615.026809 472.499259 612.34427 473.610403 610.366698 475.587974 
C 608.389127 477.565546 607.277983 480.248085 607.277983 483.044794 
C 607.277983 485.841502 608.389127 488.524041 610.366698 490.501613 
C 612.34427 492.479184 615.026809 493.590328 617.823517 493.590328 
z
" clip-path="url(#p03321b558f)" style="stroke: #000000; stroke-width: 2; stroke-linejoin: miter"/>
   </g>
   <g id="patch_24">
    <path d="M 664.177517 116.732313 
C 665.376106 116.732313 666.525766 116.256109 667.373296 115.408578 
C 668.220827 114.561047 668.697032 113.411388 668.697032 112.212799 
C 668.697032 111.014209 668.220827 109.86455 667.373296 109.017019 
C 666.525766 108.169488 665.376106 107.693284 664.177517 107.693284 
C 662.978927 107.693284 661.829268 108.169488 660.981737 109.017019 
C 660.134206 109.86455 659.658002 111.014209 659.658002 112.212799 
C 659.658002 113.411388 660.134206 114.561047 660.981737 115.408578 
C 661.829268 116.256109 662.978927 116.732313 664.177517 116.732313 
z
" clip-path="url(#p03321b558f)" style="stroke: #000000; stroke-width: 1.5; stroke-linejoin: miter"/>
   </g>
   <g id="patch_25">
    <path d="M 664.177517 539.944328 
C 666.974225 539.944328 669.656764 538.833184 671.634336 536.855612 
C 673.611908 534.878041 674.723052 532.195502 674.723052 529.398793 
C 674.723052 526.602084 673.611908 523.919545 671.634336 521.941974 
C 669.656764 519.964402 666.974225 518.853258 664.177517 518.853258 
C 661.380808 518.853258 658.698269 519.964402 656.720698 521.941974 
C 654.743126 523.919545 653.631982 526.602084 653.631982 529.398793 
C 653.631982 532.195502 654.743126 534.878041 656.720698 536.855612 
C 658.698269 538.833184 661.380808 539.944328 664.177517 539.944328 
z
" clip-path="url(#p03321b558f)" style="stroke: #000000; stroke-width: 2; stroke-linejoin: miter"/>
   </g>
   <g id="patch_26">
    <path d="M 733.708516 255.794312 
C 734.907105 255.794312 736.056765 255.318107 736.904296 254.470576 
C 737.751826 253.623046 738.228031 252.473386 738.228031 251.274797 
C 738.228031 250.076207 737.751826 248.926548 736.904296 248.079017 
C 736.056765 247.231486 734.907105 246.755282 733.708516 246.755282 
C 732.509926 246.755282 731.360267 247.231486 730.512736 248.079017 
C 729.665206 248.926548 729.189001 250.076207 729.189001 251.274797 
C 729.189001 252.473386 729.665206 253.623046 730.512736 254.470576 
C 731.360267 255.318107 732.509926 255.794312 733.708516 255.794312 
z
" clip-path="url(#p03321b558f)" style="stroke: #000000; stroke-width: 1.5; stroke-linejoin: miter"/>
   </g>
   <g id="patch_27">
    <path d="M 733.708516 169.112333 
C 736.505224 169.112333 739.187763 168.001189 741.165335 166.023617 
C 743.142907 164.046046 744.254051 161.363506 744.254051 158.566798 
C 744.254051 155.770089 743.142907 153.08755 741.165335 151.109979 
C 739.187763 149.132407 736.505224 148.021263 733.708516 148.021263 
C 730.911807 148.021263 728.229268 149.132407 726.251697 151.109979 
C 724.274125 153.08755 723.162981 155.770089 723.162981 158.566798 
C 723.162981 161.363506 724.274125 164.046046 726.251697 166.023617 
C 728.229268 168.001189 730.911807 169.112333 733.708516 169.112333 
z
" clip-path="url(#p03321b558f)" style="stroke: #000000; stroke-width: 2; stroke-linejoin: miter"/>
   </g>
   <g id="patch_28">
    <path d="M 718.643466 451.755844 
L 748.773566 451.755844 
L 748.773566 421.625744 
L 718.643466 421.625744 
z
" clip-path="url(#p03321b558f)" style="fill: #ffffff; stroke: #000000; stroke-width: 1.5; stroke-linejoin: miter"/>
   </g>
   <g id="patch_29">
    <path d="M 712.313827 544.463843 
L 755.103204 544.463843 
L 755.103204 514.333743 
L 712.313827 514.333743 
z
" clip-path="url(#p03321b558f)" style="fill: #ffffff; stroke: #000000; stroke-width: 1.5; stroke-linejoin: miter"/>
   </g>
   <g id="patch_30">
    <path d="M 803.239515 255.794312 
C 804.438104 255.794312 805.587764 255.318107 806.435295 254.470576 
C 807.282825 253.623046 807.75903 252.473386 807.75903 251.274797 
C 807.75903 250.076207 807.282825 248.926548 806.435295 248.079017 
C 805.587764 247.231486 804.438104 246.755282 803.239515 246.755282 
C 802.040926 246.755282 800.891266 247.231486 800.043735 248.079017 
C 799.196205 248.926548 798.72 250.076207 798.72 251.274797 
C 798.72 252.473386 799.196205 253.623046 800.043735 254.470576 
C 800.891266 255.318107 802.040926 255.794312 803.239515 255.794312 
z
" clip-path="url(#p03321b558f)" style="stroke: #000000; stroke-width: 1.5; stroke-linejoin: miter"/>
   </g>
   <g id="patch_31">
    <path d="M 803.239515 169.112333 
C 806.036223 169.112333 808.718763 168.001189 810.696334 166.023617 
C 812.673906 164.046046 813.78505 161.363506 813.78505 158.566798 
C 813.78505 155.770089 812.673906 153.08755 810.696334 151.109979 
C 808.718763 149.132407 806.036223 148.021263 803.239515 148.021263 
C 800.442806 148.021263 797.760267 149.132407 795.782696 151.109979 
C 793.805124 153.08755 792.69398 155.770089 792.69398 158.566798 
C 792.69398 161.363506 793.805124 164.046046 795.782696 166.023617 
C 797.760267 168.001189 800.442806 169.112333 803.239515 169.112333 
z
" clip-path="url(#p03321b558f)" style="stroke: #000000; stroke-width: 2; stroke-linejoin: miter"/>
   </g>
   <g id="patch_32">
    <path d="M 788.174465 451.755844 
L 818.304565 451.755844 
L 818.304565 421.625744 
L 788.174465 421.625744 
z
" clip-path="url(#p03321b558f)" style="fill: #ffffff; stroke: #000000; stroke-width: 1.5; stroke-linejoin: miter"/>
   </g>
   <g id="patch_33">
    <path d="M 849.593514 116.732313 
C 850.792104 116.732313 851.941763 116.256109 852.789294 115.408578 
C 853.636825 114.561047 854.113029 113.411388 854.113029 112.212799 
C 854.113029 111.014209 853.636825 109.86455 852.789294 109.017019 
C 851.941763 108.169488 850.792104 107.693284 849.593514 107.693284 
C 848.394925 107.693284 847.245265 108.169488 846.397735 109.017019 
C 845.550204 109.86455 845.073999 111.014209 845.073999 112.212799 
C 845.073999 113.411388 845.550204 114.561047 846.397735 115.408578 
C 847.245265 116.256109 848.394925 116.732313 849.593514 116.732313 
z
" clip-path="url(#p03321b558f)" style="stroke: #000000; stroke-width: 1.5; stroke-linejoin: miter"/>
   </g>
   <g id="patch_34">
    <path d="M 849.593514 539.944328 
C 852.390223 539.944328 855.072762 538.833184 857.050334 536.855612 
C 859.027905 534.878041 860.139049 532.195502 860.139049 529.398793 
C 860.139049 526.602084 859.027905 523.919545 857.050334 521.941974 
C 855.072762 519.964402 852.390223 518.853258 849.593514 518.853258 
C 846.796806 518.853258 844.114267 519.964402 842.136695 521.941974 
C 840.159124 523.919545 839.047979 526.602084 839.047979 529.398793 
C 839.047979 532.195502 840.159124 534.878041 842.136695 536.855612 
C 844.114267 538.833184 846.796806 539.944328 849.593514 539.944328 
z
" clip-path="url(#p03321b558f)" style="stroke: #000000; stroke-width: 2; stroke-linejoin: miter"/>
   </g>
   <g id="patch_35">
    <path d="M 895.947514 394.85631 
C 897.146103 394.85631 898.295763 394.380105 899.143293 393.532574 
C 899.990824 392.685044 900.467029 391.535384 900.467029 390.336795 
C 900.467029 389.138205 899.990824 387.988546 899.143293 387.141015 
C 898.295763 386.293484 897.146103 385.81728 895.947514 385.81728 
C 894.748924 385.81728 893.599265 386.293484 892.751734 387.141015 
C 891.904203 387.988546 891.427999 389.138205 891.427999 390.336795 
C 891.427999 391.535384 891.904203 392.685044 892.751734 393.532574 
C 893.599265 394.380105 894.748924 394.85631 895.947514 394.85631 
z
" clip-path="url(#p03321b558f)" style="stroke: #000000; stroke-width: 1.5; stroke-linejoin: miter"/>
   </g>
   <g id="patch_36">
    <path d="M 895.947514 169.112333 
C 898.744222 169.112333 901.426761 168.001189 903.404333 166.023617 
C 905.381904 164.046046 906.493049 161.363506 906.493049 158.566798 
C 906.493049 155.770089 905.381904 153.08755 903.404333 151.109979 
C 901.426761 149.132407 898.744222 148.021263 895.947514 148.021263 
C 893.150805 148.021263 890.468266 149.132407 888.490694 151.109979 
C 886.513123 153.08755 885.401979 155.770089 885.401979 158.566798 
C 885.401979 161.363506 886.513123 164.046046 888.490694 166.023617 
C 890.468266 168.001189 893.150805 169.112333 895.947514 169.112333 
z
" clip-path="url(#p03321b558f)" style="stroke: #000000; stroke-width: 2; stroke-linejoin: miter"/>
   </g>
   <g id="patch_37">
    <path d="M 895.947514 441.210309 
C 897.146103 441.210309 898.295763 440.734105 899.143293 439.886574 
C 899.990824 439.039043 900.467029 437.889384 900.467029 436.690794 
C 900.467029 435.492205 899.990824 434.342545 899.143293 433.495015 
C 898.295763 432.647484 897.146103 432.171279 895.947514 432.171279 
C 894.748924 432.171279 893.599265 432.647484 892.751734 433.495015 
C 891.904203 434.342545 891.427999 435.492205 891.427999 436.690794 
C 891.427999 437.889384 891.904203 439.039043 892.751734 439.886574 
C 893.599265 440.734105 894.748924 441.210309 895.947514 441.210309 
z
" clip-path="url(#p03321b558f)" style="stroke: #000000; stroke-width: 1.5; stroke-linejoin: miter"/>
   </g>
   <g id="patch_38">
    <path d="M 895.947514 493.590328 
C 898.744222 493.590328 901.426761 492.479184 903.404333 490.501613 
C 905.381904 488.524041 906.493049 485.841502 906.493049 483.044794 
C 906.493049 480.248085 905.381904 477.565546 903.404333 475.587974 
C 901.426761 473.610403 898.744222 472.499259 895.947514 472.499259 
C 893.150805 472.499259 890.468266 473.610403 888.490694 475.587974 
C 886.513123 477.565546 885.401979 480.248085 885.401979 483.044794 
C 885.401979 485.841502 886.513123 488.524041 888.490694 490.501613 
C 890.468266 492.479184 893.150805 493.590328 895.947514 493.590328 
z
" clip-path="url(#p03321b558f)" style="stroke: #000000; stroke-width: 2; stroke-linejoin: miter"/>
   </g>
   <g id="patch_39">
    <path d="M 880.882464 127.277848 
L 911.012563 127.277848 
L 911.012563 97.147749 
L 880.882464 97.147749 
z
" clip-path="url(#p03321b558f)" style="fill: #ffffff; stroke: #000000; stroke-width: 1.5; stroke-linejoin: miter"/>
   </g>
   <g id="patch_40">
    <path d="M 950.413463 173.631848 
L 980.543563 173.631848 
L 980.543563 143.501748 
L 950.413463 143.501748 
z
" clip-path="url(#p03321b558f)" style="fill: #ffffff; stroke: #000000; stroke-width: 1.5; stroke-linejoin: miter"/>
   </g>
   <g id="patch_41">
    <path d="M 944.083824 498.109843 
L 986.873201 498.109843 
L 986.873201 467.979744 
L 944.083824 467.979744 
z
" clip-path="url(#p03321b558f)" style="fill: #ffffff; stroke: #000000; stroke-width: 1.5; stroke-linejoin: miter"/>
   </g>
   <g id="patch_42">
    <path d="M 1035.009512 394.85631 
C 1036.208101 394.85631 1037.357761 394.380105 1038.205292 393.532574 
C 1039.052822 392.685044 1039.529027 391.535384 1039.529027 390.336795 
C 1039.529027 389.138205 1039.052822 387.988546 1038.205292 387.141015 
C 1037.357761 386.293484 1036.208101 385.81728 1035.009512 385.81728 
C 1033.810922 385.81728 1032.661263 386.293484 1031.813732 387.141015 
C 1030.966202 387.988546 1030.489997 389.138205 1030.489997 390.336795 
C 1030.489997 391.535384 1030.966202 392.685044 1031.813732 393.532574 
C 1032.661263 394.380105 1033.810922 394.85631 1035.009512 394.85631 
z
" clip-path="url(#p03321b558f)" style="stroke: #000000; stroke-width: 1.5; stroke-linejoin: miter"/>
   </g>
   <g id="patch_43">
    <path d="M 1035.009512 169.112333 
C 1037.80622 169.112333 1040.488759 168.001189 1042.466331 166.023617 
C 1044.443903 164.046046 1045.555047 161.363506 1045.555047 158.566798 
C 1045.555047 155.770089 1044.443903 153.08755 1042.466331 151.109979 
C 1040.488759 149.132407 1037.80622 148.021263 1035.009512 148.021263 
C 1032.212803 148.021263 1029.530264 149.132407 1027.552693 151.109979 
C 1025.575121 153.08755 1024.463977 155.770089 1024.463977 158.566798 
C 1024.463977 161.363506 1025.575121 164.046046 1027.552693 166.023617 
C 1029.530264 168.001189 1032.212803 169.112333 1035.009512 169.112333 
z
" clip-path="url(#p03321b558f)" style="stroke: #000000; stroke-width: 2; stroke-linejoin: miter"/>
   </g>
   <g id="patch_44">
    <path d="M 1035.009512 441.210309 
C 1036.208101 441.210309 1037.357761 440.734105 1038.205292 439.886574 
C 1039.052822 439.039043 1039.529027 437.889384 1039.529027 436.690794 
C 1039.529027 435.492205 1039.052822 434.342545 1038.205292 433.495015 
C 1037.357761 432.647484 1036.208101 432.171279 1035.009512 432.171279 
C 1033.810922 432.171279 1032.661263 432.647484 1031.813732 433.495015 
C 1030.966202 434.342545 1030.489997 435.492205 1030.489997 436.690794 
C 1030.489997 437.889384 1030.966202 439.039043 1031.813732 439.886574 
C 1032.661263 440.734105 1033.810922 441.210309 1035.009512 441.210309 
z
" clip-path="url(#p03321b558f)" style="stroke: #000000; stroke-width: 1.5; stroke-linejoin: miter"/>
   </g>
   <g id="patch_45">
    <path d="M 1035.009512 493.590328 
C 1037.80622 493.590328 1040.488759 492.479184 1042.466331 490.501613 
C 1044.443903 488.524041 1045.555047 485.841502 1045.555047 483.044794 
C 1045.555047 480.248085 1044.443903 477.565546 1042.466331 475.587974 
C 1040.488759 473.610403 1037.80622 472.499259 1035.009512 472.499259 
C 1032.212803 472.499259 1029.530264 473.610403 1027.552693 475.587974 
C 1025.575121 477.565546 1024.463977 480.248085 1024.463977 483.044794 
C 1024.463977 485.841502 1025.575121 488.524041 1027.552693 490.501613 
C 1029.530264 492.479184 1032.212803 493.590328 1035.009512 493.590328 
z
" clip-path="url(#p03321b558f)" style="stroke: #000000; stroke-width: 2; stroke-linejoin: miter"/>
   </g>
   <g id="patch_46">
    <path d="M 1066.298461 405.401845 
L 1096.428561 405.401845 
L 1096.428561 375.271745 
L 1066.298461 375.271745 
z
" clip-path="url(#p03321b558f)" style="fill: #ffffff; stroke: #000000; stroke-width: 1.5; stroke-linejoin: miter"/>
   </g>
   <g id="patch_47">
    <path d="M 1081.363511 255.794312 
C 1082.562101 255.794312 1083.71176 255.318107 1084.559291 254.470576 
C 1085.406822 253.623046 1085.883026 252.473386 1085.883026 251.274797 
C 1085.883026 250.076207 1085.406822 248.926548 1084.559291 248.079017 
C 1083.71176 247.231486 1082.562101 246.755282 1081.363511 246.755282 
C 1080.164922 246.755282 1079.015262 247.231486 1078.167732 248.079017 
C 1077.320201 248.926548 1076.843996 250.076207 1076.843996 251.274797 
C 1076.843996 252.473386 1077.320201 253.623046 1078.167732 254.470576 
C 1079.015262 255.318107 1080.164922 255.794312 1081.363511 255.794312 
z
" clip-path="url(#p03321b558f)" style="stroke: #000000; stroke-width: 1.5; stroke-linejoin: miter"/>
   </g>
   <g id="patch_48">
    <path d="M 1081.363511 169.112333 
C 1084.16022 169.112333 1086.842759 168.001189 1088.82033 166.023617 
C 1090.797902 164.046046 1091.909046 161.363506 1091.909046 158.566798 
C 1091.909046 155.770089 1090.797902 153.08755 1088.82033 151.109979 
C 1086.842759 149.132407 1084.16022 148.021263 1081.363511 148.021263 
C 1078.566803 148.021263 1075.884264 149.132407 1073.906692 151.109979 
C 1071.92912 153.08755 1070.817976 155.770089 1070.817976 158.566798 
C 1070.817976 161.363506 1071.92912 164.046046 1073.906692 166.023617 
C 1075.884264 168.001189 1078.566803 169.112333 1081.363511 169.112333 
z
" clip-path="url(#p03321b558f)" style="stroke: #000000; stroke-width: 2; stroke-linejoin: miter"/>
   </g>
   <g id="patch_49">
    <path d="M 1066.298461 451.755844 
L 1096.428561 451.755844 
L 1096.428561 421.625744 
L 1066.298461 421.625744 
z
" clip-path="url(#p03321b558f)" style="fill: #ffffff; stroke: #000000; stroke-width: 1.5; stroke-linejoin: miter"/>
   </g>
   <g id="patch_50">
    <path d="M 1112.652461 266.339846 
L 1142.78256 266.339846 
L 1142.78256 236.209747 
L 1112.652461 236.209747 
z
" clip-path="url(#p03321b558f)" style="fill: #ffffff; stroke: #000000; stroke-width: 1.5; stroke-linejoin: miter"/>
   </g>
   <g id="patch_51">
    <path d="M 1112.652461 451.755844 
L 1142.78256 451.755844 
L 1142.78256 421.625744 
L 1112.652461 421.625744 
z
" clip-path="url(#p03321b558f)" style="fill: #ffffff; stroke: #000000; stroke-width: 1.5; stroke-linejoin: miter"/>
   </g>
   <g id="text_2">
    <g clip-path="url(#p03321b558f)">
     <!-- ${q}_{0}$ -->
     <g transform="translate(194.652063 116.663775)scale(0.1625 -0.1625)">
      <defs>
       <path id="DejaVuSans-Oblique-71" d="M 2669 525 
Q 2438 222 2123 65 
Q 1809 -91 1428 -91 
Q 897 -91 595 267 
Q 294 625 294 1253 
Q 294 1759 480 2231 
Q 666 2703 1013 3078 
Q 1238 3322 1530 3453 
Q 1822 3584 2144 3584 
Q 2531 3584 2781 3431 
Q 3031 3278 3144 2969 
L 3244 3494 
L 3822 3494 
L 2888 -1319 
L 2309 -1319 
L 2669 525 
z
M 891 1338 
Q 891 875 1084 633 
Q 1278 391 1644 391 
Q 2188 391 2572 911 
Q 2956 1431 2956 2175 
Q 2956 2625 2757 2864 
Q 2559 3103 2188 3103 
Q 1916 3103 1684 2976 
Q 1453 2850 1281 2606 
Q 1100 2350 995 2006 
Q 891 1663 891 1338 
z
" transform="scale(0.015625)"/>
       <path id="DejaVuSans-30" d="M 2034 4250 
Q 1547 4250 1301 3770 
Q 1056 3291 1056 2328 
Q 1056 1369 1301 889 
Q 1547 409 2034 409 
Q 2525 409 2770 889 
Q 3016 1369 3016 2328 
Q 3016 3291 2770 3770 
Q 2525 4250 2034 4250 
z
M 2034 4750 
Q 2819 4750 3233 4129 
Q 3647 3509 3647 2328 
Q 3647 1150 3233 529 
Q 2819 -91 2034 -91 
Q 1250 -91 836 529 
Q 422 1150 422 2328 
Q 422 3509 836 4129 
Q 1250 4750 2034 4750 
z
" transform="scale(0.015625)"/>
      </defs>
      <use xlink:href="#DejaVuSans-Oblique-71"/>
      <use xlink:href="#DejaVuSans-30" transform="translate(63.476562 -16.40625)scale(0.7)"/>
     </g>
    </g>
   </g>
   <g id="text_3">
    <g clip-path="url(#p03321b558f)">
     <!-- ${q}_{1}$ -->
     <g transform="translate(194.652063 163.017774)scale(0.1625 -0.1625)">
      <use xlink:href="#DejaVuSans-Oblique-71"/>
      <use xlink:href="#DejaVuSans-31" transform="translate(63.476562 -16.40625)scale(0.7)"/>
     </g>
    </g>
   </g>
   <g id="text_4">
    <g clip-path="url(#p03321b558f)">
     <!-- ${q}_{2}$ -->
     <g transform="translate(194.652063 209.371774)scale(0.1625 -0.1625)">
      <use xlink:href="#DejaVuSans-Oblique-71"/>
      <use xlink:href="#DejaVuSans-32" transform="translate(63.476562 -16.40625)scale(0.7)"/>
     </g>
    </g>
   </g>
   <g id="text_5">
    <g clip-path="url(#p03321b558f)">
     <!-- ${q}_{3}$ -->
     <g transform="translate(194.652063 255.725773)scale(0.1625 -0.1625)">
      <use xlink:href="#DejaVuSans-Oblique-71"/>
      <use xlink:href="#DejaVuSans-33" transform="translate(63.476562 -16.40625)scale(0.7)"/>
     </g>
    </g>
   </g>
   <g id="text_6">
    <g clip-path="url(#p03321b558f)">
     <!-- ${q}_{4}$ -->
     <g transform="translate(194.652063 302.079773)scale(0.1625 -0.1625)">
      <defs>
       <path id="DejaVuSans-34" d="M 2419 4116 
L 825 1625 
L 2419 1625 
L 2419 4116 
z
M 2253 4666 
L 3047 4666 
L 3047 1625 
L 3713 1625 
L 3713 1100 
L 3047 1100 
L 3047 0 
L 2419 0 
L 2419 1100 
L 313 1100 
L 313 1709 
L 2253 4666 
z
" transform="scale(0.015625)"/>
      </defs>
      <use xlink:href="#DejaVuSans-Oblique-71"/>
      <use xlink:href="#DejaVuSans-34" transform="translate(63.476562 -16.40625)scale(0.7)"/>
     </g>
    </g>
   </g>
   <g id="text_7">
    <g clip-path="url(#p03321b558f)">
     <!-- ${q}_{5}$ -->
     <g transform="translate(194.652063 348.433772)scale(0.1625 -0.1625)">
      <defs>
       <path id="DejaVuSans-35" d="M 691 4666 
L 3169 4666 
L 3169 4134 
L 1269 4134 
L 1269 2991 
Q 1406 3038 1543 3061 
Q 1681 3084 1819 3084 
Q 2600 3084 3056 2656 
Q 3513 2228 3513 1497 
Q 3513 744 3044 326 
Q 2575 -91 1722 -91 
Q 1428 -91 1123 -41 
Q 819 9 494 109 
L 494 744 
Q 775 591 1075 516 
Q 1375 441 1709 441 
Q 2250 441 2565 725 
Q 2881 1009 2881 1497 
Q 2881 1984 2565 2268 
Q 2250 2553 1709 2553 
Q 1456 2553 1204 2497 
Q 953 2441 691 2322 
L 691 4666 
z
" transform="scale(0.015625)"/>
      </defs>
      <use xlink:href="#DejaVuSans-Oblique-71"/>
      <use xlink:href="#DejaVuSans-35" transform="translate(63.476562 -16.40625)scale(0.7)"/>
     </g>
    </g>
   </g>
   <g id="text_8">
    <g clip-path="url(#p03321b558f)">
     <!-- ${q}_{6}$ -->
     <g transform="translate(194.652063 394.787771)scale(0.1625 -0.1625)">
      <defs>
       <path id="DejaVuSans-36" d="M 2113 2584 
Q 1688 2584 1439 2293 
Q 1191 2003 1191 1497 
Q 1191 994 1439 701 
Q 1688 409 2113 409 
Q 2538 409 2786 701 
Q 3034 994 3034 1497 
Q 3034 2003 2786 2293 
Q 2538 2584 2113 2584 
z
M 3366 4563 
L 3366 3988 
Q 3128 4100 2886 4159 
Q 2644 4219 2406 4219 
Q 1781 4219 1451 3797 
Q 1122 3375 1075 2522 
Q 1259 2794 1537 2939 
Q 1816 3084 2150 3084 
Q 2853 3084 3261 2657 
Q 3669 2231 3669 1497 
Q 3669 778 3244 343 
Q 2819 -91 2113 -91 
Q 1303 -91 875 529 
Q 447 1150 447 2328 
Q 447 3434 972 4092 
Q 1497 4750 2381 4750 
Q 2619 4750 2861 4703 
Q 3103 4656 3366 4563 
z
" transform="scale(0.015625)"/>
      </defs>
      <use xlink:href="#DejaVuSans-Oblique-71"/>
      <use xlink:href="#DejaVuSans-36" transform="translate(63.476562 -16.40625)scale(0.7)"/>
     </g>
    </g>
   </g>
   <g id="text_9">
    <g clip-path="url(#p03321b558f)">
     <!-- ${q}_{7}$ -->
     <g transform="translate(194.652063 441.141771)scale(0.1625 -0.1625)">
      <defs>
       <path id="DejaVuSans-37" d="M 525 4666 
L 3525 4666 
L 3525 4397 
L 1831 0 
L 1172 0 
L 2766 4134 
L 525 4134 
L 525 4666 
z
" transform="scale(0.015625)"/>
      </defs>
      <use xlink:href="#DejaVuSans-Oblique-71"/>
      <use xlink:href="#DejaVuSans-37" transform="translate(63.476562 -16.40625)scale(0.7)"/>
     </g>
    </g>
   </g>
   <g id="text_10">
    <g clip-path="url(#p03321b558f)">
     <!-- ${q}_{8}$ -->
     <g transform="translate(194.652063 487.49577)scale(0.1625 -0.1625)">
      <defs>
       <path id="DejaVuSans-38" d="M 2034 2216 
Q 1584 2216 1326 1975 
Q 1069 1734 1069 1313 
Q 1069 891 1326 650 
Q 1584 409 2034 409 
Q 2484 409 2743 651 
Q 3003 894 3003 1313 
Q 3003 1734 2745 1975 
Q 2488 2216 2034 2216 
z
M 1403 2484 
Q 997 2584 770 2862 
Q 544 3141 544 3541 
Q 544 4100 942 4425 
Q 1341 4750 2034 4750 
Q 2731 4750 3128 4425 
Q 3525 4100 3525 3541 
Q 3525 3141 3298 2862 
Q 3072 2584 2669 2484 
Q 3125 2378 3379 2068 
Q 3634 1759 3634 1313 
Q 3634 634 3220 271 
Q 2806 -91 2034 -91 
Q 1263 -91 848 271 
Q 434 634 434 1313 
Q 434 1759 690 2068 
Q 947 2378 1403 2484 
z
M 1172 3481 
Q 1172 3119 1398 2916 
Q 1625 2713 2034 2713 
Q 2441 2713 2670 2916 
Q 2900 3119 2900 3481 
Q 2900 3844 2670 4047 
Q 2441 4250 2034 4250 
Q 1625 4250 1398 4047 
Q 1172 3844 1172 3481 
z
" transform="scale(0.015625)"/>
      </defs>
      <use xlink:href="#DejaVuSans-Oblique-71"/>
      <use xlink:href="#DejaVuSans-38" transform="translate(63.476562 -16.40625)scale(0.7)"/>
     </g>
    </g>
   </g>
   <g id="text_11">
    <g clip-path="url(#p03321b558f)">
     <!-- ${q}_{9}$ -->
     <g transform="translate(194.652063 533.84977)scale(0.1625 -0.1625)">
      <defs>
       <path id="DejaVuSans-39" d="M 703 97 
L 703 672 
Q 941 559 1184 500 
Q 1428 441 1663 441 
Q 2288 441 2617 861 
Q 2947 1281 2994 2138 
Q 2813 1869 2534 1725 
Q 2256 1581 1919 1581 
Q 1219 1581 811 2004 
Q 403 2428 403 3163 
Q 403 3881 828 4315 
Q 1253 4750 1959 4750 
Q 2769 4750 3195 4129 
Q 3622 3509 3622 2328 
Q 3622 1225 3098 567 
Q 2575 -91 1691 -91 
Q 1453 -91 1209 -44 
Q 966 3 703 97 
z
M 1959 2075 
Q 2384 2075 2632 2365 
Q 2881 2656 2881 3163 
Q 2881 3666 2632 3958 
Q 2384 4250 1959 4250 
Q 1534 4250 1286 3958 
Q 1038 3666 1038 3163 
Q 1038 2656 1286 2365 
Q 1534 2075 1959 2075 
z
" transform="scale(0.015625)"/>
      </defs>
      <use xlink:href="#DejaVuSans-Oblique-71"/>
      <use xlink:href="#DejaVuSans-39" transform="translate(63.476562 -16.40625)scale(0.7)"/>
     </g>
    </g>
   </g>
   <g id="text_12">
    <g clip-path="url(#p03321b558f)">
     <!-- H -->
     <g transform="translate(242.103319 254.861984)scale(0.13 -0.13)">
      <use xlink:href="#DejaVuSans-48"/>
     </g>
    </g>
   </g>
   <g id="text_13">
    <g clip-path="url(#p03321b558f)">
     <!-- H -->
     <g transform="translate(242.103319 393.923982)scale(0.13 -0.13)">
      <use xlink:href="#DejaVuSans-48"/>
     </g>
    </g>
   </g>
   <g id="text_14">
    <g clip-path="url(#p03321b558f)">
     <!-- S -->
     <g transform="translate(242.865038 440.277982)scale(0.13 -0.13)">
      <use xlink:href="#DejaVuSans-53"/>
     </g>
    </g>
   </g>
   <g id="text_15">
    <g clip-path="url(#p03321b558f)">
     <!-- H -->
     <g transform="translate(242.103319 115.799986)scale(0.13 -0.13)">
      <use xlink:href="#DejaVuSans-48"/>
     </g>
    </g>
   </g>
   <g id="line2d_27">
    <path d="M 293.345522 164.592818 
L 293.345522 152.540778 
" clip-path="url(#p03321b558f)" style="fill: none; stroke: #ffffff; stroke-width: 2; stroke-linecap: square"/>
   </g>
   <g id="line2d_28">
    <path d="M 287.319502 158.566798 
L 299.371542 158.566798 
" clip-path="url(#p03321b558f)" style="fill: none; stroke: #ffffff; stroke-width: 2; stroke-linecap: square"/>
   </g>
   <g id="text_16">
    <g clip-path="url(#p03321b558f)">
     <!-- H -->
     <g transform="translate(288.457319 440.277982)scale(0.13 -0.13)">
      <use xlink:href="#DejaVuSans-48"/>
     </g>
    </g>
   </g>
   <g id="line2d_29">
    <path d="M 339.699521 535.424813 
L 339.699521 523.372773 
" clip-path="url(#p03321b558f)" style="fill: none; stroke: #ffffff; stroke-width: 2; stroke-linecap: square"/>
   </g>
   <g id="line2d_30">
    <path d="M 333.673501 529.398793 
L 345.725541 529.398793 
" clip-path="url(#p03321b558f)" style="fill: none; stroke: #ffffff; stroke-width: 2; stroke-linecap: square"/>
   </g>
   <g id="line2d_31">
    <path d="M 409.23052 164.592818 
L 409.23052 152.540778 
" clip-path="url(#p03321b558f)" style="fill: none; stroke: #ffffff; stroke-width: 2; stroke-linecap: square"/>
   </g>
   <g id="line2d_32">
    <path d="M 403.2045 158.566798 
L 415.25654 158.566798 
" clip-path="url(#p03321b558f)" style="fill: none; stroke: #ffffff; stroke-width: 2; stroke-linecap: square"/>
   </g>
   <g id="line2d_33">
    <path d="M 409.23052 489.070814 
L 409.23052 477.018774 
" clip-path="url(#p03321b558f)" style="fill: none; stroke: #ffffff; stroke-width: 2; stroke-linecap: square"/>
   </g>
   <g id="line2d_34">
    <path d="M 403.2045 483.044794 
L 415.25654 483.044794 
" clip-path="url(#p03321b558f)" style="fill: none; stroke: #ffffff; stroke-width: 2; stroke-linecap: square"/>
   </g>
   <g id="text_17">
    <g clip-path="url(#p03321b558f)">
     <!-- $-$0.00492 -->
     <g transform="translate(389.39052 540.645323)scale(0.08 -0.08)">
      <defs>
       <path id="DejaVuSans-2212" d="M 678 2272 
L 4684 2272 
L 4684 1741 
L 678 1741 
L 678 2272 
z
" transform="scale(0.015625)"/>
       <path id="DejaVuSans-2e" d="M 684 794 
L 1344 794 
L 1344 0 
L 684 0 
L 684 794 
z
" transform="scale(0.015625)"/>
      </defs>
      <use xlink:href="#DejaVuSans-2212" transform="translate(0 0.78125)"/>
      <use xlink:href="#DejaVuSans-30" transform="translate(83.789062 0.78125)"/>
      <use xlink:href="#DejaVuSans-2e" transform="translate(147.412109 0.78125)"/>
      <use xlink:href="#DejaVuSans-30" transform="translate(179.199219 0.78125)"/>
      <use xlink:href="#DejaVuSans-30" transform="translate(242.822266 0.78125)"/>
      <use xlink:href="#DejaVuSans-34" transform="translate(306.445312 0.78125)"/>
      <use xlink:href="#DejaVuSans-39" transform="translate(370.068359 0.78125)"/>
      <use xlink:href="#DejaVuSans-32" transform="translate(431.941406 0.78125)"/>
     </g>
    </g>
   </g>
   <g id="text_18">
    <g clip-path="url(#p03321b558f)">
     <!-- $\mathrm{R_Z}$ -->
     <g transform="translate(401.30052 528.466466)scale(0.13 -0.13)">
      <defs>
       <path id="DejaVuSans-5a" d="M 359 4666 
L 4025 4666 
L 4025 4184 
L 1075 531 
L 4097 531 
L 4097 0 
L 288 0 
L 288 481 
L 3238 4134 
L 359 4134 
L 359 4666 
z
" transform="scale(0.015625)"/>
      </defs>
      <use xlink:href="#DejaVuSans-52" transform="translate(0 0.09375)"/>
      <use xlink:href="#DejaVuSans-5a" transform="translate(70.439453 -16.3125)scale(0.7)"/>
     </g>
    </g>
   </g>
   <g id="text_19">
    <g clip-path="url(#p03321b558f)">
     <!-- 0.0628 -->
     <g transform="translate(487.942269 169.813328)scale(0.08 -0.08)">
      <use xlink:href="#DejaVuSans-30"/>
      <use xlink:href="#DejaVuSans-2e" x="63.623047"/>
      <use xlink:href="#DejaVuSans-30" x="95.410156"/>
      <use xlink:href="#DejaVuSans-36" x="159.033203"/>
      <use xlink:href="#DejaVuSans-32" x="222.65625"/>
      <use xlink:href="#DejaVuSans-38" x="286.279297"/>
     </g>
    </g>
   </g>
   <g id="text_20">
    <g clip-path="url(#p03321b558f)">
     <!-- $\mathrm{R_Z}$ -->
     <g transform="translate(494.008519 157.63447)scale(0.13 -0.13)">
      <use xlink:href="#DejaVuSans-52" transform="translate(0 0.09375)"/>
      <use xlink:href="#DejaVuSans-5a" transform="translate(70.439453 -16.3125)scale(0.7)"/>
     </g>
    </g>
   </g>
   <g id="text_21">
    <g clip-path="url(#p03321b558f)">
     <!-- $-$0.00492 -->
     <g transform="translate(482.098519 494.291323)scale(0.08 -0.08)">
      <use xlink:href="#DejaVuSans-2212" transform="translate(0 0.78125)"/>
      <use xlink:href="#DejaVuSans-30" transform="translate(83.789062 0.78125)"/>
      <use xlink:href="#DejaVuSans-2e" transform="translate(147.412109 0.78125)"/>
      <use xlink:href="#DejaVuSans-30" transform="translate(179.199219 0.78125)"/>
      <use xlink:href="#DejaVuSans-30" transform="translate(242.822266 0.78125)"/>
      <use xlink:href="#DejaVuSans-34" transform="translate(306.445312 0.78125)"/>
      <use xlink:href="#DejaVuSans-39" transform="translate(370.068359 0.78125)"/>
      <use xlink:href="#DejaVuSans-32" transform="translate(431.941406 0.78125)"/>
     </g>
    </g>
   </g>
   <g id="text_22">
    <g clip-path="url(#p03321b558f)">
     <!-- $\mathrm{R_Z}$ -->
     <g transform="translate(494.008519 482.112466)scale(0.13 -0.13)">
      <use xlink:href="#DejaVuSans-52" transform="translate(0 0.09375)"/>
      <use xlink:href="#DejaVuSans-5a" transform="translate(70.439453 -16.3125)scale(0.7)"/>
     </g>
    </g>
   </g>
   <g id="line2d_35">
    <path d="M 571.469518 535.424813 
L 571.469518 523.372773 
" clip-path="url(#p03321b558f)" style="fill: none; stroke: #ffffff; stroke-width: 2; stroke-linecap: square"/>
   </g>
   <g id="line2d_36">
    <path d="M 565.443498 529.398793 
L 577.495538 529.398793 
" clip-path="url(#p03321b558f)" style="fill: none; stroke: #ffffff; stroke-width: 2; stroke-linecap: square"/>
   </g>
   <g id="line2d_37">
    <path d="M 617.823517 164.592818 
L 617.823517 152.540778 
" clip-path="url(#p03321b558f)" style="fill: none; stroke: #ffffff; stroke-width: 2; stroke-linecap: square"/>
   </g>
   <g id="line2d_38">
    <path d="M 611.797497 158.566798 
L 623.849537 158.566798 
" clip-path="url(#p03321b558f)" style="fill: none; stroke: #ffffff; stroke-width: 2; stroke-linecap: square"/>
   </g>
   <g id="line2d_39">
    <path d="M 617.823517 489.070814 
L 617.823517 477.018774 
" clip-path="url(#p03321b558f)" style="fill: none; stroke: #ffffff; stroke-width: 2; stroke-linecap: square"/>
   </g>
   <g id="line2d_40">
    <path d="M 611.797497 483.044794 
L 623.849537 483.044794 
" clip-path="url(#p03321b558f)" style="fill: none; stroke: #ffffff; stroke-width: 2; stroke-linecap: square"/>
   </g>
   <g id="line2d_41">
    <path d="M 664.177517 535.424813 
L 664.177517 523.372773 
" clip-path="url(#p03321b558f)" style="fill: none; stroke: #ffffff; stroke-width: 2; stroke-linecap: square"/>
   </g>
   <g id="line2d_42">
    <path d="M 658.151497 529.398793 
L 670.203537 529.398793 
" clip-path="url(#p03321b558f)" style="fill: none; stroke: #ffffff; stroke-width: 2; stroke-linecap: square"/>
   </g>
   <g id="line2d_43">
    <path d="M 733.708516 164.592818 
L 733.708516 152.540778 
" clip-path="url(#p03321b558f)" style="fill: none; stroke: #ffffff; stroke-width: 2; stroke-linecap: square"/>
   </g>
   <g id="line2d_44">
    <path d="M 727.682496 158.566798 
L 739.734536 158.566798 
" clip-path="url(#p03321b558f)" style="fill: none; stroke: #ffffff; stroke-width: 2; stroke-linecap: square"/>
   </g>
   <g id="text_23">
    <g clip-path="url(#p03321b558f)">
     <!-- H -->
     <g transform="translate(728.820313 440.277982)scale(0.13 -0.13)">
      <use xlink:href="#DejaVuSans-48"/>
     </g>
    </g>
   </g>
   <g id="text_24">
    <g clip-path="url(#p03321b558f)">
     <!-- $-$0.00492 -->
     <g transform="translate(713.868516 540.645323)scale(0.08 -0.08)">
      <use xlink:href="#DejaVuSans-2212" transform="translate(0 0.78125)"/>
      <use xlink:href="#DejaVuSans-30" transform="translate(83.789062 0.78125)"/>
      <use xlink:href="#DejaVuSans-2e" transform="translate(147.412109 0.78125)"/>
      <use xlink:href="#DejaVuSans-30" transform="translate(179.199219 0.78125)"/>
      <use xlink:href="#DejaVuSans-30" transform="translate(242.822266 0.78125)"/>
      <use xlink:href="#DejaVuSans-34" transform="translate(306.445312 0.78125)"/>
      <use xlink:href="#DejaVuSans-39" transform="translate(370.068359 0.78125)"/>
      <use xlink:href="#DejaVuSans-32" transform="translate(431.941406 0.78125)"/>
     </g>
    </g>
   </g>
   <g id="text_25">
    <g clip-path="url(#p03321b558f)">
     <!-- $\mathrm{R_Z}$ -->
     <g transform="translate(725.778516 528.466466)scale(0.13 -0.13)">
      <use xlink:href="#DejaVuSans-52" transform="translate(0 0.09375)"/>
      <use xlink:href="#DejaVuSans-5a" transform="translate(70.439453 -16.3125)scale(0.7)"/>
     </g>
    </g>
   </g>
   <g id="line2d_45">
    <path d="M 803.239515 164.592818 
L 803.239515 152.540778 
" clip-path="url(#p03321b558f)" style="fill: none; stroke: #ffffff; stroke-width: 2; stroke-linecap: square"/>
   </g>
   <g id="line2d_46">
    <path d="M 797.213495 158.566798 
L 809.265535 158.566798 
" clip-path="url(#p03321b558f)" style="fill: none; stroke: #ffffff; stroke-width: 2; stroke-linecap: square"/>
   </g>
   <g id="text_26">
    <g clip-path="url(#p03321b558f)">
     <!-- H -->
     <g transform="translate(798.351312 440.277982)scale(0.13 -0.13)">
      <use xlink:href="#DejaVuSans-48"/>
     </g>
    </g>
   </g>
   <g id="line2d_47">
    <path d="M 849.593514 535.424813 
L 849.593514 523.372773 
" clip-path="url(#p03321b558f)" style="fill: none; stroke: #ffffff; stroke-width: 2; stroke-linecap: square"/>
   </g>
   <g id="line2d_48">
    <path d="M 843.567494 529.398793 
L 855.619534 529.398793 
" clip-path="url(#p03321b558f)" style="fill: none; stroke: #ffffff; stroke-width: 2; stroke-linecap: square"/>
   </g>
   <g id="line2d_49">
    <path d="M 895.947514 164.592818 
L 895.947514 152.540778 
" clip-path="url(#p03321b558f)" style="fill: none; stroke: #ffffff; stroke-width: 2; stroke-linecap: square"/>
   </g>
   <g id="line2d_50">
    <path d="M 889.921494 158.566798 
L 901.973534 158.566798 
" clip-path="url(#p03321b558f)" style="fill: none; stroke: #ffffff; stroke-width: 2; stroke-linecap: square"/>
   </g>
   <g id="line2d_51">
    <path d="M 895.947514 489.070814 
L 895.947514 477.018774 
" clip-path="url(#p03321b558f)" style="fill: none; stroke: #ffffff; stroke-width: 2; stroke-linecap: square"/>
   </g>
   <g id="line2d_52">
    <path d="M 889.921494 483.044794 
L 901.973534 483.044794 
" clip-path="url(#p03321b558f)" style="fill: none; stroke: #ffffff; stroke-width: 2; stroke-linecap: square"/>
   </g>
   <g id="text_27">
    <g clip-path="url(#p03321b558f)">
     <!-- H -->
     <g transform="translate(891.059311 115.799986)scale(0.13 -0.13)">
      <use xlink:href="#DejaVuSans-48"/>
     </g>
    </g>
   </g>
   <g id="text_28">
    <g clip-path="url(#p03321b558f)">
     <!-- 0.0628 -->
     <g transform="translate(951.482263 169.813328)scale(0.08 -0.08)">
      <use xlink:href="#DejaVuSans-30"/>
      <use xlink:href="#DejaVuSans-2e" x="63.623047"/>
      <use xlink:href="#DejaVuSans-30" x="95.410156"/>
      <use xlink:href="#DejaVuSans-36" x="159.033203"/>
      <use xlink:href="#DejaVuSans-32" x="222.65625"/>
      <use xlink:href="#DejaVuSans-38" x="286.279297"/>
     </g>
    </g>
   </g>
   <g id="text_29">
    <g clip-path="url(#p03321b558f)">
     <!-- $\mathrm{R_Z}$ -->
     <g transform="translate(957.548513 157.63447)scale(0.13 -0.13)">
      <use xlink:href="#DejaVuSans-52" transform="translate(0 0.09375)"/>
      <use xlink:href="#DejaVuSans-5a" transform="translate(70.439453 -16.3125)scale(0.7)"/>
     </g>
    </g>
   </g>
   <g id="text_30">
    <g clip-path="url(#p03321b558f)">
     <!-- $-$0.00492 -->
     <g transform="translate(945.638513 494.291323)scale(0.08 -0.08)">
      <use xlink:href="#DejaVuSans-2212" transform="translate(0 0.78125)"/>
      <use xlink:href="#DejaVuSans-30" transform="translate(83.789062 0.78125)"/>
      <use xlink:href="#DejaVuSans-2e" transform="translate(147.412109 0.78125)"/>
      <use xlink:href="#DejaVuSans-30" transform="translate(179.199219 0.78125)"/>
      <use xlink:href="#DejaVuSans-30" transform="translate(242.822266 0.78125)"/>
      <use xlink:href="#DejaVuSans-34" transform="translate(306.445312 0.78125)"/>
      <use xlink:href="#DejaVuSans-39" transform="translate(370.068359 0.78125)"/>
      <use xlink:href="#DejaVuSans-32" transform="translate(431.941406 0.78125)"/>
     </g>
    </g>
   </g>
   <g id="text_31">
    <g clip-path="url(#p03321b558f)">
     <!-- $\mathrm{R_Z}$ -->
     <g transform="translate(957.548513 482.112466)scale(0.13 -0.13)">
      <use xlink:href="#DejaVuSans-52" transform="translate(0 0.09375)"/>
      <use xlink:href="#DejaVuSans-5a" transform="translate(70.439453 -16.3125)scale(0.7)"/>
     </g>
    </g>
   </g>
   <g id="line2d_53">
    <path d="M 1035.009512 164.592818 
L 1035.009512 152.540778 
" clip-path="url(#p03321b558f)" style="fill: none; stroke: #ffffff; stroke-width: 2; stroke-linecap: square"/>
   </g>
   <g id="line2d_54">
    <path d="M 1028.983492 158.566798 
L 1041.035532 158.566798 
" clip-path="url(#p03321b558f)" style="fill: none; stroke: #ffffff; stroke-width: 2; stroke-linecap: square"/>
   </g>
   <g id="line2d_55">
    <path d="M 1035.009512 489.070814 
L 1035.009512 477.018774 
" clip-path="url(#p03321b558f)" style="fill: none; stroke: #ffffff; stroke-width: 2; stroke-linecap: square"/>
   </g>
   <g id="line2d_56">
    <path d="M 1028.983492 483.044794 
L 1041.035532 483.044794 
" clip-path="url(#p03321b558f)" style="fill: none; stroke: #ffffff; stroke-width: 2; stroke-linecap: square"/>
   </g>
   <g id="text_32">
    <g clip-path="url(#p03321b558f)">
     <!-- H -->
     <g transform="translate(1076.475308 393.923982)scale(0.13 -0.13)">
      <use xlink:href="#DejaVuSans-48"/>
     </g>
    </g>
   </g>
   <g id="line2d_57">
    <path d="M 1081.363511 164.592818 
L 1081.363511 152.540778 
" clip-path="url(#p03321b558f)" style="fill: none; stroke: #ffffff; stroke-width: 2; stroke-linecap: square"/>
   </g>
   <g id="line2d_58">
    <path d="M 1075.337491 158.566798 
L 1087.389531 158.566798 
" clip-path="url(#p03321b558f)" style="fill: none; stroke: #ffffff; stroke-width: 2; stroke-linecap: square"/>
   </g>
   <g id="text_33">
    <g clip-path="url(#p03321b558f)">
     <!-- H -->
     <g transform="translate(1076.475308 440.277982)scale(0.13 -0.13)">
      <use xlink:href="#DejaVuSans-48"/>
     </g>
    </g>
   </g>
   <g id="text_34">
    <g clip-path="url(#p03321b558f)">
     <!-- H -->
     <g transform="translate(1122.829307 254.861984)scale(0.13 -0.13)">
      <use xlink:href="#DejaVuSans-48"/>
     </g>
    </g>
   </g>
   <g id="text_35">
    <g clip-path="url(#p03321b558f)">
     <!-- $\mathrm{S^\dagger}$ -->
     <g transform="translate(1119.267511 440.277982)scale(0.13 -0.13)">
      <defs>
       <path id="DejaVuSans-2020" d="M 1325 4666 
L 1875 4666 
L 1875 3353 
L 3022 3353 
L 3022 2875 
L 1875 2875 
L 1875 -616 
L 1325 -616 
L 1325 2875 
L 178 2875 
L 178 3353 
L 1325 3353 
L 1325 4666 
z
" transform="scale(0.015625)"/>
      </defs>
      <use xlink:href="#DejaVuSans-53" transform="translate(0 0.684375)"/>
      <use xlink:href="#DejaVuSans-2020" transform="translate(78.071289 38.965625)scale(0.7)"/>
     </g>
    </g>
   </g>
  </g>
 </g>
 <defs>
  <clipPath id="p03321b558f">
   <rect x="164.551166" y="75.129599" width="993.759984" height="482.081594"/>
  </clipPath>
 </defs>
</svg>
