<?xml version="1.0" encoding="utf-8" standalone="no"?>
<!DOCTYPE svg PUBLIC "-//W3C//DTD SVG 1.1//EN"
  "http://www.w3.org/Graphics/SVG/1.1/DTD/svg11.dtd">
<svg xmlns:xlink="http://www.w3.org/1999/xlink" width="1290.597382pt" height="626.079992pt" viewBox="0 0 1290.597382 626.079992" xmlns="http://www.w3.org/2000/svg" version="1.1">
 <metadata>
  <rdf:RDF xmlns:dc="http://purl.org/dc/elements/1.1/" xmlns:cc="http://creativecommons.org/ns#" xmlns:rdf="http://www.w3.org/1999/02/22-rdf-syntax-ns#">
   <cc:Work>
    <dc:type rdf:resource="http://purl.org/dc/dcmitype/StillImage"/>
    <dc:date>2022-05-17T16:07:56.453900</dc:date>
    <dc:format>image/svg+xml</dc:format>
    <dc:creator>
     <cc:Agent>
      <dc:title>Matplotlib v3.5.1, https://matplotlib.org/</dc:title>
     </cc:Agent>
    </dc:creator>
   </cc:Work>
  </rdf:RDF>
 </metadata>
 <defs>
  <style type="text/css">*{stroke-linejoin: round; stroke-linecap: butt}</style>
 </defs>
 <g id="figure_1">
  <g id="patch_1">
   <path d="M 0 626.079992 
L 1290.597382 626.079992 
L 1290.597382 0 
L 0 0 
z
" style="fill: #ffffff"/>
  </g>
  <g id="axes_1">
   <g id="line2d_1">
    <path d="M 221.960363 112.212799 
L 1153.67575 112.212799 
" clip-path="url(#p40b251275d)" style="fill: none; stroke: #000000; stroke-width: 2; stroke-linecap: square"/>
   </g>
   <g id="line2d_2">
    <path d="M 221.960363 158.566798 
L 1153.67575 158.566798 
" clip-path="url(#p40b251275d)" style="fill: none; stroke: #000000; stroke-width: 2; stroke-linecap: square"/>
   </g>
   <g id="line2d_3">
    <path d="M 221.960363 204.920797 
L 1153.67575 204.920797 
" clip-path="url(#p40b251275d)" style="fill: none; stroke: #000000; stroke-width: 2; stroke-linecap: square"/>
   </g>
   <g id="line2d_4">
    <path d="M 221.960363 251.274797 
L 1153.67575 251.274797 
" clip-path="url(#p40b251275d)" style="fill: none; stroke: #000000; stroke-width: 2; stroke-linecap: square"/>
   </g>
   <g id="line2d_5">
    <path d="M 221.960363 297.628796 
L 1153.67575 297.628796 
" clip-path="url(#p40b251275d)" style="fill: none; stroke: #000000; stroke-width: 2; stroke-linecap: square"/>
   </g>
   <g id="line2d_6">
    <path d="M 221.960363 343.982795 
L 1153.67575 343.982795 
" clip-path="url(#p40b251275d)" style="fill: none; stroke: #000000; stroke-width: 2; stroke-linecap: square"/>
   </g>
   <g id="line2d_7">
    <path d="M 221.960363 390.336795 
L 1153.67575 390.336795 
" clip-path="url(#p40b251275d)" style="fill: none; stroke: #000000; stroke-width: 2; stroke-linecap: square"/>
   </g>
   <g id="line2d_8">
    <path d="M 221.960363 436.690794 
L 1153.67575 436.690794 
" clip-path="url(#p40b251275d)" style="fill: none; stroke: #000000; stroke-width: 2; stroke-linecap: square"/>
   </g>
   <g id="line2d_9">
    <path d="M 221.960363 483.044794 
L 1153.67575 483.044794 
" clip-path="url(#p40b251275d)" style="fill: none; stroke: #000000; stroke-width: 2; stroke-linecap: square"/>
   </g>
   <g id="line2d_10">
    <path d="M 221.960363 529.398793 
L 1153.67575 529.398793 
" clip-path="url(#p40b251275d)" style="fill: none; stroke: #000000; stroke-width: 2; stroke-linecap: square"/>
   </g>
   <g id="line2d_11">
    <path d="M 246.991522 436.690794 
L 246.991522 112.212799 
" clip-path="url(#p40b251275d)" style="fill: none; stroke: #000000; stroke-width: 2; stroke-linecap: square"/>
   </g>
   <g id="line2d_12">
    <path d="M 293.345522 483.044794 
L 293.345522 204.920797 
" clip-path="url(#p40b251275d)" style="fill: none; stroke: #000000; stroke-width: 2; stroke-linecap: square"/>
   </g>
   <g id="line2d_13">
    <path d="M 339.699521 390.336795 
L 339.699521 297.628796 
" clip-path="url(#p40b251275d)" style="fill: none; stroke: #000000; stroke-width: 2; stroke-linecap: square"/>
   </g>
   <g id="line2d_14">
    <path d="M 386.05352 436.690794 
L 386.05352 112.212799 
" clip-path="url(#p40b251275d)" style="fill: none; stroke: #000000; stroke-width: 2; stroke-linecap: square"/>
   </g>
   <g id="line2d_15">
    <path d="M 432.40752 483.044794 
L 432.40752 204.920797 
" clip-path="url(#p40b251275d)" style="fill: none; stroke: #000000; stroke-width: 2; stroke-linecap: square"/>
   </g>
   <g id="line2d_16">
    <path d="M 478.761519 390.336795 
L 478.761519 297.628796 
" clip-path="url(#p40b251275d)" style="fill: none; stroke: #000000; stroke-width: 2; stroke-linecap: square"/>
   </g>
   <g id="line2d_17">
    <path d="M 525.115519 436.690794 
L 525.115519 112.212799 
" clip-path="url(#p40b251275d)" style="fill: none; stroke: #000000; stroke-width: 2; stroke-linecap: square"/>
   </g>
   <g id="line2d_18">
    <path d="M 571.469518 483.044794 
L 571.469518 204.920797 
" clip-path="url(#p40b251275d)" style="fill: none; stroke: #000000; stroke-width: 2; stroke-linecap: square"/>
   </g>
   <g id="line2d_19">
    <path d="M 617.823517 390.336795 
L 617.823517 297.628796 
" clip-path="url(#p40b251275d)" style="fill: none; stroke: #000000; stroke-width: 2; stroke-linecap: square"/>
   </g>
   <g id="line2d_20">
    <path d="M 710.531516 436.690794 
L 710.531516 112.212799 
" clip-path="url(#p40b251275d)" style="fill: none; stroke: #000000; stroke-width: 2; stroke-linecap: square"/>
   </g>
   <g id="line2d_21">
    <path d="M 756.885516 483.044794 
L 756.885516 204.920797 
" clip-path="url(#p40b251275d)" style="fill: none; stroke: #000000; stroke-width: 2; stroke-linecap: square"/>
   </g>
   <g id="line2d_22">
    <path d="M 803.239515 390.336795 
L 803.239515 297.628796 
" clip-path="url(#p40b251275d)" style="fill: none; stroke: #000000; stroke-width: 2; stroke-linecap: square"/>
   </g>
   <g id="line2d_23">
    <path d="M 849.593514 436.690794 
L 849.593514 112.212799 
" clip-path="url(#p40b251275d)" style="fill: none; stroke: #000000; stroke-width: 2; stroke-linecap: square"/>
   </g>
   <g id="line2d_24">
    <path d="M 895.947514 483.044794 
L 895.947514 204.920797 
" clip-path="url(#p40b251275d)" style="fill: none; stroke: #000000; stroke-width: 2; stroke-linecap: square"/>
   </g>
   <g id="line2d_25">
    <path d="M 942.301513 390.336795 
L 942.301513 297.628796 
" clip-path="url(#p40b251275d)" style="fill: none; stroke: #000000; stroke-width: 2; stroke-linecap: square"/>
   </g>
   <g id="line2d_26">
    <path d="M 988.655512 436.690794 
L 988.655512 112.212799 
" clip-path="url(#p40b251275d)" style="fill: none; stroke: #000000; stroke-width: 2; stroke-linecap: square"/>
   </g>
   <g id="line2d_27">
    <path d="M 1035.009512 483.044794 
L 1035.009512 204.920797 
" clip-path="url(#p40b251275d)" style="fill: none; stroke: #000000; stroke-width: 2; stroke-linecap: square"/>
   </g>
   <g id="line2d_28">
    <path d="M 1081.363511 390.336795 
L 1081.363511 297.628796 
" clip-path="url(#p40b251275d)" style="fill: none; stroke: #000000; stroke-width: 2; stroke-linecap: square"/>
   </g>
   <g id="text_1">
    <!-- SWAP [0,2,4]-&gt;[7,8,6] Gate -->
    <g transform="translate(579.024908 69.129599)scale(0.12 -0.12)">
     <defs>
      <path id="DejaVuSans-53" d="M 3425 4513 
L 3425 3897 
Q 3066 4069 2747 4153 
Q 2428 4238 2131 4238 
Q 1616 4238 1336 4038 
Q 1056 3838 1056 3469 
Q 1056 3159 1242 3001 
Q 1428 2844 1947 2747 
L 2328 2669 
Q 3034 2534 3370 2195 
Q 3706 1856 3706 1288 
Q 3706 609 3251 259 
Q 2797 -91 1919 -91 
Q 1588 -91 1214 -16 
Q 841 59 441 206 
L 441 856 
Q 825 641 1194 531 
Q 1563 422 1919 422 
Q 2459 422 2753 634 
Q 3047 847 3047 1241 
Q 3047 1584 2836 1778 
Q 2625 1972 2144 2069 
L 1759 2144 
Q 1053 2284 737 2584 
Q 422 2884 422 3419 
Q 422 4038 858 4394 
Q 1294 4750 2059 4750 
Q 2388 4750 2728 4690 
Q 3069 4631 3425 4513 
z
" transform="scale(0.015625)"/>
      <path id="DejaVuSans-57" d="M 213 4666 
L 850 4666 
L 1831 722 
L 2809 4666 
L 3519 4666 
L 4500 722 
L 5478 4666 
L 6119 4666 
L 4947 0 
L 4153 0 
L 3169 4050 
L 2175 0 
L 1381 0 
L 213 4666 
z
" transform="scale(0.015625)"/>
      <path id="DejaVuSans-41" d="M 2188 4044 
L 1331 1722 
L 3047 1722 
L 2188 4044 
z
M 1831 4666 
L 2547 4666 
L 4325 0 
L 3669 0 
L 3244 1197 
L 1141 1197 
L 716 0 
L 50 0 
L 1831 4666 
z
" transform="scale(0.015625)"/>
      <path id="DejaVuSans-50" d="M 1259 4147 
L 1259 2394 
L 2053 2394 
Q 2494 2394 2734 2622 
Q 2975 2850 2975 3272 
Q 2975 3691 2734 3919 
Q 2494 4147 2053 4147 
L 1259 4147 
z
M 628 4666 
L 2053 4666 
Q 2838 4666 3239 4311 
Q 3641 3956 3641 3272 
Q 3641 2581 3239 2228 
Q 2838 1875 2053 1875 
L 1259 1875 
L 1259 0 
L 628 0 
L 628 4666 
z
" transform="scale(0.015625)"/>
      <path id="DejaVuSans-20" transform="scale(0.015625)"/>
      <path id="DejaVuSans-5b" d="M 550 4863 
L 1875 4863 
L 1875 4416 
L 1125 4416 
L 1125 -397 
L 1875 -397 
L 1875 -844 
L 550 -844 
L 550 4863 
z
" transform="scale(0.015625)"/>
      <path id="DejaVuSans-30" d="M 2034 4250 
Q 1547 4250 1301 3770 
Q 1056 3291 1056 2328 
Q 1056 1369 1301 889 
Q 1547 409 2034 409 
Q 2525 409 2770 889 
Q 3016 1369 3016 2328 
Q 3016 3291 2770 3770 
Q 2525 4250 2034 4250 
z
M 2034 4750 
Q 2819 4750 3233 4129 
Q 3647 3509 3647 2328 
Q 3647 1150 3233 529 
Q 2819 -91 2034 -91 
Q 1250 -91 836 529 
Q 422 1150 422 2328 
Q 422 3509 836 4129 
Q 1250 4750 2034 4750 
z
" transform="scale(0.015625)"/>
      <path id="DejaVuSans-2c" d="M 750 794 
L 1409 794 
L 1409 256 
L 897 -744 
L 494 -744 
L 750 256 
L 750 794 
z
" transform="scale(0.015625)"/>
      <path id="DejaVuSans-32" d="M 1228 531 
L 3431 531 
L 3431 0 
L 469 0 
L 469 531 
Q 828 903 1448 1529 
Q 2069 2156 2228 2338 
Q 2531 2678 2651 2914 
Q 2772 3150 2772 3378 
Q 2772 3750 2511 3984 
Q 2250 4219 1831 4219 
Q 1534 4219 1204 4116 
Q 875 4013 500 3803 
L 500 4441 
Q 881 4594 1212 4672 
Q 1544 4750 1819 4750 
Q 2544 4750 2975 4387 
Q 3406 4025 3406 3419 
Q 3406 3131 3298 2873 
Q 3191 2616 2906 2266 
Q 2828 2175 2409 1742 
Q 1991 1309 1228 531 
z
" transform="scale(0.015625)"/>
      <path id="DejaVuSans-34" d="M 2419 4116 
L 825 1625 
L 2419 1625 
L 2419 4116 
z
M 2253 4666 
L 3047 4666 
L 3047 1625 
L 3713 1625 
L 3713 1100 
L 3047 1100 
L 3047 0 
L 2419 0 
L 2419 1100 
L 313 1100 
L 313 1709 
L 2253 4666 
z
" transform="scale(0.015625)"/>
      <path id="DejaVuSans-5d" d="M 1947 4863 
L 1947 -844 
L 622 -844 
L 622 -397 
L 1369 -397 
L 1369 4416 
L 622 4416 
L 622 4863 
L 1947 4863 
z
" transform="scale(0.015625)"/>
      <path id="DejaVuSans-2d" d="M 313 2009 
L 1997 2009 
L 1997 1497 
L 313 1497 
L 313 2009 
z
" transform="scale(0.015625)"/>
      <path id="DejaVuSans-3e" d="M 678 3150 
L 678 3719 
L 4684 2266 
L 4684 1747 
L 678 294 
L 678 863 
L 3897 2003 
L 678 3150 
z
" transform="scale(0.015625)"/>
      <path id="DejaVuSans-37" d="M 525 4666 
L 3525 4666 
L 3525 4397 
L 1831 0 
L 1172 0 
L 2766 4134 
L 525 4134 
L 525 4666 
z
" transform="scale(0.015625)"/>
      <path id="DejaVuSans-38" d="M 2034 2216 
Q 1584 2216 1326 1975 
Q 1069 1734 1069 1313 
Q 1069 891 1326 650 
Q 1584 409 2034 409 
Q 2484 409 2743 651 
Q 3003 894 3003 1313 
Q 3003 1734 2745 1975 
Q 2488 2216 2034 2216 
z
M 1403 2484 
Q 997 2584 770 2862 
Q 544 3141 544 3541 
Q 544 4100 942 4425 
Q 1341 4750 2034 4750 
Q 2731 4750 3128 4425 
Q 3525 4100 3525 3541 
Q 3525 3141 3298 2862 
Q 3072 2584 2669 2484 
Q 3125 2378 3379 2068 
Q 3634 1759 3634 1313 
Q 3634 634 3220 271 
Q 2806 -91 2034 -91 
Q 1263 -91 848 271 
Q 434 634 434 1313 
Q 434 1759 690 2068 
Q 947 2378 1403 2484 
z
M 1172 3481 
Q 1172 3119 1398 2916 
Q 1625 2713 2034 2713 
Q 2441 2713 2670 2916 
Q 2900 3119 2900 3481 
Q 2900 3844 2670 4047 
Q 2441 4250 2034 4250 
Q 1625 4250 1398 4047 
Q 1172 3844 1172 3481 
z
" transform="scale(0.015625)"/>
      <path id="DejaVuSans-36" d="M 2113 2584 
Q 1688 2584 1439 2293 
Q 1191 2003 1191 1497 
Q 1191 994 1439 701 
Q 1688 409 2113 409 
Q 2538 409 2786 701 
Q 3034 994 3034 1497 
Q 3034 2003 2786 2293 
Q 2538 2584 2113 2584 
z
M 3366 4563 
L 3366 3988 
Q 3128 4100 2886 4159 
Q 2644 4219 2406 4219 
Q 1781 4219 1451 3797 
Q 1122 3375 1075 2522 
Q 1259 2794 1537 2939 
Q 1816 3084 2150 3084 
Q 2853 3084 3261 2657 
Q 3669 2231 3669 1497 
Q 3669 778 3244 343 
Q 2819 -91 2113 -91 
Q 1303 -91 875 529 
Q 447 1150 447 2328 
Q 447 3434 972 4092 
Q 1497 4750 2381 4750 
Q 2619 4750 2861 4703 
Q 3103 4656 3366 4563 
z
" transform="scale(0.015625)"/>
      <path id="DejaVuSans-47" d="M 3809 666 
L 3809 1919 
L 2778 1919 
L 2778 2438 
L 4434 2438 
L 4434 434 
Q 4069 175 3628 42 
Q 3188 -91 2688 -91 
Q 1594 -91 976 548 
Q 359 1188 359 2328 
Q 359 3472 976 4111 
Q 1594 4750 2688 4750 
Q 3144 4750 3555 4637 
Q 3966 4525 4313 4306 
L 4313 3634 
Q 3963 3931 3569 4081 
Q 3175 4231 2741 4231 
Q 1884 4231 1454 3753 
Q 1025 3275 1025 2328 
Q 1025 1384 1454 906 
Q 1884 428 2741 428 
Q 3075 428 3337 486 
Q 3600 544 3809 666 
z
" transform="scale(0.015625)"/>
      <path id="DejaVuSans-61" d="M 2194 1759 
Q 1497 1759 1228 1600 
Q 959 1441 959 1056 
Q 959 750 1161 570 
Q 1363 391 1709 391 
Q 2188 391 2477 730 
Q 2766 1069 2766 1631 
L 2766 1759 
L 2194 1759 
z
M 3341 1997 
L 3341 0 
L 2766 0 
L 2766 531 
Q 2569 213 2275 61 
Q 1981 -91 1556 -91 
Q 1019 -91 701 211 
Q 384 513 384 1019 
Q 384 1609 779 1909 
Q 1175 2209 1959 2209 
L 2766 2209 
L 2766 2266 
Q 2766 2663 2505 2880 
Q 2244 3097 1772 3097 
Q 1472 3097 1187 3025 
Q 903 2953 641 2809 
L 641 3341 
Q 956 3463 1253 3523 
Q 1550 3584 1831 3584 
Q 2591 3584 2966 3190 
Q 3341 2797 3341 1997 
z
" transform="scale(0.015625)"/>
      <path id="DejaVuSans-74" d="M 1172 4494 
L 1172 3500 
L 2356 3500 
L 2356 3053 
L 1172 3053 
L 1172 1153 
Q 1172 725 1289 603 
Q 1406 481 1766 481 
L 2356 481 
L 2356 0 
L 1766 0 
Q 1100 0 847 248 
Q 594 497 594 1153 
L 594 3053 
L 172 3053 
L 172 3500 
L 594 3500 
L 594 4494 
L 1172 4494 
z
" transform="scale(0.015625)"/>
      <path id="DejaVuSans-65" d="M 3597 1894 
L 3597 1613 
L 953 1613 
Q 991 1019 1311 708 
Q 1631 397 2203 397 
Q 2534 397 2845 478 
Q 3156 559 3463 722 
L 3463 178 
Q 3153 47 2828 -22 
Q 2503 -91 2169 -91 
Q 1331 -91 842 396 
Q 353 884 353 1716 
Q 353 2575 817 3079 
Q 1281 3584 2069 3584 
Q 2775 3584 3186 3129 
Q 3597 2675 3597 1894 
z
M 3022 2063 
Q 3016 2534 2758 2815 
Q 2500 3097 2075 3097 
Q 1594 3097 1305 2825 
Q 1016 2553 972 2059 
L 3022 2063 
z
" transform="scale(0.015625)"/>
     </defs>
     <use xlink:href="#DejaVuSans-53"/>
     <use xlink:href="#DejaVuSans-57" x="63.476562"/>
     <use xlink:href="#DejaVuSans-41" x="156.853516"/>
     <use xlink:href="#DejaVuSans-50" x="225.261719"/>
     <use xlink:href="#DejaVuSans-20" x="285.564453"/>
     <use xlink:href="#DejaVuSans-5b" x="317.351562"/>
     <use xlink:href="#DejaVuSans-30" x="356.365234"/>
     <use xlink:href="#DejaVuSans-2c" x="419.988281"/>
     <use xlink:href="#DejaVuSans-32" x="451.775391"/>
     <use xlink:href="#DejaVuSans-2c" x="515.398438"/>
     <use xlink:href="#DejaVuSans-34" x="547.185547"/>
     <use xlink:href="#DejaVuSans-5d" x="610.808594"/>
     <use xlink:href="#DejaVuSans-2d" x="649.822266"/>
     <use xlink:href="#DejaVuSans-3e" x="685.90625"/>
     <use xlink:href="#DejaVuSans-5b" x="769.695312"/>
     <use xlink:href="#DejaVuSans-37" x="808.708984"/>
     <use xlink:href="#DejaVuSans-2c" x="872.332031"/>
     <use xlink:href="#DejaVuSans-38" x="904.119141"/>
     <use xlink:href="#DejaVuSans-2c" x="967.742188"/>
     <use xlink:href="#DejaVuSans-36" x="999.529297"/>
     <use xlink:href="#DejaVuSans-5d" x="1063.152344"/>
     <use xlink:href="#DejaVuSans-20" x="1102.166016"/>
     <use xlink:href="#DejaVuSans-47" x="1133.953125"/>
     <use xlink:href="#DejaVuSans-61" x="1211.443359"/>
     <use xlink:href="#DejaVuSans-74" x="1272.722656"/>
     <use xlink:href="#DejaVuSans-65" x="1311.931641"/>
    </g>
   </g>
   <g id="patch_2">
    <path d="M 246.991522 116.732313 
C 248.190112 116.732313 249.339771 116.256109 250.187302 115.408578 
C 251.034833 114.561047 251.511037 113.411388 251.511037 112.212799 
C 251.511037 111.014209 251.034833 109.86455 250.187302 109.017019 
C 249.339771 108.169488 248.190112 107.693284 246.991522 107.693284 
C 245.792933 107.693284 244.643273 108.169488 243.795743 109.017019 
C 242.948212 109.86455 242.472007 111.014209 242.472007 112.212799 
C 242.472007 113.411388 242.948212 114.561047 243.795743 115.408578 
C 244.643273 116.256109 245.792933 116.732313 246.991522 116.732313 
z
" clip-path="url(#p40b251275d)" style="stroke: #000000; stroke-width: 1.5; stroke-linejoin: miter"/>
   </g>
   <g id="patch_3">
    <path d="M 246.991522 447.236329 
C 249.788231 447.236329 252.47077 446.125185 254.448342 444.147613 
C 256.425913 442.170042 257.537057 439.487503 257.537057 436.690794 
C 257.537057 433.894086 256.425913 431.211547 254.448342 429.233975 
C 252.47077 427.256403 249.788231 426.145259 246.991522 426.145259 
C 244.194814 426.145259 241.512275 427.256403 239.534703 429.233975 
C 237.557132 431.211547 236.445987 433.894086 236.445987 436.690794 
C 236.445987 439.487503 237.557132 442.170042 239.534703 444.147613 
C 241.512275 446.125185 244.194814 447.236329 246.991522 447.236329 
z
" clip-path="url(#p40b251275d)" style="stroke: #000000; stroke-width: 2; stroke-linejoin: miter"/>
   </g>
   <g id="patch_4">
    <path d="M 293.345522 209.440312 
C 294.544111 209.440312 295.693771 208.964108 296.541301 208.116577 
C 297.388832 207.269046 297.865037 206.119387 297.865037 204.920797 
C 297.865037 203.722208 297.388832 202.572548 296.541301 201.725018 
C 295.693771 200.877487 294.544111 200.401282 293.345522 200.401282 
C 292.146932 200.401282 290.997273 200.877487 290.149742 201.725018 
C 289.302211 202.572548 288.826007 203.722208 288.826007 204.920797 
C 288.826007 206.119387 289.302211 207.269046 290.149742 208.116577 
C 290.997273 208.964108 292.146932 209.440312 293.345522 209.440312 
z
" clip-path="url(#p40b251275d)" style="stroke: #000000; stroke-width: 1.5; stroke-linejoin: miter"/>
   </g>
   <g id="patch_5">
    <path d="M 293.345522 493.590328 
C 296.14223 493.590328 298.824769 492.479184 300.802341 490.501613 
C 302.779912 488.524041 303.891057 485.841502 303.891057 483.044794 
C 303.891057 480.248085 302.779912 477.565546 300.802341 475.587974 
C 298.824769 473.610403 296.14223 472.499259 293.345522 472.499259 
C 290.548813 472.499259 287.866274 473.610403 285.888702 475.587974 
C 283.911131 477.565546 282.799987 480.248085 282.799987 483.044794 
C 282.799987 485.841502 283.911131 488.524041 285.888702 490.501613 
C 287.866274 492.479184 290.548813 493.590328 293.345522 493.590328 
z
" clip-path="url(#p40b251275d)" style="stroke: #000000; stroke-width: 2; stroke-linejoin: miter"/>
   </g>
   <g id="patch_6">
    <path d="M 339.699521 302.148311 
C 340.89811 302.148311 342.04777 301.672106 342.895301 300.824576 
C 343.742831 299.977045 344.219036 298.827385 344.219036 297.628796 
C 344.219036 296.430207 343.742831 295.280547 342.895301 294.433016 
C 342.04777 293.585486 340.89811 293.109281 339.699521 293.109281 
C 338.500932 293.109281 337.351272 293.585486 336.503741 294.433016 
C 335.656211 295.280547 335.180006 296.430207 335.180006 297.628796 
C 335.180006 298.827385 335.656211 299.977045 336.503741 300.824576 
C 337.351272 301.672106 338.500932 302.148311 339.699521 302.148311 
z
" clip-path="url(#p40b251275d)" style="stroke: #000000; stroke-width: 1.5; stroke-linejoin: miter"/>
   </g>
   <g id="patch_7">
    <path d="M 339.699521 400.88233 
C 342.49623 400.88233 345.178769 399.771186 347.15634 397.793614 
C 349.133912 395.816042 350.245056 393.133503 350.245056 390.336795 
C 350.245056 387.540086 349.133912 384.857547 347.15634 382.879976 
C 345.178769 380.902404 342.49623 379.79126 339.699521 379.79126 
C 336.902813 379.79126 334.220273 380.902404 332.242702 382.879976 
C 330.26513 384.857547 329.153986 387.540086 329.153986 390.336795 
C 329.153986 393.133503 330.26513 395.816042 332.242702 397.793614 
C 334.220273 399.771186 336.902813 400.88233 339.699521 400.88233 
z
" clip-path="url(#p40b251275d)" style="stroke: #000000; stroke-width: 2; stroke-linejoin: miter"/>
   </g>
   <g id="patch_8">
    <path d="M 386.05352 441.210309 
C 387.25211 441.210309 388.401769 440.734105 389.2493 439.886574 
C 390.096831 439.039043 390.573035 437.889384 390.573035 436.690794 
C 390.573035 435.492205 390.096831 434.342545 389.2493 433.495015 
C 388.401769 432.647484 387.25211 432.171279 386.05352 432.171279 
C 384.854931 432.171279 383.705271 432.647484 382.857741 433.495015 
C 382.01021 434.342545 381.534006 435.492205 381.534006 436.690794 
C 381.534006 437.889384 382.01021 439.039043 382.857741 439.886574 
C 383.705271 440.734105 384.854931 441.210309 386.05352 441.210309 
z
" clip-path="url(#p40b251275d)" style="stroke: #000000; stroke-width: 1.5; stroke-linejoin: miter"/>
   </g>
   <g id="patch_9">
    <path d="M 386.05352 122.758333 
C 388.850229 122.758333 391.532768 121.647189 393.51034 119.669618 
C 395.487911 117.692046 396.599055 115.009507 396.599055 112.212799 
C 396.599055 109.41609 395.487911 106.733551 393.51034 104.755979 
C 391.532768 102.778408 388.850229 101.667264 386.05352 101.667264 
C 383.256812 101.667264 380.574273 102.778408 378.596701 104.755979 
C 376.61913 106.733551 375.507986 109.41609 375.507986 112.212799 
C 375.507986 115.009507 376.61913 117.692046 378.596701 119.669618 
C 380.574273 121.647189 383.256812 122.758333 386.05352 122.758333 
z
" clip-path="url(#p40b251275d)" style="stroke: #000000; stroke-width: 2; stroke-linejoin: miter"/>
   </g>
   <g id="patch_10">
    <path d="M 432.40752 487.564309 
C 433.606109 487.564309 434.755769 487.088104 435.6033 486.240573 
C 436.45083 485.393043 436.927035 484.243383 436.927035 483.044794 
C 436.927035 481.846204 436.45083 480.696545 435.6033 479.849014 
C 434.755769 479.001483 433.606109 478.525279 432.40752 478.525279 
C 431.20893 478.525279 430.059271 479.001483 429.21174 479.849014 
C 428.36421 480.696545 427.888005 481.846204 427.888005 483.044794 
C 427.888005 484.243383 428.36421 485.393043 429.21174 486.240573 
C 430.059271 487.088104 431.20893 487.564309 432.40752 487.564309 
z
" clip-path="url(#p40b251275d)" style="stroke: #000000; stroke-width: 1.5; stroke-linejoin: miter"/>
   </g>
   <g id="patch_11">
    <path d="M 432.40752 215.466332 
C 435.204228 215.466332 437.886767 214.355188 439.864339 212.377616 
C 441.841911 210.400045 442.953055 207.717506 442.953055 204.920797 
C 442.953055 202.124089 441.841911 199.44155 439.864339 197.463978 
C 437.886767 195.486406 435.204228 194.375262 432.40752 194.375262 
C 429.610811 194.375262 426.928272 195.486406 424.950701 197.463978 
C 422.973129 199.44155 421.861985 202.124089 421.861985 204.920797 
C 421.861985 207.717506 422.973129 210.400045 424.950701 212.377616 
C 426.928272 214.355188 429.610811 215.466332 432.40752 215.466332 
z
" clip-path="url(#p40b251275d)" style="stroke: #000000; stroke-width: 2; stroke-linejoin: miter"/>
   </g>
   <g id="patch_12">
    <path d="M 478.761519 394.85631 
C 479.960109 394.85631 481.109768 394.380105 481.957299 393.532574 
C 482.80483 392.685044 483.281034 391.535384 483.281034 390.336795 
C 483.281034 389.138205 482.80483 387.988546 481.957299 387.141015 
C 481.109768 386.293484 479.960109 385.81728 478.761519 385.81728 
C 477.56293 385.81728 476.41327 386.293484 475.56574 387.141015 
C 474.718209 387.988546 474.242004 389.138205 474.242004 390.336795 
C 474.242004 391.535384 474.718209 392.685044 475.56574 393.532574 
C 476.41327 394.380105 477.56293 394.85631 478.761519 394.85631 
z
" clip-path="url(#p40b251275d)" style="stroke: #000000; stroke-width: 1.5; stroke-linejoin: miter"/>
   </g>
   <g id="patch_13">
    <path d="M 478.761519 308.174331 
C 481.558228 308.174331 484.240767 307.063187 486.218338 305.085615 
C 488.19591 303.108044 489.307054 300.425505 489.307054 297.628796 
C 489.307054 294.832088 488.19591 292.149548 486.218338 290.171977 
C 484.240767 288.194405 481.558228 287.083261 478.761519 287.083261 
C 475.964811 287.083261 473.282272 288.194405 471.3047 290.171977 
C 469.327128 292.149548 468.215984 294.832088 468.215984 297.628796 
C 468.215984 300.425505 469.327128 303.108044 471.3047 305.085615 
C 473.282272 307.063187 475.964811 308.174331 478.761519 308.174331 
z
" clip-path="url(#p40b251275d)" style="stroke: #000000; stroke-width: 2; stroke-linejoin: miter"/>
   </g>
   <g id="patch_14">
    <path d="M 525.115519 116.732313 
C 526.314108 116.732313 527.463768 116.256109 528.311298 115.408578 
C 529.158829 114.561047 529.635034 113.411388 529.635034 112.212799 
C 529.635034 111.014209 529.158829 109.86455 528.311298 109.017019 
C 527.463768 108.169488 526.314108 107.693284 525.115519 107.693284 
C 523.916929 107.693284 522.76727 108.169488 521.919739 109.017019 
C 521.072208 109.86455 520.596004 111.014209 520.596004 112.212799 
C 520.596004 113.411388 521.072208 114.561047 521.919739 115.408578 
C 522.76727 116.256109 523.916929 116.732313 525.115519 116.732313 
z
" clip-path="url(#p40b251275d)" style="stroke: #000000; stroke-width: 1.5; stroke-linejoin: miter"/>
   </g>
   <g id="patch_15">
    <path d="M 525.115519 447.236329 
C 527.912227 447.236329 530.594766 446.125185 532.572338 444.147613 
C 534.549909 442.170042 535.661053 439.487503 535.661053 436.690794 
C 535.661053 433.894086 534.549909 431.211547 532.572338 429.233975 
C 530.594766 427.256403 527.912227 426.145259 525.115519 426.145259 
C 522.31881 426.145259 519.636271 427.256403 517.658699 429.233975 
C 515.681128 431.211547 514.569984 433.894086 514.569984 436.690794 
C 514.569984 439.487503 515.681128 442.170042 517.658699 444.147613 
C 519.636271 446.125185 522.31881 447.236329 525.115519 447.236329 
z
" clip-path="url(#p40b251275d)" style="stroke: #000000; stroke-width: 2; stroke-linejoin: miter"/>
   </g>
   <g id="patch_16">
    <path d="M 571.469518 209.440312 
C 572.668107 209.440312 573.817767 208.964108 574.665298 208.116577 
C 575.512828 207.269046 575.989033 206.119387 575.989033 204.920797 
C 575.989033 203.722208 575.512828 202.572548 574.665298 201.725018 
C 573.817767 200.877487 572.668107 200.401282 571.469518 200.401282 
C 570.270929 200.401282 569.121269 200.877487 568.273738 201.725018 
C 567.426208 202.572548 566.950003 203.722208 566.950003 204.920797 
C 566.950003 206.119387 567.426208 207.269046 568.273738 208.116577 
C 569.121269 208.964108 570.270929 209.440312 571.469518 209.440312 
z
" clip-path="url(#p40b251275d)" style="stroke: #000000; stroke-width: 1.5; stroke-linejoin: miter"/>
   </g>
   <g id="patch_17">
    <path d="M 571.469518 493.590328 
C 574.266227 493.590328 576.948766 492.479184 578.926337 490.501613 
C 580.903909 488.524041 582.015053 485.841502 582.015053 483.044794 
C 582.015053 480.248085 580.903909 477.565546 578.926337 475.587974 
C 576.948766 473.610403 574.266227 472.499259 571.469518 472.499259 
C 568.672809 472.499259 565.99027 473.610403 564.012699 475.587974 
C 562.035127 477.565546 560.923983 480.248085 560.923983 483.044794 
C 560.923983 485.841502 562.035127 488.524041 564.012699 490.501613 
C 565.99027 492.479184 568.672809 493.590328 571.469518 493.590328 
z
" clip-path="url(#p40b251275d)" style="stroke: #000000; stroke-width: 2; stroke-linejoin: miter"/>
   </g>
   <g id="patch_18">
    <path d="M 556.404468 127.277848 
L 586.534568 127.277848 
L 586.534568 97.147749 
L 556.404468 97.147749 
z
" clip-path="url(#p40b251275d)" style="fill: #ffffff; stroke: #000000; stroke-width: 1.5; stroke-linejoin: miter"/>
   </g>
   <g id="patch_19">
    <path d="M 617.823517 302.148311 
C 619.022107 302.148311 620.171766 301.672106 621.019297 300.824576 
C 621.866828 299.977045 622.343032 298.827385 622.343032 297.628796 
C 622.343032 296.430207 621.866828 295.280547 621.019297 294.433016 
C 620.171766 293.585486 619.022107 293.109281 617.823517 293.109281 
C 616.624928 293.109281 615.475268 293.585486 614.627738 294.433016 
C 613.780207 295.280547 613.304002 296.430207 613.304002 297.628796 
C 613.304002 298.827385 613.780207 299.977045 614.627738 300.824576 
C 615.475268 301.672106 616.624928 302.148311 617.823517 302.148311 
z
" clip-path="url(#p40b251275d)" style="stroke: #000000; stroke-width: 1.5; stroke-linejoin: miter"/>
   </g>
   <g id="patch_20">
    <path d="M 617.823517 400.88233 
C 620.620226 400.88233 623.302765 399.771186 625.280337 397.793614 
C 627.257908 395.816042 628.369052 393.133503 628.369052 390.336795 
C 628.369052 387.540086 627.257908 384.857547 625.280337 382.879976 
C 623.302765 380.902404 620.620226 379.79126 617.823517 379.79126 
C 615.026809 379.79126 612.34427 380.902404 610.366698 382.879976 
C 608.389127 384.857547 607.277983 387.540086 607.277983 390.336795 
C 607.277983 393.133503 608.389127 395.816042 610.366698 397.793614 
C 612.34427 399.771186 615.026809 400.88233 617.823517 400.88233 
z
" clip-path="url(#p40b251275d)" style="stroke: #000000; stroke-width: 2; stroke-linejoin: miter"/>
   </g>
   <g id="patch_21">
    <path d="M 602.758468 451.755844 
L 632.888567 451.755844 
L 632.888567 421.625744 
L 602.758468 421.625744 
z
" clip-path="url(#p40b251275d)" style="fill: #ffffff; stroke: #000000; stroke-width: 1.5; stroke-linejoin: miter"/>
   </g>
   <g id="patch_22">
    <path d="M 602.758468 219.985847 
L 632.888567 219.985847 
L 632.888567 189.855747 
L 602.758468 189.855747 
z
" clip-path="url(#p40b251275d)" style="fill: #ffffff; stroke: #000000; stroke-width: 1.5; stroke-linejoin: miter"/>
   </g>
   <g id="patch_23">
    <path d="M 602.758468 498.109843 
L 632.888567 498.109843 
L 632.888567 467.979744 
L 602.758468 467.979744 
z
" clip-path="url(#p40b251275d)" style="fill: #ffffff; stroke: #000000; stroke-width: 1.5; stroke-linejoin: miter"/>
   </g>
   <g id="patch_24">
    <path d="M 649.112467 312.693846 
L 679.242567 312.693846 
L 679.242567 282.563746 
L 649.112467 282.563746 
z
" clip-path="url(#p40b251275d)" style="fill: #ffffff; stroke: #000000; stroke-width: 1.5; stroke-linejoin: miter"/>
   </g>
   <g id="patch_25">
    <path d="M 649.112467 405.401845 
L 679.242567 405.401845 
L 679.242567 375.271745 
L 649.112467 375.271745 
z
" clip-path="url(#p40b251275d)" style="fill: #ffffff; stroke: #000000; stroke-width: 1.5; stroke-linejoin: miter"/>
   </g>
   <g id="patch_26">
    <path d="M 710.531516 116.732313 
C 711.730106 116.732313 712.879765 116.256109 713.727296 115.408578 
C 714.574826 114.561047 715.051031 113.411388 715.051031 112.212799 
C 715.051031 111.014209 714.574826 109.86455 713.727296 109.017019 
C 712.879765 108.169488 711.730106 107.693284 710.531516 107.693284 
C 709.332927 107.693284 708.183267 108.169488 707.335736 109.017019 
C 706.488206 109.86455 706.012001 111.014209 706.012001 112.212799 
C 706.012001 113.411388 706.488206 114.561047 707.335736 115.408578 
C 708.183267 116.256109 709.332927 116.732313 710.531516 116.732313 
z
" clip-path="url(#p40b251275d)" style="stroke: #000000; stroke-width: 1.5; stroke-linejoin: miter"/>
   </g>
   <g id="patch_27">
    <path d="M 710.531516 447.236329 
C 713.328225 447.236329 716.010764 446.125185 717.988335 444.147613 
C 719.965907 442.170042 721.077051 439.487503 721.077051 436.690794 
C 721.077051 433.894086 719.965907 431.211547 717.988335 429.233975 
C 716.010764 427.256403 713.328225 426.145259 710.531516 426.145259 
C 707.734808 426.145259 705.052269 427.256403 703.074697 429.233975 
C 701.097125 431.211547 699.985981 433.894086 699.985981 436.690794 
C 699.985981 439.487503 701.097125 442.170042 703.074697 444.147613 
C 705.052269 446.125185 707.734808 447.236329 710.531516 447.236329 
z
" clip-path="url(#p40b251275d)" style="stroke: #000000; stroke-width: 2; stroke-linejoin: miter"/>
   </g>
   <g id="patch_28">
    <path d="M 756.885516 209.440312 
C 758.084105 209.440312 759.233765 208.964108 760.081295 208.116577 
C 760.928826 207.269046 761.40503 206.119387 761.40503 204.920797 
C 761.40503 203.722208 760.928826 202.572548 760.081295 201.725018 
C 759.233765 200.877487 758.084105 200.401282 756.885516 200.401282 
C 755.686926 200.401282 754.537267 200.877487 753.689736 201.725018 
C 752.842205 202.572548 752.366001 203.722208 752.366001 204.920797 
C 752.366001 206.119387 752.842205 207.269046 753.689736 208.116577 
C 754.537267 208.964108 755.686926 209.440312 756.885516 209.440312 
z
" clip-path="url(#p40b251275d)" style="stroke: #000000; stroke-width: 1.5; stroke-linejoin: miter"/>
   </g>
   <g id="patch_29">
    <path d="M 756.885516 493.590328 
C 759.682224 493.590328 762.364763 492.479184 764.342335 490.501613 
C 766.319906 488.524041 767.43105 485.841502 767.43105 483.044794 
C 767.43105 480.248085 766.319906 477.565546 764.342335 475.587974 
C 762.364763 473.610403 759.682224 472.499259 756.885516 472.499259 
C 754.088807 472.499259 751.406268 473.610403 749.428696 475.587974 
C 747.451125 477.565546 746.339981 480.248085 746.339981 483.044794 
C 746.339981 485.841502 747.451125 488.524041 749.428696 490.501613 
C 751.406268 492.479184 754.088807 493.590328 756.885516 493.590328 
z
" clip-path="url(#p40b251275d)" style="stroke: #000000; stroke-width: 2; stroke-linejoin: miter"/>
   </g>
   <g id="patch_30">
    <path d="M 803.239515 302.148311 
C 804.438104 302.148311 805.587764 301.672106 806.435295 300.824576 
C 807.282825 299.977045 807.75903 298.827385 807.75903 297.628796 
C 807.75903 296.430207 807.282825 295.280547 806.435295 294.433016 
C 805.587764 293.585486 804.438104 293.109281 803.239515 293.109281 
C 802.040926 293.109281 800.891266 293.585486 800.043735 294.433016 
C 799.196205 295.280547 798.72 296.430207 798.72 297.628796 
C 798.72 298.827385 799.196205 299.977045 800.043735 300.824576 
C 800.891266 301.672106 802.040926 302.148311 803.239515 302.148311 
z
" clip-path="url(#p40b251275d)" style="stroke: #000000; stroke-width: 1.5; stroke-linejoin: miter"/>
   </g>
   <g id="patch_31">
    <path d="M 803.239515 400.88233 
C 806.036223 400.88233 808.718763 399.771186 810.696334 397.793614 
C 812.673906 395.816042 813.78505 393.133503 813.78505 390.336795 
C 813.78505 387.540086 812.673906 384.857547 810.696334 382.879976 
C 808.718763 380.902404 806.036223 379.79126 803.239515 379.79126 
C 800.442806 379.79126 797.760267 380.902404 795.782696 382.879976 
C 793.805124 384.857547 792.69398 387.540086 792.69398 390.336795 
C 792.69398 393.133503 793.805124 395.816042 795.782696 397.793614 
C 797.760267 399.771186 800.442806 400.88233 803.239515 400.88233 
z
" clip-path="url(#p40b251275d)" style="stroke: #000000; stroke-width: 2; stroke-linejoin: miter"/>
   </g>
   <g id="patch_32">
    <path d="M 849.593514 441.210309 
C 850.792104 441.210309 851.941763 440.734105 852.789294 439.886574 
C 853.636825 439.039043 854.113029 437.889384 854.113029 436.690794 
C 854.113029 435.492205 853.636825 434.342545 852.789294 433.495015 
C 851.941763 432.647484 850.792104 432.171279 849.593514 432.171279 
C 848.394925 432.171279 847.245265 432.647484 846.397735 433.495015 
C 845.550204 434.342545 845.073999 435.492205 845.073999 436.690794 
C 845.073999 437.889384 845.550204 439.039043 846.397735 439.886574 
C 847.245265 440.734105 848.394925 441.210309 849.593514 441.210309 
z
" clip-path="url(#p40b251275d)" style="stroke: #000000; stroke-width: 1.5; stroke-linejoin: miter"/>
   </g>
   <g id="patch_33">
    <path d="M 849.593514 122.758333 
C 852.390223 122.758333 855.072762 121.647189 857.050334 119.669618 
C 859.027905 117.692046 860.139049 115.009507 860.139049 112.212799 
C 860.139049 109.41609 859.027905 106.733551 857.050334 104.755979 
C 855.072762 102.778408 852.390223 101.667264 849.593514 101.667264 
C 846.796806 101.667264 844.114267 102.778408 842.136695 104.755979 
C 840.159124 106.733551 839.047979 109.41609 839.047979 112.212799 
C 839.047979 115.009507 840.159124 117.692046 842.136695 119.669618 
C 844.114267 121.647189 846.796806 122.758333 849.593514 122.758333 
z
" clip-path="url(#p40b251275d)" style="stroke: #000000; stroke-width: 2; stroke-linejoin: miter"/>
   </g>
   <g id="patch_34">
    <path d="M 895.947514 487.564309 
C 897.146103 487.564309 898.295763 487.088104 899.143293 486.240573 
C 899.990824 485.393043 900.467029 484.243383 900.467029 483.044794 
C 900.467029 481.846204 899.990824 480.696545 899.143293 479.849014 
C 898.295763 479.001483 897.146103 478.525279 895.947514 478.525279 
C 894.748924 478.525279 893.599265 479.001483 892.751734 479.849014 
C 891.904203 480.696545 891.427999 481.846204 891.427999 483.044794 
C 891.427999 484.243383 891.904203 485.393043 892.751734 486.240573 
C 893.599265 487.088104 894.748924 487.564309 895.947514 487.564309 
z
" clip-path="url(#p40b251275d)" style="stroke: #000000; stroke-width: 1.5; stroke-linejoin: miter"/>
   </g>
   <g id="patch_35">
    <path d="M 895.947514 215.466332 
C 898.744222 215.466332 901.426761 214.355188 903.404333 212.377616 
C 905.381904 210.400045 906.493049 207.717506 906.493049 204.920797 
C 906.493049 202.124089 905.381904 199.44155 903.404333 197.463978 
C 901.426761 195.486406 898.744222 194.375262 895.947514 194.375262 
C 893.150805 194.375262 890.468266 195.486406 888.490694 197.463978 
C 886.513123 199.44155 885.401979 202.124089 885.401979 204.920797 
C 885.401979 207.717506 886.513123 210.400045 888.490694 212.377616 
C 890.468266 214.355188 893.150805 215.466332 895.947514 215.466332 
z
" clip-path="url(#p40b251275d)" style="stroke: #000000; stroke-width: 2; stroke-linejoin: miter"/>
   </g>
   <g id="patch_36">
    <path d="M 942.301513 394.85631 
C 943.500102 394.85631 944.649762 394.380105 945.497293 393.532574 
C 946.344823 392.685044 946.821028 391.535384 946.821028 390.336795 
C 946.821028 389.138205 946.344823 387.988546 945.497293 387.141015 
C 944.649762 386.293484 943.500102 385.81728 942.301513 385.81728 
C 941.102924 385.81728 939.953264 386.293484 939.105733 387.141015 
C 938.258203 387.988546 937.781998 389.138205 937.781998 390.336795 
C 937.781998 391.535384 938.258203 392.685044 939.105733 393.532574 
C 939.953264 394.380105 941.102924 394.85631 942.301513 394.85631 
z
" clip-path="url(#p40b251275d)" style="stroke: #000000; stroke-width: 1.5; stroke-linejoin: miter"/>
   </g>
   <g id="patch_37">
    <path d="M 942.301513 308.174331 
C 945.098222 308.174331 947.780761 307.063187 949.758332 305.085615 
C 951.735904 303.108044 952.847048 300.425505 952.847048 297.628796 
C 952.847048 294.832088 951.735904 292.149548 949.758332 290.171977 
C 947.780761 288.194405 945.098222 287.083261 942.301513 287.083261 
C 939.504805 287.083261 936.822265 288.194405 934.844694 290.171977 
C 932.867122 292.149548 931.755978 294.832088 931.755978 297.628796 
C 931.755978 300.425505 932.867122 303.108044 934.844694 305.085615 
C 936.822265 307.063187 939.504805 308.174331 942.301513 308.174331 
z
" clip-path="url(#p40b251275d)" style="stroke: #000000; stroke-width: 2; stroke-linejoin: miter"/>
   </g>
   <g id="patch_38">
    <path d="M 988.655512 116.732313 
C 989.854102 116.732313 991.003761 116.256109 991.851292 115.408578 
C 992.698823 114.561047 993.175027 113.411388 993.175027 112.212799 
C 993.175027 111.014209 992.698823 109.86455 991.851292 109.017019 
C 991.003761 108.169488 989.854102 107.693284 988.655512 107.693284 
C 987.456923 107.693284 986.307263 108.169488 985.459733 109.017019 
C 984.612202 109.86455 984.135998 111.014209 984.135998 112.212799 
C 984.135998 113.411388 984.612202 114.561047 985.459733 115.408578 
C 986.307263 116.256109 987.456923 116.732313 988.655512 116.732313 
z
" clip-path="url(#p40b251275d)" style="stroke: #000000; stroke-width: 1.5; stroke-linejoin: miter"/>
   </g>
   <g id="patch_39">
    <path d="M 988.655512 447.236329 
C 991.452221 447.236329 994.13476 446.125185 996.112332 444.147613 
C 998.089903 442.170042 999.201047 439.487503 999.201047 436.690794 
C 999.201047 433.894086 998.089903 431.211547 996.112332 429.233975 
C 994.13476 427.256403 991.452221 426.145259 988.655512 426.145259 
C 985.858804 426.145259 983.176265 427.256403 981.198693 429.233975 
C 979.221122 431.211547 978.109978 433.894086 978.109978 436.690794 
C 978.109978 439.487503 979.221122 442.170042 981.198693 444.147613 
C 983.176265 446.125185 985.858804 447.236329 988.655512 447.236329 
z
" clip-path="url(#p40b251275d)" style="stroke: #000000; stroke-width: 2; stroke-linejoin: miter"/>
   </g>
   <g id="patch_40">
    <path d="M 1035.009512 209.440312 
C 1036.208101 209.440312 1037.357761 208.964108 1038.205292 208.116577 
C 1039.052822 207.269046 1039.529027 206.119387 1039.529027 204.920797 
C 1039.529027 203.722208 1039.052822 202.572548 1038.205292 201.725018 
C 1037.357761 200.877487 1036.208101 200.401282 1035.009512 200.401282 
C 1033.810922 200.401282 1032.661263 200.877487 1031.813732 201.725018 
C 1030.966202 202.572548 1030.489997 203.722208 1030.489997 204.920797 
C 1030.489997 206.119387 1030.966202 207.269046 1031.813732 208.116577 
C 1032.661263 208.964108 1033.810922 209.440312 1035.009512 209.440312 
z
" clip-path="url(#p40b251275d)" style="stroke: #000000; stroke-width: 1.5; stroke-linejoin: miter"/>
   </g>
   <g id="patch_41">
    <path d="M 1035.009512 493.590328 
C 1037.80622 493.590328 1040.488759 492.479184 1042.466331 490.501613 
C 1044.443903 488.524041 1045.555047 485.841502 1045.555047 483.044794 
C 1045.555047 480.248085 1044.443903 477.565546 1042.466331 475.587974 
C 1040.488759 473.610403 1037.80622 472.499259 1035.009512 472.499259 
C 1032.212803 472.499259 1029.530264 473.610403 1027.552693 475.587974 
C 1025.575121 477.565546 1024.463977 480.248085 1024.463977 483.044794 
C 1024.463977 485.841502 1025.575121 488.524041 1027.552693 490.501613 
C 1029.530264 492.479184 1032.212803 493.590328 1035.009512 493.590328 
z
" clip-path="url(#p40b251275d)" style="stroke: #000000; stroke-width: 2; stroke-linejoin: miter"/>
   </g>
   <g id="patch_42">
    <path d="M 1019.944462 127.277848 
L 1050.074562 127.277848 
L 1050.074562 97.147749 
L 1019.944462 97.147749 
z
" clip-path="url(#p40b251275d)" style="fill: #ffffff; stroke: #000000; stroke-width: 1.5; stroke-linejoin: miter"/>
   </g>
   <g id="patch_43">
    <path d="M 1081.363511 302.148311 
C 1082.562101 302.148311 1083.71176 301.672106 1084.559291 300.824576 
C 1085.406822 299.977045 1085.883026 298.827385 1085.883026 297.628796 
C 1085.883026 296.430207 1085.406822 295.280547 1084.559291 294.433016 
C 1083.71176 293.585486 1082.562101 293.109281 1081.363511 293.109281 
C 1080.164922 293.109281 1079.015262 293.585486 1078.167732 294.433016 
C 1077.320201 295.280547 1076.843996 296.430207 1076.843996 297.628796 
C 1076.843996 298.827385 1077.320201 299.977045 1078.167732 300.824576 
C 1079.015262 301.672106 1080.164922 302.148311 1081.363511 302.148311 
z
" clip-path="url(#p40b251275d)" style="stroke: #000000; stroke-width: 1.5; stroke-linejoin: miter"/>
   </g>
   <g id="patch_44">
    <path d="M 1081.363511 400.88233 
C 1084.16022 400.88233 1086.842759 399.771186 1088.82033 397.793614 
C 1090.797902 395.816042 1091.909046 393.133503 1091.909046 390.336795 
C 1091.909046 387.540086 1090.797902 384.857547 1088.82033 382.879976 
C 1086.842759 380.902404 1084.16022 379.79126 1081.363511 379.79126 
C 1078.566803 379.79126 1075.884264 380.902404 1073.906692 382.879976 
C 1071.92912 384.857547 1070.817976 387.540086 1070.817976 390.336795 
C 1070.817976 393.133503 1071.92912 395.816042 1073.906692 397.793614 
C 1075.884264 399.771186 1078.566803 400.88233 1081.363511 400.88233 
z
" clip-path="url(#p40b251275d)" style="stroke: #000000; stroke-width: 2; stroke-linejoin: miter"/>
   </g>
   <g id="patch_45">
    <path d="M 1066.298461 451.755844 
L 1096.428561 451.755844 
L 1096.428561 421.625744 
L 1066.298461 421.625744 
z
" clip-path="url(#p40b251275d)" style="fill: #ffffff; stroke: #000000; stroke-width: 1.5; stroke-linejoin: miter"/>
   </g>
   <g id="patch_46">
    <path d="M 1066.298461 219.985847 
L 1096.428561 219.985847 
L 1096.428561 189.855747 
L 1066.298461 189.855747 
z
" clip-path="url(#p40b251275d)" style="fill: #ffffff; stroke: #000000; stroke-width: 1.5; stroke-linejoin: miter"/>
   </g>
   <g id="patch_47">
    <path d="M 1066.298461 498.109843 
L 1096.428561 498.109843 
L 1096.428561 467.979744 
L 1066.298461 467.979744 
z
" clip-path="url(#p40b251275d)" style="fill: #ffffff; stroke: #000000; stroke-width: 1.5; stroke-linejoin: miter"/>
   </g>
   <g id="patch_48">
    <path d="M 1112.652461 312.693846 
L 1142.78256 312.693846 
L 1142.78256 282.563746 
L 1112.652461 282.563746 
z
" clip-path="url(#p40b251275d)" style="fill: #ffffff; stroke: #000000; stroke-width: 1.5; stroke-linejoin: miter"/>
   </g>
   <g id="patch_49">
    <path d="M 1112.652461 405.401845 
L 1142.78256 405.401845 
L 1142.78256 375.271745 
L 1112.652461 375.271745 
z
" clip-path="url(#p40b251275d)" style="fill: #ffffff; stroke: #000000; stroke-width: 1.5; stroke-linejoin: miter"/>
   </g>
   <g id="text_2">
    <g clip-path="url(#p40b251275d)">
     <!-- ${q}_{0}$ -->
     <g transform="translate(194.652063 116.663775)scale(0.1625 -0.1625)">
      <defs>
       <path id="DejaVuSans-Oblique-71" d="M 2669 525 
Q 2438 222 2123 65 
Q 1809 -91 1428 -91 
Q 897 -91 595 267 
Q 294 625 294 1253 
Q 294 1759 480 2231 
Q 666 2703 1013 3078 
Q 1238 3322 1530 3453 
Q 1822 3584 2144 3584 
Q 2531 3584 2781 3431 
Q 3031 3278 3144 2969 
L 3244 3494 
L 3822 3494 
L 2888 -1319 
L 2309 -1319 
L 2669 525 
z
M 891 1338 
Q 891 875 1084 633 
Q 1278 391 1644 391 
Q 2188 391 2572 911 
Q 2956 1431 2956 2175 
Q 2956 2625 2757 2864 
Q 2559 3103 2188 3103 
Q 1916 3103 1684 2976 
Q 1453 2850 1281 2606 
Q 1100 2350 995 2006 
Q 891 1663 891 1338 
z
" transform="scale(0.015625)"/>
      </defs>
      <use xlink:href="#DejaVuSans-Oblique-71"/>
      <use xlink:href="#DejaVuSans-30" transform="translate(63.476562 -16.40625)scale(0.7)"/>
     </g>
    </g>
   </g>
   <g id="text_3">
    <g clip-path="url(#p40b251275d)">
     <!-- ${q}_{1}$ -->
     <g transform="translate(194.652063 163.017774)scale(0.1625 -0.1625)">
      <defs>
       <path id="DejaVuSans-31" d="M 794 531 
L 1825 531 
L 1825 4091 
L 703 3866 
L 703 4441 
L 1819 4666 
L 2450 4666 
L 2450 531 
L 3481 531 
L 3481 0 
L 794 0 
L 794 531 
z
" transform="scale(0.015625)"/>
      </defs>
      <use xlink:href="#DejaVuSans-Oblique-71"/>
      <use xlink:href="#DejaVuSans-31" transform="translate(63.476562 -16.40625)scale(0.7)"/>
     </g>
    </g>
   </g>
   <g id="text_4">
    <g clip-path="url(#p40b251275d)">
     <!-- ${q}_{2}$ -->
     <g transform="translate(194.652063 209.371774)scale(0.1625 -0.1625)">
      <use xlink:href="#DejaVuSans-Oblique-71"/>
      <use xlink:href="#DejaVuSans-32" transform="translate(63.476562 -16.40625)scale(0.7)"/>
     </g>
    </g>
   </g>
   <g id="text_5">
    <g clip-path="url(#p40b251275d)">
     <!-- ${q}_{3}$ -->
     <g transform="translate(194.652063 255.725773)scale(0.1625 -0.1625)">
      <defs>
       <path id="DejaVuSans-33" d="M 2597 2516 
Q 3050 2419 3304 2112 
Q 3559 1806 3559 1356 
Q 3559 666 3084 287 
Q 2609 -91 1734 -91 
Q 1441 -91 1130 -33 
Q 819 25 488 141 
L 488 750 
Q 750 597 1062 519 
Q 1375 441 1716 441 
Q 2309 441 2620 675 
Q 2931 909 2931 1356 
Q 2931 1769 2642 2001 
Q 2353 2234 1838 2234 
L 1294 2234 
L 1294 2753 
L 1863 2753 
Q 2328 2753 2575 2939 
Q 2822 3125 2822 3475 
Q 2822 3834 2567 4026 
Q 2313 4219 1838 4219 
Q 1578 4219 1281 4162 
Q 984 4106 628 3988 
L 628 4550 
Q 988 4650 1302 4700 
Q 1616 4750 1894 4750 
Q 2613 4750 3031 4423 
Q 3450 4097 3450 3541 
Q 3450 3153 3228 2886 
Q 3006 2619 2597 2516 
z
" transform="scale(0.015625)"/>
      </defs>
      <use xlink:href="#DejaVuSans-Oblique-71"/>
      <use xlink:href="#DejaVuSans-33" transform="translate(63.476562 -16.40625)scale(0.7)"/>
     </g>
    </g>
   </g>
   <g id="text_6">
    <g clip-path="url(#p40b251275d)">
     <!-- ${q}_{4}$ -->
     <g transform="translate(194.652063 302.079773)scale(0.1625 -0.1625)">
      <use xlink:href="#DejaVuSans-Oblique-71"/>
      <use xlink:href="#DejaVuSans-34" transform="translate(63.476562 -16.40625)scale(0.7)"/>
     </g>
    </g>
   </g>
   <g id="text_7">
    <g clip-path="url(#p40b251275d)">
     <!-- ${q}_{5}$ -->
     <g transform="translate(194.652063 348.433772)scale(0.1625 -0.1625)">
      <defs>
       <path id="DejaVuSans-35" d="M 691 4666 
L 3169 4666 
L 3169 4134 
L 1269 4134 
L 1269 2991 
Q 1406 3038 1543 3061 
Q 1681 3084 1819 3084 
Q 2600 3084 3056 2656 
Q 3513 2228 3513 1497 
Q 3513 744 3044 326 
Q 2575 -91 1722 -91 
Q 1428 -91 1123 -41 
Q 819 9 494 109 
L 494 744 
Q 775 591 1075 516 
Q 1375 441 1709 441 
Q 2250 441 2565 725 
Q 2881 1009 2881 1497 
Q 2881 1984 2565 2268 
Q 2250 2553 1709 2553 
Q 1456 2553 1204 2497 
Q 953 2441 691 2322 
L 691 4666 
z
" transform="scale(0.015625)"/>
      </defs>
      <use xlink:href="#DejaVuSans-Oblique-71"/>
      <use xlink:href="#DejaVuSans-35" transform="translate(63.476562 -16.40625)scale(0.7)"/>
     </g>
    </g>
   </g>
   <g id="text_8">
    <g clip-path="url(#p40b251275d)">
     <!-- ${q}_{6}$ -->
     <g transform="translate(194.652063 394.787771)scale(0.1625 -0.1625)">
      <use xlink:href="#DejaVuSans-Oblique-71"/>
      <use xlink:href="#DejaVuSans-36" transform="translate(63.476562 -16.40625)scale(0.7)"/>
     </g>
    </g>
   </g>
   <g id="text_9">
    <g clip-path="url(#p40b251275d)">
     <!-- ${q}_{7}$ -->
     <g transform="translate(194.652063 441.141771)scale(0.1625 -0.1625)">
      <use xlink:href="#DejaVuSans-Oblique-71"/>
      <use xlink:href="#DejaVuSans-37" transform="translate(63.476562 -16.40625)scale(0.7)"/>
     </g>
    </g>
   </g>
   <g id="text_10">
    <g clip-path="url(#p40b251275d)">
     <!-- ${q}_{8}$ -->
     <g transform="translate(194.652063 487.49577)scale(0.1625 -0.1625)">
      <use xlink:href="#DejaVuSans-Oblique-71"/>
      <use xlink:href="#DejaVuSans-38" transform="translate(63.476562 -16.40625)scale(0.7)"/>
     </g>
    </g>
   </g>
   <g id="text_11">
    <g clip-path="url(#p40b251275d)">
     <!-- ${q}_{9}$ -->
     <g transform="translate(194.652063 533.84977)scale(0.1625 -0.1625)">
      <defs>
       <path id="DejaVuSans-39" d="M 703 97 
L 703 672 
Q 941 559 1184 500 
Q 1428 441 1663 441 
Q 2288 441 2617 861 
Q 2947 1281 2994 2138 
Q 2813 1869 2534 1725 
Q 2256 1581 1919 1581 
Q 1219 1581 811 2004 
Q 403 2428 403 3163 
Q 403 3881 828 4315 
Q 1253 4750 1959 4750 
Q 2769 4750 3195 4129 
Q 3622 3509 3622 2328 
Q 3622 1225 3098 567 
Q 2575 -91 1691 -91 
Q 1453 -91 1209 -44 
Q 966 3 703 97 
z
M 1959 2075 
Q 2384 2075 2632 2365 
Q 2881 2656 2881 3163 
Q 2881 3666 2632 3958 
Q 2384 4250 1959 4250 
Q 1534 4250 1286 3958 
Q 1038 3666 1038 3163 
Q 1038 2656 1286 2365 
Q 1534 2075 1959 2075 
z
" transform="scale(0.015625)"/>
      </defs>
      <use xlink:href="#DejaVuSans-Oblique-71"/>
      <use xlink:href="#DejaVuSans-39" transform="translate(63.476562 -16.40625)scale(0.7)"/>
     </g>
    </g>
   </g>
   <g id="line2d_29">
    <path d="M 246.991522 442.716814 
L 246.991522 430.664774 
" clip-path="url(#p40b251275d)" style="fill: none; stroke: #ffffff; stroke-width: 2; stroke-linecap: square"/>
   </g>
   <g id="line2d_30">
    <path d="M 240.965502 436.690794 
L 253.017542 436.690794 
" clip-path="url(#p40b251275d)" style="fill: none; stroke: #ffffff; stroke-width: 2; stroke-linecap: square"/>
   </g>
   <g id="line2d_31">
    <path d="M 293.345522 489.070814 
L 293.345522 477.018774 
" clip-path="url(#p40b251275d)" style="fill: none; stroke: #ffffff; stroke-width: 2; stroke-linecap: square"/>
   </g>
   <g id="line2d_32">
    <path d="M 287.319502 483.044794 
L 299.371542 483.044794 
" clip-path="url(#p40b251275d)" style="fill: none; stroke: #ffffff; stroke-width: 2; stroke-linecap: square"/>
   </g>
   <g id="line2d_33">
    <path d="M 339.699521 396.362815 
L 339.699521 384.310775 
" clip-path="url(#p40b251275d)" style="fill: none; stroke: #ffffff; stroke-width: 2; stroke-linecap: square"/>
   </g>
   <g id="line2d_34">
    <path d="M 333.673501 390.336795 
L 345.725541 390.336795 
" clip-path="url(#p40b251275d)" style="fill: none; stroke: #ffffff; stroke-width: 2; stroke-linecap: square"/>
   </g>
   <g id="line2d_35">
    <path d="M 386.05352 118.238818 
L 386.05352 106.186779 
" clip-path="url(#p40b251275d)" style="fill: none; stroke: #ffffff; stroke-width: 2; stroke-linecap: square"/>
   </g>
   <g id="line2d_36">
    <path d="M 380.027501 112.212799 
L 392.07954 112.212799 
" clip-path="url(#p40b251275d)" style="fill: none; stroke: #ffffff; stroke-width: 2; stroke-linecap: square"/>
   </g>
   <g id="line2d_37">
    <path d="M 432.40752 210.946817 
L 432.40752 198.894777 
" clip-path="url(#p40b251275d)" style="fill: none; stroke: #ffffff; stroke-width: 2; stroke-linecap: square"/>
   </g>
   <g id="line2d_38">
    <path d="M 426.3815 204.920797 
L 438.43354 204.920797 
" clip-path="url(#p40b251275d)" style="fill: none; stroke: #ffffff; stroke-width: 2; stroke-linecap: square"/>
   </g>
   <g id="line2d_39">
    <path d="M 478.761519 303.654816 
L 478.761519 291.602776 
" clip-path="url(#p40b251275d)" style="fill: none; stroke: #ffffff; stroke-width: 2; stroke-linecap: square"/>
   </g>
   <g id="line2d_40">
    <path d="M 472.735499 297.628796 
L 484.787539 297.628796 
" clip-path="url(#p40b251275d)" style="fill: none; stroke: #ffffff; stroke-width: 2; stroke-linecap: square"/>
   </g>
   <g id="line2d_41">
    <path d="M 525.115519 442.716814 
L 525.115519 430.664774 
" clip-path="url(#p40b251275d)" style="fill: none; stroke: #ffffff; stroke-width: 2; stroke-linecap: square"/>
   </g>
   <g id="line2d_42">
    <path d="M 519.089499 436.690794 
L 531.141539 436.690794 
" clip-path="url(#p40b251275d)" style="fill: none; stroke: #ffffff; stroke-width: 2; stroke-linecap: square"/>
   </g>
   <g id="line2d_43">
    <path d="M 571.469518 489.070814 
L 571.469518 477.018774 
" clip-path="url(#p40b251275d)" style="fill: none; stroke: #ffffff; stroke-width: 2; stroke-linecap: square"/>
   </g>
   <g id="line2d_44">
    <path d="M 565.443498 483.044794 
L 577.495538 483.044794 
" clip-path="url(#p40b251275d)" style="fill: none; stroke: #ffffff; stroke-width: 2; stroke-linecap: square"/>
   </g>
   <g id="text_12">
    <g clip-path="url(#p40b251275d)">
     <!-- H -->
     <g transform="translate(566.581315 115.799986)scale(0.13 -0.13)">
      <defs>
       <path id="DejaVuSans-48" d="M 628 4666 
L 1259 4666 
L 1259 2753 
L 3553 2753 
L 3553 4666 
L 4184 4666 
L 4184 0 
L 3553 0 
L 3553 2222 
L 1259 2222 
L 1259 0 
L 628 0 
L 628 4666 
z
" transform="scale(0.015625)"/>
      </defs>
      <use xlink:href="#DejaVuSans-48"/>
     </g>
    </g>
   </g>
   <g id="line2d_45">
    <path d="M 617.823517 396.362815 
L 617.823517 384.310775 
" clip-path="url(#p40b251275d)" style="fill: none; stroke: #ffffff; stroke-width: 2; stroke-linecap: square"/>
   </g>
   <g id="line2d_46">
    <path d="M 611.797497 390.336795 
L 623.849537 390.336795 
" clip-path="url(#p40b251275d)" style="fill: none; stroke: #ffffff; stroke-width: 2; stroke-linecap: square"/>
   </g>
   <g id="text_13">
    <g clip-path="url(#p40b251275d)">
     <!-- H -->
     <g transform="translate(612.935314 440.277982)scale(0.13 -0.13)">
      <use xlink:href="#DejaVuSans-48"/>
     </g>
    </g>
   </g>
   <g id="text_14">
    <g clip-path="url(#p40b251275d)">
     <!-- H -->
     <g transform="translate(612.935314 208.507985)scale(0.13 -0.13)">
      <use xlink:href="#DejaVuSans-48"/>
     </g>
    </g>
   </g>
   <g id="text_15">
    <g clip-path="url(#p40b251275d)">
     <!-- H -->
     <g transform="translate(612.935314 486.631981)scale(0.13 -0.13)">
      <use xlink:href="#DejaVuSans-48"/>
     </g>
    </g>
   </g>
   <g id="text_16">
    <g clip-path="url(#p40b251275d)">
     <!-- H -->
     <g transform="translate(659.289314 301.215984)scale(0.13 -0.13)">
      <use xlink:href="#DejaVuSans-48"/>
     </g>
    </g>
   </g>
   <g id="text_17">
    <g clip-path="url(#p40b251275d)">
     <!-- H -->
     <g transform="translate(659.289314 393.923982)scale(0.13 -0.13)">
      <use xlink:href="#DejaVuSans-48"/>
     </g>
    </g>
   </g>
   <g id="line2d_47">
    <path d="M 710.531516 442.716814 
L 710.531516 430.664774 
" clip-path="url(#p40b251275d)" style="fill: none; stroke: #ffffff; stroke-width: 2; stroke-linecap: square"/>
   </g>
   <g id="line2d_48">
    <path d="M 704.505496 436.690794 
L 716.557536 436.690794 
" clip-path="url(#p40b251275d)" style="fill: none; stroke: #ffffff; stroke-width: 2; stroke-linecap: square"/>
   </g>
   <g id="line2d_49">
    <path d="M 756.885516 489.070814 
L 756.885516 477.018774 
" clip-path="url(#p40b251275d)" style="fill: none; stroke: #ffffff; stroke-width: 2; stroke-linecap: square"/>
   </g>
   <g id="line2d_50">
    <path d="M 750.859496 483.044794 
L 762.911535 483.044794 
" clip-path="url(#p40b251275d)" style="fill: none; stroke: #ffffff; stroke-width: 2; stroke-linecap: square"/>
   </g>
   <g id="line2d_51">
    <path d="M 803.239515 396.362815 
L 803.239515 384.310775 
" clip-path="url(#p40b251275d)" style="fill: none; stroke: #ffffff; stroke-width: 2; stroke-linecap: square"/>
   </g>
   <g id="line2d_52">
    <path d="M 797.213495 390.336795 
L 809.265535 390.336795 
" clip-path="url(#p40b251275d)" style="fill: none; stroke: #ffffff; stroke-width: 2; stroke-linecap: square"/>
   </g>
   <g id="line2d_53">
    <path d="M 849.593514 118.238818 
L 849.593514 106.186779 
" clip-path="url(#p40b251275d)" style="fill: none; stroke: #ffffff; stroke-width: 2; stroke-linecap: square"/>
   </g>
   <g id="line2d_54">
    <path d="M 843.567494 112.212799 
L 855.619534 112.212799 
" clip-path="url(#p40b251275d)" style="fill: none; stroke: #ffffff; stroke-width: 2; stroke-linecap: square"/>
   </g>
   <g id="line2d_55">
    <path d="M 895.947514 210.946817 
L 895.947514 198.894777 
" clip-path="url(#p40b251275d)" style="fill: none; stroke: #ffffff; stroke-width: 2; stroke-linecap: square"/>
   </g>
   <g id="line2d_56">
    <path d="M 889.921494 204.920797 
L 901.973534 204.920797 
" clip-path="url(#p40b251275d)" style="fill: none; stroke: #ffffff; stroke-width: 2; stroke-linecap: square"/>
   </g>
   <g id="line2d_57">
    <path d="M 942.301513 303.654816 
L 942.301513 291.602776 
" clip-path="url(#p40b251275d)" style="fill: none; stroke: #ffffff; stroke-width: 2; stroke-linecap: square"/>
   </g>
   <g id="line2d_58">
    <path d="M 936.275493 297.628796 
L 948.327533 297.628796 
" clip-path="url(#p40b251275d)" style="fill: none; stroke: #ffffff; stroke-width: 2; stroke-linecap: square"/>
   </g>
   <g id="line2d_59">
    <path d="M 988.655512 442.716814 
L 988.655512 430.664774 
" clip-path="url(#p40b251275d)" style="fill: none; stroke: #ffffff; stroke-width: 2; stroke-linecap: square"/>
   </g>
   <g id="line2d_60">
    <path d="M 982.629493 436.690794 
L 994.681532 436.690794 
" clip-path="url(#p40b251275d)" style="fill: none; stroke: #ffffff; stroke-width: 2; stroke-linecap: square"/>
   </g>
   <g id="line2d_61">
    <path d="M 1035.009512 489.070814 
L 1035.009512 477.018774 
" clip-path="url(#p40b251275d)" style="fill: none; stroke: #ffffff; stroke-width: 2; stroke-linecap: square"/>
   </g>
   <g id="line2d_62">
    <path d="M 1028.983492 483.044794 
L 1041.035532 483.044794 
" clip-path="url(#p40b251275d)" style="fill: none; stroke: #ffffff; stroke-width: 2; stroke-linecap: square"/>
   </g>
   <g id="text_18">
    <g clip-path="url(#p40b251275d)">
     <!-- H -->
     <g transform="translate(1030.121309 115.799986)scale(0.13 -0.13)">
      <use xlink:href="#DejaVuSans-48"/>
     </g>
    </g>
   </g>
   <g id="line2d_63">
    <path d="M 1081.363511 396.362815 
L 1081.363511 384.310775 
" clip-path="url(#p40b251275d)" style="fill: none; stroke: #ffffff; stroke-width: 2; stroke-linecap: square"/>
   </g>
   <g id="line2d_64">
    <path d="M 1075.337491 390.336795 
L 1087.389531 390.336795 
" clip-path="url(#p40b251275d)" style="fill: none; stroke: #ffffff; stroke-width: 2; stroke-linecap: square"/>
   </g>
   <g id="text_19">
    <g clip-path="url(#p40b251275d)">
     <!-- H -->
     <g transform="translate(1076.475308 440.277982)scale(0.13 -0.13)">
      <use xlink:href="#DejaVuSans-48"/>
     </g>
    </g>
   </g>
   <g id="text_20">
    <g clip-path="url(#p40b251275d)">
     <!-- H -->
     <g transform="translate(1076.475308 208.507985)scale(0.13 -0.13)">
      <use xlink:href="#DejaVuSans-48"/>
     </g>
    </g>
   </g>
   <g id="text_21">
    <g clip-path="url(#p40b251275d)">
     <!-- H -->
     <g transform="translate(1076.475308 486.631981)scale(0.13 -0.13)">
      <use xlink:href="#DejaVuSans-48"/>
     </g>
    </g>
   </g>
   <g id="text_22">
    <g clip-path="url(#p40b251275d)">
     <!-- H -->
     <g transform="translate(1122.829307 301.215984)scale(0.13 -0.13)">
      <use xlink:href="#DejaVuSans-48"/>
     </g>
    </g>
   </g>
   <g id="text_23">
    <g clip-path="url(#p40b251275d)">
     <!-- H -->
     <g transform="translate(1122.829307 393.923982)scale(0.13 -0.13)">
      <use xlink:href="#DejaVuSans-48"/>
     </g>
    </g>
   </g>
  </g>
 </g>
 <defs>
  <clipPath id="p40b251275d">
   <rect x="164.551166" y="75.129599" width="993.759984" height="482.081594"/>
  </clipPath>
 </defs>
</svg>
