<?xml version="1.0" encoding="utf-8" standalone="no"?>
<!DOCTYPE svg PUBLIC "-//W3C//DTD SVG 1.1//EN"
  "http://www.w3.org/Graphics/SVG/1.1/DTD/svg11.dtd">
<svg xmlns:xlink="http://www.w3.org/1999/xlink" width="1711.997376pt" height="626.079992pt" viewBox="0 0 1711.997376 626.079992" xmlns="http://www.w3.org/2000/svg" version="1.1">
 <metadata>
  <rdf:RDF xmlns:dc="http://purl.org/dc/elements/1.1/" xmlns:cc="http://creativecommons.org/ns#" xmlns:rdf="http://www.w3.org/1999/02/22-rdf-syntax-ns#">
   <cc:Work>
    <dc:type rdf:resource="http://purl.org/dc/dcmitype/StillImage"/>
    <dc:date>2022-05-14T14:30:44.892986</dc:date>
    <dc:format>image/svg+xml</dc:format>
    <dc:creator>
     <cc:Agent>
      <dc:title>Matplotlib v3.5.1, https://matplotlib.org/</dc:title>
     </cc:Agent>
    </dc:creator>
   </cc:Work>
  </rdf:RDF>
 </metadata>
 <defs>
  <style type="text/css">*{stroke-linejoin: round; stroke-linecap: butt}</style>
 </defs>
 <g id="figure_1">
  <g id="patch_1">
   <path d="M 0 626.079992 
L 1711.997376 626.079992 
L 1711.997376 0 
L 0 0 
z
" style="fill: #ffffff"/>
  </g>
  <g id="axes_1">
   <g id="line2d_1">
    <path d="M 275.688862 112.212799 
L 1531.882245 112.212799 
" clip-path="url(#p34cd2338ef)" style="fill: none; stroke: #000000; stroke-width: 2; stroke-linecap: square"/>
   </g>
   <g id="line2d_2">
    <path d="M 275.688862 158.566798 
L 1531.882245 158.566798 
" clip-path="url(#p34cd2338ef)" style="fill: none; stroke: #000000; stroke-width: 2; stroke-linecap: square"/>
   </g>
   <g id="line2d_3">
    <path d="M 275.688862 204.920797 
L 1531.882245 204.920797 
" clip-path="url(#p34cd2338ef)" style="fill: none; stroke: #000000; stroke-width: 2; stroke-linecap: square"/>
   </g>
   <g id="line2d_4">
    <path d="M 275.688862 251.274797 
L 1531.882245 251.274797 
" clip-path="url(#p34cd2338ef)" style="fill: none; stroke: #000000; stroke-width: 2; stroke-linecap: square"/>
   </g>
   <g id="line2d_5">
    <path d="M 275.688862 297.628796 
L 1531.882245 297.628796 
" clip-path="url(#p34cd2338ef)" style="fill: none; stroke: #000000; stroke-width: 2; stroke-linecap: square"/>
   </g>
   <g id="line2d_6">
    <path d="M 275.688862 343.982795 
L 1531.882245 343.982795 
" clip-path="url(#p34cd2338ef)" style="fill: none; stroke: #000000; stroke-width: 2; stroke-linecap: square"/>
   </g>
   <g id="line2d_7">
    <path d="M 275.688862 390.336795 
L 1531.882245 390.336795 
" clip-path="url(#p34cd2338ef)" style="fill: none; stroke: #000000; stroke-width: 2; stroke-linecap: square"/>
   </g>
   <g id="line2d_8">
    <path d="M 275.688862 436.690794 
L 1531.882245 436.690794 
" clip-path="url(#p34cd2338ef)" style="fill: none; stroke: #000000; stroke-width: 2; stroke-linecap: square"/>
   </g>
   <g id="line2d_9">
    <path d="M 275.688862 483.044794 
L 1531.882245 483.044794 
" clip-path="url(#p34cd2338ef)" style="fill: none; stroke: #000000; stroke-width: 2; stroke-linecap: square"/>
   </g>
   <g id="line2d_10">
    <path d="M 275.688862 529.398793 
L 1531.882245 529.398793 
" clip-path="url(#p34cd2338ef)" style="fill: none; stroke: #000000; stroke-width: 2; stroke-linecap: square"/>
   </g>
   <g id="line2d_11">
    <path d="M 347.074021 390.336795 
L 347.074021 297.628796 
" clip-path="url(#p34cd2338ef)" style="fill: none; stroke: #000000; stroke-width: 2; stroke-linecap: square"/>
   </g>
   <g id="line2d_12">
    <path d="M 393.42802 529.398793 
L 393.42802 297.628796 
" clip-path="url(#p34cd2338ef)" style="fill: none; stroke: #000000; stroke-width: 2; stroke-linecap: square"/>
   </g>
   <g id="line2d_13">
    <path d="M 486.136019 529.398793 
L 486.136019 297.628796 
" clip-path="url(#p34cd2338ef)" style="fill: none; stroke: #000000; stroke-width: 2; stroke-linecap: square"/>
   </g>
   <g id="line2d_14">
    <path d="M 532.490019 390.336795 
L 532.490019 297.628796 
" clip-path="url(#p34cd2338ef)" style="fill: none; stroke: #000000; stroke-width: 2; stroke-linecap: square"/>
   </g>
   <g id="line2d_15">
    <path d="M 578.844018 390.336795 
L 578.844018 297.628796 
" clip-path="url(#p34cd2338ef)" style="fill: none; stroke: #000000; stroke-width: 2; stroke-linecap: square"/>
   </g>
   <g id="line2d_16">
    <path d="M 671.552017 529.398793 
L 671.552017 483.044794 
" clip-path="url(#p34cd2338ef)" style="fill: none; stroke: #000000; stroke-width: 2; stroke-linecap: square"/>
   </g>
   <g id="line2d_17">
    <path d="M 810.614015 529.398793 
L 810.614015 483.044794 
" clip-path="url(#p34cd2338ef)" style="fill: none; stroke: #000000; stroke-width: 2; stroke-linecap: square"/>
   </g>
   <g id="line2d_18">
    <path d="M 996.030012 529.398793 
L 996.030012 297.628796 
" clip-path="url(#p34cd2338ef)" style="fill: none; stroke: #000000; stroke-width: 2; stroke-linecap: square"/>
   </g>
   <g id="line2d_19">
    <path d="M 1088.738011 529.398793 
L 1088.738011 297.628796 
" clip-path="url(#p34cd2338ef)" style="fill: none; stroke: #000000; stroke-width: 2; stroke-linecap: square"/>
   </g>
   <g id="line2d_20">
    <path d="M 1135.092011 390.336795 
L 1135.092011 297.628796 
" clip-path="url(#p34cd2338ef)" style="fill: none; stroke: #000000; stroke-width: 2; stroke-linecap: square"/>
   </g>
   <g id="line2d_21">
    <path d="M 1274.154009 529.398793 
L 1274.154009 483.044794 
" clip-path="url(#p34cd2338ef)" style="fill: none; stroke: #000000; stroke-width: 2; stroke-linecap: square"/>
   </g>
   <g id="line2d_22">
    <path d="M 1413.216007 529.398793 
L 1413.216007 483.044794 
" clip-path="url(#p34cd2338ef)" style="fill: none; stroke: #000000; stroke-width: 2; stroke-linecap: square"/>
   </g>
   <g id="text_1">
    <!-- TERMS: 2, DEPTH:25 -->
    <g transform="translate(815.366155 69.129599)scale(0.12 -0.12)">
     <defs>
      <path id="DejaVuSans-54" d="M -19 4666 
L 3928 4666 
L 3928 4134 
L 2272 4134 
L 2272 0 
L 1638 0 
L 1638 4134 
L -19 4134 
L -19 4666 
z
" transform="scale(0.015625)"/>
      <path id="DejaVuSans-45" d="M 628 4666 
L 3578 4666 
L 3578 4134 
L 1259 4134 
L 1259 2753 
L 3481 2753 
L 3481 2222 
L 1259 2222 
L 1259 531 
L 3634 531 
L 3634 0 
L 628 0 
L 628 4666 
z
" transform="scale(0.015625)"/>
      <path id="DejaVuSans-52" d="M 2841 2188 
Q 3044 2119 3236 1894 
Q 3428 1669 3622 1275 
L 4263 0 
L 3584 0 
L 2988 1197 
Q 2756 1666 2539 1819 
Q 2322 1972 1947 1972 
L 1259 1972 
L 1259 0 
L 628 0 
L 628 4666 
L 2053 4666 
Q 2853 4666 3247 4331 
Q 3641 3997 3641 3322 
Q 3641 2881 3436 2590 
Q 3231 2300 2841 2188 
z
M 1259 4147 
L 1259 2491 
L 2053 2491 
Q 2509 2491 2742 2702 
Q 2975 2913 2975 3322 
Q 2975 3731 2742 3939 
Q 2509 4147 2053 4147 
L 1259 4147 
z
" transform="scale(0.015625)"/>
      <path id="DejaVuSans-4d" d="M 628 4666 
L 1569 4666 
L 2759 1491 
L 3956 4666 
L 4897 4666 
L 4897 0 
L 4281 0 
L 4281 4097 
L 3078 897 
L 2444 897 
L 1241 4097 
L 1241 0 
L 628 0 
L 628 4666 
z
" transform="scale(0.015625)"/>
      <path id="DejaVuSans-53" d="M 3425 4513 
L 3425 3897 
Q 3066 4069 2747 4153 
Q 2428 4238 2131 4238 
Q 1616 4238 1336 4038 
Q 1056 3838 1056 3469 
Q 1056 3159 1242 3001 
Q 1428 2844 1947 2747 
L 2328 2669 
Q 3034 2534 3370 2195 
Q 3706 1856 3706 1288 
Q 3706 609 3251 259 
Q 2797 -91 1919 -91 
Q 1588 -91 1214 -16 
Q 841 59 441 206 
L 441 856 
Q 825 641 1194 531 
Q 1563 422 1919 422 
Q 2459 422 2753 634 
Q 3047 847 3047 1241 
Q 3047 1584 2836 1778 
Q 2625 1972 2144 2069 
L 1759 2144 
Q 1053 2284 737 2584 
Q 422 2884 422 3419 
Q 422 4038 858 4394 
Q 1294 4750 2059 4750 
Q 2388 4750 2728 4690 
Q 3069 4631 3425 4513 
z
" transform="scale(0.015625)"/>
      <path id="DejaVuSans-3a" d="M 750 794 
L 1409 794 
L 1409 0 
L 750 0 
L 750 794 
z
M 750 3309 
L 1409 3309 
L 1409 2516 
L 750 2516 
L 750 3309 
z
" transform="scale(0.015625)"/>
      <path id="DejaVuSans-20" transform="scale(0.015625)"/>
      <path id="DejaVuSans-32" d="M 1228 531 
L 3431 531 
L 3431 0 
L 469 0 
L 469 531 
Q 828 903 1448 1529 
Q 2069 2156 2228 2338 
Q 2531 2678 2651 2914 
Q 2772 3150 2772 3378 
Q 2772 3750 2511 3984 
Q 2250 4219 1831 4219 
Q 1534 4219 1204 4116 
Q 875 4013 500 3803 
L 500 4441 
Q 881 4594 1212 4672 
Q 1544 4750 1819 4750 
Q 2544 4750 2975 4387 
Q 3406 4025 3406 3419 
Q 3406 3131 3298 2873 
Q 3191 2616 2906 2266 
Q 2828 2175 2409 1742 
Q 1991 1309 1228 531 
z
" transform="scale(0.015625)"/>
      <path id="DejaVuSans-2c" d="M 750 794 
L 1409 794 
L 1409 256 
L 897 -744 
L 494 -744 
L 750 256 
L 750 794 
z
" transform="scale(0.015625)"/>
      <path id="DejaVuSans-44" d="M 1259 4147 
L 1259 519 
L 2022 519 
Q 2988 519 3436 956 
Q 3884 1394 3884 2338 
Q 3884 3275 3436 3711 
Q 2988 4147 2022 4147 
L 1259 4147 
z
M 628 4666 
L 1925 4666 
Q 3281 4666 3915 4102 
Q 4550 3538 4550 2338 
Q 4550 1131 3912 565 
Q 3275 0 1925 0 
L 628 0 
L 628 4666 
z
" transform="scale(0.015625)"/>
      <path id="DejaVuSans-50" d="M 1259 4147 
L 1259 2394 
L 2053 2394 
Q 2494 2394 2734 2622 
Q 2975 2850 2975 3272 
Q 2975 3691 2734 3919 
Q 2494 4147 2053 4147 
L 1259 4147 
z
M 628 4666 
L 2053 4666 
Q 2838 4666 3239 4311 
Q 3641 3956 3641 3272 
Q 3641 2581 3239 2228 
Q 2838 1875 2053 1875 
L 1259 1875 
L 1259 0 
L 628 0 
L 628 4666 
z
" transform="scale(0.015625)"/>
      <path id="DejaVuSans-48" d="M 628 4666 
L 1259 4666 
L 1259 2753 
L 3553 2753 
L 3553 4666 
L 4184 4666 
L 4184 0 
L 3553 0 
L 3553 2222 
L 1259 2222 
L 1259 0 
L 628 0 
L 628 4666 
z
" transform="scale(0.015625)"/>
      <path id="DejaVuSans-35" d="M 691 4666 
L 3169 4666 
L 3169 4134 
L 1269 4134 
L 1269 2991 
Q 1406 3038 1543 3061 
Q 1681 3084 1819 3084 
Q 2600 3084 3056 2656 
Q 3513 2228 3513 1497 
Q 3513 744 3044 326 
Q 2575 -91 1722 -91 
Q 1428 -91 1123 -41 
Q 819 9 494 109 
L 494 744 
Q 775 591 1075 516 
Q 1375 441 1709 441 
Q 2250 441 2565 725 
Q 2881 1009 2881 1497 
Q 2881 1984 2565 2268 
Q 2250 2553 1709 2553 
Q 1456 2553 1204 2497 
Q 953 2441 691 2322 
L 691 4666 
z
" transform="scale(0.015625)"/>
     </defs>
     <use xlink:href="#DejaVuSans-54"/>
     <use xlink:href="#DejaVuSans-45" x="61.083984"/>
     <use xlink:href="#DejaVuSans-52" x="124.267578"/>
     <use xlink:href="#DejaVuSans-4d" x="193.75"/>
     <use xlink:href="#DejaVuSans-53" x="280.029297"/>
     <use xlink:href="#DejaVuSans-3a" x="343.505859"/>
     <use xlink:href="#DejaVuSans-20" x="377.197266"/>
     <use xlink:href="#DejaVuSans-32" x="408.984375"/>
     <use xlink:href="#DejaVuSans-2c" x="472.607422"/>
     <use xlink:href="#DejaVuSans-20" x="504.394531"/>
     <use xlink:href="#DejaVuSans-44" x="536.181641"/>
     <use xlink:href="#DejaVuSans-45" x="613.183594"/>
     <use xlink:href="#DejaVuSans-50" x="676.367188"/>
     <use xlink:href="#DejaVuSans-54" x="736.669922"/>
     <use xlink:href="#DejaVuSans-48" x="797.753906"/>
     <use xlink:href="#DejaVuSans-3a" x="872.949219"/>
     <use xlink:href="#DejaVuSans-32" x="906.640625"/>
     <use xlink:href="#DejaVuSans-35" x="970.263672"/>
    </g>
   </g>
   <g id="patch_2">
    <path d="M 285.654972 405.401845 
L 315.785071 405.401845 
L 315.785071 375.271745 
L 285.654972 375.271745 
z
" clip-path="url(#p34cd2338ef)" style="fill: #ffffff; stroke: #000000; stroke-width: 1.5; stroke-linejoin: miter"/>
   </g>
   <g id="patch_3">
    <path d="M 285.654972 544.463843 
L 315.785071 544.463843 
L 315.785071 514.333743 
L 285.654972 514.333743 
z
" clip-path="url(#p34cd2338ef)" style="fill: #ffffff; stroke: #000000; stroke-width: 1.5; stroke-linejoin: miter"/>
   </g>
   <g id="patch_4">
    <path d="M 347.074021 394.85631 
C 348.27261 394.85631 349.42227 394.380105 350.269801 393.532574 
C 351.117331 392.685044 351.593536 391.535384 351.593536 390.336795 
C 351.593536 389.138205 351.117331 387.988546 350.269801 387.141015 
C 349.42227 386.293484 348.27261 385.81728 347.074021 385.81728 
C 345.875432 385.81728 344.725772 386.293484 343.878241 387.141015 
C 343.030711 387.988546 342.554506 389.138205 342.554506 390.336795 
C 342.554506 391.535384 343.030711 392.685044 343.878241 393.532574 
C 344.725772 394.380105 345.875432 394.85631 347.074021 394.85631 
z
" clip-path="url(#p34cd2338ef)" style="stroke: #000000; stroke-width: 1.5; stroke-linejoin: miter"/>
   </g>
   <g id="patch_5">
    <path d="M 347.074021 308.174331 
C 349.87073 308.174331 352.553269 307.063187 354.53084 305.085615 
C 356.508412 303.108044 357.619556 300.425505 357.619556 297.628796 
C 357.619556 294.832088 356.508412 292.149548 354.53084 290.171977 
C 352.553269 288.194405 349.87073 287.083261 347.074021 287.083261 
C 344.277312 287.083261 341.594773 288.194405 339.617202 290.171977 
C 337.63963 292.149548 336.528486 294.832088 336.528486 297.628796 
C 336.528486 300.425505 337.63963 303.108044 339.617202 305.085615 
C 341.594773 307.063187 344.277312 308.174331 347.074021 308.174331 
z
" clip-path="url(#p34cd2338ef)" style="stroke: #000000; stroke-width: 2; stroke-linejoin: miter"/>
   </g>
   <g id="patch_6">
    <path d="M 393.42802 533.918308 
C 394.62661 533.918308 395.776269 533.442103 396.6238 532.594573 
C 397.471331 531.747042 397.947535 530.597382 397.947535 529.398793 
C 397.947535 528.200204 397.471331 527.050544 396.6238 526.203013 
C 395.776269 525.355483 394.62661 524.879278 393.42802 524.879278 
C 392.229431 524.879278 391.079771 525.355483 390.232241 526.203013 
C 389.38471 527.050544 388.908505 528.200204 388.908505 529.398793 
C 388.908505 530.597382 389.38471 531.747042 390.232241 532.594573 
C 391.079771 533.442103 392.229431 533.918308 393.42802 533.918308 
z
" clip-path="url(#p34cd2338ef)" style="stroke: #000000; stroke-width: 1.5; stroke-linejoin: miter"/>
   </g>
   <g id="patch_7">
    <path d="M 393.42802 308.174331 
C 396.224729 308.174331 398.907268 307.063187 400.88484 305.085615 
C 402.862411 303.108044 403.973555 300.425505 403.973555 297.628796 
C 403.973555 294.832088 402.862411 292.149548 400.88484 290.171977 
C 398.907268 288.194405 396.224729 287.083261 393.42802 287.083261 
C 390.631312 287.083261 387.948773 288.194405 385.971201 290.171977 
C 383.99363 292.149548 382.882486 294.832088 382.882486 297.628796 
C 382.882486 300.425505 383.99363 303.108044 385.971201 305.085615 
C 387.948773 307.063187 390.631312 308.174331 393.42802 308.174331 
z
" clip-path="url(#p34cd2338ef)" style="stroke: #000000; stroke-width: 2; stroke-linejoin: miter"/>
   </g>
   <g id="patch_8">
    <path d="M 424.71697 312.693846 
L 454.84707 312.693846 
L 454.84707 282.563746 
L 424.71697 282.563746 
z
" clip-path="url(#p34cd2338ef)" style="fill: #ffffff; stroke: #000000; stroke-width: 1.5; stroke-linejoin: miter"/>
   </g>
   <g id="patch_9">
    <path d="M 486.136019 533.918308 
C 487.334609 533.918308 488.484268 533.442103 489.331799 532.594573 
C 490.179329 531.747042 490.655534 530.597382 490.655534 529.398793 
C 490.655534 528.200204 490.179329 527.050544 489.331799 526.203013 
C 488.484268 525.355483 487.334609 524.879278 486.136019 524.879278 
C 484.93743 524.879278 483.78777 525.355483 482.940239 526.203013 
C 482.092709 527.050544 481.616504 528.200204 481.616504 529.398793 
C 481.616504 530.597382 482.092709 531.747042 482.940239 532.594573 
C 483.78777 533.442103 484.93743 533.918308 486.136019 533.918308 
z
" clip-path="url(#p34cd2338ef)" style="stroke: #000000; stroke-width: 1.5; stroke-linejoin: miter"/>
   </g>
   <g id="patch_10">
    <path d="M 486.136019 308.174331 
C 488.932728 308.174331 491.615267 307.063187 493.592838 305.085615 
C 495.57041 303.108044 496.681554 300.425505 496.681554 297.628796 
C 496.681554 294.832088 495.57041 292.149548 493.592838 290.171977 
C 491.615267 288.194405 488.932728 287.083261 486.136019 287.083261 
C 483.339311 287.083261 480.656772 288.194405 478.6792 290.171977 
C 476.701628 292.149548 475.590484 294.832088 475.590484 297.628796 
C 475.590484 300.425505 476.701628 303.108044 478.6792 305.085615 
C 480.656772 307.063187 483.339311 308.174331 486.136019 308.174331 
z
" clip-path="url(#p34cd2338ef)" style="stroke: #000000; stroke-width: 2; stroke-linejoin: miter"/>
   </g>
   <g id="patch_11">
    <path d="M 517.424969 544.463843 
L 547.555068 544.463843 
L 547.555068 514.333743 
L 517.424969 514.333743 
z
" clip-path="url(#p34cd2338ef)" style="fill: #ffffff; stroke: #000000; stroke-width: 1.5; stroke-linejoin: miter"/>
   </g>
   <g id="patch_12">
    <path d="M 532.490019 394.85631 
C 533.688608 394.85631 534.838268 394.380105 535.685798 393.532574 
C 536.533329 392.685044 537.009533 391.535384 537.009533 390.336795 
C 537.009533 389.138205 536.533329 387.988546 535.685798 387.141015 
C 534.838268 386.293484 533.688608 385.81728 532.490019 385.81728 
C 531.291429 385.81728 530.14177 386.293484 529.294239 387.141015 
C 528.446708 387.988546 527.970504 389.138205 527.970504 390.336795 
C 527.970504 391.535384 528.446708 392.685044 529.294239 393.532574 
C 530.14177 394.380105 531.291429 394.85631 532.490019 394.85631 
z
" clip-path="url(#p34cd2338ef)" style="stroke: #000000; stroke-width: 1.5; stroke-linejoin: miter"/>
   </g>
   <g id="patch_13">
    <path d="M 532.490019 308.174331 
C 535.286727 308.174331 537.969266 307.063187 539.946838 305.085615 
C 541.924409 303.108044 543.035553 300.425505 543.035553 297.628796 
C 543.035553 294.832088 541.924409 292.149548 539.946838 290.171977 
C 537.969266 288.194405 535.286727 287.083261 532.490019 287.083261 
C 529.69331 287.083261 527.010771 288.194405 525.033199 290.171977 
C 523.055628 292.149548 521.944484 294.832088 521.944484 297.628796 
C 521.944484 300.425505 523.055628 303.108044 525.033199 305.085615 
C 527.010771 307.063187 529.69331 308.174331 532.490019 308.174331 
z
" clip-path="url(#p34cd2338ef)" style="stroke: #000000; stroke-width: 2; stroke-linejoin: miter"/>
   </g>
   <g id="patch_14">
    <path d="M 563.778968 544.463843 
L 593.909068 544.463843 
L 593.909068 514.333743 
L 563.778968 514.333743 
z
" clip-path="url(#p34cd2338ef)" style="fill: #ffffff; stroke: #000000; stroke-width: 1.5; stroke-linejoin: miter"/>
   </g>
   <g id="patch_15">
    <path d="M 578.844018 394.85631 
C 580.042607 394.85631 581.192267 394.380105 582.039798 393.532574 
C 582.887328 392.685044 583.363533 391.535384 583.363533 390.336795 
C 583.363533 389.138205 582.887328 387.988546 582.039798 387.141015 
C 581.192267 386.293484 580.042607 385.81728 578.844018 385.81728 
C 577.645429 385.81728 576.495769 386.293484 575.648238 387.141015 
C 574.800708 387.988546 574.324503 389.138205 574.324503 390.336795 
C 574.324503 391.535384 574.800708 392.685044 575.648238 393.532574 
C 576.495769 394.380105 577.645429 394.85631 578.844018 394.85631 
z
" clip-path="url(#p34cd2338ef)" style="stroke: #000000; stroke-width: 1.5; stroke-linejoin: miter"/>
   </g>
   <g id="patch_16">
    <path d="M 578.844018 308.174331 
C 581.640726 308.174331 584.323266 307.063187 586.300837 305.085615 
C 588.278409 303.108044 589.389553 300.425505 589.389553 297.628796 
C 589.389553 294.832088 588.278409 292.149548 586.300837 290.171977 
C 584.323266 288.194405 581.640726 287.083261 578.844018 287.083261 
C 576.047309 287.083261 573.36477 288.194405 571.387199 290.171977 
C 569.409627 292.149548 568.298483 294.832088 568.298483 297.628796 
C 568.298483 300.425505 569.409627 303.108044 571.387199 305.085615 
C 573.36477 307.063187 576.047309 308.174331 578.844018 308.174331 
z
" clip-path="url(#p34cd2338ef)" style="stroke: #000000; stroke-width: 2; stroke-linejoin: miter"/>
   </g>
   <g id="patch_17">
    <path d="M 610.132967 544.463843 
L 640.263067 544.463843 
L 640.263067 514.333743 
L 610.132967 514.333743 
z
" clip-path="url(#p34cd2338ef)" style="fill: #ffffff; stroke: #000000; stroke-width: 1.5; stroke-linejoin: miter"/>
   </g>
   <g id="patch_18">
    <path d="M 671.552017 533.918308 
C 672.750606 533.918308 673.900266 533.442103 674.747796 532.594573 
C 675.595327 531.747042 676.071532 530.597382 676.071532 529.398793 
C 676.071532 528.200204 675.595327 527.050544 674.747796 526.203013 
C 673.900266 525.355483 672.750606 524.879278 671.552017 524.879278 
C 670.353427 524.879278 669.203768 525.355483 668.356237 526.203013 
C 667.508706 527.050544 667.032502 528.200204 667.032502 529.398793 
C 667.032502 530.597382 667.508706 531.747042 668.356237 532.594573 
C 669.203768 533.442103 670.353427 533.918308 671.552017 533.918308 
z
" clip-path="url(#p34cd2338ef)" style="stroke: #000000; stroke-width: 1.5; stroke-linejoin: miter"/>
   </g>
   <g id="patch_19">
    <path d="M 671.552017 493.590328 
C 674.348725 493.590328 677.031264 492.479184 679.008836 490.501613 
C 680.986407 488.524041 682.097552 485.841502 682.097552 483.044794 
C 682.097552 480.248085 680.986407 477.565546 679.008836 475.587974 
C 677.031264 473.610403 674.348725 472.499259 671.552017 472.499259 
C 668.755308 472.499259 666.072769 473.610403 664.095197 475.587974 
C 662.117626 477.565546 661.006482 480.248085 661.006482 483.044794 
C 661.006482 485.841502 662.117626 488.524041 664.095197 490.501613 
C 666.072769 492.479184 668.755308 493.590328 671.552017 493.590328 
z
" clip-path="url(#p34cd2338ef)" style="stroke: #000000; stroke-width: 2; stroke-linejoin: miter"/>
   </g>
   <g id="patch_20">
    <path d="M 719.688327 498.109843 
L 762.477704 498.109843 
L 762.477704 467.979744 
L 719.688327 467.979744 
z
" clip-path="url(#p34cd2338ef)" style="fill: #ffffff; stroke: #000000; stroke-width: 1.5; stroke-linejoin: miter"/>
   </g>
   <g id="patch_21">
    <path d="M 810.614015 533.918308 
C 811.812604 533.918308 812.962264 533.442103 813.809794 532.594573 
C 814.657325 531.747042 815.13353 530.597382 815.13353 529.398793 
C 815.13353 528.200204 814.657325 527.050544 813.809794 526.203013 
C 812.962264 525.355483 811.812604 524.879278 810.614015 524.879278 
C 809.415425 524.879278 808.265766 525.355483 807.418235 526.203013 
C 806.570704 527.050544 806.0945 528.200204 806.0945 529.398793 
C 806.0945 530.597382 806.570704 531.747042 807.418235 532.594573 
C 808.265766 533.442103 809.415425 533.918308 810.614015 533.918308 
z
" clip-path="url(#p34cd2338ef)" style="stroke: #000000; stroke-width: 1.5; stroke-linejoin: miter"/>
   </g>
   <g id="patch_22">
    <path d="M 810.614015 493.590328 
C 813.410723 493.590328 816.093262 492.479184 818.070834 490.501613 
C 820.048406 488.524041 821.15955 485.841502 821.15955 483.044794 
C 821.15955 480.248085 820.048406 477.565546 818.070834 475.587974 
C 816.093262 473.610403 813.410723 472.499259 810.614015 472.499259 
C 807.817306 472.499259 805.134767 473.610403 803.157196 475.587974 
C 801.179624 477.565546 800.06848 480.248085 800.06848 483.044794 
C 800.06848 485.841502 801.179624 488.524041 803.157196 490.501613 
C 805.134767 492.479184 807.817306 493.590328 810.614015 493.590328 
z
" clip-path="url(#p34cd2338ef)" style="stroke: #000000; stroke-width: 2; stroke-linejoin: miter"/>
   </g>
   <g id="patch_23">
    <path d="M 841.902964 544.463843 
L 872.033064 544.463843 
L 872.033064 514.333743 
L 841.902964 514.333743 
z
" clip-path="url(#p34cd2338ef)" style="fill: #ffffff; stroke: #000000; stroke-width: 1.5; stroke-linejoin: miter"/>
   </g>
   <g id="patch_24">
    <path d="M 888.256964 544.463843 
L 918.387063 544.463843 
L 918.387063 514.333743 
L 888.256964 514.333743 
z
" clip-path="url(#p34cd2338ef)" style="fill: #ffffff; stroke: #000000; stroke-width: 1.5; stroke-linejoin: miter"/>
   </g>
   <g id="patch_25">
    <path d="M 934.610963 544.463843 
L 964.741063 544.463843 
L 964.741063 514.333743 
L 934.610963 514.333743 
z
" clip-path="url(#p34cd2338ef)" style="fill: #ffffff; stroke: #000000; stroke-width: 1.5; stroke-linejoin: miter"/>
   </g>
   <g id="patch_26">
    <path d="M 996.030012 533.918308 
C 997.228602 533.918308 998.378261 533.442103 999.225792 532.594573 
C 1000.073323 531.747042 1000.549527 530.597382 1000.549527 529.398793 
C 1000.549527 528.200204 1000.073323 527.050544 999.225792 526.203013 
C 998.378261 525.355483 997.228602 524.879278 996.030012 524.879278 
C 994.831423 524.879278 993.681763 525.355483 992.834233 526.203013 
C 991.986702 527.050544 991.510497 528.200204 991.510497 529.398793 
C 991.510497 530.597382 991.986702 531.747042 992.834233 532.594573 
C 993.681763 533.442103 994.831423 533.918308 996.030012 533.918308 
z
" clip-path="url(#p34cd2338ef)" style="stroke: #000000; stroke-width: 1.5; stroke-linejoin: miter"/>
   </g>
   <g id="patch_27">
    <path d="M 996.030012 308.174331 
C 998.826721 308.174331 1001.50926 307.063187 1003.486832 305.085615 
C 1005.464403 303.108044 1006.575547 300.425505 1006.575547 297.628796 
C 1006.575547 294.832088 1005.464403 292.149548 1003.486832 290.171977 
C 1001.50926 288.194405 998.826721 287.083261 996.030012 287.083261 
C 993.233304 287.083261 990.550765 288.194405 988.573193 290.171977 
C 986.595622 292.149548 985.484478 294.832088 985.484478 297.628796 
C 985.484478 300.425505 986.595622 303.108044 988.573193 305.085615 
C 990.550765 307.063187 993.233304 308.174331 996.030012 308.174331 
z
" clip-path="url(#p34cd2338ef)" style="stroke: #000000; stroke-width: 2; stroke-linejoin: miter"/>
   </g>
   <g id="patch_28">
    <path d="M 1027.318962 312.693846 
L 1057.449062 312.693846 
L 1057.449062 282.563746 
L 1027.318962 282.563746 
z
" clip-path="url(#p34cd2338ef)" style="fill: #ffffff; stroke: #000000; stroke-width: 1.5; stroke-linejoin: miter"/>
   </g>
   <g id="patch_29">
    <path d="M 1088.738011 533.918308 
C 1089.936601 533.918308 1091.08626 533.442103 1091.933791 532.594573 
C 1092.781321 531.747042 1093.257526 530.597382 1093.257526 529.398793 
C 1093.257526 528.200204 1092.781321 527.050544 1091.933791 526.203013 
C 1091.08626 525.355483 1089.936601 524.879278 1088.738011 524.879278 
C 1087.539422 524.879278 1086.389762 525.355483 1085.542231 526.203013 
C 1084.694701 527.050544 1084.218496 528.200204 1084.218496 529.398793 
C 1084.218496 530.597382 1084.694701 531.747042 1085.542231 532.594573 
C 1086.389762 533.442103 1087.539422 533.918308 1088.738011 533.918308 
z
" clip-path="url(#p34cd2338ef)" style="stroke: #000000; stroke-width: 1.5; stroke-linejoin: miter"/>
   </g>
   <g id="patch_30">
    <path d="M 1088.738011 308.174331 
C 1091.53472 308.174331 1094.217259 307.063187 1096.19483 305.085615 
C 1098.172402 303.108044 1099.283546 300.425505 1099.283546 297.628796 
C 1099.283546 294.832088 1098.172402 292.149548 1096.19483 290.171977 
C 1094.217259 288.194405 1091.53472 287.083261 1088.738011 287.083261 
C 1085.941303 287.083261 1083.258763 288.194405 1081.281192 290.171977 
C 1079.30362 292.149548 1078.192476 294.832088 1078.192476 297.628796 
C 1078.192476 300.425505 1079.30362 303.108044 1081.281192 305.085615 
C 1083.258763 307.063187 1085.941303 308.174331 1088.738011 308.174331 
z
" clip-path="url(#p34cd2338ef)" style="stroke: #000000; stroke-width: 2; stroke-linejoin: miter"/>
   </g>
   <g id="patch_31">
    <path d="M 1120.026961 544.463843 
L 1150.15706 544.463843 
L 1150.15706 514.333743 
L 1120.026961 514.333743 
z
" clip-path="url(#p34cd2338ef)" style="fill: #ffffff; stroke: #000000; stroke-width: 1.5; stroke-linejoin: miter"/>
   </g>
   <g id="patch_32">
    <path d="M 1135.092011 394.85631 
C 1136.2906 394.85631 1137.44026 394.380105 1138.28779 393.532574 
C 1139.135321 392.685044 1139.611525 391.535384 1139.611525 390.336795 
C 1139.611525 389.138205 1139.135321 387.988546 1138.28779 387.141015 
C 1137.44026 386.293484 1136.2906 385.81728 1135.092011 385.81728 
C 1133.893421 385.81728 1132.743762 386.293484 1131.896231 387.141015 
C 1131.0487 387.988546 1130.572496 389.138205 1130.572496 390.336795 
C 1130.572496 391.535384 1131.0487 392.685044 1131.896231 393.532574 
C 1132.743762 394.380105 1133.893421 394.85631 1135.092011 394.85631 
z
" clip-path="url(#p34cd2338ef)" style="stroke: #000000; stroke-width: 1.5; stroke-linejoin: miter"/>
   </g>
   <g id="patch_33">
    <path d="M 1135.092011 308.174331 
C 1137.888719 308.174331 1140.571258 307.063187 1142.54883 305.085615 
C 1144.526401 303.108044 1145.637545 300.425505 1145.637545 297.628796 
C 1145.637545 294.832088 1144.526401 292.149548 1142.54883 290.171977 
C 1140.571258 288.194405 1137.888719 287.083261 1135.092011 287.083261 
C 1132.295302 287.083261 1129.612763 288.194405 1127.635191 290.171977 
C 1125.65762 292.149548 1124.546476 294.832088 1124.546476 297.628796 
C 1124.546476 300.425505 1125.65762 303.108044 1127.635191 305.085615 
C 1129.612763 307.063187 1132.295302 308.174331 1135.092011 308.174331 
z
" clip-path="url(#p34cd2338ef)" style="stroke: #000000; stroke-width: 2; stroke-linejoin: miter"/>
   </g>
   <g id="patch_34">
    <path d="M 1166.38096 405.401845 
L 1196.51106 405.401845 
L 1196.51106 375.271745 
L 1166.38096 375.271745 
z
" clip-path="url(#p34cd2338ef)" style="fill: #ffffff; stroke: #000000; stroke-width: 1.5; stroke-linejoin: miter"/>
   </g>
   <g id="patch_35">
    <path d="M 1166.38096 544.463843 
L 1196.51106 544.463843 
L 1196.51106 514.333743 
L 1166.38096 514.333743 
z
" clip-path="url(#p34cd2338ef)" style="fill: #ffffff; stroke: #000000; stroke-width: 1.5; stroke-linejoin: miter"/>
   </g>
   <g id="patch_36">
    <path d="M 1212.734959 544.463843 
L 1242.865059 544.463843 
L 1242.865059 514.333743 
L 1212.734959 514.333743 
z
" clip-path="url(#p34cd2338ef)" style="fill: #ffffff; stroke: #000000; stroke-width: 1.5; stroke-linejoin: miter"/>
   </g>
   <g id="patch_37">
    <path d="M 1274.154009 533.918308 
C 1275.352598 533.918308 1276.502258 533.442103 1277.349788 532.594573 
C 1278.197319 531.747042 1278.673524 530.597382 1278.673524 529.398793 
C 1278.673524 528.200204 1278.197319 527.050544 1277.349788 526.203013 
C 1276.502258 525.355483 1275.352598 524.879278 1274.154009 524.879278 
C 1272.955419 524.879278 1271.80576 525.355483 1270.958229 526.203013 
C 1270.110698 527.050544 1269.634494 528.200204 1269.634494 529.398793 
C 1269.634494 530.597382 1270.110698 531.747042 1270.958229 532.594573 
C 1271.80576 533.442103 1272.955419 533.918308 1274.154009 533.918308 
z
" clip-path="url(#p34cd2338ef)" style="stroke: #000000; stroke-width: 1.5; stroke-linejoin: miter"/>
   </g>
   <g id="patch_38">
    <path d="M 1274.154009 493.590328 
C 1276.950717 493.590328 1279.633256 492.479184 1281.610828 490.501613 
C 1283.588399 488.524041 1284.699544 485.841502 1284.699544 483.044794 
C 1284.699544 480.248085 1283.588399 477.565546 1281.610828 475.587974 
C 1279.633256 473.610403 1276.950717 472.499259 1274.154009 472.499259 
C 1271.3573 472.499259 1268.674761 473.610403 1266.697189 475.587974 
C 1264.719618 477.565546 1263.608474 480.248085 1263.608474 483.044794 
C 1263.608474 485.841502 1264.719618 488.524041 1266.697189 490.501613 
C 1268.674761 492.479184 1271.3573 493.590328 1274.154009 493.590328 
z
" clip-path="url(#p34cd2338ef)" style="stroke: #000000; stroke-width: 2; stroke-linejoin: miter"/>
   </g>
   <g id="patch_39">
    <path d="M 1322.290319 498.109843 
L 1365.079696 498.109843 
L 1365.079696 467.979744 
L 1322.290319 467.979744 
z
" clip-path="url(#p34cd2338ef)" style="fill: #ffffff; stroke: #000000; stroke-width: 1.5; stroke-linejoin: miter"/>
   </g>
   <g id="patch_40">
    <path d="M 1413.216007 533.918308 
C 1414.414596 533.918308 1415.564256 533.442103 1416.411786 532.594573 
C 1417.259317 531.747042 1417.735522 530.597382 1417.735522 529.398793 
C 1417.735522 528.200204 1417.259317 527.050544 1416.411786 526.203013 
C 1415.564256 525.355483 1414.414596 524.879278 1413.216007 524.879278 
C 1412.017417 524.879278 1410.867758 525.355483 1410.020227 526.203013 
C 1409.172696 527.050544 1408.696492 528.200204 1408.696492 529.398793 
C 1408.696492 530.597382 1409.172696 531.747042 1410.020227 532.594573 
C 1410.867758 533.442103 1412.017417 533.918308 1413.216007 533.918308 
z
" clip-path="url(#p34cd2338ef)" style="stroke: #000000; stroke-width: 1.5; stroke-linejoin: miter"/>
   </g>
   <g id="patch_41">
    <path d="M 1413.216007 493.590328 
C 1416.012715 493.590328 1418.695254 492.479184 1420.672826 490.501613 
C 1422.650398 488.524041 1423.761542 485.841502 1423.761542 483.044794 
C 1423.761542 480.248085 1422.650398 477.565546 1420.672826 475.587974 
C 1418.695254 473.610403 1416.012715 472.499259 1413.216007 472.499259 
C 1410.419298 472.499259 1407.736759 473.610403 1405.759188 475.587974 
C 1403.781616 477.565546 1402.670472 480.248085 1402.670472 483.044794 
C 1402.670472 485.841502 1403.781616 488.524041 1405.759188 490.501613 
C 1407.736759 492.479184 1410.419298 493.590328 1413.216007 493.590328 
z
" clip-path="url(#p34cd2338ef)" style="stroke: #000000; stroke-width: 2; stroke-linejoin: miter"/>
   </g>
   <g id="patch_42">
    <path d="M 1444.504956 544.463843 
L 1474.635056 544.463843 
L 1474.635056 514.333743 
L 1444.504956 514.333743 
z
" clip-path="url(#p34cd2338ef)" style="fill: #ffffff; stroke: #000000; stroke-width: 1.5; stroke-linejoin: miter"/>
   </g>
   <g id="patch_43">
    <path d="M 1490.858956 544.463843 
L 1520.989055 544.463843 
L 1520.989055 514.333743 
L 1490.858956 514.333743 
z
" clip-path="url(#p34cd2338ef)" style="fill: #ffffff; stroke: #000000; stroke-width: 1.5; stroke-linejoin: miter"/>
   </g>
   <g id="text_2">
    <g clip-path="url(#p34cd2338ef)">
     <!-- ${q}_{0}$ -->
     <g transform="translate(248.380562 116.663775)scale(0.1625 -0.1625)">
      <defs>
       <path id="DejaVuSans-Oblique-71" d="M 2669 525 
Q 2438 222 2123 65 
Q 1809 -91 1428 -91 
Q 897 -91 595 267 
Q 294 625 294 1253 
Q 294 1759 480 2231 
Q 666 2703 1013 3078 
Q 1238 3322 1530 3453 
Q 1822 3584 2144 3584 
Q 2531 3584 2781 3431 
Q 3031 3278 3144 2969 
L 3244 3494 
L 3822 3494 
L 2888 -1319 
L 2309 -1319 
L 2669 525 
z
M 891 1338 
Q 891 875 1084 633 
Q 1278 391 1644 391 
Q 2188 391 2572 911 
Q 2956 1431 2956 2175 
Q 2956 2625 2757 2864 
Q 2559 3103 2188 3103 
Q 1916 3103 1684 2976 
Q 1453 2850 1281 2606 
Q 1100 2350 995 2006 
Q 891 1663 891 1338 
z
" transform="scale(0.015625)"/>
       <path id="DejaVuSans-30" d="M 2034 4250 
Q 1547 4250 1301 3770 
Q 1056 3291 1056 2328 
Q 1056 1369 1301 889 
Q 1547 409 2034 409 
Q 2525 409 2770 889 
Q 3016 1369 3016 2328 
Q 3016 3291 2770 3770 
Q 2525 4250 2034 4250 
z
M 2034 4750 
Q 2819 4750 3233 4129 
Q 3647 3509 3647 2328 
Q 3647 1150 3233 529 
Q 2819 -91 2034 -91 
Q 1250 -91 836 529 
Q 422 1150 422 2328 
Q 422 3509 836 4129 
Q 1250 4750 2034 4750 
z
" transform="scale(0.015625)"/>
      </defs>
      <use xlink:href="#DejaVuSans-Oblique-71"/>
      <use xlink:href="#DejaVuSans-30" transform="translate(63.476562 -16.40625)scale(0.7)"/>
     </g>
    </g>
   </g>
   <g id="text_3">
    <g clip-path="url(#p34cd2338ef)">
     <!-- ${q}_{1}$ -->
     <g transform="translate(248.380562 163.017774)scale(0.1625 -0.1625)">
      <defs>
       <path id="DejaVuSans-31" d="M 794 531 
L 1825 531 
L 1825 4091 
L 703 3866 
L 703 4441 
L 1819 4666 
L 2450 4666 
L 2450 531 
L 3481 531 
L 3481 0 
L 794 0 
L 794 531 
z
" transform="scale(0.015625)"/>
      </defs>
      <use xlink:href="#DejaVuSans-Oblique-71"/>
      <use xlink:href="#DejaVuSans-31" transform="translate(63.476562 -16.40625)scale(0.7)"/>
     </g>
    </g>
   </g>
   <g id="text_4">
    <g clip-path="url(#p34cd2338ef)">
     <!-- ${q}_{2}$ -->
     <g transform="translate(248.380562 209.371774)scale(0.1625 -0.1625)">
      <use xlink:href="#DejaVuSans-Oblique-71"/>
      <use xlink:href="#DejaVuSans-32" transform="translate(63.476562 -16.40625)scale(0.7)"/>
     </g>
    </g>
   </g>
   <g id="text_5">
    <g clip-path="url(#p34cd2338ef)">
     <!-- ${q}_{3}$ -->
     <g transform="translate(248.380562 255.725773)scale(0.1625 -0.1625)">
      <defs>
       <path id="DejaVuSans-33" d="M 2597 2516 
Q 3050 2419 3304 2112 
Q 3559 1806 3559 1356 
Q 3559 666 3084 287 
Q 2609 -91 1734 -91 
Q 1441 -91 1130 -33 
Q 819 25 488 141 
L 488 750 
Q 750 597 1062 519 
Q 1375 441 1716 441 
Q 2309 441 2620 675 
Q 2931 909 2931 1356 
Q 2931 1769 2642 2001 
Q 2353 2234 1838 2234 
L 1294 2234 
L 1294 2753 
L 1863 2753 
Q 2328 2753 2575 2939 
Q 2822 3125 2822 3475 
Q 2822 3834 2567 4026 
Q 2313 4219 1838 4219 
Q 1578 4219 1281 4162 
Q 984 4106 628 3988 
L 628 4550 
Q 988 4650 1302 4700 
Q 1616 4750 1894 4750 
Q 2613 4750 3031 4423 
Q 3450 4097 3450 3541 
Q 3450 3153 3228 2886 
Q 3006 2619 2597 2516 
z
" transform="scale(0.015625)"/>
      </defs>
      <use xlink:href="#DejaVuSans-Oblique-71"/>
      <use xlink:href="#DejaVuSans-33" transform="translate(63.476562 -16.40625)scale(0.7)"/>
     </g>
    </g>
   </g>
   <g id="text_6">
    <g clip-path="url(#p34cd2338ef)">
     <!-- ${q}_{4}$ -->
     <g transform="translate(248.380562 302.079773)scale(0.1625 -0.1625)">
      <defs>
       <path id="DejaVuSans-34" d="M 2419 4116 
L 825 1625 
L 2419 1625 
L 2419 4116 
z
M 2253 4666 
L 3047 4666 
L 3047 1625 
L 3713 1625 
L 3713 1100 
L 3047 1100 
L 3047 0 
L 2419 0 
L 2419 1100 
L 313 1100 
L 313 1709 
L 2253 4666 
z
" transform="scale(0.015625)"/>
      </defs>
      <use xlink:href="#DejaVuSans-Oblique-71"/>
      <use xlink:href="#DejaVuSans-34" transform="translate(63.476562 -16.40625)scale(0.7)"/>
     </g>
    </g>
   </g>
   <g id="text_7">
    <g clip-path="url(#p34cd2338ef)">
     <!-- ${q}_{5}$ -->
     <g transform="translate(248.380562 348.433772)scale(0.1625 -0.1625)">
      <use xlink:href="#DejaVuSans-Oblique-71"/>
      <use xlink:href="#DejaVuSans-35" transform="translate(63.476562 -16.40625)scale(0.7)"/>
     </g>
    </g>
   </g>
   <g id="text_8">
    <g clip-path="url(#p34cd2338ef)">
     <!-- ${q}_{6}$ -->
     <g transform="translate(248.380562 394.787771)scale(0.1625 -0.1625)">
      <defs>
       <path id="DejaVuSans-36" d="M 2113 2584 
Q 1688 2584 1439 2293 
Q 1191 2003 1191 1497 
Q 1191 994 1439 701 
Q 1688 409 2113 409 
Q 2538 409 2786 701 
Q 3034 994 3034 1497 
Q 3034 2003 2786 2293 
Q 2538 2584 2113 2584 
z
M 3366 4563 
L 3366 3988 
Q 3128 4100 2886 4159 
Q 2644 4219 2406 4219 
Q 1781 4219 1451 3797 
Q 1122 3375 1075 2522 
Q 1259 2794 1537 2939 
Q 1816 3084 2150 3084 
Q 2853 3084 3261 2657 
Q 3669 2231 3669 1497 
Q 3669 778 3244 343 
Q 2819 -91 2113 -91 
Q 1303 -91 875 529 
Q 447 1150 447 2328 
Q 447 3434 972 4092 
Q 1497 4750 2381 4750 
Q 2619 4750 2861 4703 
Q 3103 4656 3366 4563 
z
" transform="scale(0.015625)"/>
      </defs>
      <use xlink:href="#DejaVuSans-Oblique-71"/>
      <use xlink:href="#DejaVuSans-36" transform="translate(63.476562 -16.40625)scale(0.7)"/>
     </g>
    </g>
   </g>
   <g id="text_9">
    <g clip-path="url(#p34cd2338ef)">
     <!-- ${q}_{7}$ -->
     <g transform="translate(248.380562 441.141771)scale(0.1625 -0.1625)">
      <defs>
       <path id="DejaVuSans-37" d="M 525 4666 
L 3525 4666 
L 3525 4397 
L 1831 0 
L 1172 0 
L 2766 4134 
L 525 4134 
L 525 4666 
z
" transform="scale(0.015625)"/>
      </defs>
      <use xlink:href="#DejaVuSans-Oblique-71"/>
      <use xlink:href="#DejaVuSans-37" transform="translate(63.476562 -16.40625)scale(0.7)"/>
     </g>
    </g>
   </g>
   <g id="text_10">
    <g clip-path="url(#p34cd2338ef)">
     <!-- ${q}_{8}$ -->
     <g transform="translate(248.380562 487.49577)scale(0.1625 -0.1625)">
      <defs>
       <path id="DejaVuSans-38" d="M 2034 2216 
Q 1584 2216 1326 1975 
Q 1069 1734 1069 1313 
Q 1069 891 1326 650 
Q 1584 409 2034 409 
Q 2484 409 2743 651 
Q 3003 894 3003 1313 
Q 3003 1734 2745 1975 
Q 2488 2216 2034 2216 
z
M 1403 2484 
Q 997 2584 770 2862 
Q 544 3141 544 3541 
Q 544 4100 942 4425 
Q 1341 4750 2034 4750 
Q 2731 4750 3128 4425 
Q 3525 4100 3525 3541 
Q 3525 3141 3298 2862 
Q 3072 2584 2669 2484 
Q 3125 2378 3379 2068 
Q 3634 1759 3634 1313 
Q 3634 634 3220 271 
Q 2806 -91 2034 -91 
Q 1263 -91 848 271 
Q 434 634 434 1313 
Q 434 1759 690 2068 
Q 947 2378 1403 2484 
z
M 1172 3481 
Q 1172 3119 1398 2916 
Q 1625 2713 2034 2713 
Q 2441 2713 2670 2916 
Q 2900 3119 2900 3481 
Q 2900 3844 2670 4047 
Q 2441 4250 2034 4250 
Q 1625 4250 1398 4047 
Q 1172 3844 1172 3481 
z
" transform="scale(0.015625)"/>
      </defs>
      <use xlink:href="#DejaVuSans-Oblique-71"/>
      <use xlink:href="#DejaVuSans-38" transform="translate(63.476562 -16.40625)scale(0.7)"/>
     </g>
    </g>
   </g>
   <g id="text_11">
    <g clip-path="url(#p34cd2338ef)">
     <!-- ${q}_{9}$ -->
     <g transform="translate(248.380562 533.84977)scale(0.1625 -0.1625)">
      <defs>
       <path id="DejaVuSans-39" d="M 703 97 
L 703 672 
Q 941 559 1184 500 
Q 1428 441 1663 441 
Q 2288 441 2617 861 
Q 2947 1281 2994 2138 
Q 2813 1869 2534 1725 
Q 2256 1581 1919 1581 
Q 1219 1581 811 2004 
Q 403 2428 403 3163 
Q 403 3881 828 4315 
Q 1253 4750 1959 4750 
Q 2769 4750 3195 4129 
Q 3622 3509 3622 2328 
Q 3622 1225 3098 567 
Q 2575 -91 1691 -91 
Q 1453 -91 1209 -44 
Q 966 3 703 97 
z
M 1959 2075 
Q 2384 2075 2632 2365 
Q 2881 2656 2881 3163 
Q 2881 3666 2632 3958 
Q 2384 4250 1959 4250 
Q 1534 4250 1286 3958 
Q 1038 3666 1038 3163 
Q 1038 2656 1286 2365 
Q 1534 2075 1959 2075 
z
" transform="scale(0.015625)"/>
      </defs>
      <use xlink:href="#DejaVuSans-Oblique-71"/>
      <use xlink:href="#DejaVuSans-39" transform="translate(63.476562 -16.40625)scale(0.7)"/>
     </g>
    </g>
   </g>
   <g id="text_12">
    <g clip-path="url(#p34cd2338ef)">
     <!-- H -->
     <g transform="translate(295.831818 393.923982)scale(0.13 -0.13)">
      <use xlink:href="#DejaVuSans-48"/>
     </g>
    </g>
   </g>
   <g id="text_13">
    <g clip-path="url(#p34cd2338ef)">
     <!-- H -->
     <g transform="translate(295.831818 532.98598)scale(0.13 -0.13)">
      <use xlink:href="#DejaVuSans-48"/>
     </g>
    </g>
   </g>
   <g id="line2d_23">
    <path d="M 347.074021 303.654816 
L 347.074021 291.602776 
" clip-path="url(#p34cd2338ef)" style="fill: none; stroke: #ffffff; stroke-width: 2; stroke-linecap: square"/>
   </g>
   <g id="line2d_24">
    <path d="M 341.048001 297.628796 
L 353.100041 297.628796 
" clip-path="url(#p34cd2338ef)" style="fill: none; stroke: #ffffff; stroke-width: 2; stroke-linecap: square"/>
   </g>
   <g id="line2d_25">
    <path d="M 393.42802 303.654816 
L 393.42802 291.602776 
" clip-path="url(#p34cd2338ef)" style="fill: none; stroke: #ffffff; stroke-width: 2; stroke-linecap: square"/>
   </g>
   <g id="line2d_26">
    <path d="M 387.402 297.628796 
L 399.45404 297.628796 
" clip-path="url(#p34cd2338ef)" style="fill: none; stroke: #ffffff; stroke-width: 2; stroke-linecap: square"/>
   </g>
   <g id="text_14">
    <g clip-path="url(#p34cd2338ef)">
     <!-- 0.0628 -->
     <g transform="translate(425.78577 308.875326)scale(0.08 -0.08)">
      <defs>
       <path id="DejaVuSans-2e" d="M 684 794 
L 1344 794 
L 1344 0 
L 684 0 
L 684 794 
z
" transform="scale(0.015625)"/>
      </defs>
      <use xlink:href="#DejaVuSans-30"/>
      <use xlink:href="#DejaVuSans-2e" x="63.623047"/>
      <use xlink:href="#DejaVuSans-30" x="95.410156"/>
      <use xlink:href="#DejaVuSans-36" x="159.033203"/>
      <use xlink:href="#DejaVuSans-32" x="222.65625"/>
      <use xlink:href="#DejaVuSans-38" x="286.279297"/>
     </g>
    </g>
   </g>
   <g id="text_15">
    <g clip-path="url(#p34cd2338ef)">
     <!-- $\mathrm{R_Z}$ -->
     <g transform="translate(431.85202 296.696469)scale(0.13 -0.13)">
      <defs>
       <path id="DejaVuSans-5a" d="M 359 4666 
L 4025 4666 
L 4025 4184 
L 1075 531 
L 4097 531 
L 4097 0 
L 288 0 
L 288 481 
L 3238 4134 
L 359 4134 
L 359 4666 
z
" transform="scale(0.015625)"/>
      </defs>
      <use xlink:href="#DejaVuSans-52" transform="translate(0 0.09375)"/>
      <use xlink:href="#DejaVuSans-5a" transform="translate(70.439453 -16.3125)scale(0.7)"/>
     </g>
    </g>
   </g>
   <g id="line2d_27">
    <path d="M 486.136019 303.654816 
L 486.136019 291.602776 
" clip-path="url(#p34cd2338ef)" style="fill: none; stroke: #ffffff; stroke-width: 2; stroke-linecap: square"/>
   </g>
   <g id="line2d_28">
    <path d="M 480.109999 297.628796 
L 492.162039 297.628796 
" clip-path="url(#p34cd2338ef)" style="fill: none; stroke: #ffffff; stroke-width: 2; stroke-linecap: square"/>
   </g>
   <g id="text_16">
    <g clip-path="url(#p34cd2338ef)">
     <!-- H -->
     <g transform="translate(527.601815 532.98598)scale(0.13 -0.13)">
      <use xlink:href="#DejaVuSans-48"/>
     </g>
    </g>
   </g>
   <g id="line2d_29">
    <path d="M 532.490019 303.654816 
L 532.490019 291.602776 
" clip-path="url(#p34cd2338ef)" style="fill: none; stroke: #ffffff; stroke-width: 2; stroke-linecap: square"/>
   </g>
   <g id="line2d_30">
    <path d="M 526.463999 297.628796 
L 538.516038 297.628796 
" clip-path="url(#p34cd2338ef)" style="fill: none; stroke: #ffffff; stroke-width: 2; stroke-linecap: square"/>
   </g>
   <g id="text_17">
    <g clip-path="url(#p34cd2338ef)">
     <!-- S -->
     <g transform="translate(574.717534 532.98598)scale(0.13 -0.13)">
      <use xlink:href="#DejaVuSans-53"/>
     </g>
    </g>
   </g>
   <g id="line2d_31">
    <path d="M 578.844018 303.654816 
L 578.844018 291.602776 
" clip-path="url(#p34cd2338ef)" style="fill: none; stroke: #ffffff; stroke-width: 2; stroke-linecap: square"/>
   </g>
   <g id="line2d_32">
    <path d="M 572.817998 297.628796 
L 584.870038 297.628796 
" clip-path="url(#p34cd2338ef)" style="fill: none; stroke: #ffffff; stroke-width: 2; stroke-linecap: square"/>
   </g>
   <g id="text_18">
    <g clip-path="url(#p34cd2338ef)">
     <!-- H -->
     <g transform="translate(620.309814 532.98598)scale(0.13 -0.13)">
      <use xlink:href="#DejaVuSans-48"/>
     </g>
    </g>
   </g>
   <g id="line2d_33">
    <path d="M 671.552017 489.070814 
L 671.552017 477.018774 
" clip-path="url(#p34cd2338ef)" style="fill: none; stroke: #ffffff; stroke-width: 2; stroke-linecap: square"/>
   </g>
   <g id="line2d_34">
    <path d="M 665.525997 483.044794 
L 677.578037 483.044794 
" clip-path="url(#p34cd2338ef)" style="fill: none; stroke: #ffffff; stroke-width: 2; stroke-linecap: square"/>
   </g>
   <g id="text_19">
    <g clip-path="url(#p34cd2338ef)">
     <!-- $-$0.00492 -->
     <g transform="translate(721.243016 494.291323)scale(0.08 -0.08)">
      <defs>
       <path id="DejaVuSans-2212" d="M 678 2272 
L 4684 2272 
L 4684 1741 
L 678 1741 
L 678 2272 
z
" transform="scale(0.015625)"/>
      </defs>
      <use xlink:href="#DejaVuSans-2212" transform="translate(0 0.78125)"/>
      <use xlink:href="#DejaVuSans-30" transform="translate(83.789062 0.78125)"/>
      <use xlink:href="#DejaVuSans-2e" transform="translate(147.412109 0.78125)"/>
      <use xlink:href="#DejaVuSans-30" transform="translate(179.199219 0.78125)"/>
      <use xlink:href="#DejaVuSans-30" transform="translate(242.822266 0.78125)"/>
      <use xlink:href="#DejaVuSans-34" transform="translate(306.445312 0.78125)"/>
      <use xlink:href="#DejaVuSans-39" transform="translate(370.068359 0.78125)"/>
      <use xlink:href="#DejaVuSans-32" transform="translate(431.941406 0.78125)"/>
     </g>
    </g>
   </g>
   <g id="text_20">
    <g clip-path="url(#p34cd2338ef)">
     <!-- $\mathrm{R_Z}$ -->
     <g transform="translate(733.153016 482.112466)scale(0.13 -0.13)">
      <use xlink:href="#DejaVuSans-52" transform="translate(0 0.09375)"/>
      <use xlink:href="#DejaVuSans-5a" transform="translate(70.439453 -16.3125)scale(0.7)"/>
     </g>
    </g>
   </g>
   <g id="line2d_35">
    <path d="M 810.614015 489.070814 
L 810.614015 477.018774 
" clip-path="url(#p34cd2338ef)" style="fill: none; stroke: #ffffff; stroke-width: 2; stroke-linecap: square"/>
   </g>
   <g id="line2d_36">
    <path d="M 804.587995 483.044794 
L 816.640035 483.044794 
" clip-path="url(#p34cd2338ef)" style="fill: none; stroke: #ffffff; stroke-width: 2; stroke-linecap: square"/>
   </g>
   <g id="text_21">
    <g clip-path="url(#p34cd2338ef)">
     <!-- H -->
     <g transform="translate(852.079811 532.98598)scale(0.13 -0.13)">
      <use xlink:href="#DejaVuSans-48"/>
     </g>
    </g>
   </g>
   <g id="text_22">
    <g clip-path="url(#p34cd2338ef)">
     <!-- $\mathrm{S^\dagger}$ -->
     <g transform="translate(894.872014 532.98598)scale(0.13 -0.13)">
      <defs>
       <path id="DejaVuSans-2020" d="M 1325 4666 
L 1875 4666 
L 1875 3353 
L 3022 3353 
L 3022 2875 
L 1875 2875 
L 1875 -616 
L 1325 -616 
L 1325 2875 
L 178 2875 
L 178 3353 
L 1325 3353 
L 1325 4666 
z
" transform="scale(0.015625)"/>
      </defs>
      <use xlink:href="#DejaVuSans-53" transform="translate(0 0.684375)"/>
      <use xlink:href="#DejaVuSans-2020" transform="translate(78.071289 38.965625)scale(0.7)"/>
     </g>
    </g>
   </g>
   <g id="text_23">
    <g clip-path="url(#p34cd2338ef)">
     <!-- H -->
     <g transform="translate(944.78781 532.98598)scale(0.13 -0.13)">
      <use xlink:href="#DejaVuSans-48"/>
     </g>
    </g>
   </g>
   <g id="line2d_37">
    <path d="M 996.030012 303.654816 
L 996.030012 291.602776 
" clip-path="url(#p34cd2338ef)" style="fill: none; stroke: #ffffff; stroke-width: 2; stroke-linecap: square"/>
   </g>
   <g id="line2d_38">
    <path d="M 990.003992 297.628796 
L 1002.056032 297.628796 
" clip-path="url(#p34cd2338ef)" style="fill: none; stroke: #ffffff; stroke-width: 2; stroke-linecap: square"/>
   </g>
   <g id="text_24">
    <g clip-path="url(#p34cd2338ef)">
     <!-- 0.0628 -->
     <g transform="translate(1028.387762 308.875326)scale(0.08 -0.08)">
      <use xlink:href="#DejaVuSans-30"/>
      <use xlink:href="#DejaVuSans-2e" x="63.623047"/>
      <use xlink:href="#DejaVuSans-30" x="95.410156"/>
      <use xlink:href="#DejaVuSans-36" x="159.033203"/>
      <use xlink:href="#DejaVuSans-32" x="222.65625"/>
      <use xlink:href="#DejaVuSans-38" x="286.279297"/>
     </g>
    </g>
   </g>
   <g id="text_25">
    <g clip-path="url(#p34cd2338ef)">
     <!-- $\mathrm{R_Z}$ -->
     <g transform="translate(1034.454012 296.696469)scale(0.13 -0.13)">
      <use xlink:href="#DejaVuSans-52" transform="translate(0 0.09375)"/>
      <use xlink:href="#DejaVuSans-5a" transform="translate(70.439453 -16.3125)scale(0.7)"/>
     </g>
    </g>
   </g>
   <g id="line2d_39">
    <path d="M 1088.738011 303.654816 
L 1088.738011 291.602776 
" clip-path="url(#p34cd2338ef)" style="fill: none; stroke: #ffffff; stroke-width: 2; stroke-linecap: square"/>
   </g>
   <g id="line2d_40">
    <path d="M 1082.711991 297.628796 
L 1094.764031 297.628796 
" clip-path="url(#p34cd2338ef)" style="fill: none; stroke: #ffffff; stroke-width: 2; stroke-linecap: square"/>
   </g>
   <g id="text_26">
    <g clip-path="url(#p34cd2338ef)">
     <!-- H -->
     <g transform="translate(1130.203807 532.98598)scale(0.13 -0.13)">
      <use xlink:href="#DejaVuSans-48"/>
     </g>
    </g>
   </g>
   <g id="line2d_41">
    <path d="M 1135.092011 303.654816 
L 1135.092011 291.602776 
" clip-path="url(#p34cd2338ef)" style="fill: none; stroke: #ffffff; stroke-width: 2; stroke-linecap: square"/>
   </g>
   <g id="line2d_42">
    <path d="M 1129.065991 297.628796 
L 1141.11803 297.628796 
" clip-path="url(#p34cd2338ef)" style="fill: none; stroke: #ffffff; stroke-width: 2; stroke-linecap: square"/>
   </g>
   <g id="text_27">
    <g clip-path="url(#p34cd2338ef)">
     <!-- H -->
     <g transform="translate(1176.557807 393.923982)scale(0.13 -0.13)">
      <use xlink:href="#DejaVuSans-48"/>
     </g>
    </g>
   </g>
   <g id="text_28">
    <g clip-path="url(#p34cd2338ef)">
     <!-- S -->
     <g transform="translate(1177.319526 532.98598)scale(0.13 -0.13)">
      <use xlink:href="#DejaVuSans-53"/>
     </g>
    </g>
   </g>
   <g id="text_29">
    <g clip-path="url(#p34cd2338ef)">
     <!-- H -->
     <g transform="translate(1222.911806 532.98598)scale(0.13 -0.13)">
      <use xlink:href="#DejaVuSans-48"/>
     </g>
    </g>
   </g>
   <g id="line2d_43">
    <path d="M 1274.154009 489.070814 
L 1274.154009 477.018774 
" clip-path="url(#p34cd2338ef)" style="fill: none; stroke: #ffffff; stroke-width: 2; stroke-linecap: square"/>
   </g>
   <g id="line2d_44">
    <path d="M 1268.127989 483.044794 
L 1280.180029 483.044794 
" clip-path="url(#p34cd2338ef)" style="fill: none; stroke: #ffffff; stroke-width: 2; stroke-linecap: square"/>
   </g>
   <g id="text_30">
    <g clip-path="url(#p34cd2338ef)">
     <!-- $-$0.00492 -->
     <g transform="translate(1323.845008 494.291323)scale(0.08 -0.08)">
      <use xlink:href="#DejaVuSans-2212" transform="translate(0 0.78125)"/>
      <use xlink:href="#DejaVuSans-30" transform="translate(83.789062 0.78125)"/>
      <use xlink:href="#DejaVuSans-2e" transform="translate(147.412109 0.78125)"/>
      <use xlink:href="#DejaVuSans-30" transform="translate(179.199219 0.78125)"/>
      <use xlink:href="#DejaVuSans-30" transform="translate(242.822266 0.78125)"/>
      <use xlink:href="#DejaVuSans-34" transform="translate(306.445312 0.78125)"/>
      <use xlink:href="#DejaVuSans-39" transform="translate(370.068359 0.78125)"/>
      <use xlink:href="#DejaVuSans-32" transform="translate(431.941406 0.78125)"/>
     </g>
    </g>
   </g>
   <g id="text_31">
    <g clip-path="url(#p34cd2338ef)">
     <!-- $\mathrm{R_Z}$ -->
     <g transform="translate(1335.755008 482.112466)scale(0.13 -0.13)">
      <use xlink:href="#DejaVuSans-52" transform="translate(0 0.09375)"/>
      <use xlink:href="#DejaVuSans-5a" transform="translate(70.439453 -16.3125)scale(0.7)"/>
     </g>
    </g>
   </g>
   <g id="line2d_45">
    <path d="M 1413.216007 489.070814 
L 1413.216007 477.018774 
" clip-path="url(#p34cd2338ef)" style="fill: none; stroke: #ffffff; stroke-width: 2; stroke-linecap: square"/>
   </g>
   <g id="line2d_46">
    <path d="M 1407.189987 483.044794 
L 1419.242027 483.044794 
" clip-path="url(#p34cd2338ef)" style="fill: none; stroke: #ffffff; stroke-width: 2; stroke-linecap: square"/>
   </g>
   <g id="text_32">
    <g clip-path="url(#p34cd2338ef)">
     <!-- H -->
     <g transform="translate(1454.681803 532.98598)scale(0.13 -0.13)">
      <use xlink:href="#DejaVuSans-48"/>
     </g>
    </g>
   </g>
   <g id="text_33">
    <g clip-path="url(#p34cd2338ef)">
     <!-- $\mathrm{S^\dagger}$ -->
     <g transform="translate(1497.474006 532.98598)scale(0.13 -0.13)">
      <use xlink:href="#DejaVuSans-53" transform="translate(0 0.684375)"/>
      <use xlink:href="#DejaVuSans-2020" transform="translate(78.071289 38.965625)scale(0.7)"/>
     </g>
    </g>
   </g>
  </g>
 </g>
 <defs>
  <clipPath id="p34cd2338ef">
   <rect x="218.279665" y="75.129599" width="1318.23798" height="482.081594"/>
  </clipPath>
 </defs>
</svg>
