<?xml version="1.0" encoding="utf-8" standalone="no"?>
<!DOCTYPE svg PUBLIC "-//W3C//DTD SVG 1.1//EN"
  "http://www.w3.org/Graphics/SVG/1.1/DTD/svg11.dtd">
<svg xmlns:xlink="http://www.w3.org/1999/xlink" width="2253.797369pt" height="626.079992pt" viewBox="0 0 2253.797369 626.079992" xmlns="http://www.w3.org/2000/svg" version="1.1">
 <metadata>
  <rdf:RDF xmlns:dc="http://purl.org/dc/elements/1.1/" xmlns:cc="http://creativecommons.org/ns#" xmlns:rdf="http://www.w3.org/1999/02/22-rdf-syntax-ns#">
   <cc:Work>
    <dc:type rdf:resource="http://purl.org/dc/dcmitype/StillImage"/>
    <dc:date>2022-05-14T14:39:04.864043</dc:date>
    <dc:format>image/svg+xml</dc:format>
    <dc:creator>
     <cc:Agent>
      <dc:title>Matplotlib v3.5.1, https://matplotlib.org/</dc:title>
     </cc:Agent>
    </dc:creator>
   </cc:Work>
  </rdf:RDF>
 </metadata>
 <defs>
  <style type="text/css">*{stroke-linejoin: round; stroke-linecap: butt}</style>
 </defs>
 <g id="figure_1">
  <g id="patch_1">
   <path d="M 0 626.079992 
L 2253.797369 626.079992 
L 2253.797369 0 
L 0 0 
z
" style="fill: #ffffff"/>
  </g>
  <g id="axes_1">
   <g id="line2d_1">
    <path d="M 344.768361 112.212799 
L 2018.147739 112.212799 
" clip-path="url(#p837236d3c7)" style="fill: none; stroke: #000000; stroke-width: 2; stroke-linecap: square"/>
   </g>
   <g id="line2d_2">
    <path d="M 344.768361 158.566798 
L 2018.147739 158.566798 
" clip-path="url(#p837236d3c7)" style="fill: none; stroke: #000000; stroke-width: 2; stroke-linecap: square"/>
   </g>
   <g id="line2d_3">
    <path d="M 344.768361 204.920797 
L 2018.147739 204.920797 
" clip-path="url(#p837236d3c7)" style="fill: none; stroke: #000000; stroke-width: 2; stroke-linecap: square"/>
   </g>
   <g id="line2d_4">
    <path d="M 344.768361 251.274797 
L 2018.147739 251.274797 
" clip-path="url(#p837236d3c7)" style="fill: none; stroke: #000000; stroke-width: 2; stroke-linecap: square"/>
   </g>
   <g id="line2d_5">
    <path d="M 344.768361 297.628796 
L 2018.147739 297.628796 
" clip-path="url(#p837236d3c7)" style="fill: none; stroke: #000000; stroke-width: 2; stroke-linecap: square"/>
   </g>
   <g id="line2d_6">
    <path d="M 344.768361 343.982795 
L 2018.147739 343.982795 
" clip-path="url(#p837236d3c7)" style="fill: none; stroke: #000000; stroke-width: 2; stroke-linecap: square"/>
   </g>
   <g id="line2d_7">
    <path d="M 344.768361 390.336795 
L 2018.147739 390.336795 
" clip-path="url(#p837236d3c7)" style="fill: none; stroke: #000000; stroke-width: 2; stroke-linecap: square"/>
   </g>
   <g id="line2d_8">
    <path d="M 344.768361 436.690794 
L 2018.147739 436.690794 
" clip-path="url(#p837236d3c7)" style="fill: none; stroke: #000000; stroke-width: 2; stroke-linecap: square"/>
   </g>
   <g id="line2d_9">
    <path d="M 344.768361 483.044794 
L 2018.147739 483.044794 
" clip-path="url(#p837236d3c7)" style="fill: none; stroke: #000000; stroke-width: 2; stroke-linecap: square"/>
   </g>
   <g id="line2d_10">
    <path d="M 344.768361 529.398793 
L 2018.147739 529.398793 
" clip-path="url(#p837236d3c7)" style="fill: none; stroke: #000000; stroke-width: 2; stroke-linecap: square"/>
   </g>
   <g id="line2d_11">
    <path d="M 416.15352 390.336795 
L 416.15352 297.628796 
" clip-path="url(#p837236d3c7)" style="fill: none; stroke: #000000; stroke-width: 2; stroke-linecap: square"/>
   </g>
   <g id="line2d_12">
    <path d="M 462.507519 529.398793 
L 462.507519 297.628796 
" clip-path="url(#p837236d3c7)" style="fill: none; stroke: #000000; stroke-width: 2; stroke-linecap: square"/>
   </g>
   <g id="line2d_13">
    <path d="M 555.215518 529.398793 
L 555.215518 297.628796 
" clip-path="url(#p837236d3c7)" style="fill: none; stroke: #000000; stroke-width: 2; stroke-linecap: square"/>
   </g>
   <g id="line2d_14">
    <path d="M 601.569518 390.336795 
L 601.569518 297.628796 
" clip-path="url(#p837236d3c7)" style="fill: none; stroke: #000000; stroke-width: 2; stroke-linecap: square"/>
   </g>
   <g id="line2d_15">
    <path d="M 647.923517 390.336795 
L 647.923517 297.628796 
" clip-path="url(#p837236d3c7)" style="fill: none; stroke: #000000; stroke-width: 2; stroke-linecap: square"/>
   </g>
   <g id="line2d_16">
    <path d="M 740.631516 529.398793 
L 740.631516 483.044794 
" clip-path="url(#p837236d3c7)" style="fill: none; stroke: #000000; stroke-width: 2; stroke-linecap: square"/>
   </g>
   <g id="line2d_17">
    <path d="M 879.693514 529.398793 
L 879.693514 483.044794 
" clip-path="url(#p837236d3c7)" style="fill: none; stroke: #000000; stroke-width: 2; stroke-linecap: square"/>
   </g>
   <g id="line2d_18">
    <path d="M 1018.755512 529.398793 
L 1018.755512 483.044794 
" clip-path="url(#p837236d3c7)" style="fill: none; stroke: #000000; stroke-width: 2; stroke-linecap: square"/>
   </g>
   <g id="line2d_19">
    <path d="M 1157.81751 529.398793 
L 1157.81751 483.044794 
" clip-path="url(#p837236d3c7)" style="fill: none; stroke: #000000; stroke-width: 2; stroke-linecap: square"/>
   </g>
   <g id="line2d_20">
    <path d="M 1250.525509 529.398793 
L 1250.525509 297.628796 
" clip-path="url(#p837236d3c7)" style="fill: none; stroke: #000000; stroke-width: 2; stroke-linecap: square"/>
   </g>
   <g id="line2d_21">
    <path d="M 1343.233508 529.398793 
L 1343.233508 297.628796 
" clip-path="url(#p837236d3c7)" style="fill: none; stroke: #000000; stroke-width: 2; stroke-linecap: square"/>
   </g>
   <g id="line2d_22">
    <path d="M 1389.587507 390.336795 
L 1389.587507 297.628796 
" clip-path="url(#p837236d3c7)" style="fill: none; stroke: #000000; stroke-width: 2; stroke-linecap: square"/>
   </g>
   <g id="line2d_23">
    <path d="M 1528.649505 529.398793 
L 1528.649505 483.044794 
" clip-path="url(#p837236d3c7)" style="fill: none; stroke: #000000; stroke-width: 2; stroke-linecap: square"/>
   </g>
   <g id="line2d_24">
    <path d="M 1667.711503 529.398793 
L 1667.711503 483.044794 
" clip-path="url(#p837236d3c7)" style="fill: none; stroke: #000000; stroke-width: 2; stroke-linecap: square"/>
   </g>
   <g id="line2d_25">
    <path d="M 1806.773502 529.398793 
L 1806.773502 483.044794 
" clip-path="url(#p837236d3c7)" style="fill: none; stroke: #000000; stroke-width: 2; stroke-linecap: square"/>
   </g>
   <g id="line2d_26">
    <path d="M 1945.8355 529.398793 
L 1945.8355 483.044794 
" clip-path="url(#p837236d3c7)" style="fill: none; stroke: #000000; stroke-width: 2; stroke-linecap: square"/>
   </g>
   <g id="text_1">
    <!-- TERMS: 3, DEPTH:32 -->
    <g transform="translate(1093.038652 69.129599)scale(0.12 -0.12)">
     <defs>
      <path id="DejaVuSans-54" d="M -19 4666 
L 3928 4666 
L 3928 4134 
L 2272 4134 
L 2272 0 
L 1638 0 
L 1638 4134 
L -19 4134 
L -19 4666 
z
" transform="scale(0.015625)"/>
      <path id="DejaVuSans-45" d="M 628 4666 
L 3578 4666 
L 3578 4134 
L 1259 4134 
L 1259 2753 
L 3481 2753 
L 3481 2222 
L 1259 2222 
L 1259 531 
L 3634 531 
L 3634 0 
L 628 0 
L 628 4666 
z
" transform="scale(0.015625)"/>
      <path id="DejaVuSans-52" d="M 2841 2188 
Q 3044 2119 3236 1894 
Q 3428 1669 3622 1275 
L 4263 0 
L 3584 0 
L 2988 1197 
Q 2756 1666 2539 1819 
Q 2322 1972 1947 1972 
L 1259 1972 
L 1259 0 
L 628 0 
L 628 4666 
L 2053 4666 
Q 2853 4666 3247 4331 
Q 3641 3997 3641 3322 
Q 3641 2881 3436 2590 
Q 3231 2300 2841 2188 
z
M 1259 4147 
L 1259 2491 
L 2053 2491 
Q 2509 2491 2742 2702 
Q 2975 2913 2975 3322 
Q 2975 3731 2742 3939 
Q 2509 4147 2053 4147 
L 1259 4147 
z
" transform="scale(0.015625)"/>
      <path id="DejaVuSans-4d" d="M 628 4666 
L 1569 4666 
L 2759 1491 
L 3956 4666 
L 4897 4666 
L 4897 0 
L 4281 0 
L 4281 4097 
L 3078 897 
L 2444 897 
L 1241 4097 
L 1241 0 
L 628 0 
L 628 4666 
z
" transform="scale(0.015625)"/>
      <path id="DejaVuSans-53" d="M 3425 4513 
L 3425 3897 
Q 3066 4069 2747 4153 
Q 2428 4238 2131 4238 
Q 1616 4238 1336 4038 
Q 1056 3838 1056 3469 
Q 1056 3159 1242 3001 
Q 1428 2844 1947 2747 
L 2328 2669 
Q 3034 2534 3370 2195 
Q 3706 1856 3706 1288 
Q 3706 609 3251 259 
Q 2797 -91 1919 -91 
Q 1588 -91 1214 -16 
Q 841 59 441 206 
L 441 856 
Q 825 641 1194 531 
Q 1563 422 1919 422 
Q 2459 422 2753 634 
Q 3047 847 3047 1241 
Q 3047 1584 2836 1778 
Q 2625 1972 2144 2069 
L 1759 2144 
Q 1053 2284 737 2584 
Q 422 2884 422 3419 
Q 422 4038 858 4394 
Q 1294 4750 2059 4750 
Q 2388 4750 2728 4690 
Q 3069 4631 3425 4513 
z
" transform="scale(0.015625)"/>
      <path id="DejaVuSans-3a" d="M 750 794 
L 1409 794 
L 1409 0 
L 750 0 
L 750 794 
z
M 750 3309 
L 1409 3309 
L 1409 2516 
L 750 2516 
L 750 3309 
z
" transform="scale(0.015625)"/>
      <path id="DejaVuSans-20" transform="scale(0.015625)"/>
      <path id="DejaVuSans-33" d="M 2597 2516 
Q 3050 2419 3304 2112 
Q 3559 1806 3559 1356 
Q 3559 666 3084 287 
Q 2609 -91 1734 -91 
Q 1441 -91 1130 -33 
Q 819 25 488 141 
L 488 750 
Q 750 597 1062 519 
Q 1375 441 1716 441 
Q 2309 441 2620 675 
Q 2931 909 2931 1356 
Q 2931 1769 2642 2001 
Q 2353 2234 1838 2234 
L 1294 2234 
L 1294 2753 
L 1863 2753 
Q 2328 2753 2575 2939 
Q 2822 3125 2822 3475 
Q 2822 3834 2567 4026 
Q 2313 4219 1838 4219 
Q 1578 4219 1281 4162 
Q 984 4106 628 3988 
L 628 4550 
Q 988 4650 1302 4700 
Q 1616 4750 1894 4750 
Q 2613 4750 3031 4423 
Q 3450 4097 3450 3541 
Q 3450 3153 3228 2886 
Q 3006 2619 2597 2516 
z
" transform="scale(0.015625)"/>
      <path id="DejaVuSans-2c" d="M 750 794 
L 1409 794 
L 1409 256 
L 897 -744 
L 494 -744 
L 750 256 
L 750 794 
z
" transform="scale(0.015625)"/>
      <path id="DejaVuSans-44" d="M 1259 4147 
L 1259 519 
L 2022 519 
Q 2988 519 3436 956 
Q 3884 1394 3884 2338 
Q 3884 3275 3436 3711 
Q 2988 4147 2022 4147 
L 1259 4147 
z
M 628 4666 
L 1925 4666 
Q 3281 4666 3915 4102 
Q 4550 3538 4550 2338 
Q 4550 1131 3912 565 
Q 3275 0 1925 0 
L 628 0 
L 628 4666 
z
" transform="scale(0.015625)"/>
      <path id="DejaVuSans-50" d="M 1259 4147 
L 1259 2394 
L 2053 2394 
Q 2494 2394 2734 2622 
Q 2975 2850 2975 3272 
Q 2975 3691 2734 3919 
Q 2494 4147 2053 4147 
L 1259 4147 
z
M 628 4666 
L 2053 4666 
Q 2838 4666 3239 4311 
Q 3641 3956 3641 3272 
Q 3641 2581 3239 2228 
Q 2838 1875 2053 1875 
L 1259 1875 
L 1259 0 
L 628 0 
L 628 4666 
z
" transform="scale(0.015625)"/>
      <path id="DejaVuSans-48" d="M 628 4666 
L 1259 4666 
L 1259 2753 
L 3553 2753 
L 3553 4666 
L 4184 4666 
L 4184 0 
L 3553 0 
L 3553 2222 
L 1259 2222 
L 1259 0 
L 628 0 
L 628 4666 
z
" transform="scale(0.015625)"/>
      <path id="DejaVuSans-32" d="M 1228 531 
L 3431 531 
L 3431 0 
L 469 0 
L 469 531 
Q 828 903 1448 1529 
Q 2069 2156 2228 2338 
Q 2531 2678 2651 2914 
Q 2772 3150 2772 3378 
Q 2772 3750 2511 3984 
Q 2250 4219 1831 4219 
Q 1534 4219 1204 4116 
Q 875 4013 500 3803 
L 500 4441 
Q 881 4594 1212 4672 
Q 1544 4750 1819 4750 
Q 2544 4750 2975 4387 
Q 3406 4025 3406 3419 
Q 3406 3131 3298 2873 
Q 3191 2616 2906 2266 
Q 2828 2175 2409 1742 
Q 1991 1309 1228 531 
z
" transform="scale(0.015625)"/>
     </defs>
     <use xlink:href="#DejaVuSans-54"/>
     <use xlink:href="#DejaVuSans-45" x="61.083984"/>
     <use xlink:href="#DejaVuSans-52" x="124.267578"/>
     <use xlink:href="#DejaVuSans-4d" x="193.75"/>
     <use xlink:href="#DejaVuSans-53" x="280.029297"/>
     <use xlink:href="#DejaVuSans-3a" x="343.505859"/>
     <use xlink:href="#DejaVuSans-20" x="377.197266"/>
     <use xlink:href="#DejaVuSans-33" x="408.984375"/>
     <use xlink:href="#DejaVuSans-2c" x="472.607422"/>
     <use xlink:href="#DejaVuSans-20" x="504.394531"/>
     <use xlink:href="#DejaVuSans-44" x="536.181641"/>
     <use xlink:href="#DejaVuSans-45" x="613.183594"/>
     <use xlink:href="#DejaVuSans-50" x="676.367188"/>
     <use xlink:href="#DejaVuSans-54" x="736.669922"/>
     <use xlink:href="#DejaVuSans-48" x="797.753906"/>
     <use xlink:href="#DejaVuSans-3a" x="872.949219"/>
     <use xlink:href="#DejaVuSans-33" x="906.640625"/>
     <use xlink:href="#DejaVuSans-32" x="970.263672"/>
    </g>
   </g>
   <g id="patch_2">
    <path d="M 354.734471 405.401845 
L 384.86457 405.401845 
L 384.86457 375.271745 
L 354.734471 375.271745 
z
" clip-path="url(#p837236d3c7)" style="fill: #ffffff; stroke: #000000; stroke-width: 1.5; stroke-linejoin: miter"/>
   </g>
   <g id="patch_3">
    <path d="M 354.734471 544.463843 
L 384.86457 544.463843 
L 384.86457 514.333743 
L 354.734471 514.333743 
z
" clip-path="url(#p837236d3c7)" style="fill: #ffffff; stroke: #000000; stroke-width: 1.5; stroke-linejoin: miter"/>
   </g>
   <g id="patch_4">
    <path d="M 416.15352 394.85631 
C 417.352109 394.85631 418.501769 394.380105 419.3493 393.532574 
C 420.19683 392.685044 420.673035 391.535384 420.673035 390.336795 
C 420.673035 389.138205 420.19683 387.988546 419.3493 387.141015 
C 418.501769 386.293484 417.352109 385.81728 416.15352 385.81728 
C 414.954931 385.81728 413.805271 386.293484 412.95774 387.141015 
C 412.11021 387.988546 411.634005 389.138205 411.634005 390.336795 
C 411.634005 391.535384 412.11021 392.685044 412.95774 393.532574 
C 413.805271 394.380105 414.954931 394.85631 416.15352 394.85631 
z
" clip-path="url(#p837236d3c7)" style="stroke: #000000; stroke-width: 1.5; stroke-linejoin: miter"/>
   </g>
   <g id="patch_5">
    <path d="M 416.15352 308.174331 
C 418.950229 308.174331 421.632768 307.063187 423.610339 305.085615 
C 425.587911 303.108044 426.699055 300.425505 426.699055 297.628796 
C 426.699055 294.832088 425.587911 292.149548 423.610339 290.171977 
C 421.632768 288.194405 418.950229 287.083261 416.15352 287.083261 
C 413.356812 287.083261 410.674272 288.194405 408.696701 290.171977 
C 406.719129 292.149548 405.607985 294.832088 405.607985 297.628796 
C 405.607985 300.425505 406.719129 303.108044 408.696701 305.085615 
C 410.674272 307.063187 413.356812 308.174331 416.15352 308.174331 
z
" clip-path="url(#p837236d3c7)" style="stroke: #000000; stroke-width: 2; stroke-linejoin: miter"/>
   </g>
   <g id="patch_6">
    <path d="M 462.507519 533.918308 
C 463.706109 533.918308 464.855768 533.442103 465.703299 532.594573 
C 466.55083 531.747042 467.027034 530.597382 467.027034 529.398793 
C 467.027034 528.200204 466.55083 527.050544 465.703299 526.203013 
C 464.855768 525.355483 463.706109 524.879278 462.507519 524.879278 
C 461.30893 524.879278 460.15927 525.355483 459.31174 526.203013 
C 458.464209 527.050544 457.988005 528.200204 457.988005 529.398793 
C 457.988005 530.597382 458.464209 531.747042 459.31174 532.594573 
C 460.15927 533.442103 461.30893 533.918308 462.507519 533.918308 
z
" clip-path="url(#p837236d3c7)" style="stroke: #000000; stroke-width: 1.5; stroke-linejoin: miter"/>
   </g>
   <g id="patch_7">
    <path d="M 462.507519 308.174331 
C 465.304228 308.174331 467.986767 307.063187 469.964339 305.085615 
C 471.94191 303.108044 473.053054 300.425505 473.053054 297.628796 
C 473.053054 294.832088 471.94191 292.149548 469.964339 290.171977 
C 467.986767 288.194405 465.304228 287.083261 462.507519 287.083261 
C 459.710811 287.083261 457.028272 288.194405 455.0507 290.171977 
C 453.073129 292.149548 451.961985 294.832088 451.961985 297.628796 
C 451.961985 300.425505 453.073129 303.108044 455.0507 305.085615 
C 457.028272 307.063187 459.710811 308.174331 462.507519 308.174331 
z
" clip-path="url(#p837236d3c7)" style="stroke: #000000; stroke-width: 2; stroke-linejoin: miter"/>
   </g>
   <g id="patch_8">
    <path d="M 493.796469 312.693846 
L 523.926569 312.693846 
L 523.926569 282.563746 
L 493.796469 282.563746 
z
" clip-path="url(#p837236d3c7)" style="fill: #ffffff; stroke: #000000; stroke-width: 1.5; stroke-linejoin: miter"/>
   </g>
   <g id="patch_9">
    <path d="M 555.215518 533.918308 
C 556.414108 533.918308 557.563767 533.442103 558.411298 532.594573 
C 559.258829 531.747042 559.735033 530.597382 559.735033 529.398793 
C 559.735033 528.200204 559.258829 527.050544 558.411298 526.203013 
C 557.563767 525.355483 556.414108 524.879278 555.215518 524.879278 
C 554.016929 524.879278 552.867269 525.355483 552.019739 526.203013 
C 551.172208 527.050544 550.696003 528.200204 550.696003 529.398793 
C 550.696003 530.597382 551.172208 531.747042 552.019739 532.594573 
C 552.867269 533.442103 554.016929 533.918308 555.215518 533.918308 
z
" clip-path="url(#p837236d3c7)" style="stroke: #000000; stroke-width: 1.5; stroke-linejoin: miter"/>
   </g>
   <g id="patch_10">
    <path d="M 555.215518 308.174331 
C 558.012227 308.174331 560.694766 307.063187 562.672337 305.085615 
C 564.649909 303.108044 565.761053 300.425505 565.761053 297.628796 
C 565.761053 294.832088 564.649909 292.149548 562.672337 290.171977 
C 560.694766 288.194405 558.012227 287.083261 555.215518 287.083261 
C 552.41881 287.083261 549.736271 288.194405 547.758699 290.171977 
C 545.781127 292.149548 544.669983 294.832088 544.669983 297.628796 
C 544.669983 300.425505 545.781127 303.108044 547.758699 305.085615 
C 549.736271 307.063187 552.41881 308.174331 555.215518 308.174331 
z
" clip-path="url(#p837236d3c7)" style="stroke: #000000; stroke-width: 2; stroke-linejoin: miter"/>
   </g>
   <g id="patch_11">
    <path d="M 586.504468 544.463843 
L 616.634567 544.463843 
L 616.634567 514.333743 
L 586.504468 514.333743 
z
" clip-path="url(#p837236d3c7)" style="fill: #ffffff; stroke: #000000; stroke-width: 1.5; stroke-linejoin: miter"/>
   </g>
   <g id="patch_12">
    <path d="M 601.569518 394.85631 
C 602.768107 394.85631 603.917767 394.380105 604.765297 393.532574 
C 605.612828 392.685044 606.089033 391.535384 606.089033 390.336795 
C 606.089033 389.138205 605.612828 387.988546 604.765297 387.141015 
C 603.917767 386.293484 602.768107 385.81728 601.569518 385.81728 
C 600.370928 385.81728 599.221269 386.293484 598.373738 387.141015 
C 597.526207 387.988546 597.050003 389.138205 597.050003 390.336795 
C 597.050003 391.535384 597.526207 392.685044 598.373738 393.532574 
C 599.221269 394.380105 600.370928 394.85631 601.569518 394.85631 
z
" clip-path="url(#p837236d3c7)" style="stroke: #000000; stroke-width: 1.5; stroke-linejoin: miter"/>
   </g>
   <g id="patch_13">
    <path d="M 601.569518 308.174331 
C 604.366226 308.174331 607.048765 307.063187 609.026337 305.085615 
C 611.003908 303.108044 612.115052 300.425505 612.115052 297.628796 
C 612.115052 294.832088 611.003908 292.149548 609.026337 290.171977 
C 607.048765 288.194405 604.366226 287.083261 601.569518 287.083261 
C 598.772809 287.083261 596.09027 288.194405 594.112698 290.171977 
C 592.135127 292.149548 591.023983 294.832088 591.023983 297.628796 
C 591.023983 300.425505 592.135127 303.108044 594.112698 305.085615 
C 596.09027 307.063187 598.772809 308.174331 601.569518 308.174331 
z
" clip-path="url(#p837236d3c7)" style="stroke: #000000; stroke-width: 2; stroke-linejoin: miter"/>
   </g>
   <g id="patch_14">
    <path d="M 632.858467 544.463843 
L 662.988567 544.463843 
L 662.988567 514.333743 
L 632.858467 514.333743 
z
" clip-path="url(#p837236d3c7)" style="fill: #ffffff; stroke: #000000; stroke-width: 1.5; stroke-linejoin: miter"/>
   </g>
   <g id="patch_15">
    <path d="M 647.923517 394.85631 
C 649.122106 394.85631 650.271766 394.380105 651.119297 393.532574 
C 651.966827 392.685044 652.443032 391.535384 652.443032 390.336795 
C 652.443032 389.138205 651.966827 387.988546 651.119297 387.141015 
C 650.271766 386.293484 649.122106 385.81728 647.923517 385.81728 
C 646.724928 385.81728 645.575268 386.293484 644.727737 387.141015 
C 643.880207 387.988546 643.404002 389.138205 643.404002 390.336795 
C 643.404002 391.535384 643.880207 392.685044 644.727737 393.532574 
C 645.575268 394.380105 646.724928 394.85631 647.923517 394.85631 
z
" clip-path="url(#p837236d3c7)" style="stroke: #000000; stroke-width: 1.5; stroke-linejoin: miter"/>
   </g>
   <g id="patch_16">
    <path d="M 647.923517 308.174331 
C 650.720226 308.174331 653.402765 307.063187 655.380336 305.085615 
C 657.357908 303.108044 658.469052 300.425505 658.469052 297.628796 
C 658.469052 294.832088 657.357908 292.149548 655.380336 290.171977 
C 653.402765 288.194405 650.720226 287.083261 647.923517 287.083261 
C 645.126808 287.083261 642.444269 288.194405 640.466698 290.171977 
C 638.489126 292.149548 637.377982 294.832088 637.377982 297.628796 
C 637.377982 300.425505 638.489126 303.108044 640.466698 305.085615 
C 642.444269 307.063187 645.126808 308.174331 647.923517 308.174331 
z
" clip-path="url(#p837236d3c7)" style="stroke: #000000; stroke-width: 2; stroke-linejoin: miter"/>
   </g>
   <g id="patch_17">
    <path d="M 679.212467 544.463843 
L 709.342566 544.463843 
L 709.342566 514.333743 
L 679.212467 514.333743 
z
" clip-path="url(#p837236d3c7)" style="fill: #ffffff; stroke: #000000; stroke-width: 1.5; stroke-linejoin: miter"/>
   </g>
   <g id="patch_18">
    <path d="M 740.631516 533.918308 
C 741.830105 533.918308 742.979765 533.442103 743.827295 532.594573 
C 744.674826 531.747042 745.151031 530.597382 745.151031 529.398793 
C 745.151031 528.200204 744.674826 527.050544 743.827295 526.203013 
C 742.979765 525.355483 741.830105 524.879278 740.631516 524.879278 
C 739.432926 524.879278 738.283267 525.355483 737.435736 526.203013 
C 736.588205 527.050544 736.112001 528.200204 736.112001 529.398793 
C 736.112001 530.597382 736.588205 531.747042 737.435736 532.594573 
C 738.283267 533.442103 739.432926 533.918308 740.631516 533.918308 
z
" clip-path="url(#p837236d3c7)" style="stroke: #000000; stroke-width: 1.5; stroke-linejoin: miter"/>
   </g>
   <g id="patch_19">
    <path d="M 740.631516 493.590328 
C 743.428224 493.590328 746.110763 492.479184 748.088335 490.501613 
C 750.065907 488.524041 751.177051 485.841502 751.177051 483.044794 
C 751.177051 480.248085 750.065907 477.565546 748.088335 475.587974 
C 746.110763 473.610403 743.428224 472.499259 740.631516 472.499259 
C 737.834807 472.499259 735.152268 473.610403 733.174697 475.587974 
C 731.197125 477.565546 730.085981 480.248085 730.085981 483.044794 
C 730.085981 485.841502 731.197125 488.524041 733.174697 490.501613 
C 735.152268 492.479184 737.834807 493.590328 740.631516 493.590328 
z
" clip-path="url(#p837236d3c7)" style="stroke: #000000; stroke-width: 2; stroke-linejoin: miter"/>
   </g>
   <g id="patch_20">
    <path d="M 788.767826 498.109843 
L 831.557203 498.109843 
L 831.557203 467.979744 
L 788.767826 467.979744 
z
" clip-path="url(#p837236d3c7)" style="fill: #ffffff; stroke: #000000; stroke-width: 1.5; stroke-linejoin: miter"/>
   </g>
   <g id="patch_21">
    <path d="M 879.693514 533.918308 
C 880.892103 533.918308 882.041763 533.442103 882.889294 532.594573 
C 883.736824 531.747042 884.213029 530.597382 884.213029 529.398793 
C 884.213029 528.200204 883.736824 527.050544 882.889294 526.203013 
C 882.041763 525.355483 880.892103 524.879278 879.693514 524.879278 
C 878.494925 524.879278 877.345265 525.355483 876.497734 526.203013 
C 875.650204 527.050544 875.173999 528.200204 875.173999 529.398793 
C 875.173999 530.597382 875.650204 531.747042 876.497734 532.594573 
C 877.345265 533.442103 878.494925 533.918308 879.693514 533.918308 
z
" clip-path="url(#p837236d3c7)" style="stroke: #000000; stroke-width: 1.5; stroke-linejoin: miter"/>
   </g>
   <g id="patch_22">
    <path d="M 879.693514 493.590328 
C 882.490222 493.590328 885.172762 492.479184 887.150333 490.501613 
C 889.127905 488.524041 890.239049 485.841502 890.239049 483.044794 
C 890.239049 480.248085 889.127905 477.565546 887.150333 475.587974 
C 885.172762 473.610403 882.490222 472.499259 879.693514 472.499259 
C 876.896805 472.499259 874.214266 473.610403 872.236695 475.587974 
C 870.259123 477.565546 869.147979 480.248085 869.147979 483.044794 
C 869.147979 485.841502 870.259123 488.524041 872.236695 490.501613 
C 874.214266 492.479184 876.896805 493.590328 879.693514 493.590328 
z
" clip-path="url(#p837236d3c7)" style="stroke: #000000; stroke-width: 2; stroke-linejoin: miter"/>
   </g>
   <g id="patch_23">
    <path d="M 910.982463 544.463843 
L 941.112563 544.463843 
L 941.112563 514.333743 
L 910.982463 514.333743 
z
" clip-path="url(#p837236d3c7)" style="fill: #ffffff; stroke: #000000; stroke-width: 1.5; stroke-linejoin: miter"/>
   </g>
   <g id="patch_24">
    <path d="M 910.982463 498.109843 
L 941.112563 498.109843 
L 941.112563 467.979744 
L 910.982463 467.979744 
z
" clip-path="url(#p837236d3c7)" style="fill: #ffffff; stroke: #000000; stroke-width: 1.5; stroke-linejoin: miter"/>
   </g>
   <g id="patch_25">
    <path d="M 957.336463 544.463843 
L 987.466562 544.463843 
L 987.466562 514.333743 
L 957.336463 514.333743 
z
" clip-path="url(#p837236d3c7)" style="fill: #ffffff; stroke: #000000; stroke-width: 1.5; stroke-linejoin: miter"/>
   </g>
   <g id="patch_26">
    <path d="M 1018.755512 487.564309 
C 1019.954101 487.564309 1021.103761 487.088104 1021.951292 486.240573 
C 1022.798822 485.393043 1023.275027 484.243383 1023.275027 483.044794 
C 1023.275027 481.846204 1022.798822 480.696545 1021.951292 479.849014 
C 1021.103761 479.001483 1019.954101 478.525279 1018.755512 478.525279 
C 1017.556923 478.525279 1016.407263 479.001483 1015.559732 479.849014 
C 1014.712202 480.696545 1014.235997 481.846204 1014.235997 483.044794 
C 1014.235997 484.243383 1014.712202 485.393043 1015.559732 486.240573 
C 1016.407263 487.088104 1017.556923 487.564309 1018.755512 487.564309 
z
" clip-path="url(#p837236d3c7)" style="stroke: #000000; stroke-width: 1.5; stroke-linejoin: miter"/>
   </g>
   <g id="patch_27">
    <path d="M 1018.755512 539.944328 
C 1021.552221 539.944328 1024.23476 538.833184 1026.212331 536.855612 
C 1028.189903 534.878041 1029.301047 532.195502 1029.301047 529.398793 
C 1029.301047 526.602084 1028.189903 523.919545 1026.212331 521.941974 
C 1024.23476 519.964402 1021.552221 518.853258 1018.755512 518.853258 
C 1015.958804 518.853258 1013.276264 519.964402 1011.298693 521.941974 
C 1009.321121 523.919545 1008.209977 526.602084 1008.209977 529.398793 
C 1008.209977 532.195502 1009.321121 534.878041 1011.298693 536.855612 
C 1013.276264 538.833184 1015.958804 539.944328 1018.755512 539.944328 
z
" clip-path="url(#p837236d3c7)" style="stroke: #000000; stroke-width: 2; stroke-linejoin: miter"/>
   </g>
   <g id="patch_28">
    <path d="M 1066.891823 544.463843 
L 1109.6812 544.463843 
L 1109.6812 514.333743 
L 1066.891823 514.333743 
z
" clip-path="url(#p837236d3c7)" style="fill: #ffffff; stroke: #000000; stroke-width: 1.5; stroke-linejoin: miter"/>
   </g>
   <g id="patch_29">
    <path d="M 1157.81751 487.564309 
C 1159.0161 487.564309 1160.165759 487.088104 1161.01329 486.240573 
C 1161.860821 485.393043 1162.337025 484.243383 1162.337025 483.044794 
C 1162.337025 481.846204 1161.860821 480.696545 1161.01329 479.849014 
C 1160.165759 479.001483 1159.0161 478.525279 1157.81751 478.525279 
C 1156.618921 478.525279 1155.469261 479.001483 1154.621731 479.849014 
C 1153.7742 480.696545 1153.297995 481.846204 1153.297995 483.044794 
C 1153.297995 484.243383 1153.7742 485.393043 1154.621731 486.240573 
C 1155.469261 487.088104 1156.618921 487.564309 1157.81751 487.564309 
z
" clip-path="url(#p837236d3c7)" style="stroke: #000000; stroke-width: 1.5; stroke-linejoin: miter"/>
   </g>
   <g id="patch_30">
    <path d="M 1157.81751 539.944328 
C 1160.614219 539.944328 1163.296758 538.833184 1165.274329 536.855612 
C 1167.251901 534.878041 1168.363045 532.195502 1168.363045 529.398793 
C 1168.363045 526.602084 1167.251901 523.919545 1165.274329 521.941974 
C 1163.296758 519.964402 1160.614219 518.853258 1157.81751 518.853258 
C 1155.020802 518.853258 1152.338263 519.964402 1150.360691 521.941974 
C 1148.383119 523.919545 1147.271975 526.602084 1147.271975 529.398793 
C 1147.271975 532.195502 1148.383119 534.878041 1150.360691 536.855612 
C 1152.338263 538.833184 1155.020802 539.944328 1157.81751 539.944328 
z
" clip-path="url(#p837236d3c7)" style="stroke: #000000; stroke-width: 2; stroke-linejoin: miter"/>
   </g>
   <g id="patch_31">
    <path d="M 1189.10646 498.109843 
L 1219.236559 498.109843 
L 1219.236559 467.979744 
L 1189.10646 467.979744 
z
" clip-path="url(#p837236d3c7)" style="fill: #ffffff; stroke: #000000; stroke-width: 1.5; stroke-linejoin: miter"/>
   </g>
   <g id="patch_32">
    <path d="M 1189.10646 544.463843 
L 1219.236559 544.463843 
L 1219.236559 514.333743 
L 1189.10646 514.333743 
z
" clip-path="url(#p837236d3c7)" style="fill: #ffffff; stroke: #000000; stroke-width: 1.5; stroke-linejoin: miter"/>
   </g>
   <g id="patch_33">
    <path d="M 1250.525509 533.918308 
C 1251.724098 533.918308 1252.873758 533.442103 1253.721289 532.594573 
C 1254.568819 531.747042 1255.045024 530.597382 1255.045024 529.398793 
C 1255.045024 528.200204 1254.568819 527.050544 1253.721289 526.203013 
C 1252.873758 525.355483 1251.724098 524.879278 1250.525509 524.879278 
C 1249.32692 524.879278 1248.17726 525.355483 1247.329729 526.203013 
C 1246.482199 527.050544 1246.005994 528.200204 1246.005994 529.398793 
C 1246.005994 530.597382 1246.482199 531.747042 1247.329729 532.594573 
C 1248.17726 533.442103 1249.32692 533.918308 1250.525509 533.918308 
z
" clip-path="url(#p837236d3c7)" style="stroke: #000000; stroke-width: 1.5; stroke-linejoin: miter"/>
   </g>
   <g id="patch_34">
    <path d="M 1250.525509 308.174331 
C 1253.322218 308.174331 1256.004757 307.063187 1257.982328 305.085615 
C 1259.9599 303.108044 1261.071044 300.425505 1261.071044 297.628796 
C 1261.071044 294.832088 1259.9599 292.149548 1257.982328 290.171977 
C 1256.004757 288.194405 1253.322218 287.083261 1250.525509 287.083261 
C 1247.7288 287.083261 1245.046261 288.194405 1243.06869 290.171977 
C 1241.091118 292.149548 1239.979974 294.832088 1239.979974 297.628796 
C 1239.979974 300.425505 1241.091118 303.108044 1243.06869 305.085615 
C 1245.046261 307.063187 1247.7288 308.174331 1250.525509 308.174331 
z
" clip-path="url(#p837236d3c7)" style="stroke: #000000; stroke-width: 2; stroke-linejoin: miter"/>
   </g>
   <g id="patch_35">
    <path d="M 1281.814459 312.693846 
L 1311.944558 312.693846 
L 1311.944558 282.563746 
L 1281.814459 282.563746 
z
" clip-path="url(#p837236d3c7)" style="fill: #ffffff; stroke: #000000; stroke-width: 1.5; stroke-linejoin: miter"/>
   </g>
   <g id="patch_36">
    <path d="M 1343.233508 533.918308 
C 1344.432097 533.918308 1345.581757 533.442103 1346.429287 532.594573 
C 1347.276818 531.747042 1347.753023 530.597382 1347.753023 529.398793 
C 1347.753023 528.200204 1347.276818 527.050544 1346.429287 526.203013 
C 1345.581757 525.355483 1344.432097 524.879278 1343.233508 524.879278 
C 1342.034918 524.879278 1340.885259 525.355483 1340.037728 526.203013 
C 1339.190197 527.050544 1338.713993 528.200204 1338.713993 529.398793 
C 1338.713993 530.597382 1339.190197 531.747042 1340.037728 532.594573 
C 1340.885259 533.442103 1342.034918 533.918308 1343.233508 533.918308 
z
" clip-path="url(#p837236d3c7)" style="stroke: #000000; stroke-width: 1.5; stroke-linejoin: miter"/>
   </g>
   <g id="patch_37">
    <path d="M 1343.233508 308.174331 
C 1346.030216 308.174331 1348.712755 307.063187 1350.690327 305.085615 
C 1352.667899 303.108044 1353.779043 300.425505 1353.779043 297.628796 
C 1353.779043 294.832088 1352.667899 292.149548 1350.690327 290.171977 
C 1348.712755 288.194405 1346.030216 287.083261 1343.233508 287.083261 
C 1340.436799 287.083261 1337.75426 288.194405 1335.776689 290.171977 
C 1333.799117 292.149548 1332.687973 294.832088 1332.687973 297.628796 
C 1332.687973 300.425505 1333.799117 303.108044 1335.776689 305.085615 
C 1337.75426 307.063187 1340.436799 308.174331 1343.233508 308.174331 
z
" clip-path="url(#p837236d3c7)" style="stroke: #000000; stroke-width: 2; stroke-linejoin: miter"/>
   </g>
   <g id="patch_38">
    <path d="M 1374.522457 544.463843 
L 1404.652557 544.463843 
L 1404.652557 514.333743 
L 1374.522457 514.333743 
z
" clip-path="url(#p837236d3c7)" style="fill: #ffffff; stroke: #000000; stroke-width: 1.5; stroke-linejoin: miter"/>
   </g>
   <g id="patch_39">
    <path d="M 1389.587507 394.85631 
C 1390.786097 394.85631 1391.935756 394.380105 1392.783287 393.532574 
C 1393.630817 392.685044 1394.107022 391.535384 1394.107022 390.336795 
C 1394.107022 389.138205 1393.630817 387.988546 1392.783287 387.141015 
C 1391.935756 386.293484 1390.786097 385.81728 1389.587507 385.81728 
C 1388.388918 385.81728 1387.239258 386.293484 1386.391727 387.141015 
C 1385.544197 387.988546 1385.067992 389.138205 1385.067992 390.336795 
C 1385.067992 391.535384 1385.544197 392.685044 1386.391727 393.532574 
C 1387.239258 394.380105 1388.388918 394.85631 1389.587507 394.85631 
z
" clip-path="url(#p837236d3c7)" style="stroke: #000000; stroke-width: 1.5; stroke-linejoin: miter"/>
   </g>
   <g id="patch_40">
    <path d="M 1389.587507 308.174331 
C 1392.384216 308.174331 1395.066755 307.063187 1397.044326 305.085615 
C 1399.021898 303.108044 1400.133042 300.425505 1400.133042 297.628796 
C 1400.133042 294.832088 1399.021898 292.149548 1397.044326 290.171977 
C 1395.066755 288.194405 1392.384216 287.083261 1389.587507 287.083261 
C 1386.790799 287.083261 1384.108259 288.194405 1382.130688 290.171977 
C 1380.153116 292.149548 1379.041972 294.832088 1379.041972 297.628796 
C 1379.041972 300.425505 1380.153116 303.108044 1382.130688 305.085615 
C 1384.108259 307.063187 1386.790799 308.174331 1389.587507 308.174331 
z
" clip-path="url(#p837236d3c7)" style="stroke: #000000; stroke-width: 2; stroke-linejoin: miter"/>
   </g>
   <g id="patch_41">
    <path d="M 1420.876457 405.401845 
L 1451.006556 405.401845 
L 1451.006556 375.271745 
L 1420.876457 375.271745 
z
" clip-path="url(#p837236d3c7)" style="fill: #ffffff; stroke: #000000; stroke-width: 1.5; stroke-linejoin: miter"/>
   </g>
   <g id="patch_42">
    <path d="M 1420.876457 544.463843 
L 1451.006556 544.463843 
L 1451.006556 514.333743 
L 1420.876457 514.333743 
z
" clip-path="url(#p837236d3c7)" style="fill: #ffffff; stroke: #000000; stroke-width: 1.5; stroke-linejoin: miter"/>
   </g>
   <g id="patch_43">
    <path d="M 1467.230456 544.463843 
L 1497.360556 544.463843 
L 1497.360556 514.333743 
L 1467.230456 514.333743 
z
" clip-path="url(#p837236d3c7)" style="fill: #ffffff; stroke: #000000; stroke-width: 1.5; stroke-linejoin: miter"/>
   </g>
   <g id="patch_44">
    <path d="M 1528.649505 533.918308 
C 1529.848095 533.918308 1530.997754 533.442103 1531.845285 532.594573 
C 1532.692816 531.747042 1533.16902 530.597382 1533.16902 529.398793 
C 1533.16902 528.200204 1532.692816 527.050544 1531.845285 526.203013 
C 1530.997754 525.355483 1529.848095 524.879278 1528.649505 524.879278 
C 1527.450916 524.879278 1526.301256 525.355483 1525.453726 526.203013 
C 1524.606195 527.050544 1524.12999 528.200204 1524.12999 529.398793 
C 1524.12999 530.597382 1524.606195 531.747042 1525.453726 532.594573 
C 1526.301256 533.442103 1527.450916 533.918308 1528.649505 533.918308 
z
" clip-path="url(#p837236d3c7)" style="stroke: #000000; stroke-width: 1.5; stroke-linejoin: miter"/>
   </g>
   <g id="patch_45">
    <path d="M 1528.649505 493.590328 
C 1531.446214 493.590328 1534.128753 492.479184 1536.106324 490.501613 
C 1538.083896 488.524041 1539.19504 485.841502 1539.19504 483.044794 
C 1539.19504 480.248085 1538.083896 477.565546 1536.106324 475.587974 
C 1534.128753 473.610403 1531.446214 472.499259 1528.649505 472.499259 
C 1525.852797 472.499259 1523.170258 473.610403 1521.192686 475.587974 
C 1519.215115 477.565546 1518.10397 480.248085 1518.10397 483.044794 
C 1518.10397 485.841502 1519.215115 488.524041 1521.192686 490.501613 
C 1523.170258 492.479184 1525.852797 493.590328 1528.649505 493.590328 
z
" clip-path="url(#p837236d3c7)" style="stroke: #000000; stroke-width: 2; stroke-linejoin: miter"/>
   </g>
   <g id="patch_46">
    <path d="M 1576.785816 498.109843 
L 1619.575193 498.109843 
L 1619.575193 467.979744 
L 1576.785816 467.979744 
z
" clip-path="url(#p837236d3c7)" style="fill: #ffffff; stroke: #000000; stroke-width: 1.5; stroke-linejoin: miter"/>
   </g>
   <g id="patch_47">
    <path d="M 1667.711503 533.918308 
C 1668.910093 533.918308 1670.059752 533.442103 1670.907283 532.594573 
C 1671.754814 531.747042 1672.231018 530.597382 1672.231018 529.398793 
C 1672.231018 528.200204 1671.754814 527.050544 1670.907283 526.203013 
C 1670.059752 525.355483 1668.910093 524.879278 1667.711503 524.879278 
C 1666.512914 524.879278 1665.363254 525.355483 1664.515724 526.203013 
C 1663.668193 527.050544 1663.191989 528.200204 1663.191989 529.398793 
C 1663.191989 530.597382 1663.668193 531.747042 1664.515724 532.594573 
C 1665.363254 533.442103 1666.512914 533.918308 1667.711503 533.918308 
z
" clip-path="url(#p837236d3c7)" style="stroke: #000000; stroke-width: 1.5; stroke-linejoin: miter"/>
   </g>
   <g id="patch_48">
    <path d="M 1667.711503 493.590328 
C 1670.508212 493.590328 1673.190751 492.479184 1675.168323 490.501613 
C 1677.145894 488.524041 1678.257038 485.841502 1678.257038 483.044794 
C 1678.257038 480.248085 1677.145894 477.565546 1675.168323 475.587974 
C 1673.190751 473.610403 1670.508212 472.499259 1667.711503 472.499259 
C 1664.914795 472.499259 1662.232256 473.610403 1660.254684 475.587974 
C 1658.277113 477.565546 1657.165969 480.248085 1657.165969 483.044794 
C 1657.165969 485.841502 1658.277113 488.524041 1660.254684 490.501613 
C 1662.232256 492.479184 1664.914795 493.590328 1667.711503 493.590328 
z
" clip-path="url(#p837236d3c7)" style="stroke: #000000; stroke-width: 2; stroke-linejoin: miter"/>
   </g>
   <g id="patch_49">
    <path d="M 1699.000453 544.463843 
L 1729.130553 544.463843 
L 1729.130553 514.333743 
L 1699.000453 514.333743 
z
" clip-path="url(#p837236d3c7)" style="fill: #ffffff; stroke: #000000; stroke-width: 1.5; stroke-linejoin: miter"/>
   </g>
   <g id="patch_50">
    <path d="M 1699.000453 498.109843 
L 1729.130553 498.109843 
L 1729.130553 467.979744 
L 1699.000453 467.979744 
z
" clip-path="url(#p837236d3c7)" style="fill: #ffffff; stroke: #000000; stroke-width: 1.5; stroke-linejoin: miter"/>
   </g>
   <g id="patch_51">
    <path d="M 1745.354452 544.463843 
L 1775.484552 544.463843 
L 1775.484552 514.333743 
L 1745.354452 514.333743 
z
" clip-path="url(#p837236d3c7)" style="fill: #ffffff; stroke: #000000; stroke-width: 1.5; stroke-linejoin: miter"/>
   </g>
   <g id="patch_52">
    <path d="M 1806.773502 487.564309 
C 1807.972091 487.564309 1809.121751 487.088104 1809.969281 486.240573 
C 1810.816812 485.393043 1811.293017 484.243383 1811.293017 483.044794 
C 1811.293017 481.846204 1810.816812 480.696545 1809.969281 479.849014 
C 1809.121751 479.001483 1807.972091 478.525279 1806.773502 478.525279 
C 1805.574912 478.525279 1804.425253 479.001483 1803.577722 479.849014 
C 1802.730191 480.696545 1802.253987 481.846204 1802.253987 483.044794 
C 1802.253987 484.243383 1802.730191 485.393043 1803.577722 486.240573 
C 1804.425253 487.088104 1805.574912 487.564309 1806.773502 487.564309 
z
" clip-path="url(#p837236d3c7)" style="stroke: #000000; stroke-width: 1.5; stroke-linejoin: miter"/>
   </g>
   <g id="patch_53">
    <path d="M 1806.773502 539.944328 
C 1809.57021 539.944328 1812.252749 538.833184 1814.230321 536.855612 
C 1816.207892 534.878041 1817.319036 532.195502 1817.319036 529.398793 
C 1817.319036 526.602084 1816.207892 523.919545 1814.230321 521.941974 
C 1812.252749 519.964402 1809.57021 518.853258 1806.773502 518.853258 
C 1803.976793 518.853258 1801.294254 519.964402 1799.316682 521.941974 
C 1797.339111 523.919545 1796.227967 526.602084 1796.227967 529.398793 
C 1796.227967 532.195502 1797.339111 534.878041 1799.316682 536.855612 
C 1801.294254 538.833184 1803.976793 539.944328 1806.773502 539.944328 
z
" clip-path="url(#p837236d3c7)" style="stroke: #000000; stroke-width: 2; stroke-linejoin: miter"/>
   </g>
   <g id="patch_54">
    <path d="M 1854.909812 544.463843 
L 1897.699189 544.463843 
L 1897.699189 514.333743 
L 1854.909812 514.333743 
z
" clip-path="url(#p837236d3c7)" style="fill: #ffffff; stroke: #000000; stroke-width: 1.5; stroke-linejoin: miter"/>
   </g>
   <g id="patch_55">
    <path d="M 1945.8355 487.564309 
C 1947.034089 487.564309 1948.183749 487.088104 1949.031279 486.240573 
C 1949.87881 485.393043 1950.355015 484.243383 1950.355015 483.044794 
C 1950.355015 481.846204 1949.87881 480.696545 1949.031279 479.849014 
C 1948.183749 479.001483 1947.034089 478.525279 1945.8355 478.525279 
C 1944.63691 478.525279 1943.487251 479.001483 1942.63972 479.849014 
C 1941.792189 480.696545 1941.315985 481.846204 1941.315985 483.044794 
C 1941.315985 484.243383 1941.792189 485.393043 1942.63972 486.240573 
C 1943.487251 487.088104 1944.63691 487.564309 1945.8355 487.564309 
z
" clip-path="url(#p837236d3c7)" style="stroke: #000000; stroke-width: 1.5; stroke-linejoin: miter"/>
   </g>
   <g id="patch_56">
    <path d="M 1945.8355 539.944328 
C 1948.632208 539.944328 1951.314747 538.833184 1953.292319 536.855612 
C 1955.269891 534.878041 1956.381035 532.195502 1956.381035 529.398793 
C 1956.381035 526.602084 1955.269891 523.919545 1953.292319 521.941974 
C 1951.314747 519.964402 1948.632208 518.853258 1945.8355 518.853258 
C 1943.038791 518.853258 1940.356252 519.964402 1938.378681 521.941974 
C 1936.401109 523.919545 1935.289965 526.602084 1935.289965 529.398793 
C 1935.289965 532.195502 1936.401109 534.878041 1938.378681 536.855612 
C 1940.356252 538.833184 1943.038791 539.944328 1945.8355 539.944328 
z
" clip-path="url(#p837236d3c7)" style="stroke: #000000; stroke-width: 2; stroke-linejoin: miter"/>
   </g>
   <g id="patch_57">
    <path d="M 1977.124449 498.109843 
L 2007.254549 498.109843 
L 2007.254549 467.979744 
L 1977.124449 467.979744 
z
" clip-path="url(#p837236d3c7)" style="fill: #ffffff; stroke: #000000; stroke-width: 1.5; stroke-linejoin: miter"/>
   </g>
   <g id="text_2">
    <g clip-path="url(#p837236d3c7)">
     <!-- ${q}_{0}$ -->
     <g transform="translate(317.460061 116.663775)scale(0.1625 -0.1625)">
      <defs>
       <path id="DejaVuSans-Oblique-71" d="M 2669 525 
Q 2438 222 2123 65 
Q 1809 -91 1428 -91 
Q 897 -91 595 267 
Q 294 625 294 1253 
Q 294 1759 480 2231 
Q 666 2703 1013 3078 
Q 1238 3322 1530 3453 
Q 1822 3584 2144 3584 
Q 2531 3584 2781 3431 
Q 3031 3278 3144 2969 
L 3244 3494 
L 3822 3494 
L 2888 -1319 
L 2309 -1319 
L 2669 525 
z
M 891 1338 
Q 891 875 1084 633 
Q 1278 391 1644 391 
Q 2188 391 2572 911 
Q 2956 1431 2956 2175 
Q 2956 2625 2757 2864 
Q 2559 3103 2188 3103 
Q 1916 3103 1684 2976 
Q 1453 2850 1281 2606 
Q 1100 2350 995 2006 
Q 891 1663 891 1338 
z
" transform="scale(0.015625)"/>
       <path id="DejaVuSans-30" d="M 2034 4250 
Q 1547 4250 1301 3770 
Q 1056 3291 1056 2328 
Q 1056 1369 1301 889 
Q 1547 409 2034 409 
Q 2525 409 2770 889 
Q 3016 1369 3016 2328 
Q 3016 3291 2770 3770 
Q 2525 4250 2034 4250 
z
M 2034 4750 
Q 2819 4750 3233 4129 
Q 3647 3509 3647 2328 
Q 3647 1150 3233 529 
Q 2819 -91 2034 -91 
Q 1250 -91 836 529 
Q 422 1150 422 2328 
Q 422 3509 836 4129 
Q 1250 4750 2034 4750 
z
" transform="scale(0.015625)"/>
      </defs>
      <use xlink:href="#DejaVuSans-Oblique-71"/>
      <use xlink:href="#DejaVuSans-30" transform="translate(63.476562 -16.40625)scale(0.7)"/>
     </g>
    </g>
   </g>
   <g id="text_3">
    <g clip-path="url(#p837236d3c7)">
     <!-- ${q}_{1}$ -->
     <g transform="translate(317.460061 163.017774)scale(0.1625 -0.1625)">
      <defs>
       <path id="DejaVuSans-31" d="M 794 531 
L 1825 531 
L 1825 4091 
L 703 3866 
L 703 4441 
L 1819 4666 
L 2450 4666 
L 2450 531 
L 3481 531 
L 3481 0 
L 794 0 
L 794 531 
z
" transform="scale(0.015625)"/>
      </defs>
      <use xlink:href="#DejaVuSans-Oblique-71"/>
      <use xlink:href="#DejaVuSans-31" transform="translate(63.476562 -16.40625)scale(0.7)"/>
     </g>
    </g>
   </g>
   <g id="text_4">
    <g clip-path="url(#p837236d3c7)">
     <!-- ${q}_{2}$ -->
     <g transform="translate(317.460061 209.371774)scale(0.1625 -0.1625)">
      <use xlink:href="#DejaVuSans-Oblique-71"/>
      <use xlink:href="#DejaVuSans-32" transform="translate(63.476562 -16.40625)scale(0.7)"/>
     </g>
    </g>
   </g>
   <g id="text_5">
    <g clip-path="url(#p837236d3c7)">
     <!-- ${q}_{3}$ -->
     <g transform="translate(317.460061 255.725773)scale(0.1625 -0.1625)">
      <use xlink:href="#DejaVuSans-Oblique-71"/>
      <use xlink:href="#DejaVuSans-33" transform="translate(63.476562 -16.40625)scale(0.7)"/>
     </g>
    </g>
   </g>
   <g id="text_6">
    <g clip-path="url(#p837236d3c7)">
     <!-- ${q}_{4}$ -->
     <g transform="translate(317.460061 302.079773)scale(0.1625 -0.1625)">
      <defs>
       <path id="DejaVuSans-34" d="M 2419 4116 
L 825 1625 
L 2419 1625 
L 2419 4116 
z
M 2253 4666 
L 3047 4666 
L 3047 1625 
L 3713 1625 
L 3713 1100 
L 3047 1100 
L 3047 0 
L 2419 0 
L 2419 1100 
L 313 1100 
L 313 1709 
L 2253 4666 
z
" transform="scale(0.015625)"/>
      </defs>
      <use xlink:href="#DejaVuSans-Oblique-71"/>
      <use xlink:href="#DejaVuSans-34" transform="translate(63.476562 -16.40625)scale(0.7)"/>
     </g>
    </g>
   </g>
   <g id="text_7">
    <g clip-path="url(#p837236d3c7)">
     <!-- ${q}_{5}$ -->
     <g transform="translate(317.460061 348.433772)scale(0.1625 -0.1625)">
      <defs>
       <path id="DejaVuSans-35" d="M 691 4666 
L 3169 4666 
L 3169 4134 
L 1269 4134 
L 1269 2991 
Q 1406 3038 1543 3061 
Q 1681 3084 1819 3084 
Q 2600 3084 3056 2656 
Q 3513 2228 3513 1497 
Q 3513 744 3044 326 
Q 2575 -91 1722 -91 
Q 1428 -91 1123 -41 
Q 819 9 494 109 
L 494 744 
Q 775 591 1075 516 
Q 1375 441 1709 441 
Q 2250 441 2565 725 
Q 2881 1009 2881 1497 
Q 2881 1984 2565 2268 
Q 2250 2553 1709 2553 
Q 1456 2553 1204 2497 
Q 953 2441 691 2322 
L 691 4666 
z
" transform="scale(0.015625)"/>
      </defs>
      <use xlink:href="#DejaVuSans-Oblique-71"/>
      <use xlink:href="#DejaVuSans-35" transform="translate(63.476562 -16.40625)scale(0.7)"/>
     </g>
    </g>
   </g>
   <g id="text_8">
    <g clip-path="url(#p837236d3c7)">
     <!-- ${q}_{6}$ -->
     <g transform="translate(317.460061 394.787771)scale(0.1625 -0.1625)">
      <defs>
       <path id="DejaVuSans-36" d="M 2113 2584 
Q 1688 2584 1439 2293 
Q 1191 2003 1191 1497 
Q 1191 994 1439 701 
Q 1688 409 2113 409 
Q 2538 409 2786 701 
Q 3034 994 3034 1497 
Q 3034 2003 2786 2293 
Q 2538 2584 2113 2584 
z
M 3366 4563 
L 3366 3988 
Q 3128 4100 2886 4159 
Q 2644 4219 2406 4219 
Q 1781 4219 1451 3797 
Q 1122 3375 1075 2522 
Q 1259 2794 1537 2939 
Q 1816 3084 2150 3084 
Q 2853 3084 3261 2657 
Q 3669 2231 3669 1497 
Q 3669 778 3244 343 
Q 2819 -91 2113 -91 
Q 1303 -91 875 529 
Q 447 1150 447 2328 
Q 447 3434 972 4092 
Q 1497 4750 2381 4750 
Q 2619 4750 2861 4703 
Q 3103 4656 3366 4563 
z
" transform="scale(0.015625)"/>
      </defs>
      <use xlink:href="#DejaVuSans-Oblique-71"/>
      <use xlink:href="#DejaVuSans-36" transform="translate(63.476562 -16.40625)scale(0.7)"/>
     </g>
    </g>
   </g>
   <g id="text_9">
    <g clip-path="url(#p837236d3c7)">
     <!-- ${q}_{7}$ -->
     <g transform="translate(317.460061 441.141771)scale(0.1625 -0.1625)">
      <defs>
       <path id="DejaVuSans-37" d="M 525 4666 
L 3525 4666 
L 3525 4397 
L 1831 0 
L 1172 0 
L 2766 4134 
L 525 4134 
L 525 4666 
z
" transform="scale(0.015625)"/>
      </defs>
      <use xlink:href="#DejaVuSans-Oblique-71"/>
      <use xlink:href="#DejaVuSans-37" transform="translate(63.476562 -16.40625)scale(0.7)"/>
     </g>
    </g>
   </g>
   <g id="text_10">
    <g clip-path="url(#p837236d3c7)">
     <!-- ${q}_{8}$ -->
     <g transform="translate(317.460061 487.49577)scale(0.1625 -0.1625)">
      <defs>
       <path id="DejaVuSans-38" d="M 2034 2216 
Q 1584 2216 1326 1975 
Q 1069 1734 1069 1313 
Q 1069 891 1326 650 
Q 1584 409 2034 409 
Q 2484 409 2743 651 
Q 3003 894 3003 1313 
Q 3003 1734 2745 1975 
Q 2488 2216 2034 2216 
z
M 1403 2484 
Q 997 2584 770 2862 
Q 544 3141 544 3541 
Q 544 4100 942 4425 
Q 1341 4750 2034 4750 
Q 2731 4750 3128 4425 
Q 3525 4100 3525 3541 
Q 3525 3141 3298 2862 
Q 3072 2584 2669 2484 
Q 3125 2378 3379 2068 
Q 3634 1759 3634 1313 
Q 3634 634 3220 271 
Q 2806 -91 2034 -91 
Q 1263 -91 848 271 
Q 434 634 434 1313 
Q 434 1759 690 2068 
Q 947 2378 1403 2484 
z
M 1172 3481 
Q 1172 3119 1398 2916 
Q 1625 2713 2034 2713 
Q 2441 2713 2670 2916 
Q 2900 3119 2900 3481 
Q 2900 3844 2670 4047 
Q 2441 4250 2034 4250 
Q 1625 4250 1398 4047 
Q 1172 3844 1172 3481 
z
" transform="scale(0.015625)"/>
      </defs>
      <use xlink:href="#DejaVuSans-Oblique-71"/>
      <use xlink:href="#DejaVuSans-38" transform="translate(63.476562 -16.40625)scale(0.7)"/>
     </g>
    </g>
   </g>
   <g id="text_11">
    <g clip-path="url(#p837236d3c7)">
     <!-- ${q}_{9}$ -->
     <g transform="translate(317.460061 533.84977)scale(0.1625 -0.1625)">
      <defs>
       <path id="DejaVuSans-39" d="M 703 97 
L 703 672 
Q 941 559 1184 500 
Q 1428 441 1663 441 
Q 2288 441 2617 861 
Q 2947 1281 2994 2138 
Q 2813 1869 2534 1725 
Q 2256 1581 1919 1581 
Q 1219 1581 811 2004 
Q 403 2428 403 3163 
Q 403 3881 828 4315 
Q 1253 4750 1959 4750 
Q 2769 4750 3195 4129 
Q 3622 3509 3622 2328 
Q 3622 1225 3098 567 
Q 2575 -91 1691 -91 
Q 1453 -91 1209 -44 
Q 966 3 703 97 
z
M 1959 2075 
Q 2384 2075 2632 2365 
Q 2881 2656 2881 3163 
Q 2881 3666 2632 3958 
Q 2384 4250 1959 4250 
Q 1534 4250 1286 3958 
Q 1038 3666 1038 3163 
Q 1038 2656 1286 2365 
Q 1534 2075 1959 2075 
z
" transform="scale(0.015625)"/>
      </defs>
      <use xlink:href="#DejaVuSans-Oblique-71"/>
      <use xlink:href="#DejaVuSans-39" transform="translate(63.476562 -16.40625)scale(0.7)"/>
     </g>
    </g>
   </g>
   <g id="text_12">
    <g clip-path="url(#p837236d3c7)">
     <!-- H -->
     <g transform="translate(364.911318 393.923982)scale(0.13 -0.13)">
      <use xlink:href="#DejaVuSans-48"/>
     </g>
    </g>
   </g>
   <g id="text_13">
    <g clip-path="url(#p837236d3c7)">
     <!-- H -->
     <g transform="translate(364.911318 532.98598)scale(0.13 -0.13)">
      <use xlink:href="#DejaVuSans-48"/>
     </g>
    </g>
   </g>
   <g id="line2d_27">
    <path d="M 416.15352 303.654816 
L 416.15352 291.602776 
" clip-path="url(#p837236d3c7)" style="fill: none; stroke: #ffffff; stroke-width: 2; stroke-linecap: square"/>
   </g>
   <g id="line2d_28">
    <path d="M 410.1275 297.628796 
L 422.17954 297.628796 
" clip-path="url(#p837236d3c7)" style="fill: none; stroke: #ffffff; stroke-width: 2; stroke-linecap: square"/>
   </g>
   <g id="line2d_29">
    <path d="M 462.507519 303.654816 
L 462.507519 291.602776 
" clip-path="url(#p837236d3c7)" style="fill: none; stroke: #ffffff; stroke-width: 2; stroke-linecap: square"/>
   </g>
   <g id="line2d_30">
    <path d="M 456.4815 297.628796 
L 468.533539 297.628796 
" clip-path="url(#p837236d3c7)" style="fill: none; stroke: #ffffff; stroke-width: 2; stroke-linecap: square"/>
   </g>
   <g id="text_14">
    <g clip-path="url(#p837236d3c7)">
     <!-- 0.0628 -->
     <g transform="translate(494.865269 308.875326)scale(0.08 -0.08)">
      <defs>
       <path id="DejaVuSans-2e" d="M 684 794 
L 1344 794 
L 1344 0 
L 684 0 
L 684 794 
z
" transform="scale(0.015625)"/>
      </defs>
      <use xlink:href="#DejaVuSans-30"/>
      <use xlink:href="#DejaVuSans-2e" x="63.623047"/>
      <use xlink:href="#DejaVuSans-30" x="95.410156"/>
      <use xlink:href="#DejaVuSans-36" x="159.033203"/>
      <use xlink:href="#DejaVuSans-32" x="222.65625"/>
      <use xlink:href="#DejaVuSans-38" x="286.279297"/>
     </g>
    </g>
   </g>
   <g id="text_15">
    <g clip-path="url(#p837236d3c7)">
     <!-- $\mathrm{R_Z}$ -->
     <g transform="translate(500.931519 296.696469)scale(0.13 -0.13)">
      <defs>
       <path id="DejaVuSans-5a" d="M 359 4666 
L 4025 4666 
L 4025 4184 
L 1075 531 
L 4097 531 
L 4097 0 
L 288 0 
L 288 481 
L 3238 4134 
L 359 4134 
L 359 4666 
z
" transform="scale(0.015625)"/>
      </defs>
      <use xlink:href="#DejaVuSans-52" transform="translate(0 0.09375)"/>
      <use xlink:href="#DejaVuSans-5a" transform="translate(70.439453 -16.3125)scale(0.7)"/>
     </g>
    </g>
   </g>
   <g id="line2d_31">
    <path d="M 555.215518 303.654816 
L 555.215518 291.602776 
" clip-path="url(#p837236d3c7)" style="fill: none; stroke: #ffffff; stroke-width: 2; stroke-linecap: square"/>
   </g>
   <g id="line2d_32">
    <path d="M 549.189498 297.628796 
L 561.241538 297.628796 
" clip-path="url(#p837236d3c7)" style="fill: none; stroke: #ffffff; stroke-width: 2; stroke-linecap: square"/>
   </g>
   <g id="text_16">
    <g clip-path="url(#p837236d3c7)">
     <!-- H -->
     <g transform="translate(596.681314 532.98598)scale(0.13 -0.13)">
      <use xlink:href="#DejaVuSans-48"/>
     </g>
    </g>
   </g>
   <g id="line2d_33">
    <path d="M 601.569518 303.654816 
L 601.569518 291.602776 
" clip-path="url(#p837236d3c7)" style="fill: none; stroke: #ffffff; stroke-width: 2; stroke-linecap: square"/>
   </g>
   <g id="line2d_34">
    <path d="M 595.543498 297.628796 
L 607.595538 297.628796 
" clip-path="url(#p837236d3c7)" style="fill: none; stroke: #ffffff; stroke-width: 2; stroke-linecap: square"/>
   </g>
   <g id="text_17">
    <g clip-path="url(#p837236d3c7)">
     <!-- S -->
     <g transform="translate(643.797033 532.98598)scale(0.13 -0.13)">
      <use xlink:href="#DejaVuSans-53"/>
     </g>
    </g>
   </g>
   <g id="line2d_35">
    <path d="M 647.923517 303.654816 
L 647.923517 291.602776 
" clip-path="url(#p837236d3c7)" style="fill: none; stroke: #ffffff; stroke-width: 2; stroke-linecap: square"/>
   </g>
   <g id="line2d_36">
    <path d="M 641.897497 297.628796 
L 653.949537 297.628796 
" clip-path="url(#p837236d3c7)" style="fill: none; stroke: #ffffff; stroke-width: 2; stroke-linecap: square"/>
   </g>
   <g id="text_18">
    <g clip-path="url(#p837236d3c7)">
     <!-- H -->
     <g transform="translate(689.389313 532.98598)scale(0.13 -0.13)">
      <use xlink:href="#DejaVuSans-48"/>
     </g>
    </g>
   </g>
   <g id="line2d_37">
    <path d="M 740.631516 489.070814 
L 740.631516 477.018774 
" clip-path="url(#p837236d3c7)" style="fill: none; stroke: #ffffff; stroke-width: 2; stroke-linecap: square"/>
   </g>
   <g id="line2d_38">
    <path d="M 734.605496 483.044794 
L 746.657536 483.044794 
" clip-path="url(#p837236d3c7)" style="fill: none; stroke: #ffffff; stroke-width: 2; stroke-linecap: square"/>
   </g>
   <g id="text_19">
    <g clip-path="url(#p837236d3c7)">
     <!-- $-$0.00492 -->
     <g transform="translate(790.322515 494.291323)scale(0.08 -0.08)">
      <defs>
       <path id="DejaVuSans-2212" d="M 678 2272 
L 4684 2272 
L 4684 1741 
L 678 1741 
L 678 2272 
z
" transform="scale(0.015625)"/>
      </defs>
      <use xlink:href="#DejaVuSans-2212" transform="translate(0 0.78125)"/>
      <use xlink:href="#DejaVuSans-30" transform="translate(83.789062 0.78125)"/>
      <use xlink:href="#DejaVuSans-2e" transform="translate(147.412109 0.78125)"/>
      <use xlink:href="#DejaVuSans-30" transform="translate(179.199219 0.78125)"/>
      <use xlink:href="#DejaVuSans-30" transform="translate(242.822266 0.78125)"/>
      <use xlink:href="#DejaVuSans-34" transform="translate(306.445312 0.78125)"/>
      <use xlink:href="#DejaVuSans-39" transform="translate(370.068359 0.78125)"/>
      <use xlink:href="#DejaVuSans-32" transform="translate(431.941406 0.78125)"/>
     </g>
    </g>
   </g>
   <g id="text_20">
    <g clip-path="url(#p837236d3c7)">
     <!-- $\mathrm{R_Z}$ -->
     <g transform="translate(802.232515 482.112466)scale(0.13 -0.13)">
      <use xlink:href="#DejaVuSans-52" transform="translate(0 0.09375)"/>
      <use xlink:href="#DejaVuSans-5a" transform="translate(70.439453 -16.3125)scale(0.7)"/>
     </g>
    </g>
   </g>
   <g id="line2d_39">
    <path d="M 879.693514 489.070814 
L 879.693514 477.018774 
" clip-path="url(#p837236d3c7)" style="fill: none; stroke: #ffffff; stroke-width: 2; stroke-linecap: square"/>
   </g>
   <g id="line2d_40">
    <path d="M 873.667494 483.044794 
L 885.719534 483.044794 
" clip-path="url(#p837236d3c7)" style="fill: none; stroke: #ffffff; stroke-width: 2; stroke-linecap: square"/>
   </g>
   <g id="text_21">
    <g clip-path="url(#p837236d3c7)">
     <!-- H -->
     <g transform="translate(921.15931 532.98598)scale(0.13 -0.13)">
      <use xlink:href="#DejaVuSans-48"/>
     </g>
    </g>
   </g>
   <g id="text_22">
    <g clip-path="url(#p837236d3c7)">
     <!-- H -->
     <g transform="translate(921.15931 486.631981)scale(0.13 -0.13)">
      <use xlink:href="#DejaVuSans-48"/>
     </g>
    </g>
   </g>
   <g id="text_23">
    <g clip-path="url(#p837236d3c7)">
     <!-- $\mathrm{S^\dagger}$ -->
     <g transform="translate(963.951513 532.98598)scale(0.13 -0.13)">
      <defs>
       <path id="DejaVuSans-2020" d="M 1325 4666 
L 1875 4666 
L 1875 3353 
L 3022 3353 
L 3022 2875 
L 1875 2875 
L 1875 -616 
L 1325 -616 
L 1325 2875 
L 178 2875 
L 178 3353 
L 1325 3353 
L 1325 4666 
z
" transform="scale(0.015625)"/>
      </defs>
      <use xlink:href="#DejaVuSans-53" transform="translate(0 0.684375)"/>
      <use xlink:href="#DejaVuSans-2020" transform="translate(78.071289 38.965625)scale(0.7)"/>
     </g>
    </g>
   </g>
   <g id="line2d_41">
    <path d="M 1018.755512 535.424813 
L 1018.755512 523.372773 
" clip-path="url(#p837236d3c7)" style="fill: none; stroke: #ffffff; stroke-width: 2; stroke-linecap: square"/>
   </g>
   <g id="line2d_42">
    <path d="M 1012.729492 529.398793 
L 1024.781532 529.398793 
" clip-path="url(#p837236d3c7)" style="fill: none; stroke: #ffffff; stroke-width: 2; stroke-linecap: square"/>
   </g>
   <g id="text_24">
    <g clip-path="url(#p837236d3c7)">
     <!-- $-$0.00492 -->
     <g transform="translate(1068.446511 540.645323)scale(0.08 -0.08)">
      <use xlink:href="#DejaVuSans-2212" transform="translate(0 0.78125)"/>
      <use xlink:href="#DejaVuSans-30" transform="translate(83.789062 0.78125)"/>
      <use xlink:href="#DejaVuSans-2e" transform="translate(147.412109 0.78125)"/>
      <use xlink:href="#DejaVuSans-30" transform="translate(179.199219 0.78125)"/>
      <use xlink:href="#DejaVuSans-30" transform="translate(242.822266 0.78125)"/>
      <use xlink:href="#DejaVuSans-34" transform="translate(306.445312 0.78125)"/>
      <use xlink:href="#DejaVuSans-39" transform="translate(370.068359 0.78125)"/>
      <use xlink:href="#DejaVuSans-32" transform="translate(431.941406 0.78125)"/>
     </g>
    </g>
   </g>
   <g id="text_25">
    <g clip-path="url(#p837236d3c7)">
     <!-- $\mathrm{R_Z}$ -->
     <g transform="translate(1080.356511 528.466466)scale(0.13 -0.13)">
      <use xlink:href="#DejaVuSans-52" transform="translate(0 0.09375)"/>
      <use xlink:href="#DejaVuSans-5a" transform="translate(70.439453 -16.3125)scale(0.7)"/>
     </g>
    </g>
   </g>
   <g id="line2d_43">
    <path d="M 1157.81751 535.424813 
L 1157.81751 523.372773 
" clip-path="url(#p837236d3c7)" style="fill: none; stroke: #ffffff; stroke-width: 2; stroke-linecap: square"/>
   </g>
   <g id="line2d_44">
    <path d="M 1151.79149 529.398793 
L 1163.84353 529.398793 
" clip-path="url(#p837236d3c7)" style="fill: none; stroke: #ffffff; stroke-width: 2; stroke-linecap: square"/>
   </g>
   <g id="text_26">
    <g clip-path="url(#p837236d3c7)">
     <!-- H -->
     <g transform="translate(1199.283306 486.631981)scale(0.13 -0.13)">
      <use xlink:href="#DejaVuSans-48"/>
     </g>
    </g>
   </g>
   <g id="text_27">
    <g clip-path="url(#p837236d3c7)">
     <!-- H -->
     <g transform="translate(1199.283306 532.98598)scale(0.13 -0.13)">
      <use xlink:href="#DejaVuSans-48"/>
     </g>
    </g>
   </g>
   <g id="line2d_45">
    <path d="M 1250.525509 303.654816 
L 1250.525509 291.602776 
" clip-path="url(#p837236d3c7)" style="fill: none; stroke: #ffffff; stroke-width: 2; stroke-linecap: square"/>
   </g>
   <g id="line2d_46">
    <path d="M 1244.499489 297.628796 
L 1256.551529 297.628796 
" clip-path="url(#p837236d3c7)" style="fill: none; stroke: #ffffff; stroke-width: 2; stroke-linecap: square"/>
   </g>
   <g id="text_28">
    <g clip-path="url(#p837236d3c7)">
     <!-- 0.0628 -->
     <g transform="translate(1282.883258 308.875326)scale(0.08 -0.08)">
      <use xlink:href="#DejaVuSans-30"/>
      <use xlink:href="#DejaVuSans-2e" x="63.623047"/>
      <use xlink:href="#DejaVuSans-30" x="95.410156"/>
      <use xlink:href="#DejaVuSans-36" x="159.033203"/>
      <use xlink:href="#DejaVuSans-32" x="222.65625"/>
      <use xlink:href="#DejaVuSans-38" x="286.279297"/>
     </g>
    </g>
   </g>
   <g id="text_29">
    <g clip-path="url(#p837236d3c7)">
     <!-- $\mathrm{R_Z}$ -->
     <g transform="translate(1288.949508 296.696469)scale(0.13 -0.13)">
      <use xlink:href="#DejaVuSans-52" transform="translate(0 0.09375)"/>
      <use xlink:href="#DejaVuSans-5a" transform="translate(70.439453 -16.3125)scale(0.7)"/>
     </g>
    </g>
   </g>
   <g id="line2d_47">
    <path d="M 1343.233508 303.654816 
L 1343.233508 291.602776 
" clip-path="url(#p837236d3c7)" style="fill: none; stroke: #ffffff; stroke-width: 2; stroke-linecap: square"/>
   </g>
   <g id="line2d_48">
    <path d="M 1337.207488 297.628796 
L 1349.259528 297.628796 
" clip-path="url(#p837236d3c7)" style="fill: none; stroke: #ffffff; stroke-width: 2; stroke-linecap: square"/>
   </g>
   <g id="text_30">
    <g clip-path="url(#p837236d3c7)">
     <!-- H -->
     <g transform="translate(1384.699304 532.98598)scale(0.13 -0.13)">
      <use xlink:href="#DejaVuSans-48"/>
     </g>
    </g>
   </g>
   <g id="line2d_49">
    <path d="M 1389.587507 303.654816 
L 1389.587507 291.602776 
" clip-path="url(#p837236d3c7)" style="fill: none; stroke: #ffffff; stroke-width: 2; stroke-linecap: square"/>
   </g>
   <g id="line2d_50">
    <path d="M 1383.561487 297.628796 
L 1395.613527 297.628796 
" clip-path="url(#p837236d3c7)" style="fill: none; stroke: #ffffff; stroke-width: 2; stroke-linecap: square"/>
   </g>
   <g id="text_31">
    <g clip-path="url(#p837236d3c7)">
     <!-- H -->
     <g transform="translate(1431.053303 393.923982)scale(0.13 -0.13)">
      <use xlink:href="#DejaVuSans-48"/>
     </g>
    </g>
   </g>
   <g id="text_32">
    <g clip-path="url(#p837236d3c7)">
     <!-- S -->
     <g transform="translate(1431.815022 532.98598)scale(0.13 -0.13)">
      <use xlink:href="#DejaVuSans-53"/>
     </g>
    </g>
   </g>
   <g id="text_33">
    <g clip-path="url(#p837236d3c7)">
     <!-- H -->
     <g transform="translate(1477.407303 532.98598)scale(0.13 -0.13)">
      <use xlink:href="#DejaVuSans-48"/>
     </g>
    </g>
   </g>
   <g id="line2d_51">
    <path d="M 1528.649505 489.070814 
L 1528.649505 477.018774 
" clip-path="url(#p837236d3c7)" style="fill: none; stroke: #ffffff; stroke-width: 2; stroke-linecap: square"/>
   </g>
   <g id="line2d_52">
    <path d="M 1522.623485 483.044794 
L 1534.675525 483.044794 
" clip-path="url(#p837236d3c7)" style="fill: none; stroke: #ffffff; stroke-width: 2; stroke-linecap: square"/>
   </g>
   <g id="text_34">
    <g clip-path="url(#p837236d3c7)">
     <!-- $-$0.00492 -->
     <g transform="translate(1578.340504 494.291323)scale(0.08 -0.08)">
      <use xlink:href="#DejaVuSans-2212" transform="translate(0 0.78125)"/>
      <use xlink:href="#DejaVuSans-30" transform="translate(83.789062 0.78125)"/>
      <use xlink:href="#DejaVuSans-2e" transform="translate(147.412109 0.78125)"/>
      <use xlink:href="#DejaVuSans-30" transform="translate(179.199219 0.78125)"/>
      <use xlink:href="#DejaVuSans-30" transform="translate(242.822266 0.78125)"/>
      <use xlink:href="#DejaVuSans-34" transform="translate(306.445312 0.78125)"/>
      <use xlink:href="#DejaVuSans-39" transform="translate(370.068359 0.78125)"/>
      <use xlink:href="#DejaVuSans-32" transform="translate(431.941406 0.78125)"/>
     </g>
    </g>
   </g>
   <g id="text_35">
    <g clip-path="url(#p837236d3c7)">
     <!-- $\mathrm{R_Z}$ -->
     <g transform="translate(1590.250504 482.112466)scale(0.13 -0.13)">
      <use xlink:href="#DejaVuSans-52" transform="translate(0 0.09375)"/>
      <use xlink:href="#DejaVuSans-5a" transform="translate(70.439453 -16.3125)scale(0.7)"/>
     </g>
    </g>
   </g>
   <g id="line2d_53">
    <path d="M 1667.711503 489.070814 
L 1667.711503 477.018774 
" clip-path="url(#p837236d3c7)" style="fill: none; stroke: #ffffff; stroke-width: 2; stroke-linecap: square"/>
   </g>
   <g id="line2d_54">
    <path d="M 1661.685484 483.044794 
L 1673.737523 483.044794 
" clip-path="url(#p837236d3c7)" style="fill: none; stroke: #ffffff; stroke-width: 2; stroke-linecap: square"/>
   </g>
   <g id="text_36">
    <g clip-path="url(#p837236d3c7)">
     <!-- H -->
     <g transform="translate(1709.1773 532.98598)scale(0.13 -0.13)">
      <use xlink:href="#DejaVuSans-48"/>
     </g>
    </g>
   </g>
   <g id="text_37">
    <g clip-path="url(#p837236d3c7)">
     <!-- H -->
     <g transform="translate(1709.1773 486.631981)scale(0.13 -0.13)">
      <use xlink:href="#DejaVuSans-48"/>
     </g>
    </g>
   </g>
   <g id="text_38">
    <g clip-path="url(#p837236d3c7)">
     <!-- $\mathrm{S^\dagger}$ -->
     <g transform="translate(1751.969502 532.98598)scale(0.13 -0.13)">
      <use xlink:href="#DejaVuSans-53" transform="translate(0 0.684375)"/>
      <use xlink:href="#DejaVuSans-2020" transform="translate(78.071289 38.965625)scale(0.7)"/>
     </g>
    </g>
   </g>
   <g id="line2d_55">
    <path d="M 1806.773502 535.424813 
L 1806.773502 523.372773 
" clip-path="url(#p837236d3c7)" style="fill: none; stroke: #ffffff; stroke-width: 2; stroke-linecap: square"/>
   </g>
   <g id="line2d_56">
    <path d="M 1800.747482 529.398793 
L 1812.799522 529.398793 
" clip-path="url(#p837236d3c7)" style="fill: none; stroke: #ffffff; stroke-width: 2; stroke-linecap: square"/>
   </g>
   <g id="text_39">
    <g clip-path="url(#p837236d3c7)">
     <!-- $-$0.00492 -->
     <g transform="translate(1856.464501 540.645323)scale(0.08 -0.08)">
      <use xlink:href="#DejaVuSans-2212" transform="translate(0 0.78125)"/>
      <use xlink:href="#DejaVuSans-30" transform="translate(83.789062 0.78125)"/>
      <use xlink:href="#DejaVuSans-2e" transform="translate(147.412109 0.78125)"/>
      <use xlink:href="#DejaVuSans-30" transform="translate(179.199219 0.78125)"/>
      <use xlink:href="#DejaVuSans-30" transform="translate(242.822266 0.78125)"/>
      <use xlink:href="#DejaVuSans-34" transform="translate(306.445312 0.78125)"/>
      <use xlink:href="#DejaVuSans-39" transform="translate(370.068359 0.78125)"/>
      <use xlink:href="#DejaVuSans-32" transform="translate(431.941406 0.78125)"/>
     </g>
    </g>
   </g>
   <g id="text_40">
    <g clip-path="url(#p837236d3c7)">
     <!-- $\mathrm{R_Z}$ -->
     <g transform="translate(1868.374501 528.466466)scale(0.13 -0.13)">
      <use xlink:href="#DejaVuSans-52" transform="translate(0 0.09375)"/>
      <use xlink:href="#DejaVuSans-5a" transform="translate(70.439453 -16.3125)scale(0.7)"/>
     </g>
    </g>
   </g>
   <g id="line2d_57">
    <path d="M 1945.8355 535.424813 
L 1945.8355 523.372773 
" clip-path="url(#p837236d3c7)" style="fill: none; stroke: #ffffff; stroke-width: 2; stroke-linecap: square"/>
   </g>
   <g id="line2d_58">
    <path d="M 1939.80948 529.398793 
L 1951.86152 529.398793 
" clip-path="url(#p837236d3c7)" style="fill: none; stroke: #ffffff; stroke-width: 2; stroke-linecap: square"/>
   </g>
   <g id="text_41">
    <g clip-path="url(#p837236d3c7)">
     <!-- H -->
     <g transform="translate(1987.301296 486.631981)scale(0.13 -0.13)">
      <use xlink:href="#DejaVuSans-48"/>
     </g>
    </g>
   </g>
  </g>
 </g>
 <defs>
  <clipPath id="p837236d3c7">
   <rect x="287.359165" y="75.129599" width="1735.423974" height="482.081594"/>
  </clipPath>
 </defs>
</svg>
