<?xml version="1.0" encoding="utf-8" standalone="no"?>
<!DOCTYPE svg PUBLIC "-//W3C//DTD SVG 1.1//EN"
  "http://www.w3.org/Graphics/SVG/1.1/DTD/svg11.dtd">
<svg xmlns:xlink="http://www.w3.org/1999/xlink" width="929.397387pt" height="626.079992pt" viewBox="0 0 929.397387 626.079992" xmlns="http://www.w3.org/2000/svg" version="1.1">
 <metadata>
  <rdf:RDF xmlns:dc="http://purl.org/dc/elements/1.1/" xmlns:cc="http://creativecommons.org/ns#" xmlns:rdf="http://www.w3.org/1999/02/22-rdf-syntax-ns#">
   <cc:Work>
    <dc:type rdf:resource="http://purl.org/dc/dcmitype/StillImage"/>
    <dc:date>2022-06-05T11:40:16.004667</dc:date>
    <dc:format>image/svg+xml</dc:format>
    <dc:creator>
     <cc:Agent>
      <dc:title>Matplotlib v3.5.1, https://matplotlib.org/</dc:title>
     </cc:Agent>
    </dc:creator>
   </cc:Work>
  </rdf:RDF>
 </metadata>
 <defs>
  <style type="text/css">*{stroke-linejoin: round; stroke-linecap: butt}</style>
 </defs>
 <g id="figure_1">
  <g id="patch_1">
   <path d="M 0 626.079992 
L 929.397387 626.079992 
L 929.397387 0 
L 0 0 
z
" style="fill: #ffffff"/>
  </g>
  <g id="axes_1">
   <g id="line2d_1">
    <path d="M 98.037663 72.141538 
L 895.772267 72.141538 
" clip-path="url(#pd12f378ff8)" style="fill: none; stroke: #000000; stroke-width: 2; stroke-linecap: square"/>
   </g>
   <g id="line2d_2">
    <path d="M 98.037663 128.71846 
L 895.772267 128.71846 
" clip-path="url(#pd12f378ff8)" style="fill: none; stroke: #000000; stroke-width: 2; stroke-linecap: square"/>
   </g>
   <g id="line2d_3">
    <path d="M 98.037663 185.295382 
L 895.772267 185.295382 
" clip-path="url(#pd12f378ff8)" style="fill: none; stroke: #000000; stroke-width: 2; stroke-linecap: square"/>
   </g>
   <g id="line2d_4">
    <path d="M 98.037663 241.872305 
L 895.772267 241.872305 
" clip-path="url(#pd12f378ff8)" style="fill: none; stroke: #000000; stroke-width: 2; stroke-linecap: square"/>
   </g>
   <g id="line2d_5">
    <path d="M 98.037663 298.449227 
L 895.772267 298.449227 
" clip-path="url(#pd12f378ff8)" style="fill: none; stroke: #000000; stroke-width: 2; stroke-linecap: square"/>
   </g>
   <g id="line2d_6">
    <path d="M 98.037663 355.026149 
L 895.772267 355.026149 
" clip-path="url(#pd12f378ff8)" style="fill: none; stroke: #000000; stroke-width: 2; stroke-linecap: square"/>
   </g>
   <g id="line2d_7">
    <path d="M 98.037663 411.603071 
L 895.772267 411.603071 
" clip-path="url(#pd12f378ff8)" style="fill: none; stroke: #000000; stroke-width: 2; stroke-linecap: square"/>
   </g>
   <g id="line2d_8">
    <path d="M 98.037663 468.179994 
L 895.772267 468.179994 
" clip-path="url(#pd12f378ff8)" style="fill: none; stroke: #000000; stroke-width: 2; stroke-linecap: square"/>
   </g>
   <g id="line2d_9">
    <path d="M 98.037663 524.756916 
L 895.772267 524.756916 
" clip-path="url(#pd12f378ff8)" style="fill: none; stroke: #000000; stroke-width: 2; stroke-linecap: square"/>
   </g>
   <g id="line2d_10">
    <path d="M 98.037663 581.333838 
L 895.772267 581.333838 
" clip-path="url(#pd12f378ff8)" style="fill: none; stroke: #000000; stroke-width: 2; stroke-linecap: square"/>
   </g>
   <g id="line2d_11">
    <path d="M 128.589201 298.449227 
L 128.589201 241.872305 
" clip-path="url(#pd12f378ff8)" style="fill: none; stroke: #000000; stroke-width: 2; stroke-linecap: square"/>
   </g>
   <g id="line2d_12">
    <path d="M 185.166123 581.333838 
L 185.166123 524.756916 
" clip-path="url(#pd12f378ff8)" style="fill: none; stroke: #000000; stroke-width: 2; stroke-linecap: square"/>
   </g>
   <g id="line2d_13">
    <path d="M 185.166123 468.179994 
L 185.166123 411.603071 
" clip-path="url(#pd12f378ff8)" style="fill: none; stroke: #000000; stroke-width: 2; stroke-linecap: square"/>
   </g>
   <g id="line2d_14">
    <path d="M 185.166123 185.295382 
L 185.166123 72.141538 
" clip-path="url(#pd12f378ff8)" style="fill: none; stroke: #000000; stroke-width: 2; stroke-linecap: square"/>
   </g>
   <g id="line2d_15">
    <path d="M 241.743045 524.756916 
L 241.743045 468.179994 
" clip-path="url(#pd12f378ff8)" style="fill: none; stroke: #000000; stroke-width: 2; stroke-linecap: square"/>
   </g>
   <g id="line2d_16">
    <path d="M 241.743045 241.872305 
L 241.743045 185.295382 
" clip-path="url(#pd12f378ff8)" style="fill: none; stroke: #000000; stroke-width: 2; stroke-linecap: square"/>
   </g>
   <g id="line2d_17">
    <path d="M 354.89689 581.333838 
L 354.89689 524.756916 
" clip-path="url(#pd12f378ff8)" style="fill: none; stroke: #000000; stroke-width: 2; stroke-linecap: square"/>
   </g>
   <g id="line2d_18">
    <path d="M 354.89689 298.449227 
L 354.89689 241.872305 
" clip-path="url(#pd12f378ff8)" style="fill: none; stroke: #000000; stroke-width: 2; stroke-linecap: square"/>
   </g>
   <g id="line2d_19">
    <path d="M 411.473812 524.756916 
L 411.473812 468.179994 
" clip-path="url(#pd12f378ff8)" style="fill: none; stroke: #000000; stroke-width: 2; stroke-linecap: square"/>
   </g>
   <g id="line2d_20">
    <path d="M 411.473812 241.872305 
L 411.473812 185.295382 
" clip-path="url(#pd12f378ff8)" style="fill: none; stroke: #000000; stroke-width: 2; stroke-linecap: square"/>
   </g>
   <g id="line2d_21">
    <path d="M 468.050735 468.179994 
L 468.050735 411.603071 
" clip-path="url(#pd12f378ff8)" style="fill: none; stroke: #000000; stroke-width: 2; stroke-linecap: square"/>
   </g>
   <g id="line2d_22">
    <path d="M 468.050735 185.295382 
L 468.050735 72.141538 
" clip-path="url(#pd12f378ff8)" style="fill: none; stroke: #000000; stroke-width: 2; stroke-linecap: square"/>
   </g>
   <g id="line2d_23">
    <path d="M 468.050735 581.333838 
L 468.050735 524.756916 
" clip-path="url(#pd12f378ff8)" style="fill: none; stroke: #000000; stroke-width: 2; stroke-linecap: square"/>
   </g>
   <g id="line2d_24">
    <path d="M 524.627657 241.872305 
L 524.627657 185.295382 
" clip-path="url(#pd12f378ff8)" style="fill: none; stroke: #000000; stroke-width: 2; stroke-linecap: square"/>
   </g>
   <g id="line2d_25">
    <path d="M 524.627657 128.71846 
L 524.627657 72.141538 
" clip-path="url(#pd12f378ff8)" style="fill: none; stroke: #000000; stroke-width: 2; stroke-linecap: square"/>
   </g>
   <g id="line2d_26">
    <path d="M 581.204579 524.756916 
L 581.204579 411.603071 
" clip-path="url(#pd12f378ff8)" style="fill: none; stroke: #000000; stroke-width: 2; stroke-linecap: square"/>
   </g>
   <g id="line2d_27">
    <path d="M 581.204579 185.295382 
L 581.204579 128.71846 
" clip-path="url(#pd12f378ff8)" style="fill: none; stroke: #000000; stroke-width: 2; stroke-linecap: square"/>
   </g>
   <g id="line2d_28">
    <path d="M 694.358424 581.333838 
L 694.358424 524.756916 
" clip-path="url(#pd12f378ff8)" style="fill: none; stroke: #000000; stroke-width: 2; stroke-linecap: square"/>
   </g>
   <g id="line2d_29">
    <path d="M 694.358424 241.872305 
L 694.358424 185.295382 
" clip-path="url(#pd12f378ff8)" style="fill: none; stroke: #000000; stroke-width: 2; stroke-linecap: square"/>
   </g>
   <g id="line2d_30">
    <path d="M 750.935346 524.756916 
L 750.935346 411.603071 
" clip-path="url(#pd12f378ff8)" style="fill: none; stroke: #000000; stroke-width: 2; stroke-linecap: square"/>
   </g>
   <g id="line2d_31">
    <path d="M 750.935346 185.295382 
L 750.935346 128.71846 
" clip-path="url(#pd12f378ff8)" style="fill: none; stroke: #000000; stroke-width: 2; stroke-linecap: square"/>
   </g>
   <g id="line2d_32">
    <path d="M 807.512268 128.71846 
L 807.512268 72.141538 
" clip-path="url(#pd12f378ff8)" style="fill: none; stroke: #000000; stroke-width: 2; stroke-linecap: square"/>
   </g>
   <g id="text_1">
    <!-- TERMS: 4, DEPTH:14 -->
    <g transform="translate(402.666193 20.88)scale(0.12 -0.12)">
     <defs>
      <path id="DejaVuSans-54" d="M -19 4666 
L 3928 4666 
L 3928 4134 
L 2272 4134 
L 2272 0 
L 1638 0 
L 1638 4134 
L -19 4134 
L -19 4666 
z
" transform="scale(0.015625)"/>
      <path id="DejaVuSans-45" d="M 628 4666 
L 3578 4666 
L 3578 4134 
L 1259 4134 
L 1259 2753 
L 3481 2753 
L 3481 2222 
L 1259 2222 
L 1259 531 
L 3634 531 
L 3634 0 
L 628 0 
L 628 4666 
z
" transform="scale(0.015625)"/>
      <path id="DejaVuSans-52" d="M 2841 2188 
Q 3044 2119 3236 1894 
Q 3428 1669 3622 1275 
L 4263 0 
L 3584 0 
L 2988 1197 
Q 2756 1666 2539 1819 
Q 2322 1972 1947 1972 
L 1259 1972 
L 1259 0 
L 628 0 
L 628 4666 
L 2053 4666 
Q 2853 4666 3247 4331 
Q 3641 3997 3641 3322 
Q 3641 2881 3436 2590 
Q 3231 2300 2841 2188 
z
M 1259 4147 
L 1259 2491 
L 2053 2491 
Q 2509 2491 2742 2702 
Q 2975 2913 2975 3322 
Q 2975 3731 2742 3939 
Q 2509 4147 2053 4147 
L 1259 4147 
z
" transform="scale(0.015625)"/>
      <path id="DejaVuSans-4d" d="M 628 4666 
L 1569 4666 
L 2759 1491 
L 3956 4666 
L 4897 4666 
L 4897 0 
L 4281 0 
L 4281 4097 
L 3078 897 
L 2444 897 
L 1241 4097 
L 1241 0 
L 628 0 
L 628 4666 
z
" transform="scale(0.015625)"/>
      <path id="DejaVuSans-53" d="M 3425 4513 
L 3425 3897 
Q 3066 4069 2747 4153 
Q 2428 4238 2131 4238 
Q 1616 4238 1336 4038 
Q 1056 3838 1056 3469 
Q 1056 3159 1242 3001 
Q 1428 2844 1947 2747 
L 2328 2669 
Q 3034 2534 3370 2195 
Q 3706 1856 3706 1288 
Q 3706 609 3251 259 
Q 2797 -91 1919 -91 
Q 1588 -91 1214 -16 
Q 841 59 441 206 
L 441 856 
Q 825 641 1194 531 
Q 1563 422 1919 422 
Q 2459 422 2753 634 
Q 3047 847 3047 1241 
Q 3047 1584 2836 1778 
Q 2625 1972 2144 2069 
L 1759 2144 
Q 1053 2284 737 2584 
Q 422 2884 422 3419 
Q 422 4038 858 4394 
Q 1294 4750 2059 4750 
Q 2388 4750 2728 4690 
Q 3069 4631 3425 4513 
z
" transform="scale(0.015625)"/>
      <path id="DejaVuSans-3a" d="M 750 794 
L 1409 794 
L 1409 0 
L 750 0 
L 750 794 
z
M 750 3309 
L 1409 3309 
L 1409 2516 
L 750 2516 
L 750 3309 
z
" transform="scale(0.015625)"/>
      <path id="DejaVuSans-20" transform="scale(0.015625)"/>
      <path id="DejaVuSans-34" d="M 2419 4116 
L 825 1625 
L 2419 1625 
L 2419 4116 
z
M 2253 4666 
L 3047 4666 
L 3047 1625 
L 3713 1625 
L 3713 1100 
L 3047 1100 
L 3047 0 
L 2419 0 
L 2419 1100 
L 313 1100 
L 313 1709 
L 2253 4666 
z
" transform="scale(0.015625)"/>
      <path id="DejaVuSans-2c" d="M 750 794 
L 1409 794 
L 1409 256 
L 897 -744 
L 494 -744 
L 750 256 
L 750 794 
z
" transform="scale(0.015625)"/>
      <path id="DejaVuSans-44" d="M 1259 4147 
L 1259 519 
L 2022 519 
Q 2988 519 3436 956 
Q 3884 1394 3884 2338 
Q 3884 3275 3436 3711 
Q 2988 4147 2022 4147 
L 1259 4147 
z
M 628 4666 
L 1925 4666 
Q 3281 4666 3915 4102 
Q 4550 3538 4550 2338 
Q 4550 1131 3912 565 
Q 3275 0 1925 0 
L 628 0 
L 628 4666 
z
" transform="scale(0.015625)"/>
      <path id="DejaVuSans-50" d="M 1259 4147 
L 1259 2394 
L 2053 2394 
Q 2494 2394 2734 2622 
Q 2975 2850 2975 3272 
Q 2975 3691 2734 3919 
Q 2494 4147 2053 4147 
L 1259 4147 
z
M 628 4666 
L 2053 4666 
Q 2838 4666 3239 4311 
Q 3641 3956 3641 3272 
Q 3641 2581 3239 2228 
Q 2838 1875 2053 1875 
L 1259 1875 
L 1259 0 
L 628 0 
L 628 4666 
z
" transform="scale(0.015625)"/>
      <path id="DejaVuSans-48" d="M 628 4666 
L 1259 4666 
L 1259 2753 
L 3553 2753 
L 3553 4666 
L 4184 4666 
L 4184 0 
L 3553 0 
L 3553 2222 
L 1259 2222 
L 1259 0 
L 628 0 
L 628 4666 
z
" transform="scale(0.015625)"/>
      <path id="DejaVuSans-31" d="M 794 531 
L 1825 531 
L 1825 4091 
L 703 3866 
L 703 4441 
L 1819 4666 
L 2450 4666 
L 2450 531 
L 3481 531 
L 3481 0 
L 794 0 
L 794 531 
z
" transform="scale(0.015625)"/>
     </defs>
     <use xlink:href="#DejaVuSans-54"/>
     <use xlink:href="#DejaVuSans-45" x="61.083984"/>
     <use xlink:href="#DejaVuSans-52" x="124.267578"/>
     <use xlink:href="#DejaVuSans-4d" x="193.75"/>
     <use xlink:href="#DejaVuSans-53" x="280.029297"/>
     <use xlink:href="#DejaVuSans-3a" x="343.505859"/>
     <use xlink:href="#DejaVuSans-20" x="377.197266"/>
     <use xlink:href="#DejaVuSans-34" x="408.984375"/>
     <use xlink:href="#DejaVuSans-2c" x="472.607422"/>
     <use xlink:href="#DejaVuSans-20" x="504.394531"/>
     <use xlink:href="#DejaVuSans-44" x="536.181641"/>
     <use xlink:href="#DejaVuSans-45" x="613.183594"/>
     <use xlink:href="#DejaVuSans-50" x="676.367188"/>
     <use xlink:href="#DejaVuSans-54" x="736.669922"/>
     <use xlink:href="#DejaVuSans-48" x="797.753906"/>
     <use xlink:href="#DejaVuSans-3a" x="872.949219"/>
     <use xlink:href="#DejaVuSans-31" x="906.640625"/>
     <use xlink:href="#DejaVuSans-34" x="970.263672"/>
    </g>
   </g>
   <g id="patch_2">
    <path d="M 110.201701 599.721338 
L 146.976701 599.721338 
L 146.976701 562.946339 
L 110.201701 562.946339 
z
" clip-path="url(#pd12f378ff8)" style="fill: #ffffff; stroke: #000000; stroke-width: 1.5; stroke-linejoin: miter"/>
   </g>
   <g id="patch_3">
    <path d="M 110.201701 486.567493 
L 146.976701 486.567493 
L 146.976701 449.792494 
L 110.201701 449.792494 
z
" clip-path="url(#pd12f378ff8)" style="fill: #ffffff; stroke: #000000; stroke-width: 1.5; stroke-linejoin: miter"/>
   </g>
   <g id="patch_4">
    <path d="M 110.201701 429.990571 
L 146.976701 429.990571 
L 146.976701 393.215572 
L 110.201701 393.215572 
z
" clip-path="url(#pd12f378ff8)" style="fill: #ffffff; stroke: #000000; stroke-width: 1.5; stroke-linejoin: miter"/>
   </g>
   <g id="patch_5">
    <path d="M 128.589201 303.965477 
C 130.052127 303.965477 131.455333 303.38425 132.489779 302.349805 
C 133.524224 301.315359 134.105451 299.912154 134.105451 298.449227 
C 134.105451 296.9863 133.524224 295.583095 132.489779 294.548649 
C 131.455333 293.514204 130.052127 292.932977 128.589201 292.932977 
C 127.126274 292.932977 125.723068 293.514204 124.688623 294.548649 
C 123.654178 295.583095 123.072951 296.9863 123.072951 298.449227 
C 123.072951 299.912154 123.654178 301.315359 124.688623 302.349805 
C 125.723068 303.38425 127.126274 303.965477 128.589201 303.965477 
z
" clip-path="url(#pd12f378ff8)" style="stroke: #000000; stroke-width: 1.5; stroke-linejoin: miter"/>
   </g>
   <g id="patch_6">
    <path d="M 128.589201 254.743554 
C 132.002696 254.743554 135.276843 253.387358 137.690549 250.973653 
C 140.104255 248.559947 141.460451 245.2858 141.460451 241.872305 
C 141.460451 238.458809 140.104255 235.184662 137.690549 232.770957 
C 135.276843 230.357251 132.002696 229.001055 128.589201 229.001055 
C 125.175706 229.001055 121.901559 230.357251 119.487853 232.770957 
C 117.074147 235.184662 115.717951 238.458809 115.717951 241.872305 
C 115.717951 245.2858 117.074147 248.559947 119.487853 250.973653 
C 121.901559 253.387358 125.175706 254.743554 128.589201 254.743554 
z
" clip-path="url(#pd12f378ff8)" style="stroke: #000000; stroke-width: 2; stroke-linejoin: miter"/>
   </g>
   <g id="patch_7">
    <path d="M 110.201701 203.682882 
L 146.976701 203.682882 
L 146.976701 166.907883 
L 110.201701 166.907883 
z
" clip-path="url(#pd12f378ff8)" style="fill: #ffffff; stroke: #000000; stroke-width: 1.5; stroke-linejoin: miter"/>
   </g>
   <g id="patch_8">
    <path d="M 110.201701 90.529038 
L 146.976701 90.529038 
L 146.976701 53.754038 
L 110.201701 53.754038 
z
" clip-path="url(#pd12f378ff8)" style="fill: #ffffff; stroke: #000000; stroke-width: 1.5; stroke-linejoin: miter"/>
   </g>
   <g id="patch_9">
    <path d="M 110.201701 147.10596 
L 146.976701 147.10596 
L 146.976701 110.33096 
L 110.201701 110.33096 
z
" clip-path="url(#pd12f378ff8)" style="fill: #ffffff; stroke: #000000; stroke-width: 1.5; stroke-linejoin: miter"/>
   </g>
   <g id="patch_10">
    <path d="M 185.166123 586.850088 
C 186.62905 586.850088 188.032256 586.268861 189.066701 585.234416 
C 190.101146 584.199971 190.682373 582.796765 190.682373 581.333838 
C 190.682373 579.870912 190.101146 578.467706 189.066701 577.433261 
C 188.032256 576.398815 186.62905 575.817588 185.166123 575.817588 
C 183.703197 575.817588 182.299991 576.398815 181.265545 577.433261 
C 180.2311 578.467706 179.649873 579.870912 179.649873 581.333838 
C 179.649873 582.796765 180.2311 584.199971 181.265545 585.234416 
C 182.299991 586.268861 183.703197 586.850088 185.166123 586.850088 
z
" clip-path="url(#pd12f378ff8)" style="stroke: #000000; stroke-width: 1.5; stroke-linejoin: miter"/>
   </g>
   <g id="patch_11">
    <path d="M 185.166123 537.628166 
C 188.579618 537.628166 191.853765 536.27197 194.267471 533.858264 
C 196.681177 531.444558 198.037373 528.170411 198.037373 524.756916 
C 198.037373 521.343421 196.681177 518.069274 194.267471 515.655568 
C 191.853765 513.241862 188.579618 511.885666 185.166123 511.885666 
C 181.752628 511.885666 178.478481 513.241862 176.064775 515.655568 
C 173.651069 518.069274 172.294873 521.343421 172.294873 524.756916 
C 172.294873 528.170411 173.651069 531.444558 176.064775 533.858264 
C 178.478481 536.27197 181.752628 537.628166 185.166123 537.628166 
z
" clip-path="url(#pd12f378ff8)" style="stroke: #000000; stroke-width: 2; stroke-linejoin: miter"/>
   </g>
   <g id="patch_12">
    <path d="M 185.166123 417.119321 
C 186.62905 417.119321 188.032256 416.538095 189.066701 415.503649 
C 190.101146 414.469204 190.682373 413.065998 190.682373 411.603071 
C 190.682373 410.140145 190.101146 408.736939 189.066701 407.702494 
C 188.032256 406.668048 186.62905 406.086822 185.166123 406.086822 
C 183.703197 406.086822 182.299991 406.668048 181.265545 407.702494 
C 180.2311 408.736939 179.649873 410.140145 179.649873 411.603071 
C 179.649873 413.065998 180.2311 414.469204 181.265545 415.503649 
C 182.299991 416.538095 183.703197 417.119321 185.166123 417.119321 
z
" clip-path="url(#pd12f378ff8)" style="stroke: #000000; stroke-width: 1.5; stroke-linejoin: miter"/>
   </g>
   <g id="patch_13">
    <path d="M 185.166123 481.051244 
C 188.579618 481.051244 191.853765 479.695048 194.267471 477.281342 
C 196.681177 474.867636 198.037373 471.593489 198.037373 468.179994 
C 198.037373 464.766498 196.681177 461.492351 194.267471 459.078646 
C 191.853765 456.66494 188.579618 455.308744 185.166123 455.308744 
C 181.752628 455.308744 178.478481 456.66494 176.064775 459.078646 
C 173.651069 461.492351 172.294873 464.766498 172.294873 468.179994 
C 172.294873 471.593489 173.651069 474.867636 176.064775 477.281342 
C 178.478481 479.695048 181.752628 481.051244 185.166123 481.051244 
z
" clip-path="url(#pd12f378ff8)" style="stroke: #000000; stroke-width: 2; stroke-linejoin: miter"/>
   </g>
   <g id="patch_14">
    <path d="M 185.166123 77.657788 
C 186.62905 77.657788 188.032256 77.076561 189.066701 76.042116 
C 190.101146 75.00767 190.682373 73.604464 190.682373 72.141538 
C 190.682373 70.678611 190.101146 69.275405 189.066701 68.24096 
C 188.032256 67.206515 186.62905 66.625288 185.166123 66.625288 
C 183.703197 66.625288 182.299991 67.206515 181.265545 68.24096 
C 180.2311 69.275405 179.649873 70.678611 179.649873 72.141538 
C 179.649873 73.604464 180.2311 75.00767 181.265545 76.042116 
C 182.299991 77.076561 183.703197 77.657788 185.166123 77.657788 
z
" clip-path="url(#pd12f378ff8)" style="stroke: #000000; stroke-width: 1.5; stroke-linejoin: miter"/>
   </g>
   <g id="patch_15">
    <path d="M 185.166123 198.166632 
C 188.579618 198.166632 191.853765 196.810436 194.267471 194.39673 
C 196.681177 191.983025 198.037373 188.708878 198.037373 185.295382 
C 198.037373 181.881887 196.681177 178.60774 194.267471 176.194034 
C 191.853765 173.780329 188.579618 172.424133 185.166123 172.424133 
C 181.752628 172.424133 178.478481 173.780329 176.064775 176.194034 
C 173.651069 178.60774 172.294873 181.881887 172.294873 185.295382 
C 172.294873 188.708878 173.651069 191.983025 176.064775 194.39673 
C 178.478481 196.810436 181.752628 198.166632 185.166123 198.166632 
z
" clip-path="url(#pd12f378ff8)" style="stroke: #000000; stroke-width: 2; stroke-linejoin: miter"/>
   </g>
   <g id="patch_16">
    <path d="M 241.743045 473.696244 
C 243.205972 473.696244 244.609178 473.115017 245.643623 472.080571 
C 246.678068 471.046126 247.259295 469.64292 247.259295 468.179994 
C 247.259295 466.717067 246.678068 465.313861 245.643623 464.279416 
C 244.609178 463.244971 243.205972 462.663744 241.743045 462.663744 
C 240.280119 462.663744 238.876913 463.244971 237.842468 464.279416 
C 236.808022 465.313861 236.226795 466.717067 236.226795 468.179994 
C 236.226795 469.64292 236.808022 471.046126 237.842468 472.080571 
C 238.876913 473.115017 240.280119 473.696244 241.743045 473.696244 
z
" clip-path="url(#pd12f378ff8)" style="stroke: #000000; stroke-width: 1.5; stroke-linejoin: miter"/>
   </g>
   <g id="patch_17">
    <path d="M 241.743045 537.628166 
C 245.156541 537.628166 248.430688 536.27197 250.844393 533.858264 
C 253.258099 531.444558 254.614295 528.170411 254.614295 524.756916 
C 254.614295 521.343421 253.258099 518.069274 250.844393 515.655568 
C 248.430688 513.241862 245.156541 511.885666 241.743045 511.885666 
C 238.32955 511.885666 235.055403 513.241862 232.641697 515.655568 
C 230.227992 518.069274 228.871796 521.343421 228.871796 524.756916 
C 228.871796 528.170411 230.227992 531.444558 232.641697 533.858264 
C 235.055403 536.27197 238.32955 537.628166 241.743045 537.628166 
z
" clip-path="url(#pd12f378ff8)" style="stroke: #000000; stroke-width: 2; stroke-linejoin: miter"/>
   </g>
   <g id="patch_18">
    <path d="M 241.743045 190.811632 
C 243.205972 190.811632 244.609178 190.230405 245.643623 189.19596 
C 246.678068 188.161515 247.259295 186.758309 247.259295 185.295382 
C 247.259295 183.832456 246.678068 182.42925 245.643623 181.394805 
C 244.609178 180.360359 243.205972 179.779132 241.743045 179.779132 
C 240.280119 179.779132 238.876913 180.360359 237.842468 181.394805 
C 236.808022 182.42925 236.226795 183.832456 236.226795 185.295382 
C 236.226795 186.758309 236.808022 188.161515 237.842468 189.19596 
C 238.876913 190.230405 240.280119 190.811632 241.743045 190.811632 
z
" clip-path="url(#pd12f378ff8)" style="stroke: #000000; stroke-width: 1.5; stroke-linejoin: miter"/>
   </g>
   <g id="patch_19">
    <path d="M 241.743045 254.743554 
C 245.156541 254.743554 248.430688 253.387358 250.844393 250.973653 
C 253.258099 248.559947 254.614295 245.2858 254.614295 241.872305 
C 254.614295 238.458809 253.258099 235.184662 250.844393 232.770957 
C 248.430688 230.357251 245.156541 229.001055 241.743045 229.001055 
C 238.32955 229.001055 235.055403 230.357251 232.641697 232.770957 
C 230.227992 235.184662 228.871796 238.458809 228.871796 241.872305 
C 228.871796 245.2858 230.227992 248.559947 232.641697 250.973653 
C 235.055403 253.387358 238.32955 254.743554 241.743045 254.743554 
z
" clip-path="url(#pd12f378ff8)" style="stroke: #000000; stroke-width: 2; stroke-linejoin: miter"/>
   </g>
   <g id="patch_20">
    <path d="M 279.932468 543.144416 
L 316.707467 543.144416 
L 316.707467 506.369416 
L 279.932468 506.369416 
z
" clip-path="url(#pd12f378ff8)" style="fill: #ffffff; stroke: #000000; stroke-width: 1.5; stroke-linejoin: miter"/>
   </g>
   <g id="patch_21">
    <path d="M 279.932468 260.259804 
L 316.707467 260.259804 
L 316.707467 223.484805 
L 279.932468 223.484805 
z
" clip-path="url(#pd12f378ff8)" style="fill: #ffffff; stroke: #000000; stroke-width: 1.5; stroke-linejoin: miter"/>
   </g>
   <g id="patch_22">
    <path d="M 354.89689 586.850088 
C 356.359817 586.850088 357.763022 586.268861 358.797468 585.234416 
C 359.831913 584.199971 360.41314 582.796765 360.41314 581.333838 
C 360.41314 579.870912 359.831913 578.467706 358.797468 577.433261 
C 357.763022 576.398815 356.359817 575.817588 354.89689 575.817588 
C 353.433963 575.817588 352.030758 576.398815 350.996312 577.433261 
C 349.961867 578.467706 349.38064 579.870912 349.38064 581.333838 
C 349.38064 582.796765 349.961867 584.199971 350.996312 585.234416 
C 352.030758 586.268861 353.433963 586.850088 354.89689 586.850088 
z
" clip-path="url(#pd12f378ff8)" style="stroke: #000000; stroke-width: 1.5; stroke-linejoin: miter"/>
   </g>
   <g id="patch_23">
    <path d="M 354.89689 537.628166 
C 358.310385 537.628166 361.584532 536.27197 363.998238 533.858264 
C 366.411944 531.444558 367.76814 528.170411 367.76814 524.756916 
C 367.76814 521.343421 366.411944 518.069274 363.998238 515.655568 
C 361.584532 513.241862 358.310385 511.885666 354.89689 511.885666 
C 351.483395 511.885666 348.209248 513.241862 345.795542 515.655568 
C 343.381836 518.069274 342.02564 521.343421 342.02564 524.756916 
C 342.02564 528.170411 343.381836 531.444558 345.795542 533.858264 
C 348.209248 536.27197 351.483395 537.628166 354.89689 537.628166 
z
" clip-path="url(#pd12f378ff8)" style="stroke: #000000; stroke-width: 2; stroke-linejoin: miter"/>
   </g>
   <g id="patch_24">
    <path d="M 354.89689 303.965477 
C 356.359817 303.965477 357.763022 303.38425 358.797468 302.349805 
C 359.831913 301.315359 360.41314 299.912154 360.41314 298.449227 
C 360.41314 296.9863 359.831913 295.583095 358.797468 294.548649 
C 357.763022 293.514204 356.359817 292.932977 354.89689 292.932977 
C 353.433963 292.932977 352.030758 293.514204 350.996312 294.548649 
C 349.961867 295.583095 349.38064 296.9863 349.38064 298.449227 
C 349.38064 299.912154 349.961867 301.315359 350.996312 302.349805 
C 352.030758 303.38425 353.433963 303.965477 354.89689 303.965477 
z
" clip-path="url(#pd12f378ff8)" style="stroke: #000000; stroke-width: 1.5; stroke-linejoin: miter"/>
   </g>
   <g id="patch_25">
    <path d="M 354.89689 254.743554 
C 358.310385 254.743554 361.584532 253.387358 363.998238 250.973653 
C 366.411944 248.559947 367.76814 245.2858 367.76814 241.872305 
C 367.76814 238.458809 366.411944 235.184662 363.998238 232.770957 
C 361.584532 230.357251 358.310385 229.001055 354.89689 229.001055 
C 351.483395 229.001055 348.209248 230.357251 345.795542 232.770957 
C 343.381836 235.184662 342.02564 238.458809 342.02564 241.872305 
C 342.02564 245.2858 343.381836 248.559947 345.795542 250.973653 
C 348.209248 253.387358 351.483395 254.743554 354.89689 254.743554 
z
" clip-path="url(#pd12f378ff8)" style="stroke: #000000; stroke-width: 2; stroke-linejoin: miter"/>
   </g>
   <g id="patch_26">
    <path d="M 411.473812 473.696244 
C 412.936739 473.696244 414.339945 473.115017 415.37439 472.080571 
C 416.408835 471.046126 416.990062 469.64292 416.990062 468.179994 
C 416.990062 466.717067 416.408835 465.313861 415.37439 464.279416 
C 414.339945 463.244971 412.936739 462.663744 411.473812 462.663744 
C 410.010886 462.663744 408.60768 463.244971 407.573235 464.279416 
C 406.538789 465.313861 405.957562 466.717067 405.957562 468.179994 
C 405.957562 469.64292 406.538789 471.046126 407.573235 472.080571 
C 408.60768 473.115017 410.010886 473.696244 411.473812 473.696244 
z
" clip-path="url(#pd12f378ff8)" style="stroke: #000000; stroke-width: 1.5; stroke-linejoin: miter"/>
   </g>
   <g id="patch_27">
    <path d="M 411.473812 537.628166 
C 414.887308 537.628166 418.161455 536.27197 420.57516 533.858264 
C 422.988866 531.444558 424.345062 528.170411 424.345062 524.756916 
C 424.345062 521.343421 422.988866 518.069274 420.57516 515.655568 
C 418.161455 513.241862 414.887308 511.885666 411.473812 511.885666 
C 408.060317 511.885666 404.78617 513.241862 402.372464 515.655568 
C 399.958759 518.069274 398.602562 521.343421 398.602562 524.756916 
C 398.602562 528.170411 399.958759 531.444558 402.372464 533.858264 
C 404.78617 536.27197 408.060317 537.628166 411.473812 537.628166 
z
" clip-path="url(#pd12f378ff8)" style="stroke: #000000; stroke-width: 2; stroke-linejoin: miter"/>
   </g>
   <g id="patch_28">
    <path d="M 411.473812 190.811632 
C 412.936739 190.811632 414.339945 190.230405 415.37439 189.19596 
C 416.408835 188.161515 416.990062 186.758309 416.990062 185.295382 
C 416.990062 183.832456 416.408835 182.42925 415.37439 181.394805 
C 414.339945 180.360359 412.936739 179.779132 411.473812 179.779132 
C 410.010886 179.779132 408.60768 180.360359 407.573235 181.394805 
C 406.538789 182.42925 405.957562 183.832456 405.957562 185.295382 
C 405.957562 186.758309 406.538789 188.161515 407.573235 189.19596 
C 408.60768 190.230405 410.010886 190.811632 411.473812 190.811632 
z
" clip-path="url(#pd12f378ff8)" style="stroke: #000000; stroke-width: 1.5; stroke-linejoin: miter"/>
   </g>
   <g id="patch_29">
    <path d="M 411.473812 254.743554 
C 414.887308 254.743554 418.161455 253.387358 420.57516 250.973653 
C 422.988866 248.559947 424.345062 245.2858 424.345062 241.872305 
C 424.345062 238.458809 422.988866 235.184662 420.57516 232.770957 
C 418.161455 230.357251 414.887308 229.001055 411.473812 229.001055 
C 408.060317 229.001055 404.78617 230.357251 402.372464 232.770957 
C 399.958759 235.184662 398.602562 238.458809 398.602562 241.872305 
C 398.602562 245.2858 399.958759 248.559947 402.372464 250.973653 
C 404.78617 253.387358 408.060317 254.743554 411.473812 254.743554 
z
" clip-path="url(#pd12f378ff8)" style="stroke: #000000; stroke-width: 2; stroke-linejoin: miter"/>
   </g>
   <g id="patch_30">
    <path d="M 468.050735 417.119321 
C 469.513661 417.119321 470.916867 416.538095 471.951312 415.503649 
C 472.985758 414.469204 473.566984 413.065998 473.566984 411.603071 
C 473.566984 410.140145 472.985758 408.736939 471.951312 407.702494 
C 470.916867 406.668048 469.513661 406.086822 468.050735 406.086822 
C 466.587808 406.086822 465.184602 406.668048 464.150157 407.702494 
C 463.115711 408.736939 462.534485 410.140145 462.534485 411.603071 
C 462.534485 413.065998 463.115711 414.469204 464.150157 415.503649 
C 465.184602 416.538095 466.587808 417.119321 468.050735 417.119321 
z
" clip-path="url(#pd12f378ff8)" style="stroke: #000000; stroke-width: 1.5; stroke-linejoin: miter"/>
   </g>
   <g id="patch_31">
    <path d="M 468.050735 481.051244 
C 471.46423 481.051244 474.738377 479.695048 477.152083 477.281342 
C 479.565788 474.867636 480.921984 471.593489 480.921984 468.179994 
C 480.921984 464.766498 479.565788 461.492351 477.152083 459.078646 
C 474.738377 456.66494 471.46423 455.308744 468.050735 455.308744 
C 464.637239 455.308744 461.363092 456.66494 458.949386 459.078646 
C 456.535681 461.492351 455.179485 464.766498 455.179485 468.179994 
C 455.179485 471.593489 456.535681 474.867636 458.949386 477.281342 
C 461.363092 479.695048 464.637239 481.051244 468.050735 481.051244 
z
" clip-path="url(#pd12f378ff8)" style="stroke: #000000; stroke-width: 2; stroke-linejoin: miter"/>
   </g>
   <g id="patch_32">
    <path d="M 468.050735 77.657788 
C 469.513661 77.657788 470.916867 77.076561 471.951312 76.042116 
C 472.985758 75.00767 473.566984 73.604464 473.566984 72.141538 
C 473.566984 70.678611 472.985758 69.275405 471.951312 68.24096 
C 470.916867 67.206515 469.513661 66.625288 468.050735 66.625288 
C 466.587808 66.625288 465.184602 67.206515 464.150157 68.24096 
C 463.115711 69.275405 462.534485 70.678611 462.534485 72.141538 
C 462.534485 73.604464 463.115711 75.00767 464.150157 76.042116 
C 465.184602 77.076561 466.587808 77.657788 468.050735 77.657788 
z
" clip-path="url(#pd12f378ff8)" style="stroke: #000000; stroke-width: 1.5; stroke-linejoin: miter"/>
   </g>
   <g id="patch_33">
    <path d="M 468.050735 198.166632 
C 471.46423 198.166632 474.738377 196.810436 477.152083 194.39673 
C 479.565788 191.983025 480.921984 188.708878 480.921984 185.295382 
C 480.921984 181.881887 479.565788 178.60774 477.152083 176.194034 
C 474.738377 173.780329 471.46423 172.424133 468.050735 172.424133 
C 464.637239 172.424133 461.363092 173.780329 458.949386 176.194034 
C 456.535681 178.60774 455.179485 181.881887 455.179485 185.295382 
C 455.179485 188.708878 456.535681 191.983025 458.949386 194.39673 
C 461.363092 196.810436 464.637239 198.166632 468.050735 198.166632 
z
" clip-path="url(#pd12f378ff8)" style="stroke: #000000; stroke-width: 2; stroke-linejoin: miter"/>
   </g>
   <g id="patch_34">
    <path d="M 468.050735 586.850088 
C 469.513661 586.850088 470.916867 586.268861 471.951312 585.234416 
C 472.985758 584.199971 473.566984 582.796765 473.566984 581.333838 
C 473.566984 579.870912 472.985758 578.467706 471.951312 577.433261 
C 470.916867 576.398815 469.513661 575.817588 468.050735 575.817588 
C 466.587808 575.817588 465.184602 576.398815 464.150157 577.433261 
C 463.115711 578.467706 462.534485 579.870912 462.534485 581.333838 
C 462.534485 582.796765 463.115711 584.199971 464.150157 585.234416 
C 465.184602 586.268861 466.587808 586.850088 468.050735 586.850088 
z
" clip-path="url(#pd12f378ff8)" style="stroke: #000000; stroke-width: 1.5; stroke-linejoin: miter"/>
   </g>
   <g id="patch_35">
    <path d="M 468.050735 537.628166 
C 471.46423 537.628166 474.738377 536.27197 477.152083 533.858264 
C 479.565788 531.444558 480.921984 528.170411 480.921984 524.756916 
C 480.921984 521.343421 479.565788 518.069274 477.152083 515.655568 
C 474.738377 513.241862 471.46423 511.885666 468.050735 511.885666 
C 464.637239 511.885666 461.363092 513.241862 458.949386 515.655568 
C 456.535681 518.069274 455.179485 521.343421 455.179485 524.756916 
C 455.179485 528.170411 456.535681 531.444558 458.949386 533.858264 
C 461.363092 536.27197 464.637239 537.628166 468.050735 537.628166 
z
" clip-path="url(#pd12f378ff8)" style="stroke: #000000; stroke-width: 2; stroke-linejoin: miter"/>
   </g>
   <g id="patch_36">
    <path d="M 506.240157 429.990571 
L 543.015157 429.990571 
L 543.015157 393.215572 
L 506.240157 393.215572 
z
" clip-path="url(#pd12f378ff8)" style="fill: #ffffff; stroke: #000000; stroke-width: 1.5; stroke-linejoin: miter"/>
   </g>
   <g id="patch_37">
    <path d="M 506.240157 486.567493 
L 543.015157 486.567493 
L 543.015157 449.792494 
L 506.240157 449.792494 
z
" clip-path="url(#pd12f378ff8)" style="fill: #ffffff; stroke: #000000; stroke-width: 1.5; stroke-linejoin: miter"/>
   </g>
   <g id="patch_38">
    <path d="M 524.627657 247.388555 
C 526.090583 247.388555 527.493789 246.807328 528.528235 245.772882 
C 529.56268 244.738437 530.143907 243.335231 530.143907 241.872305 
C 530.143907 240.409378 529.56268 239.006172 528.528235 237.971727 
C 527.493789 236.937282 526.090583 236.356055 524.627657 236.356055 
C 523.16473 236.356055 521.761524 236.937282 520.727079 237.971727 
C 519.692634 239.006172 519.111407 240.409378 519.111407 241.872305 
C 519.111407 243.335231 519.692634 244.738437 520.727079 245.772882 
C 521.761524 246.807328 523.16473 247.388555 524.627657 247.388555 
z
" clip-path="url(#pd12f378ff8)" style="stroke: #000000; stroke-width: 1.5; stroke-linejoin: miter"/>
   </g>
   <g id="patch_39">
    <path d="M 524.627657 198.166632 
C 528.041152 198.166632 531.315299 196.810436 533.729005 194.39673 
C 536.142711 191.983025 537.498907 188.708878 537.498907 185.295382 
C 537.498907 181.881887 536.142711 178.60774 533.729005 176.194034 
C 531.315299 173.780329 528.041152 172.424133 524.627657 172.424133 
C 521.214161 172.424133 517.940014 173.780329 515.526309 176.194034 
C 513.112603 178.60774 511.756407 181.881887 511.756407 185.295382 
C 511.756407 188.708878 513.112603 191.983025 515.526309 194.39673 
C 517.940014 196.810436 521.214161 198.166632 524.627657 198.166632 
z
" clip-path="url(#pd12f378ff8)" style="stroke: #000000; stroke-width: 2; stroke-linejoin: miter"/>
   </g>
   <g id="patch_40">
    <path d="M 524.627657 77.657788 
C 526.090583 77.657788 527.493789 77.076561 528.528235 76.042116 
C 529.56268 75.00767 530.143907 73.604464 530.143907 72.141538 
C 530.143907 70.678611 529.56268 69.275405 528.528235 68.24096 
C 527.493789 67.206515 526.090583 66.625288 524.627657 66.625288 
C 523.16473 66.625288 521.761524 67.206515 520.727079 68.24096 
C 519.692634 69.275405 519.111407 70.678611 519.111407 72.141538 
C 519.111407 73.604464 519.692634 75.00767 520.727079 76.042116 
C 521.761524 77.076561 523.16473 77.657788 524.627657 77.657788 
z
" clip-path="url(#pd12f378ff8)" style="stroke: #000000; stroke-width: 1.5; stroke-linejoin: miter"/>
   </g>
   <g id="patch_41">
    <path d="M 524.627657 141.58971 
C 528.041152 141.58971 531.315299 140.233514 533.729005 137.819808 
C 536.142711 135.406102 537.498907 132.131955 537.498907 128.71846 
C 537.498907 125.304965 536.142711 122.030818 533.729005 119.617112 
C 531.315299 117.203406 528.041152 115.84721 524.627657 115.84721 
C 521.214161 115.84721 517.940014 117.203406 515.526309 119.617112 
C 513.112603 122.030818 511.756407 125.304965 511.756407 128.71846 
C 511.756407 132.131955 513.112603 135.406102 515.526309 137.819808 
C 517.940014 140.233514 521.214161 141.58971 524.627657 141.58971 
z
" clip-path="url(#pd12f378ff8)" style="stroke: #000000; stroke-width: 2; stroke-linejoin: miter"/>
   </g>
   <g id="patch_42">
    <path d="M 581.204579 417.119321 
C 582.667506 417.119321 584.070712 416.538095 585.105157 415.503649 
C 586.139602 414.469204 586.720829 413.065998 586.720829 411.603071 
C 586.720829 410.140145 586.139602 408.736939 585.105157 407.702494 
C 584.070712 406.668048 582.667506 406.086822 581.204579 406.086822 
C 579.741653 406.086822 578.338447 406.668048 577.304001 407.702494 
C 576.269556 408.736939 575.688329 410.140145 575.688329 411.603071 
C 575.688329 413.065998 576.269556 414.469204 577.304001 415.503649 
C 578.338447 416.538095 579.741653 417.119321 581.204579 417.119321 
z
" clip-path="url(#pd12f378ff8)" style="stroke: #000000; stroke-width: 1.5; stroke-linejoin: miter"/>
   </g>
   <g id="patch_43">
    <path d="M 581.204579 537.628166 
C 584.618074 537.628166 587.892221 536.27197 590.305927 533.858264 
C 592.719633 531.444558 594.075829 528.170411 594.075829 524.756916 
C 594.075829 521.343421 592.719633 518.069274 590.305927 515.655568 
C 587.892221 513.241862 584.618074 511.885666 581.204579 511.885666 
C 577.791084 511.885666 574.516937 513.241862 572.103231 515.655568 
C 569.689525 518.069274 568.333329 521.343421 568.333329 524.756916 
C 568.333329 528.170411 569.689525 531.444558 572.103231 533.858264 
C 574.516937 536.27197 577.791084 537.628166 581.204579 537.628166 
z
" clip-path="url(#pd12f378ff8)" style="stroke: #000000; stroke-width: 2; stroke-linejoin: miter"/>
   </g>
   <g id="patch_44">
    <path d="M 581.204579 134.23471 
C 582.667506 134.23471 584.070712 133.653483 585.105157 132.619038 
C 586.139602 131.584593 586.720829 130.181387 586.720829 128.71846 
C 586.720829 127.255534 586.139602 125.852328 585.105157 124.817882 
C 584.070712 123.783437 582.667506 123.20221 581.204579 123.20221 
C 579.741653 123.20221 578.338447 123.783437 577.304001 124.817882 
C 576.269556 125.852328 575.688329 127.255534 575.688329 128.71846 
C 575.688329 130.181387 576.269556 131.584593 577.304001 132.619038 
C 578.338447 133.653483 579.741653 134.23471 581.204579 134.23471 
z
" clip-path="url(#pd12f378ff8)" style="stroke: #000000; stroke-width: 1.5; stroke-linejoin: miter"/>
   </g>
   <g id="patch_45">
    <path d="M 581.204579 198.166632 
C 584.618074 198.166632 587.892221 196.810436 590.305927 194.39673 
C 592.719633 191.983025 594.075829 188.708878 594.075829 185.295382 
C 594.075829 181.881887 592.719633 178.60774 590.305927 176.194034 
C 587.892221 173.780329 584.618074 172.424133 581.204579 172.424133 
C 577.791084 172.424133 574.516937 173.780329 572.103231 176.194034 
C 569.689525 178.60774 568.333329 181.881887 568.333329 185.295382 
C 568.333329 188.708878 569.689525 191.983025 572.103231 194.39673 
C 574.516937 196.810436 577.791084 198.166632 581.204579 198.166632 
z
" clip-path="url(#pd12f378ff8)" style="stroke: #000000; stroke-width: 2; stroke-linejoin: miter"/>
   </g>
   <g id="patch_46">
    <path d="M 619.394002 543.144416 
L 656.169001 543.144416 
L 656.169001 506.369416 
L 619.394002 506.369416 
z
" clip-path="url(#pd12f378ff8)" style="fill: #ffffff; stroke: #000000; stroke-width: 1.5; stroke-linejoin: miter"/>
   </g>
   <g id="patch_47">
    <path d="M 619.394002 203.682882 
L 656.169001 203.682882 
L 656.169001 166.907883 
L 619.394002 166.907883 
z
" clip-path="url(#pd12f378ff8)" style="fill: #ffffff; stroke: #000000; stroke-width: 1.5; stroke-linejoin: miter"/>
   </g>
   <g id="patch_48">
    <path d="M 694.358424 586.850088 
C 695.82135 586.850088 697.224556 586.268861 698.259001 585.234416 
C 699.293447 584.199971 699.874674 582.796765 699.874674 581.333838 
C 699.874674 579.870912 699.293447 578.467706 698.259001 577.433261 
C 697.224556 576.398815 695.82135 575.817588 694.358424 575.817588 
C 692.895497 575.817588 691.492291 576.398815 690.457846 577.433261 
C 689.423401 578.467706 688.842174 579.870912 688.842174 581.333838 
C 688.842174 582.796765 689.423401 584.199971 690.457846 585.234416 
C 691.492291 586.268861 692.895497 586.850088 694.358424 586.850088 
z
" clip-path="url(#pd12f378ff8)" style="stroke: #000000; stroke-width: 1.5; stroke-linejoin: miter"/>
   </g>
   <g id="patch_49">
    <path d="M 694.358424 537.628166 
C 697.771919 537.628166 701.046066 536.27197 703.459772 533.858264 
C 705.873477 531.444558 707.229673 528.170411 707.229673 524.756916 
C 707.229673 521.343421 705.873477 518.069274 703.459772 515.655568 
C 701.046066 513.241862 697.771919 511.885666 694.358424 511.885666 
C 690.944928 511.885666 687.670781 513.241862 685.257076 515.655568 
C 682.84337 518.069274 681.487174 521.343421 681.487174 524.756916 
C 681.487174 528.170411 682.84337 531.444558 685.257076 533.858264 
C 687.670781 536.27197 690.944928 537.628166 694.358424 537.628166 
z
" clip-path="url(#pd12f378ff8)" style="stroke: #000000; stroke-width: 2; stroke-linejoin: miter"/>
   </g>
   <g id="patch_50">
    <path d="M 694.358424 247.388555 
C 695.82135 247.388555 697.224556 246.807328 698.259001 245.772882 
C 699.293447 244.738437 699.874674 243.335231 699.874674 241.872305 
C 699.874674 240.409378 699.293447 239.006172 698.259001 237.971727 
C 697.224556 236.937282 695.82135 236.356055 694.358424 236.356055 
C 692.895497 236.356055 691.492291 236.937282 690.457846 237.971727 
C 689.423401 239.006172 688.842174 240.409378 688.842174 241.872305 
C 688.842174 243.335231 689.423401 244.738437 690.457846 245.772882 
C 691.492291 246.807328 692.895497 247.388555 694.358424 247.388555 
z
" clip-path="url(#pd12f378ff8)" style="stroke: #000000; stroke-width: 1.5; stroke-linejoin: miter"/>
   </g>
   <g id="patch_51">
    <path d="M 694.358424 198.166632 
C 697.771919 198.166632 701.046066 196.810436 703.459772 194.39673 
C 705.873477 191.983025 707.229673 188.708878 707.229673 185.295382 
C 707.229673 181.881887 705.873477 178.60774 703.459772 176.194034 
C 701.046066 173.780329 697.771919 172.424133 694.358424 172.424133 
C 690.944928 172.424133 687.670781 173.780329 685.257076 176.194034 
C 682.84337 178.60774 681.487174 181.881887 681.487174 185.295382 
C 681.487174 188.708878 682.84337 191.983025 685.257076 194.39673 
C 687.670781 196.810436 690.944928 198.166632 694.358424 198.166632 
z
" clip-path="url(#pd12f378ff8)" style="stroke: #000000; stroke-width: 2; stroke-linejoin: miter"/>
   </g>
   <g id="patch_52">
    <path d="M 732.547846 599.721338 
L 769.322846 599.721338 
L 769.322846 562.946339 
L 732.547846 562.946339 
z
" clip-path="url(#pd12f378ff8)" style="fill: #ffffff; stroke: #000000; stroke-width: 1.5; stroke-linejoin: miter"/>
   </g>
   <g id="patch_53">
    <path d="M 750.935346 417.119321 
C 752.398272 417.119321 753.801478 416.538095 754.835924 415.503649 
C 755.870369 414.469204 756.451596 413.065998 756.451596 411.603071 
C 756.451596 410.140145 755.870369 408.736939 754.835924 407.702494 
C 753.801478 406.668048 752.398272 406.086822 750.935346 406.086822 
C 749.472419 406.086822 748.069213 406.668048 747.034768 407.702494 
C 746.000323 408.736939 745.419096 410.140145 745.419096 411.603071 
C 745.419096 413.065998 746.000323 414.469204 747.034768 415.503649 
C 748.069213 416.538095 749.472419 417.119321 750.935346 417.119321 
z
" clip-path="url(#pd12f378ff8)" style="stroke: #000000; stroke-width: 1.5; stroke-linejoin: miter"/>
   </g>
   <g id="patch_54">
    <path d="M 750.935346 537.628166 
C 754.348841 537.628166 757.622988 536.27197 760.036694 533.858264 
C 762.4504 531.444558 763.806596 528.170411 763.806596 524.756916 
C 763.806596 521.343421 762.4504 518.069274 760.036694 515.655568 
C 757.622988 513.241862 754.348841 511.885666 750.935346 511.885666 
C 747.521851 511.885666 744.247704 513.241862 741.833998 515.655568 
C 739.420292 518.069274 738.064096 521.343421 738.064096 524.756916 
C 738.064096 528.170411 739.420292 531.444558 741.833998 533.858264 
C 744.247704 536.27197 747.521851 537.628166 750.935346 537.628166 
z
" clip-path="url(#pd12f378ff8)" style="stroke: #000000; stroke-width: 2; stroke-linejoin: miter"/>
   </g>
   <g id="patch_55">
    <path d="M 750.935346 134.23471 
C 752.398272 134.23471 753.801478 133.653483 754.835924 132.619038 
C 755.870369 131.584593 756.451596 130.181387 756.451596 128.71846 
C 756.451596 127.255534 755.870369 125.852328 754.835924 124.817882 
C 753.801478 123.783437 752.398272 123.20221 750.935346 123.20221 
C 749.472419 123.20221 748.069213 123.783437 747.034768 124.817882 
C 746.000323 125.852328 745.419096 127.255534 745.419096 128.71846 
C 745.419096 130.181387 746.000323 131.584593 747.034768 132.619038 
C 748.069213 133.653483 749.472419 134.23471 750.935346 134.23471 
z
" clip-path="url(#pd12f378ff8)" style="stroke: #000000; stroke-width: 1.5; stroke-linejoin: miter"/>
   </g>
   <g id="patch_56">
    <path d="M 750.935346 198.166632 
C 754.348841 198.166632 757.622988 196.810436 760.036694 194.39673 
C 762.4504 191.983025 763.806596 188.708878 763.806596 185.295382 
C 763.806596 181.881887 762.4504 178.60774 760.036694 176.194034 
C 757.622988 173.780329 754.348841 172.424133 750.935346 172.424133 
C 747.521851 172.424133 744.247704 173.780329 741.833998 176.194034 
C 739.420292 178.60774 738.064096 181.881887 738.064096 185.295382 
C 738.064096 188.708878 739.420292 191.983025 741.833998 194.39673 
C 744.247704 196.810436 747.521851 198.166632 750.935346 198.166632 
z
" clip-path="url(#pd12f378ff8)" style="stroke: #000000; stroke-width: 2; stroke-linejoin: miter"/>
   </g>
   <g id="patch_57">
    <path d="M 807.512268 77.657788 
C 808.975195 77.657788 810.378401 77.076561 811.412846 76.042116 
C 812.447291 75.00767 813.028518 73.604464 813.028518 72.141538 
C 813.028518 70.678611 812.447291 69.275405 811.412846 68.24096 
C 810.378401 67.206515 808.975195 66.625288 807.512268 66.625288 
C 806.049342 66.625288 804.646136 67.206515 803.61169 68.24096 
C 802.577245 69.275405 801.996018 70.678611 801.996018 72.141538 
C 801.996018 73.604464 802.577245 75.00767 803.61169 76.042116 
C 804.646136 77.076561 806.049342 77.657788 807.512268 77.657788 
z
" clip-path="url(#pd12f378ff8)" style="stroke: #000000; stroke-width: 1.5; stroke-linejoin: miter"/>
   </g>
   <g id="patch_58">
    <path d="M 807.512268 141.58971 
C 810.925764 141.58971 814.199911 140.233514 816.613616 137.819808 
C 819.027322 135.406102 820.383518 132.131955 820.383518 128.71846 
C 820.383518 125.304965 819.027322 122.030818 816.613616 119.617112 
C 814.199911 117.203406 810.925764 115.84721 807.512268 115.84721 
C 804.098773 115.84721 800.824626 117.203406 798.41092 119.617112 
C 795.997214 122.030818 794.641018 125.304965 794.641018 128.71846 
C 794.641018 132.131955 795.997214 135.406102 798.41092 137.819808 
C 800.824626 140.233514 804.098773 141.58971 807.512268 141.58971 
z
" clip-path="url(#pd12f378ff8)" style="stroke: #000000; stroke-width: 2; stroke-linejoin: miter"/>
   </g>
   <g id="patch_59">
    <path d="M 789.124768 203.682882 
L 825.899768 203.682882 
L 825.899768 166.907883 
L 789.124768 166.907883 
z
" clip-path="url(#pd12f378ff8)" style="fill: #ffffff; stroke: #000000; stroke-width: 1.5; stroke-linejoin: miter"/>
   </g>
   <g id="patch_60">
    <path d="M 845.701691 90.529038 
L 882.47669 90.529038 
L 882.47669 53.754038 
L 845.701691 53.754038 
z
" clip-path="url(#pd12f378ff8)" style="fill: #ffffff; stroke: #000000; stroke-width: 1.5; stroke-linejoin: miter"/>
   </g>
   <g id="patch_61">
    <path d="M 845.701691 147.10596 
L 882.47669 147.10596 
L 882.47669 110.33096 
L 845.701691 110.33096 
z
" clip-path="url(#pd12f378ff8)" style="fill: #ffffff; stroke: #000000; stroke-width: 1.5; stroke-linejoin: miter"/>
   </g>
   <g id="text_2">
    <g clip-path="url(#pd12f378ff8)">
     <!-- ${q}_{0}$ -->
     <g transform="translate(68.684778 76.592514)scale(0.1625 -0.1625)">
      <defs>
       <path id="DejaVuSans-Oblique-71" d="M 2669 525 
Q 2438 222 2123 65 
Q 1809 -91 1428 -91 
Q 897 -91 595 267 
Q 294 625 294 1253 
Q 294 1759 480 2231 
Q 666 2703 1013 3078 
Q 1238 3322 1530 3453 
Q 1822 3584 2144 3584 
Q 2531 3584 2781 3431 
Q 3031 3278 3144 2969 
L 3244 3494 
L 3822 3494 
L 2888 -1319 
L 2309 -1319 
L 2669 525 
z
M 891 1338 
Q 891 875 1084 633 
Q 1278 391 1644 391 
Q 2188 391 2572 911 
Q 2956 1431 2956 2175 
Q 2956 2625 2757 2864 
Q 2559 3103 2188 3103 
Q 1916 3103 1684 2976 
Q 1453 2850 1281 2606 
Q 1100 2350 995 2006 
Q 891 1663 891 1338 
z
" transform="scale(0.015625)"/>
       <path id="DejaVuSans-30" d="M 2034 4250 
Q 1547 4250 1301 3770 
Q 1056 3291 1056 2328 
Q 1056 1369 1301 889 
Q 1547 409 2034 409 
Q 2525 409 2770 889 
Q 3016 1369 3016 2328 
Q 3016 3291 2770 3770 
Q 2525 4250 2034 4250 
z
M 2034 4750 
Q 2819 4750 3233 4129 
Q 3647 3509 3647 2328 
Q 3647 1150 3233 529 
Q 2819 -91 2034 -91 
Q 1250 -91 836 529 
Q 422 1150 422 2328 
Q 422 3509 836 4129 
Q 1250 4750 2034 4750 
z
" transform="scale(0.015625)"/>
      </defs>
      <use xlink:href="#DejaVuSans-Oblique-71"/>
      <use xlink:href="#DejaVuSans-30" transform="translate(63.476562 -16.40625)scale(0.7)"/>
     </g>
    </g>
   </g>
   <g id="text_3">
    <g clip-path="url(#pd12f378ff8)">
     <!-- ${q}_{1}$ -->
     <g transform="translate(68.684778 133.169437)scale(0.1625 -0.1625)">
      <use xlink:href="#DejaVuSans-Oblique-71"/>
      <use xlink:href="#DejaVuSans-31" transform="translate(63.476562 -16.40625)scale(0.7)"/>
     </g>
    </g>
   </g>
   <g id="text_4">
    <g clip-path="url(#pd12f378ff8)">
     <!-- ${q}_{2}$ -->
     <g transform="translate(68.684778 189.746359)scale(0.1625 -0.1625)">
      <defs>
       <path id="DejaVuSans-32" d="M 1228 531 
L 3431 531 
L 3431 0 
L 469 0 
L 469 531 
Q 828 903 1448 1529 
Q 2069 2156 2228 2338 
Q 2531 2678 2651 2914 
Q 2772 3150 2772 3378 
Q 2772 3750 2511 3984 
Q 2250 4219 1831 4219 
Q 1534 4219 1204 4116 
Q 875 4013 500 3803 
L 500 4441 
Q 881 4594 1212 4672 
Q 1544 4750 1819 4750 
Q 2544 4750 2975 4387 
Q 3406 4025 3406 3419 
Q 3406 3131 3298 2873 
Q 3191 2616 2906 2266 
Q 2828 2175 2409 1742 
Q 1991 1309 1228 531 
z
" transform="scale(0.015625)"/>
      </defs>
      <use xlink:href="#DejaVuSans-Oblique-71"/>
      <use xlink:href="#DejaVuSans-32" transform="translate(63.476562 -16.40625)scale(0.7)"/>
     </g>
    </g>
   </g>
   <g id="text_5">
    <g clip-path="url(#pd12f378ff8)">
     <!-- ${q}_{3}$ -->
     <g transform="translate(68.684778 246.323281)scale(0.1625 -0.1625)">
      <defs>
       <path id="DejaVuSans-33" d="M 2597 2516 
Q 3050 2419 3304 2112 
Q 3559 1806 3559 1356 
Q 3559 666 3084 287 
Q 2609 -91 1734 -91 
Q 1441 -91 1130 -33 
Q 819 25 488 141 
L 488 750 
Q 750 597 1062 519 
Q 1375 441 1716 441 
Q 2309 441 2620 675 
Q 2931 909 2931 1356 
Q 2931 1769 2642 2001 
Q 2353 2234 1838 2234 
L 1294 2234 
L 1294 2753 
L 1863 2753 
Q 2328 2753 2575 2939 
Q 2822 3125 2822 3475 
Q 2822 3834 2567 4026 
Q 2313 4219 1838 4219 
Q 1578 4219 1281 4162 
Q 984 4106 628 3988 
L 628 4550 
Q 988 4650 1302 4700 
Q 1616 4750 1894 4750 
Q 2613 4750 3031 4423 
Q 3450 4097 3450 3541 
Q 3450 3153 3228 2886 
Q 3006 2619 2597 2516 
z
" transform="scale(0.015625)"/>
      </defs>
      <use xlink:href="#DejaVuSans-Oblique-71"/>
      <use xlink:href="#DejaVuSans-33" transform="translate(63.476562 -16.40625)scale(0.7)"/>
     </g>
    </g>
   </g>
   <g id="text_6">
    <g clip-path="url(#pd12f378ff8)">
     <!-- ${q}_{4}$ -->
     <g transform="translate(68.684778 302.900203)scale(0.1625 -0.1625)">
      <use xlink:href="#DejaVuSans-Oblique-71"/>
      <use xlink:href="#DejaVuSans-34" transform="translate(63.476562 -16.40625)scale(0.7)"/>
     </g>
    </g>
   </g>
   <g id="text_7">
    <g clip-path="url(#pd12f378ff8)">
     <!-- ${q}_{5}$ -->
     <g transform="translate(68.684778 359.477126)scale(0.1625 -0.1625)">
      <defs>
       <path id="DejaVuSans-35" d="M 691 4666 
L 3169 4666 
L 3169 4134 
L 1269 4134 
L 1269 2991 
Q 1406 3038 1543 3061 
Q 1681 3084 1819 3084 
Q 2600 3084 3056 2656 
Q 3513 2228 3513 1497 
Q 3513 744 3044 326 
Q 2575 -91 1722 -91 
Q 1428 -91 1123 -41 
Q 819 9 494 109 
L 494 744 
Q 775 591 1075 516 
Q 1375 441 1709 441 
Q 2250 441 2565 725 
Q 2881 1009 2881 1497 
Q 2881 1984 2565 2268 
Q 2250 2553 1709 2553 
Q 1456 2553 1204 2497 
Q 953 2441 691 2322 
L 691 4666 
z
" transform="scale(0.015625)"/>
      </defs>
      <use xlink:href="#DejaVuSans-Oblique-71"/>
      <use xlink:href="#DejaVuSans-35" transform="translate(63.476562 -16.40625)scale(0.7)"/>
     </g>
    </g>
   </g>
   <g id="text_8">
    <g clip-path="url(#pd12f378ff8)">
     <!-- ${q}_{6}$ -->
     <g transform="translate(68.684778 416.054048)scale(0.1625 -0.1625)">
      <defs>
       <path id="DejaVuSans-36" d="M 2113 2584 
Q 1688 2584 1439 2293 
Q 1191 2003 1191 1497 
Q 1191 994 1439 701 
Q 1688 409 2113 409 
Q 2538 409 2786 701 
Q 3034 994 3034 1497 
Q 3034 2003 2786 2293 
Q 2538 2584 2113 2584 
z
M 3366 4563 
L 3366 3988 
Q 3128 4100 2886 4159 
Q 2644 4219 2406 4219 
Q 1781 4219 1451 3797 
Q 1122 3375 1075 2522 
Q 1259 2794 1537 2939 
Q 1816 3084 2150 3084 
Q 2853 3084 3261 2657 
Q 3669 2231 3669 1497 
Q 3669 778 3244 343 
Q 2819 -91 2113 -91 
Q 1303 -91 875 529 
Q 447 1150 447 2328 
Q 447 3434 972 4092 
Q 1497 4750 2381 4750 
Q 2619 4750 2861 4703 
Q 3103 4656 3366 4563 
z
" transform="scale(0.015625)"/>
      </defs>
      <use xlink:href="#DejaVuSans-Oblique-71"/>
      <use xlink:href="#DejaVuSans-36" transform="translate(63.476562 -16.40625)scale(0.7)"/>
     </g>
    </g>
   </g>
   <g id="text_9">
    <g clip-path="url(#pd12f378ff8)">
     <!-- ${q}_{7}$ -->
     <g transform="translate(68.684778 472.63097)scale(0.1625 -0.1625)">
      <defs>
       <path id="DejaVuSans-37" d="M 525 4666 
L 3525 4666 
L 3525 4397 
L 1831 0 
L 1172 0 
L 2766 4134 
L 525 4134 
L 525 4666 
z
" transform="scale(0.015625)"/>
      </defs>
      <use xlink:href="#DejaVuSans-Oblique-71"/>
      <use xlink:href="#DejaVuSans-37" transform="translate(63.476562 -16.40625)scale(0.7)"/>
     </g>
    </g>
   </g>
   <g id="text_10">
    <g clip-path="url(#pd12f378ff8)">
     <!-- ${q}_{8}$ -->
     <g transform="translate(68.684778 529.207893)scale(0.1625 -0.1625)">
      <defs>
       <path id="DejaVuSans-38" d="M 2034 2216 
Q 1584 2216 1326 1975 
Q 1069 1734 1069 1313 
Q 1069 891 1326 650 
Q 1584 409 2034 409 
Q 2484 409 2743 651 
Q 3003 894 3003 1313 
Q 3003 1734 2745 1975 
Q 2488 2216 2034 2216 
z
M 1403 2484 
Q 997 2584 770 2862 
Q 544 3141 544 3541 
Q 544 4100 942 4425 
Q 1341 4750 2034 4750 
Q 2731 4750 3128 4425 
Q 3525 4100 3525 3541 
Q 3525 3141 3298 2862 
Q 3072 2584 2669 2484 
Q 3125 2378 3379 2068 
Q 3634 1759 3634 1313 
Q 3634 634 3220 271 
Q 2806 -91 2034 -91 
Q 1263 -91 848 271 
Q 434 634 434 1313 
Q 434 1759 690 2068 
Q 947 2378 1403 2484 
z
M 1172 3481 
Q 1172 3119 1398 2916 
Q 1625 2713 2034 2713 
Q 2441 2713 2670 2916 
Q 2900 3119 2900 3481 
Q 2900 3844 2670 4047 
Q 2441 4250 2034 4250 
Q 1625 4250 1398 4047 
Q 1172 3844 1172 3481 
z
" transform="scale(0.015625)"/>
      </defs>
      <use xlink:href="#DejaVuSans-Oblique-71"/>
      <use xlink:href="#DejaVuSans-38" transform="translate(63.476562 -16.40625)scale(0.7)"/>
     </g>
    </g>
   </g>
   <g id="text_11">
    <g clip-path="url(#pd12f378ff8)">
     <!-- ${q}_{9}$ -->
     <g transform="translate(68.684778 585.784815)scale(0.1625 -0.1625)">
      <defs>
       <path id="DejaVuSans-39" d="M 703 97 
L 703 672 
Q 941 559 1184 500 
Q 1428 441 1663 441 
Q 2288 441 2617 861 
Q 2947 1281 2994 2138 
Q 2813 1869 2534 1725 
Q 2256 1581 1919 1581 
Q 1219 1581 811 2004 
Q 403 2428 403 3163 
Q 403 3881 828 4315 
Q 1253 4750 1959 4750 
Q 2769 4750 3195 4129 
Q 3622 3509 3622 2328 
Q 3622 1225 3098 567 
Q 2575 -91 1691 -91 
Q 1453 -91 1209 -44 
Q 966 3 703 97 
z
M 1959 2075 
Q 2384 2075 2632 2365 
Q 2881 2656 2881 3163 
Q 2881 3666 2632 3958 
Q 2384 4250 1959 4250 
Q 1534 4250 1286 3958 
Q 1038 3666 1038 3163 
Q 1038 2656 1286 2365 
Q 1534 2075 1959 2075 
z
" transform="scale(0.015625)"/>
      </defs>
      <use xlink:href="#DejaVuSans-Oblique-71"/>
      <use xlink:href="#DejaVuSans-39" transform="translate(63.476562 -16.40625)scale(0.7)"/>
     </g>
    </g>
   </g>
   <g id="text_12">
    <g clip-path="url(#pd12f378ff8)">
     <!-- H -->
     <g transform="translate(123.700998 584.921026)scale(0.13 -0.13)">
      <use xlink:href="#DejaVuSans-48"/>
     </g>
    </g>
   </g>
   <g id="text_13">
    <g clip-path="url(#pd12f378ff8)">
     <!-- H -->
     <g transform="translate(123.700998 471.767181)scale(0.13 -0.13)">
      <use xlink:href="#DejaVuSans-48"/>
     </g>
    </g>
   </g>
   <g id="text_14">
    <g clip-path="url(#pd12f378ff8)">
     <!-- H -->
     <g transform="translate(123.700998 415.190259)scale(0.13 -0.13)">
      <use xlink:href="#DejaVuSans-48"/>
     </g>
    </g>
   </g>
   <g id="line2d_33">
    <path d="M 128.589201 249.227305 
L 128.589201 234.517305 
" clip-path="url(#pd12f378ff8)" style="fill: none; stroke: #ffffff; stroke-width: 2; stroke-linecap: square"/>
   </g>
   <g id="line2d_34">
    <path d="M 121.234201 241.872305 
L 135.944201 241.872305 
" clip-path="url(#pd12f378ff8)" style="fill: none; stroke: #ffffff; stroke-width: 2; stroke-linecap: square"/>
   </g>
   <g id="text_15">
    <g clip-path="url(#pd12f378ff8)">
     <!-- H -->
     <g transform="translate(123.700998 188.88257)scale(0.13 -0.13)">
      <use xlink:href="#DejaVuSans-48"/>
     </g>
    </g>
   </g>
   <g id="text_16">
    <g clip-path="url(#pd12f378ff8)">
     <!-- H -->
     <g transform="translate(123.700998 75.728725)scale(0.13 -0.13)">
      <use xlink:href="#DejaVuSans-48"/>
     </g>
    </g>
   </g>
   <g id="text_17">
    <g clip-path="url(#pd12f378ff8)">
     <!-- H -->
     <g transform="translate(123.700998 132.305648)scale(0.13 -0.13)">
      <use xlink:href="#DejaVuSans-48"/>
     </g>
    </g>
   </g>
   <g id="line2d_35">
    <path d="M 185.166123 532.111916 
L 185.166123 517.401916 
" clip-path="url(#pd12f378ff8)" style="fill: none; stroke: #ffffff; stroke-width: 2; stroke-linecap: square"/>
   </g>
   <g id="line2d_36">
    <path d="M 177.811123 524.756916 
L 192.521123 524.756916 
" clip-path="url(#pd12f378ff8)" style="fill: none; stroke: #ffffff; stroke-width: 2; stroke-linecap: square"/>
   </g>
   <g id="line2d_37">
    <path d="M 185.166123 475.534994 
L 185.166123 460.824994 
" clip-path="url(#pd12f378ff8)" style="fill: none; stroke: #ffffff; stroke-width: 2; stroke-linecap: square"/>
   </g>
   <g id="line2d_38">
    <path d="M 177.811123 468.179994 
L 192.521123 468.179994 
" clip-path="url(#pd12f378ff8)" style="fill: none; stroke: #ffffff; stroke-width: 2; stroke-linecap: square"/>
   </g>
   <g id="line2d_39">
    <path d="M 185.166123 192.650382 
L 185.166123 177.940382 
" clip-path="url(#pd12f378ff8)" style="fill: none; stroke: #ffffff; stroke-width: 2; stroke-linecap: square"/>
   </g>
   <g id="line2d_40">
    <path d="M 177.811123 185.295382 
L 192.521123 185.295382 
" clip-path="url(#pd12f378ff8)" style="fill: none; stroke: #ffffff; stroke-width: 2; stroke-linecap: square"/>
   </g>
   <g id="line2d_41">
    <path d="M 241.743045 532.111916 
L 241.743045 517.401916 
" clip-path="url(#pd12f378ff8)" style="fill: none; stroke: #ffffff; stroke-width: 2; stroke-linecap: square"/>
   </g>
   <g id="line2d_42">
    <path d="M 234.388046 524.756916 
L 249.098045 524.756916 
" clip-path="url(#pd12f378ff8)" style="fill: none; stroke: #ffffff; stroke-width: 2; stroke-linecap: square"/>
   </g>
   <g id="line2d_43">
    <path d="M 241.743045 249.227305 
L 241.743045 234.517305 
" clip-path="url(#pd12f378ff8)" style="fill: none; stroke: #ffffff; stroke-width: 2; stroke-linecap: square"/>
   </g>
   <g id="line2d_44">
    <path d="M 234.388046 241.872305 
L 249.098045 241.872305 
" clip-path="url(#pd12f378ff8)" style="fill: none; stroke: #ffffff; stroke-width: 2; stroke-linecap: square"/>
   </g>
   <g id="text_18">
    <g clip-path="url(#pd12f378ff8)">
     <!-- 1 -->
     <g transform="translate(295.774968 537.996916)scale(0.08 -0.08)">
      <use xlink:href="#DejaVuSans-31"/>
     </g>
    </g>
   </g>
   <g id="text_19">
    <g clip-path="url(#pd12f378ff8)">
     <!-- $\mathrm{R_Z}$ -->
     <g transform="translate(290.389968 522.827854)scale(0.13 -0.13)">
      <defs>
       <path id="DejaVuSans-5a" d="M 359 4666 
L 4025 4666 
L 4025 4184 
L 1075 531 
L 4097 531 
L 4097 0 
L 288 0 
L 288 481 
L 3238 4134 
L 359 4134 
L 359 4666 
z
" transform="scale(0.015625)"/>
      </defs>
      <use xlink:href="#DejaVuSans-52" transform="translate(0 0.09375)"/>
      <use xlink:href="#DejaVuSans-5a" transform="translate(70.439453 -16.3125)scale(0.7)"/>
     </g>
    </g>
   </g>
   <g id="text_20">
    <g clip-path="url(#pd12f378ff8)">
     <!-- 1 -->
     <g transform="translate(295.774968 255.112304)scale(0.08 -0.08)">
      <use xlink:href="#DejaVuSans-31"/>
     </g>
    </g>
   </g>
   <g id="text_21">
    <g clip-path="url(#pd12f378ff8)">
     <!-- $\mathrm{R_Z}$ -->
     <g transform="translate(290.389968 239.943242)scale(0.13 -0.13)">
      <use xlink:href="#DejaVuSans-52" transform="translate(0 0.09375)"/>
      <use xlink:href="#DejaVuSans-5a" transform="translate(70.439453 -16.3125)scale(0.7)"/>
     </g>
    </g>
   </g>
   <g id="line2d_45">
    <path d="M 354.89689 532.111916 
L 354.89689 517.401916 
" clip-path="url(#pd12f378ff8)" style="fill: none; stroke: #ffffff; stroke-width: 2; stroke-linecap: square"/>
   </g>
   <g id="line2d_46">
    <path d="M 347.54189 524.756916 
L 362.25189 524.756916 
" clip-path="url(#pd12f378ff8)" style="fill: none; stroke: #ffffff; stroke-width: 2; stroke-linecap: square"/>
   </g>
   <g id="line2d_47">
    <path d="M 354.89689 249.227305 
L 354.89689 234.517305 
" clip-path="url(#pd12f378ff8)" style="fill: none; stroke: #ffffff; stroke-width: 2; stroke-linecap: square"/>
   </g>
   <g id="line2d_48">
    <path d="M 347.54189 241.872305 
L 362.25189 241.872305 
" clip-path="url(#pd12f378ff8)" style="fill: none; stroke: #ffffff; stroke-width: 2; stroke-linecap: square"/>
   </g>
   <g id="line2d_49">
    <path d="M 411.473812 532.111916 
L 411.473812 517.401916 
" clip-path="url(#pd12f378ff8)" style="fill: none; stroke: #ffffff; stroke-width: 2; stroke-linecap: square"/>
   </g>
   <g id="line2d_50">
    <path d="M 404.118812 524.756916 
L 418.828812 524.756916 
" clip-path="url(#pd12f378ff8)" style="fill: none; stroke: #ffffff; stroke-width: 2; stroke-linecap: square"/>
   </g>
   <g id="line2d_51">
    <path d="M 411.473812 249.227305 
L 411.473812 234.517305 
" clip-path="url(#pd12f378ff8)" style="fill: none; stroke: #ffffff; stroke-width: 2; stroke-linecap: square"/>
   </g>
   <g id="line2d_52">
    <path d="M 404.118812 241.872305 
L 418.828812 241.872305 
" clip-path="url(#pd12f378ff8)" style="fill: none; stroke: #ffffff; stroke-width: 2; stroke-linecap: square"/>
   </g>
   <g id="line2d_53">
    <path d="M 468.050735 475.534994 
L 468.050735 460.824994 
" clip-path="url(#pd12f378ff8)" style="fill: none; stroke: #ffffff; stroke-width: 2; stroke-linecap: square"/>
   </g>
   <g id="line2d_54">
    <path d="M 460.695735 468.179994 
L 475.405734 468.179994 
" clip-path="url(#pd12f378ff8)" style="fill: none; stroke: #ffffff; stroke-width: 2; stroke-linecap: square"/>
   </g>
   <g id="line2d_55">
    <path d="M 468.050735 192.650382 
L 468.050735 177.940382 
" clip-path="url(#pd12f378ff8)" style="fill: none; stroke: #ffffff; stroke-width: 2; stroke-linecap: square"/>
   </g>
   <g id="line2d_56">
    <path d="M 460.695735 185.295382 
L 475.405734 185.295382 
" clip-path="url(#pd12f378ff8)" style="fill: none; stroke: #ffffff; stroke-width: 2; stroke-linecap: square"/>
   </g>
   <g id="line2d_57">
    <path d="M 468.050735 532.111916 
L 468.050735 517.401916 
" clip-path="url(#pd12f378ff8)" style="fill: none; stroke: #ffffff; stroke-width: 2; stroke-linecap: square"/>
   </g>
   <g id="line2d_58">
    <path d="M 460.695735 524.756916 
L 475.405734 524.756916 
" clip-path="url(#pd12f378ff8)" style="fill: none; stroke: #ffffff; stroke-width: 2; stroke-linecap: square"/>
   </g>
   <g id="text_22">
    <g clip-path="url(#pd12f378ff8)">
     <!-- H -->
     <g transform="translate(519.739454 415.190259)scale(0.13 -0.13)">
      <use xlink:href="#DejaVuSans-48"/>
     </g>
    </g>
   </g>
   <g id="text_23">
    <g clip-path="url(#pd12f378ff8)">
     <!-- H -->
     <g transform="translate(519.739454 471.767181)scale(0.13 -0.13)">
      <use xlink:href="#DejaVuSans-48"/>
     </g>
    </g>
   </g>
   <g id="line2d_59">
    <path d="M 524.627657 192.650382 
L 524.627657 177.940382 
" clip-path="url(#pd12f378ff8)" style="fill: none; stroke: #ffffff; stroke-width: 2; stroke-linecap: square"/>
   </g>
   <g id="line2d_60">
    <path d="M 517.272657 185.295382 
L 531.982657 185.295382 
" clip-path="url(#pd12f378ff8)" style="fill: none; stroke: #ffffff; stroke-width: 2; stroke-linecap: square"/>
   </g>
   <g id="line2d_61">
    <path d="M 524.627657 136.07346 
L 524.627657 121.36346 
" clip-path="url(#pd12f378ff8)" style="fill: none; stroke: #ffffff; stroke-width: 2; stroke-linecap: square"/>
   </g>
   <g id="line2d_62">
    <path d="M 517.272657 128.71846 
L 531.982657 128.71846 
" clip-path="url(#pd12f378ff8)" style="fill: none; stroke: #ffffff; stroke-width: 2; stroke-linecap: square"/>
   </g>
   <g id="line2d_63">
    <path d="M 581.204579 532.111916 
L 581.204579 517.401916 
" clip-path="url(#pd12f378ff8)" style="fill: none; stroke: #ffffff; stroke-width: 2; stroke-linecap: square"/>
   </g>
   <g id="line2d_64">
    <path d="M 573.849579 524.756916 
L 588.559579 524.756916 
" clip-path="url(#pd12f378ff8)" style="fill: none; stroke: #ffffff; stroke-width: 2; stroke-linecap: square"/>
   </g>
   <g id="line2d_65">
    <path d="M 581.204579 192.650382 
L 581.204579 177.940382 
" clip-path="url(#pd12f378ff8)" style="fill: none; stroke: #ffffff; stroke-width: 2; stroke-linecap: square"/>
   </g>
   <g id="line2d_66">
    <path d="M 573.849579 185.295382 
L 588.559579 185.295382 
" clip-path="url(#pd12f378ff8)" style="fill: none; stroke: #ffffff; stroke-width: 2; stroke-linecap: square"/>
   </g>
   <g id="text_24">
    <g clip-path="url(#pd12f378ff8)">
     <!-- 1 -->
     <g transform="translate(635.236501 537.996916)scale(0.08 -0.08)">
      <use xlink:href="#DejaVuSans-31"/>
     </g>
    </g>
   </g>
   <g id="text_25">
    <g clip-path="url(#pd12f378ff8)">
     <!-- $\mathrm{R_Z}$ -->
     <g transform="translate(629.851501 522.827854)scale(0.13 -0.13)">
      <use xlink:href="#DejaVuSans-52" transform="translate(0 0.09375)"/>
      <use xlink:href="#DejaVuSans-5a" transform="translate(70.439453 -16.3125)scale(0.7)"/>
     </g>
    </g>
   </g>
   <g id="text_26">
    <g clip-path="url(#pd12f378ff8)">
     <!-- 1 -->
     <g transform="translate(635.236501 198.535382)scale(0.08 -0.08)">
      <use xlink:href="#DejaVuSans-31"/>
     </g>
    </g>
   </g>
   <g id="text_27">
    <g clip-path="url(#pd12f378ff8)">
     <!-- $\mathrm{R_Z}$ -->
     <g transform="translate(629.851501 183.36632)scale(0.13 -0.13)">
      <use xlink:href="#DejaVuSans-52" transform="translate(0 0.09375)"/>
      <use xlink:href="#DejaVuSans-5a" transform="translate(70.439453 -16.3125)scale(0.7)"/>
     </g>
    </g>
   </g>
   <g id="line2d_67">
    <path d="M 694.358424 532.111916 
L 694.358424 517.401916 
" clip-path="url(#pd12f378ff8)" style="fill: none; stroke: #ffffff; stroke-width: 2; stroke-linecap: square"/>
   </g>
   <g id="line2d_68">
    <path d="M 687.003424 524.756916 
L 701.713424 524.756916 
" clip-path="url(#pd12f378ff8)" style="fill: none; stroke: #ffffff; stroke-width: 2; stroke-linecap: square"/>
   </g>
   <g id="line2d_69">
    <path d="M 694.358424 192.650382 
L 694.358424 177.940382 
" clip-path="url(#pd12f378ff8)" style="fill: none; stroke: #ffffff; stroke-width: 2; stroke-linecap: square"/>
   </g>
   <g id="line2d_70">
    <path d="M 687.003424 185.295382 
L 701.713424 185.295382 
" clip-path="url(#pd12f378ff8)" style="fill: none; stroke: #ffffff; stroke-width: 2; stroke-linecap: square"/>
   </g>
   <g id="text_28">
    <g clip-path="url(#pd12f378ff8)">
     <!-- H -->
     <g transform="translate(746.047143 584.921026)scale(0.13 -0.13)">
      <use xlink:href="#DejaVuSans-48"/>
     </g>
    </g>
   </g>
   <g id="line2d_71">
    <path d="M 750.935346 532.111916 
L 750.935346 517.401916 
" clip-path="url(#pd12f378ff8)" style="fill: none; stroke: #ffffff; stroke-width: 2; stroke-linecap: square"/>
   </g>
   <g id="line2d_72">
    <path d="M 743.580346 524.756916 
L 758.290346 524.756916 
" clip-path="url(#pd12f378ff8)" style="fill: none; stroke: #ffffff; stroke-width: 2; stroke-linecap: square"/>
   </g>
   <g id="line2d_73">
    <path d="M 750.935346 192.650382 
L 750.935346 177.940382 
" clip-path="url(#pd12f378ff8)" style="fill: none; stroke: #ffffff; stroke-width: 2; stroke-linecap: square"/>
   </g>
   <g id="line2d_74">
    <path d="M 743.580346 185.295382 
L 758.290346 185.295382 
" clip-path="url(#pd12f378ff8)" style="fill: none; stroke: #ffffff; stroke-width: 2; stroke-linecap: square"/>
   </g>
   <g id="line2d_75">
    <path d="M 807.512268 136.07346 
L 807.512268 121.36346 
" clip-path="url(#pd12f378ff8)" style="fill: none; stroke: #ffffff; stroke-width: 2; stroke-linecap: square"/>
   </g>
   <g id="line2d_76">
    <path d="M 800.157268 128.71846 
L 814.867268 128.71846 
" clip-path="url(#pd12f378ff8)" style="fill: none; stroke: #ffffff; stroke-width: 2; stroke-linecap: square"/>
   </g>
   <g id="text_29">
    <g clip-path="url(#pd12f378ff8)">
     <!-- H -->
     <g transform="translate(802.624065 188.88257)scale(0.13 -0.13)">
      <use xlink:href="#DejaVuSans-48"/>
     </g>
    </g>
   </g>
   <g id="text_30">
    <g clip-path="url(#pd12f378ff8)">
     <!-- H -->
     <g transform="translate(859.200987 75.728725)scale(0.13 -0.13)">
      <use xlink:href="#DejaVuSans-48"/>
     </g>
    </g>
   </g>
   <g id="text_31">
    <g clip-path="url(#pd12f378ff8)">
     <!-- H -->
     <g transform="translate(859.200987 132.305648)scale(0.13 -0.13)">
      <use xlink:href="#DejaVuSans-48"/>
     </g>
    </g>
   </g>
  </g>
 </g>
 <defs>
  <clipPath id="pd12f378ff8">
   <rect x="27.967427" y="26.88" width="873.462532" height="588.399992"/>
  </clipPath>
 </defs>
</svg>
